<?xml version="1.0" encoding="utf-8"?>
<svg viewBox="0 0 146 110" width="146pt" height="110pt" xmlns="http://www.w3.org/2000/svg">
  <defs/>
  <g id="graph0" class="graph" transform="scale(1 1) rotate(0) translate(4 106)">
    <path d=" M -4 4 C -4 4 -4 -106 -4 -106 C -4 -106 142 -106 142 -106 C 142 -106 142 4 142 4 C 142 4 -4 4 -4 4 Z" style="fill: rgb(255, 255, 255); stroke: none;"/>
    <g id="node1" class="node">
      <ellipse cx="69" cy="-91" rx="11" ry="11" style="fill: none; stroke: rgb(0, 0, 0);"/>
      <text x="69" y="-87.3" style="white-space: pre; text-anchor: middle; font-family: 'Times New Roman', serif; font-size: 14px;"><tspan>5</tspan></text>
    </g>
    <g id="node2" class="node">
      <ellipse cx="69" cy="-50" rx="11" ry="11" style="fill: none; stroke: rgb(0, 0, 0);"/>
      <text x="69" y="-46.3" style="white-space: pre; text-anchor: middle; font-family: 'Times New Roman', serif; font-size: 14px;"><tspan>1</tspan></text>
    </g>
    <g id="edge1" class="edge">
      <path d=" M 69 -61.210899353027344 C 69 -64.02310180664062 69 -66.83519744873047 69 -69.64730072021484" style="fill: rgb(255, 0, 0); stroke: rgb(255, 0, 0);"/>
      <path d=" M 65.5000991821289 -69.8291015625 C 65.5000991821289 -69.8291015625 69 -79.8291015625 69 -79.8291015625 C 69 -79.8291015625 72.5000991821289 -69.8291015625 72.5000991821289 -69.8291015625 C 72.5000991821289 -69.8291015625 65.5000991821289 -69.8291015625 65.5000991821289 -69.8291015625 Z" style="fill: rgb(255, 0, 0); stroke: rgb(255, 0, 0);"/>
    </g>
    <g id="node5" class="node">
      <ellipse cx="11" cy="-30" rx="11" ry="11" style="fill: none; stroke: rgb(0, 0, 0);"/>
      <text x="11" y="-26.3" style="white-space: pre; text-anchor: middle; font-family: 'Times New Roman', serif; font-size: 14px;"><tspan>0</tspan></text>
    </g>
    <g id="edge6" class="edge">
      <path d=" M 58.50040054321289 -46.6072998046875 C 51.06380081176758 -43.95140075683594 40.475799560546875 -40.169898986816406 31.281200408935547 -36.88610076904297" style="fill: none; stroke: rgb(0, 0, 0);"/>
      <path d=" M 32.3291015625 -33.54389953613281 C 32.3291015625 -33.54389953613281 21.734500885009766 -33.476600646972656 21.734500885009766 -33.476600646972656 C 21.734500885009766 -33.476600646972656 29.974700927734375 -40.13610076904297 29.974700927734375 -40.13610076904297 C 29.974700927734375 -40.13610076904297 32.3291015625 -33.54389953613281 32.3291015625 -33.54389953613281 Z" style="fill: rgb(0, 0, 0); stroke: rgb(0, 0, 0);"/>
    </g>
    <g id="node3" class="node">
      <ellipse cx="127" cy="-51" rx="11" ry="11" style="fill: none; stroke: rgb(0, 0, 0);"/>
      <text x="127" y="-47.3" style="white-space: pre; text-anchor: middle; font-family: 'Times New Roman', serif; font-size: 14px;"><tspan>2</tspan></text>
    </g>
    <path d=" M 115.98799896240234 -50.82120132446289 C 108.91000366210938 -50.694801330566406 99.17140197753906 -50.52090072631836 90.47789764404297 -50.365699768066406" style="fill: rgb(255, 0, 0); stroke: rgb(255, 0, 0);" transform="matrix(1, 0, 0, 1, -7.105427357601002e-15, -1.4210854715202004e-14)"/>
    <path d=" M 90.36479949951172 -46.86320114135742 C 90.36479949951172 -46.86320114135742 80.30390167236328 -50.183998107910156 80.30390167236328 -50.183998107910156 C 80.30390167236328 -50.183998107910156 90.23979949951172 -53.862098693847656 90.23979949951172 -53.862098693847656 C 90.23979949951172 -53.862098693847656 90.36479949951172 -46.86320114135742 90.36479949951172 -46.86320114135742 Z" style="fill: rgb(255, 0, 0); stroke: rgb(255, 0, 0);" transform="matrix(1, 0, 0, 1, -7.105427357601002e-15, -1.4210854715202004e-14)"/>
    <path d=" M 96.50910186767578 -50.59469985961914 C 89.43109893798828 -50.468299865722656 99.17140197753906 -50.52090072631836 90.47789764404297 -50.365699768066406" style="fill: rgb(0, 0, 0); stroke: rgb(0, 0, 0);" transform="matrix(-1, 0, 0, 1, 195.48365265064453, -40.72758483886719)"/>
    <path d=" M 90.36479949951172 -46.86320114135742 C 90.36479949951172 -46.86320114135742 80.30390167236328 -50.183998107910156 80.30390167236328 -50.183998107910156 C 80.30390167236328 -50.183998107910156 90.23979949951172 -53.862098693847656 90.23979949951172 -53.862098693847656 C 90.23979949951172 -53.862098693847656 90.36479949951172 -46.86320114135742 90.36479949951172 -46.86320114135742 Z" style="fill: rgb(0, 0, 0); stroke: rgb(0, 0, 0);" transform="matrix(-1, 0, 0, 1, 195.48365241222595, -40.727569580078125)"/>
    <g id="node4" class="node">
      <ellipse cx="127" cy="-91" rx="11" ry="11" style="fill: none; stroke: rgb(0, 0, 0);"/>
      <text x="127" y="-87.3" style="white-space: pre; text-anchor: middle; font-family: 'Times New Roman', serif; font-size: 14px;"><tspan>4</tspan></text>
    </g>
    <g id="edge4" class="edge" transform="matrix(1, 0, 0, -1, -7.105427357601002e-15, -142.01950238834752)">
      <path d=" M 127 -62.25 C 127 -64.71369934082031 127 -67.17739868164062 127 -69.64109802246094" style="fill: none; stroke: rgb(0, 0, 0);"/>
      <path d=" M 123.5 -69.76950073242188 C 123.5 -69.76950073242188 127 -79.76950073242188 127 -79.76950073242188 C 127 -79.76950073242188 130.5 -69.76959991455078 130.5 -69.76959991455078 C 130.5 -69.76959991455078 123.5 -69.76950073242188 123.5 -69.76950073242188 Z" style="fill: rgb(0, 0, 0); stroke: rgb(0, 0, 0);"/>
    </g>
    <g id="node6" class="node">
      <ellipse cx="127" cy="-11" rx="11" ry="11" style="fill: none; stroke: rgb(0, 0, 0);"/>
      <text x="127" y="-7.3" style="white-space: pre; text-anchor: middle; font-family: 'Times New Roman', serif; font-size: 14px;"><tspan>3</tspan></text>
    </g>
    <g id="edge7" class="edge">
      <path d=" M 115.88300323486328 -12.686100006103516 C 97.07569885253906 -15.820699691772461 56.41859817504883 -22.596900939941406 31.916000366210938 -26.680700302124023" style="fill: none; stroke: rgb(0, 0, 0);"/>
      <path d=" M 31.21980094909668 -23.248300552368164 C 31.21980094909668 -23.248300552368164 21.931299209594727 -28.34480094909668 21.931299209594727 -28.34480094909668 C 21.931299209594727 -28.34480094909668 32.37070083618164 -30.153099060058594 32.37070083618164 -30.153099060058594 C 32.37070083618164 -30.153099060058594 31.21980094909668 -23.248300552368164 31.21980094909668 -23.248300552368164 Z" style="fill: rgb(0, 0, 0); stroke: rgb(0, 0, 0);"/>
    </g>
    <text x="111.355224609375" y="-89.27825164794922" style="white-space: pre;"/>
    <text x="102.06878662109375" y="-92.67572784423828" style="white-space: pre;" transform="matrix(-1, 0, 0, 1, 197.59450165733233, 2.264995725402727)"><tspan style="font-size: 16; font-family: Arial;">...</tspan></text>
  </g>
</svg>