<?xml version="1.0" encoding="UTF-8"?> <svg xmlns="http://www.w3.org/2000/svg" xmlns:xlink="http://www.w3.org/1999/xlink" version="1.1" x="0px" y="0px" viewBox="0 0 1417.3 1417.3" style="enable-background:new 0 0 1417.3 1417.3;" xml:space="preserve"> <style type="text/css"> .st0{fill:#6957A1;} .st1{fill-rule:evenodd;clip-rule:evenodd;fill:#F6FAF0;} .st2{fill-rule:evenodd;clip-rule:evenodd;fill:#F9FBF2;} .st3{fill-rule:evenodd;clip-rule:evenodd;fill:#EBF6F5;} .st4{fill-rule:evenodd;clip-rule:evenodd;fill:#122F4B;} .st5{fill-rule:evenodd;clip-rule:evenodd;fill:#F8FAF2;} .st6{fill-rule:evenodd;clip-rule:evenodd;fill:#E8F1EF;} .st7{fill-rule:evenodd;clip-rule:evenodd;fill:#FFFFFF;} .st8{fill-rule:evenodd;clip-rule:evenodd;fill:#6957A1;} .st9{fill:none;stroke:#FFFFFF;stroke-width:6;stroke-miterlimit:10;} .st10{fill-rule:evenodd;clip-rule:evenodd;fill:#0F314B;stroke:#FFFFFF;stroke-width:13;stroke-miterlimit:10;} .st11{fill:none;stroke:#FFFFFF;stroke-width:13;stroke-miterlimit:10;} .st12{fill-rule:evenodd;clip-rule:evenodd;fill:#FFFFFF;stroke:#FFFFFF;stroke-miterlimit:10;} .st13{fill:#FFFFFF;stroke:#FFFFFF;stroke-miterlimit:10;} .st14{fill:#11314A;} .st15{fill:none;stroke:#FFFFFF;stroke-width:13;stroke-linecap:round;stroke-miterlimit:10;} .st16{fill:#FFFFFF;stroke:#FFFFFF;stroke-width:13;stroke-linecap:round;stroke-miterlimit:10;} .st17{fill:none;stroke:#FFFFFF;stroke-width:10;stroke-linecap:round;stroke-miterlimit:10;} .st18{fill:#FFFFFF;stroke:#FFFFFF;stroke-width:10;stroke-linecap:round;stroke-miterlimit:10;} .st19{fill:none;stroke:#FFFFFF;stroke-width:48;stroke-linecap:round;stroke-miterlimit:10;} .st20{fill-rule:evenodd;clip-rule:evenodd;fill:#9A8CC1;stroke:#6957A1;stroke-width:18;stroke-linecap:round;stroke-miterlimit:10;} .st21{fill-rule:evenodd;clip-rule:evenodd;fill:#0F3049;} .st22{fill-rule:evenodd;clip-rule:evenodd;fill:#0D3048;} .st23{fill-rule:evenodd;clip-rule:evenodd;fill:#10304A;} .st24{fill:#FFFFFF;} .st25{fill:#FFFFFF;stroke:#FFFFFF;stroke-width:9;stroke-linecap:round;stroke-miterlimit:10;} .st26{fill:none;stroke:#FFFFFF;stroke-width:8;stroke-linecap:round;stroke-miterlimit:10;} </style> <g id="Слой_1"> <rect class="st0" width="1417.3" height="1417.3"></rect> <g> <path class="st1" d="M923.4,523.7c7.9-0.1,11.4,3.7,10.1,11.5c-4.7,5.9-9.4,5.9-14.1,0C918.3,530.5,919.7,526.6,923.4,523.7z"></path> </g> <g> <path class="st2" d="M1026.2,665.3c12.4-0.7,16.4,4.6,11.9,15.9c-6.3,5.2-11.9,4.6-16.8-1.8 C1019.8,673.5,1021.4,668.9,1026.2,665.3z"></path> </g> <g> <path class="st3" d="M1023.5,705.5c5.3-1.1,7.5,1.1,6.6,6.2c-2.4,3.5-4.7,3.5-7.1,0C1022.6,709.5,1022.7,707.5,1023.5,705.5z"></path> </g> <g> <path class="st4" d="M980.5,804.8c1.3,6.3,1.1,12.4-0.9,18.5c-9.9,16.1-23.4,19.9-40.6,11.5c0-0.3,0-0.6,0-0.9c0-1.1,0-2.4,0-3.5 c-3.7-0.4-5.3-2.4-4.9-6.2c0.9,1.1,1.8,1.1,2.6,0c1,2.2,2.1,4.2,3.5,6.2c0.9-4.1,2.6-7.6,5.3-10.6c0.5,1.6,1.6,2.7,3.1,3.5 c-2,0.8-2.9,2.3-2.6,4.4c3-0.3,5.6-1.3,7.9-3.1c-0.9-0.3-1.8-0.6-2.6-0.9c1.9-0.2,3.7-0.6,5.3-1.3c6.8-1.8,9.5-6.2,8.4-13.2 c-3.3-7-8.4-9.1-15.4-6.2c-1.1,0-2.4,0-3.5,0c0-0.9,0-1.8,0-2.6c6.5-2.4,6.5-3.5,0-3.5c0-0.9,0-1.8,0-2.6 c3.6,0.4,7.1-0.1,10.6-1.3c-1.8-0.3-3.5-0.6-5.3-0.9c0.6-0.3,1.1-0.6,1.8-0.9c4.9-0.4,9.3-1.1,13.2-1.8c1.8,1.1,3.5,2.4,5.3,3.5 c-0.6,0.3-1.1,0.6-1.8,0.9c4.3,1.6,7.3,4.9,8.8,10.1C979.1,804.7,979.7,804.9,980.5,804.8z"></path> </g> <g> <path class="st5" d="M956.7,822.5c-2.4,0.2-4.8,0-7.1-0.4c-7-6.4-7-12.8,0-19c7.1-2.9,12.2-0.8,15.4,6.2 C966.2,816.3,963.5,820.7,956.7,822.5z"></path> </g> <g> <path class="st6" d="M975.1,816.6c0.3,2.1,0,4.2-0.9,6.2c-3.2,2.6-6,5.5-8.4,8.8c-0.3-0.3-0.6-0.6-0.9-0.9 c-9,4.3-18.3,4.7-27.8,0.9c-1.6-0.7-2.5-1.9-2.6-3.5C951.7,836.5,965.2,832.7,975.1,816.6z"></path> </g> <circle class="st7" cx="529.9" cy="498.2" r="10.1"></circle> <ellipse transform="matrix(0.1602 -0.9871 0.9871 0.1602 -2.1908 839.225)" class="st7" cx="492.1" cy="420.9" rx="22.5" ry="22.5"></ellipse> <ellipse class="st7" cx="419.1" cy="564.3" rx="25.1" ry="23.9"></ellipse> <circle class="st7" cx="492.8" cy="622" r="10.1"></circle> <circle class="st7" cx="952.5" cy="624" r="10.1"></circle> <circle class="st7" cx="895.3" cy="429.1" r="14.5"></circle> <circle class="st7" cx="401.5" cy="742.7" r="28.4"></circle> <circle class="st7" cx="954.8" cy="812.2" r="28.4"></circle> <ellipse class="st7" cx="1030.3" cy="677.2" rx="28.4" ry="28.4"></ellipse> <circle class="st7" cx="926.4" cy="531.6" r="24.3"></circle> <circle class="st8" cx="926.4" cy="531.5" r="17.1"></circle> <ellipse transform="matrix(0.1602 -0.9871 0.9871 0.1602 196.9075 1585.637)" class="st8" cx="1030.3" cy="677.1" rx="18.3" ry="18.3"></ellipse> <circle class="st8" cx="954.8" cy="812.2" r="18.3"></circle> <circle class="st8" cx="400.7" cy="742.7" r="18.3"></circle> <circle class="st8" cx="492.1" cy="420.9" r="17.1"></circle> <line class="st9" x1="141.7" y1="1021.9" x2="1275.6" y2="1021.9"></line> <path class="st10" d="M711.3,1021.9c0-72.8,0-145.7,0-218.5"></path> <path class="st10" d="M737,1021.9c0-69.9,0-139.8,0-209.7"></path> <path class="st10" d="M686.8,1021.9c0-69.9,0-139.8,0-209.7"></path> <path class="st11" d="M761.8,1021.9c-0.9-60-1.8-119.9-2.6-180"></path> <path class="st11" d="M659.9,1021.9c0.2-61,0.3-122,0.4-183c-16.3-19-32.6-38-49-57"></path> <line class="st11" x1="757.8" y1="847.1" x2="880.5" y2="716.7"></line> <path class="st11" d="M632.7,1021.9c0-59.4,0-118.6,0-178c-27.2-32-54.4-64-81.6-96"></path> <polyline class="st11" points="585.4,791.4 506.7,791.4 461.6,742.7 435.4,714.3 "></polyline> <line class="st11" x1="460.3" y1="742.7" x2="426.4" y2="742.7"></line> <path class="st11" d="M608.6,1021.9c0-26.6,0-53.4,0-80v-52.5c-11.3-13.5-22.5-27-33.8-40.5"></path> <path class="st11" d="M604.2,939.9h-32h-39.5c-16.4-15.7-32.9-31.3-49.3-47"></path> <polyline class="st11" points="579.4,939 501.7,858.5 450.2,858.5 "></polyline> <ellipse transform="matrix(0.9733 -0.2297 0.2297 0.9733 -153.5324 143.2803)" class="st7" cx="538.6" cy="731" rx="28.4" ry="28.4"></ellipse> <circle class="st8" cx="537.8" cy="731" r="18.3"></circle> <circle class="st12" cx="426.7" cy="858.5" r="28.4"></circle> <circle class="st8" cx="425.9" cy="858.5" r="18.3"></circle> <circle class="st7" cx="435.4" cy="693.6" r="28.4"></circle> <circle class="st8" cx="434.5" cy="693.6" r="18.3"></circle> <circle class="st7" cx="558.3" cy="836.8" r="28.4"></circle> <circle class="st8" cx="557.4" cy="836.8" r="18.3"></circle> <circle class="st7" cx="476.7" cy="896.1" r="28.4"></circle> <circle class="st8" cx="475.9" cy="896.1" r="18.3"></circle> <path class="st11" d="M786.3,1021.9c0-39.5,0-79,0-118.5c12.9-11.9,25.8-23.7,38.5-35.6"></path> <path class="st11" d="M808.8,1021.9c0-22.8,0-45.6,0-68.4c42.3-41.7,84.7-83.3,127-125.1"></path> <polyline class="st11" points="901.2,862.4 901.2,787.4 958.3,724.3 "></polyline> <polyline class="st11" points="886.3,874.6 957.3,874.6 1030.3,799.1 1030.3,698.7 "></polyline> <line class="st11" x1="842.5" y1="919.3" x2="956.3" y2="919.3"></line> <path class="st11" d="M831.3,1021.9c0-6,0-12,0-18c10.4-11.6,20.9-23.4,31.3-35"></path> <g> <path class="st4" d="M990.9,707c1.3,6.3,1.1,12.4-0.9,18.5c-9.9,16.1-23.4,19.9-40.6,11.5c0-0.3,0-0.6,0-0.9c0-1.1,0-2.4,0-3.5 c-3.7-0.4-5.3-2.4-4.9-6.2c0.9,1.1,1.8,1.1,2.6,0c1,2.2,2.1,4.2,3.5,6.2c0.9-4.1,2.6-7.6,5.3-10.6c0.5,1.6,1.6,2.7,3.1,3.5 c-2,0.8-2.9,2.3-2.6,4.4c3-0.3,5.6-1.3,7.9-3.1c-0.9-0.3-1.8-0.6-2.6-0.9c1.9-0.2,3.7-0.6,5.3-1.3c6.8-1.8,9.5-6.2,8.4-13.2 c-3.3-7-8.4-9.1-15.4-6.2c-1.1,0-2.4,0-3.5,0c0-0.9,0-1.8,0-2.6c6.5-2.4,6.5-3.5,0-3.5c0-0.9,0-1.8,0-2.6 c3.6,0.4,7.1-0.1,10.6-1.3c-1.8-0.3-3.5-0.6-5.3-0.9c0.6-0.3,1.1-0.6,1.8-0.9c4.9-0.4,9.3-1.1,13.2-1.8c1.8,1.1,3.5,2.4,5.3,3.5 c-0.6,0.3-1.1,0.6-1.8,0.9c4.3,1.6,7.3,4.9,8.8,10.1C989.6,706.9,990.2,707.1,990.9,707z"></path> </g> <g> <path class="st5" d="M967.1,724.7c-2.4,0.2-4.8,0-7.1-0.4c-7-6.4-7-12.8,0-19c7.1-2.9,12.2-0.8,15.4,6.2 C976.7,718.5,973.9,722.9,967.1,724.7z"></path> </g> <circle class="st7" cx="965.3" cy="714.4" r="28.4"></circle> <circle class="st8" cx="965.3" cy="714.4" r="18.3"></circle> <g> <path class="st4" d="M916.7,711.2c1.3,6.3,1.1,12.4-0.9,18.5c-9.9,16.1-23.4,19.9-40.6,11.5c0-0.3,0-0.6,0-0.9c0-1.1,0-2.4,0-3.5 c-3.7-0.4-5.3-2.4-4.9-6.2c0.9,1.1,1.8,1.1,2.6,0c1,2.2,2.1,4.2,3.5,6.2c0.9-4.1,2.6-7.6,5.3-10.6c0.5,1.6,1.6,2.7,3.1,3.5 c-2,0.8-2.9,2.3-2.6,4.4c3-0.3,5.6-1.3,7.9-3.1c-0.9-0.3-1.8-0.6-2.6-0.9c1.9-0.2,3.7-0.6,5.3-1.3c6.8-1.8,9.5-6.2,8.4-13.2 c-3.3-7-8.4-9.1-15.4-6.2c-1.1,0-2.4,0-3.5,0c0-0.9,0-1.8,0-2.6c6.5-2.4,6.5-3.5,0-3.5c0-0.9,0-1.8,0-2.6 c3.6,0.4,7.1-0.1,10.6-1.3c-1.8-0.3-3.5-0.6-5.3-0.9c0.6-0.3,1.1-0.6,1.8-0.9c4.9-0.4,9.3-1.1,13.2-1.8c1.8,1.1,3.5,2.4,5.3,3.5 c-0.6,0.3-1.1,0.6-1.8,0.9c4.3,1.6,7.3,4.9,8.8,10.1C915.3,711,915.9,711.3,916.7,711.2z"></path> </g> <g> <path class="st5" d="M892.9,728.8c-2.4,0.2-4.8,0-7.1-0.4c-7-6.4-7-12.8,0-19c7.1-2.9,12.2-0.8,15.4,6.2 C902.5,722.7,899.7,727.1,892.9,728.8z"></path> </g> <circle class="st7" cx="891.1" cy="718.5" r="28.4"></circle> <circle class="st8" cx="891.1" cy="718.5" r="18.3"></circle> <g> <path class="st4" d="M857.4,852.9c1.3,6.3,1.1,12.4-0.9,18.5c-9.9,16.1-23.4,19.9-40.6,11.5c0-0.3,0-0.6,0-0.9c0-1.1,0-2.4,0-3.5 c-3.7-0.4-5.3-2.4-4.9-6.2c0.9,1.1,1.8,1.1,2.6,0c1,2.2,2.1,4.2,3.5,6.2c0.9-4.1,2.6-7.6,5.3-10.6c0.5,1.6,1.6,2.7,3.1,3.5 c-2,0.8-2.9,2.3-2.6,4.4c3-0.3,5.6-1.3,7.9-3.1c-0.9-0.3-1.8-0.6-2.6-0.9c1.9-0.2,3.7-0.6,5.3-1.3c6.8-1.8,9.5-6.2,8.4-13.2 c-3.3-7-8.4-9.1-15.4-6.2c-1.1,0-2.4,0-3.5,0c0-0.9,0-1.8,0-2.6c6.5-2.4,6.5-3.5,0-3.5c0-0.9,0-1.8,0-2.6 c3.6,0.4,7.1-0.1,10.6-1.3c-1.8-0.3-3.5-0.6-5.3-0.9c0.6-0.3,1.1-0.6,1.8-0.9c4.9-0.4,9.3-1.1,13.2-1.8c1.8,1.1,3.5,2.4,5.3,3.5 c-0.6,0.3-1.1,0.6-1.8,0.9c4.3,1.6,7.3,4.9,8.8,10.1C856,852.7,856.6,853,857.4,852.9z"></path> </g> <g> <path class="st5" d="M833.6,870.6c-2.4,0.2-4.8,0-7.1-0.4c-7-6.4-7-12.8,0-19c7.1-2.9,12.2-0.8,15.4,6.2 C843.1,864.4,840.3,868.8,833.6,870.6z"></path> </g> <circle class="st12" cx="831.7" cy="860.2" r="28.4"></circle> <circle class="st8" cx="831.7" cy="860.2" r="18.3"></circle> <g> <path class="st4" d="M988.5,909.1c1.3,6.3,1.1,12.4-0.9,18.5c-9.9,16.1-23.4,19.9-40.6,11.5c0-0.3,0-0.6,0-0.9c0-1.1,0-2.4,0-3.5 c-3.7-0.4-5.3-2.4-4.9-6.2c0.9,1.1,1.8,1.1,2.6,0c1,2.2,2.1,4.2,3.5,6.2c0.9-4.1,2.6-7.6,5.3-10.6c0.5,1.6,1.6,2.7,3.1,3.5 c-2,0.8-2.9,2.3-2.6,4.4c3-0.3,5.6-1.3,7.9-3.1c-0.9-0.3-1.8-0.6-2.6-0.9c1.9-0.2,3.7-0.6,5.3-1.3c6.8-1.8,9.5-6.2,8.4-13.2 c-3.3-7-8.4-9.1-15.4-6.2c-1.1,0-2.4,0-3.5,0c0-0.9,0-1.8,0-2.6c6.5-2.4,6.5-3.5,0-3.5c0-0.9,0-1.8,0-2.6 c3.6,0.4,7.1-0.1,10.6-1.3c-1.8-0.3-3.5-0.6-5.3-0.9c0.6-0.3,1.1-0.6,1.8-0.9c4.9-0.4,9.3-1.1,13.2-1.8c1.8,1.1,3.5,2.4,5.3,3.5 c-0.6,0.3-1.1,0.6-1.8,0.9c4.3,1.6,7.3,4.9,8.8,10.1C987.2,908.9,987.8,909.2,988.5,909.1z"></path> </g> <g> <path class="st5" d="M964.7,926.7c-2.4,0.2-4.8,0-7.1-0.4c-7-6.4-7-12.8,0-19c7.1-2.9,12.2-0.8,15.4,6.2 C974.3,920.6,971.5,925,964.7,926.7z"></path> </g> <circle class="st7" cx="963" cy="916.4" r="28.4"></circle> <circle class="st8" cx="963" cy="916.4" r="18.3"></circle> <g> <path class="st4" d="M892.6,955.7c1.3,6.3,1.1,12.4-0.9,18.5c-9.9,16.1-23.4,19.9-40.6,11.5c0-0.3,0-0.6,0-0.9c0-1.1,0-2.4,0-3.5 c-3.7-0.4-5.3-2.4-4.9-6.2c0.9,1.1,1.8,1.1,2.6,0c1,2.2,2.1,4.2,3.5,6.2c0.9-4.1,2.6-7.6,5.3-10.6c0.5,1.6,1.6,2.7,3.1,3.5 c-2,0.8-2.9,2.3-2.6,4.4c3-0.3,5.6-1.2,7.9-3.1c-0.9-0.3-1.8-0.6-2.6-0.9c1.9-0.2,3.7-0.6,5.3-1.3c6.8-1.8,9.5-6.2,8.4-13.2 c-3.3-7-8.4-9.1-15.4-6.2c-1.1,0-2.4,0-3.5,0c0-0.9,0-1.8,0-2.6c6.5-2.4,6.5-3.5,0-3.5c0-0.9,0-1.8,0-2.6 c3.6,0.4,7.1-0.1,10.6-1.3c-1.8-0.3-3.5-0.6-5.3-0.9c0.6-0.3,1.1-0.6,1.8-0.9c4.9-0.4,9.3-1.1,13.2-1.8c1.8,1.1,3.5,2.4,5.3,3.5 c-0.6,0.3-1.1,0.6-1.8,0.9c4.3,1.6,7.3,4.9,8.8,10.1C891.3,955.6,891.8,955.9,892.6,955.7z"></path> </g> <g> <path class="st5" d="M868.8,973.4c-2.4,0.2-4.8,0-7.1-0.4c-7-6.4-7-12.8,0-19c7.1-2.9,12.2-0.8,15.4,6.2 C878.4,967.2,875.6,971.6,868.8,973.4z"></path> </g> <circle class="st12" cx="867" cy="963.2" r="28.4"></circle> <circle class="st8" cx="867" cy="963.2" r="18.3"></circle> <path class="st13" d="M606.3,370.8c4.9,4.2,11.3,9,19.1,13.5c6.3,3.6,12.3,6.3,17.6,8.2l138.6-1.4l24.2-11.6 c3.9-2.9,7.8-5.7,11.6-8.6c5.4,5.1,12.7,13.3,18.9,25c7.3,13.9,9.5,26.3,10.3,32.2c1,7.2,2.6,21-2.6,37.3 c-0.8,2.5-4.2,12.9-12.6,24.2c-6.3,8.6-12.9,14-16,16.5c-3.2,2.5-13.8,10.5-30.3,15.2c-9.1,2.6-27.2,7.5-47,0.4 c-4.4-1.6-8.3-3.5-11.6-5.6c-0.5,1.3-1.3,2.9-2.6,4.7c-1.2,1.7-2.5,2.9-3.4,3.8c-0.7,0.8-2.1,2.2-4.4,3.1c-1.9,0.8-3.7,0.9-4.8,0.9 c-1.5-0.3-3.6-0.7-6-1.8c-2.2-1.1-3.9-2.3-4.9-3.3c-0.9-1-1.9-2.2-2.8-3.9c-0.9-1.5-1.4-2.8-1.8-4c-6.6,3.3-21.3,9.4-40.7,8.5 c-20.1-1.1-34.7-9.2-42-14.1c-5.4-3.6-21.2-15.3-30.1-36.9c-5.5-13.3-6-24.8-6.2-30.3c-0.5-15.3,2.8-26.9,4.2-31.1 c3.4-10.3,7.9-17.7,11.1-22.9c3.4-5.4,6.6-9.7,9.1-12.8C602.9,374.4,604.6,372.6,606.3,370.8z"></path> <ellipse class="st7" cx="712.2" cy="606.9" rx="174.3" ry="168.7"></ellipse> <path class="st8" d="M551.4,606.7c0-50.5,29.4-87.9,40-99.6c3-3.4,6.3-6.3,6.3-6.3s1.9-1.7,3.8-3.4c50-41.9,109.8-41.4,109.8-41.4 c63.9,0.5,104.9,39.4,111.9,46.3c7.6,7.4,48.4,47.6,47.9,104.2C870.4,680.7,798.9,757,711.3,757C623,757.2,551.4,689.8,551.4,606.7 z"></path> <path class="st7" d="M597.8,520.4"></path> <path class="st14" d="M606.6,493.3"></path> <path class="st7" d="M590.9,489.2c5.2,12.1,17.9,37.2,45.2,56.2c32.7,22.8,67.3,23.5,78,23.7c1.4,0,3.4,0.1,6.1,0 c12.7-0.4,37.7-3.1,62.6-20.1c24.6-16.8,36-38.6,40.4-48.2"></path> <path class="st8" d="M609.3,504c-1.4,1.6,17.5,27.6,50,43.5c26.2,12.8,49.1,13.1,54.6,13.1c27,0,46.4-9.3,51.5-11.8 c29.2-14.6,46.9-39.8,44.6-42.5c-2-2.5-16.7,16.8-37.8,14.8c-10.3-1.1-24.9-7.4-38.8-7.2c-4,0-6.3,0.6-7.8,1 c-8.2,2.3-9.2,7.1-13.9,7.5c-7,0.8-8.7-9.1-17.4-10.6c-7.4-1.3-10.3,5-21.4,8.8c-11.5,3.9-21.7,1.8-29.4,0.2 C621.9,516.3,610.3,502.8,609.3,504z"></path> <path class="st15" d="M876.3,580.3c-29.8,15-87.8,39-163.3,37.5c-48.9-1-88.5-12.3-115.1-22.4"></path> <path class="st15" d="M671.2,518.6c-10.6,13.8-23.3,33.7-32.5,59.9c-17.3,49.3-12,92.9-7.8,114.7"></path> <path class="st15" d="M634.9,516.6c-9.2,9.7-21.4,25-31.3,46.3c-8.8,19.1-12.6,36.5-14.3,49"></path> <path class="st16" d="M698.6,515c-5.6,13.2-11.1,29.3-15.4,47.8c-4.6,19.6-6.7,37.2-7.6,52.1"></path> <path class="st15" d="M549.2,640.2c26,14.7,84.4,43.1,163.7,43.2c78.2,0.2,136-27.3,162.2-41.7"></path> <path class="st16" d="M726.5,516.1c1.8,2.9,3.6,6.2,5.3,9.8c2.7,5.7,4.5,11.1,5.8,15.8"></path> <path class="st15" d="M756.9,519.7c3,4.1,6.2,8.6,9.3,13.9c2.9,4.9,5.3,9.5,7.3,13.9"></path> <polyline class="st17" points="754.8,590.4 788.8,585.3 829.9,560.6 834.6,547.5 "></polyline> <line class="st17" x1="653.3" y1="655.4" x2="656" y2="678.4"></line> <line class="st17" x1="682.3" y1="664.1" x2="687.1" y2="700"></line> <line class="st17" x1="756.9" y1="682.1" x2="752" y2="701.7"></line> <path class="st18" d="M875.5,601.9c-7.3,4.7-14.6,9.3-22,13.9L830,626"></path> <polyline class="st17" points="762.2,654.2 807.9,648.2 829.9,658.1 "></polyline> <line class="st17" x1="783.5" y1="692.8" x2="783.5" y2="678.4"></line> <path class="st17" d="M585.1,637.1c0.3,9.5,1.8,24.7,8.9,41.7c6.8,16.4,16,27.9,22.4,34.7"></path> <path class="st17" d="M831.8,663.7c-1.1,6.9-3.9,19.7-12.8,32.8c-8.6,12.7-18.8,19.9-24.7,23.5"></path> <path class="st17" d="M588.9,614.7c-5.9-0.4-14.1-1.5-23.4-4.9c-10.1-3.7-17.6-8.6-22.6-12.5"></path> <path class="st17" d="M783.6,517c5.8,5.9,13.4,15,19.7,27.4c4.7,9.3,7.3,17.9,8.9,24.7"></path> <path class="st7" d="M599.9,498.9c0-9.8,0.9-12.3,1.8-12.3c0.9-0.2,8.4,9.9,13.7,13.9c2.9,2.2,4.3,3.4,5.6,4.1 c3.9,2.6,7.1,4,10.1,5.3c2.7,1.1,6.6,2.8,12.1,4.1c5.4,1.3,9.7,1.7,11.1,1.8c6.7,0.5,11.8-0.2,15.1-0.6c2.9-0.4,5.1-0.9,6.1-1.1 c2.2-0.4,5.3-1.1,9-2.6c3-1.1,4.8-1.9,7.1-3.3c3-1.9,4.4-3.4,5.6-2.8c0.9,0.4,0.6,1.3,1.7,3.4c1.3,2.7,3.1,4.5,4.1,5.5 c1.6,1.5,3,2.3,4.5,3.2c2,1.1,3,1.8,4.2,1.9c1.5,0.1,2.6-0.5,4.8-1.7c1.1-0.6,3.2-1.8,5.2-3.9c0.4-0.4,1.9-2.1,3.4-4.6 c1.4-2.6,1.5-4,2.6-4.2c1-0.3,1.7,0.5,3.8,1.9c0.9,0.5,2.5,1.3,5.6,2.8c2.5,1.1,4.4,2.2,6.9,2.9c1.5,0.5,2.4,0.6,7.9,1.6 c6.3,1,9.5,1.5,10.7,1.6c2.7,0.1,4.9-0.3,9.4-0.9c3.9-0.5,6.6-1,10.2-2.1c2.6-0.9,4.6-1.7,7.5-3c1.8-0.8,4.1-1.9,7.1-3.5 c2.6-1.5,5.2-2.9,7.9-5c5.6-4.5,5.6-7,8.5-7.3c4-0.4,8.8,4.1,8.3,7c-0.2,1.1-1.1,1.6-4.2,3.8c-6.5,4.5-5.1,4-8.8,6.3 s-6.5,3.7-9.5,5.1c-3.8,1.9-6.3,3.1-10,4.3c-4.3,1.4-7.7,2-10.1,2.5c-5.7,1-10.1,1.1-14.3,1.2c-5.6,0.2-9.1,0.3-14-0.5 c-1.8-0.3-8.4-1.3-12.5-3.6c-1.6-0.9-3.4-1.5-4.8-2.6c-0.9-0.8-1.7-1.7-2.6-1.4c-0.4,0.1-0.6,0.5-1.3,1.4s-1.3,1.8-2,2.6 c0,0-0.6,0.9-1.6,2c-1.5,1.7-3,3.4-5.6,4.8c-0.6,0.3-3.4,1.8-7.5,1.7c-3.4-0.1-5.8-1.1-7.2-1.8c-1.7-0.8-3.4-1.5-4.9-3.3 c-3.3-3.4-4.3-6.1-4.3-6.1c-0.3-0.5-0.5-1.5-1.3-1.7c-0.6-0.2-1.1,0.4-2.4,1.1c0,0-0.7,0.4-3,1.7c-0.5,0.3-1.6,0.7-4,1.6 c-3.3,1.1-6.3,1.9-10,2.6c-4.5,0.9-8.2,1.2-10.4,1.4c-4.6,0.4-8.6,0.2-11.6,0c-3.5-0.3-8.5-0.8-14.2-2.3c-3.9-1-9-2.6-14.7-5.3 c-3.3-1.5-8.8-4.2-15-9.2c-2.4-1.9-4.3-3.8-5.6-5.1"></path> <path class="st19" d="M683.4,806.5c0-13.1,0-26.4,0-39.5"></path> <path class="st19" d="M741.9,808.4c0-13.1,0-26.4,0-39.5"></path> <path class="st20" d="M680.1,807.8c0-10.5,0-21,0-31.4"></path> <path class="st20" d="M743.3,808.8c0-10.5,0-21,0-31.4"></path> <path class="st19" d="M697.8,836.9c0-20.3,0-40.5,0-60.8"></path> <path class="st19" d="M725.4,836.9c0-20.3,0-40.5,0-60.8"></path> <path class="st20" d="M698.4,837.6c0-20.6,0-41.4,0-62"></path> <path class="st20" d="M726.9,839.4c0-20.6,0-41.4,0-62"></path> <path class="st8" d="M606.8,390c-1.8,2-5.7,7.1-9.6,14.3c-6.2,11.4-7.8,21.9-8.3,25.3c-0.4,2.6-1.9,15.3,2.6,31 c1.7,5.8,4.9,16.8,14.2,28c2.8,3.4,10.4,11.8,23.2,18c7.1,3.4,16.6,8,28.6,7.1c6.2-0.5,24.9-2.1,33.6-8.1c0.8-0.5,2.8-2,5-1.6 c2.7,0.6,3.3,4,6.4,7.6c0.6,0.7,5.2,6,8,5.5c6.3-1.1,11.9-32.8-0.4-60.1c-3.1-6.8-6.9-11.8-14.4-21.9c-6.7-9-15.7-21-29.9-32.7 c-7.4-6.2-35.6-29.5-49.8-21.3C613.1,382.8,610.4,385.9,606.8,390z"></path> <path class="st8" d="M816.9,390c1.8,2,5.7,7.1,9.6,14.3c6.2,11.4,7.8,21.9,8.3,25.3c0.4,2.6,1.9,15.3-2.6,31 c-1.7,5.8-4.9,16.8-14.2,28c-2.8,3.4-10.4,11.8-23.2,18c-7.1,3.4-16.6,8-28.6,7.1c-6.2-0.5-24.9-2.1-33.6-8.1c-0.8-0.5-2.8-2-5-1.6 c-2.7,0.6-3.3,4-6.4,7.6c-0.6,0.7-5.2,6-8,5.5c-6.3-1.1-11.9-32.8,0.4-60.1c3.1-6.8,6.9-11.8,14.4-21.9c6.7-9,15.7-21,29.9-32.7 c7.4-6.2,35.6-29.5,49.8-21.3C810.6,382.8,813.4,385.9,816.9,390z"></path> <path class="st19" d="M650.9,776.6c0-10.5,0-21,0-31.4"></path> <path class="st19" d="M683.4,776.6c0-10.5,0-21,0-31.4"></path> <path class="st20" d="M650.3,777.6c0-10.5,0-21,0-31.4"></path> <path class="st20" d="M682.3,777.6c0-10.5,0-21,0-31.4"></path> <path class="st19" d="M741.9,776.6c0-10.5,0-21,0-31.4"></path> <path class="st19" d="M774.7,776.6c0-10.5,0-21,0-31.4"></path> <path class="st20" d="M741.9,776.6c0-10.5,0-21,0-31.4"></path> <path class="st20" d="M774.7,776.6c0-10.5,0-21,0-31.4"></path> <path class="st7" d="M720.2,526.9v222.3c0.1,0.6,0.2,1.3,0,2.3c-0.4,3.1-3,6.5-6.7,6.8c-4.4,0.4-7.5-3.7-8-6.8 c-0.2-1.2,0-2.1,0-2.3c0.6-3.7,0.7-70.6,0-222.4"></path> <path class="st21" d="M749.7,369.4"></path> <path class="st21" d="M658.4,353.2"></path> <path class="st21" d="M694.2,340.2"></path> <g> <path class="st22" d="M653.7,419.1c15.9,0.4,22.3,8.3,19.4,23.8c-5.6,11-14,14-25.6,9.2c-8.6-6.3-10.5-14.5-5.8-24.2 C644.9,423.8,648.9,420.8,653.7,419.1z"></path> </g> <g> <path class="st23" d="M765.4,419.1c8.3-0.4,14.7,2.8,19.4,9.5c3.7,12.4-0.5,21-12.6,25.6c-14.4,0.2-21.1-7-20.1-21.4 C754,425.6,758.4,421.1,765.4,419.1z"></path> </g> <path class="st7" d="M583.5,540.4c1.5-0.5,2.9-0.6,3.7-0.6c0.9,0,2.5,0,4.2,0.9c1.3,0.5,2.1,1.3,2.6,1.8c0.6,0.5,1.4,1.1,2,2.3 c0.9,1.4,1.1,2.7,1.2,3.4c0.3,1.5,0.1,2.7-0.1,3.6c-0.1,0.5-0.3,1.3-0.7,2.2c-0.4,0.7-0.7,1.1-1.3,1.9c-0.4,0.5-1.1,1.1-1.9,1.9 c-0.7,0.4-1.5,0.8-2.5,1.1c-0.9,0.3-1.9,0.5-2.6,0.7c-4,5.8-7.6,13.1-10.4,19.5c0.2,2.6,0.5,4.3,0.3,5.6c-0.3,1.1-0.5,2.6-0.9,3.3 c-0.6,1.2-1.7,1.9-2.8,2.6c-1.2,0.7-2.4,1.5-3.2,1.7c-1,0.2-1.9,0.3-2.8,0c-1.7-0.4-2.7-1.1-3.8-1.4c-0.9-0.3-1.7-1-2.1-1.1 c-0.4-0.6-1-1.1-1.5-2.2c-0.2-0.4-0.7-2.1-0.9-2.9c-0.2-0.8-0.4-1.7,0.4-4c0.6-2,2.1-4.3,3.1-4.9c2.1-1.4,4.1-1.1,4.8-2 c2.3-3.5,3.3-5.7,5.4-9.4c1.9-3.6,3.1-5.6,4.5-9.1c0.5-1.3-0.2-2.6-0.3-3.4c-0.2-1-0.4-1.6-0.4-2.6s0.1-1.9,0.3-2.4 c0.3-0.7,0.7-1.6,1.4-2.6c0.4-0.7,0.8-1.3,1.4-1.9C581.3,541.7,582.1,541,583.5,540.4z"></path> <circle class="st7" cx="587.3" cy="549.5" r="10.2"></circle> <circle class="st12" cx="569.4" cy="583.4" r="10.2"></circle> <circle class="st7" cx="656.6" cy="436.7" r="18.9"></circle> <circle class="st7" cx="768.8" cy="436.7" r="18.9"></circle> <circle class="st7" cx="795.6" cy="406.7" r="7.9"></circle> <circle class="st7" cx="629.9" cy="407.3" r="7.9"></circle> <circle class="st12" cx="851.2" cy="568.8" r="7.9"></circle> <circle class="st12" cx="750.1" cy="590.4" r="12.1"></circle> <ellipse class="st7" cx="824.2" cy="626.1" rx="10.4" ry="9.7"></ellipse> <circle class="st7" cx="754.8" cy="648.2" r="10.9"></circle> <circle class="st7" cx="736.9" cy="544.9" r="10.1"></circle> <circle class="st7" cx="682.3" cy="653" r="11"></circle> <circle class="st7" cx="653.3" cy="645.1" r="10.2"></circle> <circle class="st12" cx="606.7" cy="630.1" r="7.9"></circle> <circle class="st12" cx="659.7" cy="701.7" r="7.9"></circle> <circle class="st12" cx="690.4" cy="705.2" r="10.2"></circle> <circle class="st12" cx="750.1" cy="704" r="10.2"></circle> <circle class="st12" cx="783.5" cy="703.1" r="10.2"></circle> <circle class="st12" cx="834.6" cy="538.4" r="12.1"></circle> <circle class="st8" cx="682.3" cy="653" r="7.6"></circle> <circle class="st8" cx="587.3" cy="549.5" r="6.7"></circle> <circle class="st8" cx="783.5" cy="703.1" r="6.7"></circle> <circle class="st8" cx="834.6" cy="538.4" r="6.7"></circle> <path class="st24" d="M712.6,509.8c0.8-0.5,2-1.2,3.4-2.3c0,0,2.7-2.1,5.2-4.9c12.5-14.1,13-28.9,13-28.9c0.2-4.9-0.8-8.1-1.1-9.2 c-1.3-4.1-3.4-7.1-4.9-8.9c0.2-1.1,0.5-2.7,1.2-4.7s1.2-3.2,2.6-6.3c0.5-1.2,1.3-3,2.2-5.2c1.1-2,2.3-4.2,3.7-6.4 c2.1-3.4,4.3-6.3,6.3-8.9c1.6-2,3.6-4.2,6-6.5s4.8-4.1,6.9-5.6c4.1-2.5,8.2-5,12.3-7.5l15.2-7.5l11.4-4.6l10.2-5.8 c2.7-1.4,5.9-3.3,9.1-5.8c1.8-1.4,3.4-2.8,4.7-4.1c1.9-1.9,3.9-4.2,5.8-6.8c2-2.6,3.8-5.3,5.3-7.7c1.3-2.4,2.7-5.3,4-8.9 c0.8-2.5,1.3-4.8,1.6-6.8c0.3-1.9,0.5-4.1,0.5-6.6c0-2.1-0.1-4-0.3-5.6c-0.1-0.3-0.6-1.4-1.9-1.9c-1.1-0.4-2.2-0.2-2.5-0.1 c-0.9,0.2-1.9,0.5-3.1,1.1c-2.4,1.1-4.1,2.5-5.2,3.5c-1.4,0.8-2.9,1.7-4.4,2.6c-2.4,1.5-4.6,2.9-6.6,4.4c-1.2,0.5-3,1.1-5,1.9 c-2.3,0.8-3.4,1.2-4.8,1.7c-1.3,0.4-3.2,1-5.4,1.4c-2.1,0.7-4.3,1.4-6.4,2.1l-18.5-9.2l-20.4-7.3l-15.5-3.8l-22-2.4l-20.6,1.1 l-24.3,5.2l-16.8,6.3L635,351.5l-7.3-1.9c-3-1-6.1-1.9-9.1-2.8c-4.2-1.6-7.7-3.4-10.3-4.9c-3.4-1.9-5.9-3.8-7.2-4.8 c-1.9-1.5-3.5-2.8-4.9-4c-0.5-0.4-1.5-0.7-2.6-0.9c-1-0.2-1.8-0.2-2.4-0.1c-0.4,0.1-1.1,0.2-1.9,0.7c-1.2,0.9-1.6,2.3-1.7,2.6 c0,1.6,0,3.4,0.2,5.3c0.2,2,0.4,3.9,0.8,5.6c0.4,2,1,4.4,1.9,7c1,2.8,2.1,5.3,3.3,7.3c0.9,1.6,2.2,3.6,3.8,6 c0.5,0.8,3.2,4.4,7.3,8.8c4,4.2,7.4,7.1,8.3,7.8c1.9,1.6,3.6,2.8,4.9,3.7c4.1,2.4,8.6,4.8,13.5,7.1c4.3,2.1,8.5,4,12.4,5.6 c4.6,1.9,9.3,3.9,13.8,5.8c2.3,1.2,4.8,2.8,7.4,4.6c2.7,1.9,5.1,3.8,7.2,5.6c2.2,1.9,4.5,4.1,6.9,6.7c2.2,2.5,4.1,4.9,5.6,7.1 c1.7,2.4,3.5,5.2,5.2,8.4c1.9,3.5,3.4,6.8,4.5,9.8c0.5,1,1.2,2.6,1.6,4.6c0.4,1.9,0.3,3.4,0.1,4.5c-1.4,1.8-3.6,5-4.7,9.5 c-0.4,2.1-0.6,4.3-0.4,7.5c1.3,15.5,12.1,27.5,13.9,29.4c2.3,2.4,4.9,4.6,4.9,4.6C710.6,508.3,711.6,509.1,712.6,509.8z"></path> <path class="st0" d="M608.9,359.8c0.9,1,2.2,2.3,3.9,3.9c1.4,1.3,3,2.7,4.9,4.1c2,1.5,4,2.7,5.7,3.7c1.9,1.1,3.7,2.2,5.6,3.4 c2,1.1,4.1,2.3,6.1,3.4c2.8,1.3,5.6,2.6,8.4,4.1c2.6,1.1,5.1,2.1,7.8,3.3c2,0.7,4.1,1.4,6.1,2.1c2.9,1.4,6.2,3.1,9.5,5.2 c3.9,2.5,7.3,4.9,10.1,7.3l5.1,4.5c1.5,1.7,3.1,3.4,4.6,5.1s3,3.3,4.4,4.9c2,2.9,4,5.7,6,8.6l4.6,8.3l3.3,7.3 c1.3-0.5,2.5-0.7,3.4-0.9c2.8-0.4,5-0.1,5.8,0c1.3,0.3,2.4,0.6,3.1,0.9c0.7-1.4,1.4-2.8,2.1-4.2c0.5-1.1,1.1-2.1,1.7-3.2 c1.2-2.2,2.5-4.4,3.7-6.6c1.3-2.1,2.6-4.2,3.9-6.3c0.8-1.2,1.8-2.6,2.8-4c1.1-1.4,2.4-2.7,3.4-3.7c0.4-0.4,1-0.9,1.5-1.3 c2-1.9,4-3.8,5.8-5.7c1.7-1.4,3.4-2.9,5.1-4.3c2.1-1.6,4.3-3.2,6.4-4.9l5.7-3.8c3.3-1.6,6.4-3.2,9.7-4.8c1.9-0.9,3.7-1.8,5.6-2.6 c2.3-1,4.5-2,6.8-3s4.7-1.9,7-2.8c1.8-0.8,3.5-1.7,5.4-2.5c1.8-1,3.5-2,5.4-3c1.8-1.1,3.4-2.4,5.2-3.5c1.6-1.5,3.2-2.9,4.9-4.4 c1.1-1.2,2.3-2.6,3.4-3.8c4.1-4.3,4.7-5.7,4.3-6.3c-0.2-0.2-0.4-0.4-3.2,0c-2.2,0.4-4.1,0.8-5.4,1.1c-2.7,0.6-5.6,1.6-8.2,2.3 c-3.7,1.5-7.2,2.6-10.9,4.1l-7.5,3l-8.8,4.1l-6.7,3.7l-6,3.7c0,0-8.6,6.1-9.3,6.7c-0.8,0.7-9.1,9.9-9.1,9.9l-3.4,4.1l-3.4,4.5 c-2.7,5-6.9,7.8-9.8,7c-2.6-0.7-3.5-2.8-3.5-2.8c-0.4-1.1-0.4-2.1-0.3-2.6c0.2-1.1,0.4-2,0.5-3.1l3.4-5.5c1-1.4,1.9-2.7,2.9-4.1 c1.4-1.9,3.3-4.2,5.6-7c1.5-1.7,4.9-5.6,9.8-10.2c5.6-5.3,10.3-8.8,13.8-11.4c3.4-2.6,6.3-4.6,8.5-6c1.8-1.1,3.5-2.4,5.3-3.5 c-3.6-1.6-7.2-3.2-10.8-4.8c-3.5-1.1-7.6-2.3-12.1-3.4c-0.9-0.2-4.1-1-8.3-1.9c-3.7-0.8-7.8-1.6-12.5-2.3c-3-0.3-7.3-0.5-12.4-0.5 c-6.2,0.1-10.6,0.5-17,1.2c-8.9,1-14.9,2.1-16.9,2.5c-4.3,0.8-7,1.3-10.6,2.5c-4,1.2-7,2.6-10.5,4.1c-3.6,1.6-6.6,3-8.7,4.1 c-0.7,0.4-1.5,0.8-2.2,1.2c1.8,1.1,4.4,2.9,7.7,4.9c4.1,2.5,5.8,3.2,10.1,5.6c4.9,2.9,8.6,5.3,9.4,6c4,2.7,7.6,5.2,11.7,9.2 c2.6,2.6,4.3,4.6,4.9,5.3c1.1,1.4,2.3,3.1,4.7,6.4c3,4.4,3.5,5.3,3.9,6.6c0.5,2.1,0.4,4,0.1,5.2c-0.1,0.4-0.4,2.1-1.8,3.1 c-1.5,1.1-3.2,0.8-4.1,0.7c-2.4-0.4-4-1.9-4.9-2.7c-1.4-1.4-1.3-1.9-3.4-4.9c-1.2-1.9-2.3-3.1-4-5.1c-1.9-2.2-3.4-4-4.3-4.9 c-1.2-1.3-2.8-2.9-4.7-4.8c-1.7-1.6-4.4-4.1-8-6.9c-0.6-0.5-6.1-4.5-7.8-5.6s-1.9-1.6-5.2-3.2c-3.1-1.4-6.1-2.9-9.2-4.3 c-7.2-3.3-6.3-3.2-9-4.1c-2.9-1.1-3-0.8-8.9-2.4c-8.4-2.3-11.6-3.3-11.6-3.3c-7.8-1.9-8.9-1.5-9.3-1.1c0,0,0,0-0.1,0.1 C605.2,354.6,604.9,355.5,608.9,359.8z"></path> <circle class="st12" cx="711.2" cy="417.9" r="11.2"></circle> <path class="st25" d="M629.3,422.4c-1.2,2.1-2.6,5.3-3.4,9.3c-1.2,7.1,0.4,12.9,1.5,15.6"></path> <path class="st26" d="M633.2,457.4c2,2.2,6.3,6.3,13,8.7c7.5,2.7,14,2,16.9,1.5"></path> <path class="st26" d="M673.9,461.2c1.5-0.8,5.1-3.1,7.5-7.5c2.1-3.9,2.3-7.5,2.3-9.3"></path> <path class="st25" d="M795.9,421.3c1.2,2.1,2.6,5.3,3.4,9.3c1.2,7.1-0.4,12.9-1.5,15.6"></path> <path class="st26" d="M793,457.3c-2,2.2-6.3,6.3-13,8.7c-7.5,2.7-14,2-16.9,1.5"></path> <path class="st26" d="M751.1,460.5c-1.5-0.8-5.1-3.1-7.5-7.5c-2.1-3.9-2.3-7.5-2.3-9.3"></path> <g> <path class="st1" d="M607.1,769.7c5.6-0.1,7.8,2.6,7.1,7.9c-3.3,4.1-6.5,4.1-9.8,0C603.6,774.4,604.4,771.8,607.1,769.7z"></path> </g> <circle class="st12" cx="609.2" cy="775.2" r="16.9"></circle> <circle class="st8" cx="609.2" cy="775.1" r="11.9"></circle> <line class="st9" x1="141.7" y1="1360.6" x2="1275.6" y2="1360.6"></line> <line class="st9" x1="141.7" y1="294.8" x2="1275.6" y2="294.8"></line> <g> <path class="st24" d="M144.2,1037.6h13l1.4,1.4v155.9l1.4,1.4h36.7l1.4-1.4V1039l1.4-1.4h13l1.4,1.4v155.9l1.4,1.4h36.7l1.4-1.4 V1039l1.4-1.4h13l1.4,1.4v171.2l-1.4,1.4H144.2l-1.4-1.4V1039L144.2,1037.6z"></path> <path class="st24" d="M437.2,1037.6h13l1.4,1.4v76.1l1.4,1.4h15.3c8,0,13.8-2,17.3-6c3.5-4,5.2-10.4,5.2-19V1065 c0-9.1,2.4-16.2,7.1-21.1c4.7-4.9,11.3-7.4,19.8-7.4h7.2l1.4,1.4v12.5l-1.4,1.4h-7.7c-3.2,0-5.9,1.2-7.9,3.7c-2,2.5-3,5.6-3,9.5 v27.1c0,15.2-4.5,25.4-13.5,30.9l0.2,1.9c4.5,1.2,8.1,4.6,10.9,10.1c2.8,5.5,4.2,11.9,4.2,19.4v27.1c0,10.7,4.8,16,14.4,16h4.2 l1.4,1.4v12.5l-1.4,1.4h-5.6c-19,0-28.5-10.5-28.5-31.6v-26.9c0-15-8.1-22.5-24.4-22.5H453l-1.4,1.4v77l-1.4,1.4h-13l-1.4-1.4 V1039L437.2,1037.6z"></path> <path class="st24" d="M762.5,1082.8v83.5c0,14.5-3.9,26.2-11.6,35c-7.7,8.8-18.1,13.2-31.1,13.2c-13,0-23.4-4.4-31.1-13.2 c-7.7-8.8-11.6-20.5-11.6-35v-83.5c0-14.5,3.9-26.2,11.6-35c7.7-8.8,18.1-13.2,31.1-13.2c13,0,23.4,4.4,31.1,13.2 C758.6,1056.6,762.5,1068.3,762.5,1082.8z M692.9,1082.8v83.5c0,10.4,2.3,18.4,6.8,24.2c4.6,5.8,11.3,8.7,20.1,8.7 c8.8,0,15.5-2.9,20.1-8.7c4.6-5.8,6.8-13.9,6.8-24.2v-83.5c0-10.4-2.3-18.4-6.8-24.2c-4.6-5.8-11.3-8.7-20.1-8.7 c-8.8,0-15.5,2.9-20.1,8.7C695.1,1064.4,692.9,1072.5,692.9,1082.8z"></path> <path class="st24" d="M937.6,1037.6h72.8l1.4,1.4v171.2l-1.4,1.4h-13l-1.4-1.4v-155.4l-1.4-1.4h-41.5l-1.4,1.4V1168 c0,30.2-11.5,45.2-34.6,45.2h-6.5l-1.4-1.4v-12.5l1.4-1.4h6.5c5.6,0,10.1-2.4,13.7-7.1c3.6-4.7,5.3-12.3,5.3-22.9v-129 L937.6,1037.6z"></path> <path class="st24" d="M1209.8,1037.1h16.2l1.4,1.2l41.1,171.9l-1.2,1.4h-13.7l-1.4-1.2l-9.3-40.8l-1.4-1.2h-47.3l-1.4,1.2 l-9.3,40.8l-1.4,1.2h-13.7l-1.2-1.4l41.1-171.9L1209.8,1037.1z M1216.9,1062.2l-20.4,90l1.2,1.4h40.1l1.2-1.4l-20.2-90H1216.9z"></path> </g> <g> <path class="st24" d="M144.9,1224.1h13.4l1,0.7l24.5,83.5h1.3l24.5-83.5l1-0.7h13.4l1,0.8v102.3l-1,0.8h-9l-1-0.8v-77l-1.3-0.1 l-22.5,77.3l-1,0.7h-9.5l-1-0.7l-22.5-77.3l-1.3,0.1v77l-1,0.8h-9l-1-0.8V1225L144.9,1224.1z"></path> <path class="st24" d="M306,1251.1v49.9c0,8.7-2.7,15.7-8.1,20.9c-5.4,5.3-12.7,7.9-21.8,7.9s-16.4-2.6-21.8-7.9 c-5.4-5.3-8.1-12.2-8.1-20.9v-49.9c0-8.7,2.7-15.7,8.1-20.9c5.4-5.3,12.7-7.9,21.8-7.9s16.4,2.6,21.8,7.9 C303.3,1235.5,306,1242.5,306,1251.1z M257.1,1251.1v49.9c0,6.2,1.6,11,4.8,14.5c3.2,3.5,7.9,5.2,14.1,5.2 c6.2,0,10.9-1.7,14.1-5.2c3.2-3.5,4.8-8.3,4.8-14.5v-49.9c0-6.2-1.6-11-4.8-14.5c-3.2-3.5-7.9-5.2-14.1-5.2 c-6.2,0-10.9,1.7-14.1,5.2C258.7,1240.1,257.1,1245,257.1,1251.1z"></path> <path class="st24" d="M336.1,1224.1h51.2l1,0.8v102.3l-1,0.8h-9.1l-1-0.8v-92.8l-1-0.8h-29.2l-1,0.8v67.6c0,18-8.1,27-24.3,27 h-4.6l-1-0.8v-7.5l1-0.8h4.6c3.9,0,7.1-1.4,9.6-4.2c2.5-2.8,3.7-7.4,3.7-13.6v-77L336.1,1224.1z"></path> <path class="st24" d="M469.5,1251.1v49.9c0,8.7-2.7,15.7-8.1,20.9c-5.4,5.3-12.7,7.9-21.8,7.9s-16.4-2.6-21.8-7.9 c-5.4-5.3-8.1-12.2-8.1-20.9v-49.9c0-8.7,2.7-15.7,8.1-20.9c5.4-5.3,12.7-7.9,21.8-7.9s16.4,2.6,21.8,7.9 C466.7,1235.5,469.5,1242.5,469.5,1251.1z M420.6,1251.1v49.9c0,6.2,1.6,11,4.8,14.5c3.2,3.5,7.9,5.2,14.1,5.2 c6.2,0,10.9-1.7,14.1-5.2c3.2-3.5,4.8-8.3,4.8-14.5v-49.9c0-6.2-1.6-11-4.8-14.5c-3.2-3.5-7.9-5.2-14.1-5.2 c-6.2,0-10.9,1.7-14.1,5.2C422.2,1240.1,420.6,1245,420.6,1251.1z"></path> <path class="st24" d="M498,1224.1h48.9l1,0.8v93.1l1,0.8h9.5l1,0.8v31.6l-1,0.8h-9.1l-1-0.8v-22.4l-1-0.8h-54.8l-1,0.8v22.4 l-1,0.8h-9.1l-1-0.8v-31.6l1-0.8c4.7,0,8.4-2,11.3-6.1c2.9-4.1,4.3-10.6,4.3-19.5V1225L498,1224.1z M535.8,1233.3h-26.9l-1,0.8 v59.2c0,12.4-2.3,20.6-7,24.5l0.5,1.1h34.4l1-0.8v-84L535.8,1233.3z"></path> <path class="st24" d="M575.9,1224.1h9.1l1,0.8v32.7l1,0.8h9.6c9.5,0,17,2.4,22.7,7.3c5.7,4.8,8.6,11.6,8.6,20.3v14.1 c0,18.6-10.4,27.8-31.3,27.8h-20.7l-1-0.8V1225L575.9,1224.1z M586,1268.5v49.6l1,0.8h9.6c6.7,0,11.8-1.5,15.2-4.4 c3.4-2.9,5.1-7.7,5.1-14.3v-14.1c0-5.9-1.8-10.5-5.3-13.6c-3.5-3.2-8.5-4.8-14.9-4.8H587L586,1268.5z M644,1224.1h9.1l1,0.8v102.3 l-1,0.8H644l-1-0.8V1225L644,1224.1z"></path> <path class="st24" d="M728.1,1327.3l-20.7-42.8h-1.3l-20.7,42.8l-1.1,0.7h-10.4l-0.7-1l26.1-51.8v-1.1l-24.5-49l0.7-1h10.3 l1.1,0.7l19.2,40h1.3l19.2-40l1.1-0.7h10.3l0.7,1l-24.5,49v1.1l26.1,51.8l-0.7,1h-10.4L728.1,1327.3z"></path> <path class="st24" d="M790.6,1224.1h9.8l1,0.7l22.7,63h1.3l18.1-63l1-0.7h9.8l0.8,0.8l-26.9,85.9c-1.7,5.6-4.7,10-9,13.2 c-4.2,3.2-9.4,4.8-15.5,4.8h-4.1l-1-0.8v-7.5l1-0.8h4.1c7.5,0,12.2-3.6,14.2-10.9l1.3-4.8l-29.3-78.8L790.6,1224.1z"></path> <path class="st24" d="M868.2,1224.1h9.1l1,0.8v43.8c0,6.4,1.4,11,4.3,13.9c2.9,2.9,7.5,4.3,13.9,4.3c13.3,0,19.9-6,19.9-17.9V1225 l1-0.8h9.1l1,0.8v102.3l-1,0.8h-9.1l-1-0.8v-36.9l-1.3-0.4c-6,4.1-12.8,6.1-20.5,6.1c-8.4,0-15-2.4-20-7.1 c-4.9-4.8-7.4-11.5-7.4-20.2V1225L868.2,1224.1z"></path> <path class="st24" d="M952.8,1224.1h49.1l1,0.8v7.5l-1,0.8h-38l-1,0.8v36.4l1,0.8h24.6l1,0.8v7.5l-1,0.8h-24.6l-1,0.8v36.7l1,0.8 h38l1,0.8v7.5l-1,0.8h-49.1l-1-0.8V1225L952.8,1224.1z"></path> <path class="st24" d="M1024.6,1224.1h9.1l1,0.8v45.6l1,0.8h35.4l1-0.8V1225l1-0.8h9.1l1,0.8v102.3l-1,0.8h-9.1l-1-0.8v-45.9 l-1-0.8h-35.4l-1,0.8v45.9l-1,0.8h-9.1l-1-0.8V1225L1024.6,1224.1z"></path> <path class="st24" d="M1108.4,1224.1h9.1l1,0.8v32.7l1,0.8h9.6c9.5,0,17,2.4,22.7,7.3s8.6,11.6,8.6,20.3v14.1 c0,18.6-10.4,27.8-31.3,27.8h-20.7l-1-0.8V1225L1108.4,1224.1z M1118.5,1268.5v49.6l1,0.8h9.6c6.7,0,11.8-1.5,15.2-4.4 c3.4-2.9,5.1-7.7,5.1-14.3v-14.1c0-5.9-1.8-10.5-5.3-13.6c-3.5-3.2-8.5-4.8-14.9-4.8h-9.6L1118.5,1268.5z M1176.5,1224.1h9.1 l1,0.8v102.3l-1,0.8h-9.1l-1-0.8V1225L1176.5,1224.1z"></path> <path class="st24" d="M1260.7,1327.3l-20.7-42.8h-1.3l-20.7,42.8l-1.1,0.7h-10.4l-0.7-1l26.1-51.8v-1.1l-24.5-49l0.7-1h10.3 l1.1,0.7l19.2,40h1.3l19.2-40l1.1-0.7h10.3l0.7,1l-24.5,49v1.1l26.1,51.8l-0.7,1h-10.4L1260.7,1327.3z"></path> </g> <path class="st7" d="M1274.8,120.3L1274.8,120.3h-5.3l-0.5-0.5V65.8h-1l-13.5,54.1l-0.5,0.5h-5.8l-0.5-0.5l-13.5-54.1h-1v54.1 l-0.5,0.5h-5.3l-0.5-0.5V48.4l0.5-0.5h8.2l0.5,0.5l14.5,58.4h1l14.5-58.4l0.5-0.5h8.2l0.5,0.5v71.4L1274.8,120.3z M1173.9,108.3 L1173.9,108.3c-1,3.9-2.9,7.2-5.3,9.2c-2.4,2.4-5.8,3.4-9.2,3.4h-2.4l-0.5-0.5V115l0.5-0.5h2.4c4.3,0,7.2-2.4,8.7-7.7l1-3.4 l-17.4-55l0.5-0.5h5.8l0.5,0.5l13.5,44.4h1l10.6-44.4l0.5-0.5h5.8l0.5,0.5L1173.9,108.3z M1109.8,66.8L1109.8,66.8 c0-3.9-1-7.2-3.4-9.2c-1.9-2.4-5.3-3.4-9.2-3.4h-7.2l-0.5,0.5v38.1l0.5,0.5h7.2c3.9,0,7.2-1,9.2-3.4c1.9-2.4,3.4-5.3,3.4-9.2V66.8z M1111.2,94.3L1111.2,94.3c-3.4,3.4-8.2,5.3-14,5.3h-7.2l-0.5,0.5v19.8l-0.5,0.5h-5.3l-0.5-0.5V48.4l0.5-0.5h14 c5.8,0,10.6,1.9,14,5.3c3.4,3.4,5.3,8.2,5.3,14v14C1116.5,86.6,1114.6,90.9,1111.2,94.3z M1036,66.3L1036,66.3 c0-4.3-1-7.7-2.9-10.1c-1.9-2.4-4.8-3.9-8.2-3.9c-3.9,0-6.3,1.4-8.2,3.9c-1.9,2.4-2.9,5.8-2.9,10.1V101c0,4.3,1,7.7,2.9,10.1 c1.9,2.4,4.8,3.9,8.2,3.9c3.9,0,6.3-1.4,8.2-3.9c1.9-2.4,2.9-5.8,2.9-10.1V66.3z M1037.9,116L1037.9,116c-3.4,3.9-7.7,5.3-13,5.3 s-9.6-1.9-13-5.3c-3.4-3.9-4.8-8.7-4.8-14.5V66.8c0-6.3,1.4-11.1,4.8-14.5c3.4-3.9,7.7-5.3,13-5.3c5.3,0,9.6,1.9,13,5.3 c3.4,3.9,4.8,8.7,4.8,14.5v34.8C1042.7,107.3,1040.8,112.6,1037.9,116z M964.1,74.5L964.1,74.5c0-7.7-3.9-11.6-11.6-11.6h-3.9 l-0.5,0.5V103l0.5,0.5h3.9c7.7,0,11.6-3.9,11.6-11.6V74.5z M941.4,63.4L941.4,63.4l-0.5-0.5h-3.9c-7.7,0-11.6,3.9-11.6,11.6v17.4 c0,7.7,3.9,11.6,11.6,11.6h3.9l0.5-0.5V63.4z M965.5,105.4L965.5,105.4c-3.4,3.4-7.7,4.8-13,4.8h-3.9l-0.5,0.5v9.2l-0.5,0.5h-5.3 l-0.5-0.5v-9.2l-0.5-0.5h-3.9c-5.3,0-9.6-1.4-13-4.8c-3.4-3.4-4.8-7.7-4.8-13V75c0-5.8,1.4-10.1,4.8-13c3.4-3.4,7.7-4.8,13-4.8h3.9 l0.5-0.5v-8.7l0.5-0.5h5.3l0.5,0.5v8.7l0.5,0.5h3.9c5.3,0,9.6,1.4,13,4.8c3.4,3.4,4.8,7.7,4.8,13v17.4 C970.4,97.7,968.9,102,965.5,105.4z M837.7,38.3L837.7,38.3c-3.9,0-7.2-1.4-9.6-3.9c-2.4-2.4-3.9-5.8-3.9-9.7v-3.9l0.5-0.5h4.8 l0.5,0.5v3.9c0,2.4,0.5,3.9,1.9,5.3c1.4,1.4,2.9,1.9,5.3,1.9s3.9-0.5,5.3-1.9c1.4-1.4,1.9-3.4,1.9-5.3v-3.9l0.5-0.5h4.8l0.5,0.5 v3.9c0,3.9-1.4,7.2-3.9,9.7C844.9,37.3,841.6,38.3,837.7,38.3z M855.1,120.3L855.1,120.3h-5.3l-0.5-0.5V64.3h-1l-21.2,56l-0.5,0.5 h-6.3l-0.5-0.5V48.9l0.5-0.5h5.3l0.5,0.5v55.5h1l21.2-56l0.5-0.5h6.3l0.5,0.5v71.4L855.1,120.3z M777.4,120.3L777.4,120.3h-5.3 l-0.5-0.5V64.3h-1l-21.2,56l-0.5,0.5h-6.3l-0.5-0.5V48.9l0.5-0.5h5.3l0.5,0.5v55.5h1l21.2-56l0.5-0.5h6.3l0.5,0.5v71.4L777.4,120.3 z M704.1,120.8L704.1,120.8h-2.4c-8.2,0-12.1-4.3-12.1-13V96.7c0-6.3-3.4-9.7-10.1-9.7h-6.3l-0.5,0.5v32.3l-0.5,0.5h-5.3l-0.5-0.5 V48.4l0.5-0.5h5.3l0.5,0.5v31.9l0.5,0.5h6.3c3.4,0,5.8-1,7.2-2.4c1.4-1.4,2.4-4.3,2.4-8.2V59c0-3.9,1-6.8,2.9-8.7 c1.9-1.9,4.8-2.9,8.2-2.9h2.9l0.5,0.5v5.3l-0.5,0.5h-3.4c-1.4,0-2.4,0.5-3.4,1.4c-1,1-1.4,2.4-1.4,3.9v11.6c0,6.3-1.9,10.6-5.8,13 v1c1.9,0.5,3.4,1.9,4.3,4.3c1,2.4,1.9,4.8,1.9,8.2v11.6c0,4.3,1.9,6.8,5.8,6.8h1.9l0.5,0.5v5.3L704.1,120.8z M619.7,94.3 L619.7,94.3h5.3l0.5,0.5v5.8c0,6.8-1.4,11.6-4.8,15.4c-3.4,3.9-7.7,5.3-13,5.3c-5.3,0-9.6-1.9-13-5.8c-3.4-3.9-4.8-8.7-4.8-15.4 V66.8c0-6.8,1.4-11.6,4.8-15.4c3.4-3.9,7.7-5.8,13-5.8c5.3,0,9.6,1.9,13,5.3c3.4,3.9,4.8,8.7,4.8,15.4v5.8l0,1.9h-5.3l-0.5-0.5 v-5.8c0-4.8-1-8.7-2.9-11.1s-4.8-3.9-8.2-3.9c-7.7,0-11.6,4.8-11.6,14.5v33.3c0,9.7,3.9,14.5,11.6,14.5c3.9,0,6.3-1.4,8.2-3.9 s2.9-6.3,2.9-11.1V94.3L619.7,94.3z M531.9,38.3L531.9,38.3c-3.9,0-7.2-1.4-9.6-3.9c-2.4-2.4-3.9-5.8-3.9-9.7v-3.9l0.5-0.5h4.8 l0.5,0.5v3.9c0,2.4,0.5,3.9,1.9,5.3c1.4,1.4,2.9,1.9,5.3,1.9s3.9-0.5,5.3-1.9c1.4-1.4,1.9-3.4,1.9-5.3v-3.9l0.5-0.5h4.8l0.5,0.5 v3.9c0,3.9-1.4,7.2-3.9,9.7C539.6,37.3,536.2,38.3,531.9,38.3z M549.2,120.3L549.2,120.3h-5.3l-0.5-0.5V64.3h-1l-21.2,56l-0.5,0.5 h-6.3l-0.5-0.5V48.9l0.5-0.5h5.3l0.5,0.5v55.5h1l21.2-56l0.5-0.5h6.3l0.5,0.5v71.4L549.2,120.3z M471.6,120.3L471.6,120.3h-5.3 l-0.5-0.5V64.3h-1l-21.2,56l-0.5,0.5h-6.3l-0.5-0.5V48.9l0.5-0.5h5.3l0.5,0.5v55.5h1l21.2-56l0.5-0.5h6.3l0.5,0.5v71.4L471.6,120.3 z M390.5,94.3L390.5,94.3h5.3l0.5,0.5v5.8c0,6.8-1.4,11.6-4.8,15.4s-7.7,5.3-13,5.3c-5.3,0-9.6-1.9-13-5.8 c-3.4-3.9-4.8-8.7-4.8-15.4V66.8c0-6.8,1.4-11.6,4.8-15.4s7.7-5.8,13-5.8c5.3,0,9.6,1.9,13,5.3c3.4,3.9,4.8,8.7,4.8,15.4v5.8 l-0.5,0.5h-5.3l-0.5-0.5v-5.8c0-4.8-1-8.7-2.9-11.1c-1.9-2.4-4.8-3.9-8.2-3.9c-7.7,0-11.6,4.8-11.6,14.5v33.3 c0,9.7,3.9,14.5,11.6,14.5c3.9,0,6.3-1.4,8.2-3.9c1.9-2.4,2.9-6.3,2.9-11.1v-5.8L390.5,94.3z M316.2,94.3L316.2,94.3h5.3l0.5,0.5 v5.8c0,6.8-1.4,11.6-4.8,15.4s-7.7,5.3-13,5.3c-5.3,0-9.6-1.9-13-5.8c-3.4-3.9-4.8-8.7-4.8-15.4V66.8c0-6.8,1.4-11.6,4.8-15.4 c3.4-3.9,7.7-5.8,13-5.8s9.6,1.9,13,5.3c3.4,3.9,4.8,8.7,4.8,15.4v5.8l-0.5,1.9h-5.3l-0.5-0.5v-5.8c0-4.8-1-8.7-2.9-11.1 s-4.8-3.9-8.2-3.9c-7.7,0-11.6,4.8-11.6,14.5v33.3c0,9.7,3.9,14.5,11.6,14.5c3.9,0,6.3-1.4,8.2-3.9s2.9-6.3,2.9-11.1v-5.8 L316.2,94.3z M241.4,66.3L241.4,66.3c0-4.3-1-7.7-2.9-10.1c-1.9-2.4-4.8-3.9-8.2-3.9c-3.9,0-6.3,1.4-8.2,3.9 c-1.9,2.4-2.9,5.8-2.9,10.1V101c0,4.3,1,7.7,2.9,10.1c1.9,2.4,4.8,3.9,8.2,3.9c3.9,0,6.3-1.4,8.2-3.9c1.9-2.4,2.9-5.8,2.9-10.1 V66.3z M243.4,116L243.4,116c-3.4,3.9-7.7,5.3-13,5.3c-5.3,0-9.6-1.9-13-5.3c-3.4-3.9-4.8-8.7-4.8-14.5V66.8 c0-6.3,1.4-11.1,4.8-14.5c3.4-3.9,7.7-5.3,13-5.3c5.3,0,9.6,1.9,13,5.3c3.4,3.9,4.8,8.7,4.8,14.5v34.8 C248.2,107.3,246.8,112.6,243.4,116z M168.6,66.8L168.6,66.8c0-3.9-1-7.2-3.4-9.2c-1.9-2.4-5.3-3.4-9.2-3.4h-7.2l-1,0.5v38.1 l0.5,0.5h7.2c3.9,0,7.2-1,9.2-3.4c1.9-2.4,3.4-5.3,3.4-9.2v-14H168.6z M170,94.3c-3.4,3.4-8.2,5.3-14,5.3h-7.2l-0.5,0.5v19.8 l-0.5,0.5h-5.3l-0.5-0.5V48.4l0.5-0.5h14c5.8,0,10.6,1.9,14,5.3c3.4,3.4,5.3,8.2,5.3,14v14C175.4,86.6,173.4,90.9,170,94.3z"></path> <g> <path class="st24" d="M162.3,161.4l0.8,0.7l14.9,78.7h1l14.9-78.7l0.8-0.7h19.2l0.8,0.9v105.5l-0.8,0.9h-12.3l-0.8-0.9v-70.5 l-1-0.1l-13.9,70.8l-0.8,0.7h-13.3l-0.8-0.7l-13.9-70.8l-1,0.1v70.5l-0.8,0.9H143l-0.8-0.9V162.2l0.8-0.9H162.3z"></path> <path class="st24" d="M248.6,161.4l0.8,0.9v71.4l1,0.3l24.6-71.8l0.9-0.7h13.6l0.8,0.9v105.5l-0.8,0.9h-12.2l-0.8-0.9v-71.4 l-1-0.3L251,267.9l-0.9,0.7h-13.6l-0.8-0.9V162.2l0.8-0.9H248.6z"></path> <path class="st24" d="M324.6,161.4l0.8,0.9v44.3l0.8,0.9h6.3c7.5,0,11.3-4.4,11.3-13.4v-13.3c0-12.2,6.7-20.2,17.7-20.2h4.8 l0.8,0.9v12.9l-0.8,0.9h-3.1c-3.7,0-6,3-6,7.4v12.7c0,8.6-2.5,15.9-7.6,18.6l0.1,1.1c5.1,1.6,8.5,8.7,8.5,17.2v14.3 c0,5.3,2.7,8.4,7.3,8.4h1.6l0.8,0.9v12.9l-0.8,0.9h-4.4c-11.6,0-18.1-8.2-18.1-21.7v-14c0-7.9-4.1-11.7-12-11.7h-6.3l-0.8,0.9 v44.9l-0.8,0.9h-12.6l-0.8-0.9V162.2l0.8-0.9H324.6z"></path> <path class="st24" d="M405.3,161.4c18.7,0,28.4,11,28.4,30.9v18.3c0,19.9-9.7,30.9-28.4,30.9h-7.6l-0.8,0.9v25.5l-0.8,0.9h-12.6 l-0.8-0.9V162.2l0.8-0.9H405.3z M397,226l0.8,0.9h7.6c9.4,0,14.3-4.7,14.3-16.3v-18.3c0-11.6-4.8-16.3-14.3-16.3h-7.6l-0.8,0.9 V226z"></path> <path class="st24" d="M502,239c0,19.3-10.9,31.5-27,31.5c-16.1,0-27-12.2-27-31.5v-48c0-19.3,10.9-31.5,27-31.5 c16.1,0,27,12.2,27,31.5V239z M462.2,239c0,10.9,5,16.9,12.8,16.9c7.9,0,12.8-6,12.8-16.9v-48c0-10.9-5-16.9-12.8-16.9 c-7.8,0-12.8,6-12.8,16.9V239z"></path> <path class="st24" d="M531.1,228.4l0.8,0.9v9.7c0,10.9,4.8,16.9,12.7,16.9c7.9,0,12.7-6,12.7-16.9v-16.2l-0.8-0.9h-13.2l-0.8-0.9 v-12.9l0.8-0.9h13.2l0.8-0.9V191c0-10.9-4.8-16.9-12.7-16.9c-7.8,0-12.7,6-12.7,16.9v9.7l-0.8,0.9h-12.6l-0.8-0.9V191 c0-19.3,10.6-31.5,26.8-31.5c16.2,0,26.8,12.2,26.8,31.5v48c0,19.3-10.6,31.5-26.8,31.5c-16.2,0-26.8-12.2-26.8-31.5v-9.7l0.8-0.9 H531.1z"></path> <path class="st24" d="M643.6,161.4l0.8,0.9v105.5l-0.8,0.9H631l-0.8-0.9V176l-0.8-0.9h-19.2l-0.8,0.9V237 c0,22.2-7.7,32.7-22.8,32.7h-4.1l-0.8-0.9V256l0.8-0.9h4.1c5.1,0,8.9-5.6,8.9-18.2v-74.8l0.8-0.9H643.6z"></path> <path class="st24" d="M709.9,161.4l0.8,0.9v12.9l-0.8,0.9h-29.7l-0.8,0.9v29.3l0.8,0.9h19.9l0.8,0.9v12.9l-0.8,0.9h-19.9l-0.8,0.9 v30.7l0.8,0.9h29.7l0.8,0.9v12.9l-0.8,0.9h-43.8l-0.8-0.9V162.2l0.8-0.9H709.9z"></path> <path class="st24" d="M742.3,161.4l0.8,0.9v44.3l0.8,0.9h6.3c7.5,0,11.3-4.4,11.3-13.4v-13.3c0-12.2,6.7-20.2,17.7-20.2h4.8 l0.8,0.9v12.9l-0.8,0.9h-3.1c-3.7,0-6,3-6,7.4v12.7c0,8.6-2.5,15.9-7.6,18.6l0.1,1.1c5.1,1.6,8.5,8.7,8.5,17.2v14.3 c0,5.3,2.7,8.4,7.3,8.4h1.6l0.8,0.9v12.9l-0.8,0.9h-4.4c-11.6,0-18.1-8.2-18.1-21.7v-14c0-7.9-4.1-11.7-12-11.7h-6.3l-0.8,0.9 v44.9l-0.8,0.9h-12.6l-0.8-0.9V162.2l0.8-0.9H742.3z"></path> <path class="st24" d="M844.6,161.4l0.8,0.9v12.9l-0.8,0.9h-17.4l-0.8,0.9v91l-0.8,0.9h-12.6l-0.8-0.9v-91l-0.8-0.9h-17.4l-0.8-0.9 v-12.9l0.8-0.9H844.6z"></path> <path class="st24" d="M883,161.4c18.7,0,28.4,11,28.4,30.9v18.3c0,19.9-9.7,30.9-28.4,30.9h-7.6l-0.8,0.9v25.5l-0.8,0.9h-12.6 l-0.8-0.9V162.2l0.8-0.9H883z M874.6,226l0.8,0.9h7.6c9.4,0,14.3-4.7,14.3-16.3v-18.3c0-11.6-4.8-16.3-14.3-16.3h-7.6l-0.8,0.9 V226z"></path> <path class="st24" d="M979.6,239c0,19.3-10.9,31.5-27,31.5s-27-12.2-27-31.5v-48c0-19.3,10.9-31.5,27-31.5s27,12.2,27,31.5V239z M939.9,239c0,10.9,5,16.9,12.8,16.9s12.8-6,12.8-16.9v-48c0-10.9-5-16.9-12.8-16.9s-12.8,6-12.8,16.9V239z"></path> <path class="st24" d="M1011.3,161.4l0.8,0.9v44.3l0.8,0.9h23.8l0.8-0.9v-44.3l0.8-0.9h12.6l0.8,0.9v105.5l-0.8,0.9h-12.6l-0.8-0.9 v-44.9l-0.8-0.9h-23.8l-0.8,0.9v44.9l-0.8,0.9h-12.6l-0.8-0.9V162.2l0.8-0.9H1011.3z"></path> <path class="st24" d="M1085.5,161.4l0.8,0.9v71.4l1,0.3l24.6-71.8l0.9-0.7h13.6l0.8,0.9v105.5l-0.8,0.9h-12.2l-0.8-0.9v-71.4 l-1-0.3l-24.6,71.8l-0.9,0.7h-13.6l-0.8-0.9V162.2l0.8-0.9H1085.5z"></path> <path class="st24" d="M1161.5,161.4l0.8,0.9v44.3l0.8,0.9h6.3c7.5,0,11.3-4.4,11.3-13.4v-13.3c0-12.2,6.7-20.2,17.7-20.2h4.8 l0.8,0.9v12.9l-0.8,0.9h-3.1c-3.7,0-6,3-6,7.4v12.7c0,8.6-2.5,15.9-7.6,18.6l0.1,1.1c5.1,1.6,8.5,8.7,8.5,17.2v14.3 c0,5.3,2.7,8.4,7.3,8.4h1.6l0.8,0.9v12.9l-0.8,0.9h-4.4c-11.6,0-18.1-8.2-18.1-21.7v-14c0-7.9-4.1-11.7-12-11.7h-6.3l-0.8,0.9 v44.9l-0.8,0.9h-12.6l-0.8-0.9V162.2l0.8-0.9H1161.5z"></path> <path class="st24" d="M1253.8,161.1l0.8,0.7l21.2,106l-0.7,0.9H1262l-0.8-0.7l-3.9-21.6l-0.8-0.7h-23.9l-0.8,0.7l-3.8,21.6 l-0.8,0.7h-13.2l-0.7-0.9l21.2-106l0.8-0.7H1253.8z M1234.6,230.2l0.7,0.9h18.4l0.7-0.9l-9.3-52.3h-1L1234.6,230.2z"></path> </g> </g> <g id="Слой_2"> </g> </svg> 