<?xml version="1.0" encoding="UTF-8" standalone="no"?>
<!-- Generated by graphviz version 2.38.0 (20140413.2041)
 -->

<!-- Title: AST Pages: 1 -->

<svg
   xmlns:dc="http://purl.org/dc/elements/1.1/"
   xmlns:cc="http://creativecommons.org/ns#"
   xmlns:rdf="http://www.w3.org/1999/02/22-rdf-syntax-ns#"
   xmlns:svg="http://www.w3.org/2000/svg"
   xmlns="http://www.w3.org/2000/svg"
   xmlns:sodipodi="http://sodipodi.sourceforge.net/DTD/sodipodi-0.dtd"
   xmlns:inkscape="http://www.inkscape.org/namespaces/inkscape"
   width="521pt"
   height="516pt"
   viewBox="0.00 0.00 520.50 515.60"
   id="svg2"
   version="1.1"
   inkscape:version="0.48.5 r10040"
   sodipodi:docname="AnBn.svg">
  <metadata
     id="metadata331">
    <rdf:RDF>
      <cc:Work
         rdf:about="">
        <dc:format>image/svg+xml</dc:format>
        <dc:type
           rdf:resource="http://purl.org/dc/dcmitype/StillImage" />
        <dc:title />
      </cc:Work>
    </rdf:RDF>
  </metadata>
  <defs
     id="defs329" />
  <sodipodi:namedview
     pagecolor="#ffffff"
     bordercolor="#666666"
     borderopacity="1"
     objecttolerance="10"
     gridtolerance="10"
     guidetolerance="10"
     inkscape:pageopacity="0"
     inkscape:pageshadow="2"
     inkscape:window-width="1920"
     inkscape:window-height="1177"
     id="namedview327"
     showgrid="false"
     inkscape:zoom="1.0348974"
     inkscape:cx="552.10667"
     inkscape:cy="341.4709"
     inkscape:window-x="-8"
     inkscape:window-y="-8"
     inkscape:window-maximized="1"
     inkscape:current-layer="graph0" />
  <g
     id="graph0"
     class="graph"
     transform="scale(1 1) rotate(0) translate(4 511.6)">
    <title
       id="title5">AST</title>
    <polygon
       points="-4,-511.6 516.5,-511.6 516.5,4 -4,4 -4,4 "
       id="polygon7"
       transform="matrix(0.79075538,0,0,1.0119849,-23.00489,4.5866095)"
       style="fill:#ffffff;stroke:none" />
    <!-- 9 -->
    <g
       id="node1"
       class="node">
      <title
         id="title10">9</title>
      <ellipse
         fill="none"
         stroke="black"
         cx="297.5"
         cy="-489.6"
         rx="36.2938"
         ry="18"
         id="ellipse12"
         d="m 333.7938,-489.60001 c 0,9.94113 -16.24929,18 -36.2938,18 -20.04451,0 -36.2938,-8.05887 -36.2938,-18 0,-9.94112 16.24929,-18 36.2938,-18 20.04451,0 36.2938,8.05888 36.2938,18 z" />
      <text
         x="297.5"
         y="-485.89999"
         font-size="14.00"
         id="text14"
         style="font-size:14px;text-anchor:middle">(0, S, 3)</text>
    </g>
    <!-- 19 -->
    <g
       id="node2"
       class="node">
      <title
         id="title17">19</title>
      <polygon
         fill="none"
         stroke="black"
         points="201.5,-435.6 141.5,-435.6 141.5,-399.6 201.5,-399.6 201.5,-435.6"
         id="polygon19" />
      <text
         x="171.5"
         y="-413.89999"
         font-size="14.00"
         id="text21"
         style="font-size:14px;text-anchor:middle">(0, a, 1)</text>
    </g>
    <!-- 9&#45;&gt;19 -->
    <g
       id="edge1"
       class="edge">
      <title
         id="title24">9-&gt;19</title>
      <path
         fill="none"
         stroke="black"
         d="M274.096,-475.598C256.365,-465.747 231.598,-451.988 210.841,-440.456"
         id="path26" />
      <polygon
         fill="black"
         stroke="black"
         points="212.366,-437.299 201.925,-435.503 208.966,-443.419 212.366,-437.299"
         id="polygon28" />
    </g>
    <!-- 20 -->
    <g
       id="node3"
       class="node">
      <title
         id="title31">20</title>
      <ellipse
         fill="none"
         stroke="black"
         cx="255.5"
         cy="-417.6"
         rx="36.2938"
         ry="18"
         id="ellipse33"
         d="m 291.7938,-417.60001 c 0,9.94113 -16.24929,18 -36.2938,18 -20.04451,0 -36.2938,-8.05887 -36.2938,-18 0,-9.94112 16.24929,-18 36.2938,-18 20.04451,0 36.2938,8.05888 36.2938,18 z" />
      <text
         x="255.5"
         y="-413.89999"
         font-size="14.00"
         id="text35"
         style="font-size:14px;text-anchor:middle">(1, S, 0)</text>
    </g>
    <!-- 9&#45;&gt;20 -->
    <g
       id="edge2"
       class="edge">
      <title
         id="title38">9-&gt;20</title>
      <path
         fill="none"
         stroke="black"
         d="M287.547,-472.011C282.473,-463.555 276.197,-453.094 270.547,-443.678"
         id="path40" />
      <polygon
         fill="black"
         stroke="black"
         points="273.528,-441.844 265.382,-435.07 267.526,-445.446 273.528,-441.844"
         id="polygon42" />
    </g>
    <!-- 14 -->
    <g
       id="node4"
       class="node">
      <title
         id="title45">14</title>
      <polygon
         fill="none"
         stroke="black"
         points="369,-435.6 310,-435.6 310,-399.6 369,-399.6 369,-435.6"
         id="polygon47" />
      <text
         x="339.5"
         y="-413.89999"
         font-size="14.00"
         id="text49"
         style="font-size:14px;text-anchor:middle">(0, b, 3)</text>
    </g>
    <!-- 9&#45;&gt;14 -->
    <g
       id="edge3"
       class="edge">
      <title
         id="title52">9-&gt;14</title>
      <path
         fill="none"
         stroke="black"
         d="M307.453,-472.011C312.329,-463.885 318.316,-453.907 323.789,-444.784"
         id="path54" />
      <polygon
         fill="black"
         stroke="black"
         points="326.888,-446.422 329.032,-436.047 320.886,-442.821 326.888,-446.422"
         id="polygon56" />
    </g>
    <!-- 163 -->
    <g
       id="node13"
       class="node"
       transform="translate(191.85118,0)">
      <title
         id="title59">163</title>
      <polygon
         points="100,-363.6 100,-327.6 159,-327.6 159,-363.6 159,-363.6 "
         id="polygon61"
         style="fill:none;stroke:#000000" />
      <text
         x="129.5"
         y="-341.89999"
         font-size="14.00"
         id="text63"
         style="font-size:14px;text-anchor:middle">(3, b, 0)</text>
    </g>
    <!-- 20&#45;&gt;163 -->
    <g
       id="edge9"
       class="edge">
      <title
         id="title66">20-&gt;163</title>
      <path
         fill="none"
         stroke="black"
         d="M232.096,-403.598C214.241,-393.678 189.252,-379.795 168.406,-368.214"
         id="path68" />
      <polygon
         fill="black"
         stroke="black"
         points="169.901,-365.041 159.46,-363.244 166.502,-371.161 169.901,-365.041"
         id="polygon70" />
    </g>
    <!-- 281 -->
    <g
       id="node14"
       class="node"
       transform="translate(-78.339209,0)">
      <title
         id="title73">281</title>
      <polygon
         points="177.5,-327.6 237.5,-327.6 237.5,-363.6 237.5,-363.6 177.5,-363.6 "
         id="polygon75"
         style="fill:none;stroke:#000000" />
      <text
         x="207.5"
         y="-341.89999"
         font-size="14.00"
         id="text77"
         style="font-size:14px;text-anchor:middle">(1, a, 2)</text>
    </g>
    <!-- 20&#45;&gt;281 -->
    <g
       id="edge7"
       class="edge">
      <title
         id="title80">20-&gt;281</title>
      <path
         fill="none"
         stroke="black"
         d="M244.367,-400.365C238.6,-391.954 231.425,-381.49 224.942,-372.036"
         id="path82" />
      <polygon
         fill="black"
         stroke="black"
         points="227.784,-369.992 219.242,-363.724 222.011,-373.951 227.784,-369.992"
         id="polygon84" />
    </g>
    <!-- 29 -->
    <g
       id="node15"
       class="node"
       transform="translate(-87.931782,0)">
      <title
         id="title87">29</title>
      <ellipse
         cx="309.5"
         cy="-345.60001"
         rx="53.890499"
         ry="18"
         id="ellipse89"
         sodipodi:cx="309.5"
         sodipodi:cy="-345.60001"
         sodipodi:rx="53.890499"
         sodipodi:ry="18"
         style="fill:#ff0000;stroke:#000000"
         d="m 363.3905,-345.60001 c 0,9.94113 -24.1276,18 -53.8905,18 -29.7629,0 -53.8905,-8.05887 -53.8905,-18 0,-9.94112 24.1276,-18 53.8905,-18 29.7629,0 53.8905,8.05888 53.8905,18 z" />
      <text
         x="309.5"
         y="-341.89999"
         font-size="14.00"
         id="text91"
         style="font-size:14px;text-anchor:middle">&lt;|&gt;  (2, S, 3)</text>
    </g>
    <!-- 20&#45;&gt;29 -->
    <g
       id="edge8"
       class="edge">
      <title
         id="title94">20-&gt;29</title>
      <path
         fill="none"
         stroke="black"
         d="M268.024,-400.365C274.675,-391.743 282.99,-380.965 290.425,-371.327"
         id="path96" />
      <polygon
         fill="black"
         stroke="black"
         points="293.332,-373.289 296.669,-363.233 287.789,-369.013 293.332,-373.289"
         id="polygon98" />
    </g>
    <!-- 10 -->
    <g
       id="node5"
       class="node"
       transform="translate(3.1975075,0)">
      <title
         id="title101">10</title>
      <ellipse
         cx="223.5"
         cy="-234"
         rx="38.993099"
         ry="18"
         id="ellipse103"
         sodipodi:cx="223.5"
         sodipodi:cy="-234"
         sodipodi:rx="38.993099"
         sodipodi:ry="18"
         style="fill:none;stroke:#000000"
         d="m 262.4931,-234 c 0,9.94113 -17.45781,18 -38.9931,18 -21.53529,0 -38.9931,-8.05887 -38.9931,-18 0,-9.94113 17.45781,-18 38.9931,-18 21.53529,0 38.9931,8.05887 38.9931,18 z" />
      <text
         x="223.5"
         y="-230.3"
         font-size="14.00"
         id="text105"
         style="font-size:14px;text-anchor:middle">(0, S, 0)</text>
    </g>
    <!-- 16 -->
    <g
       id="node6"
       class="node"
       transform="translate(145.48714,0)">
      <title
         id="title108">16</title>
      <polygon
         points="222,-180 222,-180 163,-180 163,-144 222,-144 "
         id="polygon110"
         style="fill:none;stroke:#000000" />
      <text
         x="192.5"
         y="-158.3"
         font-size="14.00"
         id="text112"
         style="font-size:14px;text-anchor:middle">(3, b, 0)</text>
    </g>
    <!-- 10&#45;&gt;16 -->
    <g
       id="edge4"
       class="edge"
       transform="translate(1.5987598,0)">
      <title
         id="title115">10-&gt;16</title>
      <path
         d="m 215.996,-216.055 c -3.527,7.964 -7.814,17.644 -11.756,26.545"
         id="path117"
         inkscape:connector-curvature="0"
         style="fill:none;stroke:#000000" />
      <polygon
         points="200.15,-180.275 201,-190.836 207.4,-188.002 207.4,-188.002 "
         id="polygon119"
         style="fill:#000000;stroke:#000000" />
    </g>
    <!-- 192 -->
    <g
       id="node10"
       class="node"
       transform="translate(-78.339224,0)">
      <title
         id="title122">192</title>
      <polygon
         points="240.5,-144 300.5,-144 300.5,-180 300.5,-180 240.5,-180 "
         id="polygon124"
         style="fill:none;stroke:#000000" />
      <text
         x="270.5"
         y="-158.3"
         font-size="14.00"
         id="text126"
         style="font-size:14px;text-anchor:middle">(0, a, 1)</text>
    </g>
    <!-- 10&#45;&gt;192 -->
    <g
       id="edge5"
       class="edge"
       transform="translate(1.5987598,0)">
      <title
         id="title129">10-&gt;192</title>
      <path
         d="m 234.638,-216.411 c 5.513,8.211 12.295,18.312 18.472,27.511"
         id="path131"
         inkscape:connector-curvature="0"
         style="fill:none;stroke:#000000" />
      <polygon
         points="258.786,-180.447 250.306,-186.798 256.117,-190.7 256.117,-190.7 "
         id="polygon133"
         style="fill:#000000;stroke:#000000" />
    </g>
    <!-- 21 -->
    <g
       id="node11"
       class="node"
       transform="translate(-94.326822,0)">
      <title
         id="title136">21</title>
      <ellipse
         cx="358.5"
         cy="-162"
         rx="36.2938"
         ry="18"
         id="ellipse138"
         sodipodi:cx="358.5"
         sodipodi:cy="-162"
         sodipodi:rx="36.2938"
         sodipodi:ry="18"
         style="fill:none;stroke:#000000"
         d="m 394.7938,-162 c 0,9.94113 -16.24929,18 -36.2938,18 -20.04451,0 -36.2938,-8.05887 -36.2938,-18 0,-9.94113 16.24929,-18 36.2938,-18 20.04451,0 36.2938,8.05887 36.2938,18 z" />
      <text
         x="358.5"
         y="-158.3"
         font-size="14.00"
         id="text140"
         style="font-size:14px;text-anchor:middle">(1, S, 3)</text>
    </g>
    <!-- 10&#45;&gt;21 -->
    <g
       id="edge6"
       class="edge"
       transform="matrix(0.91785435,0,0,0.90354536,21.977125,-21.268055)">
      <title
         id="title143">10-&gt;21</title>
      <path
         d="m 248.576,-219.998 c 21.541,11.17 52.776,27.366 76.45,39.641"
         id="path145"
         inkscape:connector-curvature="0"
         style="fill:none;stroke:#000000" />
      <polygon
         points="323.525,-177.193 326.747,-183.407 326.747,-183.407 334.013,-175.697 "
         id="polygon147"
         style="fill:#000000;stroke:#000000" />
    </g>
    <!-- 142 -->
    <g
       id="node7"
       class="node"
       transform="translate(63.95038,0)">
      <title
         id="title150">142</title>
      <polygon
         points="251,-108 251,-72 310,-72 310,-108 310,-108 "
         id="polygon152"
         style="fill:none;stroke:#000000" />
      <text
         x="280.5"
         y="-86.300003"
         font-size="14.00"
         id="text154"
         style="font-size:14px;text-anchor:middle">(0, b, 3)</text>
    </g>
    <!-- 143 -->
    <g
       id="node8"
       class="node"
       transform="translate(-4.796289,0)">
      <title
         id="title157">143</title>
      <polygon
         points="339,-252 280,-252 280,-216 339,-216 339,-252 "
         id="polygon159"
         style="fill:none;stroke:#000000" />
      <text
         x="309.5"
         y="-230.3"
         font-size="14.00"
         id="text161"
         style="font-size:14px;text-anchor:middle">(0, b, 3)</text>
    </g>
    <!-- 144 -->
    <g
       id="node9"
       class="node"
       transform="translate(81.536745,0)">
      <title
         id="title164">144</title>
      <polygon
         points="0,-180 0,-144 59,-144 59,-180 59,-180 "
         id="polygon166"
         style="fill:none;stroke:#000000" />
      <text
         x="29.5"
         y="-158.3"
         font-size="14.00"
         id="text168"
         style="font-size:14px;text-anchor:middle">(0, b, 3)</text>
    </g>
    <!-- 21&#45;&gt;142 -->
    <g
       id="edge12"
       class="edge"
       transform="translate(-95.925598,0)">
      <title
         id="title171">21-&gt;142</title>
      <path
         d="m 341.575,-145.811 c -10.047,9.017 -23.01,20.65 -34.406,30.878"
         id="path173"
         inkscape:connector-curvature="0"
         style="fill:none;stroke:#000000" />
      <polygon
         points="309.364,-112.201 299.584,-108.127 304.689,-117.411 309.364,-112.201 "
         id="polygon175"
         style="fill:#000000;stroke:#000000" />
    </g>
    <!-- 282 -->
    <g
       id="node16"
       class="node"
       transform="translate(-174.26483,0)">
      <title
         id="title178">282</title>
      <polygon
         points="388.5,-108 388.5,-108 328.5,-108 328.5,-72 388.5,-72 "
         id="polygon180"
         style="fill:none;stroke:#000000" />
      <text
         x="358.5"
         y="-86.300003"
         font-size="14.00"
         id="text182"
         style="font-size:14px;text-anchor:middle">(1, a, 2)</text>
    </g>
    <!-- 21&#45;&gt;282 -->
    <g
       id="edge10"
       class="edge"
       transform="translate(-95.925598,0)">
      <title
         id="title185">21-&gt;282</title>
      <path
         d="m 358.5,-143.697 c 0,7.714 0,16.985 0,25.585"
         id="path187"
         inkscape:connector-curvature="0"
         style="fill:none;stroke:#000000" />
      <polygon
         points="362,-118.104 358.5,-108.104 355,-118.104 362,-118.104 "
         id="polygon189"
         style="fill:#000000;stroke:#000000" />
    </g>
    <!-- 30 -->
    <g
       id="node17"
       class="node"
       transform="translate(-180.65987,0)">
      <title
         id="title192">30</title>
      <ellipse
         cx="443.5"
         cy="-90"
         rx="36.2938"
         ry="18"
         id="ellipse194"
         sodipodi:cx="443.5"
         sodipodi:cy="-90"
         sodipodi:rx="36.2938"
         sodipodi:ry="18"
         style="fill:none;stroke:#000000"
         d="m 479.7938,-90 c 0,9.941125 -16.24929,18 -36.2938,18 -20.04451,0 -36.2938,-8.058875 -36.2938,-18 0,-9.941125 16.24929,-18 36.2938,-18 20.04451,0 36.2938,8.058875 36.2938,18 z" />
      <text
         x="443.5"
         y="-86.300003"
         font-size="14.00"
         id="text196"
         style="font-size:14px;text-anchor:middle">(2, S, 0)</text>
    </g>
    <!-- 21&#45;&gt;30 -->
    <g
       id="edge11"
       class="edge"
       transform="matrix(0.95628235,0,0,0.93392533,-79.486626,-9.6901808)">
      <title
         id="title199">21-&gt;30</title>
      <path
         d="m 376.526,-146.155 c 11.946,9.838 27.804,22.898 41.091,33.84"
         id="path201"
         inkscape:connector-curvature="0"
         style="fill:none;stroke:#000000" />
      <polygon
         points="425.5,-105.824 415.555,-109.479 420.005,-114.883 420.005,-114.883 "
         id="polygon203"
         style="fill:#000000;stroke:#000000" />
    </g>
    <!-- 162 -->
    <g
       id="node12"
       class="node"
       transform="translate(-100.72189,0)">
      <title
         id="title206">162</title>
      <polygon
         points="434,0 434,-36 434,-36 375,-36 375,0 "
         id="polygon208"
         style="fill:none;stroke:#000000" />
      <text
         x="404.5"
         y="-14.3"
         font-size="14.00"
         id="text210"
         style="font-size:14px;text-anchor:middle">(3, b, 0)</text>
    </g>
    <!-- 31 -->
    <g
       id="node18"
       class="node"
       transform="translate(-83.135518,0)">
      <title
         id="title213">31</title>
      <ellipse
         cx="196.5"
         cy="-289.79999"
         rx="1.8"
         ry="1.8"
         id="ellipse215"
         sodipodi:cx="196.5"
         sodipodi:cy="-289.79999"
         sodipodi:rx="1.8"
         sodipodi:ry="1.8"
         style="fill:#000000;stroke:#000000"
         d="m 198.3,-289.79999 c 0,0.99411 -0.80589,1.8 -1.8,1.8 -0.99411,0 -1.8,-0.80589 -1.8,-1.8 0,-0.99411 0.80589,-1.8 1.8,-1.8 0.99411,0 1.8,0.80589 1.8,1.8 z" />
    </g>
    <!-- 29&#45;&gt;31 -->
    <g
       id="edge13"
       class="edge"
       transform="translate(-83.135518,0)">
      <title
         id="title218">29-&gt;31</title>
      <path
         d="m 279.811,-330.465 c -23.942,11.399 -56.244,26.778 -72.707,34.616"
         id="path220"
         inkscape:connector-curvature="0"
         style="fill:none;stroke:#000000" />
      <polygon
         points="208.293,-292.538 197.759,-291.4 205.284,-298.858 208.293,-292.538 "
         id="polygon222"
         style="fill:#000000;stroke:#000000" />
    </g>
    <!-- 32 -->
    <g
       id="node19"
       class="node"
       transform="translate(-83.135518,0)">
      <title
         id="title225">32</title>
      <ellipse
         cx="309.5"
         cy="-289.79999"
         rx="1.8"
         ry="1.8"
         id="ellipse227"
         sodipodi:cx="309.5"
         sodipodi:cy="-289.79999"
         sodipodi:rx="1.8"
         sodipodi:ry="1.8"
         style="fill:#000000;stroke:#000000"
         d="m 311.3,-289.79999 c 0,0.99411 -0.80589,1.8 -1.8,1.8 -0.99411,0 -1.8,-0.80589 -1.8,-1.8 0,-0.99411 0.80589,-1.8 1.8,-1.8 0.99411,0 1.8,0.80589 1.8,1.8 z" />
    </g>
    <!-- 29&#45;&gt;32 -->
    <g
       id="edge14"
       class="edge"
       transform="translate(-83.135518,0)">
      <title
         id="title230">29-&gt;32</title>
      <path
         d="m 309.5,-327.577 c 0,8.404 0,18.302 0,25.711"
         id="path232"
         inkscape:connector-curvature="0"
         style="fill:none;stroke:#000000" />
      <polygon
         points="313,-301.734 309.5,-291.734 306,-301.734 313,-301.734 "
         id="polygon234"
         style="fill:#000000;stroke:#000000" />
    </g>
    <!-- 30&#45;&gt;9 -->
    <g
       id="edge23"
       class="edge">
      <title
         id="title237">30-&gt;9</title>
      <path
         d="m 262.01491,-71.999695 c 1.10488,2.705893 1.33423,77.9022104 6.48622,77.9494234 34.83074,0.319193 108.11703,8.7203716 109.66615,-22.7071284 3.41651,-69.311926 1.6252,-147.77046 1.90018,-160.54985 0.51764,-24.0572 0.43636,-42.59647 0.43636,-67.16266 0,-113.6 -0.54619,-149.64831 -0.54619,-149.64831 0,-61.704 -2.26963,-57.41778 -46.08963,-78.91378"
         id="path239"
         inkscape:connector-curvature="0"
         style="fill:none;stroke:#000000"
         sodipodi:nodetypes="csssscc" />
      <polygon
         fill="black"
         stroke="black"
         points="332.177,-469.96 324.645,-477.411 335.18,-476.283 332.177,-469.96"
         id="polygon241" />
    </g>
    <!-- 30&#45;&gt;162 -->
    <g
       id="edge19"
       class="edge"
       transform="translate(-180.65988,0)">
      <title
         id="title244">30-&gt;162</title>
      <path
         d="m 434.258,-72.411 c -4.528,8.1264 -10.087,18.1038 -15.17,27.2266"
         id="path246"
         inkscape:connector-curvature="0"
         style="fill:none;stroke:#000000" />
      <polygon
         points="414.22,-36.4468 416.03,-46.8859 422.145,-43.479 422.145,-43.479 "
         id="polygon248"
         style="fill:#000000;stroke:#000000" />
    </g>
    <!-- 402 -->
    <g
       id="node23"
       class="node"
       transform="translate(-260.59787,0)">
      <title
         id="title251">402</title>
      <polygon
         points="512.5,-36 452.5,-36 452.5,0 512.5,0 512.5,-36 "
         id="polygon253"
         style="fill:none;stroke:#000000" />
      <text
         x="482.5"
         y="-14.3"
         font-size="14.00"
         id="text255"
         style="font-size:14px;text-anchor:middle">(2, a, 0)</text>
    </g>
    <!-- 30&#45;&gt;402 -->
    <g
       id="edge22"
       class="edge"
       transform="translate(-180.65988,0)">
      <title
         id="title258">30-&gt;402</title>
      <path
         d="m 452.742,-72.411 c 4.528,8.1264 10.087,18.1038 15.17,27.2266"
         id="path260"
         inkscape:connector-curvature="0"
         style="fill:none;stroke:#000000" />
      <polygon
         points="472.78,-36.4468 464.855,-43.479 470.97,-46.8859 470.97,-46.8859 "
         id="polygon262"
         style="fill:#000000;stroke:#000000" />
    </g>
    <!-- 34 -->
    <g
       id="node20"
       class="node"
       transform="translate(-67.147918,0)">
      <title
         id="title265">34</title>
      <ellipse
         cx="106.5"
         cy="-234"
         rx="59.590099"
         ry="18"
         id="ellipse267"
         sodipodi:cx="106.5"
         sodipodi:cy="-234"
         sodipodi:rx="59.590099"
         sodipodi:ry="18"
         style="fill:none;stroke:#000000"
         d="m 166.0901,-234 c 0,9.94113 -26.6794,18 -59.5901,18 -32.910703,0 -59.590099,-8.05887 -59.590099,-18 0,-9.94113 26.679396,-18 59.590099,-18 32.9107,0 59.5901,8.05887 59.5901,18 z" />
      <text
         x="106.5"
         y="-230.3"
         font-size="14.00"
         id="text269"
         style="font-size:14px;text-anchor:middle">(2, Middle, 3)</text>
    </g>
    <!-- 31&#45;&gt;34 -->
    <g
       id="edge15"
       class="edge"
       transform="matrix(1,0,0,0.98001645,-83.135518,-5.7691718)">
      <title
         id="title272">31-&gt;34</title>
      <path
         d="m 195.489,-288.196 c -5.421,3.241 -31.651,18.921 -54.241,32.425"
         id="path274"
         inkscape:connector-curvature="0"
         style="fill:none;stroke:#000000" />
      <polygon
         points="132.502,-250.543 139.289,-258.678 142.881,-252.67 142.881,-252.67 "
         id="polygon276"
         style="fill:#000000;stroke:#000000" />
    </g>
    <!-- 32&#45;&gt;10 -->
    <g
       id="edge18"
       class="edge"
       transform="matrix(1.0106554,0,0,0.90736277,-86.428134,-26.744286)">
      <title
         id="title279">32-&gt;10</title>
      <path
         d="m 308.534,-288.196 c -5.376,3.363 -32.165,20.122 -54.258,33.943"
         id="path281"
         inkscape:connector-curvature="0"
         style="fill:none;stroke:#000000" />
      <polygon
         points="252.408,-257.213 256.121,-251.279 256.121,-251.279 245.787,-248.942 "
         id="polygon283"
         style="fill:#000000;stroke:#000000" />
    </g>
    <!-- 32&#45;&gt;143 -->
    <g
       id="edge17"
       class="edge"
       transform="translate(-83.135518,0)">
      <title
         id="title286">32-&gt;143</title>
      <path
         d="m 309.5,-287.866 c 0,3.226 0,14.32 0,25.518"
         id="path288"
         inkscape:connector-curvature="0"
         style="fill:none;stroke:#000000" />
      <polygon
         points="313,-262.259 309.5,-252.259 306,-262.259 313,-262.259 "
         id="polygon290"
         style="fill:#000000;stroke:#000000" />
    </g>
    <!-- 401 -->
    <g
       id="node21"
       class="node"
       transform="translate(-243.0115,0)">
      <title
         id="title293">401</title>
      <polygon
         points="357.5,-216 417.5,-216 417.5,-252 417.5,-252 357.5,-252 "
         id="polygon295"
         style="fill:none;stroke:#000000" />
      <text
         x="387.5"
         y="-230.3"
         font-size="14.00"
         id="text297"
         style="font-size:14px;text-anchor:middle">(2, a, 0)</text>
    </g>
    <!-- 32&#45;&gt;401 -->
    <g
       id="edge16"
       class="edge"
       transform="translate(-83.135518,0)">
      <title
         id="title300">32-&gt;401</title>
      <path
         d="m 310.376,-288.196 c 4.441,3.064 24.996,17.241 43.768,30.189"
         id="path302"
         inkscape:connector-curvature="0"
         style="fill:none;stroke:#000000" />
      <polygon
         points="356.334,-260.748 362.579,-252.189 352.36,-254.986 356.334,-260.748 "
         id="polygon304"
         style="fill:#000000;stroke:#000000" />
    </g>
    <!-- 34&#45;&gt;144 -->
    <g
       id="edge21"
       class="edge"
       transform="matrix(-1,0,0,1,138.57616,0)">
      <title
         id="title307">34-&gt;144</title>
      <path
         d="m 88.6411,-216.765 c -9.7239,8.84 -21.942,19.948 -32.7447,29.768"
         id="path309"
         inkscape:connector-curvature="0"
         style="fill:none;stroke:#000000" />
      <polygon
         points="58.0901,-184.261 48.3363,-180.124 53.3814,-189.44 58.0901,-184.261 "
         id="polygon311"
         style="fill:#000000;stroke:#000000" />
    </g>
    <!-- 403 -->
    <g
       id="node22"
       class="node"
       transform="translate(-68.74667,0)">
      <title
         id="title314">403</title>
      <polygon
         points="77.5,-144 137.5,-144 137.5,-180 137.5,-180 77.5,-180 "
         id="polygon316"
         style="fill:none;stroke:#000000" />
      <text
         x="107.5"
         y="-158.3"
         font-size="14.00"
         id="text318"
         style="font-size:14px;text-anchor:middle">(2, a, 0)</text>
    </g>
    <!-- 34&#45;&gt;403 -->
    <g
       id="edge20"
       class="edge"
       transform="translate(-68.746678,0)">
      <title
         id="title321">34-&gt;403</title>
      <path
         d="m 106.747,-215.697 c 0.11,7.714 0.243,16.985 0.366,25.585"
         id="path323"
         inkscape:connector-curvature="0"
         style="fill:none;stroke:#000000" />
      <polygon
         points="110.612,-190.153 110.612,-190.153 107.256,-180.104 103.613,-190.053 "
         id="polygon325"
         style="fill:#000000;stroke:#000000" />
    </g>
  </g>
</svg>
