<?xml version="1.0" encoding="UTF-8" standalone="no"?>
<!-- Generated by graphviz version 2.38.0 (20140413.2041)
 -->

<!-- Title: AST Pages: 1 -->

<svg
   xmlns:dc="http://purl.org/dc/elements/1.1/"
   xmlns:cc="http://creativecommons.org/ns#"
   xmlns:rdf="http://www.w3.org/1999/02/22-rdf-syntax-ns#"
   xmlns:svg="http://www.w3.org/2000/svg"
   xmlns="http://www.w3.org/2000/svg"
   xmlns:sodipodi="http://sodipodi.sourceforge.net/DTD/sodipodi-0.dtd"
   xmlns:inkscape="http://www.inkscape.org/namespaces/inkscape"
   width="521pt"
   height="516pt"
   viewBox="0.00 0.00 520.50 515.60"
   id="svg2"
   version="1.1"
   inkscape:version="0.48.5 r10040"
   sodipodi:docname="AnBn_1.svg">
  <metadata
     id="metadata331">
    <rdf:RDF>
      <cc:Work
         rdf:about="">
        <dc:format>image/svg+xml</dc:format>
        <dc:type
           rdf:resource="http://purl.org/dc/dcmitype/StillImage" />
        <dc:title />
      </cc:Work>
    </rdf:RDF>
  </metadata>
  <defs
     id="defs329" />
  <sodipodi:namedview
     pagecolor="#ffffff"
     bordercolor="#666666"
     borderopacity="1"
     objecttolerance="10"
     gridtolerance="10"
     guidetolerance="10"
     inkscape:pageopacity="0"
     inkscape:pageshadow="2"
     inkscape:window-width="1920"
     inkscape:window-height="1177"
     id="namedview327"
     showgrid="false"
     inkscape:zoom="1.4635659"
     inkscape:cx="204.94968"
     inkscape:cy="409.63348"
     inkscape:window-x="-8"
     inkscape:window-y="-8"
     inkscape:window-maximized="1"
     inkscape:current-layer="graph0" />
  <g
     id="graph0"
     class="graph"
     transform="scale(1 1) rotate(0) translate(4 511.6)">
    <title
       id="title5">AST</title>
    <polygon
       points="-4,4 -4,-511.6 516.5,-511.6 516.5,4 -4,4 "
       id="polygon7"
       transform="matrix(0.636501,0,0,1.0723663,-85.036137,-218.87166)"
       style="fill:#ffffff;stroke:none" />
    <!-- 9 -->
    <g
       id="node1"
       class="node"
       transform="translate(-180.65986,-38.370239)">
      <title
         id="title10">9</title>
      <ellipse
         cx="297.5"
         cy="-489.60001"
         rx="36.2938"
         ry="18"
         id="ellipse12"
         d="m 333.7938,-489.60001 c 0,9.94113 -16.24929,18 -36.2938,18 -20.04451,0 -36.2938,-8.05887 -36.2938,-18 0,-9.94112 16.24929,-18 36.2938,-18 20.04451,0 36.2938,8.05888 36.2938,18 z"
         sodipodi:cx="297.5"
         sodipodi:cy="-489.60001"
         sodipodi:rx="36.2938"
         sodipodi:ry="18"
         style="fill:none;stroke:#000000" />
      <text
         x="297.5"
         y="-485.89999"
         font-size="14.00"
         id="text14"
         style="font-size:14px;text-anchor:middle">(0, S, 3)</text>
    </g>
    <!-- 19 -->
    <g
       id="node2"
       class="node"
       transform="translate(-180.65986,-38.370239)">
      <title
         id="title17">19</title>
      <polygon
         points="201.5,-435.6 141.5,-435.6 141.5,-399.6 201.5,-399.6 201.5,-435.6 "
         id="polygon19"
         style="fill:none;stroke:#000000" />
      <text
         x="171.5"
         y="-413.89999"
         font-size="14.00"
         id="text21"
         style="font-size:14px;text-anchor:middle">(0, a, 1)</text>
    </g>
    <!-- 9&#45;&gt;19 -->
    <g
       id="edge1"
       class="edge"
       transform="translate(-180.65986,-38.370239)">
      <title
         id="title24">9-&gt;19</title>
      <path
         d="m 274.096,-475.598 c -17.731,9.851 -42.498,23.61 -63.255,35.142"
         id="path26"
         inkscape:connector-curvature="0"
         style="fill:none;stroke:#000000" />
      <polygon
         points="212.366,-437.299 212.366,-437.299 201.925,-435.503 208.966,-443.419 "
         id="polygon28"
         style="fill:#000000;stroke:#000000" />
    </g>
    <!-- 20 -->
    <g
       id="node3"
       class="node"
       transform="translate(-180.65986,-38.370239)">
      <title
         id="title31">20</title>
      <ellipse
         cx="255.5"
         cy="-417.60001"
         rx="36.2938"
         ry="18"
         id="ellipse33"
         d="m 291.7938,-417.60001 c 0,9.94113 -16.24929,18 -36.2938,18 -20.04451,0 -36.2938,-8.05887 -36.2938,-18 0,-9.94112 16.24929,-18 36.2938,-18 20.04451,0 36.2938,8.05888 36.2938,18 z"
         sodipodi:cx="255.5"
         sodipodi:cy="-417.60001"
         sodipodi:rx="36.2938"
         sodipodi:ry="18"
         style="fill:none;stroke:#000000" />
      <text
         x="255.5"
         y="-413.89999"
         font-size="14.00"
         id="text35"
         style="font-size:14px;text-anchor:middle">(1, S, 0)</text>
    </g>
    <!-- 9&#45;&gt;20 -->
    <g
       id="edge2"
       class="edge"
       transform="translate(-180.65986,-38.370239)">
      <title
         id="title38">9-&gt;20</title>
      <path
         d="m 287.547,-472.011 c -5.074,8.456 -11.35,18.917 -17,28.333"
         id="path40"
         inkscape:connector-curvature="0"
         style="fill:none;stroke:#000000" />
      <polygon
         points="273.528,-441.844 273.528,-441.844 265.382,-435.07 267.526,-445.446 "
         id="polygon42"
         style="fill:#000000;stroke:#000000" />
    </g>
    <!-- 14 -->
    <g
       id="node4"
       class="node"
       transform="translate(-180.65986,-38.370239)">
      <title
         id="title45">14</title>
      <polygon
         points="369,-435.6 310,-435.6 310,-399.6 369,-399.6 369,-435.6 "
         id="polygon47"
         style="fill:none;stroke:#000000" />
      <text
         x="339.5"
         y="-413.89999"
         font-size="14.00"
         id="text49"
         style="font-size:14px;text-anchor:middle">(0, b, 3)</text>
    </g>
    <!-- 9&#45;&gt;14 -->
    <g
       id="edge3"
       class="edge"
       transform="translate(-180.65986,-38.370239)">
      <title
         id="title52">9-&gt;14</title>
      <path
         d="m 307.453,-472.011 c 4.876,8.126 10.863,18.104 16.336,27.227"
         id="path54"
         inkscape:connector-curvature="0"
         style="fill:none;stroke:#000000" />
      <polygon
         points="326.888,-446.422 326.888,-446.422 329.032,-436.047 320.886,-442.821 "
         id="polygon56"
         style="fill:#000000;stroke:#000000" />
    </g>
    <!-- 163 -->
    <g
       id="node13"
       class="node"
       transform="translate(11.191318,-38.370239)">
      <title
         id="title59">163</title>
      <polygon
         points="100,-363.6 100,-327.6 159,-327.6 159,-363.6 159,-363.6 "
         id="polygon61"
         style="fill:none;stroke:#000000" />
      <text
         x="129.5"
         y="-341.89999"
         font-size="14.00"
         id="text63"
         style="font-size:14px;text-anchor:middle">(3, b, 0)</text>
    </g>
    <!-- 20&#45;&gt;163 -->
    <g
       id="edge9"
       class="edge"
       transform="translate(-180.65986,-38.370239)">
      <title
         id="title66">20-&gt;163</title>
      <path
         d="m 232.096,-403.598 c -17.855,9.92 -42.844,23.803 -63.69,35.384"
         id="path68"
         inkscape:connector-curvature="0"
         style="fill:none;stroke:#000000" />
      <polygon
         points="169.901,-365.041 169.901,-365.041 159.46,-363.244 166.502,-371.161 "
         id="polygon70"
         style="fill:#000000;stroke:#000000" />
    </g>
    <!-- 281 -->
    <g
       id="node14"
       class="node"
       transform="translate(-258.99908,-38.370239)">
      <title
         id="title73">281</title>
      <polygon
         points="177.5,-327.6 237.5,-327.6 237.5,-363.6 237.5,-363.6 177.5,-363.6 "
         id="polygon75"
         style="fill:none;stroke:#000000" />
      <text
         x="207.5"
         y="-341.89999"
         font-size="14.00"
         id="text77"
         style="font-size:14px;text-anchor:middle">(1, a, 2)</text>
    </g>
    <!-- 20&#45;&gt;281 -->
    <g
       id="edge7"
       class="edge"
       transform="translate(-180.65986,-38.370239)">
      <title
         id="title80">20-&gt;281</title>
      <path
         d="m 244.367,-400.365 c -5.767,8.411 -12.942,18.875 -19.425,28.329"
         id="path82"
         inkscape:connector-curvature="0"
         style="fill:none;stroke:#000000" />
      <polygon
         points="227.784,-369.992 227.784,-369.992 219.242,-363.724 222.011,-373.951 "
         id="polygon84"
         style="fill:#000000;stroke:#000000" />
    </g>
    <!-- 29 -->
    <g
       id="node15"
       class="node"
       transform="translate(-268.59166,-38.370239)">
      <title
         id="title87">29</title>
      <ellipse
         cx="309.5"
         cy="-345.60001"
         rx="53.890499"
         ry="18"
         id="ellipse89"
         sodipodi:cx="309.5"
         sodipodi:cy="-345.60001"
         sodipodi:rx="53.890499"
         sodipodi:ry="18"
         style="fill:#ff0000;stroke:#000000"
         d="m 363.3905,-345.60001 c 0,9.94113 -24.1276,18 -53.8905,18 -29.7629,0 -53.8905,-8.05887 -53.8905,-18 0,-9.94112 24.1276,-18 53.8905,-18 29.7629,0 53.8905,8.05888 53.8905,18 z" />
      <text
         x="309.5"
         y="-341.89999"
         font-size="14.00"
         id="text91"
         style="font-size:14px;text-anchor:middle">&lt;|&gt;  (2, S, 3)</text>
    </g>
    <!-- 20&#45;&gt;29 -->
    <g
       id="edge8"
       class="edge"
       transform="translate(-180.65986,-38.370239)">
      <title
         id="title94">20-&gt;29</title>
      <path
         d="m 268.024,-400.365 c 6.651,8.622 14.966,19.4 22.401,29.038"
         id="path96"
         inkscape:connector-curvature="0"
         style="fill:none;stroke:#000000" />
      <polygon
         points="293.332,-373.289 293.332,-373.289 296.669,-363.233 287.789,-369.013 "
         id="polygon98"
         style="fill:#000000;stroke:#000000" />
    </g>
    <!-- 10 -->
    <g
       id="node5"
       class="node"
       transform="translate(-140.69087,-511.60318)">
      <title
         id="title101">10</title>
      <ellipse
         cx="223.5"
         cy="-234"
         rx="38.993099"
         ry="18"
         id="ellipse103"
         sodipodi:cx="223.5"
         sodipodi:cy="-234"
         sodipodi:rx="38.993099"
         sodipodi:ry="18"
         style="fill:none;stroke:#000000"
         d="m 262.4931,-234 c 0,9.94113 -17.45781,18 -38.9931,18 -21.53529,0 -38.9931,-8.05887 -38.9931,-18 0,-9.94113 17.45781,-18 38.9931,-18 21.53529,0 38.9931,8.05887 38.9931,18 z" />
      <text
         x="223.5"
         y="-230.3"
         font-size="14.00"
         id="text105"
         style="font-size:14px;text-anchor:middle">(0, S, 0)</text>
    </g>
    <!-- 16 -->
    <g
       id="node6"
       class="node"
       transform="translate(1.5987611,-511.60318)">
      <title
         id="title108">16</title>
      <polygon
         points="222,-180 222,-180 163,-180 163,-144 222,-144 "
         id="polygon110"
         style="fill:none;stroke:#000000" />
      <text
         x="192.5"
         y="-158.3"
         font-size="14.00"
         id="text112"
         style="font-size:14px;text-anchor:middle">(3, b, 0)</text>
    </g>
    <!-- 10&#45;&gt;16 -->
    <g
       id="edge4"
       class="edge"
       transform="translate(-142.28962,-511.60318)">
      <title
         id="title115">10-&gt;16</title>
      <path
         d="m 215.996,-216.055 c -3.527,7.964 -7.814,17.644 -11.756,26.545"
         id="path117"
         inkscape:connector-curvature="0"
         style="fill:none;stroke:#000000" />
      <polygon
         points="201,-190.836 207.4,-188.002 207.4,-188.002 200.15,-180.275 "
         id="polygon119"
         style="fill:#000000;stroke:#000000" />
    </g>
    <!-- 192 -->
    <g
       id="node10"
       class="node"
       transform="translate(-222.22762,-511.60318)">
      <title
         id="title122">192</title>
      <polygon
         points="240.5,-144 300.5,-144 300.5,-180 300.5,-180 240.5,-180 "
         id="polygon124"
         style="fill:none;stroke:#000000" />
      <text
         x="270.5"
         y="-158.3"
         font-size="14.00"
         id="text126"
         style="font-size:14px;text-anchor:middle">(0, a, 1)</text>
    </g>
    <!-- 10&#45;&gt;192 -->
    <g
       id="edge5"
       class="edge"
       transform="translate(-142.28962,-511.60318)">
      <title
         id="title129">10-&gt;192</title>
      <path
         d="m 234.638,-216.411 c 5.513,8.211 12.295,18.312 18.472,27.511"
         id="path131"
         inkscape:connector-curvature="0"
         style="fill:none;stroke:#000000" />
      <polygon
         points="250.306,-186.798 256.117,-190.7 256.117,-190.7 258.786,-180.447 "
         id="polygon133"
         style="fill:#000000;stroke:#000000" />
    </g>
    <!-- 21 -->
    <g
       id="node11"
       class="node"
       transform="translate(-238.21522,-511.60318)">
      <title
         id="title136">21</title>
      <ellipse
         cx="358.5"
         cy="-162"
         rx="36.2938"
         ry="18"
         id="ellipse138"
         sodipodi:cx="358.5"
         sodipodi:cy="-162"
         sodipodi:rx="36.2938"
         sodipodi:ry="18"
         style="fill:none;stroke:#000000"
         d="m 394.7938,-162 c 0,9.94113 -16.24929,18 -36.2938,18 -20.04451,0 -36.2938,-8.05887 -36.2938,-18 0,-9.94113 16.24929,-18 36.2938,-18 20.04451,0 36.2938,8.05887 36.2938,18 z" />
      <text
         x="358.5"
         y="-158.3"
         font-size="14.00"
         id="text140"
         style="font-size:14px;text-anchor:middle">(1, S, 3)</text>
    </g>
    <!-- 10&#45;&gt;21 -->
    <g
       id="edge6"
       class="edge"
       transform="matrix(0.91785435,0,0,0.90354536,-121.91125,-532.87124)">
      <title
         id="title143">10-&gt;21</title>
      <path
         d="m 248.576,-219.998 c 21.541,11.17 52.776,27.366 76.45,39.641"
         id="path145"
         inkscape:connector-curvature="0"
         style="fill:none;stroke:#000000" />
      <polygon
         points="326.747,-183.407 326.747,-183.407 334.013,-175.697 323.525,-177.193 "
         id="polygon147"
         style="fill:#000000;stroke:#000000" />
    </g>
    <!-- 142 -->
    <g
       id="node7"
       class="node"
       transform="translate(-79.937993,-511.60318)">
      <title
         id="title150">142</title>
      <polygon
         points="251,-108 251,-72 310,-72 310,-108 310,-108 "
         id="polygon152"
         style="fill:none;stroke:#000000" />
      <text
         x="280.5"
         y="-86.300003"
         font-size="14.00"
         id="text154"
         style="font-size:14px;text-anchor:middle">(0, b, 3)</text>
    </g>
    <!-- 143 -->
    <!-- 144 -->
    <g
       id="node9"
       class="node"
       transform="translate(81.536728,-78.339231)">
      <title
         id="title164">144</title>
      <polygon
         points="0,-180 0,-144 59,-144 59,-180 59,-180 "
         id="polygon166"
         style="fill:none;stroke:#000000" />
      <text
         x="29.5"
         y="-158.3"
         font-size="14.00"
         id="text168"
         style="font-size:14px;text-anchor:middle">(0, b, 3)</text>
    </g>
    <!-- 21&#45;&gt;142 -->
    <g
       id="edge12"
       class="edge"
       transform="translate(-239.81399,-511.60318)">
      <title
         id="title171">21-&gt;142</title>
      <path
         d="m 341.575,-145.811 c -10.047,9.017 -23.01,20.65 -34.406,30.878"
         id="path173"
         inkscape:connector-curvature="0"
         style="fill:none;stroke:#000000" />
      <polygon
         points="299.584,-108.127 304.689,-117.411 309.364,-112.201 309.364,-112.201 "
         id="polygon175"
         style="fill:#000000;stroke:#000000" />
    </g>
    <!-- 282 -->
    <g
       id="node16"
       class="node"
       transform="translate(-318.15323,-511.60318)">
      <title
         id="title178">282</title>
      <polygon
         points="388.5,-108 388.5,-108 328.5,-108 328.5,-72 388.5,-72 "
         id="polygon180"
         style="fill:none;stroke:#000000" />
      <text
         x="358.5"
         y="-86.300003"
         font-size="14.00"
         id="text182"
         style="font-size:14px;text-anchor:middle">(1, a, 2)</text>
    </g>
    <!-- 21&#45;&gt;282 -->
    <g
       id="edge10"
       class="edge"
       transform="translate(-239.81399,-511.60318)">
      <title
         id="title185">21-&gt;282</title>
      <path
         d="m 358.5,-143.697 c 0,7.714 0,16.985 0,25.585"
         id="path187"
         inkscape:connector-curvature="0"
         style="fill:none;stroke:#000000" />
      <polygon
         points="358.5,-108.104 355,-118.104 362,-118.104 362,-118.104 "
         id="polygon189"
         style="fill:#000000;stroke:#000000" />
    </g>
    <!-- 30 -->
    <g
       id="node17"
       class="node"
       transform="translate(-324.54827,-511.60318)">
      <title
         id="title192">30</title>
      <ellipse
         cx="443.5"
         cy="-90"
         rx="36.2938"
         ry="18"
         id="ellipse194"
         sodipodi:cx="443.5"
         sodipodi:cy="-90"
         sodipodi:rx="36.2938"
         sodipodi:ry="18"
         style="fill:none;stroke:#000000"
         d="m 479.7938,-90 c 0,9.941125 -16.24929,18 -36.2938,18 -20.04451,0 -36.2938,-8.058875 -36.2938,-18 0,-9.941125 16.24929,-18 36.2938,-18 20.04451,0 36.2938,8.058875 36.2938,18 z" />
      <text
         x="443.5"
         y="-86.300003"
         font-size="14.00"
         id="text196"
         style="font-size:14px;text-anchor:middle">(2, S, 0)</text>
    </g>
    <!-- 21&#45;&gt;30 -->
    <g
       id="edge11"
       class="edge"
       transform="matrix(0.95628235,0,0,0.93392533,-223.37502,-521.29336)">
      <title
         id="title199">21-&gt;30</title>
      <path
         d="m 376.526,-146.155 c 11.946,9.838 27.804,22.898 41.091,33.84"
         id="path201"
         inkscape:connector-curvature="0"
         style="fill:none;stroke:#000000" />
      <polygon
         points="415.555,-109.479 420.005,-114.883 420.005,-114.883 425.5,-105.824 "
         id="polygon203"
         style="fill:#000000;stroke:#000000" />
    </g>
    <!-- 162 -->
    <g
       id="node12"
       class="node"
       transform="translate(-195.04873,-511.60318)">
      <title
         id="title206">162</title>
      <polygon
         points="434,-36 434,-36 375,-36 375,0 434,0 "
         id="polygon208"
         style="fill:none;stroke:#000000" />
      <text
         x="404.5"
         y="-14.3"
         font-size="14.00"
         id="text210"
         style="font-size:14px;text-anchor:middle">(3, b, 0)</text>
    </g>
    <!-- 31 -->
    <!-- 29&#45;&gt;31 -->
    <!-- 32 -->
    <!-- 29&#45;&gt;32 -->
    <!-- 30&#45;&gt;9 -->
    <!-- 30&#45;&gt;162 -->
    <!-- 402 -->
    <g
       id="node23"
       class="node"
       transform="translate(-452.44907,-511.60318)">
      <title
         id="title251">402</title>
      <polygon
         points="512.5,-36 452.5,-36 452.5,0 512.5,0 512.5,-36 "
         id="polygon253"
         style="fill:none;stroke:#000000" />
      <text
         x="482.5"
         y="-14.3"
         font-size="14.00"
         id="text255"
         style="font-size:14px;text-anchor:middle">(2, a, 0)</text>
    </g>
    <!-- 30&#45;&gt;402 -->
    <!-- 34 -->
    <g
       id="node20"
       class="node"
       transform="translate(-67.147929,-78.339231)">
      <title
         id="title265">34</title>
      <ellipse
         cx="106.5"
         cy="-234"
         rx="59.590099"
         ry="18"
         id="ellipse267"
         sodipodi:cx="106.5"
         sodipodi:cy="-234"
         sodipodi:rx="59.590099"
         sodipodi:ry="18"
         style="fill:none;stroke:#000000"
         d="m 166.0901,-234 c 0,9.94113 -26.6794,18 -59.5901,18 -32.910703,0 -59.590099,-8.05887 -59.590099,-18 0,-9.94113 26.679396,-18 59.590099,-18 32.9107,0 59.5901,8.05887 59.5901,18 z" />
      <text
         x="106.5"
         y="-230.3"
         font-size="14.00"
         id="text269"
         style="font-size:14px;text-anchor:middle">(2, Middle, 3)</text>
    </g>
    <!-- 31&#45;&gt;34 -->
    <!-- 32&#45;&gt;10 -->
    <!-- 32&#45;&gt;143 -->
    <!-- 401 -->
    <!-- 32&#45;&gt;401 -->
    <!-- 34&#45;&gt;144 -->
    <g
       id="edge21"
       class="edge"
       transform="matrix(-1,0,0,1,138.57615,-78.339231)">
      <title
         id="title307">34-&gt;144</title>
      <path
         d="m 88.6411,-216.765 c -9.7239,8.84 -21.942,19.948 -32.7447,29.768"
         id="path309"
         inkscape:connector-curvature="0"
         style="fill:none;stroke:#000000" />
      <polygon
         points="58.0901,-184.261 48.3363,-180.124 53.3814,-189.44 58.0901,-184.261 "
         id="polygon311"
         style="fill:#000000;stroke:#000000" />
    </g>
    <!-- 403 -->
    <g
       id="node22"
       class="node"
       transform="translate(-68.746679,-78.339231)">
      <title
         id="title314">403</title>
      <polygon
         points="77.5,-144 137.5,-144 137.5,-180 137.5,-180 77.5,-180 "
         id="polygon316"
         style="fill:none;stroke:#000000" />
      <text
         x="107.5"
         y="-158.3"
         font-size="14.00"
         id="text318"
         style="font-size:14px;text-anchor:middle">(2, a, 0)</text>
    </g>
    <!-- 34&#45;&gt;403 -->
    <g
       id="edge20"
       class="edge"
       transform="translate(-68.746689,-78.339231)">
      <title
         id="title321">34-&gt;403</title>
      <path
         d="m 106.747,-215.697 c 0.11,7.714 0.243,16.985 0.366,25.585"
         id="path323"
         inkscape:connector-curvature="0"
         style="fill:none;stroke:#000000" />
      <polygon
         points="110.612,-190.153 110.612,-190.153 107.256,-180.104 103.613,-190.053 "
         id="polygon325"
         style="fill:#000000;stroke:#000000" />
    </g>
    <g
       id="edge12-1"
       class="edge"
       transform="translate(-243.24578,-441.16678)">
      <title
         id="title171-7">21-&gt;142</title>
      <path
         d="m 341.575,-145.811 c -10.047,9.017 -23.01,20.65 -34.406,30.878"
         id="path173-4"
         inkscape:connector-curvature="0"
         style="fill:none;stroke:#000000" />
      <polygon
         points="299.584,-108.127 304.689,-117.411 309.364,-112.201 309.364,-112.201 "
         id="polygon175-0"
         style="fill:#000000;stroke:#000000" />
    </g>
    <g
       id="edge11-9"
       class="edge"
       transform="matrix(0.95628236,0,0,0.93392531,-220.39667,-450.692)">
      <title
         id="title199-4">21-&gt;30</title>
      <path
         d="m 376.526,-146.155 c 11.946,9.838 27.804,22.898 41.091,33.84"
         id="path201-8"
         inkscape:connector-curvature="0"
         style="fill:none;stroke:#000000" />
      <polygon
         points="420.005,-114.883 420.005,-114.883 425.5,-105.824 415.555,-109.479 "
         id="polygon203-8"
         style="fill:#000000;stroke:#000000" />
    </g>
    <g
       id="edge10-2"
       class="edge"
       transform="translate(-240.3505,-439.24776)">
      <title
         id="title185-4">21-&gt;282</title>
      <path
         d="m 358.5,-143.697 c 0,7.714 0,16.985 0,25.585"
         id="path187-5"
         inkscape:connector-curvature="0"
         style="fill:none;stroke:#000000" />
      <polygon
         points="355,-118.104 362,-118.104 362,-118.104 358.5,-108.104 "
         id="polygon189-5"
         style="fill:#000000;stroke:#000000" />
    </g>
    <g
       id="edge10-2-1"
       class="edge"
       transform="translate(-321.23268,-223.35335)">
      <title
         id="title185-4-7">21-&gt;282</title>
      <path
         d="m 358.5,-143.697 c 0,7.714 0,16.985 0,25.585"
         id="path187-5-1"
         inkscape:connector-curvature="0"
         style="fill:none;stroke:#000000" />
      <polygon
         points="355,-118.104 362,-118.104 362,-118.104 358.5,-108.104 "
         id="polygon189-5-1"
         style="fill:#000000;stroke:#000000" />
    </g>
  </g>
</svg>
