<?xml version="1.0" encoding="UTF-8" standalone="no"?>
<!DOCTYPE svg PUBLIC "-//W3C//DTD SVG 1.1//EN"
 "http://www.w3.org/Graphics/SVG/1.1/DTD/svg11.dtd">
<!-- Generated by graphviz version 2.38.0 (20140413.2041)
 -->
<!-- Title: g Pages: 1 -->
<svg width="350pt" height="72pt"
 viewBox="0.00 0.00 350.20 71.53" xmlns="http://www.w3.org/2000/svg" xmlns:xlink="http://www.w3.org/1999/xlink">
<g id="graph0" class="graph" transform="scale(1 1) rotate(0) translate(4 67.5322)">
<title>g</title>
<polygon fill="white" stroke="none" points="-4,4 -4,-67.5322 346.2,-67.5322 346.2,4 -4,4"/>
<!-- 0 -->
<g id="node1" class="node"><title>0</title>
<ellipse fill="black" stroke="black" cx="1.8" cy="-9.53225" rx="1.8" ry="1.8"/>
</g>
<!-- 1 -->
<g id="node2" class="node"><title>1</title>
<ellipse fill="black" stroke="black" cx="108.1" cy="-27.5322" rx="1.8" ry="1.8"/>
</g>
<!-- 0&#45;&gt;1 -->
<g id="edge1" class="edge"><title>0&#45;&gt;1</title>
<path fill="none" stroke="black" d="M3.97134,-9.7344C12.9515,-11.2842 71.195,-21.3358 95.9721,-25.6118"/>
<polygon fill="black" stroke="black" points="95.6181,-29.1024 106.068,-27.3541 96.8086,-22.2044 95.6181,-29.1024"/>
<text text-anchor="middle" x="44.6" y="-25.3322" font-family="Times New Roman,serif" font-size="14.00">CA....G</text>
</g>
<!-- 2 -->
<g id="node3" class="node"><title>2</title>
<ellipse fill="black" stroke="black" cx="235.1" cy="-17.5322" rx="1.8" ry="1.8"/>
</g>
<!-- 0&#45;&gt;2 -->
<g id="edge3" class="edge"><title>0&#45;&gt;2</title>
<path fill="none" stroke="black" d="M3.61379,-9.42344C9.91284,-8.58745 51.5565,-3.17304 85.6,-1.53225 105.577,-0.569428 110.659,-0 130.6,-1.53225 164.526,-4.13909 204.16,-11.4848 223.027,-15.248"/>
<polygon fill="black" stroke="black" points="222.587,-18.7306 233.087,-17.3147 223.996,-11.8738 222.587,-18.7306"/>
<text text-anchor="middle" x="108.1" y="-5.33225" font-family="Times New Roman,serif" font-size="14.00">UA....A</text>
</g>
<!-- 1&#45;&gt;2 -->
<g id="edge2" class="edge"><title>1&#45;&gt;2</title>
<path fill="none" stroke="black" d="M110.504,-27.4199C121.518,-26.5388 194.363,-20.7112 222.778,-18.438"/>
<polygon fill="black" stroke="black" points="223.174,-21.9176 232.863,-17.6312 222.616,-14.9399 223.174,-21.9176"/>
<text text-anchor="middle" x="171.6" y="-28.3322" font-family="Times New Roman,serif" font-size="14.00">GG....A</text>
</g>
<!-- 3 -->
<g id="node4" class="node"><title>3</title>
<ellipse fill="black" stroke="black" cx="340.4" cy="-38.5322" rx="1.8" ry="1.8"/>
</g>
<!-- 1&#45;&gt;3 -->
<g id="edge4" class="edge"><title>1&#45;&gt;3</title>
<path fill="none" stroke="black" d="M110.044,-28.0043C114.342,-30.123 132.538,-38.7701 148.6,-41.5322 223.938,-54.4885 244.395,-47.5742 320.6,-41.5322 323.17,-41.3285 325.919,-40.9704 328.5,-40.5709"/>
<polygon fill="black" stroke="black" points="329.186,-44.0035 338.388,-38.7518 327.92,-37.119 329.186,-44.0035"/>
<text text-anchor="middle" x="235.1" y="-52.3322" font-family="Times New Roman,serif" font-size="14.00">UU....C</text>
</g>
<!-- 2&#45;&gt;3 -->
<g id="edge5" class="edge"><title>2&#45;&gt;3</title>
<path fill="none" stroke="black" d="M236.965,-17.4776C243.653,-17.0842 287.742,-15.0161 320.6,-26.5322 324.044,-27.7393 327.5,-29.6842 330.493,-31.6599"/>
<polygon fill="black" stroke="black" points="328.384,-34.4527 338.467,-37.7058 332.613,-28.8748 328.384,-34.4527"/>
<text text-anchor="middle" x="298.1" y="-31.3322" font-family="Times New Roman,serif" font-size="14.00">UC....U</text>
</g>
</g>
</svg>
