<?xml version="1.0" encoding="UTF-8" standalone="no"?>
<!DOCTYPE svg PUBLIC "-//W3C//DTD SVG 1.1//EN"
 "http://www.w3.org/Graphics/SVG/1.1/DTD/svg11.dtd">
<!-- Generated by graphviz version 2.38.0 (20140413.2041)
 -->
<!-- Title: g Pages: 1 -->
<svg width="282pt" height="76pt"
 viewBox="0.00 0.00 282.00 76.31" xmlns="http://www.w3.org/2000/svg" xmlns:xlink="http://www.w3.org/1999/xlink">
<g id="graph0" class="graph" transform="scale(1 1) rotate(0) translate(4 72.3057)">
<title>g</title>
<polygon fill="white" stroke="none" points="-4,4 -4,-72.3057 278,-72.3057 278,4 -4,4"/>
<!-- 1 -->
<g id="node1" class="node"><title>1</title>
<ellipse fill="none" stroke="black" cx="18" cy="-20.3057" rx="18" ry="18"/>
<text text-anchor="middle" x="18" y="-16.6057" font-family="Times New Roman,serif" font-size="14.00">1</text>
</g>
<!-- 2 -->
<g id="node2" class="node"><title>2</title>
<ellipse fill="none" stroke="black" cx="97" cy="-50.3057" rx="18" ry="18"/>
<text text-anchor="middle" x="97" y="-46.6057" font-family="Times New Roman,serif" font-size="14.00">2</text>
</g>
<!-- 1&#45;&gt;2 -->
<g id="edge1" class="edge"><title>1&#45;&gt;2</title>
<path fill="none" stroke="black" d="M34.9544,-26.5217C45.2787,-30.5441 58.9428,-35.8678 70.7256,-40.4585"/>
<polygon fill="black" stroke="black" points="69.4776,-43.7285 80.066,-44.0976 72.0188,-37.206 69.4776,-43.7285"/>
<text text-anchor="middle" x="57.5" y="-39.1057" font-family="Times New Roman,serif" font-size="14.00">a</text>
</g>
<!-- 0 -->
<g id="node3" class="node"><title>0</title>
<ellipse fill="none" stroke="black" cx="176" cy="-20.3057" rx="18" ry="18"/>
<text text-anchor="middle" x="176" y="-16.6057" font-family="Times New Roman,serif" font-size="14.00">0</text>
</g>
<!-- 2&#45;&gt;0 -->
<g id="edge2" class="edge"><title>2&#45;&gt;0</title>
<path fill="none" stroke="black" d="M113.954,-44.0896C124.279,-40.0672 137.943,-34.7435 149.726,-30.1528"/>
<polygon fill="black" stroke="black" points="151.019,-33.4053 159.066,-26.5137 148.478,-26.8829 151.019,-33.4053"/>
<text text-anchor="middle" x="136.5" y="-39.1057" font-family="Times New Roman,serif" font-size="14.00">a</text>
</g>
<!-- 0&#45;&gt;1 -->
<g id="edge3" class="edge"><title>0&#45;&gt;1</title>
<path fill="none" stroke="black" d="M158.323,-16.0496C146.357,-13.2226 129.8,-9.77112 115,-8.30565 99.0779,-6.72905 94.9221,-6.72905 79,-8.30565 68.0158,-9.3933 56.0637,-11.5749 45.739,-13.7833"/>
<polygon fill="black" stroke="black" points="44.6639,-10.4377 35.6774,-16.0496 46.2021,-17.2666 44.6639,-10.4377"/>
<text text-anchor="middle" x="97" y="-12.1057" font-family="Times New Roman,serif" font-size="14.00">a</text>
</g>
<!-- 3 -->
<g id="node4" class="node"><title>3</title>
<ellipse fill="none" stroke="black" cx="256" cy="-20.3057" rx="18" ry="18"/>
<text text-anchor="middle" x="256" y="-16.6057" font-family="Times New Roman,serif" font-size="14.00">3</text>
</g>
<!-- 0&#45;&gt;3 -->
<g id="edge4" class="edge"><title>0&#45;&gt;3</title>
<path fill="none" stroke="black" d="M194.311,-20.3057C204.106,-20.3057 216.578,-20.3057 227.665,-20.3057"/>
<polygon fill="black" stroke="black" points="227.738,-23.8058 237.738,-20.3057 227.738,-16.8058 227.738,-23.8058"/>
<text text-anchor="middle" x="216" y="-24.1057" font-family="Times New Roman,serif" font-size="14.00">b</text>
</g>
<!-- 3&#45;&gt;0 -->
<g id="edge5" class="edge"><title>3&#45;&gt;0</title>
<path fill="none" stroke="black" d="M241.477,-9.13054C233.212,-3.63475 222.284,1.30565 212,-1.30565 208.042,-2.31069 204.047,-3.86331 200.244,-5.65736"/>
<polygon fill="black" stroke="black" points="198.475,-2.6341 191.311,-10.4399 201.779,-8.80522 198.475,-2.6341"/>
<text text-anchor="middle" x="216" y="-5.10565" font-family="Times New Roman,serif" font-size="14.00">b</text>
</g>
</g>
</svg>
