<svg width="152" height="139" viewBox="0 0 152 139" fill="none" xmlns="http://www.w3.org/2000/svg">
<path d="M24.7006 39.86L23.1106 40.7101L20.1106 35.05L17.9606 36.2C18.2906 36.8 18.5806 37.3701 18.8406 37.9001C19.0966 38.3696 19.3172 38.8576 19.5006 39.36C19.6696 39.7652 19.7937 40.1878 19.8706 40.6201C19.9355 40.9838 19.9355 41.3562 19.8706 41.72C19.8149 42.0428 19.6772 42.3459 19.4706 42.6C19.2382 42.8814 18.9484 43.1098 18.6206 43.2701C18.4231 43.3825 18.2155 43.4763 18.0006 43.55C17.8036 43.5995 17.603 43.633 17.4006 43.6501L17.0306 42.1C17.1306 42.1 17.2406 42.1 17.3406 42.04C17.4315 42.01 17.5188 41.9698 17.6006 41.92C17.7296 41.8605 17.8402 41.7672 17.9206 41.6501C18.0094 41.5288 18.052 41.3799 18.0406 41.23C18.0601 40.9944 18.0364 40.7572 17.9706 40.5301C17.8947 40.2258 17.7944 39.9281 17.6706 39.64C17.5306 39.31 17.3506 38.92 17.1206 38.47C16.8906 38.02 16.6306 37.53 16.3106 36.95L15.6006 35.63L20.9206 32.79L24.7006 39.86Z" fill="#15559C"/>
<path d="M28.0008 31.3797C27.7707 31.6068 27.5962 31.884 27.4908 32.1897C27.3871 32.4884 27.3396 32.8037 27.3508 33.1197C27.3782 33.4635 27.4592 33.8009 27.5908 34.1197C27.7139 34.4414 27.8971 34.7366 28.1308 34.9897C28.3417 35.2305 28.6005 35.4247 28.8908 35.5597C29.183 35.6919 29.5001 35.7601 29.8208 35.7597C30.1652 35.761 30.506 35.6895 30.8208 35.5497C31.153 35.4174 31.4556 35.2202 31.7108 34.9697C31.9335 34.7329 32.1069 34.4542 32.2208 34.1497C32.3319 33.8287 32.3761 33.4884 32.3508 33.1497C32.2953 32.4606 32.0181 31.8081 31.5608 31.2897C31.3464 31.0527 31.0883 30.8591 30.8008 30.7197C30.5135 30.5842 30.1982 30.5191 29.8808 30.5297C29.5367 30.5321 29.1967 30.6035 28.8808 30.7397C28.5476 30.8692 28.2471 31.0707 28.0008 31.3297M30.0008 28.8897C30.5386 28.8774 31.0731 28.9768 31.5705 29.1817C32.068 29.3865 32.5175 29.6923 32.8908 30.0797C33.2927 30.486 33.6089 30.9689 33.8208 31.4997C34.0304 32.0142 34.139 32.5642 34.1408 33.1197C34.1501 33.6507 34.0514 34.178 33.8508 34.6697C33.6432 35.1773 33.3334 35.6368 32.9408 36.0197C32.5178 36.4469 32.015 36.7867 31.4608 37.0197C30.9231 37.2497 30.3455 37.372 29.7608 37.3797C29.2229 37.3826 28.6896 37.2807 28.1908 37.0797C27.6905 36.8794 27.24 36.5722 26.8708 36.1797C26.4735 35.7773 26.1577 35.3019 25.9408 34.7797C25.7298 34.2618 25.6178 33.7089 25.6108 33.1497C25.603 32.6146 25.7051 32.0837 25.9108 31.5897C26.1267 31.0925 26.4356 30.6411 26.8208 30.2597C27.2373 29.834 27.7334 29.4942 28.2808 29.2597C28.8228 29.0202 29.4082 28.8943 30.0008 28.8897Z" fill="#15559C"/>
<path d="M41.3202 31.6698C41.6627 31.5803 41.9697 31.3884 42.2002 31.1198C42.2786 31.0056 42.3285 30.8743 42.3459 30.7369C42.3633 30.5995 42.3477 30.46 42.3002 30.3298C42.2696 30.1917 42.2038 30.0639 42.1092 29.9588C42.0146 29.8536 41.8944 29.7748 41.7602 29.7298C41.4379 29.6086 41.0825 29.6086 40.7602 29.7298L38.9502 30.2698L39.5302 32.1698L41.3202 31.6698ZM42.2002 26.3798L38.2002 27.6198L38.5702 28.8098L40.3302 28.2798C40.7382 28.1461 41.1617 28.0654 41.5902 28.0398C41.9588 28.0246 42.3265 28.0859 42.6702 28.2198C42.9974 28.3403 43.2918 28.5355 43.5302 28.7898C43.7845 29.0789 43.9723 29.4203 44.0802 29.7898C44.1958 30.1512 44.23 30.5337 44.1802 30.9098C44.1369 31.2708 44.0027 31.6148 43.7902 31.9098C43.5792 32.2222 43.3029 32.4849 42.9802 32.6798C42.6322 32.9208 42.2471 33.1032 41.8402 33.2198L38.3202 34.2698L35.9902 26.5898L41.7302 24.8398L42.2002 26.3798Z" fill="#15559C"/>
<path d="M51.9805 27.43L50.3205 24.65H50.2005L49.7605 27.8499L51.9805 27.43ZM55.7305 29.9L53.7305 30.2899L52.8105 28.86L49.4505 29.5399L49.1905 31.21L47.2705 31.5999L48.9005 23.08L50.8405 22.6899L55.7305 29.9Z" fill="#15559C"/>
<path d="M59.2207 24.0501C59.2339 24.4873 59.4085 24.904 59.7107 25.2201C59.881 25.3463 60.0753 25.4363 60.2817 25.4845C60.4881 25.5326 60.7022 25.538 60.9107 25.5001C61.2539 25.4689 61.5907 25.3881 61.9107 25.2601C62.1874 25.1406 62.4439 24.9786 62.6707 24.7801L62.2707 21.0501L64.0607 20.8701L64.9207 28.8701L63.1307 29.0601L62.8407 26.4001C62.2634 26.8449 61.5677 27.1092 60.8407 27.1601C60.4304 27.2312 60.011 27.2312 59.6007 27.1601C59.2368 27.0903 58.8943 26.9362 58.6007 26.7101C58.2966 26.4757 58.0502 26.1747 57.8807 25.8301C57.6847 25.4109 57.5629 24.9609 57.5207 24.5001L57.2207 21.6901L58.9907 21.5001L59.2207 24.0501Z" fill="#15559C"/>
<path d="M74.5698 22.1097L70.3398 22.1797L70.3698 23.6897L74.1398 23.6297L74.1698 25.1997L70.3898 25.2597L70.4298 26.9697L74.8498 26.8997L74.8798 28.5097L68.6898 28.6097L68.5498 20.5997L74.5498 20.4897L74.5698 22.1097Z" fill="#15559C"/>
<path d="M82.3799 23.9998C82.631 24.0278 82.8842 23.9715 83.0999 23.8398C83.1901 23.7695 83.2637 23.6802 83.3156 23.5782C83.3674 23.4763 83.3962 23.3642 83.3998 23.2498C83.3998 22.7098 83.1198 22.4298 82.3998 22.3698L80.6299 22.2498L80.5099 23.8698L82.3799 23.9998ZM82.3799 27.3398C83.1699 27.3998 83.5899 27.1198 83.6299 26.4898C83.6467 26.3593 83.6318 26.2267 83.5866 26.1031C83.5413 25.9795 83.467 25.8686 83.3698 25.7798C83.1184 25.5912 82.8141 25.4862 82.4998 25.4798L80.3998 25.3298L80.2699 27.1898L82.3799 27.3398ZM84.4998 21.5698C84.722 21.7812 84.8925 22.0409 84.9983 22.3287C85.1041 22.6166 85.1423 22.9249 85.1099 23.2298C85.0968 23.5415 85.0038 23.8445 84.8398 24.1098C84.7019 24.3524 84.4874 24.5424 84.2299 24.6498V24.7598C84.5958 24.9094 84.9042 25.1722 85.1099 25.5098C85.3251 25.8675 85.423 26.2837 85.3899 26.6998C85.3684 27.0169 85.2834 27.3263 85.1399 27.6098C85.0026 27.8929 84.8004 28.1396 84.5499 28.3298C84.253 28.5484 83.9116 28.6987 83.5499 28.7698C83.1127 28.8823 82.6589 28.9162 82.2099 28.8698L78.3398 28.5898L78.9099 20.5898L82.4499 20.8398C83.1789 20.8555 83.8822 21.1122 84.4499 21.5698" fill="#15559C"/>
<path d="M94.4794 24.0199C94.1155 23.8219 93.7194 23.6898 93.3094 23.6299C92.9556 23.5658 92.5932 23.5658 92.2394 23.6299C91.9223 23.6978 91.6226 23.8305 91.3593 24.0199C91.096 24.2092 90.8747 24.4509 90.7094 24.7299C90.5378 25.0405 90.4227 25.3791 90.3694 25.7299C90.3091 26.0773 90.3091 26.4325 90.3694 26.7799C90.4369 27.0941 90.5698 27.3905 90.7594 27.6499C90.9457 27.907 91.1843 28.1217 91.4594 28.2799C91.7658 28.4627 92.1059 28.5817 92.4594 28.6299C92.8819 28.709 93.3159 28.7038 93.7363 28.6146C94.1568 28.5253 94.5555 28.3538 94.9094 28.1099L95.6994 29.5199C94.6387 30.2281 93.3406 30.487 92.0894 30.2399C91.5156 30.152 90.963 29.9587 90.4594 29.6699C89.9916 29.4138 89.5881 29.0548 89.2794 28.6199C88.9621 28.1958 88.7403 27.7079 88.6294 27.1899C88.5233 26.6181 88.5233 26.0317 88.6294 25.4599C88.7205 24.9089 88.9138 24.3799 89.1994 23.8999C89.4791 23.4337 89.8539 23.0316 90.2994 22.7199C90.7502 22.3995 91.26 22.1718 91.7994 22.0499C92.4203 21.9293 93.0585 21.9293 93.6794 22.0499C94.2552 22.1311 94.8111 22.3175 95.3194 22.5999C95.7943 22.8487 96.2156 23.1885 96.5594 23.5999L95.3194 24.7399C95.0805 24.448 94.7888 24.2037 94.4594 24.0199" fill="#15559C"/>
<path d="M101.43 26.9098L102.3 27.0398L105.23 24.7498L107.38 25.3098L103.55 28.1798L105.62 33.1498L103.4 32.5498L101.9 28.6298L101.04 28.3998L100.18 31.7198L98.46 31.2698L100.48 23.5098L102.2 23.9598L101.43 26.9098Z" fill="#15559C"/>
<path d="M112.591 28.76C112.269 28.7825 111.956 28.871 111.671 29.02C111.393 29.175 111.143 29.3743 110.931 29.61C110.724 29.8846 110.559 30.1878 110.441 30.51C110.319 30.8294 110.258 31.1684 110.261 31.51C110.248 31.8298 110.309 32.1482 110.441 32.44C110.562 32.7364 110.746 33.0026 110.981 33.22C111.244 33.4526 111.55 33.6325 111.881 33.7501C112.218 33.881 112.579 33.9389 112.941 33.92C113.263 33.9025 113.577 33.8137 113.861 33.66C114.145 33.5111 114.394 33.3031 114.591 33.05C114.808 32.79 114.974 32.4915 115.081 32.17C115.204 31.8509 115.268 31.5121 115.271 31.17C115.273 30.8479 115.212 30.5286 115.091 30.23C114.961 29.9391 114.774 29.6773 114.541 29.4601C113.991 28.9754 113.272 28.7275 112.541 28.77M115.651 28.3101C116.07 28.6622 116.41 29.0983 116.651 29.5901C116.875 30.0771 117.001 30.604 117.021 31.14C117.038 31.7056 116.946 32.2692 116.751 32.8C116.567 33.3265 116.278 33.8097 115.901 34.22C115.543 34.6222 115.109 34.9482 114.622 35.1785C114.136 35.4087 113.608 35.5385 113.071 35.5601C112.474 35.5932 111.877 35.4977 111.321 35.2801C110.767 35.0902 110.257 34.7909 109.821 34.4001C109.399 34.05 109.058 33.6135 108.821 33.1201C108.579 32.6386 108.449 32.1087 108.441 31.57C108.419 31.0051 108.507 30.4413 108.701 29.91C108.892 29.3846 109.181 28.8996 109.551 28.48C109.906 28.0818 110.338 27.7588 110.821 27.5301C111.321 27.3112 111.856 27.1826 112.401 27.1501C112.986 27.1285 113.57 27.2202 114.121 27.42C114.676 27.6244 115.191 27.9258 115.641 28.3101" fill="#15559C"/>
<path d="M126.461 34.6198L122.601 32.8098L119.881 38.5898L118.271 37.8198L121.661 30.5698L127.151 33.1498L126.461 34.6198Z" fill="#15559C"/>
<path d="M131.56 37.4098C131.244 37.3733 130.924 37.404 130.62 37.4998C130.313 37.591 130.03 37.7479 129.79 37.9598C129.529 38.1824 129.306 38.4458 129.13 38.7398C128.96 39.052 128.842 39.3897 128.78 39.7398C128.71 40.0694 128.71 40.4102 128.78 40.7398C128.857 41.0678 129.005 41.3751 129.212 41.6409C129.419 41.9067 129.681 42.1247 129.98 42.2798C130.283 42.4724 130.624 42.5954 130.98 42.6398C131.297 42.6731 131.617 42.639 131.92 42.5398C132.224 42.4465 132.506 42.2935 132.75 42.0898C133.001 41.8588 133.216 41.5927 133.39 41.2998C133.57 40.9901 133.695 40.6519 133.76 40.2998C133.825 39.9865 133.825 39.6631 133.76 39.3498C133.689 39.038 133.553 38.7448 133.36 38.4898C133.141 38.2097 132.869 37.9753 132.56 37.7998C132.256 37.6145 131.914 37.4985 131.56 37.4598M134.71 37.5698C135.049 37.9934 135.295 38.4842 135.43 39.0098C135.562 39.5259 135.589 40.0631 135.51 40.5898C135.432 41.149 135.242 41.6865 134.95 42.1698C134.673 42.6515 134.306 43.0758 133.87 43.4198C133.448 43.751 132.961 43.9895 132.44 44.1198C131.917 44.2672 131.369 44.3046 130.83 44.2298C130.243 44.1409 129.676 43.9442 129.16 43.6498C128.657 43.3491 128.211 42.9633 127.84 42.5098C127.515 42.0786 127.274 41.5901 127.13 41.0698C126.992 40.5551 126.958 40.0179 127.03 39.4898C127.115 38.9294 127.305 38.39 127.59 37.8998C127.857 37.4162 128.217 36.9903 128.649 36.647C129.082 36.3037 129.579 36.0497 130.11 35.8998C130.636 35.7643 131.183 35.7337 131.72 35.8098C132.304 35.883 132.866 36.0771 133.37 36.3798C133.883 36.6779 134.338 37.0677 134.71 37.5298" fill="#15559C"/>
<path d="M7.85001 22.5596L7.99001 22.4896L7.29001 16.4896L9.73001 15.1196L10.42 25.3596C10.4754 26.0372 10.3867 26.7188 10.16 27.3596C9.93179 27.8994 9.52122 28.3418 9 28.6096C8.38775 28.9691 7.70596 29.1941 7 29.2696L6.46001 27.1296C6.62996 27.1156 6.79773 27.0821 6.96001 27.0296C7.11907 26.977 7.27304 26.9101 7.42001 26.8296C7.63024 26.7484 7.80685 26.5985 7.9212 26.4043C8.03556 26.21 8.08094 25.9829 8.05 25.7596L8 25.3996L0 20.4996L2.66 19.0096L7.85001 22.5596Z" fill="#15559C"/>
<path d="M18.1396 16.0196L22.6696 14.1096L20.9496 10.0696L23.2796 9.07959L27.6696 19.4196L25.3396 20.4096L23.5696 16.2596L19.0596 18.1696L20.8096 22.3296L18.4796 23.3096L14.0996 12.9596L16.4296 11.9796L18.1396 16.0196Z" fill="#15559C"/>
<path d="M33.51 13.5197L36.63 4.81971L38.75 4.19971L41.89 14.9897L39.5 15.6797L37.52 8.90971L34.54 17.1297L32.18 17.8097L29.04 7.03971L31.41 6.34971L33.51 13.5197Z" fill="#15559C"/>
<path d="M51.6107 10.8596C52.7007 10.6696 53.1707 10.1296 53.0207 9.25963C52.997 9.07864 52.9313 8.9057 52.8289 8.75464C52.7264 8.60357 52.5901 8.47858 52.4307 8.38963C52.0266 8.21653 51.5767 8.18138 51.1507 8.28963L48.2407 8.77963L48.6807 11.3596L51.6107 10.8596ZM50.4207 6.32964C50.7675 6.28656 51.0871 6.11965 51.3207 5.85963C51.4201 5.7345 51.4905 5.58886 51.5268 5.43323C51.5631 5.27759 51.5644 5.11585 51.5307 4.95964C51.4107 4.21964 50.8707 3.95964 49.9207 4.09964L47.4807 4.50963L47.8707 6.76964L50.4207 6.32964ZM52.5507 2.32964C52.921 2.53197 53.2387 2.81829 53.4784 3.16562C53.7181 3.51295 53.8729 3.91162 53.9307 4.32964C54.0145 4.7588 53.9905 5.20206 53.8607 5.61963C53.7488 5.98861 53.5294 6.31587 53.2307 6.55963V6.71964C53.7838 6.79077 54.2975 7.0441 54.6907 7.43964C55.0991 7.84864 55.3655 8.37792 55.4507 8.94963C55.5359 9.38551 55.5359 9.83376 55.4507 10.2696C55.3662 10.7038 55.1736 11.1096 54.8907 11.4496C54.5664 11.833 54.1729 12.1519 53.7307 12.3896C53.169 12.6778 52.5646 12.8736 51.9407 12.9696L46.5907 13.8896L44.6807 2.85963L49.5707 2.01964C50.5763 1.77062 51.6372 1.88025 52.5707 2.32964" fill="#15559C"/>
<path d="M67.9897 2.35961L62.0997 2.74961L62.2297 4.84961L67.4997 4.50961L67.6497 6.69961L62.3797 7.04961L62.5397 9.43961L68.7297 9.02961L68.8697 11.2896L60.2097 11.8596L59.4697 0.649609L67.8497 0.0996094L67.9897 2.35961Z" fill="#15559C"/>
<path d="M77.9307 6.09C78.499 6.15138 79.0697 5.998 79.5307 5.66C79.7275 5.49873 79.8862 5.29577 79.9951 5.06578C80.1041 4.83579 80.1606 4.58449 80.1607 4.33C80.1844 4.08601 80.1566 3.83975 80.0791 3.60719C80.0016 3.37463 79.8761 3.16095 79.7107 2.98C79.3012 2.60103 78.7583 2.39968 78.2007 2.42L75.8207 2.31L75.6607 6L77.9307 6.09ZM80.2107 0.550003C80.7211 0.749754 81.1868 1.04888 81.5807 1.43001C81.9675 1.79205 82.2623 2.24114 82.4407 2.74001C82.6347 3.2777 82.7164 3.84948 82.6807 4.42C82.6789 4.99874 82.5457 5.56951 82.291 6.08922C82.0364 6.60892 81.667 7.06397 81.2107 7.42C80.758 7.75874 80.2458 8.00974 79.7007 8.16C79.0942 8.31961 78.4672 8.38702 77.8407 8.36L75.5707 8.25999L75.4307 11.32L72.9307 11.22L73.4007 0L78.4007 0.210007C79.024 0.228302 79.6396 0.353447 80.2207 0.580002" fill="#15559C"/>
<path d="M94.1109 4.01022C93.5959 3.75531 93.0414 3.58963 92.4709 3.52023C91.9727 3.43538 91.4624 3.45239 90.9709 3.57024C90.5267 3.67548 90.1084 3.86935 89.7409 4.14023C89.3923 4.41479 89.1002 4.7544 88.8809 5.14023C88.6396 5.56452 88.4898 6.03459 88.4409 6.52023C88.3611 7.01212 88.3781 7.51485 88.4909 8.00023C88.595 8.43787 88.7905 8.84854 89.0645 9.20529C89.3385 9.56204 89.6849 9.85682 90.0809 10.0702C90.5126 10.3028 90.9841 10.452 91.4709 10.5102C92.0738 10.5997 92.6883 10.5725 93.2809 10.4302C93.8566 10.293 94.4 10.0451 94.8809 9.70023L96.0509 11.6302C94.5984 12.6517 92.8038 13.0645 91.0509 12.7802C90.2418 12.6645 89.4577 12.4143 88.7309 12.0402C88.0741 11.6909 87.4956 11.2111 87.0309 10.6302C86.5854 10.0327 86.2626 9.35303 86.0809 8.63023C85.8901 7.83442 85.8561 7.00903 85.9809 6.20023C86.0776 5.4275 86.322 4.68059 86.7009 4.00023C87.0807 3.34672 87.5832 2.77284 88.1809 2.31023C88.8041 1.83511 89.5192 1.49458 90.2809 1.31023C91.1383 1.10029 92.0289 1.0629 92.9009 1.20023C93.7084 1.30619 94.4925 1.54616 95.2209 1.91023C95.8929 2.26249 96.4906 2.74127 96.9809 3.32024L95.3209 4.99024C94.9804 4.57951 94.5625 4.23973 94.0909 3.99024" fill="#15559C"/>
<path d="M102.8 10.9096L109.89 4.98957L112.03 5.52957L109.3 16.4096L106.87 15.8096L108.6 8.96957L101.88 14.5496L99.4805 13.9496L102.22 3.05957L104.63 3.65957L102.8 10.9096Z" fill="#15559C"/>
<path d="M125.49 12.6697L121.89 11.3297L118.76 19.7197L116.43 18.8497L119.54 10.4597L115.94 9.12975L116.74 6.98975L126.27 10.5297L125.49 12.6697Z" fill="#15559C"/>
<path d="M137.28 18.2298L131.96 15.6198L131.04 17.5198L135.78 19.8398L134.81 21.8198L130.07 19.4898L129.01 21.6398L134.57 24.3798L133.58 26.4098L125.79 22.5798L130.74 12.5098L138.27 16.2098L137.28 18.2298Z" fill="#15559C"/>
<path d="M149.9 25.8197L146.65 23.7897L141.9 31.3697L139.78 30.0497L144.52 22.4597L141.26 20.4297L142.47 18.4897L151.11 23.8797L149.9 25.8197Z" fill="#15559C"/>
<path d="M119.8 53.9696C112.814 50.4983 105.424 47.9085 97.7996 46.2596C97.7233 46.2455 97.645 46.247 97.5693 46.2642C97.4936 46.2814 97.4223 46.3139 97.3596 46.3596C97.2984 46.4092 97.2488 46.4716 97.2142 46.5425C97.1797 46.6133 97.161 46.6908 97.1596 46.7696V93.8996C97.1596 95.6978 96.4453 97.4223 95.1738 98.6938C93.9023 99.9653 92.1778 100.68 90.3796 100.68C88.5814 100.68 86.8569 99.9653 85.5854 98.6938C84.3139 97.4223 83.5996 95.6978 83.5996 93.8996V44.7796C83.6023 44.646 83.5525 44.5167 83.4609 44.4195C83.3692 44.3222 83.2431 44.2648 83.1096 44.2596C81.1096 44.1396 79.1696 44.0796 77.2796 44.0796C71.8378 44.0787 66.4055 44.5337 61.0396 45.4396C60.9194 45.4583 60.8095 45.5186 60.7291 45.6099C60.6487 45.7013 60.6028 45.8179 60.5996 45.9396V91.8096C60.5996 107.62 73.9396 120.5 90.3296 120.5C106.72 120.5 120.04 107.62 120.04 91.8096V54.4296C120.041 54.3356 120.015 54.2433 119.966 54.1635C119.916 54.0837 119.845 54.0199 119.76 53.9796" fill="#15559C"/>
<path d="M117.68 110.1C117.575 109.998 117.448 109.923 117.309 109.88C117.169 109.837 117.022 109.828 116.878 109.853C116.735 109.879 116.599 109.938 116.483 110.026C116.367 110.114 116.273 110.228 116.21 110.36C111.08 119.75 99.9097 125.05 88.7297 124.63C64.2397 123.7 55.7297 106.63 55.7297 90.9598V47.1898C55.7306 47.1134 55.7128 47.038 55.678 46.97C55.6431 46.9021 55.5922 46.8436 55.5297 46.7998C55.4661 46.7521 55.3931 46.7186 55.3155 46.7013C55.2379 46.6841 55.1576 46.6836 55.0797 46.6998C47.3552 48.3905 39.8616 51.0025 32.7597 54.4798C32.6745 54.5179 32.6019 54.5795 32.5506 54.6575C32.4992 54.7354 32.4711 54.8264 32.4697 54.9198V93.2598C34.4697 129.74 73.8097 138.26 75.1997 138.26C76.3997 138.26 105.82 134.83 116.45 114.05C116.512 113.912 116.582 113.779 116.66 113.65L116.94 113.03C117.12 112.683 117.29 112.333 117.45 111.98L117.36 112.09C117.62 111.46 117.75 111.09 117.76 111.09C117.831 110.928 117.859 110.751 117.84 110.575C117.82 110.399 117.755 110.232 117.65 110.09" fill="#15559C"/>
</svg>