<?xml version="1.0" encoding="UTF-8" standalone="no"?>
<!-- Generated by graphviz version 2.38.0 (20140413.2041)
 -->

<!-- Title: AST Pages: 1 -->

<svg
   xmlns:dc="http://purl.org/dc/elements/1.1/"
   xmlns:cc="http://creativecommons.org/ns#"
   xmlns:rdf="http://www.w3.org/1999/02/22-rdf-syntax-ns#"
   xmlns:svg="http://www.w3.org/2000/svg"
   xmlns="http://www.w3.org/2000/svg"
   xmlns:sodipodi="http://sodipodi.sourceforge.net/DTD/sodipodi-0.dtd"
   xmlns:inkscape="http://www.inkscape.org/namespaces/inkscape"
   width="521pt"
   height="516pt"
   viewBox="0.00 0.00 520.50 515.60"
   id="svg2"
   version="1.1"
   inkscape:version="0.48.5 r10040"
   sodipodi:docname="AnBn_2.svg">
  <metadata
     id="metadata331">
    <rdf:RDF>
      <cc:Work
         rdf:about="">
        <dc:format>image/svg+xml</dc:format>
        <dc:type
           rdf:resource="http://purl.org/dc/dcmitype/StillImage" />
        <dc:title />
      </cc:Work>
    </rdf:RDF>
  </metadata>
  <defs
     id="defs329" />
  <sodipodi:namedview
     pagecolor="#ffffff"
     bordercolor="#666666"
     borderopacity="1"
     objecttolerance="10"
     gridtolerance="10"
     guidetolerance="10"
     inkscape:pageopacity="0"
     inkscape:pageshadow="2"
     inkscape:window-width="1920"
     inkscape:window-height="1177"
     id="namedview327"
     showgrid="false"
     inkscape:zoom="1.4635659"
     inkscape:cx="509.27395"
     inkscape:cy="462.08728"
     inkscape:window-x="-8"
     inkscape:window-y="-8"
     inkscape:window-maximized="1"
     inkscape:current-layer="graph0" />
  <g
     id="graph0"
     class="graph"
     transform="scale(1 1) rotate(0) translate(4 511.6)">
    <title
       id="title5">AST</title>
    <polygon
       points="516.5,-511.6 516.5,4 -4,4 -4,4 -4,-511.6 "
       id="polygon7"
       transform="matrix(0.53891149,0,0,0.64863745,96.909149,-180.89551)"
       style="fill:#ffffff;stroke:none" />
    <!-- 9 -->
    <g
       id="node1"
       class="node">
      <title
         id="title10">9</title>
      <ellipse
         fill="none"
         stroke="black"
         cx="297.5"
         cy="-489.6"
         rx="36.2938"
         ry="18"
         id="ellipse12"
         d="m 333.7938,-489.60001 c 0,9.94113 -16.24929,18 -36.2938,18 -20.04451,0 -36.2938,-8.05887 -36.2938,-18 0,-9.94112 16.24929,-18 36.2938,-18 20.04451,0 36.2938,8.05888 36.2938,18 z" />
      <text
         x="297.5"
         y="-485.89999"
         font-size="14.00"
         id="text14"
         style="font-size:14px;text-anchor:middle">(0, S, 3)</text>
    </g>
    <!-- 19 -->
    <g
       id="node2"
       class="node">
      <title
         id="title17">19</title>
      <polygon
         fill="none"
         stroke="black"
         points="201.5,-435.6 141.5,-435.6 141.5,-399.6 201.5,-399.6 201.5,-435.6"
         id="polygon19" />
      <text
         x="171.5"
         y="-413.89999"
         font-size="14.00"
         id="text21"
         style="font-size:14px;text-anchor:middle">(0, a, 1)</text>
    </g>
    <!-- 9&#45;&gt;19 -->
    <g
       id="edge1"
       class="edge">
      <title
         id="title24">9-&gt;19</title>
      <path
         fill="none"
         stroke="black"
         d="M274.096,-475.598C256.365,-465.747 231.598,-451.988 210.841,-440.456"
         id="path26" />
      <polygon
         fill="black"
         stroke="black"
         points="212.366,-437.299 201.925,-435.503 208.966,-443.419 212.366,-437.299"
         id="polygon28" />
    </g>
    <!-- 20 -->
    <g
       id="node3"
       class="node">
      <title
         id="title31">20</title>
      <ellipse
         fill="none"
         stroke="black"
         cx="255.5"
         cy="-417.6"
         rx="36.2938"
         ry="18"
         id="ellipse33"
         d="m 291.7938,-417.60001 c 0,9.94113 -16.24929,18 -36.2938,18 -20.04451,0 -36.2938,-8.05887 -36.2938,-18 0,-9.94112 16.24929,-18 36.2938,-18 20.04451,0 36.2938,8.05888 36.2938,18 z" />
      <text
         x="255.5"
         y="-413.89999"
         font-size="14.00"
         id="text35"
         style="font-size:14px;text-anchor:middle">(1, S, 0)</text>
    </g>
    <!-- 9&#45;&gt;20 -->
    <g
       id="edge2"
       class="edge">
      <title
         id="title38">9-&gt;20</title>
      <path
         fill="none"
         stroke="black"
         d="M287.547,-472.011C282.473,-463.555 276.197,-453.094 270.547,-443.678"
         id="path40" />
      <polygon
         fill="black"
         stroke="black"
         points="273.528,-441.844 265.382,-435.07 267.526,-445.446 273.528,-441.844"
         id="polygon42" />
    </g>
    <!-- 14 -->
    <g
       id="node4"
       class="node">
      <title
         id="title45">14</title>
      <polygon
         fill="none"
         stroke="black"
         points="369,-435.6 310,-435.6 310,-399.6 369,-399.6 369,-435.6"
         id="polygon47" />
      <text
         x="339.5"
         y="-413.89999"
         font-size="14.00"
         id="text49"
         style="font-size:14px;text-anchor:middle">(0, b, 3)</text>
    </g>
    <!-- 9&#45;&gt;14 -->
    <g
       id="edge3"
       class="edge">
      <title
         id="title52">9-&gt;14</title>
      <path
         fill="none"
         stroke="black"
         d="M307.453,-472.011C312.329,-463.885 318.316,-453.907 323.789,-444.784"
         id="path54" />
      <polygon
         fill="black"
         stroke="black"
         points="326.888,-446.422 329.032,-436.047 320.886,-442.821 326.888,-446.422"
         id="polygon56" />
    </g>
    <!-- 163 -->
    <g
       id="node13"
       class="node"
       transform="translate(191.85118,0)">
      <title
         id="title59">163</title>
      <polygon
         points="100,-363.6 100,-327.6 159,-327.6 159,-363.6 159,-363.6 "
         id="polygon61"
         style="fill:none;stroke:#000000" />
      <text
         x="129.5"
         y="-341.89999"
         font-size="14.00"
         id="text63"
         style="font-size:14px;text-anchor:middle">(3, b, 0)</text>
    </g>
    <!-- 20&#45;&gt;163 -->
    <g
       id="edge9"
       class="edge">
      <title
         id="title66">20-&gt;163</title>
      <path
         fill="none"
         stroke="black"
         d="M232.096,-403.598C214.241,-393.678 189.252,-379.795 168.406,-368.214"
         id="path68" />
      <polygon
         fill="black"
         stroke="black"
         points="169.901,-365.041 159.46,-363.244 166.502,-371.161 169.901,-365.041"
         id="polygon70" />
    </g>
    <!-- 281 -->
    <g
       id="node14"
       class="node"
       transform="translate(-78.339209,0)">
      <title
         id="title73">281</title>
      <polygon
         points="177.5,-327.6 237.5,-327.6 237.5,-363.6 237.5,-363.6 177.5,-363.6 "
         id="polygon75"
         style="fill:none;stroke:#000000" />
      <text
         x="207.5"
         y="-341.89999"
         font-size="14.00"
         id="text77"
         style="font-size:14px;text-anchor:middle">(1, a, 2)</text>
    </g>
    <!-- 20&#45;&gt;281 -->
    <g
       id="edge7"
       class="edge">
      <title
         id="title80">20-&gt;281</title>
      <path
         fill="none"
         stroke="black"
         d="M244.367,-400.365C238.6,-391.954 231.425,-381.49 224.942,-372.036"
         id="path82" />
      <polygon
         fill="black"
         stroke="black"
         points="227.784,-369.992 219.242,-363.724 222.011,-373.951 227.784,-369.992"
         id="polygon84" />
    </g>
    <!-- 29 -->
    <g
       id="node15"
       class="node"
       transform="translate(-87.931782,0)">
      <title
         id="title87">29</title>
      <ellipse
         cx="309.5"
         cy="-345.60001"
         rx="53.890499"
         ry="18"
         id="ellipse89"
         sodipodi:cx="309.5"
         sodipodi:cy="-345.60001"
         sodipodi:rx="53.890499"
         sodipodi:ry="18"
         style="fill:#ff0000;stroke:#000000"
         d="m 363.3905,-345.60001 c 0,9.94113 -24.1276,18 -53.8905,18 -29.7629,0 -53.8905,-8.05887 -53.8905,-18 0,-9.94112 24.1276,-18 53.8905,-18 29.7629,0 53.8905,8.05888 53.8905,18 z" />
      <text
         x="309.5"
         y="-341.89999"
         font-size="14.00"
         id="text91"
         style="font-size:14px;text-anchor:middle">&lt;|&gt;  (2, S, 3)</text>
    </g>
    <!-- 20&#45;&gt;29 -->
    <g
       id="edge8"
       class="edge">
      <title
         id="title94">20-&gt;29</title>
      <path
         fill="none"
         stroke="black"
         d="M268.024,-400.365C274.675,-391.743 282.99,-380.965 290.425,-371.327"
         id="path96" />
      <polygon
         fill="black"
         stroke="black"
         points="293.332,-373.289 296.669,-363.233 287.789,-369.013 293.332,-373.289"
         id="polygon98" />
    </g>
    <!-- 10 -->
    <!-- 16 -->
    <!-- 10&#45;&gt;16 -->
    <!-- 192 -->
    <!-- 10&#45;&gt;192 -->
    <!-- 21 -->
    <g
       id="node11"
       class="node"
       transform="translate(-94.326822,0)">
      <title
         id="title136">21</title>
    </g>
    <!-- 10&#45;&gt;21 -->
    <!-- 142 -->
    <!-- 143 -->
    <!-- 144 -->
    <g
       id="node9"
       class="node"
       transform="translate(263.79538,-38.370238)">
      <title
         id="title164">144</title>
      <polygon
         points="59,-180 0,-180 0,-144 59,-144 59,-180 "
         id="polygon166"
         style="fill:none;stroke:#000000" />
      <text
         x="29.5"
         y="-158.3"
         font-size="14.00"
         id="text168"
         style="font-size:14px;text-anchor:middle">(0, b, 3)</text>
    </g>
    <!-- 21&#45;&gt;142 -->
    <!-- 282 -->
    <!-- 21&#45;&gt;282 -->
    <!-- 30 -->
    <!-- 21&#45;&gt;30 -->
    <!-- 162 -->
    <!-- 31 -->
    <!-- 29&#45;&gt;31 -->
    <!-- 32 -->
    <!-- 29&#45;&gt;32 -->
    <!-- 30&#45;&gt;9 -->
    <!-- 30&#45;&gt;162 -->
    <!-- 402 -->
    <!-- 30&#45;&gt;402 -->
    <!-- 34 -->
    <g
       id="node20"
       class="node"
       transform="translate(115.11069,-38.370238)">
      <title
         id="title265">34</title>
      <ellipse
         cx="106.5"
         cy="-234"
         rx="59.590099"
         ry="18"
         id="ellipse267"
         sodipodi:cx="106.5"
         sodipodi:cy="-234"
         sodipodi:rx="59.590099"
         sodipodi:ry="18"
         style="fill:none;stroke:#000000"
         d="m 166.0901,-234 c 0,9.94113 -26.6794,18 -59.5901,18 -32.910703,0 -59.590099,-8.05887 -59.590099,-18 0,-9.94113 26.679396,-18 59.590099,-18 32.9107,0 59.5901,8.05887 59.5901,18 z" />
      <text
         x="106.5"
         y="-230.3"
         font-size="14.00"
         id="text269"
         style="font-size:14px;text-anchor:middle">(2, Middle, 3)</text>
    </g>
    <!-- 31&#45;&gt;34 -->
    <!-- 32&#45;&gt;10 -->
    <!-- 32&#45;&gt;143 -->
    <!-- 401 -->
    <!-- 32&#45;&gt;401 -->
    <!-- 34&#45;&gt;144 -->
    <g
       id="edge21"
       class="edge"
       transform="matrix(-1,0,0,1,320.8348,-38.370238)">
      <title
         id="title307">34-&gt;144</title>
      <path
         d="m 88.6411,-216.765 c -9.7239,8.84 -21.942,19.948 -32.7447,29.768"
         id="path309"
         inkscape:connector-curvature="0"
         style="fill:none;stroke:#000000" />
      <polygon
         points="58.0901,-184.261 48.3363,-180.124 53.3814,-189.44 58.0901,-184.261 "
         id="polygon311"
         style="fill:#000000;stroke:#000000" />
    </g>
    <!-- 403 -->
    <g
       id="node22"
       class="node"
       transform="translate(113.51194,-38.370238)">
      <title
         id="title314">403</title>
      <polygon
         points="77.5,-180 77.5,-144 137.5,-144 137.5,-180 137.5,-180 "
         id="polygon316"
         style="fill:none;stroke:#000000" />
      <text
         x="107.5"
         y="-158.3"
         font-size="14.00"
         id="text318"
         style="font-size:14px;text-anchor:middle">(2, a, 0)</text>
    </g>
    <!-- 34&#45;&gt;403 -->
    <g
       id="edge20"
       class="edge"
       transform="translate(113.51193,-38.370238)">
      <title
         id="title321">34-&gt;403</title>
      <path
         d="m 106.747,-215.697 c 0.11,7.714 0.243,16.985 0.366,25.585"
         id="path323"
         inkscape:connector-curvature="0"
         style="fill:none;stroke:#000000" />
      <polygon
         points="110.612,-190.153 110.612,-190.153 107.256,-180.104 103.613,-190.053 "
         id="polygon325"
         style="fill:#000000;stroke:#000000" />
    </g>
    <g
       id="edge20-1"
       class="edge"
       transform="translate(113.16541,-111.19728)">
      <title
         id="title321-7">34-&gt;403</title>
      <path
         d="m 106.747,-215.697 c 0.11,7.714 0.243,16.985 0.366,25.585"
         id="path323-4"
         inkscape:connector-curvature="0"
         style="fill:none;stroke:#000000" />
      <polygon
         points="103.613,-190.053 110.612,-190.153 110.612,-190.153 107.256,-180.104 "
         id="polygon325-0"
         style="fill:#000000;stroke:#000000" />
    </g>
  </g>
</svg>
