<?xml version="1.0" encoding="UTF-8" standalone="no"?>
<svg
   xmlns:osb="http://www.openswatchbook.org/uri/2009/osb"
   xmlns:dc="http://purl.org/dc/elements/1.1/"
   xmlns:cc="http://creativecommons.org/ns#"
   xmlns:rdf="http://www.w3.org/1999/02/22-rdf-syntax-ns#"
   xmlns:svg="http://www.w3.org/2000/svg"
   xmlns="http://www.w3.org/2000/svg"
   xmlns:xlink="http://www.w3.org/1999/xlink"
   xmlns:sodipodi="http://sodipodi.sourceforge.net/DTD/sodipodi-0.dtd"
   xmlns:inkscape="http://www.inkscape.org/namespaces/inkscape"
   color-interpolation="auto"
   stroke="#000"
   stroke-linecap="square"
   width="649"
   stroke-miterlimit="10"
   height="620"
   font-family="'Dialog'"
   font-size="12"
   id="svg2"
   version="1.1"
   inkscape:version="0.92.5 (2060ec1f9f, 2020-04-08)"
   sodipodi:docname="hierarchical_mltpl_src.svg">
  <metadata
     id="metadata287">
    <rdf:RDF>
      <cc:Work
         rdf:about="">
        <dc:format>image/svg+xml</dc:format>
        <dc:type
           rdf:resource="http://purl.org/dc/dcmitype/StillImage" />
        <dc:title />
      </cc:Work>
    </rdf:RDF>
  </metadata>
  <sodipodi:namedview
     pagecolor="#ffffff"
     bordercolor="#666666"
     borderopacity="1"
     objecttolerance="10"
     gridtolerance="10"
     guidetolerance="10"
     inkscape:pageopacity="0"
     inkscape:pageshadow="2"
     inkscape:window-width="1920"
     inkscape:window-height="1136"
     id="namedview285"
     showgrid="false"
     inkscape:zoom="1.5225806"
     inkscape:cx="284.15364"
     inkscape:cy="295.23598"
     inkscape:window-x="0"
     inkscape:window-y="27"
     inkscape:window-maximized="1"
     inkscape:current-layer="svg2" />
  <defs
     id="defs4">
    <marker
       inkscape:stockid="Arrow1Lend"
       orient="auto"
       refY="0.0"
       refX="0.0"
       id="marker1672"
       style="overflow:visible;"
       inkscape:isstock="true">
      <path
         id="path1670"
         d="M 0.0,0.0 L 5.0,-5.0 L -12.5,0.0 L 5.0,5.0 L 0.0,0.0 z "
         style="fill-rule:evenodd;stroke:#f31d26;stroke-width:1pt;stroke-opacity:1;fill:#f31d26;fill-opacity:1"
         transform="scale(0.8) rotate(180) translate(12.5,0)" />
    </marker>
    <marker
       inkscape:isstock="true"
       style="overflow:visible;"
       id="marker1480"
       refX="0.0"
       refY="0.0"
       orient="auto"
       inkscape:stockid="Arrow1Lend"
       inkscape:collect="always">
      <path
         transform="scale(0.8) rotate(180) translate(12.5,0)"
         style="fill-rule:evenodd;stroke:#f31d26;stroke-width:1pt;stroke-opacity:1;fill:#f31d26;fill-opacity:1"
         d="M 0.0,0.0 L 5.0,-5.0 L -12.5,0.0 L 5.0,5.0 L 0.0,0.0 z "
         id="path1478" />
    </marker>
    <marker
       inkscape:stockid="Arrow1Lend"
       orient="auto"
       refY="0.0"
       refX="0.0"
       id="Arrow1Lend"
       style="overflow:visible;"
       inkscape:isstock="true"
       inkscape:collect="always">
      <path
         id="path1009"
         d="M 0.0,0.0 L 5.0,-5.0 L -12.5,0.0 L 5.0,5.0 L 0.0,0.0 z "
         style="fill-rule:evenodd;stroke:#f42316;stroke-width:1pt;stroke-opacity:1;fill:#f42316;fill-opacity:1"
         transform="scale(0.8) rotate(180) translate(12.5,0)" />
    </marker>
    <linearGradient
       id="linearGradient5746">
      <stop
         style="stop-color:#ff0000;stop-opacity:1;"
         offset="0"
         id="stop5756" />
      <stop
         style="stop-color:#000000;stop-opacity:0;"
         offset="1"
         id="stop5750" />
    </linearGradient>
    <linearGradient
       id="linearGradient5548"
       osb:paint="solid">
      <stop
         style="stop-color:#00ff00;stop-opacity:1;"
         offset="0"
         id="stop5550" />
    </linearGradient>
    <linearGradient
       id="linearGradient4060">
      <stop
         style="stop-color:#00ff00;stop-opacity:0.84821427;"
         offset="0"
         id="stop4062" />
      <stop
         style="stop-color:#000000;stop-opacity:0;"
         offset="1"
         id="stop4064" />
    </linearGradient>
    <clipPath
       id="a">
      <path
         d="M-15-15h649v620H-15V-15z"
         id="path7" />
    </clipPath>
    <clipPath
       id="a-1">
      <path
         inkscape:connector-curvature="0"
         d="M -15,-15 H 634 V 605 H -15 V -15 z"
         id="path7-7" />
    </clipPath>
    <clipPath
       id="a-16">
      <path
         inkscape:connector-curvature="0"
         d="M -15,-15 H 634 V 605 H -15 V -15 z"
         id="path7-8" />
    </clipPath>
    <linearGradient
       inkscape:collect="always"
       xlink:href="#linearGradient5746-0"
       id="linearGradient5766-6"
       x1="191.164"
       y1="118.1275"
       x2="266.05899"
       y2="118.1275"
       gradientUnits="userSpaceOnUse" />
    <linearGradient
       id="linearGradient5746-0">
      <stop
         style="stop-color:#ff0000;stop-opacity:1;"
         offset="0"
         id="stop5756-3" />
      <stop
         style="stop-color:#000000;stop-opacity:0;"
         offset="1"
         id="stop5750-6" />
    </linearGradient>
    <clipPath
       id="a-2">
      <path
         inkscape:connector-curvature="0"
         d="M -15,-15 H 634 V 605 H -15 V -15 z"
         id="path7-4" />
    </clipPath>
    <clipPath
       id="a-8">
      <path
         inkscape:connector-curvature="0"
         d="M -15,-15 H 634 V 605 H -15 V -15 z"
         id="path7-81" />
    </clipPath>
  </defs>
  <path
     clip-path="url(#a)"
     stroke="none"
     d="M-15-15h649v620H-15z"
     transform="translate(15 15)"
     fill="#fff"
     text-rendering="geometricPrecision"
     shape-rendering="geometricPrecision"
     id="path9" />
  <rect
     x="223.934"
     y="490"
     clip-path="url(#a)"
     width="60"
     rx="4"
     ry="4"
     height="30"
     stroke="none"
     fill="#69C"
     text-rendering="geometricPrecision"
     shape-rendering="geometricPrecision"
     transform="translate(15 15)"
     id="rect11" />
  <rect
     x="223.934"
     y="490"
     clip-path="url(#a)"
     fill="none"
     width="60"
     rx="4"
     ry="4"
     height="30"
     stroke-linecap="butt"
     transform="translate(15 15)"
     text-rendering="geometricPrecision"
     shape-rendering="geometricPrecision"
     stroke="#333"
     stroke-miterlimit="1.45"
     id="rect13" />
  <rect
     x="214.926"
     y="210"
     clip-path="url(#a)"
     width="60"
     rx="4"
     ry="4"
     height="30"
     stroke="none"
     fill="#69C"
     text-rendering="geometricPrecision"
     shape-rendering="geometricPrecision"
     transform="translate(15 15)"
     id="rect15" />
  <rect
     x="214.926"
     y="210"
     clip-path="url(#a)"
     fill="none"
     width="60"
     rx="4"
     ry="4"
     height="30"
     stroke-linecap="butt"
     transform="translate(15 15)"
     text-rendering="geometricPrecision"
     shape-rendering="geometricPrecision"
     stroke="#333"
     stroke-miterlimit="1.45"
     id="rect17" />
  <rect
     x="348.176"
     y="210"
     clip-path="url(#a)"
     width="30"
     rx="4"
     ry="4"
     height="30"
     stroke="none"
     fill="#69C"
     text-rendering="geometricPrecision"
     shape-rendering="geometricPrecision"
     transform="translate(15 15)"
     id="rect19" />
  <rect
     x="348.176"
     y="210"
     clip-path="url(#a)"
     fill="none"
     width="30"
     rx="4"
     ry="4"
     height="30"
     stroke-linecap="butt"
     transform="translate(15 15)"
     text-rendering="geometricPrecision"
     shape-rendering="geometricPrecision"
     stroke="#333"
     stroke-miterlimit="1.45"
     id="rect21" />
  <rect
     x="223.934"
     y="420"
     clip-path="url(#a)"
     width="60"
     rx="4"
     ry="4"
     height="30"
     stroke="none"
     fill="#69C"
     text-rendering="geometricPrecision"
     shape-rendering="geometricPrecision"
     transform="translate(15 15)"
     id="rect23" />
  <rect
     x="223.934"
     y="420"
     clip-path="url(#a)"
     fill="none"
     width="60"
     rx="4"
     ry="4"
     height="30"
     stroke-linecap="butt"
     transform="translate(15 15)"
     text-rendering="geometricPrecision"
     shape-rendering="geometricPrecision"
     stroke="#333"
     stroke-miterlimit="1.45"
     id="rect25" />
  <rect
     x="247.676"
     y="350"
     clip-path="url(#a)"
     width="45"
     rx="4"
     ry="4"
     height="30"
     stroke="none"
     fill="#69C"
     text-rendering="geometricPrecision"
     shape-rendering="geometricPrecision"
     transform="translate(15 15)"
     id="rect27"
     style="stroke:#00ff00;stroke-opacity:1;fill:#6699cc;fill-opacity:1" />
  <rect
     x="247.676"
     y="350"
     clip-path="url(#a)"
     fill="none"
     width="45"
     rx="4"
     ry="4"
     height="30"
     stroke-linecap="butt"
     transform="translate(15 15)"
     text-rendering="geometricPrecision"
     shape-rendering="geometricPrecision"
     stroke="#333"
     stroke-miterlimit="1.45"
     id="rect29" />
  <rect
     x="503.133"
     y="490"
     clip-path="url(#a)"
     width="60"
     rx="4"
     ry="4"
     height="30"
     stroke="none"
     fill="#69C"
     text-rendering="geometricPrecision"
     shape-rendering="geometricPrecision"
     transform="translate(15 15)"
     id="rect31" />
  <rect
     x="503.133"
     y="490"
     clip-path="url(#a)"
     fill="none"
     width="60"
     rx="4"
     ry="4"
     height="30"
     stroke-linecap="butt"
     transform="translate(15 15)"
     text-rendering="geometricPrecision"
     shape-rendering="geometricPrecision"
     stroke="#333"
     stroke-miterlimit="1.45"
     id="rect33" />
  <rect
     x="13.172"
     y="490"
     clip-path="url(#a)"
     width="45"
     rx="4"
     ry="4"
     height="30"
     stroke="none"
     fill="#69C"
     text-rendering="geometricPrecision"
     shape-rendering="geometricPrecision"
     transform="translate(15 15)"
     id="rect35" />
  <rect
     x="13.172"
     y="490"
     clip-path="url(#a)"
     fill="none"
     width="45"
     rx="4"
     ry="4"
     height="30"
     stroke-linecap="butt"
     transform="translate(15 15)"
     text-rendering="geometricPrecision"
     shape-rendering="geometricPrecision"
     stroke="#333"
     stroke-miterlimit="1.45"
     id="rect37" />
  <rect
     x="566.351"
     y="350"
     clip-path="url(#a)"
     width="45"
     rx="4"
     ry="4"
     height="30"
     stroke="none"
     fill="#69C"
     text-rendering="geometricPrecision"
     shape-rendering="geometricPrecision"
     transform="translate(15 15)"
     id="rect39" />
  <rect
     x="566.351"
     y="350"
     clip-path="url(#a)"
     fill="none"
     width="45"
     rx="4"
     ry="4"
     height="30"
     stroke-linecap="butt"
     transform="translate(15 15)"
     text-rendering="geometricPrecision"
     shape-rendering="geometricPrecision"
     stroke="#333"
     stroke-miterlimit="1.45"
     id="rect41" />
  <rect
     x="488.426"
     y="350"
     clip-path="url(#a)"
     width="30"
     rx="4"
     ry="4"
     height="30"
     stroke="none"
     fill="#69C"
     text-rendering="geometricPrecision"
     shape-rendering="geometricPrecision"
     transform="translate(15 15)"
     id="rect43" />
  <rect
     x="488.426"
     y="350"
     clip-path="url(#a)"
     fill="none"
     width="30"
     rx="4"
     ry="4"
     height="30"
     stroke-linecap="butt"
     transform="translate(15 15)"
     text-rendering="geometricPrecision"
     shape-rendering="geometricPrecision"
     stroke="#333"
     stroke-miterlimit="1.45"
     id="rect45" />
  <rect
     x="585.101"
     y="210"
     clip-path="url(#a)"
     width="30"
     rx="4"
     ry="4"
     height="30"
     stroke="none"
     fill="#69C"
     text-rendering="geometricPrecision"
     shape-rendering="geometricPrecision"
     transform="translate(15 15)"
     id="rect47" />
  <rect
     x="585.101"
     y="210"
     clip-path="url(#a)"
     fill="none"
     width="30"
     rx="4"
     ry="4"
     height="30"
     stroke-linecap="butt"
     transform="translate(15 15)"
     text-rendering="geometricPrecision"
     shape-rendering="geometricPrecision"
     stroke="#333"
     stroke-miterlimit="1.45"
     id="rect49" />
  <rect
     x="51.539"
     y="420"
     clip-path="url(#a)"
     width="60"
     rx="4"
     ry="4"
     height="30"
     stroke="none"
     fill="#69C"
     text-rendering="geometricPrecision"
     shape-rendering="geometricPrecision"
     transform="translate(15 15)"
     id="rect51" />
  <rect
     x="51.539"
     y="420"
     clip-path="url(#a)"
     fill="none"
     width="60"
     rx="4"
     ry="4"
     height="30"
     stroke-linecap="butt"
     transform="translate(15 15)"
     text-rendering="geometricPrecision"
     shape-rendering="geometricPrecision"
     stroke="#333"
     stroke-miterlimit="1.45"
     id="rect53" />
  <rect
     x="570.008"
     y="420"
     clip-path="url(#a)"
     width="45"
     rx="4"
     ry="4"
     height="30"
     stroke="none"
     fill="#69C"
     text-rendering="geometricPrecision"
     shape-rendering="geometricPrecision"
     transform="translate(15 15)"
     id="rect55" />
  <rect
     x="570.008"
     y="420"
     clip-path="url(#a)"
     fill="none"
     width="45"
     rx="4"
     ry="4"
     height="30"
     stroke-linecap="butt"
     transform="translate(15 15)"
     text-rendering="geometricPrecision"
     shape-rendering="geometricPrecision"
     stroke="#333"
     stroke-miterlimit="1.45"
     id="rect57" />
  <rect
     x="588.758"
     y="490"
     clip-path="url(#a)"
     width="30"
     rx="4"
     ry="4"
     height="30"
     stroke="none"
     fill="#69C"
     text-rendering="geometricPrecision"
     shape-rendering="geometricPrecision"
     transform="translate(15 15)"
     id="rect59" />
  <rect
     x="588.758"
     y="490"
     clip-path="url(#a)"
     fill="none"
     width="30"
     rx="4"
     ry="4"
     height="30"
     stroke-linecap="butt"
     transform="translate(15 15)"
     text-rendering="geometricPrecision"
     shape-rendering="geometricPrecision"
     stroke="#333"
     stroke-miterlimit="1.45"
     id="rect61" />
  <rect
     x="20.5"
     y="350"
     clip-path="url(#a)"
     width="30"
     rx="4"
     ry="4"
     height="30"
     stroke="none"
     fill="#69C"
     text-rendering="geometricPrecision"
     shape-rendering="geometricPrecision"
     transform="translate(15 15)"
     id="rect63" />
  <rect
     x="20.5"
     y="350"
     clip-path="url(#a)"
     fill="none"
     width="30"
     rx="4"
     ry="4"
     height="30"
     stroke-linecap="butt"
     transform="translate(15 15)"
     text-rendering="geometricPrecision"
     shape-rendering="geometricPrecision"
     stroke="#333"
     stroke-miterlimit="1.45"
     id="rect65" />
  <rect
     x="585.101"
     y="280"
     clip-path="url(#a)"
     width="30"
     rx="4"
     ry="4"
     height="30"
     stroke="none"
     fill="#69C"
     text-rendering="geometricPrecision"
     shape-rendering="geometricPrecision"
     transform="translate(15 15)"
     id="rect67" />
  <rect
     x="585.101"
     y="280"
     clip-path="url(#a)"
     fill="none"
     width="30"
     rx="4"
     ry="4"
     height="30"
     stroke-linecap="butt"
     transform="translate(15 15)"
     text-rendering="geometricPrecision"
     shape-rendering="geometricPrecision"
     stroke="#333"
     stroke-miterlimit="1.45"
     id="rect69" />
  <rect
     x="451.547"
     y="280"
     clip-path="url(#a)"
     width="75"
     rx="4"
     ry="4"
     height="30"
     stroke="none"
     fill="#69C"
     text-rendering="geometricPrecision"
     shape-rendering="geometricPrecision"
     transform="translate(15 15)"
     id="rect71"
     style="fill:#87cc66;fill-opacity:1" />
  <rect
     x="451.547"
     y="280"
     clip-path="url(#a)"
     fill="none"
     width="75"
     rx="4"
     ry="4"
     height="30"
     stroke-linecap="butt"
     transform="translate(15 15)"
     text-rendering="geometricPrecision"
     shape-rendering="geometricPrecision"
     stroke="#333"
     stroke-miterlimit="1.45"
     id="rect73" />
  <rect
     x="211.176"
     y="280"
     clip-path="url(#a)"
     width="45"
     rx="4"
     ry="4"
     height="30"
     stroke="none"
     fill="#69C"
     text-rendering="geometricPrecision"
     shape-rendering="geometricPrecision"
     transform="translate(15 15)"
     id="rect75" />
  <rect
     x="211.176"
     y="280"
     clip-path="url(#a)"
     fill="none"
     width="45"
     rx="4"
     ry="4"
     height="30"
     stroke-linecap="butt"
     transform="translate(15 15)"
     text-rendering="geometricPrecision"
     shape-rendering="geometricPrecision"
     stroke="#333"
     stroke-miterlimit="1.45"
     id="rect77" />
  <rect
     x="232.676"
     y="140"
     clip-path="url(#a)"
     width="75"
     rx="4"
     ry="4"
     height="30"
     stroke="none"
     fill="#69C"
     text-rendering="geometricPrecision"
     shape-rendering="geometricPrecision"
     transform="translate(15 15)"
     id="rect79" />
  <rect
     x="232.676"
     y="140"
     clip-path="url(#a)"
     fill="none"
     width="75"
     rx="4"
     ry="4"
     height="30"
     stroke-linecap="butt"
     transform="translate(15 15)"
     text-rendering="geometricPrecision"
     shape-rendering="geometricPrecision"
     stroke="#333"
     stroke-miterlimit="1.45"
     id="rect81" />
  <rect
     x="312.676"
     y="350"
     clip-path="url(#a)"
     width="30"
     rx="4"
     ry="4"
     height="30"
     stroke="none"
     fill="#69C"
     text-rendering="geometricPrecision"
     shape-rendering="geometricPrecision"
     transform="translate(15 15)"
     id="rect83" />
  <rect
     x="312.676"
     y="350"
     clip-path="url(#a)"
     fill="none"
     width="30"
     rx="4"
     ry="4"
     height="30"
     stroke-linecap="butt"
     transform="translate(15 15)"
     text-rendering="geometricPrecision"
     shape-rendering="geometricPrecision"
     stroke="#333"
     stroke-miterlimit="1.45"
     id="rect85" />
  <rect
     x="117.172"
     y="350"
     clip-path="url(#a)"
     width="30"
     rx="4"
     ry="4"
     height="30"
     stroke="none"
     fill="#69C"
     text-rendering="geometricPrecision"
     shape-rendering="geometricPrecision"
     transform="translate(15 15)"
     id="rect87" />
  <rect
     x="117.172"
     y="350"
     clip-path="url(#a)"
     fill="none"
     width="30"
     rx="4"
     ry="4"
     height="30"
     stroke-linecap="butt"
     transform="translate(15 15)"
     text-rendering="geometricPrecision"
     shape-rendering="geometricPrecision"
     stroke="#333"
     stroke-miterlimit="1.45"
     id="rect89" />
  <rect
     x="144.164"
     y="70"
     clip-path="url(#a)"
     width="60"
     rx="4"
     ry="4"
     height="30"
     stroke="none"
     fill="#69C"
     text-rendering="geometricPrecision"
     shape-rendering="geometricPrecision"
     transform="translate(15 15)"
     id="rect91"
     style="fill:#6699cc;fill-opacity:1" />
  <rect
     x="144.164"
     y="70"
     clip-path="url(#a)"
     fill="none"
     width="60"
     rx="4"
     ry="4"
     height="30"
     stroke-linecap="butt"
     transform="translate(15 15)"
     text-rendering="geometricPrecision"
     shape-rendering="geometricPrecision"
     stroke="#333"
     stroke-miterlimit="1.45"
     id="rect93" />
  <rect
     x="47.133"
     clip-path="url(#a)"
     width="45"
     rx="4"
     ry="4"
     height="30"
     stroke="none"
     fill="#69C"
     text-rendering="geometricPrecision"
     shape-rendering="geometricPrecision"
     transform="translate(15 15)"
     id="rect95" />
  <rect
     x="47.133"
     clip-path="url(#a)"
     fill="none"
     width="45"
     rx="4"
     ry="4"
     height="30"
     stroke-linecap="butt"
     transform="translate(15 15)"
     text-rendering="geometricPrecision"
     shape-rendering="geometricPrecision"
     stroke="#333"
     stroke-miterlimit="1.45"
     id="rect97" />
  <rect
     x="469.676"
     y="420"
     clip-path="url(#a)"
     width="45"
     rx="4"
     ry="4"
     height="30"
     stroke="none"
     fill="#69C"
     text-rendering="geometricPrecision"
     shape-rendering="geometricPrecision"
     transform="translate(15 15)"
     id="rect99" />
  <rect
     x="469.676"
     y="420"
     clip-path="url(#a)"
     fill="none"
     width="45"
     rx="4"
     ry="4"
     height="30"
     stroke-linecap="butt"
     transform="translate(15 15)"
     text-rendering="geometricPrecision"
     shape-rendering="geometricPrecision"
     stroke="#333"
     stroke-miterlimit="1.45"
     id="rect101" />
  <rect
     x="96.25"
     y="140"
     clip-path="url(#a)"
     width="45"
     rx="4"
     ry="4"
     height="30"
     stroke="none"
     fill="#69C"
     text-rendering="geometricPrecision"
     shape-rendering="geometricPrecision"
     transform="translate(15 15)"
     id="rect103" />
  <rect
     x="96.25"
     y="140"
     clip-path="url(#a)"
     fill="none"
     width="45"
     rx="4"
     ry="4"
     height="30"
     stroke-linecap="butt"
     transform="translate(15 15)"
     text-rendering="geometricPrecision"
     shape-rendering="geometricPrecision"
     stroke="#333"
     stroke-miterlimit="1.45"
     id="rect105" />
  <rect
     x="333.176"
     y="280"
     clip-path="url(#a)"
     width="60"
     rx="4"
     ry="4"
     height="30"
     stroke="none"
     fill="#69C"
     text-rendering="geometricPrecision"
     shape-rendering="geometricPrecision"
     transform="translate(15 15)"
     id="rect107"
     style="fill:#87cc66;fill-opacity:1" />
  <rect
     x="333.176"
     y="280"
     clip-path="url(#a)"
     fill="none"
     width="60"
     rx="4"
     ry="4"
     height="30"
     stroke-linecap="butt"
     transform="translate(15 15)"
     text-rendering="geometricPrecision"
     shape-rendering="geometricPrecision"
     stroke="#333"
     stroke-miterlimit="1.45"
     id="rect109" />
  <rect
     x="383.676"
     y="350"
     clip-path="url(#a)"
     width="45"
     rx="4"
     ry="4"
     height="30"
     stroke="none"
     fill="#69C"
     text-rendering="geometricPrecision"
     shape-rendering="geometricPrecision"
     transform="translate(15 15)"
     id="rect111" />
  <rect
     x="383.676"
     y="350"
     clip-path="url(#a)"
     fill="none"
     width="45"
     rx="4"
     ry="4"
     height="30"
     stroke-linecap="butt"
     transform="translate(15 15)"
     text-rendering="geometricPrecision"
     shape-rendering="geometricPrecision"
     stroke="#333"
     stroke-miterlimit="1.45"
     id="rect113" />
  <rect
     x="64.375"
     y="70"
     clip-path="url(#a)"
     width="45"
     rx="4"
     ry="4"
     height="30"
     stroke="none"
     fill="#69C"
     text-rendering="geometricPrecision"
     shape-rendering="geometricPrecision"
     transform="translate(15 15)"
     id="rect115" />
  <rect
     x="64.375"
     y="70"
     clip-path="url(#a)"
     fill="none"
     width="45"
     rx="4"
     ry="4"
     height="30"
     stroke-linecap="butt"
     transform="translate(15 15)"
     text-rendering="geometricPrecision"
     shape-rendering="geometricPrecision"
     stroke="#333"
     stroke-miterlimit="1.45"
     id="rect117" />
  <rect
     x="20.672"
     y="560"
     clip-path="url(#a)"
     width="30"
     rx="4"
     ry="4"
     height="30"
     stroke="none"
     fill="#69C"
     text-rendering="geometricPrecision"
     shape-rendering="geometricPrecision"
     transform="translate(15 15)"
     id="rect119" />
  <rect
     x="20.672"
     y="560"
     clip-path="url(#a)"
     fill="none"
     width="30"
     rx="4"
     ry="4"
     height="30"
     stroke-linecap="butt"
     transform="translate(15 15)"
     text-rendering="geometricPrecision"
     shape-rendering="geometricPrecision"
     stroke="#333"
     stroke-miterlimit="1.45"
     id="rect121" />
  <rect
     x="348.176"
     y="140"
     clip-path="url(#a)"
     width="30"
     rx="4"
     ry="4"
     height="30"
     stroke="none"
     fill="#69C"
     text-rendering="geometricPrecision"
     shape-rendering="geometricPrecision"
     transform="translate(15 15)"
     id="rect123" />
  <g
     stroke-linecap="butt"
     transform="translate(15 15)"
     fill="#333"
     text-rendering="geometricPrecision"
     shape-rendering="geometricPrecision"
     stroke="#333"
     stroke-miterlimit="1.45"
     id="g125">
    <rect
       x="348.176"
       y="140"
       clip-path="url(#a)"
       fill="none"
       width="30"
       rx="4"
       ry="4"
       height="30"
       id="rect127" />
    <path
       fill="none"
       d="M253.934 450v31.96"
       clip-path="url(#a)"
       stroke="#000"
       id="path129" />
    <path
       fill="#000"
       d="M253.934 489.96l5-12-5 3-5-3z"
       clip-path="url(#a)"
       stroke="none"
       id="path131" />
    <path
       fill="none"
       d="M258.926 380l-3.996 32.022"
       clip-path="url(#a)"
       stroke="#000"
       id="path133" />
    <path
       fill="#000"
       d="M253.939 419.96l6.447-11.287-5.333 2.357-4.59-3.596z"
       clip-path="url(#a)"
       stroke="none"
       id="path135" />
    <path
       fill="none"
       d="M224.926 240L9.846 278.25l-4.308 1.39-3.077 2.422-1.846 3.454L0 290v150l1.303 9.634 3.908 8.9 15.019 24.599"
       clip-path="url(#a)"
       stroke="#000"
       id="path137" />
    <path
       fill="#000"
       d="M24.398 489.96l-1.985-12.846-2.705 5.166-5.83.045z"
       clip-path="url(#a)"
       stroke="none"
       id="path139" />
    <path
       fill="none"
       d="M66.539 450l-16.075 32.778"
       clip-path="url(#a)"
       stroke="#000"
       id="path141" />
    <path
       fill="#000"
       d="M46.941 489.96l9.773-8.572-5.81.492-3.168-4.895z"
       clip-path="url(#a)"
       stroke="none"
       id="path143" />
    <path
       fill="none"
       d="M96.539 450l129.68 37.754"
       clip-path="url(#a)"
       stroke="#000"
       id="path145" />
    <path
       fill="#000"
       d="M233.9 489.99l-10.124-8.155 1.483 5.64-4.278 3.962z"
       clip-path="url(#a)"
       stroke="none"
       id="path147" />
    <path
       fill="none"
       d="M581.258 450l-23.496 33.417"
       clip-path="url(#a)"
       stroke="#000"
       id="path149" />
    <path
       fill="#000"
       d="M553.16 489.96l10.993-6.94-5.816-.421-2.364-5.33z"
       clip-path="url(#a)"
       stroke="none"
       id="path151" />
    <path
       fill="none"
       d="M603.758 450v31.96"
       clip-path="url(#a)"
       stroke="#000"
       id="path153" />
    <path
       fill="#000"
       d="M603.758 489.96l5-12-5 3-5-3z"
       clip-path="url(#a)"
       stroke="none"
       id="path155" />
    <path
       fill="none"
       d="M35.5 380l21.649 33.256"
       clip-path="url(#a)"
       stroke="#000"
       id="path157" />
    <path
       fill="#000"
       d="M61.514 419.96l-2.357-12.784-2.554 5.242-5.827.214z"
       clip-path="url(#a)"
       stroke="none"
       id="path159" />
    <path
       fill="none"
       d="M600.101 240v31.96"
       clip-path="url(#a)"
       stroke="#000"
       id="path161" />
    <path
       fill="#000"
       d="M600.101 279.96l5-12-5 3-5-3z"
       clip-path="url(#a)"
       stroke="none"
       id="path163" />
    <path
       fill="none"
       d="M600.101 310v31.96"
       clip-path="url(#a)"
       stroke="#000"
       id="path165" />
    <path
       fill="#000"
       d="M600.101 349.96l5-12-5 3-5-3z"
       clip-path="url(#a)"
       stroke="none"
       id="path167" />
    <path
       fill="none"
       d="M264.926 240l197.494 38.466"
       clip-path="url(#a)"
       stroke="#000"
       id="path169" />
    <path
       fill="#000"
       d="M470.272 279.995l-10.823-7.202 1.99 5.481-3.901 4.335z"
       clip-path="url(#a)"
       stroke="none"
       id="path171" />
    <path
       fill="none"
       d="M517.172 310l53.729 35.565"
       clip-path="url(#a)"
       stroke="#000"
       id="path173" />
    <path
       fill="#000"
       d="M577.572 349.98l-7.247-10.792-.258 5.825-5.261 2.513z"
       clip-path="url(#a)"
       stroke="none"
       id="path175" />
    <path
       fill="none"
       d="M479.672 310l-24.433 32.048-4.547 8.464-1.516 9.488v80l-.61 4.514-1.828 3.542-3.046 2.57-4.266 1.6-157.65 35.984"
       clip-path="url(#a)"
       stroke="#000"
       id="path177" />
    <path
       fill="#000"
       d="M273.977 489.99l12.812 2.204-4.038-4.207 1.812-5.542z"
       clip-path="url(#a)"
       stroke="none"
       id="path179" />
    <path
       fill="none"
       d="M498.422 310l33.389 32.973 5.336 7.77 1.779 9.257v80l-1.433 19.897-3.208 22.147"
       clip-path="url(#a)"
       stroke="#000"
       id="path181" />
    <path
       fill="#000"
       d="M533.139 489.96l6.668-11.159-5.378 2.253-4.519-3.686z"
       clip-path="url(#a)"
       stroke="none"
       id="path183" />
    <path
       fill="none"
       d="M244.926 240v31.96"
       clip-path="url(#a)"
       stroke="#000"
       id="path185" />
    <path
       fill="#000"
       d="M244.926 279.96l5-12-5 3-5-3z"
       clip-path="url(#a)"
       stroke="none"
       id="path187" />
    <path
       fill="none"
       d="M244.926 310l11.343 32.41"
       clip-path="url(#a)"
       stroke="#000"
       id="path189" />
    <path
       fill="#000"
       d="M258.912 349.96l.755-12.977-3.728 4.483-5.71-1.18z"
       clip-path="url(#a)"
       stroke="none"
       id="path191" />
    <path
       fill="none"
       d="M260.8 170l-12.908 32.525"
       clip-path="url(#a)"
       stroke="#000"
       id="path193" />
    <path
       fill="#000"
       d="M244.941 209.96l9.074-9.308-5.754.944-3.54-4.633z"
       clip-path="url(#a)"
       stroke="none"
       id="path195" />
    <path
       fill="none"
       d="M242.05 170l-43.484 33.857-3.452 3.312-2.466 3.795-1.48 4.277-.492 4.759v150l1.835 9.197 5.507 7.592 30.021 27.76"
       clip-path="url(#a)"
       stroke="#000"
       id="path197" />
    <path
       fill="#000"
       d="M233.913 419.98l-5.416-11.818-1.192 5.708-5.597 1.635z"
       clip-path="url(#a)"
       stroke="none"
       id="path199" />
    <path
       fill="none"
       d="M279.55 170l12.187 30.705 2.766 9.471.923 9.824v80l-.826 9.86-2.478 9.579-8.04 22.971"
       clip-path="url(#a)"
       stroke="#000"
       id="path201" />
    <path
       fill="#000"
       d="M281.44 349.96l8.683-9.674-5.71 1.18-3.729-4.483z"
       clip-path="url(#a)"
       stroke="none"
       id="path203" />
    <path
       fill="none"
       d="M298.3 170l199.675 38.125 4.297 1.445 3.07 2.461 1.841 3.477.614 4.492v51.966"
       clip-path="url(#a)"
       stroke="#000"
       id="path205" />
    <path
       fill="#000"
       d="M507.797 279.966l5-12-5 3-5-3z"
       clip-path="url(#a)"
       stroke="none"
       id="path207" />
    <path
       fill="none"
       d="M222.426 310l-82.896 36.739"
       clip-path="url(#a)"
       stroke="#000"
       id="path209" />
    <path
       fill="#000"
       d="M132.216 349.98l12.997-.29-4.769-3.356.717-5.787z"
       clip-path="url(#a)"
       stroke="none"
       id="path211" />
    <path
       fill="none"
       d="M132.172 380l-25.74 33.61"
       clip-path="url(#a)"
       stroke="#000"
       id="path213" />
    <path
       fill="#000"
       d="M101.569 419.96l11.266-6.486-5.794-.658-2.146-5.422z"
       clip-path="url(#a)"
       stroke="none"
       id="path215" />
    <path
       fill="#000"
       d="M270.139 139.98l-8.291-10.012.326 5.821-4.983 3.028z"
       clip-path="url(#a)"
       stroke="none"
       id="path219" />
    <path
       fill="none"
       d="M174.164 100l-6.739 30.24-1.631 9.82-.544 9.94v80l.512 4.733 1.536 4.2 2.561 3.667 3.585 3.132 42.399 29.662"
       clip-path="url(#a)"
       stroke="#000"
       id="path221" />
    <path
       fill="#000"
       d="M222.398 279.98l-6.967-10.975-.408 5.816-5.324 2.377z"
       clip-path="url(#a)"
       stroke="none"
       id="path223" />
    <path
       fill="none"
       d="M58.383 30L40.466 61.32l-3.725 9.01L35.5 80v261.966"
       clip-path="url(#a)"
       stroke="#000"
       id="path225" />
    <path
       fill="#000"
       d="M35.5 349.966l5-12-5 3-5-3z"
       clip-path="url(#a)"
       stroke="none"
       id="path227" />
    <path
       fill="none"
       d="M503.426 380v31.96"
       clip-path="url(#a)"
       stroke="#000"
       id="path229" />
    <path
       fill="#000"
       d="M503.426 419.96l5-12-5 3-5-3z"
       clip-path="url(#a)"
       stroke="none"
       id="path231" />
    <path
       fill="none"
       d="M281.426 380l191.607 38.418"
       clip-path="url(#a)"
       stroke="#000"
       id="path233" />
    <path
       fill="#000"
       d="M480.877 419.99l-10.783-7.261 1.959 5.492-3.925 4.313z"
       clip-path="url(#a)"
       stroke="none"
       id="path235" />
    <path
       fill="none"
       d="M492.176 450l17.224 32.875"
       clip-path="url(#a)"
       stroke="#000"
       id="path237" />
    <path
       fill="#000"
       d="M513.113 489.96l-1.14-12.949-3.037 4.978-5.821-.337z"
       clip-path="url(#a)"
       stroke="none"
       id="path239" />
    <path
       fill="none"
       d="M154.164 100l-20.004 33.113"
       clip-path="url(#a)"
       stroke="#000"
       id="path241" />
    <path
       fill="#000"
       d="M130.024 139.96l10.484-7.685-5.83-.018-2.73-5.153z"
       clip-path="url(#a)"
       stroke="none"
       id="path243" />
    <path
       fill="none"
       d="M363.176 240v31.96"
       clip-path="url(#a)"
       stroke="#000"
       id="path245" />
    <path
       fill="#000"
       d="M363.176 279.96l5-12-5 3-5-3z"
       clip-path="url(#a)"
       stroke="none"
       id="path247" />
    <path
       fill="none"
       d="M343.176 310l-12.595 32.501"
       clip-path="url(#a)"
       stroke="#000"
       id="path249" />
    <path
       fill="#000"
       d="M327.69 349.96l8.999-9.382-5.746.991-3.578-4.604z"
       clip-path="url(#a)"
       stroke="none"
       id="path251" />
    <path
       fill="none"
       d="M363.176 310v60l-.57 4.63-1.712 3.892-2.851 3.154-3.993 2.414-72.772 32.618"
       clip-path="url(#a)"
       stroke="#000"
       id="path253" />
    <path
       fill="#000"
       d="M273.978 419.98l12.995-.345-4.783-3.336.693-5.79z"
       clip-path="url(#a)"
       stroke="none"
       id="path255" />
    <path
       fill="none"
       d="M460.922 310l-37.587 34.565"
       clip-path="url(#a)"
       stroke="#000"
       id="path257" />
    <path
       fill="#000"
       d="M417.447 349.98l12.217-4.442-5.592-1.65-1.177-5.71z"
       clip-path="url(#a)"
       stroke="none"
       id="path259" />
    <path
       fill="none"
       d="M383.176 310l9.483 32.285"
       clip-path="url(#a)"
       stroke="#000"
       id="path261" />
    <path
       fill="#000"
       d="M394.914 349.96l1.415-12.922-3.951 4.288-5.643-1.47z"
       clip-path="url(#a)"
       stroke="none"
       id="path263" />
    <path
       fill="none"
       d="M80.883 30l4.801 32.05"
       clip-path="url(#a)"
       stroke="#000"
       id="path265" />
    <path
       fill="#000"
       d="M86.87 69.96l3.166-12.607-4.5 3.707-5.39-2.226z"
       clip-path="url(#a)"
       stroke="none"
       id="path267" />
    <path
       fill="none"
       d="M75.625 100l-3.476 30.066L71 150v220l.637 9.918 1.91 9.752 5.943 22.555"
       clip-path="url(#a)"
       stroke="#000"
       id="path269" />
    <path
       fill="#000"
       d="M81.529 419.96l1.777-12.877-4.07 4.175-5.6-1.627z"
       clip-path="url(#a)"
       stroke="none"
       id="path271" />
    <path
       fill="none"
       d="M98.125 100l7.54 32.172"
       clip-path="url(#a)"
       stroke="#000"
       id="path273" />
    <path
       fill="#000"
       d="M107.49 139.96l2.13-12.823-4.183 4.061-5.552-1.78z"
       clip-path="url(#a)"
       stroke="none"
       id="path275" />
    <path
       fill="none"
       d="M35.672 520v31.96"
       clip-path="url(#a)"
       stroke="#000"
       id="path277" />
    <path
       fill="#000"
       d="M35.672 559.96l5-12-5 3-5-3z"
       clip-path="url(#a)"
       stroke="none"
       id="path279" />
    <path
       fill="none"
       d="M363.176 170v31.96"
       clip-path="url(#a)"
       stroke="#000"
       id="path281" />
    <path
       fill="#000"
       d="M363.176 209.96l5-12-5 3-5-3z"
       clip-path="url(#a)"
       stroke="none"
       id="path283" />
  </g>
  <path
     transform="translate(14.710871,14.455573)"
     d="M 194.164,100 241.27454,124.79124 263.059,136.255"
     clip-path="url(#a-2)"
     id="path217-5"
     style="fill:#e91e12;fill-opacity:0.26984127;stroke:#000000;stroke-width:1;stroke-miterlimit:1.45000005;stroke-dasharray:none;stroke-opacity:1"
     inkscape:connector-curvature="0"
     sodipodi:nodetypes="ccc" />
  <path
     style="opacity:0.31000001;fill:#cc66c9;fill-opacity:1;stroke:#000000;stroke-width:1px;stroke-linecap:butt;stroke-linejoin:miter;stroke-opacity:1"
     d="m 457.76271,263.77119 c -86.22801,0.5031 -157.43553,34.10051 -138.5805,127.41525 8.08298,43.53831 -91.70955,-5.20248 -110.99577,60.42373 -18.13753,141.1191 120.5806,102.7677 242.3517,101.80085 l 103.11441,-3.2839 c 46.84361,4.15696 38.11459,-62.08598 19.30837,-117.89961 -14.41535,-42.78227 65.65075,-1.92894 68.70009,-67.31226 -0.2869,-23.59868 -46.48999,-15.29834 -61.0805,-32.1822 -13.86048,-27.16131 -63.69279,-68.90351 -122.8178,-68.96186 z"
     id="path994"
     inkscape:connector-curvature="0"
     sodipodi:nodetypes="cccccsccc" />
  <text
     xml:space="preserve"
     style="font-style:normal;font-weight:normal;font-size:24px;line-height:1.25;font-family:sans-serif;letter-spacing:0px;word-spacing:0px;fill:#000000;fill-opacity:1;stroke:none"
     x="266.65253"
     y="593.07202"
     id="text998"><tspan
       sodipodi:role="line"
       id="tspan996"
       x="266.65253"
       y="593.07202">Subgraph to visit</tspan></text>
  <text
     xml:space="preserve"
     style="font-style:normal;font-weight:normal;font-size:24px;line-height:1.25;font-family:sans-serif;letter-spacing:0px;word-spacing:0px;fill:#000000;fill-opacity:1;stroke:none"
     x="415.08475"
     y="187.83899"
     id="text1002"><tspan
       sodipodi:role="line"
       id="tspan1000"
       x="415.08475"
       y="187.83899">Start vertices</tspan></text>
  <path
     style="fill:none;stroke:#f42316;stroke-width:1.5;stroke-linecap:butt;stroke-linejoin:miter;stroke-opacity:1;stroke-miterlimit:10;stroke-dasharray:none;marker-end:url(#Arrow1Lend)"
     d="m 463.68644,193.75 -72.24576,99.83051"
     id="path1004"
     inkscape:connector-curvature="0" />
  <path
     style="fill:none;stroke:#ec1414;stroke-width:1.5;stroke-linecap:butt;stroke-linejoin:miter;stroke-opacity:1;stroke-miterlimit:10;stroke-dasharray:none;marker-end:url(#marker1480)"
     d="m 498.49576,194.40678 5.91102,97.86017"
     id="path1408"
     inkscape:connector-curvature="0" />
  <path
     style="fill:none;stroke:#f31d26;stroke-width:1.5;stroke-linecap:butt;stroke-linejoin:miter;stroke-opacity:1;stroke-miterlimit:10;stroke-dasharray:none;marker-end:url(#marker1672)"
     d="M 360.57203,570.08475 384.2161,523.45339"
     id="path1662"
     inkscape:connector-curvature="0" />
</svg>
