<?xml version="1.0" encoding="UTF-8" standalone="no"?>
<!-- Generated by graphviz version 2.38.0 (20140413.2041)
 -->

<!-- Title: AST Pages: 1 -->

<svg
   xmlns:dc="http://purl.org/dc/elements/1.1/"
   xmlns:cc="http://creativecommons.org/ns#"
   xmlns:rdf="http://www.w3.org/1999/02/22-rdf-syntax-ns#"
   xmlns:svg="http://www.w3.org/2000/svg"
   xmlns="http://www.w3.org/2000/svg"
   xmlns:sodipodi="http://sodipodi.sourceforge.net/DTD/sodipodi-0.dtd"
   xmlns:inkscape="http://www.inkscape.org/namespaces/inkscape"
   width="521pt"
   height="516pt"
   viewBox="0.00 0.00 520.50 515.60"
   id="svg2"
   version="1.1"
   inkscape:version="0.48.5 r10040"
   sodipodi:docname="AnBn_r.svg">
  <metadata
     id="metadata331">
    <rdf:RDF>
      <cc:Work
         rdf:about="">
        <dc:format>image/svg+xml</dc:format>
        <dc:type
           rdf:resource="http://purl.org/dc/dcmitype/StillImage" />
        <dc:title></dc:title>
      </cc:Work>
    </rdf:RDF>
  </metadata>
  <defs
     id="defs329">
    <marker
       inkscape:stockid="Arrow2Lend"
       orient="auto"
       refY="0.0"
       refX="0.0"
       id="Arrow2Lend"
       style="overflow:visible;">
      <path
         id="path5865"
         style="fill-rule:evenodd;stroke-width:0.62500000;stroke-linejoin:round;"
         d="M 8.7185878,4.0337352 L -2.2072895,0.016013256 L 8.7185884,-4.0017078 C 6.9730900,-1.6296469 6.9831476,1.6157441 8.7185878,4.0337352 z "
         transform="scale(1.1) rotate(180) translate(1,0)" />
    </marker>
  </defs>
  <sodipodi:namedview
     pagecolor="#ffffff"
     bordercolor="#666666"
     borderopacity="1"
     objecttolerance="10"
     gridtolerance="10"
     guidetolerance="10"
     inkscape:pageopacity="0"
     inkscape:pageshadow="2"
     inkscape:window-width="1920"
     inkscape:window-height="1177"
     id="namedview327"
     showgrid="false"
     inkscape:zoom="1.0348974"
     inkscape:cx="391.93064"
     inkscape:cy="341.4709"
     inkscape:window-x="-8"
     inkscape:window-y="-8"
     inkscape:window-maximized="1"
     inkscape:current-layer="graph0" />
  <g
     id="graph0"
     class="graph"
     transform="scale(1 1) rotate(0) translate(4 511.6)">
    <title
       id="title5">AST</title>
    <!-- 9 -->
    <g
       id="node1"
       class="node"
       transform="translate(127.90078,46.364037)">
      <title
         id="title10">9</title>
      <ellipse
         cx="297.5"
         cy="-489.60001"
         rx="36.2938"
         ry="18"
         id="ellipse12"
         d="m 333.7938,-489.60001 c 0,9.94113 -16.24929,18 -36.2938,18 -20.04451,0 -36.2938,-8.05887 -36.2938,-18 0,-9.94112 16.24929,-18 36.2938,-18 20.04451,0 36.2938,8.05888 36.2938,18 z"
         sodipodi:cx="297.5"
         sodipodi:cy="-489.60001"
         sodipodi:rx="36.2938"
         sodipodi:ry="18"
         style="fill:none;stroke:#000000" />
      <text
         x="297.5"
         y="-485.89999"
         font-size="14.00"
         id="text14"
         style="font-size:14px;text-anchor:middle">(0, S, 3)</text>
    </g>
    <!-- 19 -->
    <g
       id="node2"
       class="node"
       transform="translate(127.90078,46.364037)">
      <title
         id="title17">19</title>
      <polygon
         points="141.5,-435.6 141.5,-399.6 201.5,-399.6 201.5,-435.6 201.5,-435.6 "
         id="polygon19"
         style="fill:none;stroke:#000000" />
      <text
         x="171.5"
         y="-413.89999"
         font-size="14.00"
         id="text21"
         style="font-size:14px;text-anchor:middle">(0, a, 1)</text>
    </g>
    <!-- 9&#45;&gt;19 -->
    <g
       id="edge1"
       class="edge"
       transform="translate(127.90078,46.364037)">
      <title
         id="title24">9-&gt;19</title>
      <path
         d="m 274.096,-475.598 c -17.731,9.851 -42.498,23.61 -63.255,35.142"
         id="path26"
         inkscape:connector-curvature="0"
         style="fill:none;stroke:#000000" />
      <polygon
         points="208.966,-443.419 212.366,-437.299 212.366,-437.299 201.925,-435.503 "
         id="polygon28"
         style="fill:#000000;stroke:#000000" />
    </g>
    <!-- 20 -->
    <g
       id="node3"
       class="node"
       transform="translate(127.90078,46.364037)">
      <title
         id="title31">20</title>
      <ellipse
         cx="255.5"
         cy="-417.60001"
         rx="36.2938"
         ry="18"
         id="ellipse33"
         d="m 291.7938,-417.60001 c 0,9.94113 -16.24929,18 -36.2938,18 -20.04451,0 -36.2938,-8.05887 -36.2938,-18 0,-9.94112 16.24929,-18 36.2938,-18 20.04451,0 36.2938,8.05888 36.2938,18 z"
         sodipodi:cx="255.5"
         sodipodi:cy="-417.60001"
         sodipodi:rx="36.2938"
         sodipodi:ry="18"
         style="fill:none;stroke:#000000" />
      <text
         x="255.5"
         y="-413.89999"
         font-size="14.00"
         id="text35"
         style="font-size:14px;text-anchor:middle">(1, S, 0)</text>
    </g>
    <!-- 9&#45;&gt;20 -->
    <g
       id="edge2"
       class="edge"
       transform="translate(127.90078,46.364037)">
      <title
         id="title38">9-&gt;20</title>
      <path
         d="m 287.547,-472.011 c -5.074,8.456 -11.35,18.917 -17,28.333"
         id="path40"
         inkscape:connector-curvature="0"
         style="fill:none;stroke:#000000" />
      <polygon
         points="267.526,-445.446 273.528,-441.844 273.528,-441.844 265.382,-435.07 "
         id="polygon42"
         style="fill:#000000;stroke:#000000" />
    </g>
    <!-- 14 -->
    <g
       id="node4"
       class="node"
       transform="translate(127.90078,46.364037)">
      <title
         id="title45">14</title>
      <polygon
         points="310,-435.6 310,-399.6 369,-399.6 369,-435.6 369,-435.6 "
         id="polygon47"
         style="fill:none;stroke:#000000" />
      <text
         x="339.5"
         y="-413.89999"
         font-size="14.00"
         id="text49"
         style="font-size:14px;text-anchor:middle">(0, b, 3)</text>
    </g>
    <!-- 9&#45;&gt;14 -->
    <g
       id="edge3"
       class="edge"
       transform="translate(127.90078,46.364037)">
      <title
         id="title52">9-&gt;14</title>
      <path
         d="m 307.453,-472.011 c 4.876,8.126 10.863,18.104 16.336,27.227"
         id="path54"
         inkscape:connector-curvature="0"
         style="fill:none;stroke:#000000" />
      <polygon
         points="320.886,-442.821 326.888,-446.422 326.888,-446.422 329.032,-436.047 "
         id="polygon56"
         style="fill:#000000;stroke:#000000" />
    </g>
    <!-- 163 -->
    <g
       id="node13"
       class="node"
       transform="translate(319.75198,46.364037)">
      <title
         id="title59">163</title>
      <polygon
         points="100,-327.6 159,-327.6 159,-363.6 159,-363.6 100,-363.6 "
         id="polygon61"
         style="fill:none;stroke:#000000" />
      <text
         x="129.5"
         y="-341.89999"
         font-size="14.00"
         id="text63"
         style="font-size:14px;text-anchor:middle">(3, b, 0)</text>
    </g>
    <!-- 20&#45;&gt;163 -->
    <g
       id="edge9"
       class="edge"
       transform="translate(127.90078,46.364037)">
      <title
         id="title66">20-&gt;163</title>
      <path
         d="m 232.096,-403.598 c -17.855,9.92 -42.844,23.803 -63.69,35.384"
         id="path68"
         inkscape:connector-curvature="0"
         style="fill:none;stroke:#000000" />
      <polygon
         points="166.502,-371.161 169.901,-365.041 169.901,-365.041 159.46,-363.244 "
         id="polygon70"
         style="fill:#000000;stroke:#000000" />
    </g>
    <!-- 281 -->
    <g
       id="node14"
       class="node"
       transform="translate(49.561567,46.364037)">
      <title
         id="title73">281</title>
      <polygon
         points="237.5,-327.6 237.5,-363.6 237.5,-363.6 177.5,-363.6 177.5,-327.6 "
         id="polygon75"
         style="fill:none;stroke:#000000" />
      <text
         x="207.5"
         y="-341.89999"
         font-size="14.00"
         id="text77"
         style="font-size:14px;text-anchor:middle">(1, a, 2)</text>
    </g>
    <!-- 20&#45;&gt;281 -->
    <g
       id="edge7"
       class="edge"
       transform="translate(127.90078,46.364037)">
      <title
         id="title80">20-&gt;281</title>
      <path
         d="m 244.367,-400.365 c -5.767,8.411 -12.942,18.875 -19.425,28.329"
         id="path82"
         inkscape:connector-curvature="0"
         style="fill:none;stroke:#000000" />
      <polygon
         points="222.011,-373.951 227.784,-369.992 227.784,-369.992 219.242,-363.724 "
         id="polygon84"
         style="fill:#000000;stroke:#000000" />
    </g>
    <!-- 29 -->
    <g
       id="node15"
       class="node"
       transform="translate(39.968994,46.364037)">
      <title
         id="title87">29</title>
      <ellipse
         cx="309.5"
         cy="-345.60001"
         rx="53.890499"
         ry="18"
         id="ellipse89"
         sodipodi:cx="309.5"
         sodipodi:cy="-345.60001"
         sodipodi:rx="53.890499"
         sodipodi:ry="18"
         style="fill:#ff0000;stroke:#000000"
         d="m 363.3905,-345.60001 c 0,9.94113 -24.1276,18 -53.8905,18 -29.7629,0 -53.8905,-8.05887 -53.8905,-18 0,-9.94112 24.1276,-18 53.8905,-18 29.7629,0 53.8905,8.05888 53.8905,18 z" />
      <text
         x="309.5"
         y="-341.89999"
         font-size="14.00"
         id="text91"
         style="font-size:14px;text-anchor:middle">&lt;|&gt;  (2, S, 3)</text>
    </g>
    <!-- 20&#45;&gt;29 -->
    <g
       id="edge8"
       class="edge"
       transform="translate(127.90078,46.364037)">
      <title
         id="title94">20-&gt;29</title>
      <path
         d="m 268.024,-400.365 c 6.651,8.622 14.966,19.4 22.401,29.038"
         id="path96"
         inkscape:connector-curvature="0"
         style="fill:none;stroke:#000000" />
      <polygon
         points="287.789,-369.013 293.332,-373.289 293.332,-373.289 296.669,-363.233 "
         id="polygon98"
         style="fill:#000000;stroke:#000000" />
    </g>
    <!-- 10 -->
    <g
       id="node5"
       class="node"
       transform="translate(131.09829,46.364037)">
      <title
         id="title101">10</title>
      <ellipse
         cx="223.5"
         cy="-234"
         rx="38.993099"
         ry="18"
         id="ellipse103"
         sodipodi:cx="223.5"
         sodipodi:cy="-234"
         sodipodi:rx="38.993099"
         sodipodi:ry="18"
         style="fill:none;stroke:#000000"
         d="m 262.4931,-234 c 0,9.94113 -17.45781,18 -38.9931,18 -21.53529,0 -38.9931,-8.05887 -38.9931,-18 0,-9.94113 17.45781,-18 38.9931,-18 21.53529,0 38.9931,8.05887 38.9931,18 z" />
      <text
         x="223.5"
         y="-230.3"
         font-size="14.00"
         id="text105"
         style="font-size:14px;text-anchor:middle">(0, S, 0)</text>
    </g>
    <!-- 16 -->
    <g
       id="node6"
       class="node"
       transform="translate(273.38794,46.364037)">
      <title
         id="title108">16</title>
      <polygon
         points="222,-180 163,-180 163,-144 222,-144 222,-180 "
         id="polygon110"
         style="fill:none;stroke:#000000" />
      <text
         x="192.5"
         y="-158.3"
         font-size="14.00"
         id="text112"
         style="font-size:14px;text-anchor:middle">(3, b, 0)</text>
    </g>
    <!-- 10&#45;&gt;16 -->
    <g
       id="edge4"
       class="edge"
       transform="translate(129.49954,46.364037)">
      <title
         id="title115">10-&gt;16</title>
      <path
         d="m 215.996,-216.055 c -3.527,7.964 -7.814,17.644 -11.756,26.545"
         id="path117"
         inkscape:connector-curvature="0"
         style="fill:none;stroke:#000000" />
      <polygon
         points="207.4,-188.002 207.4,-188.002 200.15,-180.275 201,-190.836 "
         id="polygon119"
         style="fill:#000000;stroke:#000000" />
    </g>
    <!-- 192 -->
    <g
       id="node10"
       class="node"
       transform="translate(49.561552,46.364037)">
      <title
         id="title122">192</title>
      <polygon
         points="300.5,-144 300.5,-180 300.5,-180 240.5,-180 240.5,-144 "
         id="polygon124"
         style="fill:none;stroke:#000000" />
      <text
         x="270.5"
         y="-158.3"
         font-size="14.00"
         id="text126"
         style="font-size:14px;text-anchor:middle">(0, a, 1)</text>
    </g>
    <!-- 10&#45;&gt;192 -->
    <g
       id="edge5"
       class="edge"
       transform="translate(129.49954,46.364037)">
      <title
         id="title129">10-&gt;192</title>
      <path
         d="m 234.638,-216.411 c 5.513,8.211 12.295,18.312 18.472,27.511"
         id="path131"
         inkscape:connector-curvature="0"
         style="fill:none;stroke:#000000" />
      <polygon
         points="256.117,-190.7 256.117,-190.7 258.786,-180.447 250.306,-186.798 "
         id="polygon133"
         style="fill:#000000;stroke:#000000" />
    </g>
    <!-- 21 -->
    <g
       id="node11"
       class="node"
       transform="translate(33.573954,46.364037)">
      <title
         id="title136">21</title>
      <ellipse
         cx="358.5"
         cy="-162"
         rx="36.2938"
         ry="18"
         id="ellipse138"
         sodipodi:cx="358.5"
         sodipodi:cy="-162"
         sodipodi:rx="36.2938"
         sodipodi:ry="18"
         style="fill:none;stroke:#000000"
         d="m 394.7938,-162 c 0,9.94113 -16.24929,18 -36.2938,18 -20.04451,0 -36.2938,-8.05887 -36.2938,-18 0,-9.94113 16.24929,-18 36.2938,-18 20.04451,0 36.2938,8.05887 36.2938,18 z" />
      <text
         x="358.5"
         y="-158.3"
         font-size="14.00"
         id="text140"
         style="font-size:14px;text-anchor:middle">(1, S, 3)</text>
    </g>
    <!-- 10&#45;&gt;21 -->
    <g
       id="edge6"
       class="edge"
       transform="matrix(0.91785435,0,0,0.90354536,149.87791,25.095979)">
      <title
         id="title143">10-&gt;21</title>
      <path
         d="m 248.576,-219.998 c 21.541,11.17 52.776,27.366 76.45,39.641"
         id="path145"
         inkscape:connector-curvature="0"
         style="fill:none;stroke:#000000" />
      <polygon
         points="326.747,-183.407 334.013,-175.697 323.525,-177.193 326.747,-183.407 "
         id="polygon147"
         style="fill:#000000;stroke:#000000" />
    </g>
    <!-- 142 -->
    <g
       id="node7"
       class="node"
       transform="translate(191.85117,46.364037)">
      <title
         id="title150">142</title>
      <polygon
         points="251,-72 310,-72 310,-108 310,-108 251,-108 "
         id="polygon152"
         style="fill:none;stroke:#000000" />
      <text
         x="280.5"
         y="-86.300003"
         font-size="14.00"
         id="text154"
         style="font-size:14px;text-anchor:middle">(0, b, 3)</text>
    </g>
    <!-- 143 -->
    <g
       id="node8"
       class="node"
       transform="translate(123.10449,46.364037)">
      <title
         id="title157">143</title>
      <polygon
         points="280,-252 280,-216 339,-216 339,-252 339,-252 "
         id="polygon159"
         style="fill:none;stroke:#000000" />
      <text
         x="309.5"
         y="-230.3"
         font-size="14.00"
         id="text161"
         style="font-size:14px;text-anchor:middle">(0, b, 3)</text>
    </g>
    <!-- 144 -->
    <g
       id="node9"
       class="node"
       transform="translate(209.43754,46.364037)">
      <title
         id="title164">144</title>
      <polygon
         points="0,-144 59,-144 59,-180 59,-180 0,-180 "
         id="polygon166"
         style="fill:none;stroke:#000000" />
      <text
         x="29.5"
         y="-158.3"
         font-size="14.00"
         id="text168"
         style="font-size:14px;text-anchor:middle">(0, b, 3)</text>
    </g>
    <!-- 21&#45;&gt;142 -->
    <g
       id="edge12"
       class="edge"
       transform="translate(31.975178,46.364037)">
      <title
         id="title171">21-&gt;142</title>
      <path
         d="m 341.575,-145.811 c -10.047,9.017 -23.01,20.65 -34.406,30.878"
         id="path173"
         inkscape:connector-curvature="0"
         style="fill:none;stroke:#000000" />
      <polygon
         points="304.689,-117.411 309.364,-112.201 309.364,-112.201 299.584,-108.127 "
         id="polygon175"
         style="fill:#000000;stroke:#000000" />
    </g>
    <!-- 282 -->
    <g
       id="node16"
       class="node"
       transform="translate(-46.364042,46.364037)">
      <title
         id="title178">282</title>
      <polygon
         points="388.5,-108 328.5,-108 328.5,-72 388.5,-72 388.5,-108 "
         id="polygon180"
         style="fill:none;stroke:#000000" />
      <text
         x="358.5"
         y="-86.300003"
         font-size="14.00"
         id="text182"
         style="font-size:14px;text-anchor:middle">(1, a, 2)</text>
    </g>
    <!-- 21&#45;&gt;282 -->
    <g
       id="edge10"
       class="edge"
       transform="translate(31.975178,46.364037)">
      <title
         id="title185">21-&gt;282</title>
      <path
         d="m 358.5,-143.697 c 0,7.714 0,16.985 0,25.585"
         id="path187"
         inkscape:connector-curvature="0"
         style="fill:none;stroke:#000000" />
      <polygon
         points="355,-118.104 362,-118.104 362,-118.104 358.5,-108.104 "
         id="polygon189"
         style="fill:#000000;stroke:#000000" />
    </g>
    <!-- 30 -->
    <g
       id="node17"
       class="node"
       transform="translate(-52.759079,46.364037)">
      <title
         id="title192">30</title>
      <ellipse
         cx="443.5"
         cy="-90"
         rx="36.2938"
         ry="18"
         id="ellipse194"
         sodipodi:cx="443.5"
         sodipodi:cy="-90"
         sodipodi:rx="36.2938"
         sodipodi:ry="18"
         style="fill:none;stroke:#000000"
         d="m 479.7938,-90 c 0,9.941125 -16.24929,18 -36.2938,18 -20.04451,0 -36.2938,-8.058875 -36.2938,-18 0,-9.941125 16.24929,-18 36.2938,-18 20.04451,0 36.2938,8.058875 36.2938,18 z" />
      <text
         x="443.5"
         y="-86.300003"
         font-size="14.00"
         id="text196"
         style="font-size:14px;text-anchor:middle">(2, S, 0)</text>
    </g>
    <!-- 21&#45;&gt;30 -->
    <g
       id="edge11"
       class="edge"
       transform="matrix(0.95628235,0,0,0.93392533,48.41415,36.673855)">
      <title
         id="title199">21-&gt;30</title>
      <path
         d="m 376.526,-146.155 c 11.946,9.838 27.804,22.898 41.091,33.84"
         id="path201"
         inkscape:connector-curvature="0"
         style="fill:none;stroke:#000000" />
      <polygon
         points="420.005,-114.883 420.005,-114.883 425.5,-105.824 415.555,-109.479 "
         id="polygon203"
         style="fill:#000000;stroke:#000000" />
    </g>
    <!-- 162 -->
    <g
       id="node12"
       class="node"
       transform="translate(27.178886,46.364037)">
      <title
         id="title206">162</title>
      <polygon
         points="434,-36 434,-36 375,-36 375,0 434,0 "
         id="polygon208"
         style="fill:none;stroke:#000000" />
      <text
         x="404.5"
         y="-14.3"
         font-size="14.00"
         id="text210"
         style="font-size:14px;text-anchor:middle">(3, b, 0)</text>
    </g>
    <!-- 31 -->
    <g
       id="node18"
       class="node"
       transform="translate(44.765258,46.364037)">
      <title
         id="title213">31</title>
      <ellipse
         cx="196.5"
         cy="-289.79999"
         rx="1.8"
         ry="1.8"
         id="ellipse215"
         sodipodi:cx="196.5"
         sodipodi:cy="-289.79999"
         sodipodi:rx="1.8"
         sodipodi:ry="1.8"
         style="fill:#000000;stroke:#000000"
         d="m 198.3,-289.79999 c 0,0.99411 -0.80589,1.8 -1.8,1.8 -0.99411,0 -1.8,-0.80589 -1.8,-1.8 0,-0.99411 0.80589,-1.8 1.8,-1.8 0.99411,0 1.8,0.80589 1.8,1.8 z" />
    </g>
    <!-- 29&#45;&gt;31 -->
    <g
       id="edge13"
       class="edge"
       transform="translate(44.765258,46.364037)">
      <title
         id="title218">29-&gt;31</title>
      <path
         d="m 279.811,-330.465 c -23.942,11.399 -56.244,26.778 -72.707,34.616"
         id="path220"
         inkscape:connector-curvature="0"
         style="fill:none;stroke:#000000" />
      <polygon
         points="205.284,-298.858 208.293,-292.538 208.293,-292.538 197.759,-291.4 "
         id="polygon222"
         style="fill:#000000;stroke:#000000" />
    </g>
    <!-- 32 -->
    <g
       id="node19"
       class="node"
       transform="translate(44.765258,46.364037)">
      <title
         id="title225">32</title>
      <ellipse
         cx="309.5"
         cy="-289.79999"
         rx="1.8"
         ry="1.8"
         id="ellipse227"
         sodipodi:cx="309.5"
         sodipodi:cy="-289.79999"
         sodipodi:rx="1.8"
         sodipodi:ry="1.8"
         style="fill:#000000;stroke:#000000"
         d="m 311.3,-289.79999 c 0,0.99411 -0.80589,1.8 -1.8,1.8 -0.99411,0 -1.8,-0.80589 -1.8,-1.8 0,-0.99411 0.80589,-1.8 1.8,-1.8 0.99411,0 1.8,0.80589 1.8,1.8 z" />
    </g>
    <!-- 29&#45;&gt;32 -->
    <g
       id="edge14"
       class="edge"
       transform="translate(44.765258,46.364037)">
      <title
         id="title230">29-&gt;32</title>
      <path
         d="m 309.5,-327.577 c 0,8.404 0,18.302 0,25.711"
         id="path232"
         inkscape:connector-curvature="0"
         style="fill:none;stroke:#000000" />
      <polygon
         points="306,-301.734 313,-301.734 313,-301.734 309.5,-291.734 "
         id="polygon234"
         style="fill:#000000;stroke:#000000" />
    </g>
    <!-- 30&#45;&gt;9 -->
    <g
       id="edge23"
       class="edge"
       transform="translate(127.90078,46.364037)">
      <title
         id="title237">30-&gt;9</title>
      <path
         d="m 262.01491,-71.999695 c 1.10488,2.705893 1.33423,77.9022104 6.48622,77.9494234 34.83074,0.319193 108.11703,8.7203716 109.66615,-22.7071284 3.41651,-69.311926 1.6252,-147.77046 1.90018,-160.54985 0.51764,-24.0572 0.43636,-42.59647 0.43636,-67.16266 0,-113.6 -0.54619,-149.64831 -0.54619,-149.64831 0,-61.704 -2.26963,-57.41778 -46.08963,-78.91378"
         id="path239"
         inkscape:connector-curvature="0"
         style="fill:none;stroke:#000000"
         sodipodi:nodetypes="csssscc" />
      <polygon
         points="335.18,-476.283 332.177,-469.96 332.177,-469.96 324.645,-477.411 "
         id="polygon241"
         style="fill:#000000;stroke:#000000" />
    </g>
    <!-- 30&#45;&gt;162 -->
    <g
       id="edge19"
       class="edge"
       transform="translate(-52.759089,46.364037)">
      <title
         id="title244">30-&gt;162</title>
      <path
         d="m 434.258,-72.411 c -4.528,8.1264 -10.087,18.1038 -15.17,27.2266"
         id="path246"
         inkscape:connector-curvature="0"
         style="fill:none;stroke:#000000" />
      <polygon
         points="422.145,-43.479 422.145,-43.479 414.22,-36.4468 416.03,-46.8859 "
         id="polygon248"
         style="fill:#000000;stroke:#000000" />
    </g>
    <!-- 402 -->
    <g
       id="node23"
       class="node"
       transform="translate(-132.69707,46.364037)">
      <title
         id="title251">402</title>
      <polygon
         points="452.5,-36 452.5,0 512.5,0 512.5,-36 512.5,-36 "
         id="polygon253"
         style="fill:none;stroke:#000000" />
      <text
         x="482.5"
         y="-14.3"
         font-size="14.00"
         id="text255"
         style="font-size:14px;text-anchor:middle">(2, a, 0)</text>
    </g>
    <!-- 30&#45;&gt;402 -->
    <g
       id="edge22"
       class="edge"
       transform="translate(-52.759089,46.364037)">
      <title
         id="title258">30-&gt;402</title>
      <path
         d="m 452.742,-72.411 c 4.528,8.1264 10.087,18.1038 15.17,27.2266"
         id="path260"
         inkscape:connector-curvature="0"
         style="fill:none;stroke:#000000" />
      <polygon
         points="470.97,-46.8859 470.97,-46.8859 472.78,-36.4468 464.855,-43.479 "
         id="polygon262"
         style="fill:#000000;stroke:#000000" />
    </g>
    <!-- 34 -->
    <g
       id="node20"
       class="node"
       transform="translate(60.752858,46.364037)">
      <title
         id="title265">34</title>
      <ellipse
         cx="106.5"
         cy="-234"
         rx="59.590099"
         ry="18"
         id="ellipse267"
         sodipodi:cx="106.5"
         sodipodi:cy="-234"
         sodipodi:rx="59.590099"
         sodipodi:ry="18"
         style="fill:none;stroke:#000000"
         d="m 166.0901,-234 c 0,9.94113 -26.6794,18 -59.5901,18 -32.910703,0 -59.590099,-8.05887 -59.590099,-18 0,-9.94113 26.679396,-18 59.590099,-18 32.9107,0 59.5901,8.05887 59.5901,18 z" />
      <text
         x="106.5"
         y="-230.3"
         font-size="14.00"
         id="text269"
         style="font-size:14px;text-anchor:middle">(2, Middle, 3)</text>
    </g>
    <!-- 31&#45;&gt;34 -->
    <g
       id="edge15"
       class="edge"
       transform="matrix(1,0,0,0.98001645,44.765258,40.594865)">
      <title
         id="title272">31-&gt;34</title>
      <path
         d="m 195.489,-288.196 c -5.421,3.241 -31.651,18.921 -54.241,32.425"
         id="path274"
         inkscape:connector-curvature="0"
         style="fill:none;stroke:#000000" />
      <polygon
         points="142.881,-252.67 142.881,-252.67 132.502,-250.543 139.289,-258.678 "
         id="polygon276"
         style="fill:#000000;stroke:#000000" />
    </g>
    <!-- 32&#45;&gt;10 -->
    <g
       id="edge18"
       class="edge"
       transform="matrix(1.0106554,0,0,0.90736277,41.472642,19.619747)">
      <title
         id="title279">32-&gt;10</title>
      <path
         d="m 308.534,-288.196 c -5.376,3.363 -32.165,20.122 -54.258,33.943"
         id="path281"
         inkscape:connector-curvature="0"
         style="fill:none;stroke:#000000" />
      <polygon
         points="256.121,-251.279 245.787,-248.942 252.408,-257.213 256.121,-251.279 "
         id="polygon283"
         style="fill:#000000;stroke:#000000" />
    </g>
    <!-- 32&#45;&gt;143 -->
    <g
       id="edge17"
       class="edge"
       transform="translate(44.765258,46.364037)">
      <title
         id="title286">32-&gt;143</title>
      <path
         d="m 309.5,-287.866 c 0,3.226 0,14.32 0,25.518"
         id="path288"
         inkscape:connector-curvature="0"
         style="fill:none;stroke:#000000" />
      <polygon
         points="306,-262.259 313,-262.259 313,-262.259 309.5,-252.259 "
         id="polygon290"
         style="fill:#000000;stroke:#000000" />
    </g>
    <!-- 401 -->
    <g
       id="node21"
       class="node"
       transform="translate(-115.1107,46.364037)">
      <title
         id="title293">401</title>
      <polygon
         points="417.5,-216 417.5,-252 417.5,-252 357.5,-252 357.5,-216 "
         id="polygon295"
         style="fill:none;stroke:#000000" />
      <text
         x="387.5"
         y="-230.3"
         font-size="14.00"
         id="text297"
         style="font-size:14px;text-anchor:middle">(2, a, 0)</text>
    </g>
    <!-- 32&#45;&gt;401 -->
    <g
       id="edge16"
       class="edge"
       transform="translate(44.765258,46.364037)">
      <title
         id="title300">32-&gt;401</title>
      <path
         d="m 310.376,-288.196 c 4.441,3.064 24.996,17.241 43.768,30.189"
         id="path302"
         inkscape:connector-curvature="0"
         style="fill:none;stroke:#000000" />
      <polygon
         points="352.36,-254.986 356.334,-260.748 356.334,-260.748 362.579,-252.189 "
         id="polygon304"
         style="fill:#000000;stroke:#000000" />
    </g>
    <!-- 34&#45;&gt;144 -->
    <g
       id="edge21"
       class="edge"
       transform="matrix(-1,0,0,1,266.47696,46.364037)">
      <title
         id="title307">34-&gt;144</title>
      <path
         d="m 88.6411,-216.765 c -9.7239,8.84 -21.942,19.948 -32.7447,29.768"
         id="path309"
         inkscape:connector-curvature="0"
         style="fill:none;stroke:#000000" />
      <polygon
         points="53.3814,-189.44 58.0901,-184.261 58.0901,-184.261 48.3363,-180.124 "
         id="polygon311"
         style="fill:#000000;stroke:#000000" />
    </g>
    <!-- 403 -->
    <g
       id="node22"
       class="node"
       transform="translate(59.154106,46.364037)">
      <title
         id="title314">403</title>
      <polygon
         points="137.5,-144 137.5,-180 137.5,-180 77.5,-180 77.5,-144 "
         id="polygon316"
         style="fill:none;stroke:#000000" />
      <text
         x="107.5"
         y="-158.3"
         font-size="14.00"
         id="text318"
         style="font-size:14px;text-anchor:middle">(2, a, 0)</text>
    </g>
    <!-- 34&#45;&gt;403 -->
    <g
       id="edge20"
       class="edge"
       transform="translate(59.154098,46.364037)">
      <title
         id="title321">34-&gt;403</title>
      <path
         d="m 106.747,-215.697 c 0.11,7.714 0.243,16.985 0.366,25.585"
         id="path323"
         inkscape:connector-curvature="0"
         style="fill:none;stroke:#000000" />
      <polygon
         points="107.256,-180.104 103.613,-190.053 110.612,-190.153 110.612,-190.153 "
         id="polygon325"
         style="fill:#000000;stroke:#000000" />
    </g>
    <flowRoot
       xml:space="preserve"
       id="flowRoot3259"
       style="font-size:40px;font-style:normal;font-weight:normal;line-height:125%;letter-spacing:0px;word-spacing:0px;fill:#000000;fill-opacity:1;stroke:none;font-family:Sans"
       transform="matrix(0.37375198,0,0,0.38214268,7.1862082,-428.36269)"><flowRegion
         id="flowRegion3261"><rect
           id="rect3263"
           width="263.65231"
           height="151.70586"
           x="-274.42334"
           y="133.83821" /></flowRegion><flowPara
         id="flowPara3269" /></flowRoot>    <text
       xml:space="preserve"
       style="font-size:16.34514999px;font-style:normal;font-weight:normal;line-height:125%;letter-spacing:0px;word-spacing:0px;fill:#000000;fill-opacity:1;stroke:none;font-family:Sans"
       x="-151.28474"
       y="-387.41946"
       id="text3216"
       sodipodi:linespacing="125%"><tspan
         sodipodi:role="line"
         id="tspan3218"
         x="-151.28474"
         y="-387.41946"
         style="font-size:15.98759651px">Constraints on paths may be </tspan><tspan
         sodipodi:role="line"
         x="-151.28474"
         y="-367.43497"
         style="font-size:15.98759651px"
         id="tspan7220">specified in terms of formal languages.</tspan><tspan
         sodipodi:role="line"
         x="-151.28474"
         y="-347.45047"
         style="font-size:15.98759651px"
         id="tspan7218">Context-free grammar for the </tspan><tspan
         sodipodi:role="line"
         x="-151.28474"
         y="-327.46597"
         style="font-size:15.98759651px"
         id="tspan5652">&quot;same generation&quot; </tspan><tspan
         sodipodi:role="line"
         x="-151.28474"
         y="-307.48148"
         id="tspan3234"
         style="font-size:15.98759651px">query with marked middle part:</tspan><tspan
         sodipodi:role="line"
         x="-151.28474"
         y="-287.49698"
         style="font-size:15.98759651px"
         id="tspan6832" /><tspan
         sodipodi:role="line"
         x="-151.28474"
         y="-267.46445"
         id="tspan3241"
         style="font-size:15.98759651px;font-style:oblique;-inkscape-font-specification:Sans Oblique">S -&gt; a S b</tspan><tspan
         sodipodi:role="line"
         x="-151.28474"
         y="-247.47993"
         id="tspan3243"
         style="font-size:15.98759651px;font-style:oblique;-inkscape-font-specification:Sans Oblique">S -&gt; Middle</tspan><tspan
         sodipodi:role="line"
         x="-151.28474"
         y="-227.49545"
         id="tspan3245"
         style="font-size:15.98759651px;font-style:oblique;-inkscape-font-specification:Sans Oblique">Middle -&gt; a b</tspan></text>
    <text
       xml:space="preserve"
       style="font-size:16.9727459px;font-style:normal;font-weight:normal;line-height:125%;letter-spacing:0px;word-spacing:0px;fill:#000000;fill-opacity:1;stroke:none;font-family:Sans"
       x="-151.57358"
       y="-512.86005"
       id="text3220"
       sodipodi:linespacing="125%"><tspan
         sodipodi:role="line"
         id="tspan3222"
         x="-151.57358"
         y="-512.86005"
         style="font-size:15.98759651px">Graph-structured data</tspan></text>
    <text
       xml:space="preserve"
       style="font-size:17.16007996px;font-style:normal;font-weight:normal;line-height:125%;letter-spacing:0px;word-spacing:0px;fill:#000000;fill-opacity:1;stroke:none;font-family:Sans"
       x="61.919319"
       y="-50.130779"
       id="text3224"
       sodipodi:linespacing="125%"><tspan
         sodipodi:role="line"
         id="tspan3226"
         x="61.919319"
         y="-50.130779"
         style="font-size:15.9875969px">Each leaf contains edge </tspan><tspan
         sodipodi:role="line"
         x="61.919319"
         y="-28.680679"
         id="tspan3247"
         style="font-size:15.9875969px">of original graph</tspan></text>
    <text
       xml:space="preserve"
       style="font-size:17.16007996px;font-style:normal;font-weight:normal;line-height:125%;letter-spacing:0px;word-spacing:0px;fill:#000000;fill-opacity:1;stroke:none;font-family:Sans"
       x="185.37253"
       y="-513.17267"
       id="text3249"
       sodipodi:linespacing="125%"><tspan
         sodipodi:role="line"
         x="185.37253"
         y="-513.17267"
         id="tspan3257"
         style="font-size:15.98759651px">Query result: compressed pasing forest.</tspan><tspan
         sodipodi:role="line"
         x="185.37253"
         y="-493.18817"
         style="font-size:15.98759651px"
         id="tspan7214">May be useful for complex query result investigation.</tspan><tspan
         sodipodi:role="line"
         x="185.37253"
         y="-473.20367"
         id="tspan3259"
         style="font-size:15.98759651px">Paths can be extracted by forest traversal.</tspan></text>
    <text
       xml:space="preserve"
       style="font-size:31.97519302px;font-style:normal;font-weight:normal;line-height:125%;letter-spacing:0px;word-spacing:0px;fill:#000000;fill-opacity:1;stroke:none;font-family:Sans"
       x="-29.987022"
       y="12.948978"
       id="text3261"
       sodipodi:linespacing="125%"><tspan
         sodipodi:role="line"
         x="-29.987022"
         y="12.948978"
         id="tspan3271"
         style="font-size:15.98759651px;font-weight:normal;-inkscape-font-specification:Sans">There exists path from vertex 2 to vertex 0 </tspan><tspan
         sodipodi:role="line"
         x="-29.987022"
         y="32.933475"
         style="font-size:15.98759651px;font-weight:normal;-inkscape-font-specification:Sans"
         id="tspan3301">derived from nonterminal <tspan
   style="font-weight:bold"
   id="tspan7222">S</tspan>. If you want to </tspan><tspan
         sodipodi:role="line"
         x="-29.987022"
         y="52.917969"
         id="tspan3279"
         style="font-size:15.98759651px;font-weight:normal;-inkscape-font-specification:Sans">get this path, then you should traverse result</tspan><tspan
         sodipodi:role="line"
         x="-29.987022"
         y="72.902466"
         id="tspan3287"
         style="font-size:15.98759651px;font-weight:normal;-inkscape-font-specification:Sans">from this vertex. </tspan></text>
    <g
       id="graph0-1"
       class="graph"
       transform="matrix(0.99516556,0,0,0.99516556,-94.26852,-433.19105)"
       style="fill-rule:evenodd">
      <title
         id="title5-7">g</title>
      <!-- 1 -->
      <g
         id="node1-0"
         class="node"
         style="fill-rule:evenodd"
         transform="translate(-56.228406,0)">
        <title
           id="title10-9">1</title>
        <ellipse
           style="fill:none;stroke:#000000"
           sodipodi:ry="18"
           sodipodi:rx="18"
           sodipodi:cy="-20.3057"
           sodipodi:cx="18"
           cx="18"
           cy="-20.3057"
           rx="18"
           ry="18"
           id="ellipse12-4"
           d="m 36,-20.3057 c 0,9.941125 -8.058875,17.9999997 -18,17.9999997 -9.9411255,0 -18,-8.0588747 -18,-17.9999997 0,-9.941126 8.0588745,-18 18,-18 9.941125,0 18,8.058874 18,18 z" />
        <text
           style="font-size:14px;text-anchor:middle;fill-rule:evenodd;font-family:'Times New Roman,serif'"
           x="18"
           y="-16.6057"
           font-size="14.00"
           id="text14-8">1</text>
      </g>
      <!-- 2 -->
      <g
         id="node2-8"
         class="node"
         style="fill-rule:evenodd"
         transform="translate(-56.228406,0)">
        <title
           id="title17-2">2</title>
        <ellipse
           style="fill:none;stroke:#000000"
           sodipodi:ry="18"
           sodipodi:rx="18"
           sodipodi:cy="-50.305698"
           sodipodi:cx="97"
           cx="97"
           cy="-50.305698"
           rx="18"
           ry="18"
           id="ellipse19"
           d="m 115,-50.305698 c 0,9.941125 -8.05887,18 -18,18 -9.941125,0 -18,-8.058875 -18,-18 0,-9.941126 8.058875,-18 18,-18 9.94113,0 18,8.058874 18,18 z" />
        <text
           style="font-size:14px;text-anchor:middle;fill-rule:evenodd;font-family:'Times New Roman,serif'"
           x="97"
           y="-46.605701"
           font-size="14.00"
           id="text21-4">2</text>
      </g>
      <!-- 1&#45;&gt;2 -->
      <g
         id="edge1-5"
         class="edge"
         style="fill-rule:evenodd"
         transform="translate(-56.228406,0)">
        <title
           id="title24-5">1-&gt;2</title>
        <path
           style="fill:none;stroke:#000000"
           inkscape:connector-curvature="0"
           d="m 34.9544,-26.5217 c 10.3243,-4.0224 23.9884,-9.3461 35.7712,-13.9368"
           id="path26-1" />
        <polygon
           style="fill:#000000;fill-rule:evenodd;stroke:#000000"
           points="72.0188,-37.206 69.4776,-43.7285 69.4776,-43.7285 80.066,-44.0976 "
           id="polygon28-7" />
        <text
           style="font-size:14px;text-anchor:middle;fill-rule:evenodd;font-family:'Times New Roman,serif'"
           x="57.5"
           y="-39.105701"
           font-size="14.00"
           id="text30">a</text>
      </g>
      <!-- 0 -->
      <g
         id="node3-1"
         class="node"
         style="fill-rule:evenodd"
         transform="translate(-56.228406,0)">
        <title
           id="title33">0</title>
        <ellipse
           style="fill:none;stroke:#000000"
           sodipodi:ry="18"
           sodipodi:rx="18"
           sodipodi:cy="-20.3057"
           sodipodi:cx="176"
           cx="176"
           cy="-20.3057"
           rx="18"
           ry="18"
           id="ellipse35"
           d="m 194,-20.3057 c 0,9.941125 -8.05887,17.9999997 -18,17.9999997 -9.94113,0 -18,-8.0588747 -18,-17.9999997 0,-9.941126 8.05887,-18 18,-18 9.94113,0 18,8.058874 18,18 z" />
        <text
           style="font-size:14px;text-anchor:middle;fill-rule:evenodd;font-family:'Times New Roman,serif'"
           x="176"
           y="-16.6057"
           font-size="14.00"
           id="text37">0</text>
      </g>
      <!-- 2&#45;&gt;0 -->
      <g
         id="edge2-1"
         class="edge"
         style="fill-rule:evenodd"
         transform="translate(-56.228406,0)">
        <title
           id="title40">2-&gt;0</title>
        <path
           style="fill:none;stroke:#000000"
           inkscape:connector-curvature="0"
           d="m 113.954,-44.0896 c 10.325,4.0224 23.989,9.3461 35.772,13.9368"
           id="path42" />
        <polygon
           style="fill:#000000;fill-rule:evenodd;stroke:#000000"
           points="148.478,-26.8829 151.019,-33.4053 151.019,-33.4053 159.066,-26.5137 "
           id="polygon44" />
        <text
           style="font-size:14px;text-anchor:middle;fill-rule:evenodd;font-family:'Times New Roman,serif'"
           x="136.5"
           y="-39.105701"
           font-size="14.00"
           id="text46">a</text>
      </g>
      <!-- 0&#45;&gt;1 -->
      <g
         id="edge3-5"
         class="edge"
         style="fill-rule:evenodd"
         transform="translate(-56.228406,0)">
        <title
           id="title49">0-&gt;1</title>
        <path
           style="fill:none;stroke:#000000"
           inkscape:connector-curvature="0"
           d="m 158.323,-16.0496 c -11.966,2.827 -28.523,6.27848 -43.323,7.74395 -15.9221,1.5766 -20.0779,1.5766 -36,0 C 68.0158,-9.3933 56.0637,-11.5749 45.739,-13.7833"
           id="path51" />
        <polygon
           style="fill:#000000;fill-rule:evenodd;stroke:#000000"
           points="46.2021,-17.2666 44.6639,-10.4377 44.6639,-10.4377 35.6774,-16.0496 "
           id="polygon53" />
        <text
           style="font-size:14px;text-anchor:middle;fill-rule:evenodd;font-family:'Times New Roman,serif'"
           x="97"
           y="-12.1057"
           font-size="14.00"
           id="text55">a</text>
      </g>
      <!-- 3 -->
      <g
         id="node4-2"
         class="node"
         style="fill-rule:evenodd"
         transform="translate(-56.228406,0)">
        <title
           id="title58">3</title>
        <ellipse
           style="fill:none;stroke:#000000"
           sodipodi:ry="18"
           sodipodi:rx="18"
           sodipodi:cy="-20.3057"
           sodipodi:cx="256"
           cx="256"
           cy="-20.3057"
           rx="18"
           ry="18"
           id="ellipse60"
           d="m 274,-20.3057 c 0,9.941125 -8.05887,17.9999997 -18,17.9999997 -9.94113,0 -18,-8.0588747 -18,-17.9999997 0,-9.941126 8.05887,-18 18,-18 9.94113,0 18,8.058874 18,18 z" />
        <text
           style="font-size:14px;text-anchor:middle;fill-rule:evenodd;font-family:'Times New Roman,serif'"
           x="256"
           y="-16.6057"
           font-size="14.00"
           id="text62">3</text>
      </g>
      <!-- 0&#45;&gt;3 -->
      <g
         id="edge4-7"
         class="edge"
         style="fill-rule:evenodd"
         transform="translate(-56.228406,0)">
        <title
           id="title65">0-&gt;3</title>
        <path
           style="fill:none;stroke:#000000"
           inkscape:connector-curvature="0"
           d="m 194.311,-20.3057 c 9.795,0 22.267,0 33.354,0"
           id="path67" />
        <polygon
           style="fill:#000000;fill-rule:evenodd;stroke:#000000"
           points="227.738,-16.8058 227.738,-23.8058 227.738,-23.8058 237.738,-20.3057 "
           id="polygon69" />
        <text
           style="font-size:14px;text-anchor:middle;fill-rule:evenodd;font-family:'Times New Roman,serif'"
           x="216"
           y="-24.1057"
           font-size="14.00"
           id="text71">b</text>
      </g>
      <!-- 3&#45;&gt;0 -->
      <g
         id="edge5-6"
         class="edge"
         style="fill-rule:evenodd"
         transform="translate(-56.228406,0)">
        <title
           id="title74">3-&gt;0</title>
        <path
           style="fill:none;stroke:#000000"
           inkscape:connector-curvature="0"
           d="M 241.477,-9.13054 C 233.212,-3.63475 222.284,1.30565 212,-1.30565 208.042,-2.31069 204.047,-3.86331 200.244,-5.65736"
           id="path76" />
        <polygon
           style="fill:#000000;fill-rule:evenodd;stroke:#000000"
           points="201.779,-8.80522 198.475,-2.6341 198.475,-2.6341 191.311,-10.4399 "
           id="polygon78" />
        <text
           style="font-size:14px;text-anchor:middle;fill-rule:evenodd;font-family:'Times New Roman,serif'"
           x="216"
           y="-5.1056499"
           font-size="14.00"
           id="text80">b</text>
      </g>
    </g>
    <path
       style="fill:none;stroke:#000000;stroke-width:1px;stroke-linecap:butt;stroke-linejoin:miter;stroke-opacity:1;marker-end:url(#Arrow2Lend)"
       d="m 299.5466,561.89997 c 6.76396,-42.51629 6.76396,-42.51629 6.76396,-42.51629"
       id="path5654"
       inkscape:connector-curvature="0"
       transform="matrix(0.79937984,0,0,0.79937984,-4.048062,-511.6)" />
    <path
       style="fill:none;stroke:#000000;stroke-width:1px;stroke-linecap:butt;stroke-linejoin:miter;stroke-opacity:1;marker-end:url(#Arrow2Lend)"
       d="M 299.5466,566.73137 C 401.97221,520.34996 401.97221,520.34996 401.97221,520.34996"
       id="path5656"
       inkscape:connector-curvature="0"
       transform="matrix(0.79937984,0,0,0.79937984,-4.048062,-511.6)" />
    <path
       style="fill:none;stroke:#000000;stroke-width:1px;stroke-linecap:butt;stroke-linejoin:miter;stroke-opacity:1;marker-mid:none;marker-end:url(#Arrow2Lend)"
       d="m 300.51288,574.46161 c 56.0442,8.69651 56.0442,8.69651 56.0442,8.69651"
       id="path5658"
       inkscape:connector-curvature="0"
       transform="matrix(0.79937984,0,0,0.79937984,-4.048062,-511.6)" />
    <path
       style="fill:none;stroke:#000000;stroke-width:1px;stroke-linecap:butt;stroke-linejoin:miter;stroke-opacity:1;marker-end:url(#Arrow2Lend)"
       d="M 350.75941,671.08954 C 456.08386,602.48371 456.08386,602.48371 456.08386,602.48371"
       id="path6648"
       inkscape:connector-curvature="0"
       transform="matrix(0.79937984,0,0,0.79937984,-4.048062,-511.6)" />
    <text
       xml:space="preserve"
       style="font-size:40px;font-style:normal;font-weight:normal;line-height:125%;letter-spacing:0px;word-spacing:0px;fill:#000000;fill-opacity:1;stroke:none;font-family:Sans"
       x="176.82912"
       y="206.30917"
       id="text6834"
       sodipodi:linespacing="125%"
       transform="matrix(0.79937984,0,0,0.79937984,-4.048062,-511.6)"><tspan
         sodipodi:role="line"
         id="tspan6836"
         x="176.82912"
         y="206.30917">+ =&gt;</tspan></text>
    <path
       style="fill:none;stroke:#000000;stroke-width:1px;stroke-linecap:butt;stroke-linejoin:miter;stroke-opacity:1;marker-end:url(#Arrow2Lend)"
       d="m 89.863981,114.51263 c 86.965139,57.97676 86.965139,57.97676 86.965139,57.97676"
       id="path6838"
       inkscape:connector-curvature="0"
       transform="matrix(0.79937984,0,0,0.79937984,-4.048062,-511.6)" />
    <path
       style="fill:none;stroke:#000000;stroke-width:1px;stroke-linecap:butt;stroke-linejoin:miter;stroke-opacity:1;marker-end:url(#Arrow2Lend)"
       d="M -64.740718,322.2627 C 143.97562,254.62314 177.7954,205.34289 177.7954,205.34289"
       id="path7022"
       inkscape:connector-curvature="0"
       transform="matrix(0.79937984,0,0,0.79937984,-4.048062,-511.6)"
       sodipodi:nodetypes="cc" />
  </g>
</svg>
