<?xml version="1.0" encoding="UTF-8" standalone="no"?>
<svg
   xmlns:dc="http://purl.org/dc/elements/1.1/"
   xmlns:cc="http://web.resource.org/cc/"
   xmlns:rdf="http://www.w3.org/1999/02/22-rdf-syntax-ns#"
   xmlns:svg="http://www.w3.org/2000/svg"
   xmlns="http://www.w3.org/2000/svg"
   xmlns:sodipodi="http://sodipodi.sourceforge.net/DTD/sodipodi-0.dtd"
   xmlns:inkscape="http://www.inkscape.org/namespaces/inkscape"
   width="362.643"
   height="186.816"
   id="svg2"
   sodipodi:version="0.32"
   inkscape:version="0.44.1"
   sodipodi:docname="pushdown-overview.svg"
   sodipodi:docbase="/home/hoogeboo/colleges/tarragona">
  <metadata
     id="metadata141">
    <rdf:RDF>
      <cc:Work
         rdf:about="">
        <dc:format>image/svg+xml</dc:format>
        <dc:type
           rdf:resource="http://purl.org/dc/dcmitype/StillImage" />
      </cc:Work>
    </rdf:RDF>
  </metadata>
  <sodipodi:namedview
     inkscape:window-height="624"
     inkscape:window-width="928"
     inkscape:pageshadow="2"
     inkscape:pageopacity="0.0"
     guidetolerance="10.0"
     gridtolerance="10.0"
     objecttolerance="10.0"
     borderopacity="1.0"
     bordercolor="#666666"
     pagecolor="#ffffff"
     id="base"
     inkscape:zoom="2.1786143"
     inkscape:cx="181.3215"
     inkscape:cy="93.178493"
     inkscape:window-x="0"
     inkscape:window-y="0"
     inkscape:current-layer="svg2" />
  <defs
     id="defs4">
    <marker
       id="ArrowEnd"
       viewBox="0 0 10 10"
       refX="0"
       refY="5"
       markerUnits="strokeWidth"
       markerWidth="4"
       markerHeight="3"
       orient="auto">
      <path
         d="M 0 0 L 10 5 L 0 10 z"
         id="path7" />
    </marker>
    <marker
       id="ArrowStart"
       viewBox="0 0 10 10"
       refX="10"
       refY="5"
       markerUnits="strokeWidth"
       markerWidth="4"
       markerHeight="3"
       orient="auto">
      <path
         d="M 10 0 L 0 5 L 10 10 z"
         id="path10" />
    </marker>
  </defs>
  <g
     id="g12">
    <path
       style="stroke:#000000; stroke-width:1.55905; fill:none"
       d="M 8.17074 132.894L 8.17074 117.304C 8.17074 117.304 8.17074 117.304 8.17074 117.304L 242.026 117.304C 242.026 117.304 242.026 117.304 242.026 117.304L 242.026 148.484C 242.026 148.484 242.026 148.484 242.026 148.484L 8.17074 148.484C 8.17074 148.484 8.17074 148.484 8.17074 148.484L 8.17074 132.894z"
       id="path14" />
    <path
       style="stroke:#000000; stroke-width:1.55905; fill:none"
       d="M 8.17074 132.866L 8.17074 117.276C 8.17074 117.276 8.17074 117.276 8.17074 117.276L 39.3499 117.276C 39.3499 117.276 39.3499 117.276 39.3499 117.276L 39.3499 148.456C 39.3499 148.456 39.3499 148.456 39.3499 148.456L 8.17074 148.456C 8.17074 148.456 8.17074 148.456 8.17074 148.456L 8.17074 132.866z"
       id="path16" />
    <path
       style="stroke:#000000; stroke-width:1.55905; fill:none"
       d="M 101.768 132.866L 101.768 117.276C 101.768 117.276 101.768 117.276 101.768 117.276L 132.948 117.276C 132.948 117.276 132.948 117.276 132.948 117.276L 132.948 148.456C 132.948 148.456 132.948 148.456 132.948 148.456L 101.768 148.456C 101.768 148.456 101.768 148.456 101.768 148.456L 101.768 132.866z"
       id="path18" />
    <path
       style="stroke:#000000; stroke-width:1.55905; fill:none"
       d="M 132.85 132.866L 132.85 117.276C 132.85 117.276 132.85 117.276 132.85 117.276L 164.03 117.276C 164.03 117.276 164.03 117.276 164.03 117.276L 164.03 148.456C 164.03 148.456 164.03 148.456 164.03 148.456L 132.85 148.456C 132.85 148.456 132.85 148.456 132.85 148.456L 132.85 132.866z"
       id="path20" />
    <path
       style="stroke:none; fill-rule:evenodd; fill:#3d993d"
       d="M 150.737 129.694C 150.561 129.362 149.987 128.519 148.784 128.519C 146.436 128.519 143.85 131.261 143.85 134.179C 143.85 136.23 145.171 137.413 146.69 137.413C 147.952 137.413 149.038 136.402 149.393 136.007C 149.745 137.374 151.089 137.413 151.327 137.413C 152.233 137.413 152.686 136.659 152.847 136.323C 153.241 135.612 153.514 134.46 153.514 134.382C 153.514 134.265 153.436 134.124 153.202 134.124C 152.968 134.124 152.929 134.241 152.807 134.726C 152.534 135.796 152.159 136.812 151.39 136.812C 150.936 136.812 150.761 136.441 150.761 135.89C 150.761 135.558 150.936 134.89 151.054 134.402C 151.171 133.913 151.464 132.734 151.546 132.382C 151.741 131.659 151.761 131.538 151.94 130.894C 152.038 130.425 152.253 129.601 152.253 129.503C 152.253 129.054 151.878 128.898 151.624 128.898C 151.331 128.898 150.839 129.093 150.737 129.702L 150.737 129.694zM 149.378 135.062C 148.39 136.405 147.358 136.816 146.722 136.816C 145.811 136.816 145.354 135.999 145.354 134.987C 145.354 134.073 145.89 131.987 146.323 131.132C 146.897 129.944 147.87 129.124 148.78 129.124C 150.065 129.124 150.444 130.546 150.444 130.78C 150.444 130.855 149.952 132.765 149.831 133.273C 149.573 134.187 149.573 134.226 149.378 135.066L 149.378 135.062z"
       id="path22" />
    <path
       style="stroke:#000000; stroke-width:1.55905; fill:none"
       d="M 210.85 132.866L 210.85 117.276C 210.85 117.276 210.85 117.276 210.85 117.276L 242.03 117.276C 242.03 117.276 242.03 117.276 242.03 117.276L 242.03 148.456C 242.03 148.456 242.03 148.456 242.03 148.456L 210.85 148.456C 210.85 148.456 210.85 148.456 210.85 148.456L 210.85 132.866z"
       id="path24" />
    <path
       style="stroke:none; fill-rule:evenodd; fill:#000000"
       d="M 89.8389 156.679C 89.8389 156.015 89.6819 155.819 88.9679 155.819L 88.7919 155.819C 88.1199 155.819 87.9209 155.976 87.9209 156.679L 87.9209 156.855C 87.9209 157.519 88.0769 157.714 88.7919 157.714L 88.9679 157.714C 89.6399 157.714 89.8389 157.558 89.8389 156.855L 89.8389 156.679zM 89.6509 160.187C 89.6509 159.792 89.6509 159.319 88.9009 159.319C 88.1509 159.319 88.1509 159.792 88.1509 160.187L 88.1509 168.741C 88.1509 169.136 88.1509 169.609 88.9009 169.609C 89.6509 169.609 89.6509 169.136 89.6509 168.741L 89.6509 160.187z"
       id="path26" />
    <path
       style="stroke:none; fill-rule:evenodd; fill:#000000"
       d="M 102.05 162.456C 102.05 160.257 100.987 159.089 98.6979 159.089C 96.8659 159.089 95.7449 160.237 95.1899 161.308L 95.1709 161.308L 95.1709 160.159C 95.1709 159.784 95.1709 159.288 94.4249 159.288C 93.6589 159.288 93.6589 159.761 93.6589 160.159L 93.6589 168.745C 93.6589 169.159 93.6589 169.616 94.4559 169.616C 95.2529 169.616 95.2529 169.163 95.2529 168.745L 95.2529 163.601C 95.2529 161.776 96.3859 160.323 98.1039 160.323C 100.214 160.323 100.448 161.515 100.448 162.589L 100.448 168.745C 100.448 169.159 100.448 169.616 101.245 169.616C 102.042 169.616 102.042 169.163 102.042 168.745L 102.05 162.456z"
       id="path28" />
    <path
       style="stroke:none; fill-rule:evenodd; fill:#000000"
       d="M 107.647 168.167C 108.061 168.839 108.948 169.851 110.487 169.851C 113.03 169.851 115.343 167.589 115.343 164.472C 115.343 161.476 113.343 159.112 110.913 159.112C 109.925 159.112 108.62 159.491 107.593 160.839L 107.593 160.187C 107.593 159.792 107.593 159.316 106.823 159.316C 106.054 159.316 106.054 159.788 106.054 160.187L 106.054 171.538C 106.054 171.952 106.054 172.409 106.85 172.409C 107.647 172.409 107.647 171.956 107.647 171.538L 107.647 168.167zM 107.647 162.378C 107.647 162.003 107.647 161.984 107.862 161.667C 108.589 160.616 109.612 160.382 110.241 160.382C 112.147 160.382 113.741 162.187 113.741 164.444C 113.741 166.804 111.952 168.569 109.983 168.569C 109.081 168.569 108.608 168.097 108.39 167.878C 108.292 167.78 107.643 167.109 107.643 166.312L 107.647 162.378z"
       id="path30" />
    <path
       style="stroke:none; fill-rule:evenodd; fill:#000000"
       d="M 126.85 160.187C 126.85 159.773 126.85 159.319 126.054 159.319C 125.257 159.319 125.257 159.773 125.257 160.187L 125.257 165.792C 125.257 167.546 123.948 168.612 122.151 168.612C 120.315 168.612 120.061 168.042 120.061 166.819L 120.061 160.187C 120.061 159.776 120.061 159.319 119.264 159.319C 118.468 159.319 118.468 159.773 118.468 160.187L 118.468 166.866C 118.468 169.218 119.905 169.812 121.581 169.812C 123.608 169.812 124.811 168.667 125.323 167.835L 125.323 168.741C 125.323 169.136 125.323 169.609 126.089 169.609C 126.858 169.609 126.858 169.136 126.858 168.741L 126.85 160.187z"
       id="path32" />
    <path
       style="stroke:none; fill-rule:evenodd; fill:#000000"
       d="M 132.952 160.519L 135.71 160.519C 135.944 160.519 136.581 160.519 136.581 159.929C 136.581 159.323 135.968 159.323 135.71 159.323L 132.952 159.323L 132.952 157.21C 132.952 156.851 132.952 156.323 132.222 156.323C 131.472 156.323 131.472 156.827 131.472 157.21L 131.472 159.323L 130.089 159.323C 129.854 159.323 129.222 159.323 129.222 159.913C 129.222 160.519 129.839 160.519 130.1 160.519L 131.46 160.519L 131.46 166.937C 131.46 168.284 131.874 169.816 133.511 169.816C 133.784 169.816 134.655 169.796 135.643 169.441C 135.702 169.421 137.007 168.948 137.007 168.569C 137.007 168.511 136.909 168.194 136.87 168.034C 136.811 167.8 136.772 167.64 136.554 167.64C 136.456 167.64 136.378 167.726 136.276 167.792C 135.643 168.316 134.89 168.62 134.054 168.62C 133.143 168.62 132.964 167.577 132.964 166.675L 132.952 160.519z"
       id="path34" />
    <path
       style="stroke:none; fill-rule:evenodd; fill:#000000"
       d="M 150.249 160.519L 153.007 160.519C 153.241 160.519 153.878 160.519 153.878 159.929C 153.878 159.323 153.264 159.323 153.007 159.323L 150.249 159.323L 150.249 157.21C 150.249 156.851 150.249 156.323 149.518 156.323C 148.768 156.323 148.768 156.827 148.768 157.21L 148.768 159.323L 147.386 159.323C 147.151 159.323 146.518 159.323 146.518 159.913C 146.518 160.519 147.136 160.519 147.397 160.519L 148.757 160.519L 148.757 166.937C 148.757 168.284 149.171 169.816 150.807 169.816C 151.081 169.816 151.952 169.796 152.94 169.441C 152.999 169.421 154.304 168.948 154.304 168.569C 154.304 168.511 154.206 168.194 154.167 168.034C 154.108 167.8 154.069 167.64 153.85 167.64C 153.753 167.64 153.675 167.726 153.573 167.792C 152.94 168.316 152.186 168.62 151.35 168.62C 150.44 168.62 150.261 167.577 150.261 166.675L 150.249 160.519z"
       id="path36" />
    <path
       style="stroke:none; fill-rule:evenodd; fill:#000000"
       d="M 164.749 162.597C 164.749 160.659 163.206 159.019 160.831 159.019C 159.882 159.019 158.718 159.132 157.409 159.702C 157.37 159.737 157.014 159.898 156.897 159.976C 156.761 160.054 156.761 160.21 156.761 160.249C 156.761 160.464 156.761 161.284 157.112 161.284C 157.171 161.284 157.21 161.284 157.487 161.116C 158.69 160.405 159.714 160.218 160.78 160.218C 162.397 160.218 163.147 161.359 163.147 162.698L 163.147 163.484C 158.057 163.601 156.35 165.237 156.35 166.89C 156.35 168.308 157.432 169.804 159.288 169.804C 160.589 169.804 162.304 169.37 163.21 168.183L 163.21 168.734C 163.21 169.128 163.21 169.601 163.975 169.601C 164.741 169.601 164.741 169.128 164.741 168.734L 164.749 162.597zM 163.147 166.425C 163.147 168.612 160.39 168.612 160.214 168.612C 158.956 168.612 157.85 167.933 157.85 166.886C 157.85 165.784 158.874 165.12 159.78 164.78C 161.018 164.319 162.202 164.261 163.147 164.218L 163.147 166.425z"
       id="path38" />
    <path
       style="stroke:none; fill-rule:evenodd; fill:#000000"
       d="M 170.448 168.167C 170.862 168.839 171.749 169.851 173.288 169.851C 175.831 169.851 178.143 167.589 178.143 164.472C 178.143 161.476 176.143 159.112 173.714 159.112C 172.725 159.112 171.421 159.491 170.393 160.839L 170.393 160.187C 170.393 159.792 170.393 159.316 169.624 159.316C 168.854 159.316 168.854 159.788 168.854 160.187L 168.854 171.538C 168.854 171.952 168.854 172.409 169.651 172.409C 170.448 172.409 170.448 171.956 170.448 171.538L 170.448 168.167zM 170.448 162.378C 170.448 162.003 170.448 161.984 170.663 161.667C 171.39 160.616 172.413 160.382 173.042 160.382C 174.948 160.382 176.542 162.187 176.542 164.444C 176.542 166.804 174.753 168.569 172.784 168.569C 171.882 168.569 171.409 168.097 171.19 167.878C 171.093 167.78 170.444 167.109 170.444 166.312L 170.448 162.378z"
       id="path40" />
    <path
       style="stroke:none; fill-rule:evenodd; fill:#000000"
       d="M 189.276 164.714C 189.69 164.714 190.147 164.714 190.147 163.909C 190.147 161.081 188.542 159.015 185.745 159.015C 182.991 159.015 180.85 161.464 180.85 164.394C 180.85 167.417 183.202 169.812 186.069 169.812C 187.194 169.812 188.401 169.476 189.429 168.761C 190.022 168.347 190.022 168.269 190.022 168.109C 190.022 167.714 190.022 167.097 189.686 167.097C 189.569 167.097 189.491 167.175 189.35 167.3C 188.323 168.261 187.057 168.612 186.089 168.612C 184.034 168.612 182.472 166.796 182.354 164.714L 189.276 164.714zM 182.35 163.714C 182.608 161.652 184.077 160.214 185.729 160.214C 188.671 160.214 188.807 163.066 188.847 163.714L 182.35 163.714z"
       id="path42" />
    <path
       style="stroke:none; fill-rule:evenodd; fill:#000000"
       d="M 62.2489 132.429C 62.2489 131.757 61.7139 131.319 61.1589 131.319C 60.4869 131.319 60.0499 131.851 60.0499 132.409C 60.0499 133.081 60.5809 133.519 61.1399 133.519C 61.8109 133.519 62.2489 132.987 62.2489 132.429z"
       id="path44" />
    <path
       style="stroke:none; fill-rule:evenodd; fill:#000000"
       d="M 71.5499 132.429C 71.5499 131.757 71.0139 131.319 70.4599 131.319C 69.7879 131.319 69.3499 131.851 69.3499 132.409C 69.3499 133.081 69.8819 133.519 70.4399 133.519C 71.1119 133.519 71.5499 132.987 71.5499 132.429z"
       id="path46" />
    <path
       style="stroke:none; fill-rule:evenodd; fill:#000000"
       d="M 80.9519 132.429C 80.9519 131.757 80.4169 131.319 79.8619 131.319C 79.1899 131.319 78.7529 131.851 78.7529 132.409C 78.7529 133.081 79.2839 133.519 79.8429 133.519C 80.5139 133.519 80.9519 132.987 80.9519 132.429z"
       id="path48" />
    <path
       style="stroke:none; fill-rule:evenodd; fill:#000000"
       d="M 177.651 132.429C 177.651 131.757 177.116 131.319 176.561 131.319C 175.89 131.319 175.452 131.851 175.452 132.409C 175.452 133.081 175.983 133.519 176.542 133.519C 177.214 133.519 177.651 132.987 177.651 132.429z"
       id="path50" />
    <path
       style="stroke:none; fill-rule:evenodd; fill:#000000"
       d="M 187.05 132.429C 187.05 131.757 186.514 131.319 185.96 131.319C 185.288 131.319 184.85 131.851 184.85 132.409C 184.85 133.081 185.382 133.519 185.94 133.519C 186.612 133.519 187.05 132.987 187.05 132.429z"
       id="path52" />
    <path
       style="stroke:none; fill-rule:evenodd; fill:#000000"
       d="M 196.35 132.429C 196.35 131.757 195.815 131.319 195.261 131.319C 194.589 131.319 194.151 131.851 194.151 132.409C 194.151 133.081 194.682 133.519 195.241 133.519C 195.913 133.519 196.35 132.987 196.35 132.429z"
       id="path54" />
    <path
       style="stroke:none; fill-rule:evenodd; fill:#000000"
       d="M 164.522 21.6667C 160.897 22.6158 159.05 25.7647 159.05 28.1938C 159.05 30.8618 161.065 32.3117 163.151 32.3117C 165.983 32.3117 168.143 28.8817 168.143 25.4017C 168.143 23.1158 167.057 21.8507 166.237 20.9207C 165.44 19.9908 163.749 18.0378 163.749 16.9677C 163.749 16.4438 164.249 15.9207 165.042 15.9207C 165.831 15.9207 166.358 16.2567 167.003 16.6397C 167.577 16.9987 168.007 17.1907 168.296 17.1907C 168.893 17.1907 169.276 16.6198 169.276 16.2137C 169.276 15.6437 168.991 15.5688 167.764 15.3077C 166.401 15.0227 165.702 15.0227 165.679 15.0227C 164.651 15.0227 162.948 15.5258 162.948 17.5497C 162.948 18.7878 163.636 20.1437 164.518 21.6667L 164.522 21.6667zM 164.874 22.3037C 165.702 23.7057 166.249 24.8937 166.249 26.3618C 166.249 28.2137 165.182 31.6087 163.171 31.6087C 162.225 31.6087 160.753 30.9948 160.753 28.8077C 160.753 27.5728 161.464 23.2057 164.878 22.2997L 164.874 22.3037z"
       id="path56" />
    <path
       style="stroke:#000000; stroke-width:1.55905; fill:none"
       d="M 148.483 47.1477L 148.483 8.17075C 148.483 8.17075 148.483 8.17075 148.483 8.17075L 257.616 8.17075C 257.616 8.17075 257.616 8.17075 257.616 8.17075L 257.616 86.1198C 257.616 86.1198 257.616 86.1198 257.616 86.1198L 148.483 86.1198C 148.483 86.1198 148.483 86.1198 148.483 86.1198L 148.483 47.1477z"
       id="path58" />
    <path
       style="stroke:#000000; stroke-width:1.55905; fill:none"
       d="M 242.026 58.0688L 243.159 58.0688C 249.413 58.0688 254.487 63.1397 254.487 69.3977L 254.487 71.6588C 254.487 77.9128 249.417 82.9868 243.159 82.9868L 240.893 82.9868C 234.64 82.9868 229.569 77.9167 229.569 71.6628L 229.569 69.3977C 229.569 63.1437 234.64 58.0688 240.893 58.0688L 242.026 58.0688z"
       id="path60" />
    <path
       style="stroke:none; fill-rule:evenodd; fill:#b83333"
       d="M 237.581 75.4287C 237.425 76.0577 237.386 76.2137 236.593 76.2137C 236.319 76.2137 236.081 76.2137 236.081 76.5577C 236.081 76.7177 236.257 76.8117 236.354 76.8117C 236.55 76.8117 236.628 76.7527 238.097 76.7527C 239.522 76.7527 239.936 76.8117 240.073 76.8117C 240.151 76.8117 240.448 76.8117 240.448 76.4677C 240.448 76.2137 240.175 76.2137 239.936 76.2137C 238.987 76.2137 238.987 76.0967 238.987 75.9167C 238.987 75.7798 239.343 74.3698 239.936 72.0457C 240.194 72.4987 240.804 73.2137 241.874 73.2137C 244.307 73.2137 246.847 70.4128 246.847 67.5537C 246.847 65.6047 245.577 64.3188 243.995 64.3188C 242.807 64.3188 241.858 65.1047 241.284 65.6787C 240.87 64.3188 239.542 64.3188 239.347 64.3188C 238.636 64.3188 238.14 64.7687 237.823 65.3737C 237.37 66.2527 237.151 67.2487 237.151 67.3077C 237.151 67.4837 237.288 67.5617 237.448 67.5617C 237.702 67.5617 237.722 67.4868 237.862 66.9868C 238.116 66.0107 238.475 64.9167 239.288 64.9167C 239.78 64.9167 239.921 65.3658 239.921 65.8427C 239.921 66.0378 239.843 66.5107 239.804 66.6667L 237.581 75.4287zM 241.237 66.9637C 241.335 66.6357 241.335 66.5967 241.636 66.2448C 242.393 65.3698 243.249 64.9207 243.968 64.9207C 244.964 64.9207 245.343 65.8737 245.343 66.7527C 245.343 67.4717 244.905 69.5577 244.307 70.7057C 243.792 71.7567 242.831 72.6118 241.893 72.6118C 240.538 72.6118 240.218 71.0927 240.218 70.9557C 240.218 70.9207 240.257 70.7057 240.276 70.6477L 241.237 66.9637z"
       id="path62" />
    <path
       style="stroke:none; fill-rule:evenodd; fill:#000000"
       d="M 233.85 98.5497C 233.85 97.9167 233.589 97.3188 233.097 96.8347C 232.374 96.1707 231.604 96.0227 230.866 95.8857C 230.507 95.8188 229.948 95.7057 229.768 95.6707C 229.179 95.5577 228.358 95.1707 228.358 94.4207C 228.358 93.1198 230.14 93.1198 230.421 93.1198C 231.675 93.1198 232.354 93.4987 232.8 93.7337C 233.061 93.8937 233.097 93.8937 233.143 93.8937C 233.323 93.8937 233.358 93.7257 233.39 93.5417C 233.405 93.4407 233.487 93.0688 233.487 92.9868C 233.487 92.8037 233.374 92.7527 233.057 92.6357C 232.202 92.2647 231.475 92.1277 230.534 92.1277C 228.85 92.1277 227.151 92.7567 227.151 94.6047C 227.151 96.5807 229.432 96.9987 230.089 97.1317C 231.366 97.3618 231.663 97.4128 232.073 97.6938C 232.366 97.9088 232.647 98.2257 232.647 98.6907C 232.647 100.12 230.815 100.12 230.503 100.12C 229.62 100.12 228.608 99.8897 227.64 99.2527C 227.511 99.1397 227.479 99.1397 227.413 99.1397C 227.218 99.1397 227.202 99.2687 227.151 99.5187C 227.132 99.6158 227.034 100.011 227.034 100.077C 227.034 100.241 227.132 100.292 227.46 100.472C 228.034 100.769 229.136 101.183 230.499 101.183C 233.405 101.183 233.85 99.4367 233.85 98.5537L 233.85 98.5497z"
       id="path64" />
    <path
       style="stroke:none; fill-rule:evenodd; fill:#000000"
       d="M 237.85 93.4167L 240.147 93.4167C 240.343 93.4167 240.874 93.4167 240.874 92.9287C 240.874 92.4207 240.362 92.4207 240.147 92.4207L 237.85 92.4207L 237.85 90.6628C 237.85 90.3618 237.85 89.9247 237.241 89.9247C 236.616 89.9247 236.616 90.3427 236.616 90.6628L 236.616 92.4207L 235.464 92.4207C 235.268 92.4207 234.741 92.4207 234.741 92.9088C 234.741 93.4167 235.245 93.4167 235.456 93.4167L 236.557 93.4167L 236.557 98.7997C 236.557 99.9327 236.905 101.214 238.284 101.214C 238.514 101.214 239.249 101.198 240.077 100.898C 240.124 100.882 241.225 100.48 241.225 100.159C 241.225 100.112 241.143 99.8427 241.112 99.7057C 241.065 99.5067 241.03 99.3698 240.85 99.3698C 240.768 99.3698 240.702 99.4438 240.62 99.5027C 240.093 99.9557 239.464 100.222 238.768 100.222C 238.011 100.222 237.862 99.3467 237.862 98.5887L 237.85 93.4167z"
       id="path66" />
    <path
       style="stroke:none; fill-rule:evenodd; fill:#000000"
       d="M 249.952 95.1357C 249.952 93.5027 248.663 92.1198 246.682 92.1198C 245.89 92.1198 244.917 92.2217 243.827 92.7097C 243.796 92.7408 243.499 92.8777 243.397 92.9438C 243.284 93.0107 243.284 93.1437 243.284 93.1787C 243.284 93.3618 243.284 94.0728 243.581 94.0728C 243.628 94.0728 243.663 94.0728 243.893 93.9247C 244.905 93.2878 245.768 93.1198 246.663 93.1198C 248.022 93.1198 248.655 94.0847 248.655 95.2137L 248.655 95.8777C 244.315 95.9757 242.858 97.3547 242.858 98.7527C 242.858 99.9478 243.772 101.214 245.339 101.214C 246.436 101.214 247.886 100.851 248.651 99.8507L 248.651 100.316C 248.651 100.648 248.651 101.046 249.3 101.046C 249.948 101.046 249.948 100.648 249.948 100.316L 249.952 95.1357zM 248.651 98.3737C 248.651 100.214 246.311 100.214 246.163 100.214C 245.097 100.214 244.159 99.6437 244.159 98.7647C 244.159 97.8387 245.026 97.2798 245.796 96.9908C 246.847 96.6047 247.85 96.5537 248.655 96.5187L 248.651 98.3737z"
       id="path68" />
    <path
       style="stroke:none; fill-rule:evenodd; fill:#000000"
       d="M 255.05 93.4167L 257.347 93.4167C 257.542 93.4167 258.073 93.4167 258.073 92.9287C 258.073 92.4207 257.561 92.4207 257.347 92.4207L 255.05 92.4207L 255.05 90.6628C 255.05 90.3618 255.05 89.9247 254.44 89.9247C 253.815 89.9247 253.815 90.3427 253.815 90.6628L 253.815 92.4207L 252.663 92.4207C 252.468 92.4207 251.94 92.4207 251.94 92.9088C 251.94 93.4167 252.444 93.4167 252.655 93.4167L 253.757 93.4167L 253.757 98.7997C 253.757 99.9327 254.104 101.214 255.483 101.214C 255.714 101.214 256.448 101.198 257.276 100.898C 257.323 100.882 258.425 100.48 258.425 100.159C 258.425 100.112 258.343 99.8427 258.311 99.7057C 258.264 99.5067 258.229 99.3698 258.05 99.3698C 257.968 99.3698 257.901 99.4438 257.819 99.5027C 257.292 99.9557 256.663 100.222 255.968 100.222C 255.21 100.222 255.061 99.3467 255.061 98.5887L 255.05 93.4167z"
       id="path70" />
    <path
       style="stroke:none; fill-rule:evenodd; fill:#000000"
       d="M 266.819 96.9167C 267.163 96.9167 267.546 96.9167 267.546 96.2408C 267.546 93.8587 266.198 92.1198 263.854 92.1198C 261.546 92.1198 259.749 94.1867 259.749 96.6517C 259.749 99.1978 261.718 101.214 264.116 101.214C 265.057 101.214 266.065 100.933 266.929 100.327C 267.425 99.9757 267.425 99.9088 267.425 99.7758C 267.425 99.4407 267.425 98.9207 267.147 98.9207C 267.05 98.9207 266.987 98.9908 266.87 99.0967C 266.018 99.9207 264.964 100.218 264.159 100.218C 262.452 100.218 261.151 98.6827 261.054 96.9207L 266.819 96.9167zM 261.05 96.1158C 261.261 94.3467 262.483 93.1158 263.854 93.1158C 266.296 93.1158 266.413 95.5577 266.444 96.1158L 261.05 96.1158z"
       id="path72" />
    <path
       style="stroke:#000000; stroke-width:1.55905; fill:none"
       d="M 148.483 70.5298C 148.483 70.5298 104.784 57.5258 101.714 70.5298C 99.4289 80.2217 127.655 77.6477 132.893 86.1198C 137.577 93.6938 132.893 117.3 132.893 117.3"
       id="path74" />
    <path
       style="stroke:none; fill-rule:evenodd; fill:#000000"
       d="M 132.893 117.304L 129.827 102.046L 134.296 108.069L 140.35 103.644"
       id="path76" />
    <path
       style="stroke:#000000; stroke-width:1.55905; fill:none"
       d="M 257.62 70.5298C 257.62 70.5298 276.167 75.8347 279.444 70.5298C 283.632 63.7527 263.358 52.6867 266.972 45.5887C 271.89 35.9327 304.39 39.3547 304.39 39.3547"
       id="path78" />
    <path
       style="stroke:none; fill-rule:evenodd; fill:#000000"
       d="M 304.39 39.3507L 289.472 43.8037L 295.065 38.7997L 290.1 33.1747"
       id="path80" />
    <path
       style="stroke:none; fill-rule:evenodd; fill:#000000"
       d="M 93.2139 2.10474C 93.2139 1.43274 93.0569 1.23373 92.3429 1.23373L 92.1669 1.23373C 91.4949 1.23373 91.2959 1.38974 91.2959 2.10474L 91.2959 2.27975C 91.2959 2.95175 91.4519 3.15173 92.1669 3.15173L 92.3429 3.15173C 93.0139 3.15173 93.2139 2.99475 93.2139 2.27975L 93.2139 2.10474zM 93.0499 5.58875C 93.0499 5.19376 93.0499 4.72174 92.2999 4.72174C 91.5499 4.72174 91.5499 5.19376 91.5499 5.58875L 91.5499 14.1437C 91.5499 14.5378 91.5499 15.0107 92.2999 15.0107C 93.0499 15.0107 93.0499 14.5378 93.0499 14.1437L 93.0499 5.58875zM 86.1509 5.91675L 88.3699 5.91675C 88.6469 5.91675 89.2489 5.91675 89.2489 5.31174C 89.2489 4.72174 88.6199 4.72174 88.3819 4.72174L 86.1549 4.72174L 86.1549 3.34674C 86.1549 2.96375 86.1549 2.78375 86.5499 2.53775C 86.9009 2.33875 87.3189 2.29575 87.5729 2.29575C 88.1239 2.29575 88.4599 2.43674 88.7959 2.61575C 88.8539 2.63574 88.9129 2.65475 88.9719 2.65475C 89.2449 2.65475 89.2449 2.39374 89.2449 2.09274L 89.2449 1.79175C 89.2449 1.30774 89.2249 1.28775 88.6939 1.14774C 88.2019 1.02576 87.7489 1.02576 87.6119 1.02576C 86.1119 1.02576 84.6509 1.95575 84.6509 3.75275L 84.6509 4.72174L 83.5109 4.72174C 83.2719 4.72174 82.6319 4.72174 82.6319 5.31174C 82.6319 5.91675 83.2489 5.91675 83.5109 5.91675L 84.6509 5.91675L 84.6509 14.1397C 84.6509 14.5338 84.6509 15.0107 85.4009 15.0107C 86.1509 15.0107 86.1509 14.5338 86.1509 14.1397L 86.1509 5.91675z"
       id="path82" />
    <path
       style="stroke:none; fill-rule:evenodd; fill:#000000"
       d="M 105.452 7.85474C 105.452 5.65475 104.39 4.48676 102.1 4.48676C 100.268 4.48676 99.1469 5.63574 98.5929 6.70575L 98.5729 6.70575L 98.5729 5.55774C 98.5729 5.18274 98.5729 4.68674 97.8269 4.68674C 97.0609 4.68674 97.0609 5.15875 97.0609 5.55774L 97.0609 14.1437C 97.0609 14.5577 97.0609 15.0147 97.8579 15.0147C 98.6549 15.0147 98.6549 14.5617 98.6549 14.1437L 98.6549 8.99875C 98.6549 7.17474 99.7879 5.72174 101.507 5.72174C 103.616 5.72174 103.85 6.91275 103.85 7.98676L 103.85 14.1437C 103.85 14.5577 103.85 15.0147 104.647 15.0147C 105.444 15.0147 105.444 14.5617 105.444 14.1437L 105.452 7.85474z"
       id="path84" />
    <path
       style="stroke:none; fill-rule:evenodd; fill:#000000"
       d="M 111.14 2.07675C 111.14 1.41275 110.983 1.21774 110.268 1.21774L 110.093 1.21774C 109.421 1.21774 109.222 1.37375 109.222 2.07675L 109.222 2.25275C 109.222 2.91675 109.378 3.11176 110.093 3.11176L 110.268 3.11176C 110.94 3.11176 111.14 2.95575 111.14 2.25275L 111.14 2.07675zM 110.952 5.58875C 110.952 5.19376 110.952 4.72174 110.202 4.72174C 109.452 4.72174 109.452 5.19376 109.452 5.58875L 109.452 14.1437C 109.452 14.5378 109.452 15.0107 110.202 15.0107C 110.952 15.0107 110.952 14.5378 110.952 14.1437L 110.952 5.58875z"
       id="path86" />
    <path
       style="stroke:none; fill-rule:evenodd; fill:#000000"
       d="M 117.151 5.91675L 119.909 5.91675C 120.143 5.91675 120.78 5.91675 120.78 5.32675C 120.78 4.72174 120.167 4.72174 119.909 4.72174L 117.151 4.72174L 117.151 2.60873C 117.151 2.24875 117.151 1.72174 116.421 1.72174C 115.671 1.72174 115.671 2.22574 115.671 2.60873L 115.671 4.72174L 114.288 4.72174C 114.054 4.72174 113.421 4.72174 113.421 5.31174C 113.421 5.91675 114.038 5.91675 114.3 5.91675L 115.659 5.91675L 115.659 12.3347C 115.659 13.6827 116.073 15.2137 117.71 15.2137C 117.983 15.2137 118.854 15.1938 119.843 14.8387C 119.901 14.8188 121.206 14.3467 121.206 13.9677C 121.206 13.9088 121.108 13.5927 121.069 13.4327C 121.011 13.1978 120.972 13.0378 120.753 13.0378C 120.655 13.0378 120.577 13.1237 120.475 13.1907C 119.843 13.7137 119.089 14.0187 118.253 14.0187C 117.343 14.0187 117.163 12.9757 117.163 12.0728L 117.151 5.91675z"
       id="path88" />
    <path
       style="stroke:none; fill-rule:evenodd; fill:#000000"
       d="M 131.378 10.1158C 131.792 10.1158 132.249 10.1158 132.249 9.31174C 132.249 6.48373 130.643 4.41675 127.847 4.41675C 125.093 4.41675 122.952 6.86575 122.952 9.79575C 122.952 12.8188 125.304 15.2137 128.171 15.2137C 129.296 15.2137 130.503 14.8777 131.53 14.1628C 132.124 13.7487 132.124 13.6707 132.124 13.5107C 132.124 13.1158 132.124 12.4987 131.788 12.4987C 131.671 12.4987 131.593 12.5768 131.452 12.7018C 130.425 13.6628 129.159 14.0147 128.19 14.0147C 126.136 14.0147 124.573 12.1978 124.456 10.1158L 131.378 10.1158zM 124.452 9.11575C 124.71 7.05374 126.179 5.61575 127.831 5.61575C 130.772 5.61575 130.909 8.46774 130.948 9.11575L 124.452 9.11575z"
       id="path90" />
    <path
       style="stroke:none; fill-rule:evenodd; fill:#000000"
       d="M 72.2639 32.2487C 72.2639 31.9908 72.2639 31.1787 71.9089 31.1787C 71.7919 31.1787 71.7529 31.2408 71.5729 31.3897C 70.4909 32.3977 69.3069 32.7137 68.2219 32.7137C 66.1319 32.7137 64.6549 30.9407 64.6549 28.5577C 64.6549 26.4407 65.7959 24.3188 68.3229 24.3188C 69.6819 24.3188 70.3499 24.5688 71.2999 25.1588C 71.5929 25.3658 71.6319 25.3658 71.7099 25.3658C 71.9249 25.3658 71.9639 25.1707 72.0029 24.9557C 72.0219 24.8427 72.1199 24.4088 72.1199 24.3117C 72.1199 24.1357 72.0999 24.1158 71.6279 23.8618C 70.5029 23.3157 69.7099 23.1198 68.3069 23.1198C 64.9869 23.1198 63.0499 25.8698 63.0499 28.5577C 63.0499 31.4637 65.2409 33.9167 68.2059 33.9167C 68.4989 33.9167 69.5299 33.9167 70.6939 33.4247C 71.1669 33.2097 72.2569 32.6317 72.2569 32.2567L 72.2639 32.2487z"
       id="path92" />
    <path
       style="stroke:none; fill-rule:evenodd; fill:#000000"
       d="M 84.3499 28.5967C 84.3499 25.5537 81.9719 23.1198 79.0999 23.1198C 76.2099 23.1198 73.8539 25.5688 73.8539 28.5967C 73.8539 31.5417 76.2099 33.9167 79.0999 33.9167C 81.9909 33.9167 84.3499 31.5457 84.3499 28.5967zM 79.0999 32.7137C 77.3859 32.7137 75.4519 31.6517 75.4519 28.3977C 75.4519 25.2257 77.5029 24.3188 79.0999 24.3188C 80.6979 24.3188 82.7489 25.2018 82.7489 28.3977C 82.7489 31.6907 80.7759 32.7137 79.0999 32.7137z"
       id="path94" />
    <path
       style="stroke:none; fill-rule:evenodd; fill:#000000"
       d="M 95.7489 26.5577C 95.7489 24.3587 94.6859 23.1907 92.3969 23.1907C 90.5649 23.1907 89.4439 24.3387 88.8899 25.4088L 88.8699 25.4088L 88.8699 24.2607C 88.8699 23.8857 88.8699 23.3897 88.1239 23.3897C 87.3579 23.3897 87.3579 23.8618 87.3579 24.2607L 87.3579 32.8467C 87.3579 33.2607 87.3579 33.7177 88.1549 33.7177C 88.9519 33.7177 88.9519 33.2647 88.9519 32.8467L 88.9519 27.7018C 88.9519 25.8777 90.0849 24.4247 91.8039 24.4247C 93.9129 24.4247 94.1469 25.6158 94.1469 26.6907L 94.1469 32.8467C 94.1469 33.2607 94.1469 33.7177 94.9439 33.7177C 95.7409 33.7177 95.7409 33.2647 95.7409 32.8467L 95.7489 26.5577z"
       id="path96" />
    <path
       style="stroke:none; fill-rule:evenodd; fill:#000000"
       d="M 101.85 24.6158L 104.608 24.6158C 104.843 24.6158 105.479 24.6158 105.479 24.0258C 105.479 23.4207 104.866 23.4207 104.608 23.4207L 101.85 23.4207L 101.85 21.3077C 101.85 20.9478 101.85 20.4207 101.12 20.4207C 100.37 20.4207 100.37 20.9247 100.37 21.3077L 100.37 23.4207L 98.9869 23.4207C 98.7529 23.4207 98.1199 23.4207 98.1199 24.0107C 98.1199 24.6158 98.7369 24.6158 98.9989 24.6158L 100.358 24.6158L 100.358 31.0338C 100.358 32.3817 100.772 33.9128 102.409 33.9128C 102.682 33.9128 103.554 33.8937 104.542 33.5378C 104.6 33.5187 105.905 33.0457 105.905 32.6667C 105.905 32.6087 105.807 32.2917 105.768 32.1317C 105.71 31.8977 105.671 31.7368 105.452 31.7368C 105.354 31.7368 105.276 31.8228 105.175 31.8897C 104.542 32.4128 103.788 32.7177 102.952 32.7177C 102.042 32.7177 101.862 31.6747 101.862 30.7727L 101.85 24.6158z"
       id="path98" />
    <path
       style="stroke:none; fill-rule:evenodd; fill:#000000"
       d="M 110.147 28.5967C 110.147 26.2057 112.042 24.7018 114.1 24.6047C 114.499 24.5847 114.557 24.5847 114.557 24.0537L 114.557 23.7798C 114.557 23.3658 114.557 23.2257 114.143 23.2257C 113.632 23.2257 111.417 23.4048 110.151 26.0537L 110.132 26.0537L 110.132 24.2957C 110.132 23.9407 110.132 23.4287 109.401 23.4287C 108.651 23.4287 108.651 23.9207 108.651 24.2957L 108.651 32.8547C 108.651 33.2487 108.651 33.7217 109.401 33.7217C 110.151 33.7217 110.151 33.2487 110.151 32.8547L 110.147 28.5967z"
       id="path100" />
    <path
       style="stroke:none; fill-rule:evenodd; fill:#000000"
       d="M 126.35 28.5967C 126.35 25.5537 123.972 23.1198 121.1 23.1198C 118.21 23.1198 115.854 25.5688 115.854 28.5967C 115.854 31.5417 118.21 33.9167 121.1 33.9167C 123.991 33.9167 126.35 31.5457 126.35 28.5967zM 121.1 32.7137C 119.386 32.7137 117.452 31.6517 117.452 28.3977C 117.452 25.2257 119.503 24.3188 121.1 24.3188C 122.698 24.3188 124.749 25.2018 124.749 28.3977C 124.749 31.6907 122.776 32.7137 121.1 32.7137z"
       id="path102" />
    <path
       style="stroke:none; fill-rule:evenodd; fill:#000000"
       d="M 130.85 20.7917C 130.85 20.3977 130.85 19.9167 130.1 19.9167C 129.35 19.9167 129.35 20.3937 129.35 20.7917L 129.35 32.8387C 129.35 33.2337 129.35 33.7137 130.1 33.7137C 130.85 33.7137 130.85 33.2368 130.85 32.8387L 130.85 20.7917z"
       id="path104" />
    <path
       style="stroke:none; fill-rule:evenodd; fill:#000000"
       d="M 297.749 183.683C 297.749 182.929 297.436 182.218 296.843 181.644C 295.979 180.851 295.05 180.675 294.163 180.515C 293.729 180.437 293.061 180.3 292.847 180.257C 292.14 180.12 291.155 179.663 291.155 178.773C 291.155 177.226 293.288 177.226 293.624 177.226C 295.124 177.226 295.936 177.64 296.468 177.898C 296.78 178.073 296.823 178.073 296.882 178.073C 297.097 178.073 297.136 177.882 297.175 177.667C 297.194 177.55 297.292 177.12 297.292 177.023C 297.292 176.808 297.155 176.753 296.78 176.616C 295.761 176.187 294.893 176.03 293.772 176.03C 291.768 176.03 289.745 176.78 289.745 178.972C 289.745 181.319 292.483 181.816 293.268 181.972C 294.804 182.245 295.159 182.308 295.651 182.64C 296.003 182.894 296.339 183.269 296.339 183.823C 296.339 185.519 294.14 185.519 293.768 185.519C 292.71 185.519 291.491 185.245 290.335 184.499C 290.179 184.362 290.14 184.362 290.061 184.362C 289.827 184.362 289.807 184.519 289.749 184.816C 289.718 184.933 289.546 185.409 289.546 185.487C 289.546 185.683 289.663 185.745 290.057 185.96C 290.749 186.316 292.073 186.812 293.714 186.812C 297.21 186.812 297.745 184.734 297.745 183.679L 297.749 183.683z"
       id="path106" />
    <path
       style="stroke:none; fill-rule:evenodd; fill:#000000"
       d="M 302.55 177.519L 305.307 177.519C 305.542 177.519 306.179 177.519 306.179 176.929C 306.179 176.323 305.565 176.323 305.307 176.323L 302.55 176.323L 302.55 174.21C 302.55 173.851 302.55 173.323 301.819 173.323C 301.069 173.323 301.069 173.827 301.069 174.21L 301.069 176.323L 299.686 176.323C 299.452 176.323 298.819 176.323 298.819 176.913C 298.819 177.519 299.436 177.519 299.698 177.519L 301.057 177.519L 301.057 183.937C 301.057 185.284 301.472 186.816 303.108 186.816C 303.382 186.816 304.253 186.796 305.241 186.441C 305.3 186.421 306.604 185.948 306.604 185.569C 306.604 185.511 306.507 185.194 306.468 185.034C 306.409 184.8 306.37 184.64 306.151 184.64C 306.054 184.64 305.975 184.726 305.874 184.792C 305.241 185.316 304.487 185.62 303.651 185.62C 302.741 185.62 302.561 184.577 302.561 183.675L 302.55 177.519z"
       id="path108" />
    <path
       style="stroke:none; fill-rule:evenodd; fill:#000000"
       d="M 317.05 179.597C 317.05 177.659 315.507 176.019 313.132 176.019C 312.182 176.019 311.018 176.132 309.71 176.702C 309.671 176.737 309.315 176.898 309.198 176.976C 309.061 177.054 309.061 177.21 309.061 177.249C 309.061 177.464 309.061 178.284 309.413 178.284C 309.472 178.284 309.511 178.284 309.788 178.116C 310.991 177.405 312.014 177.218 313.081 177.218C 314.698 177.218 315.448 178.359 315.448 179.698L 315.448 180.484C 310.358 180.601 308.651 182.237 308.651 183.89C 308.651 185.308 309.733 186.804 311.589 186.804C 312.89 186.804 314.604 186.37 315.511 185.183L 315.511 185.734C 315.511 186.128 315.511 186.601 316.276 186.601C 317.042 186.601 317.042 186.128 317.042 185.734L 317.05 179.597zM 315.448 183.425C 315.448 185.612 312.69 185.612 312.514 185.612C 311.257 185.612 310.151 184.933 310.151 183.886C 310.151 182.784 311.175 182.12 312.081 181.78C 313.319 181.319 314.503 181.261 315.448 181.218L 315.448 183.425z"
       id="path110" />
    <path
       style="stroke:none; fill-rule:evenodd; fill:#000000"
       d="M 329.362 185.148C 329.362 184.89 329.362 184.077 329.007 184.077C 328.89 184.077 328.85 184.14 328.671 184.288C 327.589 185.296 326.405 185.612 325.319 185.612C 323.229 185.612 321.753 183.839 321.753 181.456C 321.753 179.339 322.893 177.218 325.421 177.218C 326.78 177.218 327.448 177.468 328.397 178.058C 328.69 178.265 328.729 178.265 328.807 178.265C 329.022 178.265 329.061 178.069 329.1 177.855C 329.12 177.741 329.218 177.308 329.218 177.21C 329.218 177.034 329.198 177.015 328.725 176.761C 327.6 176.214 326.807 176.019 325.405 176.019C 322.085 176.019 320.147 178.769 320.147 181.456C 320.147 184.362 322.339 186.816 325.304 186.816C 325.597 186.816 326.628 186.816 327.792 186.323C 328.264 186.109 329.354 185.53 329.354 185.155L 329.362 185.148z"
       id="path112" />
    <path
       style="stroke:none; fill-rule:evenodd; fill:#000000"
       d="M 336.64 180.413L 340.538 177.015C 340.733 176.859 340.811 176.78 340.811 176.62C 340.811 176.265 340.495 176.265 340.081 176.265C 339.589 176.265 339.331 176.265 338.913 176.62L 333.647 181.21L 333.647 173.698C 333.647 173.343 333.647 172.823 332.897 172.823C 332.147 172.823 332.147 173.343 332.147 173.698L 332.147 185.745C 332.147 186.101 332.147 186.62 332.905 186.62C 333.643 186.62 333.643 186.085 333.643 185.749L 333.643 183.054L 335.577 181.37L 339.468 186.222C 339.761 186.581 339.862 186.62 340.452 186.62C 340.827 186.62 341.163 186.62 341.163 186.222C 341.163 186.085 341.085 186.003 341.026 185.925L 336.64 180.413z"
       id="path114" />
    <path
       style="stroke:none; fill-rule:evenodd; fill:#000000"
       d="M 339.05 5.01474L 341.347 5.01474C 341.542 5.01474 342.073 5.01474 342.073 4.52576C 342.073 4.01874 341.561 4.01874 341.347 4.01874L 339.05 4.01874L 339.05 2.26074C 339.05 1.95975 339.05 1.52274 338.44 1.52274C 337.815 1.52274 337.815 1.94073 337.815 2.26074L 337.815 4.01874L 336.663 4.01874C 336.468 4.01874 335.94 4.01874 335.94 4.50674C 335.94 5.01474 336.444 5.01474 336.655 5.01474L 337.757 5.01474L 337.757 10.3977C 337.757 11.5298 338.104 12.8117 339.483 12.8117C 339.714 12.8117 340.448 12.7957 341.276 12.4948C 341.323 12.4797 342.425 12.0768 342.425 11.7567C 342.425 11.7097 342.343 11.4407 342.311 11.3037C 342.264 11.1047 342.229 10.9677 342.05 10.9677C 341.968 10.9677 341.901 11.0417 341.819 11.1007C 341.292 11.5537 340.663 11.8188 339.968 11.8188C 339.21 11.8188 339.061 10.9438 339.061 10.1867L 339.05 5.01474z"
       id="path116" />
    <path
       style="stroke:none; fill-rule:evenodd; fill:#000000"
       d="M 352.452 8.33475C 352.452 5.77274 350.483 3.71774 348.104 3.71774C 345.71 3.71774 343.757 5.78375 343.757 8.33475C 343.757 10.8157 345.706 12.8157 348.104 12.8157C 350.499 12.8157 352.452 10.8157 352.452 8.33475zM 348.1 11.8157C 346.667 11.8157 345.054 10.9167 345.054 8.16675C 345.054 5.48373 346.764 4.72174 348.1 4.72174C 349.432 4.72174 351.147 5.46774 351.147 8.16675C 351.147 10.9518 349.499 11.8157 348.1 11.8157z"
       id="path118" />
    <path
       style="stroke:none; fill-rule:evenodd; fill:#000000"
       d="M 356.249 11.3698C 356.593 11.9327 357.331 12.7758 358.608 12.7758C 360.722 12.7758 362.643 10.8897 362.643 8.28775C 362.643 5.78775 360.991 3.81573 358.975 3.81573C 358.159 3.81573 357.077 4.13174 356.225 5.25674L 356.225 4.70975C 356.225 4.38174 356.225 3.98373 355.589 3.98373C 354.952 3.98373 354.952 4.37775 354.952 4.70975L 354.952 14.1827C 354.952 14.5298 354.952 14.9088 355.6 14.9088C 356.249 14.9088 356.249 14.5298 356.249 14.1827L 356.249 11.3698zM 356.249 6.58075C 356.249 6.26874 356.249 6.25275 356.429 5.98676C 357.034 5.11176 357.89 4.91675 358.417 4.91675C 360.011 4.91675 361.343 6.42075 361.343 8.30374C 361.343 10.2687 359.847 11.7368 358.202 11.7368C 357.448 11.7368 357.054 11.3427 356.874 11.1628C 356.796 11.0807 356.249 10.5187 356.249 9.85873L 356.249 6.58075z"
       id="path120" />
    <path
       style="stroke:#000000; stroke-width:1.55905; fill:none"
       d="M 304.448 39.3857L 304.448 23.7957C 304.448 23.7957 304.448 23.7957 304.448 23.7957L 335.628 23.7957C 335.628 23.7957 335.628 23.7957 335.628 23.7957L 335.628 54.9757C 335.628 54.9757 335.628 54.9757 335.628 54.9757L 304.448 54.9757C 304.448 54.9757 304.448 54.9757 304.448 54.9757L 304.448 39.3857z"
       id="path122" />
    <path
       style="stroke:none; fill-rule:evenodd; fill:#0000ff"
       d="M 315.819 43.7997C 314.909 45.2567 314.097 45.4557 313.382 45.5147C 313.186 45.5298 312.948 45.5497 312.948 45.8587C 312.948 45.9128 312.983 46.1118 313.225 46.1118C 313.401 46.1118 313.522 46.0537 314.909 46.0537C 316.257 46.0537 316.714 46.1118 316.811 46.1118C 316.909 46.1118 317.206 46.1118 317.206 45.7687C 317.206 45.5338 316.948 45.5147 316.85 45.5147C 316.436 45.4948 316.018 45.3347 316.018 44.8897C 316.018 44.5887 316.175 44.3268 316.554 43.7408C 316.987 42.9948 317.444 42.2487 317.901 41.5227L 323.335 41.5227L 323.749 44.9327C 323.749 45.2137 323.393 45.5187 322.464 45.5187C 322.167 45.5187 321.909 45.5187 321.909 45.8618C 321.909 45.8777 321.929 46.1158 322.245 46.1158C 322.44 46.1158 323.194 46.0768 323.374 46.0577L 324.62 46.0577C 326.401 46.0577 326.741 46.1158 326.897 46.1158C 326.975 46.1158 327.292 46.1158 327.292 45.7727C 327.292 45.5187 327.034 45.5187 326.718 45.5187C 325.628 45.5187 325.608 45.3387 325.55 44.8427L 323.983 32.5027C 323.925 32.0657 323.905 31.9247 323.569 31.9247C 323.214 31.9247 323.097 32.1237 322.975 32.3228L 315.819 43.7997zM 318.319 40.9167L 322.421 34.3587L 323.253 40.9167L 318.319 40.9167z"
       id="path124" />
    <path
       style="stroke:#000000; stroke-width:1.55905; fill:none"
       d="M 304.448 70.5847L 304.448 54.9948C 304.448 54.9948 304.448 54.9948 304.448 54.9948L 335.628 54.9948C 335.628 54.9948 335.628 54.9948 335.628 54.9948L 335.628 86.1747C 335.628 86.1747 335.628 86.1747 335.628 86.1747L 304.448 86.1747C 304.448 86.1747 304.448 86.1747 304.448 86.1747L 304.448 70.5847z"
       id="path126" />
    <path
       style="stroke:#000000; stroke-width:1.55905; fill:none"
       d="M 320.038 164.058L 335.628 164.058C 335.628 164.058 335.628 164.058 335.628 164.058L 335.628 23.7448C 335.628 23.7448 335.628 23.7448 335.628 23.7448L 304.448 23.7448C 304.448 23.7448 304.448 23.7448 304.448 23.7448L 304.448 164.058C 304.448 164.058 304.448 164.058 304.448 164.058L 320.038 164.058z"
       id="path128" />
    <path
       style="stroke:none; fill-rule:evenodd; fill:#000000"
       d="M 320.952 100.265C 320.952 99.7567 320.932 99.7177 320.405 99.7177L 319.604 99.7177C 319.097 99.7177 319.057 99.7527 319.057 100.265L 319.057 101.046C 319.057 101.573 319.093 101.612 319.624 101.612L 320.405 101.612C 320.913 101.612 320.952 101.577 320.952 101.066L 320.952 100.265z"
       id="path130" />
    <path
       style="stroke:none; fill-rule:evenodd; fill:#000000"
       d="M 320.952 104.362C 320.952 103.855 320.932 103.816 320.405 103.816L 319.604 103.816C 319.097 103.816 319.057 103.851 319.057 104.362L 319.057 105.144C 319.057 105.671 319.093 105.71 319.624 105.71L 320.405 105.71C 320.913 105.71 320.952 105.675 320.952 105.163L 320.952 104.362z"
       id="path132" />
    <path
       style="stroke:none; fill-rule:evenodd; fill:#000000"
       d="M 320.952 108.362C 320.952 107.855 320.932 107.816 320.405 107.816L 319.604 107.816C 319.097 107.816 319.057 107.851 319.057 108.362L 319.057 109.144C 319.057 109.671 319.093 109.71 319.624 109.71L 320.405 109.71C 320.913 109.71 320.952 109.675 320.952 109.163L 320.952 108.362z"
       id="path134" />
    <path
       style="stroke:#000000; stroke-width:1.55905; fill:none"
       d="M 304.448 148.464L 304.448 132.874C 304.448 132.874 304.448 132.874 304.448 132.874L 335.628 132.874C 335.628 132.874 335.628 132.874 335.628 132.874L 335.628 164.054C 335.628 164.054 335.628 164.054 335.628 164.054L 304.448 164.054C 304.448 164.054 304.448 164.054 304.448 164.054L 304.448 148.464z"
       id="path136" />
    <path
       style="stroke:#000000; stroke-width:1.55905; fill:none"
       d="M 341.807 164.073L 298.155 164.073"
       id="path138" />
  </g>
</svg>
