<?xml version="1.0" encoding="UTF-8" standalone="no"?>
<!-- Created with Inkscape (http://www.inkscape.org/) -->

<svg
   xmlns:dc="http://purl.org/dc/elements/1.1/"
   xmlns:cc="http://creativecommons.org/ns#"
   xmlns:rdf="http://www.w3.org/1999/02/22-rdf-syntax-ns#"
   xmlns:svg="http://www.w3.org/2000/svg"
   xmlns="http://www.w3.org/2000/svg"
   xmlns:sodipodi="http://sodipodi.sourceforge.net/DTD/sodipodi-0.dtd"
   xmlns:inkscape="http://www.inkscape.org/namespaces/inkscape"
   width="75.24453mm"
   height="30.48mm"
   viewBox="0 0 266.61448 108"
   id="svg2"
   version="1.1"
   inkscape:version="0.91 r13725"
   sodipodi:docname="logo3.svg">
  <defs
     id="defs4" />
  <sodipodi:namedview
     id="base"
     pagecolor="#ffffff"
     bordercolor="#666666"
     borderopacity="1.0"
     inkscape:pageopacity="0.0"
     inkscape:pageshadow="2"
     inkscape:zoom="0.35"
     inkscape:cx="139.73585"
     inkscape:cy="111.14286"
     inkscape:document-units="px"
     inkscape:current-layer="layer1"
     showgrid="false"
     fit-margin-top="0"
     fit-margin-left="0"
     fit-margin-right="0"
     fit-margin-bottom="0"
     inkscape:window-width="1440"
     inkscape:window-height="791"
     inkscape:window-x="0"
     inkscape:window-y="1"
     inkscape:window-maximized="1" />
  <metadata
     id="metadata7">
    <rdf:RDF>
      <cc:Work
         rdf:about="">
        <dc:format>image/svg+xml</dc:format>
        <dc:type
           rdf:resource="http://purl.org/dc/dcmitype/StillImage" />
        <dc:title></dc:title>
      </cc:Work>
    </rdf:RDF>
  </metadata>
  <g
     inkscape:label="Layer 1"
     inkscape:groupmode="layer"
     id="layer1"
     transform="translate(-235.26415,-535.50506)">
    <g
       id="g3553"
       transform="translate(97.478614,500.70506)">
      <g
         id="g3466">
        <g
           id="g3468">
          <path
             id="path3470"
             d="m 259.2,102.9 8.6,0 c 2.5,0 4.4,0.7 5.7,2 1,1 1.5,2.4 1.5,3.9 l 0,0.1 c 0,3.3 -2.3,5.2 -5.4,5.8 l 6.1,8.2 -2.8,0 -5.8,-7.8 -5.7,0 0,7.8 -2.3,0 0,-20 z m 8.3,10.2 c 3,0 5.1,-1.5 5.1,-4.1 l 0,-0.1 c 0,-2.5 -1.9,-3.9 -5.1,-3.9 l -6.2,0 0,8.1 6.2,0 z"
             class="st0"
             inkscape:connector-curvature="0"
             style="fill:#7f8185" />
          <path
             id="path3472"
             d="m 278.1,102.9 14.4,0 0,2.1 -12.2,0 0,6.8 10.9,0 0,2.1 -10.9,0 0,7 12.3,0 0,2.1 -14.6,0 0,-20.1 z"
             class="st0"
             inkscape:connector-curvature="0"
             style="fill:#7f8185" />
          <path
             id="path3474"
             d="m 294.2,120 1.4,-1.7 c 2.1,1.9 4.1,2.8 6.8,2.8 2.7,0 4.4,-1.4 4.4,-3.4 l 0,-0.1 c 0,-1.9 -1,-2.9 -5.2,-3.8 -4.6,-1 -6.7,-2.5 -6.7,-5.8 l 0,-0.1 c 0,-3.1 2.8,-5.4 6.6,-5.4 2.9,0 5,0.8 7,2.5 l -1.3,1.7 c -1.9,-1.5 -3.7,-2.2 -5.8,-2.2 -2.6,0 -4.2,1.4 -4.2,3.2 l 0,0.1 c 0,1.9 1,2.9 5.4,3.9 4.4,1 6.5,2.6 6.5,5.6 l 0,0.1 c 0,3.4 -2.8,5.6 -6.8,5.6 -3.1,0.1 -5.7,-0.9 -8.1,-3 z"
             class="st0"
             inkscape:connector-curvature="0"
             style="fill:#7f8185" />
          <path
             id="path3476"
             d="m 312.1,102.9 14.4,0 0,2.1 -12.2,0 0,6.8 10.9,0 0,2.1 -10.9,0 0,7 12.3,0 0,2.1 -14.6,0 0,-20.1 z"
             class="st0"
             inkscape:connector-curvature="0"
             style="fill:#7f8185" />
          <path
             id="path3478"
             d="m 336.9,102.8 2.1,0 9.1,20.1 -2.4,0 -2.3,-5.3 -10.9,0 -2.4,5.3 -2.3,0 9.1,-20.1 z m 5.5,12.7 -4.5,-10.1 -4.6,10.1 9.1,0 z"
             class="st0"
             inkscape:connector-curvature="0"
             style="fill:#7f8185" />
          <path
             id="path3480"
             d="m 350.3,102.9 8.6,0 c 2.5,0 4.4,0.7 5.7,2 1,1 1.5,2.4 1.5,3.9 l 0,0.1 c 0,3.3 -2.3,5.2 -5.4,5.8 l 6.1,8.2 -2.8,0 -5.8,-7.8 -5.7,0 0,7.8 -2.3,0 0,-20 z m 8.4,10.2 c 3,0 5.1,-1.5 5.1,-4.1 l 0,-0.1 c 0,-2.5 -1.9,-3.9 -5.1,-3.9 l -6.2,0 0,8.1 6.2,0 z"
             class="st0"
             inkscape:connector-curvature="0"
             style="fill:#7f8185" />
          <path
             id="path3482"
             d="m 367.9,112.9 0,0 c 0,-5.7 4.2,-10.4 10.1,-10.4 3.6,0 5.8,1.3 7.8,3.2 l -1.5,1.7 c -1.7,-1.6 -3.6,-2.7 -6.3,-2.7 -4.4,0 -7.7,3.6 -7.7,8.2 l 0,0.1 c 0,4.6 3.3,8.2 7.7,8.2 2.7,0 4.5,-1.1 6.4,-2.9 l 1.5,1.5 c -2.1,2.1 -4.4,3.5 -8,3.5 -5.8,-0.1 -10,-4.6 -10,-10.4 z"
             class="st0"
             inkscape:connector-curvature="0"
             style="fill:#7f8185" />
          <path
             id="path3484"
             d="m 388.3,102.9 2.3,0 0,8.9 11.5,0 0,-8.9 2.3,0 0,20 -2.3,0 0,-9 -11.5,0 0,9 -2.3,0 0,-20 z"
             class="st0"
             inkscape:connector-curvature="0"
             style="fill:#7f8185" />
        </g>
      </g>
      <g
         id="g3486">
        <g
           id="g3488">
          <linearGradient
             y2="44.0951"
             x2="321.7406"
             y1="126.4287"
             x1="177.1855"
             gradientUnits="userSpaceOnUse"
             id="SVGID_1_">
            <stop
               id="stop3491"
               style="stop-color:#29ABE2"
               offset="0" />
            <stop
               id="stop3493"
               style="stop-color:#9F77A6"
               offset="1" />
          </linearGradient>
          <path
             id="path3495"
             d="m 328.6,44.2 c 0,-3.9 -3.2,-7.1 -7.1,-7.1 -1.4,0 -2.6,0.4 -3.7,1 l 0,0 -165.4,98.1 0,0 c -1.2,0.6 -2,1.8 -2,3.2 0,1.9 1.6,3.4 3.5,3.4 0.6,0 1.1,-0.1 1.5,-0.4 l 0,0 0,0 c 0,0 0.1,0 0.1,-0.1 L 324.4,50.5 c 0.3,-0.1 0.6,-0.3 0.8,-0.5 l 0,0 0,0 c 2.1,-1.1 3.4,-3.3 3.4,-5.8 z"
             class="st1"
             inkscape:connector-curvature="0"
             style="fill:url(#SVGID_1_)" />
          <linearGradient
             y2="41.634102"
             x2="314.04889"
             y1="61.826199"
             x1="197.13831"
             gradientUnits="userSpaceOnUse"
             id="SVGID_2_">
            <stop
               id="stop3498"
               style="stop-color:#EA0E7D"
               offset="0" />
            <stop
               id="stop3500"
               style="stop-color:#9F77A6"
               offset="1" />
          </linearGradient>
          <path
             id="path3502"
             d="m 328.6,41.9 c 0,-3.9 -3.2,-7.1 -7.1,-7.1 -0.3,0 -0.5,0 -0.8,0 l 0,0 -124.8,17.1 c -5.5,0.3 -9.8,5.1 -9.5,10.6 0.3,5.5 5.1,9.8 10.6,9.5 0.9,-0.1 1.7,-0.2 2.6,-0.5 L 322.4,48.9 c 0.3,0 0.5,-0.1 0.8,-0.1 l 0,0 0,0 c 3.1,-0.8 5.4,-3.6 5.4,-6.9 z"
             class="st2"
             inkscape:connector-curvature="0"
             style="fill:url(#SVGID_2_)" />
          <linearGradient
             y2="125.0705"
             x2="230.92149"
             y1="58.7272"
             x1="192.67439"
             gradientUnits="userSpaceOnUse"
             id="SVGID_3_">
            <stop
               id="stop3505"
               style="stop-color:#EA0E7D"
               offset="0" />
            <stop
               id="stop3507"
               style="stop-color:#5D2E8E"
               offset="1" />
          </linearGradient>
          <path
             id="path3509"
             d="m 243.7,124.9 c -0.1,-2.6 -0.9,-4.9 -2.2,-6.9 L 206,58.3 l 0,0 c -1.5,-4 -5.5,-6.7 -10,-6.4 -5.5,0.3 -9.8,5.1 -9.5,10.6 0,0.8 0.2,1.6 0.4,2.4 l 0,0 0,0 c 0.4,1.2 0.9,2.3 1.7,3.3 l 30.6,61.8 c 0.3,0.8 0.7,1.5 1.2,2.2 l 0,0 0,0 c 2.3,3.5 6.4,5.8 10.9,5.7 7,-0.2 12.5,-6 12.4,-13 z"
             class="st3"
             inkscape:connector-curvature="0"
             style="fill:url(#SVGID_3_)" />
          <linearGradient
             y2="125.9293"
             x2="232.12759"
             y1="66.953903"
             x1="142.7599"
             gradientUnits="userSpaceOnUse"
             id="SVGID_4_">
            <stop
               id="stop3512"
               style="stop-color:#4AC7F4"
               offset="0" />
            <stop
               id="stop3514"
               style="stop-color:#5D2E8E"
               offset="1" />
          </linearGradient>
          <path
             id="path3516"
             d="m 243.7,124.9 c -0.1,-4.3 -2.3,-8 -5.6,-10.2 l 0,0 0,0 c -0.6,-0.4 -1.3,-0.8 -2,-1.1 L 144.5,63 l 0,0 c -0.8,-0.4 -1.7,-0.7 -2.6,-0.6 -2.4,0.2 -4.3,2.3 -4.1,4.8 0.1,1.5 1,2.7 2.1,3.4 l 82,63.5 c 2.4,2.4 5.7,3.9 9.4,3.8 7,-0.2 12.5,-6 12.4,-13 z"
             class="st4"
             inkscape:connector-curvature="0"
             style="fill:url(#SVGID_4_)" />
        </g>
        <g
           id="g3518">
          <rect
             id="rect3520"
             height="51.299999"
             width="51.299999"
             y="71.699997"
             x="187.89999" />
          <g
             id="g3522">
            <rect
               id="rect3524"
               height="3.2"
               width="19.200001"
               class="st5"
               y="113.3"
               x="192.3"
               style="fill:#ffffff" />
            <g
               id="g3526">
              <path
                 id="path3528"
                 d="m 192.1,85.2 1.5,-1.4 c 0.4,0.5 0.8,0.8 1.3,0.8 0.6,0 0.9,-0.4 0.9,-1.2 l 0,-5.3 2.3,0 0,5.3 c 0,1.1 -0.3,1.8 -0.8,2.4 -0.5,0.5 -1.3,0.8 -2.3,0.8 -1.5,0 -2.3,-0.6 -2.9,-1.4 z"
                 class="st5"
                 inkscape:connector-curvature="0"
                 style="fill:#ffffff" />
              <path
                 id="path3530"
                 d="m 198.7,78.1 6.7,0 0,2 -4.4,0 0,1.3 4,0 0,1.8 -4,0 0,1.3 4.5,0 0,2 -6.8,0 0,-8.4 z"
                 class="st5"
                 inkscape:connector-curvature="0"
                 style="fill:#ffffff" />
              <path
                 id="path3532"
                 d="m 208.4,80.1 -2.5,0 0,-2 7.3,0 0,2 -2.5,0 0,6.3 -2.3,0 0,-6.3 z"
                 class="st5"
                 inkscape:connector-curvature="0"
                 style="fill:#ffffff" />
              <path
                 id="path3534"
                 d="m 192.3,88.4 4.3,0 c 1.1,0 1.8,0.3 2.3,0.7 0.3,0.3 0.5,0.8 0.5,1.4 l 0,0 c 0,1 -0.5,1.5 -1.3,1.9 1,0.3 1.7,0.9 1.7,2 l 0,0 c 0,1.4 -1.2,2.3 -3.2,2.3 l -4.3,0 0,-8.3 z m 4.8,2.6 c 0,-0.5 -0.4,-0.7 -1.1,-0.7 l -1.5,0 0,1.5 1.5,0 c 0.7,-0.1 1.1,-0.3 1.1,-0.8 l 0,0 z m -0.8,2.3 -1.8,0 0,1.5 1.8,0 c 0.7,0 1.1,-0.3 1.1,-0.8 l 0,0 c 0,-0.4 -0.3,-0.7 -1.1,-0.7 z"
                 class="st5"
                 inkscape:connector-curvature="0"
                 style="fill:#ffffff" />
              <path
                 id="path3536"
                 d="m 200.1,88.4 4,0 c 1.3,0 2.2,0.3 2.7,0.9 0.5,0.5 0.7,1.1 0.7,1.9 l 0,0 c 0,1.3 -0.7,2.1 -1.7,2.6 l 2,2.9 -2.7,0 -1.7,-2.5 -1,0 0,2.5 -2.3,0 0,-8.3 z m 3.9,4 c 0.8,0 1.2,-0.4 1.2,-1 l 0,0 c 0,-0.7 -0.5,-1 -1.3,-1 l -1.5,0 0,2 1.6,0 z"
                 class="st5"
                 inkscape:connector-curvature="0"
                 style="fill:#ffffff" />
              <path
                 id="path3538"
                 d="m 210.2,88.3 2.2,0 3.6,8.4 -2.5,0 -0.6,-1.5 -3.2,0 -0.6,1.5 -2.4,0 3.5,-8.4 z m 2,5.1 -0.9,-2.4 -0.9,2.4 1.8,0 z"
                 class="st5"
                 inkscape:connector-curvature="0"
                 style="fill:#ffffff" />
              <path
                 id="path3540"
                 d="m 216.3,88.4 2.3,0 0,8.4 -2.3,0 0,-8.4 z"
                 class="st5"
                 inkscape:connector-curvature="0"
                 style="fill:#ffffff" />
              <path
                 id="path3542"
                 d="m 219.2,88.4 2.2,0 3.4,4.4 0,-4.4 2.3,0 0,8.4 -2,0 -3.6,-4.6 0,4.6 -2.3,0 0,-8.4 z"
                 class="st5"
                 inkscape:connector-curvature="0"
                 style="fill:#ffffff" />
              <path
                 id="path3544"
                 d="m 227.2,95.5 1.3,-1.5 c 0.8,0.7 1.7,1 2.7,1 0.6,0 1,-0.2 1,-0.6 l 0,0 c 0,-0.4 -0.3,-0.5 -1.4,-0.8 -1.8,-0.4 -3.2,-0.9 -3.2,-2.6 l 0,0 c 0,-1.6 1.2,-2.7 3.2,-2.7 1.4,0 2.5,0.4 3.4,1.1 L 233,91 c -0.8,-0.5 -1.6,-0.8 -2.3,-0.8 -0.6,0 -0.8,0.2 -0.8,0.5 l 0,0 c 0,0.4 0.3,0.5 1.5,0.8 1.9,0.4 3.1,1 3.1,2.6 l 0,0 c 0,1.7 -1.3,2.7 -3.4,2.7 -1.5,0.1 -2.9,-0.4 -3.9,-1.3 z"
                 class="st5"
                 inkscape:connector-curvature="0"
                 style="fill:#ffffff" />
            </g>
          </g>
        </g>
      </g>
    </g>
  </g>
  <style
     id="style3464"
     type="text/css">
	.st0{fill:#7F8185;}
	.st1{fill:url(#SVGID_1_);}
	.st2{fill:url(#SVGID_2_);}
	.st3{fill:url(#SVGID_3_);}
	.st4{fill:url(#SVGID_4_);}
	.st5{fill:#FFFFFF;}
</style>
</svg>
