<?xml version="1.0" encoding="utf-8"?>
<!-- Generator: Adobe Illustrator 14.0.0, SVG Export Plug-In . SVG Version: 6.00 Build 43363)  -->
<!DOCTYPE svg PUBLIC "-//W3C//DTD SVG 1.1//EN" "http://www.w3.org/Graphics/SVG/1.1/DTD/svg11.dtd">
<svg version="1.1" id="Слой_1" xmlns="http://www.w3.org/2000/svg" xmlns:xlink="http://www.w3.org/1999/xlink" x="0px" y="0px"
	 width="176px" height="112px" viewBox="0 0 176 112" enable-background="new 0 0 176 112" xml:space="preserve">
<g>
	<g>
		<path fill="#FFFFFF" d="M-59.866,37.562c-0.463,0.03-0.808,0.432-0.767,0.895l0.3,3.438c0.041,0.464,0.451,0.815,0.915,0.785
			c0,0,0.655-0.045,1.418-0.045c0.76,0,1.417,0.045,1.417,0.045c0.463,0.03,0.873-0.321,0.914-0.785l0.302-3.438
			c0.039-0.463-0.305-0.864-0.768-0.895c0,0-0.955-0.062-1.865-0.062C-58.913,37.5-59.866,37.562-59.866,37.562"/>
		<path fill="#FFFFFF" d="M-66.601,38.938c-0.406,0.122-0.633,0.556-0.502,0.96l0.982,3.022c0.131,0.405,0.574,0.638,0.982,0.514
			c0,0,0.579-0.173,1.263-0.332c0.681-0.159,1.28-0.253,1.28-0.253c0.423-0.069,0.718-0.472,0.658-0.895l-0.443-3.147
			c-0.06-0.421-0.452-0.711-0.873-0.645c0,0-0.867,0.145-1.686,0.332C-65.756,38.686-66.601,38.938-66.601,38.938"/>
		<path fill="#FFFFFF" d="M-72.819,41.747c-0.338,0.192-0.451,0.626-0.25,0.959l1.496,2.489c0.201,0.333,0.642,0.447,0.98,0.256
			c0,0,0.479-0.274,1.055-0.557c0.576-0.281,1.09-0.49,1.09-0.49c0.36-0.146,0.541-0.564,0.4-0.93l-1.04-2.712
			c-0.14-0.362-0.549-0.54-0.909-0.392c0,0-0.745,0.305-1.434,0.642C-72.121,41.348-72.819,41.747-72.819,41.747"/>
		<path fill="#FFFFFF" d="M-78.227,45.83c-0.259,0.238-0.271,0.644-0.024,0.896l1.827,1.892c0.244,0.254,0.657,0.266,0.917,0.026
			c0,0,0.367-0.34,0.818-0.707c0.45-0.363,0.859-0.654,0.859-0.654c0.289-0.204,0.363-0.607,0.166-0.9l-1.472-2.182
			c-0.196-0.292-0.594-0.365-0.882-0.161c0,0-0.595,0.422-1.135,0.859C-77.692,45.335-78.227,45.83-78.227,45.83"/>
		<path fill="#FFFFFF" d="M-82.569,50.967c-0.178,0.263-0.107,0.619,0.158,0.791l1.975,1.282c0.267,0.172,0.629,0.099,0.807-0.163
			c0,0,0.254-0.371,0.573-0.779c0.319-0.409,0.619-0.745,0.619-0.745c0.211-0.235,0.194-0.606-0.038-0.82l-1.722-1.607
			c-0.233-0.217-0.593-0.198-0.805,0.035c0,0-0.434,0.488-0.816,0.979C-82.202,50.431-82.569,50.967-82.569,50.967"/>
		<path fill="#FFFFFF" d="M-85.649,56.896c-0.102,0.26,0.031,0.552,0.293,0.647l1.957,0.714c0.262,0.093,0.559-0.041,0.66-0.303
			c0,0,0.146-0.368,0.337-0.785c0.196-0.418,0.387-0.765,0.387-0.765c0.135-0.245,0.046-0.561-0.194-0.7l-1.805-1.041
			c-0.241-0.14-0.55-0.053-0.682,0.192c0,0-0.28,0.506-0.512,1.005C-85.438,56.358-85.649,56.896-85.649,56.896"/>
		<path fill="#FFFFFF" d="M-49.402,38.938c0.408,0.122,0.636,0.556,0.503,0.96l-0.98,3.022c-0.133,0.405-0.576,0.638-0.983,0.514
			c0,0-0.58-0.173-1.262-0.332c-0.685-0.159-1.282-0.253-1.282-0.253c-0.421-0.069-0.716-0.472-0.658-0.895l0.443-3.147
			c0.059-0.421,0.452-0.711,0.873-0.645c0,0,0.868,0.145,1.686,0.332C-50.245,38.686-49.402,38.938-49.402,38.938"/>
		<path fill="#FFFFFF" d="M-43.183,41.747c0.339,0.192,0.451,0.626,0.25,0.959l-1.495,2.489c-0.202,0.333-0.642,0.447-0.981,0.256
			c0,0-0.479-0.274-1.054-0.557c-0.576-0.281-1.09-0.49-1.09-0.49c-0.361-0.146-0.541-0.564-0.401-0.93l1.039-2.712
			c0.142-0.362,0.55-0.54,0.91-0.392c0,0,0.744,0.305,1.435,0.642C-43.881,41.348-43.183,41.747-43.183,41.747"/>
		<path fill="#FFFFFF" d="M-37.775,45.83c0.261,0.238,0.273,0.644,0.026,0.896l-1.828,1.892c-0.245,0.254-0.658,0.266-0.916,0.026
			c0,0-0.369-0.34-0.818-0.707c-0.451-0.363-0.862-0.654-0.862-0.654c-0.287-0.204-0.361-0.607-0.164-0.9l1.471-2.182
			c0.198-0.292,0.595-0.365,0.884-0.161c0,0,0.593,0.422,1.132,0.859C-38.31,45.335-37.775,45.83-37.775,45.83"/>
		<path fill="#FFFFFF" d="M-33.433,50.967c0.178,0.263,0.107,0.619-0.157,0.791l-1.977,1.282c-0.265,0.172-0.629,0.099-0.804-0.163
			c0,0-0.255-0.371-0.575-0.779c-0.319-0.409-0.619-0.745-0.619-0.745c-0.211-0.235-0.195-0.606,0.038-0.82l1.723-1.607
			c0.232-0.217,0.593-0.198,0.804,0.035c0,0,0.434,0.488,0.817,0.979C-33.8,50.431-33.433,50.967-33.433,50.967"/>
		<path fill="#FFFFFF" d="M-30.353,56.896c0.103,0.26-0.029,0.552-0.293,0.647l-1.956,0.714c-0.262,0.093-0.561-0.041-0.662-0.303
			c0,0-0.144-0.368-0.337-0.785c-0.195-0.418-0.386-0.765-0.386-0.765c-0.134-0.245-0.048-0.561,0.196-0.7l1.803-1.041
			c0.242-0.14,0.549-0.053,0.686,0.192c0,0,0.277,0.506,0.508,1.005C-30.562,56.358-30.353,56.896-30.353,56.896"/>
		<path fill="#FFFFFF" d="M-64.992,44.862c-0.353,0.104-0.548,0.479-0.435,0.829l0.849,2.613c0.114,0.35,0.495,0.55,0.85,0.442
			c0,0,0.501-0.152,1.091-0.287c0.589-0.137,1.107-0.219,1.107-0.219c0.361-0.059,0.619-0.406,0.566-0.773l-0.381-2.719
			c-0.051-0.366-0.391-0.616-0.755-0.555c0,0-0.75,0.122-1.458,0.284C-64.265,44.642-64.992,44.862-64.992,44.862"/>
		<path fill="#FFFFFF" d="M-69.966,47.133c-0.293,0.168-0.393,0.544-0.218,0.836l1.302,2.166c0.175,0.291,0.56,0.391,0.854,0.223
			c0,0,0.419-0.238,0.919-0.482c0.502-0.246,0.947-0.427,0.947-0.427c0.314-0.129,0.474-0.495,0.353-0.813l-0.907-2.358
			c-0.122-0.316-0.479-0.472-0.792-0.342c0,0-0.646,0.266-1.248,0.557C-69.358,46.786-69.966,47.133-69.966,47.133"/>
		<path fill="#FFFFFF" d="M-74.284,50.424c-0.229,0.211-0.238,0.564-0.022,0.786l1.604,1.665c0.216,0.222,0.579,0.231,0.807,0.021
			c0,0,0.322-0.299,0.718-0.62c0.397-0.32,0.758-0.574,0.758-0.574c0.252-0.18,0.318-0.536,0.144-0.795l-1.291-1.915
			c-0.173-0.255-0.523-0.319-0.775-0.142c0,0-0.522,0.37-0.996,0.753C-73.814,49.988-74.284,50.424-74.284,50.424"/>
		<path fill="#FFFFFF" d="M-77.745,54.556c-0.158,0.233-0.095,0.548,0.14,0.701l1.755,1.141c0.235,0.152,0.558,0.087,0.715-0.146
			c0,0,0.227-0.33,0.511-0.693c0.284-0.364,0.548-0.66,0.548-0.66c0.188-0.21,0.174-0.538-0.033-0.729l-1.529-1.43
			c-0.205-0.191-0.527-0.178-0.713,0.035c0,0-0.385,0.431-0.727,0.867C-77.42,54.077-77.745,54.556-77.745,54.556"/>
		<path fill="#FFFFFF" d="M-80.192,59.317c-0.092,0.234,0.026,0.497,0.265,0.584l1.761,0.639c0.236,0.088,0.505-0.033,0.595-0.27
			c0,0,0.13-0.331,0.304-0.706c0.176-0.377,0.349-0.689,0.349-0.689c0.121-0.221,0.041-0.503-0.178-0.629l-1.621-0.937
			c-0.22-0.129-0.497-0.049-0.618,0.172c0,0-0.248,0.456-0.458,0.904S-80.192,59.317-80.192,59.317"/>
		<path fill="#FFFFFF" d="M-81.519,64.464c-0.032,0.22,0.123,0.423,0.343,0.449l1.644,0.204c0.221,0.026,0.428-0.131,0.46-0.352
			c0,0,0.043-0.314,0.12-0.67c0.076-0.357,0.162-0.663,0.162-0.663c0.061-0.214-0.063-0.441-0.277-0.507l-1.584-0.483
			c-0.213-0.065-0.436,0.056-0.496,0.272c0,0-0.124,0.439-0.215,0.867C-81.452,64.011-81.519,64.464-81.519,64.464"/>
		<path fill="#FFFFFF" d="M-56.636,44.056c0.339,0.021,0.593,0.315,0.563,0.655l-0.221,2.518c-0.028,0.339-0.33,0.598-0.668,0.573
			c0,0-0.48-0.03-1.038-0.03c-0.56,0-1.038,0.03-1.038,0.03c-0.34,0.024-0.642-0.234-0.671-0.573l-0.221-2.518
			c-0.03-0.34,0.224-0.634,0.563-0.655c0,0,0.699-0.046,1.367-0.046S-56.636,44.056-56.636,44.056"/>
		<path fill="#FFFFFF" d="M-51.31,45.12c0.297,0.088,0.462,0.403,0.365,0.699l-0.715,2.195c-0.096,0.295-0.416,0.464-0.712,0.375
			c0,0-0.425-0.128-0.919-0.241c-0.497-0.117-0.932-0.187-0.932-0.187c-0.307-0.048-0.523-0.343-0.479-0.649l0.32-2.287
			c0.044-0.309,0.329-0.518,0.637-0.467c0,0,0.631,0.102,1.225,0.238C-51.923,44.936-51.31,45.12-51.31,45.12"/>
		<path fill="#FFFFFF" d="M-46.388,47.318c0.245,0.139,0.325,0.448,0.18,0.688l-1.076,1.794c-0.146,0.241-0.464,0.325-0.708,0.185
			c0,0-0.345-0.198-0.76-0.4c-0.415-0.203-0.784-0.353-0.784-0.353c-0.26-0.105-0.392-0.407-0.29-0.671l0.749-1.952
			c0.102-0.262,0.396-0.391,0.657-0.283c0,0,0.536,0.221,1.031,0.461C-46.89,47.029-46.388,47.318-46.388,47.318"/>
		<path fill="#FFFFFF" d="M-42.103,50.523c0.187,0.17,0.193,0.458,0.02,0.641l-1.302,1.348c-0.176,0.181-0.469,0.189-0.655,0.017
			c0,0-0.261-0.243-0.582-0.503c-0.322-0.26-0.613-0.466-0.613-0.466c-0.206-0.146-0.26-0.432-0.119-0.644l1.049-1.552
			c0.141-0.209,0.425-0.261,0.63-0.116c0,0,0.424,0.301,0.808,0.612C-42.481,50.171-42.103,50.523-42.103,50.523"/>
		<path fill="#FFFFFF" d="M-38.651,54.568c0.124,0.183,0.074,0.434-0.112,0.553l-1.388,0.903c-0.188,0.12-0.442,0.07-0.567-0.115
			c0,0-0.179-0.261-0.403-0.55c-0.226-0.285-0.436-0.521-0.436-0.521c-0.148-0.166-0.138-0.426,0.027-0.577l1.211-1.132
			c0.162-0.15,0.415-0.138,0.564,0.026c0,0,0.306,0.343,0.575,0.689C-38.911,54.188-38.651,54.568-38.651,54.568"/>
		<path fill="#FFFFFF" d="M-67.249,52.162c-0.246,0.14-0.327,0.449-0.184,0.691l1.079,1.794c0.146,0.24,0.462,0.322,0.706,0.181
			c0,0,0.347-0.196,0.761-0.398c0.415-0.201,0.784-0.353,0.784-0.353c0.26-0.107,0.392-0.408,0.291-0.67l-0.75-1.955
			c-0.103-0.261-0.396-0.389-0.657-0.283c0,0-0.536,0.221-1.033,0.463C-66.747,51.874-67.249,52.162-67.249,52.162"/>
		<path fill="#FFFFFF" d="M-70.554,54.701c-0.19,0.175-0.197,0.472-0.02,0.658l1.339,1.382c0.179,0.188,0.481,0.196,0.671,0.021
			c0,0,0.271-0.249,0.602-0.519c0.329-0.265,0.63-0.479,0.63-0.479c0.212-0.147,0.267-0.444,0.12-0.661l-1.077-1.597
			c-0.144-0.213-0.436-0.268-0.646-0.118c0,0-0.435,0.309-0.83,0.629C-70.163,54.339-70.554,54.701-70.554,54.701"/>
		<path fill="#FFFFFF" d="M-73.195,57.883c-0.133,0.196-0.081,0.461,0.118,0.592l1.476,0.957c0.198,0.129,0.47,0.073,0.604-0.122
			c0,0,0.188-0.276,0.427-0.583c0.238-0.308,0.464-0.557,0.464-0.557c0.155-0.177,0.144-0.453-0.03-0.614l-1.287-1.2
			c-0.172-0.159-0.443-0.147-0.6,0.027c0,0-0.324,0.365-0.61,0.73C-72.921,57.481-73.195,57.883-73.195,57.883"/>
		<path fill="#FFFFFF" d="M-75.057,61.546c-0.078,0.197,0.022,0.424,0.225,0.497l1.498,0.545c0.2,0.069,0.429-0.032,0.506-0.23
			c0,0,0.111-0.285,0.258-0.604c0.149-0.319,0.297-0.586,0.297-0.586c0.103-0.188,0.036-0.428-0.15-0.533l-1.38-0.798
			c-0.186-0.108-0.422-0.042-0.525,0.146c0,0-0.212,0.389-0.39,0.768C-74.896,61.134-75.057,61.546-75.057,61.546"/>
		<path fill="#FFFFFF" d="M-76.057,65.5c-0.028,0.189,0.105,0.363,0.295,0.387l1.418,0.174c0.19,0.021,0.368-0.113,0.396-0.302
			c0,0,0.04-0.27,0.105-0.578c0.064-0.309,0.139-0.57,0.139-0.57c0.052-0.187-0.056-0.381-0.238-0.438l-1.366-0.418
			c-0.184-0.055-0.375,0.052-0.429,0.235c0,0-0.106,0.379-0.186,0.749C-76,65.107-76.057,65.5-76.057,65.5"/>
		<path fill="#FFFFFF" d="M-76.161,69.545c0.015,0.172,0.164,0.296,0.332,0.277l1.255-0.133c0.169-0.017,0.295-0.171,0.28-0.339
			c0,0-0.019-0.24-0.023-0.518c-0.005-0.279,0.005-0.52,0.005-0.52c0.01-0.167-0.122-0.317-0.29-0.329l-1.26-0.088
			c-0.169-0.011-0.314,0.118-0.322,0.285c0,0-0.017,0.351-0.011,0.685C-76.188,69.199-76.161,69.545-76.161,69.545"/>
		<path fill="#FFFFFF" d="M-61.185,50.131c0.257-0.041,0.494,0.133,0.529,0.389l0.27,1.909c0.035,0.256-0.145,0.5-0.399,0.542
			c0,0-0.362,0.056-0.777,0.153c-0.413,0.096-0.765,0.201-0.765,0.201c-0.246,0.074-0.516-0.066-0.595-0.312l-0.596-1.832
			c-0.081-0.246,0.057-0.509,0.304-0.583c0,0,0.511-0.153,1.008-0.267C-61.712,50.217-61.185,50.131-61.185,50.131"/>
		<path fill="#FFFFFF" d="M-57.049,50.009c0.236,0.016,0.411,0.221,0.392,0.455l-0.153,1.754c-0.022,0.235-0.231,0.415-0.467,0.399
			c0,0-0.337-0.022-0.723-0.022c-0.391,0-0.724,0.022-0.724,0.022c-0.236,0.016-0.445-0.164-0.466-0.399l-0.153-1.754
			c-0.021-0.234,0.154-0.439,0.39-0.455c0,0,0.487-0.032,0.953-0.032C-57.536,49.977-57.049,50.009-57.049,50.009"/>
		<path fill="#FFFFFF" d="M-53.019,50.795c0.205,0.063,0.318,0.28,0.252,0.482l-0.492,1.518c-0.065,0.203-0.287,0.319-0.492,0.258
			c0,0-0.291-0.088-0.634-0.169c-0.342-0.078-0.643-0.127-0.643-0.127c-0.211-0.033-0.359-0.235-0.329-0.448l0.222-1.578
			c0.029-0.211,0.226-0.355,0.438-0.321c0,0,0.435,0.071,0.845,0.165C-53.44,50.668-53.019,50.795-53.019,50.795"/>
		<path fill="#FFFFFF" d="M-49.286,52.441c0.167,0.096,0.221,0.309,0.123,0.475l-0.735,1.223c-0.099,0.163-0.315,0.22-0.483,0.125
			c0,0-0.236-0.137-0.52-0.275c-0.283-0.137-0.535-0.238-0.535-0.238c-0.177-0.073-0.266-0.28-0.197-0.459l0.512-1.333
			c0.068-0.18,0.271-0.267,0.447-0.193c0,0,0.366,0.15,0.706,0.315C-49.63,52.248-49.286,52.441-49.286,52.441"/>
		<path fill="#FFFFFF" d="M-46.032,54.853c0.123,0.114,0.129,0.309,0.011,0.432l-0.876,0.907c-0.118,0.121-0.315,0.126-0.439,0.012
			c0,0-0.178-0.162-0.393-0.338c-0.217-0.176-0.413-0.313-0.413-0.313c-0.139-0.099-0.175-0.295-0.08-0.435l0.706-1.045
			c0.094-0.142,0.283-0.176,0.422-0.077c0,0,0.288,0.201,0.544,0.411C-46.29,54.616-46.032,54.853-46.032,54.853"/>
		<path fill="#FFFFFF" d="M-67.524,58.133c-0.155,0.143-0.162,0.385-0.017,0.535l1.09,1.129c0.147,0.152,0.395,0.16,0.547,0.018
			c0,0,0.222-0.204,0.489-0.421c0.27-0.219,0.514-0.391,0.514-0.391c0.171-0.122,0.218-0.364,0.099-0.541l-0.878-1.301
			c-0.117-0.173-0.354-0.216-0.525-0.095c0,0-0.355,0.252-0.677,0.511C-67.206,57.839-67.524,58.133-67.524,58.133"/>
		<path fill="#FFFFFF" d="M-69.511,60.546c-0.108,0.162-0.065,0.378,0.097,0.483l1.213,0.789c0.162,0.103,0.385,0.059,0.494-0.102
			c0,0,0.153-0.226,0.351-0.479c0.197-0.252,0.381-0.458,0.381-0.458c0.128-0.143,0.117-0.371-0.025-0.501l-1.056-0.986
			c-0.142-0.132-0.363-0.122-0.493,0.022c0,0-0.265,0.299-0.501,0.6C-69.285,60.217-69.511,60.546-69.511,60.546"/>
		<path fill="#FFFFFF" d="M-70.903,63.317c-0.064,0.165,0.019,0.352,0.186,0.412l1.239,0.452c0.166,0.059,0.356-0.026,0.421-0.192
			c0,0,0.091-0.233,0.213-0.497c0.123-0.264,0.246-0.485,0.246-0.485c0.082-0.155,0.028-0.354-0.124-0.443l-1.144-0.659
			c-0.153-0.09-0.35-0.035-0.434,0.121c0,0-0.177,0.319-0.324,0.638C-70.771,62.976-70.903,63.317-70.903,63.317"/>
		<path fill="#FFFFFF" d="M-71.646,66.308c-0.023,0.159,0.087,0.306,0.247,0.326l1.186,0.145c0.16,0.02,0.31-0.096,0.332-0.253
			c0,0,0.032-0.227,0.088-0.482c0.053-0.259,0.117-0.479,0.117-0.479c0.044-0.154-0.046-0.318-0.2-0.365l-1.144-0.351
			c-0.154-0.048-0.313,0.043-0.358,0.196c0,0-0.09,0.318-0.155,0.627C-71.599,65.979-71.646,66.308-71.646,66.308"/>
		<path fill="#FFFFFF" d="M-71.71,69.365c0.012,0.145,0.137,0.25,0.281,0.234l1.066-0.111c0.142-0.015,0.248-0.146,0.237-0.287
			c0,0-0.018-0.206-0.022-0.441c-0.004-0.236,0.007-0.44,0.007-0.44c0.007-0.145-0.105-0.27-0.247-0.278l-1.07-0.075
			c-0.142-0.011-0.265,0.099-0.271,0.243c0,0-0.016,0.297-0.011,0.58C-71.733,69.071-71.71,69.365-71.71,69.365"/>
		<path fill="#FFFFFF" d="M-71.102,72.343c0.037,0.12,0.168,0.185,0.286,0.146l0.896-0.31c0.121-0.041,0.187-0.176,0.148-0.294
			c0,0-0.055-0.174-0.105-0.374c-0.052-0.203-0.082-0.382-0.082-0.382c-0.023-0.125-0.145-0.211-0.271-0.191l-0.935,0.146
			c-0.125,0.021-0.209,0.141-0.187,0.267c0,0,0.046,0.257,0.106,0.499C-71.182,72.091-71.102,72.343-71.102,72.343"/>
		<path fill="#FFFFFF" d="M-63.435,55.626c0.18-0.073,0.384,0.015,0.453,0.195l0.518,1.35c0.07,0.182-0.021,0.39-0.201,0.463
			c0,0-0.252,0.104-0.541,0.243c-0.286,0.141-0.525,0.275-0.525,0.275c-0.168,0.097-0.389,0.039-0.487-0.127l-0.745-1.238
			c-0.098-0.167-0.042-0.379,0.125-0.477c0,0,0.348-0.199,0.691-0.365C-63.806,55.778-63.435,55.626-63.435,55.626"/>
		<path fill="#FFFFFF" d="M-60.433,54.839c0.174-0.027,0.338,0.091,0.362,0.27l0.185,1.305c0.023,0.175-0.1,0.342-0.273,0.372
			c0,0-0.25,0.039-0.532,0.104c-0.284,0.065-0.525,0.138-0.525,0.138c-0.169,0.053-0.353-0.044-0.409-0.213l-0.407-1.256
			c-0.054-0.169,0.039-0.348,0.21-0.397c0,0,0.35-0.106,0.689-0.185S-60.433,54.839-60.433,54.839"/>
		<path fill="#FFFFFF" d="M-57.354,54.734c0.16,0.011,0.279,0.152,0.267,0.311l-0.105,1.19c-0.015,0.16-0.156,0.282-0.316,0.271
			c0,0-0.228-0.013-0.49-0.013c-0.265,0-0.49,0.013-0.49,0.013c-0.162,0.012-0.304-0.11-0.319-0.271l-0.104-1.19
			c-0.014-0.158,0.106-0.3,0.267-0.311c0,0,0.329-0.021,0.646-0.021C-57.687,54.714-57.354,54.734-57.354,54.734"/>
		<path fill="#FFFFFF" d="M-54.35,55.308c0.138,0.04,0.214,0.187,0.169,0.325l-0.331,1.019c-0.044,0.136-0.192,0.214-0.331,0.172
			c0,0-0.195-0.059-0.426-0.113c-0.229-0.052-0.433-0.086-0.433-0.086c-0.142-0.022-0.24-0.157-0.222-0.299l0.15-1.06
			c0.021-0.145,0.152-0.243,0.293-0.22c0,0,0.295,0.049,0.57,0.113C-54.634,55.222-54.35,55.308-54.35,55.308"/>
		<path fill="#FFFFFF" d="M-51.565,56.521c0.111,0.063,0.146,0.204,0.082,0.313l-0.487,0.81c-0.066,0.109-0.208,0.147-0.32,0.084
			c0,0-0.155-0.09-0.343-0.181c-0.19-0.091-0.356-0.158-0.356-0.158c-0.118-0.051-0.177-0.186-0.131-0.306l0.339-0.883
			c0.046-0.118,0.179-0.176,0.297-0.128c0,0,0.244,0.099,0.467,0.207C-51.793,56.39-51.565,56.521-51.565,56.521"/>
	</g>
</g>
<g>
	<g>
		<path fill="#FFFFFF" d="M82.137,1.193c-1.455,0.095-2.539,1.356-2.41,2.811l0.943,10.804c0.129,1.458,1.418,2.563,2.875,2.468
			c0,0,2.061-0.141,4.457-0.141c2.389,0,4.453,0.141,4.453,0.141c1.455,0.095,2.744-1.01,2.873-2.468l0.949-10.804
			c0.121-1.455-0.959-2.716-2.414-2.811c0,0-3-0.193-5.861-0.193C85.133,1,82.137,1.193,82.137,1.193"/>
		<path fill="#FFFFFF" d="M60.971,5.521c-1.275,0.384-1.988,1.747-1.576,3.017l3.086,9.5c0.412,1.273,1.805,2.004,3.088,1.614
			c0,0,1.82-0.543,3.969-1.043c2.141-0.5,4.023-0.795,4.023-0.795c1.33-0.218,2.256-1.482,2.07-2.812l-1.395-9.892
			c-0.188-1.323-1.42-2.234-2.744-2.025c0,0-2.725,0.454-5.297,1.043C63.627,4.726,60.971,5.521,60.971,5.521"/>
		<path fill="#FFFFFF" d="M41.426,14.348c-1.061,0.605-1.418,1.968-0.785,3.014l4.703,7.823c0.631,1.047,2.016,1.406,3.08,0.804
			c0,0,1.504-0.862,3.314-1.75c1.813-0.884,3.426-1.541,3.426-1.541c1.133-0.46,1.701-1.774,1.258-2.922l-3.268-8.523
			c-0.439-1.139-1.725-1.697-2.857-1.23c0,0-2.342,0.958-4.506,2.016C43.621,13.093,41.426,14.348,41.426,14.348"/>
		<path fill="#FFFFFF" d="M24.432,27.18c-0.813,0.749-0.85,2.023-0.076,2.818l5.742,5.945c0.768,0.798,2.066,0.835,2.883,0.083
			c0,0,1.154-1.068,2.572-2.222c1.414-1.142,2.701-2.057,2.701-2.057c0.908-0.641,1.141-1.909,0.521-2.83l-4.627-6.857
			c-0.615-0.917-1.865-1.147-2.771-0.506c0,0-1.869,1.326-3.566,2.701C26.111,25.624,24.432,27.18,24.432,27.18"/>
		<path fill="#FFFFFF" d="M10.783,43.324c-0.559,0.826-0.338,1.946,0.498,2.486l6.205,4.03c0.838,0.54,1.977,0.31,2.535-0.513
			c0,0,0.799-1.166,1.803-2.449c1.002-1.286,1.945-2.342,1.945-2.342c0.662-0.74,0.611-1.906-0.119-2.578l-5.412-5.052
			c-0.732-0.682-1.863-0.623-2.529,0.11c0,0-1.361,1.535-2.564,3.079C11.938,41.639,10.783,43.324,10.783,43.324"/>
		<path fill="#FFFFFF" d="M1.104,61.961c-0.32,0.816,0.098,1.734,0.92,2.035l6.15,2.243c0.824,0.292,1.756-0.129,2.076-0.951
			c0,0,0.457-1.157,1.059-2.468c0.617-1.313,1.215-2.403,1.215-2.403c0.424-0.771,0.145-1.762-0.611-2.201L6.24,54.944
			c-0.758-0.439-1.727-0.166-2.143,0.605c0,0-0.881,1.59-1.607,3.158C1.766,60.27,1.104,61.961,1.104,61.961"/>
		<path fill="#FFFFFF" d="M115.023,5.521c1.283,0.384,1.998,1.747,1.58,3.017l-3.08,9.5c-0.418,1.273-1.813,2.004-3.092,1.614
			c0,0-1.822-0.543-3.965-1.043c-2.152-0.5-4.029-0.795-4.029-0.795c-1.324-0.218-2.25-1.482-2.07-2.812l1.395-9.892
			c0.184-1.323,1.42-2.234,2.744-2.025c0,0,2.729,0.454,5.297,1.043C112.375,4.726,115.023,5.521,115.023,5.521"/>
		<path fill="#FFFFFF" d="M134.572,14.348c1.064,0.605,1.418,1.968,0.785,3.014l-4.699,7.823c-0.635,1.047-2.016,1.406-3.084,0.804
			c0,0-1.504-0.862-3.313-1.75c-1.811-0.884-3.426-1.541-3.426-1.541c-1.135-0.46-1.699-1.774-1.262-2.922l3.266-8.523
			c0.445-1.139,1.729-1.697,2.861-1.23c0,0,2.34,0.958,4.51,2.016C132.377,13.093,134.572,14.348,134.572,14.348"/>
		<path fill="#FFFFFF" d="M151.566,27.18c0.818,0.749,0.859,2.023,0.082,2.818l-5.746,5.945c-0.77,0.798-2.068,0.835-2.879,0.083
			c0,0-1.16-1.068-2.572-2.222c-1.418-1.142-2.709-2.057-2.709-2.057c-0.902-0.641-1.137-1.909-0.516-2.83l4.621-6.857
			c0.623-0.917,1.869-1.147,2.779-0.506c0,0,1.861,1.326,3.557,2.701C149.887,25.624,151.566,27.18,151.566,27.18"/>
		<path fill="#FFFFFF" d="M165.215,43.324c0.559,0.826,0.338,1.946-0.494,2.486l-6.213,4.03c-0.832,0.54-1.977,0.31-2.525-0.513
			c0,0-0.801-1.166-1.809-2.449c-1.004-1.286-1.945-2.342-1.945-2.342c-0.662-0.74-0.613-1.906,0.119-2.578l5.414-5.052
			c0.73-0.682,1.863-0.623,2.527,0.11c0,0,1.361,1.535,2.568,3.079C164.061,41.639,165.215,43.324,165.215,43.324"/>
		<path fill="#FFFFFF" d="M174.895,61.961c0.322,0.816-0.092,1.734-0.92,2.035l-6.148,2.243c-0.822,0.292-1.762-0.129-2.08-0.951
			c0,0-0.451-1.157-1.059-2.468c-0.615-1.313-1.213-2.403-1.213-2.403c-0.42-0.771-0.15-1.762,0.617-2.201l5.666-3.271
			c0.76-0.439,1.725-0.166,2.154,0.605c0,0,0.871,1.59,1.596,3.158C174.238,60.27,174.895,61.961,174.895,61.961"/>
		<path fill="#FFFFFF" d="M66.027,24.139c-1.109,0.329-1.723,1.504-1.367,2.606l2.668,8.213c0.359,1.099,1.557,1.728,2.67,1.391
			c0,0,1.574-0.479,3.428-0.902c1.852-0.43,3.48-0.688,3.48-0.688c1.137-0.184,1.947-1.277,1.781-2.431l-1.197-8.544
			c-0.16-1.151-1.229-1.937-2.373-1.744c0,0-2.357,0.384-4.582,0.894C68.313,23.445,66.027,24.139,66.027,24.139"/>
		<path fill="#FFFFFF" d="M50.395,31.274c-0.92,0.528-1.234,1.71-0.684,2.627l4.09,6.808c0.551,0.915,1.76,1.228,2.684,0.7
			c0,0,1.316-0.749,2.889-1.516c1.576-0.773,2.977-1.341,2.977-1.341c0.988-0.405,1.488-1.556,1.107-2.554l-2.852-7.412
			c-0.383-0.994-1.506-1.482-2.488-1.074c0,0-2.031,0.835-3.922,1.75C52.305,30.185,50.395,31.274,50.395,31.274"/>
		<path fill="#FFFFFF" d="M36.822,41.618c-0.717,0.663-0.748,1.774-0.07,2.471l5.043,5.233c0.678,0.697,1.82,0.727,2.535,0.067
			c0,0,1.014-0.939,2.256-1.949c1.25-1.007,2.381-1.805,2.381-1.805c0.793-0.565,1.002-1.685,0.451-2.499l-4.057-6.019
			c-0.543-0.801-1.645-1.003-2.438-0.445c0,0-1.641,1.163-3.131,2.366C38.299,40.249,36.822,41.618,36.822,41.618"/>
		<path fill="#FFFFFF" d="M25.945,54.604c-0.498,0.733-0.297,1.722,0.439,2.204l5.516,3.585c0.738,0.479,1.752,0.272,2.246-0.458
			c0,0,0.711-1.037,1.605-2.179c0.893-1.145,1.721-2.075,1.721-2.075c0.59-0.66,0.547-1.691-0.104-2.29l-4.807-4.494
			c-0.645-0.602-1.658-0.559-2.24,0.111c0,0-1.209,1.354-2.283,2.725C26.967,53.1,25.945,54.604,25.945,54.604"/>
		<path fill="#FFFFFF" d="M18.254,69.569c-0.289,0.736,0.082,1.563,0.832,1.835l5.533,2.008c0.742,0.276,1.588-0.104,1.869-0.848
			c0,0,0.408-1.04,0.955-2.219c0.553-1.185,1.096-2.167,1.096-2.167c0.381-0.693,0.129-1.58-0.559-1.977l-5.096-2.943
			c-0.689-0.405-1.563-0.153-1.941,0.54c0,0-0.781,1.434-1.439,2.843C18.844,68.05,18.254,69.569,18.254,69.569"/>
		<path fill="#FFFFFF" d="M14.086,85.744c-0.102,0.69,0.387,1.329,1.078,1.412l5.164,0.642c0.693,0.082,1.346-0.412,1.445-1.105
			c0,0,0.137-0.988,0.379-2.105c0.238-1.123,0.51-2.084,0.51-2.084c0.189-0.672-0.201-1.387-0.873-1.593l-4.979-1.52
			c-0.668-0.205-1.367,0.175-1.559,0.856c0,0-0.389,1.381-0.676,2.726C14.295,84.32,14.086,85.744,14.086,85.744"/>
		<path fill="#FFFFFF" d="M92.289,21.604c1.066,0.067,1.863,0.991,1.768,2.06l-0.693,7.912c-0.088,1.065-1.037,1.878-2.1,1.802
			c0,0-1.51-0.095-3.262-0.095c-1.758,0-3.262,0.095-3.262,0.095c-1.068,0.077-2.018-0.736-2.109-1.802l-0.693-7.912
			c-0.096-1.068,0.703-1.992,1.768-2.06c0,0,2.197-0.145,4.297-0.145S92.289,21.604,92.289,21.604"/>
		<path fill="#FFFFFF" d="M109.029,24.949c0.934,0.276,1.451,1.268,1.148,2.198l-2.248,6.899c-0.301,0.927-1.307,1.458-2.236,1.179
			c0,0-1.336-0.402-2.889-0.758c-1.563-0.369-2.928-0.586-2.928-0.586c-0.963-0.15-1.645-1.077-1.504-2.041l1.006-7.188
			c0.139-0.97,1.035-1.627,2.002-1.467c0,0,1.982,0.319,3.85,0.749C107.102,24.369,109.029,24.949,109.029,24.949"/>
		<path fill="#FFFFFF" d="M124.498,31.858c0.77,0.436,1.021,1.409,0.564,2.164l-3.383,5.638c-0.457,0.758-1.457,1.022-2.225,0.58
			c0,0-1.084-0.623-2.387-1.258c-1.305-0.638-2.465-1.108-2.465-1.108c-0.816-0.332-1.23-1.28-0.912-2.109l2.354-6.135
			c0.32-0.822,1.246-1.228,2.066-0.89c0,0,1.686,0.694,3.24,1.449C122.92,30.949,124.498,31.858,124.498,31.858"/>
		<path fill="#FFFFFF" d="M137.967,41.931c0.586,0.534,0.607,1.439,0.061,2.013l-4.092,4.235c-0.553,0.568-1.473,0.596-2.059,0.052
			c0,0-0.82-0.764-1.83-1.581c-1.012-0.816-1.928-1.464-1.928-1.464c-0.646-0.458-0.816-1.356-0.373-2.022l3.295-4.877
			c0.443-0.657,1.336-0.819,1.98-0.365c0,0,1.332,0.945,2.539,1.925C136.775,40.823,137.967,41.931,137.967,41.931"/>
		<path fill="#FFFFFF" d="M148.813,54.644c0.391,0.574,0.232,1.363-0.354,1.737l-4.361,2.839c-0.588,0.378-1.391,0.221-1.783-0.362
			c0,0-0.561-0.819-1.268-1.728c-0.709-0.896-1.369-1.639-1.369-1.639c-0.465-0.521-0.432-1.338,0.086-1.814l3.807-3.557
			c0.51-0.473,1.305-0.433,1.773,0.083c0,0,0.961,1.077,1.809,2.167C147.996,53.45,148.813,54.644,148.813,54.644"/>
		<path fill="#FFFFFF" d="M58.934,47.081c-0.773,0.439-1.029,1.412-0.578,2.173l3.393,5.638c0.457,0.755,1.451,1.013,2.219,0.568
			c0,0,1.09-0.617,2.391-1.252c1.305-0.632,2.465-1.108,2.465-1.108c0.816-0.337,1.23-1.283,0.914-2.105l-2.355-6.145
			c-0.322-0.819-1.246-1.221-2.066-0.89c0,0-1.686,0.693-3.248,1.455C60.512,46.176,58.934,47.081,58.934,47.081"/>
		<path fill="#FFFFFF" d="M48.547,55.061c-0.598,0.549-0.619,1.482-0.061,2.069l4.207,4.343c0.563,0.59,1.514,0.617,2.109,0.067
			c0,0,0.854-0.782,1.891-1.63c1.033-0.831,1.979-1.504,1.979-1.504c0.666-0.463,0.838-1.396,0.379-2.078l-3.387-5.018
			c-0.451-0.669-1.369-0.841-2.031-0.372c0,0-1.365,0.97-2.609,1.977C49.775,53.922,48.547,55.061,48.547,55.061"/>
		<path fill="#FFFFFF" d="M40.244,65.061c-0.416,0.617-0.254,1.449,0.373,1.86l4.637,3.008c0.623,0.405,1.477,0.229,1.896-0.384
			c0,0,0.59-0.869,1.342-1.832c0.748-0.967,1.457-1.75,1.457-1.75c0.488-0.556,0.451-1.424-0.094-1.931l-4.047-3.771
			c-0.539-0.501-1.393-0.464-1.883,0.086c0,0-1.02,1.147-1.92,2.296C41.107,63.799,40.244,65.061,40.244,65.061"/>
		<path fill="#FFFFFF" d="M34.395,76.573c-0.246,0.62,0.07,1.332,0.707,1.563l4.707,1.712c0.629,0.219,1.348-0.101,1.59-0.724
			c0,0,0.35-0.896,0.811-1.897c0.471-1.003,0.934-1.841,0.934-1.841c0.322-0.59,0.113-1.345-0.473-1.676l-4.338-2.508
			c-0.582-0.341-1.324-0.132-1.65,0.46c0,0-0.666,1.222-1.225,2.413C34.9,75.278,34.395,76.573,34.395,76.573"/>
		<path fill="#FFFFFF" d="M31.252,89.001c-0.09,0.595,0.332,1.142,0.928,1.215l4.455,0.547c0.6,0.067,1.158-0.356,1.244-0.949
			c0,0,0.125-0.847,0.332-1.816c0.201-0.97,0.436-1.793,0.436-1.793c0.162-0.586-0.176-1.196-0.75-1.378l-4.293-1.313
			c-0.578-0.172-1.18,0.163-1.348,0.74c0,0-0.334,1.19-0.584,2.354C31.43,87.767,31.252,89.001,31.252,89.001"/>
		<path fill="#FFFFFF" d="M30.924,101.713c0.045,0.541,0.516,0.931,1.043,0.872l3.945-0.417c0.529-0.053,0.926-0.537,0.881-1.065
			c0,0-0.059-0.755-0.074-1.627c-0.016-0.878,0.016-1.633,0.016-1.633c0.029-0.524-0.385-0.997-0.912-1.034l-3.959-0.276
			c-0.531-0.033-0.988,0.372-1.014,0.896c0,0-0.053,1.102-0.033,2.151C30.838,100.627,30.924,101.713,30.924,101.713"/>
		<path fill="#FFFFFF" d="M77.994,40.697c0.807-0.129,1.553,0.417,1.662,1.221l0.848,6c0.111,0.804-0.455,1.571-1.256,1.704
			c0,0-1.139,0.175-2.443,0.482c-1.297,0.301-2.402,0.632-2.402,0.632c-0.773,0.233-1.621-0.208-1.869-0.979L70.66,44
			c-0.254-0.773,0.18-1.599,0.955-1.832c0,0,1.605-0.482,3.168-0.838C76.336,40.967,77.994,40.697,77.994,40.697"/>
		<path fill="#FFFFFF" d="M90.992,40.313c0.742,0.049,1.291,0.694,1.23,1.43l-0.482,5.512c-0.07,0.74-0.727,1.305-1.467,1.255
			c0,0-1.059-0.07-2.271-0.07c-1.229,0-2.273,0.07-2.273,0.07c-0.744,0.049-1.4-0.516-1.465-1.255l-0.482-5.512
			c-0.064-0.736,0.486-1.381,1.225-1.43c0,0,1.531-0.101,2.996-0.101C89.459,40.212,90.992,40.313,90.992,40.313"/>
		<path fill="#FFFFFF" d="M103.658,42.784c0.645,0.2,1,0.881,0.791,1.516l-1.547,4.77c-0.205,0.639-0.902,1.004-1.547,0.811
			c0,0-0.914-0.276-1.99-0.531c-1.074-0.246-2.02-0.399-2.02-0.399c-0.664-0.104-1.131-0.74-1.035-1.409l0.697-4.96
			c0.092-0.663,0.709-1.117,1.377-1.01c0,0,1.367,0.224,2.656,0.519C102.332,42.385,103.658,42.784,103.658,42.784"/>
		<path fill="#FFFFFF" d="M115.389,47.959c0.525,0.301,0.693,0.97,0.387,1.492l-2.311,3.842c-0.311,0.513-0.992,0.691-1.52,0.393
			c0,0-0.742-0.43-1.633-0.866c-0.891-0.43-1.682-0.749-1.682-0.749c-0.557-0.23-0.836-0.881-0.621-1.443l1.609-4.189
			c0.215-0.564,0.854-0.838,1.404-0.607c0,0,1.152,0.473,2.221,0.991C114.309,47.351,115.389,47.959,115.389,47.959"/>
		<path fill="#FFFFFF" d="M125.615,55.537c0.387,0.359,0.404,0.97,0.033,1.357l-2.752,2.852c-0.371,0.38-0.992,0.396-1.381,0.036
			c0,0-0.559-0.509-1.234-1.062c-0.682-0.553-1.299-0.985-1.299-0.985c-0.436-0.31-0.549-0.927-0.252-1.366l2.219-3.284
			c0.295-0.445,0.891-0.552,1.326-0.243c0,0,0.906,0.632,1.711,1.292C124.805,54.794,125.615,55.537,125.615,55.537"/>
		<path fill="#FFFFFF" d="M58.068,65.847c-0.488,0.448-0.51,1.209-0.053,1.682l3.426,3.548c0.463,0.479,1.24,0.504,1.719,0.056
			c0,0,0.695-0.642,1.537-1.323c0.848-0.688,1.615-1.228,1.615-1.228c0.537-0.384,0.684-1.145,0.309-1.7l-2.758-4.088
			c-0.369-0.544-1.115-0.679-1.652-0.298c0,0-1.117,0.792-2.127,1.604C59.068,64.923,58.068,65.847,58.068,65.847"/>
		<path fill="#FFFFFF" d="M51.824,73.431c-0.34,0.509-0.205,1.188,0.305,1.519l3.813,2.48c0.51,0.322,1.209,0.184,1.553-0.319
			c0,0,0.482-0.709,1.102-1.504c0.619-0.792,1.197-1.439,1.197-1.439c0.402-0.448,0.367-1.166-0.08-1.574l-3.318-3.101
			c-0.445-0.414-1.141-0.383-1.549,0.071c0,0-0.832,0.938-1.574,1.884C52.533,72.396,51.824,73.431,51.824,73.431"/>
		<path fill="#FFFFFF" d="M47.449,82.141c-0.203,0.519,0.057,1.105,0.582,1.296l3.895,1.421c0.521,0.184,1.121-0.083,1.324-0.604
			c0,0,0.285-0.734,0.668-1.563c0.387-0.829,0.773-1.525,0.773-1.525c0.258-0.488,0.09-1.111-0.389-1.394l-3.596-2.072
			c-0.48-0.282-1.098-0.11-1.361,0.381c0,0-0.557,1.004-1.02,2.004C47.865,81.066,47.449,82.141,47.449,82.141"/>
		<path fill="#FFFFFF" d="M45.115,91.539c-0.072,0.5,0.273,0.961,0.777,1.025l3.727,0.454c0.502,0.062,0.973-0.301,1.043-0.795
			c0,0,0.102-0.713,0.275-1.517c0.166-0.813,0.369-1.507,0.369-1.507c0.139-0.485-0.145-1.001-0.629-1.148l-3.594-1.102
			c-0.486-0.15-0.986,0.135-1.127,0.617c0,0-0.283,1-0.488,1.971C45.264,90.505,45.115,91.539,45.115,91.539"/>
		<path fill="#FFFFFF" d="M44.914,101.148c0.035,0.454,0.43,0.786,0.883,0.736l3.352-0.35c0.445-0.046,0.779-0.457,0.746-0.902
			c0,0-0.055-0.647-0.07-1.387c-0.012-0.743,0.021-1.385,0.021-1.385c0.021-0.454-0.332-0.847-0.777-0.875l-3.363-0.236
			c-0.445-0.033-0.832,0.311-0.854,0.765c0,0-0.049,0.933-0.033,1.823C44.84,100.225,44.914,101.148,44.914,101.148"/>
		<path fill="#FFFFFF" d="M46.826,110.507c0.115,0.377,0.527,0.58,0.898,0.457l2.818-0.973c0.379-0.129,0.586-0.553,0.465-0.924
			c0,0-0.172-0.547-0.33-1.176c-0.164-0.639-0.258-1.2-0.258-1.2c-0.074-0.393-0.455-0.663-0.852-0.602l-2.936,0.461
			c-0.395,0.064-0.658,0.441-0.588,0.838c0,0,0.145,0.807,0.336,1.568C46.574,109.715,46.826,110.507,46.826,110.507"/>
		<path fill="#FFFFFF" d="M70.922,57.968c0.564-0.23,1.207,0.046,1.424,0.613l1.627,4.242c0.221,0.571-0.064,1.225-0.633,1.455
			c0,0-0.791,0.325-1.699,0.764c-0.9,0.442-1.652,0.866-1.652,0.866c-0.527,0.304-1.221,0.122-1.531-0.399l-2.342-3.892
			c-0.307-0.525-0.131-1.191,0.393-1.498c0,0,1.094-0.626,2.174-1.147C69.756,58.446,70.922,57.968,70.922,57.968"/>
		<path fill="#FFFFFF" d="M80.357,55.494c0.545-0.086,1.061,0.286,1.139,0.847l0.58,4.101c0.072,0.55-0.314,1.074-0.859,1.169
			c0,0-0.787,0.123-1.674,0.329c-0.893,0.205-1.65,0.433-1.65,0.433c-0.531,0.166-1.109-0.138-1.287-0.669l-1.279-3.947
			c-0.168-0.531,0.123-1.093,0.66-1.249c0,0,1.098-0.334,2.166-0.58S80.357,55.494,80.357,55.494"/>
		<path fill="#FFFFFF" d="M90.031,55.166c0.502,0.034,0.877,0.479,0.838,0.976l-0.332,3.741c-0.047,0.503-0.49,0.887-0.994,0.851
			c0,0-0.715-0.04-1.541-0.04c-0.832,0-1.541,0.04-1.541,0.04c-0.51,0.036-0.955-0.348-1.004-0.851l-0.324-3.741
			c-0.043-0.498,0.334-0.942,0.838-0.976c0,0,1.033-0.064,2.031-0.064C88.986,55.101,90.031,55.166,90.031,55.166"/>
		<path fill="#FFFFFF" d="M99.475,56.967c0.434,0.125,0.672,0.586,0.531,1.022l-1.041,3.201c-0.137,0.427-0.604,0.672-1.039,0.54
			c0,0-0.615-0.185-1.34-0.356c-0.721-0.162-1.359-0.27-1.359-0.27c-0.445-0.07-0.754-0.494-0.697-0.939l0.473-3.33
			c0.064-0.454,0.48-0.764,0.922-0.69c0,0,0.928,0.153,1.793,0.356C98.582,56.697,99.475,56.967,99.475,56.967"/>
		<path fill="#FFFFFF" d="M108.225,60.779c0.35,0.196,0.461,0.642,0.258,0.985l-1.531,2.544c-0.209,0.344-0.654,0.464-1.006,0.264
			c0,0-0.488-0.282-1.078-0.567c-0.598-0.285-1.119-0.497-1.119-0.497c-0.373-0.16-0.557-0.583-0.412-0.961l1.064-2.774
			c0.145-0.371,0.563-0.553,0.934-0.402c0,0,0.768,0.311,1.467,0.65C107.51,60.368,108.225,60.779,108.225,60.779"/>
	</g>
</g>
<g>
	<g>
		<path fill="#052555" d="M-161.866,37.562c-0.463,0.03-0.808,0.432-0.767,0.895l0.3,3.438c0.041,0.464,0.451,0.815,0.915,0.785
			c0,0,0.655-0.045,1.418-0.045c0.76,0,1.417,0.045,1.417,0.045c0.463,0.03,0.873-0.321,0.914-0.785l0.302-3.438
			c0.039-0.463-0.305-0.864-0.768-0.895c0,0-0.955-0.062-1.865-0.062C-160.913,37.5-161.866,37.562-161.866,37.562"/>
		<path fill="#052555" d="M-168.601,38.938c-0.406,0.122-0.633,0.556-0.502,0.96l0.982,3.022c0.131,0.405,0.574,0.638,0.982,0.514
			c0,0,0.579-0.173,1.263-0.332c0.681-0.159,1.28-0.253,1.28-0.253c0.423-0.069,0.718-0.472,0.658-0.895l-0.443-3.147
			c-0.06-0.421-0.452-0.711-0.873-0.645c0,0-0.867,0.145-1.686,0.332C-167.756,38.686-168.601,38.938-168.601,38.938"/>
		<path fill="#052555" d="M-174.819,41.747c-0.338,0.192-0.451,0.626-0.25,0.959l1.496,2.489c0.201,0.333,0.642,0.447,0.98,0.256
			c0,0,0.479-0.274,1.055-0.557c0.576-0.281,1.09-0.49,1.09-0.49c0.36-0.146,0.541-0.564,0.4-0.93l-1.04-2.712
			c-0.14-0.362-0.549-0.54-0.909-0.392c0,0-0.745,0.305-1.434,0.642C-174.121,41.348-174.819,41.747-174.819,41.747"/>
		<path fill="#052555" d="M-180.227,45.83c-0.259,0.238-0.271,0.644-0.024,0.896l1.827,1.892c0.244,0.254,0.657,0.266,0.917,0.026
			c0,0,0.367-0.34,0.818-0.707c0.45-0.363,0.859-0.654,0.859-0.654c0.289-0.204,0.363-0.607,0.166-0.9l-1.472-2.182
			c-0.196-0.292-0.594-0.365-0.882-0.161c0,0-0.595,0.422-1.135,0.859C-179.692,45.335-180.227,45.83-180.227,45.83"/>
		<path fill="#052555" d="M-184.569,50.967c-0.178,0.263-0.107,0.619,0.158,0.791l1.975,1.282c0.267,0.172,0.629,0.099,0.807-0.163
			c0,0,0.254-0.371,0.573-0.779c0.319-0.409,0.619-0.745,0.619-0.745c0.211-0.235,0.194-0.606-0.038-0.82l-1.722-1.607
			c-0.233-0.217-0.593-0.198-0.805,0.035c0,0-0.434,0.488-0.816,0.979C-184.202,50.431-184.569,50.967-184.569,50.967"/>
		<path fill="#052555" d="M-187.649,56.896c-0.102,0.26,0.031,0.552,0.293,0.647l1.957,0.714c0.262,0.093,0.559-0.041,0.66-0.303
			c0,0,0.146-0.368,0.337-0.785c0.196-0.418,0.387-0.765,0.387-0.765c0.135-0.245,0.046-0.561-0.194-0.7l-1.805-1.041
			c-0.241-0.14-0.55-0.053-0.682,0.192c0,0-0.28,0.506-0.512,1.005C-187.438,56.358-187.649,56.896-187.649,56.896"/>
		<path fill="#052555" d="M-151.402,38.938c0.408,0.122,0.636,0.556,0.503,0.96l-0.98,3.022c-0.133,0.405-0.576,0.638-0.983,0.514
			c0,0-0.58-0.173-1.262-0.332c-0.685-0.159-1.282-0.253-1.282-0.253c-0.421-0.069-0.716-0.472-0.658-0.895l0.443-3.147
			c0.059-0.421,0.452-0.711,0.873-0.645c0,0,0.868,0.145,1.686,0.332C-152.245,38.686-151.402,38.938-151.402,38.938"/>
		<path fill="#052555" d="M-145.183,41.747c0.339,0.192,0.451,0.626,0.25,0.959l-1.495,2.489c-0.202,0.333-0.642,0.447-0.981,0.256
			c0,0-0.479-0.274-1.054-0.557c-0.576-0.281-1.09-0.49-1.09-0.49c-0.361-0.146-0.541-0.564-0.401-0.93l1.039-2.712
			c0.142-0.362,0.55-0.54,0.91-0.392c0,0,0.744,0.305,1.435,0.642C-145.881,41.348-145.183,41.747-145.183,41.747"/>
		<path fill="#052555" d="M-139.775,45.83c0.261,0.238,0.273,0.644,0.026,0.896l-1.828,1.892c-0.245,0.254-0.658,0.266-0.916,0.026
			c0,0-0.369-0.34-0.818-0.707c-0.451-0.363-0.862-0.654-0.862-0.654c-0.287-0.204-0.361-0.607-0.164-0.9l1.471-2.182
			c0.198-0.292,0.595-0.365,0.884-0.161c0,0,0.593,0.422,1.132,0.859C-140.31,45.335-139.775,45.83-139.775,45.83"/>
		<path fill="#052555" d="M-135.433,50.967c0.178,0.263,0.107,0.619-0.157,0.791l-1.977,1.282c-0.265,0.172-0.629,0.099-0.804-0.163
			c0,0-0.255-0.371-0.575-0.779c-0.319-0.409-0.619-0.745-0.619-0.745c-0.211-0.235-0.195-0.606,0.038-0.82l1.723-1.607
			c0.232-0.217,0.593-0.198,0.804,0.035c0,0,0.434,0.488,0.817,0.979C-135.8,50.431-135.433,50.967-135.433,50.967"/>
		<path fill="#052555" d="M-132.353,56.896c0.103,0.26-0.029,0.552-0.293,0.647l-1.956,0.714c-0.262,0.093-0.561-0.041-0.662-0.303
			c0,0-0.144-0.368-0.337-0.785c-0.195-0.418-0.386-0.765-0.386-0.765c-0.134-0.245-0.048-0.561,0.196-0.7l1.803-1.041
			c0.242-0.14,0.549-0.053,0.686,0.192c0,0,0.277,0.506,0.508,1.005C-132.562,56.358-132.353,56.896-132.353,56.896"/>
		<path fill="#052555" d="M-166.992,44.862c-0.353,0.104-0.548,0.479-0.435,0.829l0.849,2.613c0.114,0.35,0.495,0.55,0.85,0.442
			c0,0,0.501-0.152,1.091-0.287c0.589-0.137,1.107-0.219,1.107-0.219c0.361-0.059,0.619-0.406,0.566-0.773l-0.381-2.719
			c-0.051-0.366-0.391-0.616-0.755-0.555c0,0-0.75,0.122-1.458,0.284C-166.265,44.642-166.992,44.862-166.992,44.862"/>
		<path fill="#052555" d="M-171.966,47.133c-0.293,0.168-0.393,0.544-0.218,0.836l1.302,2.166c0.175,0.291,0.56,0.391,0.854,0.223
			c0,0,0.419-0.238,0.919-0.482c0.502-0.246,0.947-0.427,0.947-0.427c0.314-0.129,0.474-0.495,0.353-0.813l-0.907-2.358
			c-0.122-0.316-0.479-0.472-0.792-0.342c0,0-0.646,0.266-1.248,0.557C-171.358,46.786-171.966,47.133-171.966,47.133"/>
		<path fill="#052555" d="M-176.284,50.424c-0.229,0.211-0.238,0.564-0.022,0.786l1.604,1.665c0.216,0.222,0.579,0.231,0.807,0.021
			c0,0,0.322-0.299,0.718-0.62c0.397-0.32,0.758-0.574,0.758-0.574c0.252-0.18,0.318-0.536,0.144-0.795l-1.291-1.915
			c-0.173-0.255-0.523-0.319-0.775-0.142c0,0-0.522,0.37-0.996,0.753C-175.814,49.988-176.284,50.424-176.284,50.424"/>
		<path fill="#052555" d="M-179.745,54.556c-0.158,0.233-0.095,0.548,0.14,0.701l1.755,1.141c0.235,0.152,0.558,0.087,0.715-0.146
			c0,0,0.227-0.33,0.511-0.693c0.284-0.364,0.548-0.66,0.548-0.66c0.188-0.21,0.174-0.538-0.033-0.729l-1.529-1.43
			c-0.205-0.191-0.527-0.178-0.713,0.035c0,0-0.385,0.431-0.727,0.867C-179.42,54.077-179.745,54.556-179.745,54.556"/>
		<path fill="#052555" d="M-182.192,59.317c-0.092,0.234,0.026,0.497,0.265,0.584l1.761,0.639c0.236,0.088,0.505-0.033,0.595-0.27
			c0,0,0.13-0.331,0.304-0.706c0.176-0.377,0.349-0.689,0.349-0.689c0.121-0.221,0.041-0.503-0.178-0.629l-1.621-0.937
			c-0.22-0.129-0.497-0.049-0.618,0.172c0,0-0.248,0.456-0.458,0.904S-182.192,59.317-182.192,59.317"/>
		<path fill="#052555" d="M-183.519,64.464c-0.032,0.22,0.123,0.423,0.343,0.449l1.644,0.204c0.221,0.026,0.428-0.131,0.46-0.352
			c0,0,0.043-0.314,0.12-0.67c0.076-0.357,0.162-0.663,0.162-0.663c0.061-0.214-0.063-0.441-0.277-0.507l-1.584-0.483
			c-0.213-0.065-0.436,0.056-0.496,0.272c0,0-0.124,0.439-0.215,0.867C-183.452,64.011-183.519,64.464-183.519,64.464"/>
		<path fill="#052555" d="M-158.636,44.056c0.339,0.021,0.593,0.315,0.563,0.655l-0.221,2.518c-0.028,0.339-0.33,0.598-0.668,0.573
			c0,0-0.48-0.03-1.038-0.03c-0.56,0-1.038,0.03-1.038,0.03c-0.34,0.024-0.642-0.234-0.671-0.573l-0.221-2.518
			c-0.03-0.34,0.224-0.634,0.563-0.655c0,0,0.699-0.046,1.367-0.046S-158.636,44.056-158.636,44.056"/>
		<path fill="#052555" d="M-153.31,45.12c0.297,0.088,0.462,0.403,0.365,0.699l-0.715,2.195c-0.096,0.295-0.416,0.464-0.712,0.375
			c0,0-0.425-0.128-0.919-0.241c-0.497-0.117-0.932-0.187-0.932-0.187c-0.307-0.048-0.523-0.343-0.479-0.649l0.32-2.287
			c0.044-0.309,0.329-0.518,0.637-0.467c0,0,0.631,0.102,1.225,0.238C-153.923,44.936-153.31,45.12-153.31,45.12"/>
		<path fill="#052555" d="M-148.388,47.318c0.245,0.139,0.325,0.448,0.18,0.688l-1.076,1.794c-0.146,0.241-0.464,0.325-0.708,0.185
			c0,0-0.345-0.198-0.76-0.4c-0.415-0.203-0.784-0.353-0.784-0.353c-0.26-0.105-0.392-0.407-0.29-0.671l0.749-1.952
			c0.102-0.262,0.396-0.391,0.657-0.283c0,0,0.536,0.221,1.031,0.461C-148.89,47.029-148.388,47.318-148.388,47.318"/>
		<path fill="#052555" d="M-144.103,50.523c0.187,0.17,0.193,0.458,0.02,0.641l-1.302,1.348c-0.176,0.181-0.469,0.189-0.655,0.017
			c0,0-0.261-0.243-0.582-0.503c-0.322-0.26-0.613-0.466-0.613-0.466c-0.206-0.146-0.26-0.432-0.119-0.644l1.049-1.552
			c0.141-0.209,0.425-0.261,0.63-0.116c0,0,0.424,0.301,0.808,0.612C-144.481,50.171-144.103,50.523-144.103,50.523"/>
		<path fill="#052555" d="M-140.651,54.568c0.124,0.183,0.074,0.434-0.112,0.553l-1.388,0.903c-0.188,0.12-0.442,0.07-0.567-0.115
			c0,0-0.179-0.261-0.403-0.55c-0.226-0.285-0.436-0.521-0.436-0.521c-0.148-0.166-0.138-0.426,0.027-0.577l1.211-1.132
			c0.162-0.15,0.415-0.138,0.564,0.026c0,0,0.306,0.343,0.575,0.689C-140.911,54.188-140.651,54.568-140.651,54.568"/>
		<path fill="#052555" d="M-169.249,52.162c-0.246,0.14-0.327,0.449-0.184,0.691l1.079,1.794c0.146,0.24,0.462,0.322,0.706,0.181
			c0,0,0.347-0.196,0.761-0.398c0.415-0.201,0.784-0.353,0.784-0.353c0.26-0.107,0.392-0.408,0.291-0.67l-0.75-1.955
			c-0.103-0.261-0.396-0.389-0.657-0.283c0,0-0.536,0.221-1.033,0.463C-168.747,51.874-169.249,52.162-169.249,52.162"/>
		<path fill="#052555" d="M-172.554,54.701c-0.19,0.175-0.197,0.472-0.02,0.658l1.339,1.382c0.179,0.188,0.481,0.196,0.671,0.021
			c0,0,0.271-0.249,0.602-0.519c0.329-0.265,0.63-0.479,0.63-0.479c0.212-0.147,0.267-0.444,0.12-0.661l-1.077-1.597
			c-0.144-0.213-0.436-0.268-0.646-0.118c0,0-0.435,0.309-0.83,0.629C-172.163,54.339-172.554,54.701-172.554,54.701"/>
		<path fill="#052555" d="M-175.195,57.883c-0.133,0.196-0.081,0.461,0.118,0.592l1.476,0.957c0.198,0.129,0.47,0.073,0.604-0.122
			c0,0,0.188-0.276,0.427-0.583c0.238-0.308,0.464-0.557,0.464-0.557c0.155-0.177,0.144-0.453-0.03-0.614l-1.287-1.2
			c-0.172-0.159-0.443-0.147-0.6,0.027c0,0-0.324,0.365-0.61,0.73C-174.921,57.481-175.195,57.883-175.195,57.883"/>
		<path fill="#052555" d="M-177.057,61.546c-0.078,0.197,0.022,0.424,0.225,0.497l1.498,0.545c0.2,0.069,0.429-0.032,0.506-0.23
			c0,0,0.111-0.285,0.258-0.604c0.149-0.319,0.297-0.586,0.297-0.586c0.103-0.188,0.036-0.428-0.15-0.533l-1.38-0.798
			c-0.186-0.108-0.422-0.042-0.525,0.146c0,0-0.212,0.389-0.39,0.768C-176.896,61.134-177.057,61.546-177.057,61.546"/>
		<path fill="#052555" d="M-178.057,65.5c-0.028,0.189,0.105,0.363,0.295,0.387l1.418,0.174c0.19,0.021,0.368-0.113,0.396-0.302
			c0,0,0.04-0.27,0.105-0.578c0.064-0.309,0.139-0.57,0.139-0.57c0.052-0.187-0.056-0.381-0.238-0.438l-1.366-0.418
			c-0.184-0.055-0.375,0.052-0.429,0.235c0,0-0.106,0.379-0.186,0.749C-178,65.107-178.057,65.5-178.057,65.5"/>
		<path fill="#052555" d="M-178.161,69.545c0.015,0.172,0.164,0.296,0.332,0.277l1.255-0.133c0.169-0.017,0.295-0.171,0.28-0.339
			c0,0-0.019-0.24-0.023-0.518c-0.005-0.279,0.005-0.52,0.005-0.52c0.01-0.167-0.122-0.317-0.29-0.329l-1.26-0.088
			c-0.169-0.011-0.314,0.118-0.322,0.285c0,0-0.017,0.351-0.011,0.685C-178.188,69.199-178.161,69.545-178.161,69.545"/>
		<path fill="#052555" d="M-163.185,50.131c0.257-0.041,0.494,0.133,0.529,0.389l0.27,1.909c0.035,0.256-0.145,0.5-0.399,0.542
			c0,0-0.362,0.056-0.777,0.153c-0.413,0.096-0.765,0.201-0.765,0.201c-0.246,0.074-0.516-0.066-0.595-0.312l-0.596-1.832
			c-0.081-0.246,0.057-0.509,0.304-0.583c0,0,0.511-0.153,1.008-0.267C-163.712,50.217-163.185,50.131-163.185,50.131"/>
		<path fill="#052555" d="M-159.049,50.009c0.236,0.016,0.411,0.221,0.392,0.455l-0.153,1.754c-0.022,0.235-0.231,0.415-0.467,0.399
			c0,0-0.337-0.022-0.723-0.022c-0.391,0-0.724,0.022-0.724,0.022c-0.236,0.016-0.445-0.164-0.466-0.399l-0.153-1.754
			c-0.021-0.234,0.154-0.439,0.39-0.455c0,0,0.487-0.032,0.953-0.032C-159.536,49.977-159.049,50.009-159.049,50.009"/>
		<path fill="#052555" d="M-155.019,50.795c0.205,0.063,0.318,0.28,0.252,0.482l-0.492,1.518c-0.065,0.203-0.287,0.319-0.492,0.258
			c0,0-0.291-0.088-0.634-0.169c-0.342-0.078-0.643-0.127-0.643-0.127c-0.211-0.033-0.359-0.235-0.329-0.448l0.222-1.578
			c0.029-0.211,0.226-0.355,0.438-0.321c0,0,0.435,0.071,0.845,0.165C-155.44,50.668-155.019,50.795-155.019,50.795"/>
		<path fill="#052555" d="M-151.286,52.441c0.167,0.096,0.221,0.309,0.123,0.475l-0.735,1.223c-0.099,0.163-0.315,0.22-0.483,0.125
			c0,0-0.236-0.137-0.52-0.275c-0.283-0.137-0.535-0.238-0.535-0.238c-0.177-0.073-0.266-0.28-0.197-0.459l0.512-1.333
			c0.068-0.18,0.271-0.267,0.447-0.193c0,0,0.366,0.15,0.706,0.315C-151.63,52.248-151.286,52.441-151.286,52.441"/>
		<path fill="#052555" d="M-148.032,54.853c0.123,0.114,0.129,0.309,0.011,0.432l-0.876,0.907c-0.118,0.121-0.315,0.126-0.439,0.012
			c0,0-0.178-0.162-0.393-0.338c-0.217-0.176-0.413-0.313-0.413-0.313c-0.139-0.099-0.175-0.295-0.08-0.435l0.706-1.045
			c0.094-0.142,0.283-0.176,0.422-0.077c0,0,0.288,0.201,0.544,0.411C-148.29,54.616-148.032,54.853-148.032,54.853"/>
		<path fill="#052555" d="M-169.524,58.133c-0.155,0.143-0.162,0.385-0.017,0.535l1.09,1.129c0.147,0.152,0.395,0.16,0.547,0.018
			c0,0,0.222-0.204,0.489-0.421c0.27-0.219,0.514-0.391,0.514-0.391c0.171-0.122,0.218-0.364,0.099-0.541l-0.878-1.301
			c-0.117-0.173-0.354-0.216-0.525-0.095c0,0-0.355,0.252-0.677,0.511C-169.206,57.839-169.524,58.133-169.524,58.133"/>
		<path fill="#052555" d="M-171.511,60.546c-0.108,0.162-0.065,0.378,0.097,0.483l1.213,0.789c0.162,0.103,0.385,0.059,0.494-0.102
			c0,0,0.153-0.226,0.351-0.479c0.197-0.252,0.381-0.458,0.381-0.458c0.128-0.143,0.117-0.371-0.025-0.501l-1.056-0.986
			c-0.142-0.132-0.363-0.122-0.493,0.022c0,0-0.265,0.299-0.501,0.6C-171.285,60.217-171.511,60.546-171.511,60.546"/>
		<path fill="#052555" d="M-172.903,63.317c-0.064,0.165,0.019,0.352,0.186,0.412l1.239,0.452c0.166,0.059,0.356-0.026,0.421-0.192
			c0,0,0.091-0.233,0.213-0.497c0.123-0.264,0.246-0.485,0.246-0.485c0.082-0.155,0.028-0.354-0.124-0.443l-1.144-0.659
			c-0.153-0.09-0.35-0.035-0.434,0.121c0,0-0.177,0.319-0.324,0.638C-172.771,62.976-172.903,63.317-172.903,63.317"/>
		<path fill="#052555" d="M-173.646,66.308c-0.023,0.159,0.087,0.306,0.247,0.326l1.186,0.145c0.16,0.02,0.31-0.096,0.332-0.253
			c0,0,0.032-0.227,0.088-0.482c0.053-0.259,0.117-0.479,0.117-0.479c0.044-0.154-0.046-0.318-0.2-0.365l-1.144-0.351
			c-0.154-0.048-0.313,0.043-0.358,0.196c0,0-0.09,0.318-0.155,0.627C-173.599,65.979-173.646,66.308-173.646,66.308"/>
		<path fill="#052555" d="M-173.71,69.365c0.012,0.145,0.137,0.25,0.281,0.234l1.066-0.111c0.142-0.015,0.248-0.146,0.237-0.287
			c0,0-0.018-0.206-0.022-0.441c-0.004-0.236,0.007-0.44,0.007-0.44c0.007-0.145-0.105-0.27-0.247-0.278l-1.07-0.075
			c-0.142-0.011-0.265,0.099-0.271,0.243c0,0-0.016,0.297-0.011,0.58C-173.733,69.071-173.71,69.365-173.71,69.365"/>
		<path fill="#052555" d="M-173.102,72.343c0.037,0.12,0.168,0.185,0.286,0.146l0.896-0.31c0.121-0.041,0.187-0.176,0.148-0.294
			c0,0-0.055-0.174-0.105-0.374c-0.052-0.203-0.082-0.382-0.082-0.382c-0.023-0.125-0.145-0.211-0.271-0.191l-0.935,0.146
			c-0.125,0.021-0.209,0.141-0.187,0.267c0,0,0.046,0.257,0.106,0.499C-173.182,72.091-173.102,72.343-173.102,72.343"/>
		<path fill="#052555" d="M-165.435,55.626c0.18-0.073,0.384,0.015,0.453,0.195l0.518,1.35c0.07,0.182-0.021,0.39-0.201,0.463
			c0,0-0.252,0.104-0.541,0.243c-0.286,0.141-0.525,0.275-0.525,0.275c-0.168,0.097-0.389,0.039-0.487-0.127l-0.745-1.238
			c-0.098-0.167-0.042-0.379,0.125-0.477c0,0,0.348-0.199,0.691-0.365C-165.806,55.778-165.435,55.626-165.435,55.626"/>
		<path fill="#052555" d="M-162.433,54.839c0.174-0.027,0.338,0.091,0.362,0.27l0.185,1.305c0.023,0.175-0.1,0.342-0.273,0.372
			c0,0-0.25,0.039-0.532,0.104c-0.284,0.065-0.525,0.138-0.525,0.138c-0.169,0.053-0.353-0.044-0.409-0.213l-0.407-1.256
			c-0.054-0.169,0.039-0.348,0.21-0.397c0,0,0.35-0.106,0.689-0.185S-162.433,54.839-162.433,54.839"/>
		<path fill="#052555" d="M-159.354,54.734c0.16,0.011,0.279,0.152,0.267,0.311l-0.105,1.19c-0.015,0.16-0.156,0.282-0.316,0.271
			c0,0-0.228-0.013-0.49-0.013c-0.265,0-0.49,0.013-0.49,0.013c-0.162,0.012-0.304-0.11-0.319-0.271l-0.104-1.19
			c-0.014-0.158,0.106-0.3,0.267-0.311c0,0,0.329-0.021,0.646-0.021C-159.687,54.714-159.354,54.734-159.354,54.734"/>
		<path fill="#052555" d="M-156.35,55.308c0.138,0.04,0.214,0.187,0.169,0.325l-0.331,1.019c-0.044,0.136-0.192,0.214-0.331,0.172
			c0,0-0.195-0.059-0.426-0.113c-0.229-0.052-0.433-0.086-0.433-0.086c-0.142-0.022-0.24-0.157-0.222-0.299l0.15-1.06
			c0.021-0.145,0.152-0.243,0.293-0.22c0,0,0.295,0.049,0.57,0.113C-156.634,55.222-156.35,55.308-156.35,55.308"/>
		<path fill="#052555" d="M-153.565,56.521c0.111,0.063,0.146,0.204,0.082,0.313l-0.487,0.81c-0.066,0.109-0.208,0.147-0.32,0.084
			c0,0-0.155-0.09-0.343-0.181c-0.19-0.091-0.356-0.158-0.356-0.158c-0.118-0.051-0.177-0.186-0.131-0.306l0.339-0.883
			c0.046-0.118,0.179-0.176,0.297-0.128c0,0,0.244,0.099,0.467,0.207C-153.793,56.39-153.565,56.521-153.565,56.521"/>
	</g>
</g>
<g>
	<g>
		<path fill="#052555" d="M-153.7,134.396c-0.463,0.03-0.808,0.432-0.767,0.895l0.3,3.438c0.041,0.464,0.451,0.815,0.915,0.785
			c0,0,0.655-0.045,1.418-0.045c0.76,0,1.417,0.045,1.417,0.045c0.463,0.03,0.873-0.321,0.914-0.785l0.302-3.438
			c0.039-0.463-0.305-0.864-0.768-0.895c0,0-0.955-0.062-1.865-0.062C-152.747,134.334-153.7,134.396-153.7,134.396"/>
		<path fill="#052555" d="M-160.435,135.772c-0.406,0.122-0.633,0.556-0.502,0.96l0.982,3.022c0.131,0.405,0.574,0.638,0.982,0.514
			c0,0,0.579-0.173,1.263-0.332c0.681-0.159,1.28-0.253,1.28-0.253c0.423-0.069,0.718-0.472,0.658-0.895l-0.443-3.147
			c-0.06-0.421-0.452-0.711-0.873-0.645c0,0-0.867,0.145-1.686,0.332C-159.59,135.52-160.435,135.772-160.435,135.772"/>
		<path fill="#052555" d="M-166.653,138.581c-0.338,0.192-0.451,0.626-0.25,0.959l1.496,2.489c0.201,0.333,0.642,0.447,0.98,0.256
			c0,0,0.479-0.274,1.055-0.557c0.576-0.281,1.09-0.49,1.09-0.49c0.36-0.146,0.541-0.564,0.4-0.93l-1.04-2.712
			c-0.14-0.362-0.549-0.54-0.909-0.392c0,0-0.745,0.305-1.434,0.642C-165.955,138.182-166.653,138.581-166.653,138.581"/>
		<path fill="#052555" d="M-172.061,142.664c-0.259,0.238-0.271,0.644-0.024,0.896l1.827,1.892c0.244,0.254,0.657,0.266,0.917,0.026
			c0,0,0.367-0.34,0.818-0.707c0.45-0.363,0.859-0.654,0.859-0.654c0.289-0.204,0.363-0.607,0.166-0.9l-1.472-2.182
			c-0.196-0.292-0.594-0.365-0.882-0.161c0,0-0.595,0.422-1.135,0.859C-171.526,142.169-172.061,142.664-172.061,142.664"/>
		<path fill="#052555" d="M-176.403,147.801c-0.178,0.263-0.107,0.619,0.158,0.791l1.975,1.282c0.267,0.172,0.629,0.099,0.807-0.163
			c0,0,0.254-0.371,0.573-0.779c0.319-0.409,0.619-0.745,0.619-0.745c0.211-0.235,0.194-0.606-0.038-0.82l-1.722-1.607
			c-0.233-0.217-0.593-0.198-0.805,0.035c0,0-0.434,0.488-0.816,0.979C-176.036,147.265-176.403,147.801-176.403,147.801"/>
		<path fill="#052555" d="M-179.483,153.73c-0.102,0.26,0.031,0.552,0.293,0.647l1.957,0.714c0.262,0.093,0.559-0.041,0.66-0.303
			c0,0,0.146-0.368,0.337-0.785c0.196-0.418,0.387-0.765,0.387-0.765c0.135-0.245,0.046-0.561-0.194-0.7l-1.805-1.041
			c-0.241-0.14-0.55-0.053-0.682,0.192c0,0-0.28,0.506-0.512,1.005C-179.272,153.192-179.483,153.73-179.483,153.73"/>
		<path fill="#052555" d="M-143.236,135.772c0.408,0.122,0.636,0.556,0.503,0.96l-0.98,3.022c-0.133,0.405-0.576,0.638-0.983,0.514
			c0,0-0.58-0.173-1.262-0.332c-0.685-0.159-1.282-0.253-1.282-0.253c-0.421-0.069-0.716-0.472-0.658-0.895l0.443-3.147
			c0.059-0.421,0.452-0.711,0.873-0.645c0,0,0.868,0.145,1.686,0.332C-144.079,135.52-143.236,135.772-143.236,135.772"/>
		<path fill="#052555" d="M-137.017,138.581c0.339,0.192,0.451,0.626,0.25,0.959l-1.495,2.489c-0.202,0.333-0.642,0.447-0.981,0.256
			c0,0-0.479-0.274-1.054-0.557c-0.576-0.281-1.09-0.49-1.09-0.49c-0.361-0.146-0.541-0.564-0.401-0.93l1.039-2.712
			c0.142-0.362,0.55-0.54,0.91-0.392c0,0,0.744,0.305,1.435,0.642C-137.715,138.182-137.017,138.581-137.017,138.581"/>
		<path fill="#052555" d="M-131.609,142.664c0.261,0.238,0.273,0.644,0.026,0.896l-1.828,1.892
			c-0.245,0.254-0.658,0.266-0.916,0.026c0,0-0.369-0.34-0.818-0.707c-0.451-0.363-0.862-0.654-0.862-0.654
			c-0.287-0.204-0.361-0.607-0.164-0.9l1.471-2.182c0.198-0.292,0.595-0.365,0.884-0.161c0,0,0.593,0.422,1.132,0.859
			C-132.144,142.169-131.609,142.664-131.609,142.664"/>
		<path fill="#052555" d="M-127.267,147.801c0.178,0.263,0.107,0.619-0.157,0.791l-1.977,1.282
			c-0.265,0.172-0.629,0.099-0.804-0.163c0,0-0.255-0.371-0.575-0.779c-0.319-0.409-0.619-0.745-0.619-0.745
			c-0.211-0.235-0.195-0.606,0.038-0.82l1.723-1.607c0.232-0.217,0.593-0.198,0.804,0.035c0,0,0.434,0.488,0.817,0.979
			C-127.634,147.265-127.267,147.801-127.267,147.801"/>
		<path fill="#052555" d="M-124.187,153.73c0.103,0.26-0.029,0.552-0.293,0.647l-1.956,0.714c-0.262,0.093-0.561-0.041-0.662-0.303
			c0,0-0.144-0.368-0.337-0.785c-0.195-0.418-0.386-0.765-0.386-0.765c-0.134-0.245-0.048-0.561,0.196-0.7l1.803-1.041
			c0.242-0.14,0.549-0.053,0.686,0.192c0,0,0.277,0.506,0.508,1.005C-124.396,153.192-124.187,153.73-124.187,153.73"/>
		<path fill="#052555" d="M-158.826,141.696c-0.353,0.104-0.548,0.479-0.435,0.829l0.849,2.613c0.114,0.35,0.495,0.55,0.85,0.442
			c0,0,0.501-0.152,1.091-0.287c0.589-0.137,1.107-0.219,1.107-0.219c0.361-0.059,0.619-0.406,0.566-0.773l-0.381-2.719
			c-0.051-0.366-0.391-0.616-0.755-0.555c0,0-0.75,0.122-1.458,0.284C-158.099,141.476-158.826,141.696-158.826,141.696"/>
		<path fill="#052555" d="M-163.8,143.967c-0.293,0.168-0.393,0.544-0.218,0.836l1.302,2.166c0.175,0.291,0.56,0.391,0.854,0.223
			c0,0,0.419-0.238,0.919-0.482c0.502-0.246,0.947-0.427,0.947-0.427c0.314-0.129,0.474-0.495,0.353-0.813l-0.907-2.358
			c-0.122-0.316-0.479-0.472-0.792-0.342c0,0-0.646,0.266-1.248,0.557C-163.192,143.62-163.8,143.967-163.8,143.967"/>
		<path fill="#052555" d="M-168.118,147.258c-0.229,0.211-0.238,0.564-0.022,0.786l1.604,1.665c0.216,0.222,0.579,0.231,0.807,0.021
			c0,0,0.322-0.299,0.718-0.62c0.397-0.32,0.758-0.574,0.758-0.574c0.252-0.18,0.318-0.536,0.144-0.795l-1.291-1.915
			c-0.173-0.255-0.523-0.319-0.775-0.142c0,0-0.522,0.37-0.996,0.753C-167.648,146.822-168.118,147.258-168.118,147.258"/>
		<path fill="#052555" d="M-171.579,151.39c-0.158,0.233-0.095,0.548,0.14,0.701l1.755,1.141c0.235,0.152,0.558,0.087,0.715-0.146
			c0,0,0.227-0.33,0.511-0.693c0.284-0.364,0.548-0.66,0.548-0.66c0.188-0.21,0.174-0.538-0.033-0.729l-1.529-1.43
			c-0.205-0.191-0.527-0.178-0.713,0.035c0,0-0.385,0.431-0.727,0.867C-171.254,150.911-171.579,151.39-171.579,151.39"/>
		<path fill="#052555" d="M-174.026,156.151c-0.092,0.234,0.026,0.497,0.265,0.584l1.761,0.639c0.236,0.088,0.505-0.033,0.595-0.27
			c0,0,0.13-0.331,0.304-0.706c0.176-0.377,0.349-0.689,0.349-0.689c0.121-0.221,0.041-0.503-0.178-0.629l-1.621-0.937
			c-0.22-0.129-0.497-0.049-0.618,0.172c0,0-0.248,0.456-0.458,0.904S-174.026,156.151-174.026,156.151"/>
		<path fill="#052555" d="M-175.353,161.298c-0.032,0.22,0.123,0.423,0.343,0.449l1.644,0.204c0.221,0.026,0.428-0.131,0.46-0.352
			c0,0,0.043-0.314,0.12-0.67c0.076-0.357,0.162-0.663,0.162-0.663c0.061-0.214-0.063-0.441-0.277-0.507l-1.584-0.483
			c-0.213-0.065-0.436,0.056-0.496,0.272c0,0-0.124,0.439-0.215,0.867C-175.286,160.845-175.353,161.298-175.353,161.298"/>
		<path fill="#052555" d="M-150.47,140.89c0.339,0.021,0.593,0.315,0.563,0.655l-0.221,2.518c-0.028,0.339-0.33,0.598-0.668,0.573
			c0,0-0.48-0.03-1.038-0.03c-0.56,0-1.038,0.03-1.038,0.03c-0.34,0.024-0.642-0.234-0.671-0.573l-0.221-2.518
			c-0.03-0.34,0.224-0.634,0.563-0.655c0,0,0.699-0.046,1.367-0.046S-150.47,140.89-150.47,140.89"/>
		<path fill="#052555" d="M-145.144,141.954c0.297,0.088,0.462,0.403,0.365,0.699l-0.715,2.195
			c-0.096,0.295-0.416,0.464-0.712,0.375c0,0-0.425-0.128-0.919-0.241c-0.497-0.117-0.932-0.187-0.932-0.187
			c-0.307-0.048-0.523-0.343-0.479-0.649l0.32-2.287c0.044-0.309,0.329-0.518,0.637-0.467c0,0,0.631,0.102,1.225,0.238
			C-145.757,141.77-145.144,141.954-145.144,141.954"/>
		<path fill="#052555" d="M-140.222,144.152c0.245,0.139,0.325,0.448,0.18,0.688l-1.076,1.794c-0.146,0.241-0.464,0.325-0.708,0.185
			c0,0-0.345-0.198-0.76-0.4c-0.415-0.203-0.784-0.353-0.784-0.353c-0.26-0.105-0.392-0.407-0.29-0.671l0.749-1.952
			c0.102-0.262,0.396-0.391,0.657-0.283c0,0,0.536,0.221,1.031,0.461C-140.724,143.863-140.222,144.152-140.222,144.152"/>
		<path fill="#052555" d="M-135.937,147.357c0.187,0.17,0.193,0.458,0.02,0.641l-1.302,1.348c-0.176,0.181-0.469,0.189-0.655,0.017
			c0,0-0.261-0.243-0.582-0.503c-0.322-0.26-0.613-0.466-0.613-0.466c-0.206-0.146-0.26-0.432-0.119-0.644l1.049-1.552
			c0.141-0.209,0.425-0.261,0.63-0.116c0,0,0.424,0.301,0.808,0.612C-136.315,147.005-135.937,147.357-135.937,147.357"/>
		<path fill="#052555" d="M-132.485,151.402c0.124,0.183,0.074,0.434-0.112,0.553l-1.388,0.903c-0.188,0.12-0.442,0.07-0.567-0.115
			c0,0-0.179-0.261-0.403-0.55c-0.226-0.285-0.436-0.521-0.436-0.521c-0.148-0.166-0.138-0.426,0.027-0.577l1.211-1.132
			c0.162-0.15,0.415-0.138,0.564,0.026c0,0,0.306,0.343,0.575,0.689C-132.745,151.022-132.485,151.402-132.485,151.402"/>
		<path fill="#052555" d="M-161.083,148.996c-0.246,0.14-0.327,0.449-0.184,0.691l1.079,1.794c0.146,0.24,0.462,0.322,0.706,0.181
			c0,0,0.347-0.196,0.761-0.398c0.415-0.201,0.784-0.353,0.784-0.353c0.26-0.107,0.392-0.408,0.291-0.67l-0.75-1.955
			c-0.103-0.261-0.396-0.389-0.657-0.283c0,0-0.536,0.221-1.033,0.463C-160.581,148.708-161.083,148.996-161.083,148.996"/>
		<path fill="#052555" d="M-164.388,151.535c-0.19,0.175-0.197,0.472-0.02,0.658l1.339,1.382c0.179,0.188,0.481,0.196,0.671,0.021
			c0,0,0.271-0.249,0.602-0.519c0.329-0.265,0.63-0.479,0.63-0.479c0.212-0.147,0.267-0.444,0.12-0.661l-1.077-1.597
			c-0.144-0.213-0.436-0.268-0.646-0.118c0,0-0.435,0.309-0.83,0.629C-163.997,151.173-164.388,151.535-164.388,151.535"/>
		<path fill="#052555" d="M-167.029,154.717c-0.133,0.196-0.081,0.461,0.118,0.592l1.476,0.957c0.198,0.129,0.47,0.073,0.604-0.122
			c0,0,0.188-0.276,0.427-0.583c0.238-0.308,0.464-0.557,0.464-0.557c0.155-0.177,0.144-0.453-0.03-0.614l-1.287-1.2
			c-0.172-0.159-0.443-0.147-0.6,0.027c0,0-0.324,0.365-0.61,0.73C-166.755,154.315-167.029,154.717-167.029,154.717"/>
		<path fill="#052555" d="M-168.891,158.38c-0.078,0.197,0.022,0.424,0.225,0.497l1.498,0.545c0.2,0.069,0.429-0.032,0.506-0.23
			c0,0,0.111-0.285,0.258-0.604c0.149-0.319,0.297-0.586,0.297-0.586c0.103-0.188,0.036-0.428-0.15-0.533l-1.38-0.798
			c-0.186-0.108-0.422-0.042-0.525,0.146c0,0-0.212,0.389-0.39,0.768C-168.729,157.968-168.891,158.38-168.891,158.38"/>
		<path fill="#052555" d="M-169.891,162.334c-0.028,0.189,0.105,0.363,0.295,0.387l1.418,0.174c0.19,0.021,0.368-0.113,0.396-0.302
			c0,0,0.04-0.27,0.105-0.578c0.064-0.309,0.139-0.57,0.139-0.57c0.052-0.187-0.056-0.381-0.238-0.438l-1.366-0.418
			c-0.184-0.055-0.375,0.052-0.429,0.235c0,0-0.106,0.379-0.186,0.749C-169.834,161.941-169.891,162.334-169.891,162.334"/>
		<path fill="#052555" d="M-169.995,166.379c0.015,0.172,0.164,0.296,0.332,0.277l1.255-0.133c0.169-0.017,0.295-0.171,0.28-0.339
			c0,0-0.019-0.24-0.023-0.518c-0.005-0.279,0.005-0.52,0.005-0.52c0.01-0.167-0.122-0.317-0.29-0.329l-1.26-0.088
			c-0.169-0.011-0.314,0.118-0.322,0.285c0,0-0.017,0.351-0.011,0.685C-170.022,166.033-169.995,166.379-169.995,166.379"/>
		<path fill="#052555" d="M-155.019,146.965c0.257-0.041,0.494,0.133,0.529,0.389l0.27,1.909c0.035,0.256-0.145,0.5-0.399,0.542
			c0,0-0.362,0.056-0.777,0.153c-0.413,0.096-0.765,0.201-0.765,0.201c-0.246,0.074-0.516-0.066-0.595-0.312l-0.596-1.832
			c-0.081-0.246,0.057-0.509,0.304-0.583c0,0,0.511-0.153,1.008-0.267C-155.546,147.051-155.019,146.965-155.019,146.965"/>
		<path fill="#052555" d="M-150.883,146.843c0.236,0.016,0.411,0.221,0.392,0.455l-0.153,1.754
			c-0.022,0.235-0.231,0.415-0.467,0.399c0,0-0.337-0.022-0.723-0.022c-0.391,0-0.724,0.022-0.724,0.022
			c-0.236,0.016-0.445-0.164-0.466-0.399l-0.153-1.754c-0.021-0.234,0.154-0.439,0.39-0.455c0,0,0.487-0.032,0.953-0.032
			C-151.37,146.811-150.883,146.843-150.883,146.843"/>
		<path fill="#052555" d="M-146.853,147.629c0.205,0.063,0.318,0.28,0.252,0.482l-0.492,1.518c-0.065,0.203-0.287,0.319-0.492,0.258
			c0,0-0.291-0.088-0.634-0.169c-0.342-0.078-0.643-0.127-0.643-0.127c-0.211-0.033-0.359-0.235-0.329-0.448l0.222-1.578
			c0.029-0.211,0.226-0.355,0.438-0.321c0,0,0.435,0.071,0.845,0.165C-147.274,147.502-146.853,147.629-146.853,147.629"/>
		<path fill="#052555" d="M-143.12,149.275c0.167,0.096,0.221,0.309,0.123,0.475l-0.735,1.223c-0.099,0.163-0.315,0.22-0.483,0.125
			c0,0-0.236-0.137-0.52-0.275c-0.283-0.137-0.535-0.238-0.535-0.238c-0.177-0.073-0.266-0.28-0.197-0.459l0.512-1.333
			c0.068-0.18,0.271-0.267,0.447-0.193c0,0,0.366,0.15,0.706,0.315C-143.464,149.082-143.12,149.275-143.12,149.275"/>
		<path fill="#052555" d="M-139.866,151.687c0.123,0.114,0.129,0.309,0.011,0.432l-0.876,0.907
			c-0.118,0.121-0.315,0.126-0.439,0.012c0,0-0.178-0.162-0.393-0.338c-0.217-0.176-0.413-0.313-0.413-0.313
			c-0.139-0.099-0.175-0.295-0.08-0.435l0.706-1.045c0.094-0.142,0.283-0.176,0.422-0.077c0,0,0.288,0.201,0.544,0.411
			C-140.124,151.45-139.866,151.687-139.866,151.687"/>
		<path fill="#052555" d="M-161.358,154.967c-0.155,0.143-0.162,0.385-0.017,0.535l1.09,1.129c0.147,0.152,0.395,0.16,0.547,0.018
			c0,0,0.222-0.204,0.489-0.421c0.27-0.219,0.514-0.391,0.514-0.391c0.171-0.122,0.218-0.364,0.099-0.541l-0.878-1.301
			c-0.117-0.173-0.354-0.216-0.525-0.095c0,0-0.355,0.252-0.677,0.511C-161.04,154.673-161.358,154.967-161.358,154.967"/>
		<path fill="#052555" d="M-163.345,157.38c-0.108,0.162-0.065,0.378,0.097,0.483l1.213,0.789c0.162,0.103,0.385,0.059,0.494-0.102
			c0,0,0.153-0.226,0.351-0.479c0.197-0.252,0.381-0.458,0.381-0.458c0.128-0.143,0.117-0.371-0.025-0.501l-1.056-0.986
			c-0.142-0.132-0.363-0.122-0.493,0.022c0,0-0.265,0.299-0.501,0.6C-163.119,157.051-163.345,157.38-163.345,157.38"/>
		<path fill="#052555" d="M-164.737,160.151c-0.064,0.165,0.019,0.352,0.186,0.412l1.239,0.452c0.166,0.059,0.356-0.026,0.421-0.192
			c0,0,0.091-0.233,0.213-0.497c0.123-0.264,0.246-0.485,0.246-0.485c0.082-0.155,0.028-0.354-0.124-0.443l-1.144-0.659
			c-0.153-0.09-0.35-0.035-0.434,0.121c0,0-0.177,0.319-0.324,0.638C-164.604,159.81-164.737,160.151-164.737,160.151"/>
		<path fill="#052555" d="M-165.479,163.142c-0.023,0.159,0.087,0.306,0.247,0.326l1.186,0.145c0.16,0.02,0.31-0.096,0.332-0.253
			c0,0,0.032-0.227,0.088-0.482c0.053-0.259,0.117-0.479,0.117-0.479c0.044-0.154-0.046-0.318-0.2-0.365l-1.144-0.351
			c-0.154-0.048-0.313,0.043-0.358,0.196c0,0-0.09,0.318-0.155,0.627C-165.433,162.813-165.479,163.142-165.479,163.142"/>
		<path fill="#052555" d="M-165.544,166.199c0.012,0.145,0.137,0.25,0.281,0.234l1.066-0.111c0.142-0.015,0.248-0.146,0.237-0.287
			c0,0-0.018-0.206-0.022-0.441c-0.004-0.236,0.007-0.44,0.007-0.44c0.007-0.145-0.105-0.27-0.247-0.278l-1.07-0.075
			c-0.142-0.011-0.265,0.099-0.271,0.243c0,0-0.016,0.297-0.011,0.58C-165.567,165.905-165.544,166.199-165.544,166.199"/>
		<path fill="#052555" d="M-164.936,169.177c0.037,0.12,0.168,0.185,0.286,0.146l0.896-0.31c0.121-0.041,0.187-0.176,0.148-0.294
			c0,0-0.055-0.174-0.105-0.374c-0.052-0.203-0.082-0.382-0.082-0.382c-0.023-0.125-0.145-0.211-0.271-0.191l-0.935,0.146
			c-0.125,0.021-0.209,0.141-0.187,0.267c0,0,0.046,0.257,0.106,0.499C-165.016,168.925-164.936,169.177-164.936,169.177"/>
		<path fill="#052555" d="M-157.269,152.46c0.18-0.073,0.384,0.015,0.453,0.195l0.518,1.35c0.07,0.182-0.021,0.39-0.201,0.463
			c0,0-0.252,0.104-0.541,0.243c-0.286,0.141-0.525,0.275-0.525,0.275c-0.168,0.097-0.389,0.039-0.487-0.127l-0.745-1.238
			c-0.098-0.167-0.042-0.379,0.125-0.477c0,0,0.348-0.199,0.691-0.365C-157.64,152.612-157.269,152.46-157.269,152.46"/>
		<path fill="#052555" d="M-154.267,151.673c0.174-0.027,0.338,0.091,0.362,0.27l0.185,1.305c0.023,0.175-0.1,0.342-0.273,0.372
			c0,0-0.25,0.039-0.532,0.104c-0.284,0.065-0.525,0.138-0.525,0.138c-0.169,0.053-0.353-0.044-0.409-0.213l-0.407-1.256
			c-0.054-0.169,0.039-0.348,0.21-0.397c0,0,0.35-0.106,0.689-0.185S-154.267,151.673-154.267,151.673"/>
		<path fill="#052555" d="M-151.188,151.568c0.16,0.011,0.279,0.152,0.267,0.311l-0.105,1.19c-0.015,0.16-0.156,0.282-0.316,0.271
			c0,0-0.228-0.013-0.49-0.013c-0.265,0-0.49,0.013-0.49,0.013c-0.162,0.012-0.304-0.11-0.319-0.271l-0.104-1.19
			c-0.014-0.158,0.106-0.3,0.267-0.311c0,0,0.329-0.021,0.646-0.021C-151.521,151.548-151.188,151.568-151.188,151.568"/>
		<path fill="#052555" d="M-148.184,152.142c0.138,0.04,0.214,0.187,0.169,0.325l-0.331,1.019c-0.044,0.136-0.192,0.214-0.331,0.172
			c0,0-0.195-0.059-0.426-0.113c-0.229-0.052-0.433-0.086-0.433-0.086c-0.142-0.022-0.24-0.157-0.222-0.299l0.15-1.06
			c0.021-0.145,0.152-0.243,0.293-0.22c0,0,0.295,0.049,0.57,0.113C-148.468,152.056-148.184,152.142-148.184,152.142"/>
		<path fill="#052555" d="M-145.399,153.354c0.111,0.063,0.146,0.204,0.082,0.313l-0.487,0.81c-0.066,0.109-0.208,0.147-0.32,0.084
			c0,0-0.155-0.09-0.343-0.181c-0.19-0.091-0.356-0.158-0.356-0.158c-0.118-0.051-0.177-0.186-0.131-0.306l0.339-0.883
			c0.046-0.118,0.179-0.176,0.297-0.128c0,0,0.244,0.099,0.467,0.207C-145.627,153.224-145.399,153.354-145.399,153.354"/>
	</g>
</g>
<text transform="matrix(1 0 0 1 -156.7461 172.1934)" font-family="'MyriadPro-Cond'" font-size="20">Суперкомпьютерные дни в России</text>
<text transform="matrix(1 0 0 1 -155.7461 199.1934)" font-family="'MyriadPro-Cond'" font-size="20">Russian Supercomputing Days</text>
<text transform="matrix(1 0 0 1 -155.7461 248.1934)" font-family="'Tahoma'" font-size="14">Суперкомпьютерные дни в России</text>
<text transform="matrix(1 0 0 1 -154.7461 275.1934)" font-family="'Tahoma'" font-size="14">Russian Supercomputing Days</text>
</svg>
