<?xml version="1.0" encoding="UTF-8" standalone="no"?>
<!-- Created with Inkscape (http://www.inkscape.org/) -->

<svg
   width="210mm"
   height="297mm"
   viewBox="0 0 210 297"
   version="1.1"
   id="svg1"
   inkscape:version="1.4.2 (2aeb623e1d, 2025-05-12)"
   sodipodi:docname="RuSCDays_logo_blue.svg"
   inkscape:export-filename="../5bb13565/RuSCDays_logo_blue.pdf"
   inkscape:export-xdpi="94"
   inkscape:export-ydpi="94"
   xmlns:inkscape="http://www.inkscape.org/namespaces/inkscape"
   xmlns:sodipodi="http://sodipodi.sourceforge.net/DTD/sodipodi-0.dtd"
   xmlns="http://www.w3.org/2000/svg"
   xmlns:svg="http://www.w3.org/2000/svg">
  <sodipodi:namedview
     id="namedview1"
     pagecolor="#ffffff"
     bordercolor="#666666"
     borderopacity="1.0"
     inkscape:showpageshadow="2"
     inkscape:pageopacity="0.0"
     inkscape:pagecheckerboard="0"
     inkscape:deskcolor="#d1d1d1"
     inkscape:document-units="mm"
     inkscape:zoom="0.46362714"
     inkscape:cx="154.21875"
     inkscape:cy="391.47838"
     inkscape:window-width="2560"
     inkscape:window-height="1371"
     inkscape:window-x="0"
     inkscape:window-y="32"
     inkscape:window-maximized="1"
     inkscape:current-layer="layer1" />
  <defs
     id="defs1" />
  <g
     inkscape:label="Layer 1"
     inkscape:groupmode="layer"
     id="layer1">
    <g
       id="g133"
       transform="matrix(1.87256,0,0,1.87256,451.46088,86.147744)">
	<g
   id="g132">
		<path
   fill="#052555"
   d="m -161.866,37.562 c -0.463,0.03 -0.808,0.432 -0.767,0.895 l 0.3,3.438 c 0.041,0.464 0.451,0.815 0.915,0.785 0,0 0.655,-0.045 1.418,-0.045 0.76,0 1.417,0.045 1.417,0.045 0.463,0.03 0.873,-0.321 0.914,-0.785 l 0.302,-3.438 c 0.039,-0.463 -0.305,-0.864 -0.768,-0.895 0,0 -0.955,-0.062 -1.865,-0.062 -0.913,0 -1.866,0.062 -1.866,0.062"
   id="path89" />

		<path
   fill="#052555"
   d="m -168.601,38.938 c -0.406,0.122 -0.633,0.556 -0.502,0.96 l 0.982,3.022 c 0.131,0.405 0.574,0.638 0.982,0.514 0,0 0.579,-0.173 1.263,-0.332 0.681,-0.159 1.28,-0.253 1.28,-0.253 0.423,-0.069 0.718,-0.472 0.658,-0.895 l -0.443,-3.147 c -0.06,-0.421 -0.452,-0.711 -0.873,-0.645 0,0 -0.867,0.145 -1.686,0.332 -0.816,0.192 -1.661,0.444 -1.661,0.444"
   id="path90" />

		<path
   fill="#052555"
   d="m -174.819,41.747 c -0.338,0.192 -0.451,0.626 -0.25,0.959 l 1.496,2.489 c 0.201,0.333 0.642,0.447 0.98,0.256 0,0 0.479,-0.274 1.055,-0.557 0.576,-0.281 1.09,-0.49 1.09,-0.49 0.36,-0.146 0.541,-0.564 0.4,-0.93 l -1.04,-2.712 c -0.14,-0.362 -0.549,-0.54 -0.909,-0.392 0,0 -0.745,0.305 -1.434,0.642 -0.69,0.336 -1.388,0.735 -1.388,0.735"
   id="path91" />

		<path
   fill="#052555"
   d="m -180.227,45.83 c -0.259,0.238 -0.271,0.644 -0.024,0.896 l 1.827,1.892 c 0.244,0.254 0.657,0.266 0.917,0.026 0,0 0.367,-0.34 0.818,-0.707 0.45,-0.363 0.859,-0.654 0.859,-0.654 0.289,-0.204 0.363,-0.607 0.166,-0.9 l -1.472,-2.182 c -0.196,-0.292 -0.594,-0.365 -0.882,-0.161 0,0 -0.595,0.422 -1.135,0.859 -0.539,0.436 -1.074,0.931 -1.074,0.931"
   id="path92" />

		<path
   fill="#052555"
   d="m -184.569,50.967 c -0.178,0.263 -0.107,0.619 0.158,0.791 l 1.975,1.282 c 0.267,0.172 0.629,0.099 0.807,-0.163 0,0 0.254,-0.371 0.573,-0.779 0.319,-0.409 0.619,-0.745 0.619,-0.745 0.211,-0.235 0.194,-0.606 -0.038,-0.82 l -1.722,-1.607 c -0.233,-0.217 -0.593,-0.198 -0.805,0.035 0,0 -0.434,0.488 -0.816,0.979 -0.384,0.491 -0.751,1.027 -0.751,1.027"
   id="path93" />

		<path
   fill="#052555"
   d="m -187.649,56.896 c -0.102,0.26 0.031,0.552 0.293,0.647 l 1.957,0.714 c 0.262,0.093 0.559,-0.041 0.66,-0.303 0,0 0.146,-0.368 0.337,-0.785 0.196,-0.418 0.387,-0.765 0.387,-0.765 0.135,-0.245 0.046,-0.561 -0.194,-0.7 l -1.805,-1.041 c -0.241,-0.14 -0.55,-0.053 -0.682,0.192 0,0 -0.28,0.506 -0.512,1.005 -0.23,0.498 -0.441,1.036 -0.441,1.036"
   id="path94" />

		<path
   fill="#052555"
   d="m -151.402,38.938 c 0.408,0.122 0.636,0.556 0.503,0.96 l -0.98,3.022 c -0.133,0.405 -0.576,0.638 -0.983,0.514 0,0 -0.58,-0.173 -1.262,-0.332 -0.685,-0.159 -1.282,-0.253 -1.282,-0.253 -0.421,-0.069 -0.716,-0.472 -0.658,-0.895 l 0.443,-3.147 c 0.059,-0.421 0.452,-0.711 0.873,-0.645 0,0 0.868,0.145 1.686,0.332 0.817,0.192 1.66,0.444 1.66,0.444"
   id="path95" />

		<path
   fill="#052555"
   d="m -145.183,41.747 c 0.339,0.192 0.451,0.626 0.25,0.959 l -1.495,2.489 c -0.202,0.333 -0.642,0.447 -0.981,0.256 0,0 -0.479,-0.274 -1.054,-0.557 -0.576,-0.281 -1.09,-0.49 -1.09,-0.49 -0.361,-0.146 -0.541,-0.564 -0.401,-0.93 l 1.039,-2.712 c 0.142,-0.362 0.55,-0.54 0.91,-0.392 0,0 0.744,0.305 1.435,0.642 0.689,0.336 1.387,0.735 1.387,0.735"
   id="path96" />

		<path
   fill="#052555"
   d="m -139.775,45.83 c 0.261,0.238 0.273,0.644 0.026,0.896 l -1.828,1.892 c -0.245,0.254 -0.658,0.266 -0.916,0.026 0,0 -0.369,-0.34 -0.818,-0.707 -0.451,-0.363 -0.862,-0.654 -0.862,-0.654 -0.287,-0.204 -0.361,-0.607 -0.164,-0.9 l 1.471,-2.182 c 0.198,-0.292 0.595,-0.365 0.884,-0.161 0,0 0.593,0.422 1.132,0.859 0.54,0.436 1.075,0.931 1.075,0.931"
   id="path97" />

		<path
   fill="#052555"
   d="m -135.433,50.967 c 0.178,0.263 0.107,0.619 -0.157,0.791 l -1.977,1.282 c -0.265,0.172 -0.629,0.099 -0.804,-0.163 0,0 -0.255,-0.371 -0.575,-0.779 -0.319,-0.409 -0.619,-0.745 -0.619,-0.745 -0.211,-0.235 -0.195,-0.606 0.038,-0.82 l 1.723,-1.607 c 0.232,-0.217 0.593,-0.198 0.804,0.035 0,0 0.434,0.488 0.817,0.979 0.383,0.491 0.75,1.027 0.75,1.027"
   id="path98" />

		<path
   fill="#052555"
   d="m -132.353,56.896 c 0.103,0.26 -0.029,0.552 -0.293,0.647 l -1.956,0.714 c -0.262,0.093 -0.561,-0.041 -0.662,-0.303 0,0 -0.144,-0.368 -0.337,-0.785 -0.195,-0.418 -0.386,-0.765 -0.386,-0.765 -0.134,-0.245 -0.048,-0.561 0.196,-0.7 l 1.803,-1.041 c 0.242,-0.14 0.549,-0.053 0.686,0.192 0,0 0.277,0.506 0.508,1.005 0.232,0.498 0.441,1.036 0.441,1.036"
   id="path99" />

		<path
   fill="#052555"
   d="m -166.992,44.862 c -0.353,0.104 -0.548,0.479 -0.435,0.829 l 0.849,2.613 c 0.114,0.35 0.495,0.55 0.85,0.442 0,0 0.501,-0.152 1.091,-0.287 0.589,-0.137 1.107,-0.219 1.107,-0.219 0.361,-0.059 0.619,-0.406 0.566,-0.773 l -0.381,-2.719 c -0.051,-0.366 -0.391,-0.616 -0.755,-0.555 0,0 -0.75,0.122 -1.458,0.284 -0.707,0.165 -1.434,0.385 -1.434,0.385"
   id="path100" />

		<path
   fill="#052555"
   d="m -171.966,47.133 c -0.293,0.168 -0.393,0.544 -0.218,0.836 l 1.302,2.166 c 0.175,0.291 0.56,0.391 0.854,0.223 0,0 0.419,-0.238 0.919,-0.482 0.502,-0.246 0.947,-0.427 0.947,-0.427 0.314,-0.129 0.474,-0.495 0.353,-0.813 l -0.907,-2.358 c -0.122,-0.316 -0.479,-0.472 -0.792,-0.342 0,0 -0.646,0.266 -1.248,0.557 -0.602,0.293 -1.21,0.64 -1.21,0.64"
   id="path101" />

		<path
   fill="#052555"
   d="m -176.284,50.424 c -0.229,0.211 -0.238,0.564 -0.022,0.786 l 1.604,1.665 c 0.216,0.222 0.579,0.231 0.807,0.021 0,0 0.322,-0.299 0.718,-0.62 0.397,-0.32 0.758,-0.574 0.758,-0.574 0.252,-0.18 0.318,-0.536 0.144,-0.795 l -1.291,-1.915 c -0.173,-0.255 -0.523,-0.319 -0.775,-0.142 0,0 -0.522,0.37 -0.996,0.753 -0.477,0.385 -0.947,0.821 -0.947,0.821"
   id="path102" />

		<path
   fill="#052555"
   d="m -179.745,54.556 c -0.158,0.233 -0.095,0.548 0.14,0.701 l 1.755,1.141 c 0.235,0.152 0.558,0.087 0.715,-0.146 0,0 0.227,-0.33 0.511,-0.693 0.284,-0.364 0.548,-0.66 0.548,-0.66 0.188,-0.21 0.174,-0.538 -0.033,-0.729 l -1.529,-1.43 c -0.205,-0.191 -0.527,-0.178 -0.713,0.035 0,0 -0.385,0.431 -0.727,0.867 -0.342,0.435 -0.667,0.914 -0.667,0.914"
   id="path103" />

		<path
   fill="#052555"
   d="m -182.192,59.317 c -0.092,0.234 0.026,0.497 0.265,0.584 l 1.761,0.639 c 0.236,0.088 0.505,-0.033 0.595,-0.27 0,0 0.13,-0.331 0.304,-0.706 0.176,-0.377 0.349,-0.689 0.349,-0.689 0.121,-0.221 0.041,-0.503 -0.178,-0.629 l -1.621,-0.937 c -0.22,-0.129 -0.497,-0.049 -0.618,0.172 0,0 -0.248,0.456 -0.458,0.904 -0.21,0.448 -0.399,0.932 -0.399,0.932"
   id="path104" />

		<path
   fill="#052555"
   d="m -183.519,64.464 c -0.032,0.22 0.123,0.423 0.343,0.449 l 1.644,0.204 c 0.221,0.026 0.428,-0.131 0.46,-0.352 0,0 0.043,-0.314 0.12,-0.67 0.076,-0.357 0.162,-0.663 0.162,-0.663 0.061,-0.214 -0.063,-0.441 -0.277,-0.507 l -1.584,-0.483 c -0.213,-0.065 -0.436,0.056 -0.496,0.272 0,0 -0.124,0.439 -0.215,0.867 -0.09,0.43 -0.157,0.883 -0.157,0.883"
   id="path105" />

		<path
   fill="#052555"
   d="m -158.636,44.056 c 0.339,0.021 0.593,0.315 0.563,0.655 l -0.221,2.518 c -0.028,0.339 -0.33,0.598 -0.668,0.573 0,0 -0.48,-0.03 -1.038,-0.03 -0.56,0 -1.038,0.03 -1.038,0.03 -0.34,0.024 -0.642,-0.234 -0.671,-0.573 l -0.221,-2.518 c -0.03,-0.34 0.224,-0.634 0.563,-0.655 0,0 0.699,-0.046 1.367,-0.046 0.668,0 1.364,0.046 1.364,0.046"
   id="path106" />

		<path
   fill="#052555"
   d="m -153.31,45.12 c 0.297,0.088 0.462,0.403 0.365,0.699 l -0.715,2.195 c -0.096,0.295 -0.416,0.464 -0.712,0.375 0,0 -0.425,-0.128 -0.919,-0.241 -0.497,-0.117 -0.932,-0.187 -0.932,-0.187 -0.307,-0.048 -0.523,-0.343 -0.479,-0.649 l 0.32,-2.287 c 0.044,-0.309 0.329,-0.518 0.637,-0.467 0,0 0.631,0.102 1.225,0.238 0.597,0.14 1.21,0.324 1.21,0.324"
   id="path107" />

		<path
   fill="#052555"
   d="m -148.388,47.318 c 0.245,0.139 0.325,0.448 0.18,0.688 l -1.076,1.794 c -0.146,0.241 -0.464,0.325 -0.708,0.185 0,0 -0.345,-0.198 -0.76,-0.4 -0.415,-0.203 -0.784,-0.353 -0.784,-0.353 -0.26,-0.105 -0.392,-0.407 -0.29,-0.671 l 0.749,-1.952 c 0.102,-0.262 0.396,-0.391 0.657,-0.283 0,0 0.536,0.221 1.031,0.461 0.499,0.242 1.001,0.531 1.001,0.531"
   id="path108" />

		<path
   fill="#052555"
   d="m -144.103,50.523 c 0.187,0.17 0.193,0.458 0.02,0.641 l -1.302,1.348 c -0.176,0.181 -0.469,0.189 -0.655,0.017 0,0 -0.261,-0.243 -0.582,-0.503 -0.322,-0.26 -0.613,-0.466 -0.613,-0.466 -0.206,-0.146 -0.26,-0.432 -0.119,-0.644 l 1.049,-1.552 c 0.141,-0.209 0.425,-0.261 0.63,-0.116 0,0 0.424,0.301 0.808,0.612 0.386,0.311 0.764,0.663 0.764,0.663"
   id="path109" />

		<path
   fill="#052555"
   d="m -140.651,54.568 c 0.124,0.183 0.074,0.434 -0.112,0.553 l -1.388,0.903 c -0.188,0.12 -0.442,0.07 -0.567,-0.115 0,0 -0.179,-0.261 -0.403,-0.55 -0.226,-0.285 -0.436,-0.521 -0.436,-0.521 -0.148,-0.166 -0.138,-0.426 0.027,-0.577 l 1.211,-1.132 c 0.162,-0.15 0.415,-0.138 0.564,0.026 0,0 0.306,0.343 0.575,0.689 0.269,0.344 0.529,0.724 0.529,0.724"
   id="path110" />

		<path
   fill="#052555"
   d="m -169.249,52.162 c -0.246,0.14 -0.327,0.449 -0.184,0.691 l 1.079,1.794 c 0.146,0.24 0.462,0.322 0.706,0.181 0,0 0.347,-0.196 0.761,-0.398 0.415,-0.201 0.784,-0.353 0.784,-0.353 0.26,-0.107 0.392,-0.408 0.291,-0.67 l -0.75,-1.955 c -0.103,-0.261 -0.396,-0.389 -0.657,-0.283 0,0 -0.536,0.221 -1.033,0.463 -0.495,0.242 -0.997,0.53 -0.997,0.53"
   id="path111" />

		<path
   fill="#052555"
   d="m -172.554,54.701 c -0.19,0.175 -0.197,0.472 -0.02,0.658 l 1.339,1.382 c 0.179,0.188 0.481,0.196 0.671,0.021 0,0 0.271,-0.249 0.602,-0.519 0.329,-0.265 0.63,-0.479 0.63,-0.479 0.212,-0.147 0.267,-0.444 0.12,-0.661 l -1.077,-1.597 c -0.144,-0.213 -0.436,-0.268 -0.646,-0.118 0,0 -0.435,0.309 -0.83,0.629 -0.398,0.322 -0.789,0.684 -0.789,0.684"
   id="path112" />

		<path
   fill="#052555"
   d="m -175.195,57.883 c -0.133,0.196 -0.081,0.461 0.118,0.592 l 1.476,0.957 c 0.198,0.129 0.47,0.073 0.604,-0.122 0,0 0.188,-0.276 0.427,-0.583 0.238,-0.308 0.464,-0.557 0.464,-0.557 0.155,-0.177 0.144,-0.453 -0.03,-0.614 l -1.287,-1.2 c -0.172,-0.159 -0.443,-0.147 -0.6,0.027 0,0 -0.324,0.365 -0.61,0.73 -0.288,0.368 -0.562,0.77 -0.562,0.77"
   id="path113" />

		<path
   fill="#052555"
   d="m -177.057,61.546 c -0.078,0.197 0.022,0.424 0.225,0.497 l 1.498,0.545 c 0.2,0.069 0.429,-0.032 0.506,-0.23 0,0 0.111,-0.285 0.258,-0.604 0.149,-0.319 0.297,-0.586 0.297,-0.586 0.103,-0.188 0.036,-0.428 -0.15,-0.533 l -1.38,-0.798 c -0.186,-0.108 -0.422,-0.042 -0.525,0.146 0,0 -0.212,0.389 -0.39,0.768 -0.178,0.383 -0.339,0.795 -0.339,0.795"
   id="path114" />

		<path
   fill="#052555"
   d="m -178.057,65.5 c -0.028,0.189 0.105,0.363 0.295,0.387 l 1.418,0.174 c 0.19,0.021 0.368,-0.113 0.396,-0.302 0,0 0.04,-0.27 0.105,-0.578 0.064,-0.309 0.139,-0.57 0.139,-0.57 0.052,-0.187 -0.056,-0.381 -0.238,-0.438 l -1.366,-0.418 c -0.184,-0.055 -0.375,0.052 -0.429,0.235 0,0 -0.106,0.379 -0.186,0.749 -0.077,0.368 -0.134,0.761 -0.134,0.761"
   id="path115" />

		<path
   fill="#052555"
   d="m -178.161,69.545 c 0.015,0.172 0.164,0.296 0.332,0.277 l 1.255,-0.133 c 0.169,-0.017 0.295,-0.171 0.28,-0.339 0,0 -0.019,-0.24 -0.023,-0.518 -0.005,-0.279 0.005,-0.52 0.005,-0.52 0.01,-0.167 -0.122,-0.317 -0.29,-0.329 l -1.26,-0.088 c -0.169,-0.011 -0.314,0.118 -0.322,0.285 0,0 -0.017,0.351 -0.011,0.685 0.007,0.334 0.034,0.68 0.034,0.68"
   id="path116" />

		<path
   fill="#052555"
   d="m -163.185,50.131 c 0.257,-0.041 0.494,0.133 0.529,0.389 l 0.27,1.909 c 0.035,0.256 -0.145,0.5 -0.399,0.542 0,0 -0.362,0.056 -0.777,0.153 -0.413,0.096 -0.765,0.201 -0.765,0.201 -0.246,0.074 -0.516,-0.066 -0.595,-0.312 l -0.596,-1.832 c -0.081,-0.246 0.057,-0.509 0.304,-0.583 0,0 0.511,-0.153 1.008,-0.267 0.494,-0.114 1.021,-0.2 1.021,-0.2"
   id="path117" />

		<path
   fill="#052555"
   d="m -159.049,50.009 c 0.236,0.016 0.411,0.221 0.392,0.455 l -0.153,1.754 c -0.022,0.235 -0.231,0.415 -0.467,0.399 0,0 -0.337,-0.022 -0.723,-0.022 -0.391,0 -0.724,0.022 -0.724,0.022 -0.236,0.016 -0.445,-0.164 -0.466,-0.399 l -0.153,-1.754 c -0.021,-0.234 0.154,-0.439 0.39,-0.455 0,0 0.487,-0.032 0.953,-0.032 0.464,0 0.951,0.032 0.951,0.032"
   id="path118" />

		<path
   fill="#052555"
   d="m -155.019,50.795 c 0.205,0.063 0.318,0.28 0.252,0.482 l -0.492,1.518 c -0.065,0.203 -0.287,0.319 -0.492,0.258 0,0 -0.291,-0.088 -0.634,-0.169 -0.342,-0.078 -0.643,-0.127 -0.643,-0.127 -0.211,-0.033 -0.359,-0.235 -0.329,-0.448 l 0.222,-1.578 c 0.029,-0.211 0.226,-0.355 0.438,-0.321 0,0 0.435,0.071 0.845,0.165 0.412,0.093 0.833,0.22 0.833,0.22"
   id="path119" />

		<path
   fill="#052555"
   d="m -151.286,52.441 c 0.167,0.096 0.221,0.309 0.123,0.475 l -0.735,1.223 c -0.099,0.163 -0.315,0.22 -0.483,0.125 0,0 -0.236,-0.137 -0.52,-0.275 -0.283,-0.137 -0.535,-0.238 -0.535,-0.238 -0.177,-0.073 -0.266,-0.28 -0.197,-0.459 l 0.512,-1.333 c 0.068,-0.18 0.271,-0.267 0.447,-0.193 0,0 0.366,0.15 0.706,0.315 0.338,0.167 0.682,0.36 0.682,0.36"
   id="path120" />

		<path
   fill="#052555"
   d="m -148.032,54.853 c 0.123,0.114 0.129,0.309 0.011,0.432 l -0.876,0.907 c -0.118,0.121 -0.315,0.126 -0.439,0.012 0,0 -0.178,-0.162 -0.393,-0.338 -0.217,-0.176 -0.413,-0.313 -0.413,-0.313 -0.139,-0.099 -0.175,-0.295 -0.08,-0.435 l 0.706,-1.045 c 0.094,-0.142 0.283,-0.176 0.422,-0.077 0,0 0.288,0.201 0.544,0.411 0.26,0.209 0.518,0.446 0.518,0.446"
   id="path121" />

		<path
   fill="#052555"
   d="m -169.524,58.133 c -0.155,0.143 -0.162,0.385 -0.017,0.535 l 1.09,1.129 c 0.147,0.152 0.395,0.16 0.547,0.018 0,0 0.222,-0.204 0.489,-0.421 0.27,-0.219 0.514,-0.391 0.514,-0.391 0.171,-0.122 0.218,-0.364 0.099,-0.541 l -0.878,-1.301 c -0.117,-0.173 -0.354,-0.216 -0.525,-0.095 0,0 -0.355,0.252 -0.677,0.511 -0.324,0.262 -0.642,0.556 -0.642,0.556"
   id="path122" />

		<path
   fill="#052555"
   d="m -171.511,60.546 c -0.108,0.162 -0.065,0.378 0.097,0.483 l 1.213,0.789 c 0.162,0.103 0.385,0.059 0.494,-0.102 0,0 0.153,-0.226 0.351,-0.479 0.197,-0.252 0.381,-0.458 0.381,-0.458 0.128,-0.143 0.117,-0.371 -0.025,-0.501 l -1.056,-0.986 c -0.142,-0.132 -0.363,-0.122 -0.493,0.022 0,0 -0.265,0.299 -0.501,0.6 -0.235,0.303 -0.461,0.632 -0.461,0.632"
   id="path123" />

		<path
   fill="#052555"
   d="m -172.903,63.317 c -0.064,0.165 0.019,0.352 0.186,0.412 l 1.239,0.452 c 0.166,0.059 0.356,-0.026 0.421,-0.192 0,0 0.091,-0.233 0.213,-0.497 0.123,-0.264 0.246,-0.485 0.246,-0.485 0.082,-0.155 0.028,-0.354 -0.124,-0.443 l -1.144,-0.659 c -0.153,-0.09 -0.35,-0.035 -0.434,0.121 0,0 -0.177,0.319 -0.324,0.638 -0.147,0.312 -0.279,0.653 -0.279,0.653"
   id="path124" />

		<path
   fill="#052555"
   d="m -173.646,66.308 c -0.023,0.159 0.087,0.306 0.247,0.326 l 1.186,0.145 c 0.16,0.02 0.31,-0.096 0.332,-0.253 0,0 0.032,-0.227 0.088,-0.482 0.053,-0.259 0.117,-0.479 0.117,-0.479 0.044,-0.154 -0.046,-0.318 -0.2,-0.365 l -1.144,-0.351 c -0.154,-0.048 -0.313,0.043 -0.358,0.196 0,0 -0.09,0.318 -0.155,0.627 -0.066,0.307 -0.113,0.636 -0.113,0.636"
   id="path125" />

		<path
   fill="#052555"
   d="m -173.71,69.365 c 0.012,0.145 0.137,0.25 0.281,0.234 l 1.066,-0.111 c 0.142,-0.015 0.248,-0.146 0.237,-0.287 0,0 -0.018,-0.206 -0.022,-0.441 -0.004,-0.236 0.007,-0.44 0.007,-0.44 0.007,-0.145 -0.105,-0.27 -0.247,-0.278 l -1.07,-0.075 c -0.142,-0.011 -0.265,0.099 -0.271,0.243 0,0 -0.016,0.297 -0.011,0.58 0.007,0.281 0.03,0.575 0.03,0.575"
   id="path126" />

		<path
   fill="#052555"
   d="m -173.102,72.343 c 0.037,0.12 0.168,0.185 0.286,0.146 l 0.896,-0.31 c 0.121,-0.041 0.187,-0.176 0.148,-0.294 0,0 -0.055,-0.174 -0.105,-0.374 -0.052,-0.203 -0.082,-0.382 -0.082,-0.382 -0.023,-0.125 -0.145,-0.211 -0.271,-0.191 l -0.935,0.146 c -0.125,0.021 -0.209,0.141 -0.187,0.267 0,0 0.046,0.257 0.106,0.499 0.064,0.241 0.144,0.493 0.144,0.493"
   id="path127" />

		<path
   fill="#052555"
   d="m -165.435,55.626 c 0.18,-0.073 0.384,0.015 0.453,0.195 l 0.518,1.35 c 0.07,0.182 -0.021,0.39 -0.201,0.463 0,0 -0.252,0.104 -0.541,0.243 -0.286,0.141 -0.525,0.275 -0.525,0.275 -0.168,0.097 -0.389,0.039 -0.487,-0.127 l -0.745,-1.238 c -0.098,-0.167 -0.042,-0.379 0.125,-0.477 0,0 0.348,-0.199 0.691,-0.365 0.341,-0.167 0.712,-0.319 0.712,-0.319"
   id="path128" />

		<path
   fill="#052555"
   d="m -162.433,54.839 c 0.174,-0.027 0.338,0.091 0.362,0.27 l 0.185,1.305 c 0.023,0.175 -0.1,0.342 -0.273,0.372 0,0 -0.25,0.039 -0.532,0.104 -0.284,0.065 -0.525,0.138 -0.525,0.138 -0.169,0.053 -0.353,-0.044 -0.409,-0.213 l -0.407,-1.256 c -0.054,-0.169 0.039,-0.348 0.21,-0.397 0,0 0.35,-0.106 0.689,-0.185 0.339,-0.079 0.7,-0.138 0.7,-0.138"
   id="path129" />

		<path
   fill="#052555"
   d="m -159.354,54.734 c 0.16,0.011 0.279,0.152 0.267,0.311 l -0.105,1.19 c -0.015,0.16 -0.156,0.282 -0.316,0.271 0,0 -0.228,-0.013 -0.49,-0.013 -0.265,0 -0.49,0.013 -0.49,0.013 -0.162,0.012 -0.304,-0.11 -0.319,-0.271 l -0.104,-1.19 c -0.014,-0.158 0.106,-0.3 0.267,-0.311 0,0 0.329,-0.021 0.646,-0.021 0.311,10e-4 0.644,0.021 0.644,0.021"
   id="path130" />

		<path
   fill="#052555"
   d="m -156.35,55.308 c 0.138,0.04 0.214,0.187 0.169,0.325 l -0.331,1.019 c -0.044,0.136 -0.192,0.214 -0.331,0.172 0,0 -0.195,-0.059 -0.426,-0.113 -0.229,-0.052 -0.433,-0.086 -0.433,-0.086 -0.142,-0.022 -0.24,-0.157 -0.222,-0.299 l 0.15,-1.06 c 0.021,-0.145 0.152,-0.243 0.293,-0.22 0,0 0.295,0.049 0.57,0.113 0.277,0.063 0.561,0.149 0.561,0.149"
   id="path131" />

		<path
   fill="#052555"
   d="m -153.565,56.521 c 0.111,0.063 0.146,0.204 0.082,0.313 l -0.487,0.81 c -0.066,0.109 -0.208,0.147 -0.32,0.084 0,0 -0.155,-0.09 -0.343,-0.181 -0.19,-0.091 -0.356,-0.158 -0.356,-0.158 -0.118,-0.051 -0.177,-0.186 -0.131,-0.306 l 0.339,-0.883 c 0.046,-0.118 0.179,-0.176 0.297,-0.128 0,0 0.244,0.099 0.467,0.207 0.224,0.111 0.452,0.242 0.452,0.242"
   id="path132" />

	</g>

</g>
  </g>
</svg>
