<?xml version="1.0" encoding="utf-8"?>
<svg viewBox="0 0 500 500" xmlns="http://www.w3.org/2000/svg">
  <defs/>
  <g id="graph0" class="graph" transform="matrix(5.180982047426217, 0, 0, 5.180982047426217, 62.85456785013628, 584.6278412052577)">
    <path d=" M -4 4 C -4 4 -4 -153 -4 -153 C -4 -153 48 -153 48 -153 C 48 -153 48 4 48 4 C 48 4 -4 4 -4 4 Z" style="fill: rgb(255, 255, 255); stroke: none;" transform="matrix(1.708423137664795, 0, 0, 0.6153794388559891, -5.400684356689453, -18.830765399348998)"/>
    <g id="node1" class="node">
      <ellipse cx="22" cy="-98" rx="11.06578827" ry="11.06578827" style="fill: rgb(0, 255, 0); stroke: rgb(0, 0, 0);"/>
      <text x="22" y="-94.3" style="white-space: pre; text-anchor: middle; font-family: 'Times New Roman', serif; font-size: 14px;" transform="matrix(1, 0, 0, 1, 0.14446274439492868, 1.1557019551594863)"><tspan>0</tspan></text>
    </g>
    <g id="edge1" class="edge" transform="matrix(6.123233601181349e-17, 1, -1, 6.123233601181349e-17, -83.0909972190857, -119.1946085294088)">
      <path d=" M 15.620800018310547 -115.03700256347656 C 14.318900108337402 -124.85800170898438 16.44529914855957 -134 22 -134 C 25.47170066833496 -134 27.60420036315918 -130.4290008544922 28.397499084472656 -125.35299682617188" style="fill: none; stroke: rgb(0, 0, 0);"/>
      <path d=" M 31.8971004486084 -125.03099822998047 C 31.8971004486084 -125.03099822998047 28.379199981689453 -115.03700256347656 28.379199981689453 -115.03700256347656 C 28.379199981689453 -115.03700256347656 24.8971004486084 -125.04399871826172 24.8971004486084 -125.04399871826172 C 24.8971004486084 -125.04399871826172 31.8971004486084 -125.03099822998047 31.8971004486084 -125.03099822998047 Z" style="fill: rgb(0, 0, 0); stroke: rgb(0, 0, 0);"/>
      <text x="22" y="-137.8" style="white-space: pre; text-anchor: middle; font-family: 'Times New Roman', serif; font-size: 14px;" transform="matrix(6.123233601181349e-17, -1, 1, 6.123233601181349e-17, 162.76643371582028, -124.11156209309893)"><tspan>"()"</tspan></text>
    </g>
    <g id="node2" class="node" transform="matrix(1, 0, 0, 1, 4.96704899433098e-9, -11.123631477355985)">
      <ellipse cx="22" cy="-22" rx="11.06578827" ry="11.06578827" style="fill: rgb(255, 0, 0); stroke: rgb(0, 0, 0);" transform="matrix(1, 0, 0, 1, 0, -1.1557019551594863)"/>
      <ellipse cx="22" cy="-22" rx="13.91008759" ry="13.91008759" style="fill: none; stroke: rgb(0, 0, 0);" transform="matrix(1, 0, 0, 1, 0, -1.1557019551594863)"/>
      <text x="22" y="-18.3" style="white-space: pre; text-anchor: middle; font-family: 'Times New Roman', serif; font-size: 14px;" transform="matrix(1, 0, 0, 1, 0.43338820338249207, -0.7223137517770226)"><tspan>2</tspan></text>
    </g>
    <g id="edge2" class="edge">
      <path d=" M 22 -86.82559967041016 C 22 -79.28980255126953 22 -68.6041030883789 22 -60.03049850463867" style="fill: none; stroke: rgb(0, 0, 0);" transform=""/>
      <path d=" M 25.500099182128906 -54.39139938354492 C 25.500099182128906 -54.39139938354492 22 -44.39139938354492 22 -44.39139938354492 C 22 -44.39139938354492 18.500099182128906 -54.39149856567383 18.500099182128906 -54.39149856567383 C 18.500099182128906 -54.39149856567383 25.500099182128906 -54.39139938354492 25.500099182128906 -54.39139938354492 Z" style="fill: rgb(0, 0, 0); stroke: rgb(0, 0, 0);" transform="matrix(1, 0, 0, 1, -2.842170943040401e-14, -5.489584128061949)"/>
      <text x="11.5" y="-58.3" style="white-space: pre; text-anchor: middle; font-family: 'Times New Roman', serif; font-size: 14px;" transform="matrix(1, 0, 0, 1, -5.489584445953383, -9.967929204305051)"><tspan>EOF</tspan></text>
    </g>
  </g>
</svg>