<?xml version="1.0" encoding="UTF-8" standalone="no"?>
<!-- Created with Inkscape (http://www.inkscape.org/) -->

<svg
   xmlns:dc="http://purl.org/dc/elements/1.1/"
   xmlns:cc="http://creativecommons.org/ns#"
   xmlns:rdf="http://www.w3.org/1999/02/22-rdf-syntax-ns#"
   xmlns:svg="http://www.w3.org/2000/svg"
   xmlns="http://www.w3.org/2000/svg"
   xmlns:sodipodi="http://sodipodi.sourceforge.net/DTD/sodipodi-0.dtd"
   xmlns:inkscape="http://www.inkscape.org/namespaces/inkscape"
   width="744.09448819"
   height="1052.3622047"
   id="svg3305"
   version="1.1"
   inkscape:version="0.48.5 r10040"
   sodipodi:docname="New document 3">
  <defs
     id="defs3307" />
  <sodipodi:namedview
     id="base"
     pagecolor="#ffffff"
     bordercolor="#666666"
     borderopacity="1.0"
     inkscape:pageopacity="0.0"
     inkscape:pageshadow="2"
     inkscape:zoom="0.35"
     inkscape:cx="375"
     inkscape:cy="520"
     inkscape:document-units="px"
     inkscape:current-layer="layer1"
     showgrid="false"
     inkscape:window-width="463"
     inkscape:window-height="453"
     inkscape:window-x="260"
     inkscape:window-y="260"
     inkscape:window-maximized="0" />
  <metadata
     id="metadata3310">
    <rdf:RDF>
      <cc:Work
         rdf:about="">
        <dc:format>image/svg+xml</dc:format>
        <dc:type
           rdf:resource="http://purl.org/dc/dcmitype/StillImage" />
        <dc:title></dc:title>
      </cc:Work>
    </rdf:RDF>
  </metadata>
  <g
     inkscape:label="Layer 1"
     inkscape:groupmode="layer"
     id="layer1">
    <path
       inkscape:connector-curvature="0"
       d="m 810,764.86218 0,-225 -810,0 0,225 810,0 z m 0,-225 z"
       style="fill:#eaeaea;fill-opacity:1;fill-rule:evenodd;stroke:#000000;stroke-width:0.90000004;stroke-linecap:round;stroke-linejoin:miter;stroke-miterlimit:10;stroke-opacity:1;stroke-dasharray:none"
       id="path18" />
    <path
       inkscape:connector-curvature="0"
       d="m 795.975,749.86218 0,-187.5 -277.5,0 0,187.5 277.5,0 z m 0,-187.5 z"
       style="fill:#cbebb8;fill-opacity:1;fill-rule:evenodd;stroke:#000000;stroke-width:0.90000004;stroke-linecap:round;stroke-linejoin:miter;stroke-miterlimit:10;stroke-opacity:1;stroke-dasharray:none"
       id="path24" />
    <text
       style="font-size:15px"
       y="607.96216"
       x="532.20001"
       id="text26">
      <tspan
         style="font-size:35.02500153px;font-variant:normal;font-weight:normal;font-stretch:normal;writing-mode:lr-tb;fill:#000000;fill-opacity:1;fill-rule:nonzero;stroke:none;font-family:Times New Roman;-inkscape-font-specification:TimesNewRomanPSMT"
         x="532.20001 557.45654 574.9375 590.45709 607.93805 631.26819 661.42822 686.68475 702.20435 719.6853 729.39075 744.91034"
         y="607.96216"
         sodipodi:role="line"
         id="tspan28">OpenCLDevice</tspan>
    </text>
    <path
       inkscape:connector-curvature="0"
       d="m 593.475,674.86218 0,-52.5 -52.5,0 0,52.5 52.5,0 z m 0,-52.5 z"
       style="fill:#a3c8ec;fill-opacity:1;fill-rule:evenodd;stroke:#000000;stroke-width:0.90000004;stroke-linecap:round;stroke-linejoin:miter;stroke-miterlimit:10;stroke-opacity:1;stroke-dasharray:none"
       id="path30" />
    <path
       inkscape:connector-curvature="0"
       d="m 563.475,644.86218 0,-15 -15,0 0,15 15,0 z m 0,-15 z"
       style="fill:#f3f587;fill-opacity:1;fill-rule:evenodd;stroke:#000000;stroke-width:0.90000004;stroke-linecap:round;stroke-linejoin:miter;stroke-miterlimit:10;stroke-opacity:1;stroke-dasharray:none"
       id="path32" />
    <path
       inkscape:connector-curvature="0"
       d="m 585.975,644.86218 0,-15 -15,0 0,15 15,0 z m 0,-15 z"
       style="fill:#f3f587;fill-opacity:1;fill-rule:evenodd;stroke:#000000;stroke-width:0.90000004;stroke-linecap:round;stroke-linejoin:miter;stroke-miterlimit:10;stroke-opacity:1;stroke-dasharray:none"
       id="path34" />
    <path
       inkscape:connector-curvature="0"
       d="m 563.475,667.36218 0,-15 -15,0 0,15 15,0 z m 0,-15 z"
       style="fill:#f3f587;fill-opacity:1;fill-rule:evenodd;stroke:#000000;stroke-width:0.90000004;stroke-linecap:round;stroke-linejoin:miter;stroke-miterlimit:10;stroke-opacity:1;stroke-dasharray:none"
       id="path36" />
    <path
       inkscape:connector-curvature="0"
       d="m 585.975,667.36218 0,-15 -15,0 0,15 15,0 z m 0,-15 z"
       style="fill:#f3f587;fill-opacity:1;fill-rule:evenodd;stroke:#000000;stroke-width:0.90000004;stroke-linecap:round;stroke-linejoin:miter;stroke-miterlimit:10;stroke-opacity:1;stroke-dasharray:none"
       id="path38" />
    <path
       inkscape:connector-curvature="0"
       d="m 653.475,674.86218 0,-52.5 -52.5,0 0,52.5 52.5,0 z m 0,-52.5 z"
       style="fill:#a3c8ec;fill-opacity:1;fill-rule:evenodd;stroke:#000000;stroke-width:0.90000004;stroke-linecap:round;stroke-linejoin:miter;stroke-miterlimit:10;stroke-opacity:1;stroke-dasharray:none"
       id="path40" />
    <path
       inkscape:connector-curvature="0"
       d="m 623.475,644.86218 0,-15 -15,0 0,15 15,0 z m 0,-15 z"
       style="fill:#f3f587;fill-opacity:1;fill-rule:evenodd;stroke:#000000;stroke-width:0.90000004;stroke-linecap:round;stroke-linejoin:miter;stroke-miterlimit:10;stroke-opacity:1;stroke-dasharray:none"
       id="path42" />
    <path
       inkscape:connector-curvature="0"
       d="m 645.975,644.86218 0,-15 -15,0 0,15 15,0 z m 0,-15 z"
       style="fill:#f3f587;fill-opacity:1;fill-rule:evenodd;stroke:#000000;stroke-width:0.90000004;stroke-linecap:round;stroke-linejoin:miter;stroke-miterlimit:10;stroke-opacity:1;stroke-dasharray:none"
       id="path44" />
    <path
       inkscape:connector-curvature="0"
       d="m 623.475,667.36218 0,-15 -15,0 0,15 15,0 z m 0,-15 z"
       style="fill:#f3f587;fill-opacity:1;fill-rule:evenodd;stroke:#000000;stroke-width:0.90000004;stroke-linecap:round;stroke-linejoin:miter;stroke-miterlimit:10;stroke-opacity:1;stroke-dasharray:none"
       id="path46" />
    <path
       inkscape:connector-curvature="0"
       d="m 645.975,667.36218 0,-15 -15,0 0,15 15,0 z m 0,-15 z"
       style="fill:#f3f587;fill-opacity:1;fill-rule:evenodd;stroke:#000000;stroke-width:0.90000004;stroke-linecap:round;stroke-linejoin:miter;stroke-miterlimit:10;stroke-opacity:1;stroke-dasharray:none"
       id="path48" />
    <path
       inkscape:connector-curvature="0"
       d="m 713.475,674.86218 0,-52.5 -52.5,0 0,52.5 52.5,0 z m 0,-52.5 z"
       style="fill:#a3c8ec;fill-opacity:1;fill-rule:evenodd;stroke:#000000;stroke-width:0.90000004;stroke-linecap:round;stroke-linejoin:miter;stroke-miterlimit:10;stroke-opacity:1;stroke-dasharray:none"
       id="path50" />
    <path
       inkscape:connector-curvature="0"
       d="m 683.475,644.86218 0,-15 -15,0 0,15 15,0 z m 0,-15 z"
       style="fill:#f3f587;fill-opacity:1;fill-rule:evenodd;stroke:#000000;stroke-width:0.90000004;stroke-linecap:round;stroke-linejoin:miter;stroke-miterlimit:10;stroke-opacity:1;stroke-dasharray:none"
       id="path52" />
    <path
       inkscape:connector-curvature="0"
       d="m 705.975,644.86218 0,-15 -15,0 0,15 15,0 z m 0,-15 z"
       style="fill:#f3f587;fill-opacity:1;fill-rule:evenodd;stroke:#000000;stroke-width:0.90000004;stroke-linecap:round;stroke-linejoin:miter;stroke-miterlimit:10;stroke-opacity:1;stroke-dasharray:none"
       id="path54" />
    <path
       inkscape:connector-curvature="0"
       d="m 683.475,667.36218 0,-15 -15,0 0,15 15,0 z m 0,-15 z"
       style="fill:#f3f587;fill-opacity:1;fill-rule:evenodd;stroke:#000000;stroke-width:0.90000004;stroke-linecap:round;stroke-linejoin:miter;stroke-miterlimit:10;stroke-opacity:1;stroke-dasharray:none"
       id="path56" />
    <path
       inkscape:connector-curvature="0"
       d="m 705.975,667.36218 0,-15 -15,0 0,15 15,0 z m 0,-15 z"
       style="fill:#f3f587;fill-opacity:1;fill-rule:evenodd;stroke:#000000;stroke-width:0.90000004;stroke-linecap:round;stroke-linejoin:miter;stroke-miterlimit:10;stroke-opacity:1;stroke-dasharray:none"
       id="path58" />
    <path
       inkscape:connector-curvature="0"
       d="m 773.475,674.86218 0,-52.5 -52.5,0 0,52.5 52.5,0 z m 0,-52.5 z"
       style="fill:#a3c8ec;fill-opacity:1;fill-rule:evenodd;stroke:#000000;stroke-width:0.90000004;stroke-linecap:round;stroke-linejoin:miter;stroke-miterlimit:10;stroke-opacity:1;stroke-dasharray:none"
       id="path60" />
    <path
       inkscape:connector-curvature="0"
       d="m 743.475,644.86218 0,-15 -15,0 0,15 15,0 z m 0,-15 z"
       style="fill:#f3f587;fill-opacity:1;fill-rule:evenodd;stroke:#000000;stroke-width:0.90000004;stroke-linecap:round;stroke-linejoin:miter;stroke-miterlimit:10;stroke-opacity:1;stroke-dasharray:none"
       id="path62" />
    <path
       inkscape:connector-curvature="0"
       d="m 765.975,644.86218 0,-15 -15,0 0,15 15,0 z m 0,-15 z"
       style="fill:#f3f587;fill-opacity:1;fill-rule:evenodd;stroke:#000000;stroke-width:0.90000004;stroke-linecap:round;stroke-linejoin:miter;stroke-miterlimit:10;stroke-opacity:1;stroke-dasharray:none"
       id="path64" />
    <path
       inkscape:connector-curvature="0"
       d="m 743.475,667.36218 0,-15 -15,0 0,15 15,0 z m 0,-15 z"
       style="fill:#f3f587;fill-opacity:1;fill-rule:evenodd;stroke:#000000;stroke-width:0.90000004;stroke-linecap:round;stroke-linejoin:miter;stroke-miterlimit:10;stroke-opacity:1;stroke-dasharray:none"
       id="path66" />
    <path
       inkscape:connector-curvature="0"
       d="m 765.975,667.36218 0,-15 -15,0 0,15 15,0 z m 0,-15 z"
       style="fill:#f3f587;fill-opacity:1;fill-rule:evenodd;stroke:#000000;stroke-width:0.90000004;stroke-linecap:round;stroke-linejoin:miter;stroke-miterlimit:10;stroke-opacity:1;stroke-dasharray:none"
       id="path68" />
    <path
       inkscape:connector-curvature="0"
       d="m 593.475,734.86218 0,-52.5 -52.5,0 0,52.5 52.5,0 z m 0,-52.5 z"
       style="fill:#a3c8ec;fill-opacity:1;fill-rule:evenodd;stroke:#000000;stroke-width:0.90000004;stroke-linecap:round;stroke-linejoin:miter;stroke-miterlimit:10;stroke-opacity:1;stroke-dasharray:none"
       id="path70" />
    <path
       inkscape:connector-curvature="0"
       d="m 563.475,704.86218 0,-15 -15,0 0,15 15,0 z m 0,-15 z"
       style="fill:#f3f587;fill-opacity:1;fill-rule:evenodd;stroke:#000000;stroke-width:0.90000004;stroke-linecap:round;stroke-linejoin:miter;stroke-miterlimit:10;stroke-opacity:1;stroke-dasharray:none"
       id="path72" />
    <path
       inkscape:connector-curvature="0"
       d="m 585.975,704.86218 0,-15 -15,0 0,15 15,0 z m 0,-15 z"
       style="fill:#f3f587;fill-opacity:1;fill-rule:evenodd;stroke:#000000;stroke-width:0.90000004;stroke-linecap:round;stroke-linejoin:miter;stroke-miterlimit:10;stroke-opacity:1;stroke-dasharray:none"
       id="path74" />
    <path
       inkscape:connector-curvature="0"
       d="m 563.475,727.36218 0,-15 -15,0 0,15 15,0 z m 0,-15 z"
       style="fill:#f3f587;fill-opacity:1;fill-rule:evenodd;stroke:#000000;stroke-width:0.90000004;stroke-linecap:round;stroke-linejoin:miter;stroke-miterlimit:10;stroke-opacity:1;stroke-dasharray:none"
       id="path76" />
    <path
       inkscape:connector-curvature="0"
       d="m 585.975,727.36218 0,-15 -15,0 0,15 15,0 z m 0,-15 z"
       style="fill:#f3f587;fill-opacity:1;fill-rule:evenodd;stroke:#000000;stroke-width:0.90000004;stroke-linecap:round;stroke-linejoin:miter;stroke-miterlimit:10;stroke-opacity:1;stroke-dasharray:none"
       id="path78" />
    <path
       inkscape:connector-curvature="0"
       d="m 653.475,734.86218 0,-52.5 -52.5,0 0,52.5 52.5,0 z m 0,-52.5 z"
       style="fill:#a3c8ec;fill-opacity:1;fill-rule:evenodd;stroke:#000000;stroke-width:0.90000004;stroke-linecap:round;stroke-linejoin:miter;stroke-miterlimit:10;stroke-opacity:1;stroke-dasharray:none"
       id="path80" />
    <path
       inkscape:connector-curvature="0"
       d="m 623.475,704.86218 0,-15 -15,0 0,15 15,0 z m 0,-15 z"
       style="fill:#f3f587;fill-opacity:1;fill-rule:evenodd;stroke:#000000;stroke-width:0.90000004;stroke-linecap:round;stroke-linejoin:miter;stroke-miterlimit:10;stroke-opacity:1;stroke-dasharray:none"
       id="path82" />
    <path
       inkscape:connector-curvature="0"
       d="m 645.975,704.86218 0,-15 -15,0 0,15 15,0 z m 0,-15 z"
       style="fill:#f3f587;fill-opacity:1;fill-rule:evenodd;stroke:#000000;stroke-width:0.90000004;stroke-linecap:round;stroke-linejoin:miter;stroke-miterlimit:10;stroke-opacity:1;stroke-dasharray:none"
       id="path84" />
    <path
       inkscape:connector-curvature="0"
       d="m 623.475,727.36218 0,-15 -15,0 0,15 15,0 z m 0,-15 z"
       style="fill:#f3f587;fill-opacity:1;fill-rule:evenodd;stroke:#000000;stroke-width:0.90000004;stroke-linecap:round;stroke-linejoin:miter;stroke-miterlimit:10;stroke-opacity:1;stroke-dasharray:none"
       id="path86" />
    <path
       inkscape:connector-curvature="0"
       d="m 645.975,727.36218 0,-15 -15,0 0,15 15,0 z m 0,-15 z"
       style="fill:#f3f587;fill-opacity:1;fill-rule:evenodd;stroke:#000000;stroke-width:0.90000004;stroke-linecap:round;stroke-linejoin:miter;stroke-miterlimit:10;stroke-opacity:1;stroke-dasharray:none"
       id="path88" />
    <path
       inkscape:connector-curvature="0"
       d="m 713.475,734.86218 0,-52.5 -52.5,0 0,52.5 52.5,0 z m 0,-52.5 z"
       style="fill:#a3c8ec;fill-opacity:1;fill-rule:evenodd;stroke:#000000;stroke-width:0.90000004;stroke-linecap:round;stroke-linejoin:miter;stroke-miterlimit:10;stroke-opacity:1;stroke-dasharray:none"
       id="path90" />
    <path
       inkscape:connector-curvature="0"
       d="m 683.475,704.86218 0,-15 -15,0 0,15 15,0 z m 0,-15 z"
       style="fill:#f3f587;fill-opacity:1;fill-rule:evenodd;stroke:#000000;stroke-width:0.90000004;stroke-linecap:round;stroke-linejoin:miter;stroke-miterlimit:10;stroke-opacity:1;stroke-dasharray:none"
       id="path92" />
    <path
       inkscape:connector-curvature="0"
       d="m 705.975,704.86218 0,-15 -15,0 0,15 15,0 z m 0,-15 z"
       style="fill:#f3f587;fill-opacity:1;fill-rule:evenodd;stroke:#000000;stroke-width:0.90000004;stroke-linecap:round;stroke-linejoin:miter;stroke-miterlimit:10;stroke-opacity:1;stroke-dasharray:none"
       id="path94" />
    <path
       inkscape:connector-curvature="0"
       d="m 683.475,727.36218 0,-15 -15,0 0,15 15,0 z m 0,-15 z"
       style="fill:#f3f587;fill-opacity:1;fill-rule:evenodd;stroke:#000000;stroke-width:0.90000004;stroke-linecap:round;stroke-linejoin:miter;stroke-miterlimit:10;stroke-opacity:1;stroke-dasharray:none"
       id="path96" />
    <path
       inkscape:connector-curvature="0"
       d="m 705.975,727.36218 0,-15 -15,0 0,15 15,0 z m 0,-15 z"
       style="fill:#f3f587;fill-opacity:1;fill-rule:evenodd;stroke:#000000;stroke-width:0.90000004;stroke-linecap:round;stroke-linejoin:miter;stroke-miterlimit:10;stroke-opacity:1;stroke-dasharray:none"
       id="path98" />
    <path
       inkscape:connector-curvature="0"
       d="m 773.475,734.86218 0,-52.5 -52.5,0 0,52.5 52.5,0 z m 0,-52.5 z"
       style="fill:#a3c8ec;fill-opacity:1;fill-rule:evenodd;stroke:#000000;stroke-width:0.90000004;stroke-linecap:round;stroke-linejoin:miter;stroke-miterlimit:10;stroke-opacity:1;stroke-dasharray:none"
       id="path100" />
    <path
       inkscape:connector-curvature="0"
       d="m 743.475,704.86218 0,-15 -15,0 0,15 15,0 z m 0,-15 z"
       style="fill:#f3f587;fill-opacity:1;fill-rule:evenodd;stroke:#000000;stroke-width:0.90000004;stroke-linecap:round;stroke-linejoin:miter;stroke-miterlimit:10;stroke-opacity:1;stroke-dasharray:none"
       id="path102" />
    <path
       inkscape:connector-curvature="0"
       d="m 765.975,704.86218 0,-15 -15,0 0,15 15,0 z m 0,-15 z"
       style="fill:#f3f587;fill-opacity:1;fill-rule:evenodd;stroke:#000000;stroke-width:0.90000004;stroke-linecap:round;stroke-linejoin:miter;stroke-miterlimit:10;stroke-opacity:1;stroke-dasharray:none"
       id="path104" />
    <path
       inkscape:connector-curvature="0"
       d="m 743.475,727.36218 0,-15 -15,0 0,15 15,0 z m 0,-15 z"
       style="fill:#f3f587;fill-opacity:1;fill-rule:evenodd;stroke:#000000;stroke-width:0.90000004;stroke-linecap:round;stroke-linejoin:miter;stroke-miterlimit:10;stroke-opacity:1;stroke-dasharray:none"
       id="path106" />
    <path
       inkscape:connector-curvature="0"
       d="m 765.975,727.36218 0,-15 -15,0 0,15 15,0 z m 0,-15 z"
       style="fill:#f3f587;fill-opacity:1;fill-rule:evenodd;stroke:#000000;stroke-width:0.90000004;stroke-linecap:round;stroke-linejoin:miter;stroke-miterlimit:10;stroke-opacity:1;stroke-dasharray:none"
       id="path108" />
    <path
       inkscape:connector-curvature="0"
       d="m 787.5,511.13718 0,-187.5 -242.475,0 0,187.5 242.475,0 z m 0,-187.5 z"
       style="fill:#f3f587;fill-opacity:1;fill-rule:evenodd;stroke:#000000;stroke-width:0.90000004;stroke-linecap:round;stroke-linejoin:miter;stroke-miterlimit:10;stroke-opacity:1;stroke-dasharray:none"
       id="path110" />
    <text
       style="font-size:15px"
       y="374.26218"
       x="569.09998"
       id="text112">
      <tspan
         style="font-size:39.97499847px;font-variant:normal;font-weight:normal;font-stretch:normal;writing-mode:lr-tb;fill:#000000;fill-opacity:1;fill-rule:nonzero;stroke:none;font-family:Times New Roman;-inkscape-font-specification:TimesNewRomanPSMT"
         x="569.09998 595.79932 626.93579 656.95306 685.81097 705.83447 723.61938 743.64282"
         y="374.26218"
         sodipodi:role="line"
         id="tspan114">CmdQueue</tspan>
    </text>
    <path
       inkscape:connector-curvature="0"
       d="m 567.525,391.13718 180,0 m -180,15 180,0 m -180,15 180,0 m -180,15 180,0 m -180,15 180,0 m -180,15 180,0 m -180,15 180,0 m -180,15 180,0"
       style="fill:none;stroke:#000000;stroke-width:0.90000004;stroke-linecap:round;stroke-linejoin:round;stroke-miterlimit:10;stroke-opacity:1;stroke-dasharray:none"
       id="path116" />
    <path
       inkscape:connector-curvature="0"
       d="m 487.5,389.86218 0,-67.5 -195,0 0,67.5 195,0 z m 0,-67.5 z"
       style="fill:#f5c44e;fill-opacity:1;fill-rule:evenodd;stroke:#000000;stroke-width:0.90000004;stroke-linecap:round;stroke-linejoin:miter;stroke-miterlimit:10;stroke-opacity:1;stroke-dasharray:none"
       id="path118" />
    <text
       style="font-size:15px"
       y="370.66217"
       x="302.02499"
       id="text120">
      <tspan
         style="font-size:39.97499847px;font-variant:normal;font-weight:normal;font-stretch:normal;writing-mode:lr-tb;fill:#000000;fill-opacity:1;fill-rule:nonzero;stroke:none;font-family:Times New Roman;-inkscape-font-specification:TimesNewRomanPSMT"
         x="302.02499 328.71231 348.72379 379.84833 410.97287 428.74573 448.75723"
         y="370.66217"
         sodipodi:role="line"
         id="tspan122">Command</tspan>
    </text>
    <path
       inkscape:connector-curvature="0"
       d="m 675.15,517.51218 -0.225,28.35"
       style="fill:none;stroke:#000000;stroke-width:3.75;stroke-linecap:butt;stroke-linejoin:round;stroke-miterlimit:10;stroke-opacity:1;stroke-dasharray:none"
       id="path124" />
    <path
       inkscape:connector-curvature="0"
       d="m 666.525,545.63718 8.325,16.875 8.55,-16.8"
       style="fill:#000000;fill-opacity:1;fill-rule:evenodd;stroke:none"
       id="path126" />
    <path
       inkscape:connector-curvature="0"
       d="m 487.5,356.11218 42.075,0.075"
       style="fill:none;stroke:#000000;stroke-width:3.75;stroke-linecap:butt;stroke-linejoin:round;stroke-miterlimit:10;stroke-opacity:1;stroke-dasharray:none"
       id="path128" />
    <path
       inkscape:connector-curvature="0"
       d="m 529.35,364.66218 16.95,-8.4 -16.875,-8.475"
       style="fill:#000000;fill-opacity:1;fill-rule:evenodd;stroke:none"
       id="path130" />
    <path
       inkscape:connector-curvature="0"
       d="m 165,382.36218 0,-82.5 -225,0 0,82.5 225,0 z m 0,-82.5 z"
       style="fill:#a3c8ec;fill-opacity:1;fill-rule:evenodd;stroke:#000000;stroke-width:0.90000004;stroke-linecap:round;stroke-linejoin:miter;stroke-miterlimit:10;stroke-opacity:1;stroke-dasharray:none"
       id="path132" />
    <text
       style="font-size:15px"
       y="355.66217"
       x="-50.474998"
       id="text134">
      <tspan
         style="font-size:39.97499847px;font-variant:normal;font-weight:normal;font-stretch:normal;writing-mode:lr-tb;fill:#000000;fill-opacity:1;fill-rule:nonzero;stroke:none;font-family:Times New Roman;-inkscape-font-specification:TimesNewRomanPSMT"
         x="-50.474998 -21.589066 -1.5775826 18.433903 29.570934 40.707966 58.480862 76.253754 87.390793 98.527832 118.53931"
         y="355.66217"
         sodipodi:role="line"
         id="tspan136">Application</tspan>
    </text>
    <path
       inkscape:connector-curvature="0"
       d="m 165,352.36218 110.85,0.15"
       style="fill:none;stroke:#000000;stroke-width:3.75;stroke-linecap:butt;stroke-linejoin:round;stroke-miterlimit:10;stroke-opacity:1;stroke-dasharray:none"
       id="path138" />
    <path
       inkscape:connector-curvature="0"
       d="m 275.7,360.98718 16.8,-8.475 -16.8,-8.4"
       style="fill:#000000;fill-opacity:1;fill-rule:evenodd;stroke:none"
       id="path140" />
    <path
       inkscape:connector-curvature="0"
       d="m 495,508.58718 0,-96.225 -255,0 0,96.225 255,0 z m 0,-96.225 z"
       style="fill:#f3f587;fill-opacity:1;fill-rule:evenodd;stroke:#000000;stroke-width:0.90000004;stroke-linecap:round;stroke-linejoin:miter;stroke-miterlimit:10;stroke-opacity:1;stroke-dasharray:none"
       id="path142" />
    <text
       style="font-size:15px"
       y="462.98718"
       x="266.09998"
       id="text144">
      <tspan
         style="font-size:39.97499847px;font-variant:normal;font-weight:normal;font-stretch:normal;writing-mode:lr-tb;fill:#000000;fill-opacity:1;fill-rule:nonzero;stroke:none;font-family:Times New Roman;-inkscape-font-specification:TimesNewRomanPSMT"
         x="266.09998 292.79929 323.93582 353.95303 382.811 402.83447 420.61935 440.64282"
         y="462.98718"
         sodipodi:role="line"
         id="tspan146">CmdQueue</tspan>
    </text>
    <path
       inkscape:connector-curvature="0"
       d="m 265.5,479.86218 204,0 m -204,15 204,0"
       style="fill:none;stroke:#000000;stroke-width:0.90000004;stroke-linecap:round;stroke-linejoin:round;stroke-miterlimit:10;stroke-opacity:1;stroke-dasharray:none"
       id="path148" />
    <path
       inkscape:connector-curvature="0"
       d="m 180,502.36218 0,-67.5 -202.5,0 0,67.5 202.5,0 z m 0,-67.5 z"
       style="fill:#f5c44e;fill-opacity:1;fill-rule:evenodd;stroke:#000000;stroke-width:0.90000004;stroke-linecap:round;stroke-linejoin:miter;stroke-miterlimit:10;stroke-opacity:1;stroke-dasharray:none"
       id="path150" />
    <text
       style="font-size:15px"
       y="483.16217"
       x="-12.975001"
       id="text152">
      <tspan
         style="font-size:39.97499847px;font-variant:normal;font-weight:normal;font-stretch:normal;writing-mode:lr-tb;fill:#000000;fill-opacity:1;fill-rule:nonzero;stroke:none;font-family:Times New Roman;-inkscape-font-specification:TimesNewRomanPSMT"
         x="-12.975001 13.712308 33.723797 64.848335 95.97287 113.74576 133.75723"
         y="483.16217"
         sodipodi:role="line"
         id="tspan154">Command</tspan>
    </text>
    <path
       inkscape:connector-curvature="0"
       d="m 180,468.61218 42.075,0.075"
       style="fill:none;stroke:#000000;stroke-width:3.75;stroke-linecap:butt;stroke-linejoin:round;stroke-miterlimit:10;stroke-opacity:1;stroke-dasharray:none"
       id="path156" />
    <path
       inkscape:connector-curvature="0"
       d="m 221.85,477.16218 16.95,-8.4 -16.875,-8.475"
       style="fill:#000000;fill-opacity:1;fill-rule:evenodd;stroke:none"
       id="path158" />
    <path
       inkscape:connector-curvature="0"
       d="m 472.5,689.86218 0,-127.5 -277.5,0 0,127.5 277.5,0 z m 0,-127.5 z"
       style="fill:#cbebb8;fill-opacity:1;fill-rule:evenodd;stroke:#000000;stroke-width:0.90000004;stroke-linecap:round;stroke-linejoin:miter;stroke-miterlimit:10;stroke-opacity:1;stroke-dasharray:none"
       id="path160" />
    <text
       style="font-size:15px"
       y="607.96216"
       x="208.72499"
       id="text162">
      <tspan
         style="font-size:35.02500153px;font-variant:normal;font-weight:normal;font-stretch:normal;writing-mode:lr-tb;fill:#000000;fill-opacity:1;fill-rule:nonzero;stroke:none;font-family:Times New Roman;-inkscape-font-specification:TimesNewRomanPSMT"
         x="208.72499 233.98152 251.46251 266.98209 284.46304 307.79321 337.95322 363.20975 378.72934 396.2103 405.91574 421.4353"
         y="607.96216"
         sodipodi:role="line"
         id="tspan164">OpenCLDevice</tspan>
    </text>
    <path
       inkscape:connector-curvature="0"
       d="m 270,674.86218 0,-52.5 -52.5,0 0,52.5 52.5,0 z m 0,-52.5 z"
       style="fill:#a3c8ec;fill-opacity:1;fill-rule:evenodd;stroke:#000000;stroke-width:0.90000004;stroke-linecap:round;stroke-linejoin:miter;stroke-miterlimit:10;stroke-opacity:1;stroke-dasharray:none"
       id="path166" />
    <path
       inkscape:connector-curvature="0"
       d="m 240,644.86218 0,-15 -15,0 0,15 15,0 z m 0,-15 z"
       style="fill:#f3f587;fill-opacity:1;fill-rule:evenodd;stroke:#000000;stroke-width:0.90000004;stroke-linecap:round;stroke-linejoin:miter;stroke-miterlimit:10;stroke-opacity:1;stroke-dasharray:none"
       id="path168" />
    <path
       inkscape:connector-curvature="0"
       d="m 262.5,644.86218 0,-15 -15,0 0,15 15,0 z m 0,-15 z"
       style="fill:#f3f587;fill-opacity:1;fill-rule:evenodd;stroke:#000000;stroke-width:0.90000004;stroke-linecap:round;stroke-linejoin:miter;stroke-miterlimit:10;stroke-opacity:1;stroke-dasharray:none"
       id="path170" />
    <path
       inkscape:connector-curvature="0"
       d="m 240,667.36218 0,-15 -15,0 0,15 15,0 z m 0,-15 z"
       style="fill:#f3f587;fill-opacity:1;fill-rule:evenodd;stroke:#000000;stroke-width:0.90000004;stroke-linecap:round;stroke-linejoin:miter;stroke-miterlimit:10;stroke-opacity:1;stroke-dasharray:none"
       id="path172" />
    <path
       inkscape:connector-curvature="0"
       d="m 262.5,667.36218 0,-15 -15,0 0,15 15,0 z m 0,-15 z"
       style="fill:#f3f587;fill-opacity:1;fill-rule:evenodd;stroke:#000000;stroke-width:0.90000004;stroke-linecap:round;stroke-linejoin:miter;stroke-miterlimit:10;stroke-opacity:1;stroke-dasharray:none"
       id="path174" />
    <path
       inkscape:connector-curvature="0"
       d="m 330,674.86218 0,-52.5 -52.5,0 0,52.5 52.5,0 z m 0,-52.5 z"
       style="fill:#a3c8ec;fill-opacity:1;fill-rule:evenodd;stroke:#000000;stroke-width:0.90000004;stroke-linecap:round;stroke-linejoin:miter;stroke-miterlimit:10;stroke-opacity:1;stroke-dasharray:none"
       id="path176" />
    <path
       inkscape:connector-curvature="0"
       d="m 300,644.86218 0,-15 -15,0 0,15 15,0 z m 0,-15 z"
       style="fill:#f3f587;fill-opacity:1;fill-rule:evenodd;stroke:#000000;stroke-width:0.90000004;stroke-linecap:round;stroke-linejoin:miter;stroke-miterlimit:10;stroke-opacity:1;stroke-dasharray:none"
       id="path178" />
    <path
       inkscape:connector-curvature="0"
       d="m 322.5,644.86218 0,-15 -15,0 0,15 15,0 z m 0,-15 z"
       style="fill:#f3f587;fill-opacity:1;fill-rule:evenodd;stroke:#000000;stroke-width:0.90000004;stroke-linecap:round;stroke-linejoin:miter;stroke-miterlimit:10;stroke-opacity:1;stroke-dasharray:none"
       id="path180" />
    <path
       inkscape:connector-curvature="0"
       d="m 300,667.36218 0,-15 -15,0 0,15 15,0 z m 0,-15 z"
       style="fill:#f3f587;fill-opacity:1;fill-rule:evenodd;stroke:#000000;stroke-width:0.90000004;stroke-linecap:round;stroke-linejoin:miter;stroke-miterlimit:10;stroke-opacity:1;stroke-dasharray:none"
       id="path182" />
    <path
       inkscape:connector-curvature="0"
       d="m 322.5,667.36218 0,-15 -15,0 0,15 15,0 z m 0,-15 z"
       style="fill:#f3f587;fill-opacity:1;fill-rule:evenodd;stroke:#000000;stroke-width:0.90000004;stroke-linecap:round;stroke-linejoin:miter;stroke-miterlimit:10;stroke-opacity:1;stroke-dasharray:none"
       id="path184" />
    <path
       inkscape:connector-curvature="0"
       d="m 390,674.86218 0,-52.5 -52.5,0 0,52.5 52.5,0 z m 0,-52.5 z"
       style="fill:#a3c8ec;fill-opacity:1;fill-rule:evenodd;stroke:#000000;stroke-width:0.90000004;stroke-linecap:round;stroke-linejoin:miter;stroke-miterlimit:10;stroke-opacity:1;stroke-dasharray:none"
       id="path186" />
    <path
       inkscape:connector-curvature="0"
       d="m 360,644.86218 0,-15 -15,0 0,15 15,0 z m 0,-15 z"
       style="fill:#f3f587;fill-opacity:1;fill-rule:evenodd;stroke:#000000;stroke-width:0.90000004;stroke-linecap:round;stroke-linejoin:miter;stroke-miterlimit:10;stroke-opacity:1;stroke-dasharray:none"
       id="path188" />
    <path
       inkscape:connector-curvature="0"
       d="m 382.5,644.86218 0,-15 -15,0 0,15 15,0 z m 0,-15 z"
       style="fill:#f3f587;fill-opacity:1;fill-rule:evenodd;stroke:#000000;stroke-width:0.90000004;stroke-linecap:round;stroke-linejoin:miter;stroke-miterlimit:10;stroke-opacity:1;stroke-dasharray:none"
       id="path190" />
    <path
       inkscape:connector-curvature="0"
       d="m 360,667.36218 0,-15 -15,0 0,15 15,0 z m 0,-15 z"
       style="fill:#f3f587;fill-opacity:1;fill-rule:evenodd;stroke:#000000;stroke-width:0.90000004;stroke-linecap:round;stroke-linejoin:miter;stroke-miterlimit:10;stroke-opacity:1;stroke-dasharray:none"
       id="path192" />
    <path
       inkscape:connector-curvature="0"
       d="m 382.5,667.36218 0,-15 -15,0 0,15 15,0 z m 0,-15 z"
       style="fill:#f3f587;fill-opacity:1;fill-rule:evenodd;stroke:#000000;stroke-width:0.90000004;stroke-linecap:round;stroke-linejoin:miter;stroke-miterlimit:10;stroke-opacity:1;stroke-dasharray:none"
       id="path194" />
    <path
       inkscape:connector-curvature="0"
       d="m 450,674.86218 0,-52.5 -52.5,0 0,52.5 52.5,0 z m 0,-52.5 z"
       style="fill:#a3c8ec;fill-opacity:1;fill-rule:evenodd;stroke:#000000;stroke-width:0.90000004;stroke-linecap:round;stroke-linejoin:miter;stroke-miterlimit:10;stroke-opacity:1;stroke-dasharray:none"
       id="path196" />
    <path
       inkscape:connector-curvature="0"
       d="m 420,644.86218 0,-15 -15,0 0,15 15,0 z m 0,-15 z"
       style="fill:#f3f587;fill-opacity:1;fill-rule:evenodd;stroke:#000000;stroke-width:0.90000004;stroke-linecap:round;stroke-linejoin:miter;stroke-miterlimit:10;stroke-opacity:1;stroke-dasharray:none"
       id="path198" />
    <path
       inkscape:connector-curvature="0"
       d="m 442.5,644.86218 0,-15 -15,0 0,15 15,0 z m 0,-15 z"
       style="fill:#f3f587;fill-opacity:1;fill-rule:evenodd;stroke:#000000;stroke-width:0.90000004;stroke-linecap:round;stroke-linejoin:miter;stroke-miterlimit:10;stroke-opacity:1;stroke-dasharray:none"
       id="path200" />
    <path
       inkscape:connector-curvature="0"
       d="m 420,667.36218 0,-15 -15,0 0,15 15,0 z m 0,-15 z"
       style="fill:#f3f587;fill-opacity:1;fill-rule:evenodd;stroke:#000000;stroke-width:0.90000004;stroke-linecap:round;stroke-linejoin:miter;stroke-miterlimit:10;stroke-opacity:1;stroke-dasharray:none"
       id="path202" />
    <path
       inkscape:connector-curvature="0"
       d="m 442.5,667.36218 0,-15 -15,0 0,15 15,0 z m 0,-15 z"
       style="fill:#f3f587;fill-opacity:1;fill-rule:evenodd;stroke:#000000;stroke-width:0.90000004;stroke-linecap:round;stroke-linejoin:miter;stroke-miterlimit:10;stroke-opacity:1;stroke-dasharray:none"
       id="path204" />
    <path
       inkscape:connector-curvature="0"
       d="m 307.8,509.86218 -0.225,34.575"
       style="fill:none;stroke:#000000;stroke-width:3.75;stroke-linecap:butt;stroke-linejoin:round;stroke-miterlimit:10;stroke-opacity:1;stroke-dasharray:none"
       id="path206" />
    <path
       inkscape:connector-curvature="0"
       d="m 299.175,544.21218 8.325,16.95 8.55,-16.875"
       style="fill:#000000;fill-opacity:1;fill-rule:evenodd;stroke:none"
       id="path208" />
    <path
       inkscape:connector-curvature="0"
       d="m 75.3,382.36218 -0.225,34.575"
       style="fill:none;stroke:#000000;stroke-width:3.75;stroke-linecap:butt;stroke-linejoin:round;stroke-miterlimit:10;stroke-opacity:1;stroke-dasharray:none"
       id="path210" />
    <path
       inkscape:connector-curvature="0"
       d="m 66.675,416.71218 8.325,16.95 8.55,-16.875"
       style="fill:#000000;fill-opacity:1;fill-rule:evenodd;stroke:none"
       id="path212" />
    <text
       style="font-size:15px"
       y="742.96216"
       x="9.0750017"
       id="text214">
      <tspan
         style="font-size:35.02500153px;font-variant:normal;font-weight:normal;font-stretch:normal;writing-mode:lr-tb;fill:#000000;fill-opacity:1;fill-rule:nonzero;stroke:none;font-family:Times New Roman;-inkscape-font-specification:TimesNewRomanPSMT"
         x="9.0750017 34.328022 51.8055 67.321587 84.799057 108.1257 138.28223 161.60887 179.08635 196.56383 206.26573 221.78185 239.25932"
         y="742.96216"
         sodipodi:role="line"
         id="tspan216">OpenCLContext</tspan>
    </text>
  </g>
</svg>
