<?xml version="1.0" encoding="utf-8"?>
<svg viewBox="0 0 153 124" width="153pt" height="124pt" xmlns="http://www.w3.org/2000/svg">
  <defs>
    <linearGradient id="gradient-1" gradientUnits="userSpaceOnUse" x1="22" y1="-108.34024047851562" x2="22" y2="-87.6597671508789">
      <stop style="stop-color: rgb(0, 0, 0);" offset="0"/>
      <stop style="stop-color: rgb(0, 0, 0);" offset="1"/>
    </linearGradient>
    <radialGradient id="gradient-2" gradientUnits="userSpaceOnUse" cx="22" cy="-98.00000381469727" r="10.34023666381836">
      <stop style="stop-color: rgb(0, 0, 0);" offset="0"/>
      <stop style="stop-color: rgb(0, 0, 0);" offset="1"/>
    </radialGradient>
  </defs>
  <g id="graph0" class="graph" transform="scale(1 1) rotate(0) translate(4 120)">
    <path d=" M -4 4 C -4 4 -4 -120 -4 -120 C -4 -120 149 -120 149 -120 C 149 -120 149 4 149 4 C 149 4 -4 4 -4 4 Z" style="fill: rgb(255, 255, 255); stroke: none;"/>
    <g id="node1" class="node" transform="matrix(1.0000000000000002, 0, 0, 1.0000000000000002, 7.915088780721035, -0.25532544453938044)">
      <ellipse cx="22" cy="-98" rx="10.34023666" ry="10.34023666" style="fill: rgb(0, 255, 0); stroke: rgb(0, 0, 0);"/>
      <text x="22" y="-94.3" style="white-space: pre; text-anchor: middle; font-family: 'Times New Roman', serif; font-size: 14px;" transform="matrix(1.0000000000000002, 0, 0, 1.0000000000000002, 0, 1.276627222696959)"><tspan>0</tspan></text>
    </g>
    <g id="node2" class="node" transform="matrix(1.0000000000000002, 0, 0, 1.0000000000000002, 7.915088780721035, -0.25532544453938044)">
      <ellipse cx="22" cy="-22" rx="10.08491707" ry="10.08491707" style="fill: rgb(255, 0, 0); stroke: rgb(0, 0, 0);"/>
      <ellipse cx="22" cy="-22" rx="12.80828476" ry="12.80828476" style="fill: none; stroke: rgb(0, 0, 0);"/>
      <text x="22" y="-18.3" style="white-space: pre; text-anchor: middle; font-family: 'Times New Roman', serif; font-size: 14px;" transform="matrix(1.0000000000000002, 0, 0, 1.0000000000000002, 0.25532544453938755, 0.5106508135795593)"><tspan>2</tspan></text>
    </g>
    <g id="edge3" class="edge" transform="matrix(1.0000000000000002, 0, 0, 1.0000000000000002, -16.596153132120765, -2.042603500684095)">
      <path d="M 22 -88.5389 C 22 -81.2247 22 -62.4398 22 -47.3918" style="fill: none; stroke: rgb(0, 0, 0);" transform="matrix(1 0 0 1 24.7666 2.80858)"/>
      <text x="11.5" y="-58.3" style="white-space: pre; text-anchor: middle; font-family: 'Times New Roman', serif; font-size: 14px;" transform="matrix(1.0000000000000002, 0, 0, 1.0000000000000002, 18.89408302307129, 1.0213017861048286)"><tspan>EOF</tspan></text>
      <path d="M 25.2448 -46.7316 C 25.2448 -46.7316 21.7447 -36.7316 21.7447 -36.7316 C 21.7447 -36.7316 18.2448 -46.7317 18.2448 -46.7317 C 18.2448 -46.7317 25.2448 -46.7316 25.2448 -46.7316 Z" style="fill: rgb(0, 0, 0); stroke: rgb(0, 0, 0);" transform="matrix(1 0 0 1 24.7666 2.80858)"/>
      <text x="62.28697967529297" y="-60.80857849121094" style="white-space: pre;"><br xmlns="http://www.w3.org/1999/xhtml" /></text>
    </g>
    <g id="node3" class="node" transform="matrix(1.0000000000000002, 0, 0, 1.0000000000000002, 7.915088780721035, -0.25532544453938044)">
      <ellipse cx="127" cy="-98" rx="10.85089111" ry="10.85089111" style="fill: none; stroke: rgb(0, 0, 0);"/>
      <text x="127" y="-94.3" style="white-space: pre; text-anchor: middle; font-family: 'Times New Roman', serif; font-size: 14px;"><tspan><br xmlns="http://www.w3.org/1999/xhtml" /></tspan></text>
      <text x="127" y="-94.3" style="white-space: pre; text-anchor: middle; font-family: 'Times New Roman', serif; font-size: 14px;" transform="matrix(1.0000000000000002, 0, 0, 1.0000000000000002, 0, 0.7659762958685974)"><tspan>1</tspan></text>
    </g>
    <g id="edge1" class="edge" transform="matrix(1.0000000000000002, 0, 0, 1.0000000000000002, 7.915088780721035, -0.25532544453938044)">
      <path d="M 32.8593 -98 C 48.8125 -98 86.215 -98 104.856 -98" style="fill: none; stroke: rgb(0, 0, 0);"/>
      <path d="M 105.094 -101.5 C 105.094 -101.5 115.094 -98 115.094 -98 C 115.094 -98 105.094 -94.5001 105.094 -94.5001 C 105.094 -94.5001 105.094 -101.5 105.094 -101.5 Z" style="fill: rgb(0, 0, 0); stroke: rgb(0, 0, 0);"/>
      <text x="76.5" y="-101.8" style="white-space: pre; text-anchor: middle; font-family: 'Times New Roman', serif; font-size: 14px;" transform="matrix(1.0000000000000002, 0, 0, 1.0000000000000002, -2.0426035563151075, 2.842170943040401e-14)"><tspan>LBR</tspan></text>
    </g>
    <g id="edge2" class="edge" transform="matrix(1.0000000000000002, 0, 0, 1.0000000000000002, 7.915088780721035, -0.25532544453938044)">
      <path d="M 117.817 -91.1982 C 111.726 -87.5704 95.4288 -80.3271 88.1914 -78.4893 C 75.699 -75.3171 70.1814 -75.4358 58.6808 -78.7447 C 52.7915 -80.4391 46.1541 -84.4787 40.9493 -87.4906" style="fill: none; stroke: rgb(0, 0, 0);" transform=""/>
      <path d="M 38.8353 -84.1239 C 38.8353 -84.1239 31.4682 -91.7382 31.4682 -91.7382 C 31.4682 -91.7382 41.9756 -90.38 41.9756 -90.38 C 41.9407 -90.3102 38.2666 -82.9865 38.8353 -84.1239 Z" style="fill: rgb(0, 0, 0); stroke: rgb(0, 0, 0);" transform="matrix(0.9950440526008605, 0.09943524748086928, -0.09943524748086928, 0.9950440526008605, -7.994251950581862, -4.595066515604657)"/>
      <text x="76.5" y="-82.8" style="white-space: pre; text-anchor: middle; font-family: 'Times New Roman', serif; font-size: 14px;" transform="matrix(1.0000000000000002, 0, 0, 1.0000000000000002, -2.0426035563151075, 2.842170943040401e-14)"><tspan>RBR</tspan></text>
    </g>
  </g>
  <path d="M 31.818 44.8932 Z" style="stroke: rgb(0, 0, 0); fill: none;"/>
</svg>