<?xml version="1.0" encoding="UTF-8" standalone="no"?>
<!DOCTYPE svg PUBLIC "-//W3C//DTD SVG 1.1//EN"
 "http://www.w3.org/Graphics/SVG/1.1/DTD/svg11.dtd">
<!-- Generated by graphviz version 2.38.0 (20140413.2041)
 -->
<!-- Title: AST Pages: 1 -->
<svg width="242pt" height="620pt"
 viewBox="0.00 0.00 242.19 620.00" xmlns="http://www.w3.org/2000/svg" xmlns:xlink="http://www.w3.org/1999/xlink">
<g id="graph0" class="graph" transform="scale(1 1) rotate(0) translate(4 616)">
<title>AST</title>
<polygon fill="white" stroke="none" points="-4,4 -4,-616 238.194,-616 238.194,4 -4,4"/>
<!-- 6 -->
<g id="node1" class="node"><title>6</title>
<polygon fill="none" stroke="black" points="212.597,-612 101.597,-612 101.597,-576 212.597,-576 212.597,-612"/>
<text text-anchor="middle" x="157.097" y="-590.3" font-family="Times New Roman,serif" font-size="14.00">n yard_start_rule</text>
</g>
<!-- 8 -->
<g id="node2" class="node"><title>8</title>
<ellipse fill="none" stroke="black" cx="157.097" cy="-522" rx="35.194" ry="18"/>
<text text-anchor="middle" x="157.097" y="-518.3" font-family="Times New Roman,serif" font-size="14.00">prod 2</text>
</g>
<!-- 6&#45;&gt;8 -->
<g id="edge1" class="edge"><title>6&#45;&gt;8</title>
<path fill="none" stroke="black" stroke-width="2" d="M157.097,-575.697C157.097,-567.983 157.097,-558.712 157.097,-550.112"/>
<polygon fill="black" stroke="black" stroke-width="2" points="160.597,-550.104 157.097,-540.104 153.597,-550.104 160.597,-550.104"/>
</g>
<!-- 5 -->
<g id="node3" class="node"><title>5</title>
<polygon fill="none" stroke="black" points="184.097,-468 130.097,-468 130.097,-432 184.097,-432 184.097,-468"/>
<text text-anchor="middle" x="157.097" y="-446.3" font-family="Times New Roman,serif" font-size="14.00">n s </text>
</g>
<!-- 8&#45;&gt;5 -->
<g id="edge2" class="edge"><title>8&#45;&gt;5</title>
<path fill="none" stroke="black" d="M157.097,-503.697C157.097,-495.983 157.097,-486.712 157.097,-478.112"/>
<polygon fill="black" stroke="black" points="160.597,-478.104 157.097,-468.104 153.597,-478.104 160.597,-478.104"/>
</g>
<!-- 9 -->
<g id="node4" class="node"><title>9</title>
<ellipse fill="none" stroke="black" cx="157.097" cy="-378" rx="35.194" ry="18"/>
<text text-anchor="middle" x="157.097" y="-374.3" font-family="Times New Roman,serif" font-size="14.00">prod 0</text>
</g>
<!-- 5&#45;&gt;9 -->
<g id="edge3" class="edge"><title>5&#45;&gt;9</title>
<path fill="none" stroke="black" stroke-width="2" d="M157.097,-431.697C157.097,-423.983 157.097,-414.712 157.097,-406.112"/>
<polygon fill="black" stroke="black" stroke-width="2" points="160.597,-406.104 157.097,-396.104 153.597,-406.104 160.597,-406.104"/>
</g>
<!-- 4 -->
<g id="node5" class="node"><title>4</title>
<polygon fill="none" stroke="black" points="146.097,-324 92.0969,-324 92.0969,-288 146.097,-288 146.097,-324"/>
<text text-anchor="middle" x="119.097" y="-302.3" font-family="Times New Roman,serif" font-size="14.00">n s</text>
</g>
<!-- 9&#45;&gt;4 -->
<g id="edge4" class="edge"><title>9&#45;&gt;4</title>
<path fill="none" stroke="black" d="M148.091,-360.411C143.726,-352.369 138.376,-342.515 133.466,-333.47"/>
<polygon fill="black" stroke="black" points="136.415,-331.565 128.568,-324.447 130.263,-334.905 136.415,-331.565"/>
</g>
<!-- 2 -->
<g id="node6" class="node"><title>2</title>
<polygon fill="none" stroke="black" points="222.097,-324 168.097,-324 168.097,-288 222.097,-288 222.097,-324"/>
<text text-anchor="middle" x="195.097" y="-302.3" font-family="Times New Roman,serif" font-size="14.00">n s</text>
</g>
<!-- 9&#45;&gt;2 -->
<g id="edge5" class="edge"><title>9&#45;&gt;2</title>
<path fill="none" stroke="black" d="M166.102,-360.411C170.468,-352.369 175.817,-342.515 180.728,-333.47"/>
<polygon fill="black" stroke="black" points="183.931,-334.905 185.626,-324.447 177.779,-331.565 183.931,-334.905"/>
</g>
<!-- 11 -->
<g id="node7" class="node"><title>11</title>
<ellipse fill="none" stroke="black" cx="111.097" cy="-234" rx="35.194" ry="18"/>
<text text-anchor="middle" x="111.097" y="-230.3" font-family="Times New Roman,serif" font-size="14.00">prod 0</text>
</g>
<!-- 4&#45;&gt;11 -->
<g id="edge6" class="edge"><title>4&#45;&gt;11</title>
<path fill="none" stroke="black" stroke-width="2" d="M117.119,-287.697C116.238,-279.983 115.178,-270.712 114.195,-262.112"/>
<polygon fill="black" stroke="black" stroke-width="2" points="117.665,-261.642 113.052,-252.104 110.71,-262.437 117.665,-261.642"/>
</g>
<!-- 13 -->
<g id="node10" class="node"><title>13</title>
<ellipse fill="none" stroke="black" cx="199.097" cy="-234" rx="35.194" ry="18"/>
<text text-anchor="middle" x="199.097" y="-230.3" font-family="Times New Roman,serif" font-size="14.00">prod 1</text>
</g>
<!-- 2&#45;&gt;13 -->
<g id="edge9" class="edge"><title>2&#45;&gt;13</title>
<path fill="none" stroke="black" stroke-width="2" d="M196.086,-287.697C196.526,-279.983 197.056,-270.712 197.548,-262.112"/>
<polygon fill="black" stroke="black" stroke-width="2" points="201.043,-262.288 198.119,-252.104 194.055,-261.888 201.043,-262.288"/>
</g>
<!-- 0 -->
<g id="node8" class="node"><title>0</title>
<polygon fill="none" stroke="black" points="66.0969,-180 12.0969,-180 12.0969,-144 66.0969,-144 66.0969,-180"/>
<text text-anchor="middle" x="39.0969" y="-158.3" font-family="Times New Roman,serif" font-size="14.00">n s</text>
</g>
<!-- 11&#45;&gt;0 -->
<g id="edge7" class="edge"><title>11&#45;&gt;0</title>
<path fill="none" stroke="black" d="M95.474,-217.811C86.2884,-208.881 74.4638,-197.384 64.018,-187.229"/>
<polygon fill="black" stroke="black" points="66.3227,-184.588 56.7129,-180.127 61.4431,-189.607 66.3227,-184.588"/>
</g>
<!-- 1 -->
<g id="node9" class="node"><title>1</title>
<polygon fill="none" stroke="black" points="146.097,-180 92.0969,-180 92.0969,-144 146.097,-144 146.097,-180"/>
<text text-anchor="middle" x="119.097" y="-158.3" font-family="Times New Roman,serif" font-size="14.00">n s</text>
</g>
<!-- 11&#45;&gt;1 -->
<g id="edge8" class="edge"><title>11&#45;&gt;1</title>
<path fill="none" stroke="black" d="M113.074,-215.697C113.956,-207.983 115.015,-198.712 115.998,-190.112"/>
<polygon fill="black" stroke="black" points="119.484,-190.437 117.142,-180.104 112.529,-189.642 119.484,-190.437"/>
</g>
<!-- 17 -->
<g id="node14" class="node"><title>17</title>
<ellipse fill="none" stroke="black" cx="35.0969" cy="-90" rx="35.194" ry="18"/>
<text text-anchor="middle" x="35.0969" y="-86.3" font-family="Times New Roman,serif" font-size="14.00">prod 1</text>
</g>
<!-- 0&#45;&gt;17 -->
<g id="edge13" class="edge"><title>0&#45;&gt;17</title>
<path fill="none" stroke="black" stroke-width="2" d="M38.1081,-143.697C37.6673,-135.983 37.1376,-126.712 36.6462,-118.112"/>
<polygon fill="black" stroke="black" stroke-width="2" points="40.1392,-117.888 36.0743,-108.104 33.1506,-118.288 40.1392,-117.888"/>
</g>
<!-- 15 -->
<g id="node12" class="node"><title>15</title>
<ellipse fill="none" stroke="black" cx="123.097" cy="-90" rx="35.194" ry="18"/>
<text text-anchor="middle" x="123.097" y="-86.3" font-family="Times New Roman,serif" font-size="14.00">prod 1</text>
</g>
<!-- 1&#45;&gt;15 -->
<g id="edge11" class="edge"><title>1&#45;&gt;15</title>
<path fill="none" stroke="black" stroke-width="2" d="M120.086,-143.697C120.526,-135.983 121.056,-126.712 121.548,-118.112"/>
<polygon fill="black" stroke="black" stroke-width="2" points="125.043,-118.288 122.119,-108.104 118.055,-117.888 125.043,-118.288"/>
</g>
<!-- 14 -->
<g id="node11" class="node"><title>14</title>
<polygon fill="none" stroke="black" points="226.097,-180 172.097,-180 172.097,-144 226.097,-144 226.097,-180"/>
<text text-anchor="middle" x="199.097" y="-158.3" font-family="Times New Roman,serif" font-size="14.00">t B</text>
</g>
<!-- 13&#45;&gt;14 -->
<g id="edge10" class="edge"><title>13&#45;&gt;14</title>
<path fill="none" stroke="black" d="M199.097,-215.697C199.097,-207.983 199.097,-198.712 199.097,-190.112"/>
<polygon fill="black" stroke="black" points="202.597,-190.104 199.097,-180.104 195.597,-190.104 202.597,-190.104"/>
</g>
<!-- 16 -->
<g id="node13" class="node"><title>16</title>
<polygon fill="none" stroke="black" points="150.097,-36 96.0969,-36 96.0969,-0 150.097,-0 150.097,-36"/>
<text text-anchor="middle" x="123.097" y="-14.3" font-family="Times New Roman,serif" font-size="14.00">t B</text>
</g>
<!-- 15&#45;&gt;16 -->
<g id="edge12" class="edge"><title>15&#45;&gt;16</title>
<path fill="none" stroke="black" d="M123.097,-71.6966C123.097,-63.9827 123.097,-54.7125 123.097,-46.1124"/>
<polygon fill="black" stroke="black" points="126.597,-46.1043 123.097,-36.1043 119.597,-46.1044 126.597,-46.1043"/>
</g>
<!-- 18 -->
<g id="node15" class="node"><title>18</title>
<polygon fill="none" stroke="black" points="62.0969,-36 8.09689,-36 8.09689,-0 62.0969,-0 62.0969,-36"/>
<text text-anchor="middle" x="35.0969" y="-14.3" font-family="Times New Roman,serif" font-size="14.00">t B</text>
</g>
<!-- 17&#45;&gt;18 -->
<g id="edge14" class="edge"><title>17&#45;&gt;18</title>
<path fill="none" stroke="black" d="M35.0969,-71.6966C35.0969,-63.9827 35.0969,-54.7125 35.0969,-46.1124"/>
<polygon fill="black" stroke="black" points="38.597,-46.1043 35.0969,-36.1043 31.597,-46.1044 38.597,-46.1043"/>
</g>
</g>
</svg>
