<?xml version="1.0" encoding="UTF-8" standalone="no"?>
<!DOCTYPE svg PUBLIC "-//W3C//DTD SVG 1.1//EN"
 "http://www.w3.org/Graphics/SVG/1.1/DTD/svg11.dtd">
<!-- Generated by graphviz version 2.38.0 (20140413.2041)
 -->
<!-- Title: AST Pages: 1 -->
<svg width="242pt" height="620pt"
 viewBox="0.00 0.00 242.19 620.00" xmlns="http://www.w3.org/2000/svg" xmlns:xlink="http://www.w3.org/1999/xlink">
<g id="graph0" class="graph" transform="scale(1 1) rotate(0) translate(4 616)">
<title>AST</title>
<polygon fill="white" stroke="none" points="-4,4 -4,-616 238.194,-616 238.194,4 -4,4"/>
<!-- 6 -->
<g id="node1" class="node"><title>6</title>
<polygon fill="none" stroke="black" points="136.597,-612 25.5969,-612 25.5969,-576 136.597,-576 136.597,-612"/>
<text text-anchor="middle" x="81.0969" y="-590.3" font-family="Times New Roman,serif" font-size="14.00">n yard_start_rule</text>
</g>
<!-- 8 -->
<g id="node2" class="node"><title>8</title>
<ellipse fill="none" stroke="black" cx="81.0969" cy="-522" rx="35.194" ry="18"/>
<text text-anchor="middle" x="81.0969" y="-518.3" font-family="Times New Roman,serif" font-size="14.00">prod 2</text>
</g>
<!-- 6&#45;&gt;8 -->
<g id="edge1" class="edge"><title>6&#45;&gt;8</title>
<path fill="none" stroke="black" stroke-width="2" d="M81.0969,-575.697C81.0969,-567.983 81.0969,-558.712 81.0969,-550.112"/>
<polygon fill="black" stroke="black" stroke-width="2" points="84.597,-550.104 81.0969,-540.104 77.597,-550.104 84.597,-550.104"/>
</g>
<!-- 5 -->
<g id="node3" class="node"><title>5</title>
<polygon fill="none" stroke="black" points="108.097,-468 54.0969,-468 54.0969,-432 108.097,-432 108.097,-468"/>
<text text-anchor="middle" x="81.0969" y="-446.3" font-family="Times New Roman,serif" font-size="14.00">n s </text>
</g>
<!-- 8&#45;&gt;5 -->
<g id="edge2" class="edge"><title>8&#45;&gt;5</title>
<path fill="none" stroke="black" d="M81.0969,-503.697C81.0969,-495.983 81.0969,-486.712 81.0969,-478.112"/>
<polygon fill="black" stroke="black" points="84.597,-478.104 81.0969,-468.104 77.597,-478.104 84.597,-478.104"/>
</g>
<!-- 9 -->
<g id="node4" class="node"><title>9</title>
<ellipse fill="none" stroke="black" cx="81.0969" cy="-378" rx="35.194" ry="18"/>
<text text-anchor="middle" x="81.0969" y="-374.3" font-family="Times New Roman,serif" font-size="14.00">prod 0</text>
</g>
<!-- 5&#45;&gt;9 -->
<g id="edge3" class="edge"><title>5&#45;&gt;9</title>
<path fill="none" stroke="black" stroke-width="2" d="M81.0969,-431.697C81.0969,-423.983 81.0969,-414.712 81.0969,-406.112"/>
<polygon fill="black" stroke="black" stroke-width="2" points="84.597,-406.104 81.0969,-396.104 77.597,-406.104 84.597,-406.104"/>
</g>
<!-- 2 -->
<g id="node5" class="node"><title>2</title>
<polygon fill="none" stroke="black" points="70.0969,-324 16.0969,-324 16.0969,-288 70.0969,-288 70.0969,-324"/>
<text text-anchor="middle" x="43.0969" y="-302.3" font-family="Times New Roman,serif" font-size="14.00">n s</text>
</g>
<!-- 9&#45;&gt;2 -->
<g id="edge4" class="edge"><title>9&#45;&gt;2</title>
<path fill="none" stroke="black" d="M72.0914,-360.411C67.7259,-352.369 62.3764,-342.515 57.4662,-333.47"/>
<polygon fill="black" stroke="black" points="60.415,-331.565 52.568,-324.447 54.263,-334.905 60.415,-331.565"/>
</g>
<!-- 4 -->
<g id="node6" class="node"><title>4</title>
<polygon fill="none" stroke="black" points="146.097,-324 92.0969,-324 92.0969,-288 146.097,-288 146.097,-324"/>
<text text-anchor="middle" x="119.097" y="-302.3" font-family="Times New Roman,serif" font-size="14.00">n s</text>
</g>
<!-- 9&#45;&gt;4 -->
<g id="edge5" class="edge"><title>9&#45;&gt;4</title>
<path fill="none" stroke="black" d="M90.1024,-360.411C94.4678,-352.369 99.8174,-342.515 104.728,-333.47"/>
<polygon fill="black" stroke="black" points="107.931,-334.905 109.626,-324.447 101.779,-331.565 107.931,-334.905"/>
</g>
<!-- 13 -->
<g id="node10" class="node"><title>13</title>
<ellipse fill="none" stroke="black" cx="35.0969" cy="-234" rx="35.194" ry="18"/>
<text text-anchor="middle" x="35.0969" y="-230.3" font-family="Times New Roman,serif" font-size="14.00">prod 1</text>
</g>
<!-- 2&#45;&gt;13 -->
<g id="edge9" class="edge"><title>2&#45;&gt;13</title>
<path fill="none" stroke="black" stroke-width="2" d="M41.1194,-287.697C40.2378,-279.983 39.1783,-270.712 38.1954,-262.112"/>
<polygon fill="black" stroke="black" stroke-width="2" points="41.6646,-261.642 37.0517,-252.104 34.7099,-262.437 41.6646,-261.642"/>
</g>
<!-- 11 -->
<g id="node7" class="node"><title>11</title>
<ellipse fill="none" stroke="black" cx="123.097" cy="-234" rx="35.194" ry="18"/>
<text text-anchor="middle" x="123.097" y="-230.3" font-family="Times New Roman,serif" font-size="14.00">prod 0</text>
</g>
<!-- 4&#45;&gt;11 -->
<g id="edge6" class="edge"><title>4&#45;&gt;11</title>
<path fill="none" stroke="black" stroke-width="2" d="M120.086,-287.697C120.526,-279.983 121.056,-270.712 121.548,-262.112"/>
<polygon fill="black" stroke="black" stroke-width="2" points="125.043,-262.288 122.119,-252.104 118.055,-261.888 125.043,-262.288"/>
</g>
<!-- 0 -->
<g id="node8" class="node"><title>0</title>
<polygon fill="none" stroke="black" points="142.097,-180 88.0969,-180 88.0969,-144 142.097,-144 142.097,-180"/>
<text text-anchor="middle" x="115.097" y="-158.3" font-family="Times New Roman,serif" font-size="14.00">n s</text>
</g>
<!-- 11&#45;&gt;0 -->
<g id="edge7" class="edge"><title>11&#45;&gt;0</title>
<path fill="none" stroke="black" d="M121.119,-215.697C120.238,-207.983 119.178,-198.712 118.195,-190.112"/>
<polygon fill="black" stroke="black" points="121.665,-189.642 117.052,-180.104 114.71,-190.437 121.665,-189.642"/>
</g>
<!-- 1 -->
<g id="node9" class="node"><title>1</title>
<polygon fill="none" stroke="black" points="218.097,-180 164.097,-180 164.097,-144 218.097,-144 218.097,-180"/>
<text text-anchor="middle" x="191.097" y="-158.3" font-family="Times New Roman,serif" font-size="14.00">n s</text>
</g>
<!-- 11&#45;&gt;1 -->
<g id="edge8" class="edge"><title>11&#45;&gt;1</title>
<path fill="none" stroke="black" d="M138.188,-217.465C146.669,-208.734 157.452,-197.635 167.067,-187.737"/>
<polygon fill="black" stroke="black" points="169.678,-190.072 174.135,-180.461 164.657,-185.195 169.678,-190.072"/>
</g>
<!-- 17 -->
<g id="node14" class="node"><title>17</title>
<ellipse fill="none" stroke="black" cx="111.097" cy="-90" rx="35.194" ry="18"/>
<text text-anchor="middle" x="111.097" y="-86.3" font-family="Times New Roman,serif" font-size="14.00">prod 1</text>
</g>
<!-- 0&#45;&gt;17 -->
<g id="edge13" class="edge"><title>0&#45;&gt;17</title>
<path fill="none" stroke="black" stroke-width="2" d="M114.108,-143.697C113.667,-135.983 113.138,-126.712 112.646,-118.112"/>
<polygon fill="black" stroke="black" stroke-width="2" points="116.139,-117.888 112.074,-108.104 109.151,-118.288 116.139,-117.888"/>
</g>
<!-- 15 -->
<g id="node12" class="node"><title>15</title>
<ellipse fill="none" stroke="black" cx="199.097" cy="-90" rx="35.194" ry="18"/>
<text text-anchor="middle" x="199.097" y="-86.3" font-family="Times New Roman,serif" font-size="14.00">prod 1</text>
</g>
<!-- 1&#45;&gt;15 -->
<g id="edge11" class="edge"><title>1&#45;&gt;15</title>
<path fill="none" stroke="black" stroke-width="2" d="M193.074,-143.697C193.956,-135.983 195.015,-126.712 195.998,-118.112"/>
<polygon fill="black" stroke="black" stroke-width="2" points="199.484,-118.437 197.142,-108.104 192.529,-117.642 199.484,-118.437"/>
</g>
<!-- 14 -->
<g id="node11" class="node"><title>14</title>
<polygon fill="none" stroke="black" points="62.0969,-180 8.09689,-180 8.09689,-144 62.0969,-144 62.0969,-180"/>
<text text-anchor="middle" x="35.0969" y="-158.3" font-family="Times New Roman,serif" font-size="14.00">t B</text>
</g>
<!-- 13&#45;&gt;14 -->
<g id="edge10" class="edge"><title>13&#45;&gt;14</title>
<path fill="none" stroke="black" d="M35.0969,-215.697C35.0969,-207.983 35.0969,-198.712 35.0969,-190.112"/>
<polygon fill="black" stroke="black" points="38.597,-190.104 35.0969,-180.104 31.597,-190.104 38.597,-190.104"/>
</g>
<!-- 16 -->
<g id="node13" class="node"><title>16</title>
<polygon fill="none" stroke="black" points="226.097,-36 172.097,-36 172.097,-0 226.097,-0 226.097,-36"/>
<text text-anchor="middle" x="199.097" y="-14.3" font-family="Times New Roman,serif" font-size="14.00">t B</text>
</g>
<!-- 15&#45;&gt;16 -->
<g id="edge12" class="edge"><title>15&#45;&gt;16</title>
<path fill="none" stroke="black" d="M199.097,-71.6966C199.097,-63.9827 199.097,-54.7125 199.097,-46.1124"/>
<polygon fill="black" stroke="black" points="202.597,-46.1043 199.097,-36.1043 195.597,-46.1044 202.597,-46.1043"/>
</g>
<!-- 18 -->
<g id="node15" class="node"><title>18</title>
<polygon fill="none" stroke="black" points="138.097,-36 84.0969,-36 84.0969,-0 138.097,-0 138.097,-36"/>
<text text-anchor="middle" x="111.097" y="-14.3" font-family="Times New Roman,serif" font-size="14.00">t B</text>
</g>
<!-- 17&#45;&gt;18 -->
<g id="edge14" class="edge"><title>17&#45;&gt;18</title>
<path fill="none" stroke="black" d="M111.097,-71.6966C111.097,-63.9827 111.097,-54.7125 111.097,-46.1124"/>
<polygon fill="black" stroke="black" points="114.597,-46.1043 111.097,-36.1043 107.597,-46.1044 114.597,-46.1043"/>
</g>
</g>
</svg>
