<?xml version="1.0" encoding="UTF-8" standalone="no"?>
<!DOCTYPE svg PUBLIC "-//W3C//DTD SVG 1.1//EN"
 "http://www.w3.org/Graphics/SVG/1.1/DTD/svg11.dtd">
<!-- Generated by graphviz version 2.36.0 (20140111.2315)
 -->
<!-- Title: GSS Pages: 1 -->
<svg width="412pt" height="296pt"
 viewBox="0.00 0.00 412.00 296.00" xmlns="http://www.w3.org/2000/svg" xmlns:xlink="http://www.w3.org/1999/xlink">
<g id="graph0" class="graph" transform="scale(1 1) rotate(0) translate(4 292)">
<title>GSS</title>
<polygon fill="white" stroke="none" points="-4,4 -4,-292 408,-292 408,4 -4,4"/>
<!-- 0 -->
<g id="node1" class="node"><title>0</title>
<ellipse fill="none" stroke="black" cx="58" cy="-18" rx="57.6901" ry="18"/>
<text text-anchor="middle" x="58" y="-14.3" font-family="Times,serif" font-size="14.00">dummy node</text>
</g>
<!-- 1 -->
<g id="node2" class="node"><title>1</title>
<ellipse fill="none" stroke="black" cx="58" cy="-90" rx="42.4939" ry="18"/>
<text text-anchor="middle" x="58" y="-86.3" font-family="Times,serif" font-size="14.00">RStart, 0</text>
</g>
<!-- 1&#45;&gt;0 -->
<g id="edge1" class="edge"><title>1&#45;&gt;0</title>
<path fill="none" stroke="black" d="M58,-71.5867C58,-63.9407 58,-54.8916 58,-46.4274"/>
<polygon fill="black" stroke="black" points="61.5001,-46.1686 58,-36.1686 54.5001,-46.1687 61.5001,-46.1686"/>
<text text-anchor="middle" x="68.5" y="-50.3" font-family="Times,serif" font-size="14.00">null</text>
</g>
<!-- 2 -->
<g id="node3" class="node"><title>2</title>
<ellipse fill="none" stroke="black" cx="58" cy="-193" rx="35.194" ry="18"/>
<text text-anchor="middle" x="58" y="-189.3" font-family="Times,serif" font-size="14.00">RS1, 0</text>
</g>
<!-- 2&#45;&gt;1 -->
<g id="edge2" class="edge"><title>2&#45;&gt;1</title>
<path fill="none" stroke="black" d="M58,-174.745C58,-159.194 58,-136.581 58,-118.624"/>
<polygon fill="black" stroke="black" points="61.5001,-118.414 58,-108.414 54.5001,-118.414 61.5001,-118.414"/>
<text text-anchor="middle" x="68.5" y="-137.8" font-family="Times,serif" font-size="14.00">null</text>
</g>
<!-- 2&#45;&gt;2 -->
<g id="edge3" class="edge"><title>2&#45;&gt;2</title>
<path fill="none" stroke="black" d="M74.3814,-209.29C78.3316,-219.389 72.8711,-229 58,-229 48.4732,-229 42.8085,-225.056 41.006,-219.566"/>
<polygon fill="black" stroke="black" points="44.5172,-219.481 41.6186,-209.29 37.5296,-219.064 44.5172,-219.481"/>
<text text-anchor="middle" x="58" y="-232.8" font-family="Times,serif" font-size="14.00">null</text>
</g>
<!-- 3 -->
<g id="node4" class="node"><title>3</title>
<ellipse fill="none" stroke="black" cx="225" cy="-35" rx="35.194" ry="18"/>
<text text-anchor="middle" x="225" y="-31.3" font-family="Times,serif" font-size="14.00">RS2, 1</text>
</g>
<!-- 3&#45;&gt;1 -->
<g id="edge4" class="edge"><title>3&#45;&gt;1</title>
<path fill="none" stroke="black" d="M195.259,-44.5803C169.295,-53.2351 130.747,-66.0843 101.271,-75.9096"/>
<polygon fill="black" stroke="black" points="100.034,-72.6326 91.6541,-79.1153 102.248,-79.2733 100.034,-72.6326"/>
<text text-anchor="middle" x="153" y="-68.8" font-family="Times,serif" font-size="14.00">b(0, 1)</text>
</g>
<!-- 3&#45;&gt;2 -->
<g id="edge5" class="edge"><title>3&#45;&gt;2</title>
<path fill="none" stroke="black" d="M207.576,-50.7273C178.296,-78.7649 116.971,-137.488 82.9761,-170.041"/>
<polygon fill="black" stroke="black" points="80.1596,-167.892 75.3576,-177.336 85.001,-172.948 80.1596,-167.892"/>
<text text-anchor="middle" x="153" y="-121.8" font-family="Times,serif" font-size="14.00">b(0,1)</text>
</g>
<!-- 4 -->
<g id="node5" class="node"><title>4</title>
<ellipse fill="none" stroke="black" cx="225" cy="-107" rx="35.194" ry="18"/>
<text text-anchor="middle" x="225" y="-103.3" font-family="Times,serif" font-size="14.00">RS1, 1</text>
</g>
<!-- 4&#45;&gt;3 -->
<g id="edge6" class="edge"><title>4&#45;&gt;3</title>
<path fill="none" stroke="black" d="M225,-88.5867C225,-80.9407 225,-71.8916 225,-63.4274"/>
<polygon fill="black" stroke="black" points="228.5,-63.1686 225,-53.1686 221.5,-63.1687 228.5,-63.1686"/>
<text text-anchor="middle" x="235.5" y="-67.3" font-family="Times,serif" font-size="14.00">null</text>
</g>
<!-- 4&#45;&gt;4 -->
<g id="edge7" class="edge"><title>4&#45;&gt;4</title>
<path fill="none" stroke="black" d="M237.758,-124.037C240.362,-133.858 236.109,-143 225,-143 218.057,-143 213.792,-139.429 212.205,-134.353"/>
<polygon fill="black" stroke="black" points="215.706,-134.05 212.242,-124.037 208.706,-134.025 215.706,-134.05"/>
<text text-anchor="middle" x="225" y="-146.8" font-family="Times,serif" font-size="14.00">null</text>
</g>
<!-- 5 -->
<g id="node6" class="node"><title>5</title>
<ellipse fill="none" stroke="black" cx="369" cy="-165" rx="35.194" ry="18"/>
<text text-anchor="middle" x="369" y="-161.3" font-family="Times,serif" font-size="14.00">RS2, 2</text>
</g>
<!-- 5&#45;&gt;1 -->
<g id="edge8" class="edge"><title>5&#45;&gt;1</title>
<path fill="none" stroke="black" d="M335.264,-170.284C299.107,-174.994 239.459,-179.413 190,-167 150.69,-157.134 111.382,-131.378 86.2309,-112.357"/>
<polygon fill="black" stroke="black" points="88.3166,-109.546 78.2647,-106.197 84.0348,-115.083 88.3166,-109.546"/>
<text text-anchor="middle" x="225" y="-178.8" font-family="Times,serif" font-size="14.00">b(1, 2)</text>
</g>
<!-- 5&#45;&gt;2 -->
<g id="edge9" class="edge"><title>5&#45;&gt;2</title>
<path fill="none" stroke="black" d="M353.285,-181.355C343.68,-190.872 330.302,-202.121 316,-208 243.529,-237.789 149.791,-219.744 97.9006,-205.409"/>
<polygon fill="black" stroke="black" points="98.6761,-201.99 88.0992,-202.607 96.7518,-208.721 98.6761,-201.99"/>
<text text-anchor="middle" x="225" y="-227.8" font-family="Times,serif" font-size="14.00">b(1, 2)</text>
</g>
<!-- 5&#45;&gt;3 -->
<g id="edge10" class="edge"><title>5&#45;&gt;3</title>
<path fill="none" stroke="black" d="M353.466,-148.629C343.296,-137.427 329.218,-122.415 316,-110 295.687,-90.9211 271.337,-70.7806 253.089,-56.1802"/>
<polygon fill="black" stroke="black" points="255.177,-53.3687 245.171,-49.8854 250.821,-58.8482 255.177,-53.3687"/>
<text text-anchor="middle" x="297" y="-113.8" font-family="Times,serif" font-size="14.00">b(1, 2)</text>
</g>
<!-- 5&#45;&gt;4 -->
<g id="edge11" class="edge"><title>5&#45;&gt;4</title>
<path fill="none" stroke="black" d="M340.957,-153.954C318.65,-144.843 286.801,-131.834 262.281,-121.819"/>
<polygon fill="black" stroke="black" points="263.524,-118.546 252.943,-118.005 260.877,-125.026 263.524,-118.546"/>
<text text-anchor="middle" x="297" y="-145.8" font-family="Times,serif" font-size="14.00">b(1, 2)</text>
</g>
<!-- 6 -->
<g id="node7" class="node"><title>6</title>
<ellipse fill="none" stroke="black" cx="369" cy="-237" rx="35.194" ry="18"/>
<text text-anchor="middle" x="369" y="-233.3" font-family="Times,serif" font-size="14.00">RS1, 2</text>
</g>
<!-- 6&#45;&gt;5 -->
<g id="edge12" class="edge"><title>6&#45;&gt;5</title>
<path fill="none" stroke="black" d="M369,-218.587C369,-210.941 369,-201.892 369,-193.427"/>
<polygon fill="black" stroke="black" points="372.5,-193.169 369,-183.169 365.5,-193.169 372.5,-193.169"/>
<text text-anchor="middle" x="379.5" y="-197.3" font-family="Times,serif" font-size="14.00">null</text>
</g>
<!-- 6&#45;&gt;6 -->
<g id="edge13" class="edge"><title>6&#45;&gt;6</title>
<path fill="none" stroke="black" d="M381.758,-254.037C384.362,-263.858 380.109,-273 369,-273 362.057,-273 357.792,-269.429 356.205,-264.353"/>
<polygon fill="black" stroke="black" points="359.706,-264.05 356.242,-254.037 352.706,-264.025 359.706,-264.05"/>
<text text-anchor="middle" x="369" y="-276.8" font-family="Times,serif" font-size="14.00">null</text>
</g>
</g>
</svg>
