<?xml version="1.0" encoding="UTF-8" standalone="no"?>
<!DOCTYPE svg PUBLIC "-//W3C//DTD SVG 1.1//EN"
 "http://www.w3.org/Graphics/SVG/1.1/DTD/svg11.dtd">
<!-- Generated by graphviz version 2.38.0 (20140413.2041)
 -->
<!-- Title: GSS Pages: 1 -->
<svg width="421pt" height="279pt"
 viewBox="0.00 0.00 420.58 279.00" xmlns="http://www.w3.org/2000/svg" xmlns:xlink="http://www.w3.org/1999/xlink">
<g id="graph0" class="graph" transform="scale(1 1) rotate(0) translate(4 275)">
<title>GSS</title>
<polygon fill="white" stroke="none" points="-4,4 -4,-275 416.577,-275 416.577,4 -4,4"/>
<!-- 0 -->
<g id="node1" class="node"><title>0</title>
<ellipse fill="none" stroke="black" cx="58.4948" cy="-32" rx="58.4896" ry="18"/>
<text text-anchor="middle" x="58.4948" y="-28.3" font-family="Times New Roman,serif" font-size="14.00">dummy node</text>
</g>
<!-- 1 -->
<g id="node2" class="node"><title>1</title>
<ellipse fill="none" stroke="black" cx="58.4948" cy="-104" rx="43.5923" ry="18"/>
<text text-anchor="middle" x="58.4948" y="-100.3" font-family="Times New Roman,serif" font-size="14.00">RStart, 0</text>
</g>
<!-- 1&#45;&gt;0 -->
<g id="edge1" class="edge"><title>1&#45;&gt;0</title>
<path fill="none" stroke="black" d="M58.4948,-85.5867C58.4948,-77.9407 58.4948,-68.8916 58.4948,-60.4274"/>
<polygon fill="black" stroke="black" points="61.9949,-60.1686 58.4948,-50.1686 54.9949,-60.1687 61.9949,-60.1686"/>
<text text-anchor="middle" x="68.9948" y="-64.3" font-family="Times New Roman,serif" font-size="14.00">null</text>
</g>
<!-- 2 -->
<g id="node3" class="node"><title>2</title>
<ellipse fill="none" stroke="black" cx="58.4948" cy="-176" rx="36.2938" ry="18"/>
<text text-anchor="middle" x="58.4948" y="-172.3" font-family="Times New Roman,serif" font-size="14.00">RS1, 0</text>
</g>
<!-- 2&#45;&gt;1 -->
<g id="edge2" class="edge"><title>2&#45;&gt;1</title>
<path fill="none" stroke="black" d="M58.4948,-157.587C58.4948,-149.941 58.4948,-140.892 58.4948,-132.427"/>
<polygon fill="black" stroke="black" points="61.9949,-132.169 58.4948,-122.169 54.9949,-132.169 61.9949,-132.169"/>
<text text-anchor="middle" x="68.9948" y="-136.3" font-family="Times New Roman,serif" font-size="14.00">null</text>
</g>
<!-- 2&#45;&gt;2 -->
<g id="edge3" class="edge"><title>2&#45;&gt;2</title>
<path fill="none" stroke="black" d="M74.8762,-192.29C78.8264,-202.389 73.3659,-212 58.4948,-212 48.968,-212 43.3033,-208.056 41.5008,-202.566"/>
<polygon fill="black" stroke="black" points="45.012,-202.481 42.1134,-192.29 38.0244,-202.064 45.012,-202.481"/>
<text text-anchor="middle" x="58.4948" y="-215.8" font-family="Times New Roman,serif" font-size="14.00">null</text>
</g>
<!-- 3 -->
<g id="node4" class="node"><title>3</title>
<ellipse fill="none" stroke="black" cx="228.386" cy="-18" rx="36.2938" ry="18"/>
<text text-anchor="middle" x="228.386" y="-14.3" font-family="Times New Roman,serif" font-size="14.00">RS2, 1</text>
</g>
<!-- 3&#45;&gt;1 -->
<g id="edge4" class="edge"><title>3&#45;&gt;1</title>
<path fill="none" stroke="black" d="M202.251,-30.8751C173.944,-45.3753 127.705,-69.0602 95.5517,-85.5304"/>
<polygon fill="black" stroke="black" points="93.777,-82.5069 86.4724,-90.1811 96.9684,-88.7371 93.777,-82.5069"/>
<text text-anchor="middle" x="154.49" y="-66.8" font-family="Times New Roman,serif" font-size="14.00">S(0, 1)</text>
</g>
<!-- 3&#45;&gt;2 -->
<g id="edge5" class="edge"><title>3&#45;&gt;2</title>
<path fill="none" stroke="black" d="M214.709,-34.6867C204.31,-47.9948 188.92,-66.8482 173.99,-82 150.542,-105.796 142.817,-109.81 116.99,-131 107.364,-138.897 96.6603,-147.359 87.1231,-154.79"/>
<polygon fill="black" stroke="black" points="84.855,-152.12 79.0986,-161.014 89.1454,-157.651 84.855,-152.12"/>
<text text-anchor="middle" x="154.49" y="-120.8" font-family="Times New Roman,serif" font-size="14.00">S(0,1)</text>
</g>
<!-- 4 -->
<g id="node5" class="node"><title>4</title>
<ellipse fill="none" stroke="black" cx="228.386" cy="-90" rx="36.2938" ry="18"/>
<text text-anchor="middle" x="228.386" y="-86.3" font-family="Times New Roman,serif" font-size="14.00">RS1, 1</text>
</g>
<!-- 4&#45;&gt;3 -->
<g id="edge6" class="edge"><title>4&#45;&gt;3</title>
<path fill="none" stroke="black" d="M228.386,-71.5867C228.386,-63.9407 228.386,-54.8916 228.386,-46.4274"/>
<polygon fill="black" stroke="black" points="231.886,-46.1686 228.386,-36.1686 224.886,-46.1687 231.886,-46.1686"/>
<text text-anchor="middle" x="238.886" y="-50.3" font-family="Times New Roman,serif" font-size="14.00">null</text>
</g>
<!-- 4&#45;&gt;4 -->
<g id="edge7" class="edge"><title>4&#45;&gt;4</title>
<path fill="none" stroke="black" d="M241.145,-107.037C243.749,-116.858 239.496,-126 228.386,-126 221.443,-126 217.178,-122.429 215.591,-117.353"/>
<polygon fill="black" stroke="black" points="219.092,-117.05 215.628,-107.037 212.092,-117.025 219.092,-117.05"/>
<text text-anchor="middle" x="228.386" y="-129.8" font-family="Times New Roman,serif" font-size="14.00">null</text>
</g>
<!-- 5 -->
<g id="node6" class="node"><title>5</title>
<ellipse fill="none" stroke="black" cx="376.18" cy="-148" rx="36.2938" ry="18"/>
<text text-anchor="middle" x="376.18" y="-144.3" font-family="Times New Roman,serif" font-size="14.00">RS2, 2</text>
</g>
<!-- 5&#45;&gt;1 -->
<g id="edge8" class="edge"><title>5&#45;&gt;1</title>
<path fill="none" stroke="black" d="M339.385,-148.813C317.781,-149.262 289.702,-149.774 264.783,-150 232.432,-150.293 224.108,-153.887 191.99,-150 166.092,-146.866 159.744,-144.228 134.99,-136 122.518,-131.855 109.224,-126.538 97.3214,-121.433"/>
<polygon fill="black" stroke="black" points="98.6819,-118.208 88.1171,-117.411 95.8791,-124.622 98.6819,-118.208"/>
<text text-anchor="middle" x="228.386" y="-154.8" font-family="Times New Roman,serif" font-size="14.00">S(1, 2)</text>
</g>
<!-- 5&#45;&gt;2 -->
<g id="edge9" class="edge"><title>5&#45;&gt;2</title>
<path fill="none" stroke="black" d="M359.991,-164.363C350.099,-173.884 336.358,-185.133 321.783,-191 247.652,-220.844 152.133,-202.811 99.2267,-188.456"/>
<polygon fill="black" stroke="black" points="100.119,-185.072 89.5455,-185.74 98.2285,-191.811 100.119,-185.072"/>
<text text-anchor="middle" x="228.386" y="-210.8" font-family="Times New Roman,serif" font-size="14.00">S(1, 2)</text>
</g>
<!-- 5&#45;&gt;3 -->
<g id="edge10" class="edge"><title>5&#45;&gt;3</title>
<path fill="none" stroke="black" d="M360.24,-131.618C349.791,-120.411 335.333,-105.397 321.783,-93 300.898,-73.8909 275.901,-53.7525 257.177,-39.1606"/>
<polygon fill="black" stroke="black" points="259.102,-36.2248 249.052,-32.8701 254.817,-41.7597 259.102,-36.2248"/>
<text text-anchor="middle" x="302.283" y="-96.8" font-family="Times New Roman,serif" font-size="14.00">S(1, 2)</text>
</g>
<!-- 5&#45;&gt;4 -->
<g id="edge11" class="edge"><title>5&#45;&gt;4</title>
<path fill="none" stroke="black" d="M347.414,-136.954C324.658,-127.901 292.228,-115 267.118,-105.011"/>
<polygon fill="black" stroke="black" points="268.131,-101.647 257.545,-101.202 265.543,-108.151 268.131,-101.647"/>
<text text-anchor="middle" x="302.283" y="-128.8" font-family="Times New Roman,serif" font-size="14.00">S(1, 2)</text>
</g>
<!-- 6 -->
<g id="node7" class="node"><title>6</title>
<ellipse fill="none" stroke="black" cx="376.18" cy="-220" rx="36.2938" ry="18"/>
<text text-anchor="middle" x="376.18" y="-216.3" font-family="Times New Roman,serif" font-size="14.00">RS1, 2</text>
</g>
<!-- 6&#45;&gt;5 -->
<g id="edge12" class="edge"><title>6&#45;&gt;5</title>
<path fill="none" stroke="black" d="M376.18,-201.587C376.18,-193.941 376.18,-184.892 376.18,-176.427"/>
<polygon fill="black" stroke="black" points="379.68,-176.169 376.18,-166.169 372.68,-176.169 379.68,-176.169"/>
<text text-anchor="middle" x="386.68" y="-180.3" font-family="Times New Roman,serif" font-size="14.00">null</text>
</g>
<!-- 6&#45;&gt;6 -->
<g id="edge13" class="edge"><title>6&#45;&gt;6</title>
<path fill="none" stroke="black" d="M388.938,-237.037C391.542,-246.858 387.289,-256 376.18,-256 369.237,-256 364.972,-252.429 363.385,-247.353"/>
<polygon fill="black" stroke="black" points="366.886,-247.05 363.422,-237.037 359.886,-247.025 366.886,-247.05"/>
<text text-anchor="middle" x="376.18" y="-259.8" font-family="Times New Roman,serif" font-size="14.00">null</text>
</g>
</g>
</svg>
