<?xml version="1.0" encoding="UTF-8" standalone="no"?>
<!-- Generated by graphviz version 2.38.0 (20140413.2041)
 -->

<!-- Title: GSS Pages: 1 -->

<svg
   xmlns:dc="http://purl.org/dc/elements/1.1/"
   xmlns:cc="http://creativecommons.org/ns#"
   xmlns:rdf="http://www.w3.org/1999/02/22-rdf-syntax-ns#"
   xmlns:svg="http://www.w3.org/2000/svg"
   xmlns="http://www.w3.org/2000/svg"
   xmlns:sodipodi="http://sodipodi.sourceforge.net/DTD/sodipodi-0.dtd"
   xmlns:inkscape="http://www.inkscape.org/namespaces/inkscape"
   width="191pt"
   height="260pt"
   viewBox="0.00 0.00 190.89 260.00"
   id="svg2"
   version="1.1"
   inkscape:version="0.48.5 r10040"
   sodipodi:docname="ris3_result_stack.svg"
   inkscape:export-filename="C:\gsv\projects\articles\TMPA2014\ris3_result_stack.png"
   inkscape:export-xdpi="190"
   inkscape:export-ydpi="190">
  <metadata
     id="metadata104">
    <rdf:RDF>
      <cc:Work
         rdf:about="">
        <dc:format>image/svg+xml</dc:format>
        <dc:type
           rdf:resource="http://purl.org/dc/dcmitype/StillImage" />
        <dc:title></dc:title>
      </cc:Work>
    </rdf:RDF>
  </metadata>
  <defs
     id="defs102" />
  <sodipodi:namedview
     pagecolor="#ffffff"
     bordercolor="#666666"
     borderopacity="1"
     objecttolerance="10"
     gridtolerance="10"
     guidetolerance="10"
     inkscape:pageopacity="0"
     inkscape:pageshadow="2"
     inkscape:window-width="1920"
     inkscape:window-height="1177"
     id="namedview100"
     showgrid="false"
     inkscape:zoom="1.4523077"
     inkscape:cx="78.201805"
     inkscape:cy="103.62711"
     inkscape:window-x="-8"
     inkscape:window-y="-8"
     inkscape:window-maximized="1"
     inkscape:current-layer="g3085" />
  <g
     id="graph0"
     class="graph"
     transform="translate(101.6,256)">
    <title
       id="title5">GSS</title>
    <polygon
       points="-4,-256 186.887,-256 186.887,4 -4,4 -4,4 "
       id="polygon7"
       style="fill:#ffffff;stroke:none" />
    <!-- 0 -->
    <g
       id="node1"
       class="node">
      <title
         id="title10">0</title>
      <ellipse
         cx="37.0467"
         cy="-18"
         rx="37.093498"
         ry="18"
         id="ellipse12"
         d="m 74.140198,-18 c 0,9.9411255 -16.607325,18 -37.093498,18 -20.486174,0 -37.09349871,-8.0588745 -37.09349871,-18 0,-9.941125 16.60732471,-18 37.09349871,-18 20.486173,0 37.093498,8.058875 37.093498,18 z"
         sodipodi:cx="37.0467"
         sodipodi:cy="-18"
         sodipodi:rx="37.093498"
         sodipodi:ry="18"
         style="fill:none;stroke:#000000" />
      <text
         x="37.0467"
         y="-14.3"
         font-size="14.00"
         id="text14"
         style="font-size:14px;text-anchor:middle;font-family:'Times New Roman,serif'">bottom</text>
    </g>
    <!-- 1 -->
    <g
       id="node2"
       class="node">
      <title
         id="title17">1</title>
      <ellipse
         cx="37.0467"
         cy="-72"
         rx="36.2938"
         ry="18"
         id="ellipse19"
         d="m 73.3405,-72 c 0,9.941125 -16.249288,18 -36.2938,18 -20.044513,0 -36.29380083,-8.058875 -36.29380083,-18 0,-9.941125 16.24928783,-18 36.29380083,-18 20.044512,0 36.2938,8.058875 36.2938,18 z"
         sodipodi:cx="37.0467"
         sodipodi:cy="-72"
         sodipodi:rx="36.2938"
         sodipodi:ry="18"
         style="fill:none;stroke:#000000" />
      <text
         x="37.0467"
         y="-68.300003"
         font-size="14.00"
         id="text21"
         style="font-size:14px;text-anchor:middle;font-family:'Times New Roman,serif'">RS0, 0</text>
    </g>
    <!-- 1&#45;&gt;0 -->
    <g
       id="edge1"
       class="edge">
      <title
         id="title24">1-&gt;0</title>
      <path
         d="m 37.0467,-53.7902 c 0,2.482 0,4.964 0,7.4459"
         id="path26"
         inkscape:connector-curvature="0"
         style="fill:none;stroke:#000000" />
      <polygon
         points="37.0467,-36.1406 33.5468,-46.1407 40.5468,-46.1406 40.5468,-46.1406 "
         id="polygon28"
         style="fill:#000000;stroke:#000000" />
    </g>
    <!-- 2 -->
    <g
       id="node3"
       class="node">
      <title
         id="title31">2</title>
      <ellipse
         cx="37.0467"
         cy="-126"
         rx="36.2938"
         ry="18"
         id="ellipse33"
         d="m 73.3405,-126 c 0,9.94113 -16.249288,18 -36.2938,18 -20.044513,0 -36.29380083,-8.05887 -36.29380083,-18 0,-9.94113 16.24928783,-18 36.29380083,-18 20.044512,0 36.2938,8.05887 36.2938,18 z"
         sodipodi:cx="37.0467"
         sodipodi:cy="-126"
         sodipodi:rx="36.2938"
         sodipodi:ry="18"
         style="fill:#b3b3b3;stroke:#000000" />
      <text
         x="37.0467"
         y="-122.3"
         font-size="14.00"
         id="text35"
         style="font-size:14px;text-anchor:middle;font-family:'Times New Roman,serif'">RS1, 0</text>
    </g>
    <!-- 2&#45;&gt;1 -->
    <g
       id="edge2"
       class="edge">
      <title
         id="title38">2-&gt;1</title>
      <path
         d="m 37.0467,-107.79 c 0,2.482 0,4.964 0,7.446"
         id="path40"
         inkscape:connector-curvature="0"
         style="fill:none;stroke:#000000" />
      <polygon
         points="37.0467,-90.1406 33.5468,-100.141 40.5468,-100.141 40.5468,-100.141 "
         id="polygon42"
         style="fill:#000000;stroke:#000000" />
    </g>
    <!-- 3 -->
    <g
       id="node4"
       class="node">
      <title
         id="title45">3</title>
      <ellipse
         cx="37.0467"
         cy="-180"
         rx="36.2938"
         ry="18"
         id="ellipse47"
         d="m 73.3405,-180 c 0,9.94113 -16.249288,18 -36.2938,18 -20.044513,0 -36.29380083,-8.05887 -36.29380083,-18 0,-9.94113 16.24928783,-18 36.29380083,-18 20.044512,0 36.2938,8.05887 36.2938,18 z"
         sodipodi:cx="37.0467"
         sodipodi:cy="-180"
         sodipodi:rx="36.2938"
         sodipodi:ry="18"
         style="fill:none;stroke:#000000" />
      <text
         x="37.0467"
         y="-176.3"
         font-size="14.00"
         id="text49"
         style="font-size:14px;text-anchor:middle;font-family:'Times New Roman,serif'">RS2, 1</text>
    </g>
    <!-- 3&#45;&gt;2 -->
    <g
       id="edge3"
       class="edge">
      <title
         id="title52">3-&gt;2</title>
      <path
         d="m 37.0467,-161.79 c 0,2.482 0,4.964 0,7.446"
         id="path54"
         inkscape:connector-curvature="0"
         style="fill:none;stroke:#000000" />
      <polygon
         points="37.0467,-144.141 33.5468,-154.141 40.5468,-154.141 40.5468,-154.141 "
         id="polygon56"
         style="fill:#000000;stroke:#000000" />
    </g>
    <!-- 4 -->
    <g
       id="node5"
       class="node">
      <title
         id="title59">4</title>
      <ellipse
         cx="146.49001"
         cy="-234"
         rx="36.2938"
         ry="18"
         id="ellipse61"
         d="m 182.78381,-234 c 0,9.94113 -16.24929,18 -36.2938,18 -20.04452,0 -36.2938,-8.05887 -36.2938,-18 0,-9.94113 16.24928,-18 36.2938,-18 20.04451,0 36.2938,8.05887 36.2938,18 z"
         sodipodi:cx="146.49001"
         sodipodi:cy="-234"
         sodipodi:rx="36.2938"
         sodipodi:ry="18"
         style="fill:#b3b3b3;stroke:#000000" />
      <text
         x="146.49001"
         y="-230.3"
         font-size="14.00"
         id="text63"
         style="font-size:14px;text-anchor:middle;font-family:'Times New Roman,serif'">RS1, 1</text>
    </g>
    <!-- 4&#45;&gt;3 -->
    <g
       id="edge4"
       class="edge">
      <title
         id="title66">4-&gt;3</title>
      <path
         d="m 120.299,-221.339 c -14.279,7.176 -32.347,16.257 -47.9096,24.079"
         id="path68"
         inkscape:connector-curvature="0"
         style="fill:none;stroke:#000000" />
      <polygon
         points="63.0796,-192.581 70.4429,-200.199 73.5864,-193.945 73.5864,-193.945 "
         id="polygon70"
         style="fill:#000000;stroke:#000000" />
    </g>
    <!-- 5 -->
    <g
       id="node6"
       class="node">
      <title
         id="title73">5</title>
      <ellipse
         cx="146.49001"
         cy="-126"
         rx="36.2938"
         ry="18"
         id="ellipse75"
         d="m 182.78381,-126 c 0,9.94113 -16.24929,18 -36.2938,18 -20.04452,0 -36.2938,-8.05887 -36.2938,-18 0,-9.94113 16.24928,-18 36.2938,-18 20.04451,0 36.2938,8.05887 36.2938,18 z"
         sodipodi:cx="146.49001"
         sodipodi:cy="-126"
         sodipodi:rx="36.2938"
         sodipodi:ry="18"
         style="fill:none;stroke:#000000" />
      <text
         x="146.49001"
         y="-122.3"
         font-size="14.00"
         id="text77"
         style="font-size:14px;text-anchor:middle;font-family:'Times New Roman,serif'">RS3, 1</text>
    </g>
    <!-- 5&#45;&gt;3 -->
    <g
       id="edge5"
       class="edge">
      <title
         id="title80">5-&gt;3</title>
      <path
         d="M 120.299,-138.661 C 106.02,-145.837 87.952,-154.918 72.3894,-162.74"
         id="path82"
         inkscape:connector-curvature="0"
         style="fill:none;stroke:#000000" />
      <polygon
         points="63.0796,-167.419 73.5864,-166.055 70.4429,-159.801 70.4429,-159.801 "
         id="polygon84"
         style="fill:#000000;stroke:#000000" />
    </g>
    <!-- 6 -->
    <g
       id="node7"
       class="node">
      <title
         id="title87">6</title>
      <ellipse
         cx="146.49001"
         cy="-180"
         rx="36.2938"
         ry="18"
         id="ellipse89"
         d="m 182.78381,-180 c 0,9.94113 -16.24929,18 -36.2938,18 -20.04452,0 -36.2938,-8.05887 -36.2938,-18 0,-9.94113 16.24928,-18 36.2938,-18 20.04451,0 36.2938,8.05887 36.2938,18 z"
         sodipodi:cx="146.49001"
         sodipodi:cy="-180"
         sodipodi:rx="36.2938"
         sodipodi:ry="18"
         style="fill:#b3b3b3;stroke:#000000" />
      <text
         x="146.49001"
         y="-176.3"
         font-size="14.00"
         id="text91"
         style="font-size:14px;text-anchor:middle;font-family:'Times New Roman,serif'">RS1, 2</text>
    </g>
    <!-- 6&#45;&gt;5 -->
    <g
       id="edge6"
       class="edge">
      <title
         id="title94">6-&gt;5</title>
      <path
         d="m 146.49,-161.79 c 0,2.482 0,4.964 0,7.446"
         id="path96"
         inkscape:connector-curvature="0"
         style="fill:none;stroke:#000000" />
      <polygon
         points="146.49,-144.141 142.99,-154.141 149.99,-154.141 149.99,-154.141 "
         id="polygon98"
         style="fill:#000000;stroke:#000000" />
    </g>
  </g>
  <g
     id="g3085"
     transform="matrix(0.8,0,0,0.8,-121.23018,-0.65719018)">
    <path
       id="path3087"
       d="m 102.50787,324.67322 -102.50787,0 0,0 0,-324.63778693 102.50787,0 z"
       style="fill:#ffffff;fill-opacity:1;fill-rule:nonzero;stroke:none"
       inkscape:connector-curvature="0" />
    <path
       id="path3089"
       d="m 97.582677,297.21259 c 0,12.40157 -20.76378,22.46456 -46.346457,22.46456 -25.547244,0 -46.3110232,-10.06299 -46.3110232,-22.46456 0,-12.43701 20.7637792,-22.5 46.3110232,-22.5 25.582677,0 46.346457,10.06299 46.346457,22.5 z"
       style="fill:none;stroke:#000000;stroke-width:1.24015749px;stroke-linecap:butt;stroke-linejoin:miter;stroke-miterlimit:4;stroke-opacity:1;stroke-dasharray:none"
       inkscape:connector-curvature="0" />
    <path
       id="path3091"
       d="m 27.070866,301.81889 -1.417323,0 0,-12.50788 1.559055,0 0,4.46457 c 0.637796,-0.81496 1.452756,-1.20472 2.480315,-1.20472 0.531496,0 1.062992,0.1063 1.559055,0.31889 0.496063,0.2126 0.92126,0.5315 1.240158,0.9567 0.318897,0.38976 0.566929,0.88582 0.744094,1.45275 0.212599,0.60237 0.283465,1.20473 0.283465,1.84252 0,1.55906 -0.389764,2.76378 -1.133858,3.61418 -0.779528,0.85039 -1.700788,1.27559 -2.76378,1.27559 -1.098425,0 -1.913386,-0.46063 -2.551181,-1.34646 z m 0,-4.6063 c 0,1.09842 0.141732,1.87795 0.46063,2.37401 0.46063,0.77953 1.133858,1.1693 1.948819,1.1693 0.673228,0 1.240157,-0.28347 1.73622,-0.8504 0.496063,-0.60236 0.744095,-1.45275 0.744095,-2.62205 0,-1.16929 -0.248032,-2.05511 -0.708662,-2.62204 -0.46063,-0.56693 -1.027559,-0.8504 -1.700787,-0.8504 -0.673228,0 -1.240158,0.28347 -1.736221,0.88583 -0.496062,0.56693 -0.744094,1.41732 -0.744094,2.51575 z"
       style="fill:#000000;fill-opacity:1;fill-rule:nonzero;stroke:none"
       inkscape:connector-curvature="0" />
    <path
       id="path3093"
       d="m 34.830708,297.28345 c 0,-1.66535 0.46063,-2.90551 1.38189,-3.72047 0.779528,-0.67323 1.736221,-0.99212 2.870079,-0.99212 1.240157,0 2.267717,0.38976 3.047244,1.20472 0.779528,0.81496 1.204724,1.94882 1.204724,3.40158 0,1.16929 -0.177165,2.05511 -0.531496,2.72834 -0.35433,0.67323 -0.850393,1.20473 -1.523622,1.55906 -0.673228,0.38976 -1.417322,0.56693 -2.19685,0.56693 -1.275591,0 -2.30315,-0.4252 -3.082677,-1.24016 -0.779528,-0.81496 -1.169292,-1.98425 -1.169292,-3.50788 z m 1.594489,0 c 0,1.1693 0.248031,2.05512 0.744094,2.62205 0.496063,0.56693 1.133858,0.8504 1.913386,0.8504 0.744094,0 1.38189,-0.28347 1.913386,-0.8504 0.496063,-0.60236 0.744094,-1.48819 0.744094,-2.65748 0,-1.13386 -0.248031,-1.98425 -0.744094,-2.55118 -0.531496,-0.56693 -1.169292,-0.88583 -1.913386,-0.88583 -0.779528,0 -1.417323,0.3189 -1.913386,0.88583 -0.496063,0.56693 -0.744094,1.41732 -0.744094,2.58661 z"
       style="fill:#000000;fill-opacity:1;fill-rule:nonzero;stroke:none"
       inkscape:connector-curvature="0" />
    <path
       id="path3095"
       d="m 48.472441,300.437 0.248031,1.38189 c -0.46063,0.0709 -0.81496,0.1063 -1.169291,0.1063 -0.566929,0 -0.992126,-0.0709 -1.311024,-0.24803 -0.283464,-0.17717 -0.496063,-0.38977 -0.637795,-0.70867 -0.141732,-0.28346 -0.177165,-0.88582 -0.177165,-1.80708 l 0,-5.20866 -1.133859,0 0,-1.20473 1.133859,0 0,-2.23228 1.523622,-0.92126 0,3.15354 1.523622,0 0,1.20473 -1.523622,0 0,5.31496 c 0,0.42519 0.03543,0.70866 0.07087,0.81496 0.07087,0.14173 0.141732,0.24803 0.283464,0.3189 0.1063,0.0709 0.283465,0.10629 0.496063,0.10629 0.177166,0 0.425197,-0.0354 0.673229,-0.0709 z"
       style="fill:#000000;fill-opacity:1;fill-rule:nonzero;stroke:none"
       inkscape:connector-curvature="0" />
    <path
       id="path3097"
       d="m 53.326771,300.437 0.212599,1.38189 c -0.425197,0.0709 -0.814961,0.1063 -1.133858,0.1063 -0.56693,0 -0.992126,-0.0709 -1.311024,-0.24803 -0.318898,-0.17717 -0.531496,-0.38977 -0.637795,-0.70867 -0.141733,-0.28346 -0.177166,-0.88582 -0.177166,-1.80708 l 0,-5.20866 -1.133858,0 0,-1.20473 1.133858,0 0,-2.23228 1.523622,-0.92126 0,3.15354 1.523622,0 0,1.20473 -1.523622,0 0,5.31496 c 0,0.42519 0,0.70866 0.07087,0.81496 0.03543,0.14173 0.141732,0.24803 0.248031,0.3189 0.141732,0.0709 0.318898,0.10629 0.531496,0.10629 0.177165,0 0.389764,-0.0354 0.673228,-0.0709 z"
       style="fill:#000000;fill-opacity:1;fill-rule:nonzero;stroke:none"
       inkscape:connector-curvature="0" />
    <path
       id="path3099"
       d="m 54.248031,297.28345 c 0,-1.66535 0.46063,-2.90551 1.417323,-3.72047 0.779528,-0.67323 1.736221,-0.99212 2.834646,-0.99212 1.240157,0 2.267716,0.38976 3.047244,1.20472 0.81496,0.81496 1.204724,1.94882 1.204724,3.40158 0,1.16929 -0.177165,2.05511 -0.531496,2.72834 -0.354331,0.67323 -0.850394,1.20473 -1.523622,1.55906 -0.673228,0.38976 -1.38189,0.56693 -2.19685,0.56693 -1.275591,0 -2.30315,-0.4252 -3.082677,-1.24016 -0.779528,-0.81496 -1.169292,-1.98425 -1.169292,-3.50788 z m 1.594488,0 c 0,1.1693 0.248032,2.05512 0.744095,2.62205 0.531496,0.56693 1.169291,0.8504 1.913386,0.8504 0.779527,0 1.417323,-0.28347 1.913386,-0.8504 0.496063,-0.60236 0.744094,-1.48819 0.744094,-2.65748 0,-1.13386 -0.248031,-1.98425 -0.744094,-2.55118 -0.531497,-0.56693 -1.133859,-0.88583 -1.913386,-0.88583 -0.744095,0 -1.38189,0.3189 -1.913386,0.88583 -0.496063,0.56693 -0.744095,1.41732 -0.744095,2.58661 z"
       style="fill:#000000;fill-opacity:1;fill-rule:nonzero;stroke:none"
       inkscape:connector-curvature="0" />
    <path
       id="path3101"
       d="m 64.559055,301.81889 0,-9.07087 1.38189,0 0,1.27559 c 0.283464,-0.42519 0.637795,-0.77953 1.133858,-1.06299 0.46063,-0.28346 0.992126,-0.38976 1.594488,-0.38976 0.673228,0 1.240157,0.1063 1.665354,0.38976 0.425197,0.28346 0.744095,0.67323 0.92126,1.16929 0.708662,-1.06299 1.629921,-1.55905 2.799213,-1.55905 0.885827,0 1.594488,0.24803 2.055118,0.74409 0.496063,0.49606 0.744094,1.24016 0.744094,2.30315 l 0,6.20079 -1.523622,0 0,-5.70473 c 0,-0.60236 -0.07087,-1.06299 -0.177165,-1.31102 -0.106299,-0.28346 -0.283465,-0.49606 -0.531496,-0.67323 -0.248032,-0.17716 -0.566929,-0.24803 -0.92126,-0.24803 -0.637795,0 -1.169291,0.2126 -1.594488,0.6378 -0.425197,0.42519 -0.637795,1.09842 -0.637795,2.01968 l 0,5.27953 -1.523622,0 0,-5.88189 c 0,-0.67323 -0.141733,-1.20473 -0.389764,-1.52362 -0.248032,-0.35433 -0.637795,-0.5315 -1.204725,-0.5315 -0.425196,0 -0.850393,0.1063 -1.204724,0.35433 -0.354331,0.2126 -0.637795,0.56693 -0.814961,0.99213 -0.141732,0.42519 -0.248031,1.06299 -0.248031,1.87795 l 0,4.7126 z"
       style="fill:#000000;fill-opacity:1;fill-rule:nonzero;stroke:none"
       inkscape:connector-curvature="0" />
    <path
       id="path3103"
       d="m 96.555118,229.78346 c 0,12.40157 -20.267717,22.46456 -45.318898,22.46456 -25.015748,0 -45.3188972,-10.06299 -45.3188972,-22.46456 0,-12.40158 20.3031492,-22.46457 45.3188972,-22.46457 25.051181,0 45.318898,10.06299 45.318898,22.46457 z"
       style="fill:none;stroke:#000000;stroke-width:1.24015749px;stroke-linecap:butt;stroke-linejoin:miter;stroke-miterlimit:4;stroke-opacity:1;stroke-dasharray:none"
       inkscape:connector-curvature="0" />
    <path
       id="path3105"
       d="m 25.901575,234.38976 0,-12.50788 5.527559,0 c 1.133858,0 1.984252,0.1063 2.551181,0.35433 0.602362,0.2126 1.062992,0.60237 1.38189,1.16929 0.35433,0.56693 0.531496,1.20473 0.531496,1.87796 0,0.88582 -0.283465,1.66535 -0.850394,2.26771 -0.566929,0.60237 -1.488189,0.99213 -2.65748,1.16929 0.425196,0.17717 0.744094,0.38977 0.992126,0.60237 0.46063,0.46063 0.921259,0.99212 1.381889,1.66535 l 2.161418,3.40158 -2.090552,0 -1.665354,-2.58662 c -0.46063,-0.74409 -0.850394,-1.34645 -1.169291,-1.73622 -0.318898,-0.38976 -0.602362,-0.67323 -0.850394,-0.85039 -0.248031,-0.14173 -0.496063,-0.24803 -0.744094,-0.3189 -0.212599,-0.0354 -0.496063,-0.0709 -0.92126,-0.0709 l -1.948819,0 0,5.563 z m 1.629921,-6.98032 3.57874,0 c 0.744095,0 1.346457,-0.0709 1.771654,-0.24803 0.425196,-0.14173 0.744094,-0.38976 0.992126,-0.74409 0.212598,-0.35434 0.318897,-0.70867 0.318897,-1.13386 0,-0.56693 -0.212598,-1.06299 -0.637795,-1.45276 C 33.129921,223.44094 32.42126,223.26377 31.5,223.26377 l -3.968504,0 z"
       style="fill:#000000;fill-opacity:1;fill-rule:nonzero;stroke:none"
       inkscape:connector-curvature="0" />
    <path
       id="path3107"
       d="m 37.948819,230.38582 1.559055,-0.14173 c 0.07087,0.63779 0.248031,1.13386 0.496063,1.52362 0.283464,0.4252 0.708661,0.74409 1.27559,0.99212 0.566929,0.24804 1.204725,0.35434 1.913386,0.35434 0.637795,0 1.204725,-0.0709 1.665355,-0.28347 0.496062,-0.17716 0.850393,-0.4252 1.098425,-0.74409 0.212598,-0.35433 0.35433,-0.70866 0.35433,-1.09843 0,-0.38976 -0.106299,-0.70866 -0.35433,-1.02756 -0.212599,-0.28346 -0.602363,-0.53149 -1.133859,-0.74409 -0.318897,-0.1063 -1.062992,-0.3189 -2.232283,-0.60236 -1.133858,-0.28347 -1.948819,-0.5315 -2.409449,-0.77953 -0.602362,-0.3189 -1.027559,-0.70866 -1.311023,-1.16929 -0.318898,-0.46063 -0.46063,-0.9567 -0.46063,-1.55906 0,-0.60236 0.177165,-1.20472 0.531496,-1.77165 0.35433,-0.5315 0.885826,-0.95669 1.594488,-1.24016 0.673228,-0.28346 1.452756,-0.4252 2.267716,-0.4252 0.956693,0 1.771654,0.14174 2.480315,0.46063 0.708662,0.28347 1.240158,0.7441 1.629922,1.31103 0.389763,0.56693 0.566929,1.24016 0.602362,1.98425 l -1.594488,0.1063 c -0.07087,-0.77953 -0.354331,-1.38189 -0.850394,-1.80709 -0.496063,-0.38976 -1.204724,-0.60236 -2.19685,-0.60236 -0.992126,0 -1.700788,0.17717 -2.161418,0.56693 -0.46063,0.35433 -0.708661,0.81496 -0.708661,1.31102 0,0.46063 0.177165,0.81496 0.496063,1.13386 0.318897,0.28347 1.133858,0.56693 2.480315,0.88583 1.346456,0.28346 2.267716,0.56693 2.799212,0.77953 0.708662,0.35433 1.240158,0.77952 1.594489,1.27559 0.35433,0.53149 0.531496,1.13385 0.531496,1.77165 0,0.67323 -0.212599,1.31102 -0.56693,1.91338 -0.389763,0.56693 -0.956692,1.02756 -1.665354,1.34646 -0.708661,0.35433 -1.523622,0.49606 -2.409449,0.49606 -1.133858,0 -2.090551,-0.14173 -2.834645,-0.49606 -0.779528,-0.3189 -1.38189,-0.81496 -1.807087,-1.48819 -0.425197,-0.63779 -0.673228,-1.41732 -0.673228,-2.23228 z"
       style="fill:#000000;fill-opacity:1;fill-rule:nonzero;stroke:none"
       inkscape:connector-curvature="0" />
    <path
       id="path3109"
       d="m 49.570866,228.2244 c 0,-1.48819 0.141732,-2.65748 0.425197,-3.57874 0.318897,-0.88582 0.779527,-1.59449 1.38189,-2.09055 0.602362,-0.46063 1.346456,-0.70866 2.267716,-0.70866 0.673228,0 1.240158,0.1063 1.771654,0.38976 0.496063,0.28347 0.921259,0.67323 1.240157,1.16929 0.318898,0.49607 0.602362,1.13386 0.779528,1.87796 0.177165,0.70866 0.283464,1.70078 0.283464,2.94094 0,1.45276 -0.141732,2.65748 -0.46063,3.54331 -0.283464,0.92126 -0.744094,1.62992 -1.346456,2.09055 -0.602363,0.49606 -1.346457,0.74409 -2.267717,0.74409 -1.204724,0 -2.161417,-0.42519 -2.870079,-1.27559 -0.81496,-1.06299 -1.204724,-2.76378 -1.204724,-5.10236 z m 1.559055,0 c 0,2.05512 0.248032,3.43701 0.708661,4.11024 0.496063,0.67323 1.098426,1.02756 1.807087,1.02756 0.708661,0 1.275591,-0.35433 1.771654,-1.02756 0.460629,-0.70866 0.708661,-2.05512 0.708661,-4.11024 0,-2.05512 -0.248032,-3.43701 -0.708661,-4.11023 -0.496063,-0.67323 -1.098426,-0.99213 -1.807087,-0.99213 -0.708661,0 -1.275591,0.28346 -1.700787,0.88583 -0.496063,0.74409 -0.779528,2.16141 -0.779528,4.21653 z"
       style="fill:#000000;fill-opacity:1;fill-rule:nonzero;stroke:none"
       inkscape:connector-curvature="0" />
    <path
       id="path3111"
       d="m 60.094488,234.38976 0,-1.73622 1.771653,0 0,1.73622 c 0,0.63779 -0.106299,1.16929 -0.35433,1.55905 -0.212599,0.38976 -0.566929,0.70866 -1.062992,0.92126 l -0.425197,-0.63779 c 0.318897,-0.14174 0.566929,-0.35433 0.708661,-0.6378 0.141732,-0.28346 0.248032,-0.67323 0.248032,-1.20472 z"
       style="fill:#000000;fill-opacity:1;fill-rule:nonzero;stroke:none"
       inkscape:connector-curvature="0" />
    <path
       id="path3113"
       d="m 68.988189,228.2244 c 0,-1.48819 0.141732,-2.65748 0.46063,-3.57874 0.283464,-0.88582 0.744094,-1.59449 1.346456,-2.09055 0.602362,-0.46063 1.346457,-0.70866 2.267717,-0.70866 0.673228,0 1.27559,0.1063 1.771653,0.38976 0.496063,0.28347 0.92126,0.67323 1.240158,1.16929 0.35433,0.49607 0.602362,1.13386 0.779527,1.87796 0.177166,0.70866 0.283465,1.70078 0.283465,2.94094 0,1.45276 -0.141732,2.65748 -0.46063,3.54331 -0.283465,0.92126 -0.744094,1.62992 -1.346457,2.09055 -0.602362,0.49606 -1.346456,0.74409 -2.267716,0.74409 -1.204725,0 -2.161418,-0.42519 -2.834646,-1.27559 -0.850394,-1.06299 -1.240157,-2.76378 -1.240157,-5.10236 z m 1.559055,0 c 0,2.05512 0.248031,3.43701 0.744094,4.11024 0.46063,0.67323 1.062992,1.02756 1.771654,1.02756 0.708661,0 1.311023,-0.35433 1.771653,-1.02756 0.496063,-0.70866 0.744095,-2.05512 0.744095,-4.11024 0,-2.05512 -0.248032,-3.43701 -0.744095,-4.11023 -0.46063,-0.67323 -1.062992,-0.99213 -1.807086,-0.99213 -0.673229,0 -1.240158,0.28346 -1.665355,0.88583 -0.531496,0.74409 -0.81496,2.16141 -0.81496,4.21653 z"
       style="fill:#000000;fill-opacity:1;fill-rule:nonzero;stroke:none"
       inkscape:connector-curvature="0" />
    <path
       id="path3115"
       d="m 51.23622,252.53149 0,9.28346"
       style="fill:none;stroke:#000000;stroke-width:1.24015749px;stroke-linecap:butt;stroke-linejoin:miter;stroke-miterlimit:4;stroke-opacity:1;stroke-dasharray:none"
       inkscape:connector-curvature="0" />
    <path
       id="path3117"
       d="m 55.629921,262.06298 0,0 -4.393701,12.47244 -4.358267,-12.47244 z"
       style="fill:#000000;fill-opacity:1;fill-rule:nonzero;stroke:#000000;stroke-width:1.24015749px;stroke-linecap:butt;stroke-linejoin:miter;stroke-miterlimit:4;stroke-opacity:1;stroke-dasharray:none"
       inkscape:connector-curvature="0" />
    <path
       id="path3119"
       d="m 96.555118,162.35433 c 0,12.40157 -20.267717,22.46456 -45.318898,22.46456 -25.015748,0 -45.3188972,-10.06299 -45.3188972,-22.46456 0,-12.40158 20.3031492,-22.46457 45.3188972,-22.46457 25.051181,0 45.318898,10.06299 45.318898,22.46457 z"
       style="fill:none;stroke:#000000;stroke-width:1.24015749px;stroke-linecap:butt;stroke-linejoin:miter;stroke-miterlimit:4;stroke-opacity:1;stroke-dasharray:none"
       inkscape:connector-curvature="0" />
    <path
       id="path3121"
       d="m 25.901575,166.96062 0,-12.50787 5.527559,0 c 1.133858,0 1.984252,0.1063 2.551181,0.35433 0.602362,0.2126 1.062992,0.60236 1.38189,1.16929 0.35433,0.56693 0.531496,1.20473 0.531496,1.91339 0,0.88583 -0.283465,1.62992 -0.850394,2.23228 -0.566929,0.60236 -1.488189,0.99213 -2.65748,1.16929 0.425196,0.2126 0.744094,0.38977 0.992126,0.60237 0.46063,0.46063 0.921259,0.99212 1.381889,1.66535 l 2.161418,3.40157 -2.090552,0 -1.665354,-2.58661 c -0.46063,-0.74409 -0.850394,-1.34646 -1.169291,-1.73622 -0.318898,-0.38976 -0.602362,-0.67323 -0.850394,-0.81496 -0.248031,-0.17717 -0.496063,-0.28347 -0.744094,-0.35433 -0.212599,-0.0354 -0.496063,-0.0709 -0.92126,-0.0709 l -1.948819,0 0,5.56299 z m 1.629921,-6.98031 3.57874,0 c 0.744095,0 1.346457,-0.0709 1.771654,-0.24803 0.425196,-0.14173 0.744094,-0.38977 0.992126,-0.7441 0.212598,-0.35433 0.318897,-0.70866 0.318897,-1.09842 0,-0.60236 -0.212598,-1.09843 -0.637795,-1.48819 C 33.129921,156.04724 32.42126,155.83464 31.5,155.83464 l -3.968504,0 z"
       style="fill:#000000;fill-opacity:1;fill-rule:nonzero;stroke:none"
       inkscape:connector-curvature="0" />
    <path
       id="path3123"
       d="m 37.948819,162.95669 1.559055,-0.14173 c 0.07087,0.63779 0.248031,1.13385 0.496063,1.52362 0.283464,0.42519 0.708661,0.74409 1.27559,0.99212 0.566929,0.24803 1.204725,0.35433 1.913386,0.35433 0.637795,0 1.204725,-0.0709 1.665355,-0.28346 0.496062,-0.17717 0.850393,-0.4252 1.098425,-0.7441 0.212598,-0.35433 0.35433,-0.70866 0.35433,-1.09842 0,-0.38976 -0.106299,-0.70866 -0.35433,-1.02756 -0.212599,-0.28346 -0.602363,-0.5315 -1.133859,-0.70866 -0.318897,-0.14173 -1.062992,-0.35433 -2.232283,-0.6378 -1.133858,-0.24803 -1.948819,-0.53149 -2.409449,-0.77952 -0.602362,-0.3189 -1.027559,-0.67323 -1.311023,-1.16929 -0.318898,-0.46063 -0.46063,-0.9567 -0.46063,-1.55906 0,-0.60236 0.177165,-1.20472 0.531496,-1.77165 0.35433,-0.5315 0.885826,-0.9567 1.594488,-1.24016 0.673228,-0.28347 1.452756,-0.4252 2.267716,-0.4252 0.956693,0 1.771654,0.14173 2.480315,0.46063 0.708662,0.28347 1.240158,0.7441 1.629922,1.31103 0.389763,0.56693 0.566929,1.24015 0.602362,1.98425 l -1.594488,0.1063 c -0.07087,-0.77953 -0.354331,-1.38189 -0.850394,-1.80709 -0.496063,-0.38976 -1.204724,-0.60236 -2.19685,-0.60236 -0.992126,0 -1.700788,0.2126 -2.161418,0.56693 -0.46063,0.35433 -0.708661,0.81496 -0.708661,1.31102 0,0.46063 0.177165,0.81496 0.496063,1.13386 0.318897,0.28346 1.133858,0.56693 2.480315,0.88583 1.346456,0.28346 2.267716,0.56693 2.799212,0.77952 0.708662,0.35433 1.240158,0.77953 1.594489,1.27559 0.35433,0.5315 0.531496,1.13386 0.531496,1.80709 0,0.6378 -0.212599,1.27559 -0.56693,1.87795 -0.389763,0.56693 -0.956692,1.02756 -1.665354,1.34646 -0.708661,0.35433 -1.523622,0.49606 -2.409449,0.49606 -1.133858,0 -2.090551,-0.14173 -2.834645,-0.49606 -0.779528,-0.3189 -1.38189,-0.81496 -1.807087,-1.48819 -0.425197,-0.63779 -0.673228,-1.41732 -0.673228,-2.23228 z"
       style="fill:#000000;fill-opacity:1;fill-rule:nonzero;stroke:none"
       inkscape:connector-curvature="0" />
    <path
       id="path3125"
       d="m 55.346456,166.96062 -1.559055,0 0,-9.77952 c -0.35433,0.35433 -0.850393,0.70866 -1.452756,1.06299 -0.602362,0.35433 -1.133858,0.60236 -1.594488,0.77953 l 0,-1.48819 c 0.850394,-0.38977 1.594488,-0.88583 2.232284,-1.45276 0.637795,-0.56693 1.098425,-1.13386 1.381889,-1.66535 l 0.992126,0 z"
       style="fill:#000000;fill-opacity:1;fill-rule:nonzero;stroke:none"
       inkscape:connector-curvature="0" />
    <path
       id="path3127"
       d="m 60.094488,166.96062 0,-1.73622 1.771653,0 0,1.73622 c 0,0.6378 -0.106299,1.1693 -0.35433,1.55906 -0.212599,0.38976 -0.566929,0.70866 -1.062992,0.92126 l -0.425197,-0.6378 c 0.318897,-0.14173 0.566929,-0.35433 0.708661,-0.63779 0.141732,-0.28347 0.248032,-0.67323 0.248032,-1.20473 z"
       style="fill:#000000;fill-opacity:1;fill-rule:nonzero;stroke:none"
       inkscape:connector-curvature="0" />
    <path
       id="path3129"
       d="m 68.988189,160.79527 c 0,-1.48819 0.141732,-2.65748 0.46063,-3.57874 0.283464,-0.88583 0.744094,-1.59449 1.346456,-2.09055 0.602362,-0.46063 1.346457,-0.70866 2.267717,-0.70866 0.673228,0 1.27559,0.14173 1.771653,0.38976 0.496063,0.28347 0.92126,0.67323 1.240158,1.16929 0.35433,0.5315 0.602362,1.13386 0.779527,1.87796 0.177166,0.70866 0.283465,1.70078 0.283465,2.94094 0,1.48819 -0.141732,2.65748 -0.46063,3.54331 -0.283465,0.92126 -0.744094,1.62992 -1.346457,2.09055 -0.602362,0.49606 -1.346456,0.74409 -2.267716,0.74409 -1.204725,0 -2.161418,-0.42519 -2.834646,-1.27559 -0.850394,-1.06299 -1.240157,-2.76378 -1.240157,-5.10236 z m 1.559055,0 c 0,2.05512 0.248031,3.43701 0.744094,4.11024 0.46063,0.67322 1.062992,1.02756 1.771654,1.02756 0.708661,0 1.311023,-0.35434 1.771653,-1.02756 0.496063,-0.70866 0.744095,-2.05512 0.744095,-4.11024 0,-2.05512 -0.248032,-3.43701 -0.744095,-4.11024 -0.46063,-0.67322 -1.062992,-0.99212 -1.807086,-0.99212 -0.673229,0 -1.240158,0.28346 -1.665355,0.88583 -0.531496,0.74409 -0.81496,2.16141 -0.81496,4.21653 z"
       style="fill:#000000;fill-opacity:1;fill-rule:nonzero;stroke:none"
       inkscape:connector-curvature="0" />
    <path
       id="path3131"
       d="m 51.23622,185.10236 0,9.28346"
       style="fill:none;stroke:#000000;stroke-width:1.24015749px;stroke-linecap:butt;stroke-linejoin:miter;stroke-miterlimit:4;stroke-opacity:1;stroke-dasharray:none"
       inkscape:connector-curvature="0" />
    <path
       id="path3133"
       d="m 55.629921,194.63385 0,0 -4.393701,12.50788 -4.358267,-12.50788 z"
       style="fill:#000000;fill-opacity:1;fill-rule:nonzero;stroke:#000000;stroke-width:1.24015749px;stroke-linecap:butt;stroke-linejoin:miter;stroke-miterlimit:4;stroke-opacity:1;stroke-dasharray:none"
       inkscape:connector-curvature="0" />
    <path
       id="path3135"
       d="m 96.555118,94.925194 c 0,12.401576 -20.267717,22.464566 -45.318898,22.464566 -25.015748,0 -45.3188972,-10.06299 -45.3188972,-22.464566 0,-12.401575 20.3031492,-22.464566 45.3188972,-22.464566 25.051181,0 45.318898,10.062991 45.318898,22.464566 z"
       style="fill:none;stroke:#000000;stroke-width:1.24015749px;stroke-linecap:butt;stroke-linejoin:miter;stroke-miterlimit:4;stroke-opacity:1;stroke-dasharray:none"
       inkscape:connector-curvature="0" />
    <path
       id="path3137"
       d="m 25.901575,99.531493 0,-12.507874 5.527559,0 c 1.133858,0 1.984252,0.106299 2.551181,0.354331 0.602362,0.212598 1.062992,0.602362 1.38189,1.169291 0.35433,0.566929 0.531496,1.204725 0.531496,1.913386 0,0.885827 -0.283465,1.629921 -0.850394,2.232283 -0.566929,0.602363 -1.488189,0.992126 -2.65748,1.169292 0.425196,0.212598 0.744094,0.425197 0.992126,0.602362 0.46063,0.46063 0.921259,0.992126 1.381889,1.665354 l 2.161418,3.401575 -2.090552,0 -1.665354,-2.586614 c -0.46063,-0.744095 -0.850394,-1.346457 -1.169291,-1.736221 -0.318898,-0.389763 -0.602362,-0.673228 -0.850394,-0.81496 -0.248031,-0.177166 -0.496063,-0.283465 -0.744094,-0.354331 -0.212599,-0.03543 -0.496063,-0.03543 -0.92126,-0.03543 l -1.948819,0 0,5.527559 z m 1.629921,-6.980315 3.57874,0 c 0.744095,0 1.346457,-0.07087 1.771654,-0.248031 0.425196,-0.141733 0.744094,-0.389764 0.992126,-0.744095 0.212598,-0.318897 0.318897,-0.708661 0.318897,-1.098425 0,-0.602362 -0.212598,-1.098425 -0.637795,-1.488189 C 33.129921,88.618107 32.42126,88.405509 31.5,88.405509 l -3.968504,0 z"
       style="fill:#000000;fill-opacity:1;fill-rule:nonzero;stroke:none"
       inkscape:connector-curvature="0" />
    <path
       id="path3139"
       d="m 37.948819,95.527556 1.559055,-0.141732 c 0.07087,0.637795 0.248031,1.133858 0.496063,1.559055 0.283464,0.389763 0.708661,0.708661 1.27559,0.956693 0.566929,0.248031 1.204725,0.35433 1.913386,0.35433 0.637795,0 1.204725,-0.07087 1.665355,-0.248031 0.496062,-0.212599 0.850393,-0.46063 1.098425,-0.779528 0.212598,-0.318897 0.35433,-0.708661 0.35433,-1.062992 0,-0.425197 -0.106299,-0.744094 -0.35433,-1.062992 -0.212599,-0.283464 -0.602363,-0.531496 -1.133859,-0.708661 -0.318897,-0.141733 -1.062992,-0.354331 -2.232283,-0.637796 -1.133858,-0.248031 -1.948819,-0.531496 -2.409449,-0.779527 -0.602362,-0.283465 -1.027559,-0.673228 -1.311023,-1.133858 -0.318898,-0.496063 -0.46063,-0.992126 -0.46063,-1.559055 0,-0.637796 0.177165,-1.240158 0.531496,-1.771654 0.35433,-0.566929 0.885826,-0.992126 1.594488,-1.27559 0.673228,-0.283465 1.452756,-0.425197 2.267716,-0.425197 0.956693,0 1.771654,0.141732 2.480315,0.46063 0.708662,0.283464 1.240158,0.744094 1.629922,1.311023 0.389763,0.566929 0.566929,1.240158 0.602362,1.984252 l -1.594488,0.106299 c -0.07087,-0.779527 -0.354331,-1.381889 -0.850394,-1.771653 -0.496063,-0.425197 -1.204724,-0.637795 -2.19685,-0.637795 -0.992126,0 -1.700788,0.212598 -2.161418,0.566929 -0.46063,0.35433 -0.708661,0.81496 -0.708661,1.311023 0,0.46063 0.177165,0.850394 0.496063,1.133859 0.318897,0.283464 1.133858,0.566929 2.480315,0.885826 1.346456,0.283465 2.267716,0.566929 2.799212,0.779528 0.708662,0.354331 1.240158,0.779527 1.594489,1.27559 0.35433,0.531496 0.531496,1.133859 0.531496,1.807087 0,0.637795 -0.212599,1.27559 -0.56693,1.877953 -0.389763,0.566929 -0.956692,1.027559 -1.665354,1.381889 -0.708661,0.318898 -1.523622,0.46063 -2.409449,0.46063 -1.133858,0 -2.090551,-0.141732 -2.834645,-0.496063 -0.779528,-0.318897 -1.38189,-0.81496 -1.807087,-1.488189 -0.425197,-0.637795 -0.673228,-1.381889 -0.673228,-2.232283 z"
       style="fill:#000000;fill-opacity:1;fill-rule:nonzero;stroke:none"
       inkscape:connector-curvature="0" />
    <path
       id="path3141"
       d="m 57.614173,98.078737 0,1.452756 -8.255906,0 c 0,-0.354331 0.03543,-0.708662 0.177166,-1.062992 0.212598,-0.566929 0.531496,-1.098425 1.027559,-1.665355 0.46063,-0.531496 1.133858,-1.169291 1.984252,-1.877952 1.38189,-1.133858 2.303149,-2.019685 2.763779,-2.65748 0.496063,-0.637796 0.708662,-1.275591 0.708662,-1.84252 0,-0.602362 -0.212599,-1.133858 -0.637795,-1.559055 -0.425197,-0.389764 -0.992126,-0.602362 -1.700788,-0.602362 -0.744094,0 -1.346457,0.212598 -1.771653,0.637795 -0.46063,0.46063 -0.673229,1.062992 -0.673229,1.877953 l -1.594488,-0.177166 c 0.106299,-1.169291 0.531496,-2.090551 1.240158,-2.692913 0.708661,-0.602362 1.629921,-0.92126 2.834645,-0.92126 1.204725,0 2.161417,0.318898 2.834646,0.992126 0.708661,0.673228 1.062992,1.488189 1.062992,2.480315 0,0.496063 -0.106299,0.992126 -0.318898,1.488189 -0.212598,0.46063 -0.531496,0.992126 -1.027559,1.523622 -0.46063,0.531496 -1.240157,1.240157 -2.338582,2.19685 -0.92126,0.779528 -1.523622,1.275591 -1.771654,1.559055 -0.283464,0.283465 -0.496063,0.566929 -0.673228,0.850394 z"
       style="fill:#000000;fill-opacity:1;fill-rule:nonzero;stroke:none"
       inkscape:connector-curvature="0" />
    <path
       id="path3143"
       d="m 60.094488,99.531493 0,-1.736221 1.771653,0 0,1.736221 c 0,0.673227 -0.106299,1.169287 -0.35433,1.559057 -0.212599,0.42519 -0.566929,0.70866 -1.062992,0.92126 l -0.425197,-0.6378 c 0.318897,-0.14173 0.566929,-0.35433 0.708661,-0.63779 0.141732,-0.28347 0.248032,-0.67323 0.248032,-1.204727 z"
       style="fill:#000000;fill-opacity:1;fill-rule:nonzero;stroke:none"
       inkscape:connector-curvature="0" />
    <path
       id="path3145"
       d="m 74.763779,99.531493 -1.523622,0 0,-9.779527 c -0.389764,0.35433 -0.850394,0.708661 -1.452756,1.062992 -0.602362,0.35433 -1.133858,0.602362 -1.629921,0.779527 l 0,-1.488189 c 0.850394,-0.389763 1.594488,-0.885826 2.267717,-1.452756 0.637795,-0.566929 1.098425,-1.133858 1.346456,-1.665354 l 0.992126,0 z"
       style="fill:#000000;fill-opacity:1;fill-rule:nonzero;stroke:none"
       inkscape:connector-curvature="0" />
    <path
       id="path3147"
       d="m 51.23622,117.67322 0,9.28347"
       style="fill:none;stroke:#000000;stroke-width:1.24015749px;stroke-linecap:butt;stroke-linejoin:miter;stroke-miterlimit:4;stroke-opacity:1;stroke-dasharray:none"
       inkscape:connector-curvature="0" />
    <path
       id="path3149"
       d="m 55.629921,127.20472 0,0 -4.393701,12.50787 -4.358267,-12.50787 z"
       style="fill:#000000;fill-opacity:1;fill-rule:nonzero;stroke:#000000;stroke-width:1.24015749px;stroke-linecap:butt;stroke-linejoin:miter;stroke-miterlimit:4;stroke-opacity:1;stroke-dasharray:none"
       inkscape:connector-curvature="0" />
    <path
       id="path3151"
       d="m 96.555118,27.496062 c 0,12.401574 -20.267717,22.464566 -45.318898,22.464566 -25.015748,0 -45.3188972,-10.062992 -45.3188972,-22.464566 0,-12.401574 20.3031492,-22.4645661 45.3188972,-22.4645661 25.051181,0 45.318898,10.0629921 45.318898,22.4645661 z"
       style="fill:#b3b3b3;stroke:#000000;stroke-width:1.24015749000000010px;stroke-linecap:butt;stroke-linejoin:miter;stroke-miterlimit:4;stroke-opacity:1;stroke-dasharray:none"
       inkscape:connector-curvature="0"
       inkscape:export-filename="C:\gsv\projects\articles\TMPA2014\ris3_result_stack.png"
       inkscape:export-xdpi="190"
       inkscape:export-ydpi="190" />
    <path
       id="path3163"
       d="m 51.23622,50.244093 0,9.283464"
       style="fill:none;stroke:#000000;stroke-width:1.24015749px;stroke-linecap:butt;stroke-linejoin:miter;stroke-miterlimit:4;stroke-opacity:1;stroke-dasharray:none"
       inkscape:connector-curvature="0" />
    <path
       id="path3165"
       d="m 55.629921,59.775589 0,0 -4.393701,12.507873 -4.358267,-12.507873 z"
       style="fill:#000000;fill-opacity:1;fill-rule:nonzero;stroke:#000000;stroke-width:1.24015749px;stroke-linecap:butt;stroke-linejoin:miter;stroke-miterlimit:4;stroke-opacity:1;stroke-dasharray:none"
       inkscape:connector-curvature="0" />
    <path
       id="path3155"
       d="m 37.948819,28.098424 1.559055,-0.141732 c 0.07087,0.637795 0.248031,1.133858 0.496063,1.559055 0.283464,0.389764 0.708661,0.708661 1.27559,0.956693 0.566929,0.248031 1.204725,0.389764 1.913386,0.389764 0.637795,0 1.204725,-0.106299 1.665355,-0.283465 0.496062,-0.212598 0.850393,-0.46063 1.098425,-0.779527 0.212598,-0.318898 0.35433,-0.673229 0.35433,-1.062992 0,-0.389764 -0.106299,-0.744095 -0.35433,-1.027559 -0.212599,-0.318898 -0.602363,-0.56693 -1.133859,-0.744095 -0.318897,-0.141732 -1.062992,-0.354331 -2.232283,-0.602362 -1.133858,-0.283465 -1.948819,-0.566929 -2.409449,-0.814961 -0.602362,-0.283464 -1.027559,-0.673228 -1.311023,-1.133858 -0.318898,-0.46063 -0.46063,-0.992126 -0.46063,-1.559055 0,-0.637795 0.177165,-1.240157 0.531496,-1.771654 0.35433,-0.566929 0.885826,-0.992125 1.594488,-1.27559 0.673228,-0.283465 1.452756,-0.425197 2.267716,-0.425197 0.956693,0 1.771654,0.177165 2.480315,0.46063 0.708662,0.283465 1.240158,0.744095 1.629922,1.311024 0.389763,0.602362 0.566929,1.240157 0.602362,1.984252 l -1.594488,0.106299 c -0.07087,-0.779528 -0.354331,-1.38189 -0.850394,-1.771654 -0.496063,-0.425197 -1.204724,-0.602362 -2.19685,-0.602362 -0.992126,0 -1.700788,0.177165 -2.161418,0.531496 -0.46063,0.354331 -0.708661,0.814961 -0.708661,1.311024 0,0.46063 0.177165,0.850393 0.496063,1.133858 0.318897,0.283464 1.133858,0.566929 2.480315,0.885827 1.346456,0.318897 2.267716,0.566929 2.799212,0.81496 0.708662,0.318898 1.240158,0.744095 1.594489,1.275591 0.35433,0.496063 0.531496,1.098425 0.531496,1.771653 0,0.673229 -0.212599,1.275591 -0.56693,1.877953 -0.389763,0.566929 -0.956692,1.027559 -1.665354,1.38189 -0.708661,0.318897 -1.523622,0.496063 -2.409449,0.496063 -1.133858,0 -2.090551,-0.177166 -2.834645,-0.496063 -0.779528,-0.354331 -1.38189,-0.850394 -1.807087,-1.523622 -0.425197,-0.637796 -0.673228,-1.38189 -0.673228,-2.232284 z"
       style="fill:#000000;fill-opacity:1;fill-rule:nonzero;stroke:none"
       inkscape:connector-curvature="0" />
    <path
       id="path3157"
       d="m 55.346456,32.102361 -1.559055,0 0,-9.779527 c -0.35433,0.354331 -0.850393,0.708661 -1.452756,1.062992 -0.602362,0.354331 -1.133858,0.602362 -1.594488,0.779528 l 0,-1.452756 c 0.850394,-0.425197 1.594488,-0.92126 2.232284,-1.488189 0.637795,-0.566929 1.098425,-1.133858 1.381889,-1.665355 l 0.992126,0 z"
       style="fill:#000000;fill-opacity:1;fill-rule:nonzero;stroke:none"
       inkscape:connector-curvature="0" />
    <path
       id="path3159"
       d="m 60.094488,32.102361 0,-1.73622 1.771653,0 0,1.73622 c 0,0.673228 -0.106299,1.169291 -0.35433,1.559055 -0.212599,0.425197 -0.566929,0.708662 -1.062992,0.92126 l -0.425197,-0.637795 c 0.318897,-0.141732 0.566929,-0.354331 0.708661,-0.637795 0.141732,-0.283465 0.248032,-0.673229 0.248032,-1.204725 z"
       style="fill:#000000;fill-opacity:1;fill-rule:nonzero;stroke:none"
       inkscape:connector-curvature="0" />
    <path
       id="path3153"
       d="m 25.901575,32.102361 0,-12.507873 5.527559,0 c 1.133858,0 1.984252,0.141732 2.551181,0.35433 0.602362,0.212599 1.062992,0.602362 1.38189,1.169292 0.35433,0.602362 0.531496,1.204724 0.531496,1.913385 0,0.885827 -0.283465,1.629922 -0.850394,2.232284 -0.566929,0.602362 -1.488189,0.992126 -2.65748,1.169291 0.425196,0.212598 0.744094,0.425197 0.992126,0.602362 0.46063,0.46063 0.921259,1.027559 1.381889,1.665354 l 2.161418,3.401575 -2.090552,0 -1.665354,-2.586614 c -0.46063,-0.744094 -0.850394,-1.311024 -1.169291,-1.73622 -0.318898,-0.389764 -0.602362,-0.673229 -0.850394,-0.814961 -0.248031,-0.177165 -0.496063,-0.283465 -0.744094,-0.354331 -0.212599,-0.03543 -0.496063,-0.03543 -0.92126,-0.03543 l -1.948819,0 0,5.527559 z m 1.629921,-6.980315 3.57874,0 c 0.744095,0 1.346457,-0.07087 1.771654,-0.212598 0.425196,-0.177165 0.744094,-0.425197 0.992126,-0.779528 0.212598,-0.318897 0.318897,-0.708661 0.318897,-1.098425 0,-0.602362 -0.212598,-1.098425 -0.637795,-1.488189 C 33.129921,21.188976 32.42126,20.976377 31.5,20.976377 l -3.968504,0 z"
       style="fill:#000000;fill-opacity:1;fill-rule:nonzero;stroke:none"
       inkscape:connector-curvature="0" />
    <path
       id="path3161"
       d="m 74.763779,32.102361 -1.523622,0 0,-9.779527 c -0.389764,0.354331 -0.850394,0.708661 -1.452756,1.062992 -0.602362,0.354331 -1.133858,0.602362 -1.629921,0.779528 l 0,-1.452756 c 0.850394,-0.425197 1.594488,-0.92126 2.267717,-1.488189 0.637795,-0.566929 1.098425,-1.133858 1.346456,-1.665355 l 0.992126,0 z"
       style="fill:#000000;fill-opacity:1;fill-rule:nonzero;stroke:none"
       inkscape:connector-curvature="0" />
  </g>
  <g
     id="graph0-1"
     class="graph"
     transform="matrix(0.99890368,0,0,0.99890368,-199.84583,254.71005)">
    <title
       id="title5-7">GSS</title>
    <polygon
       style="fill:#ffffff;stroke:none"
       points="-4,4 -4,-148 78.0934,-148 78.0934,4 -4,4 "
       id="polygon7-4" />
    <!-- 0 -->
    <g
       id="node1-0"
       class="node">
      <title
         id="title10-9">0</title>
      <ellipse
         style="fill:none;stroke:#000000"
         sodipodi:ry="18"
         sodipodi:rx="37.093498"
         sodipodi:cy="-18"
         sodipodi:cx="37.0467"
         cx="37.0467"
         cy="-18"
         rx="37.093498"
         ry="18"
         id="ellipse12-4"
         d="m 74.140198,-18 c 0,9.9411255 -16.607325,18 -37.093498,18 -20.486174,0 -37.09349871,-8.0588745 -37.09349871,-18 0,-9.941125 16.60732471,-18 37.09349871,-18 20.486173,0 37.093498,8.058875 37.093498,18 z" />
      <text
         style="font-size:14px;text-anchor:middle;font-family:'Times New Roman,serif'"
         x="37.0467"
         y="-14.3"
         font-size="14.00"
         id="text14-8">bottom</text>
    </g>
    <!-- 1 -->
    <g
       id="node2-8"
       class="node">
      <title
         id="title17-2">1</title>
      <ellipse
         style="fill:none;stroke:#000000"
         sodipodi:ry="18"
         sodipodi:rx="36.2938"
         sodipodi:cy="-72"
         sodipodi:cx="37.0467"
         cx="37.0467"
         cy="-72"
         rx="36.2938"
         ry="18"
         id="ellipse19-4"
         d="m 73.3405,-72 c 0,9.941125 -16.249288,18 -36.2938,18 -20.044513,0 -36.29380083,-8.058875 -36.29380083,-18 0,-9.941125 16.24928783,-18 36.29380083,-18 20.044512,0 36.2938,8.058875 36.2938,18 z" />
      <text
         style="font-size:14px;text-anchor:middle;font-family:'Times New Roman,serif'"
         x="37.0467"
         y="-68.300003"
         font-size="14.00"
         id="text21-5">RS0, 0</text>
    </g>
    <!-- 1&#45;&gt;0 -->
    <g
       id="edge1-5"
       class="edge">
      <title
         id="title24-1">1-&gt;0</title>
      <path
         style="fill:none;stroke:#000000"
         inkscape:connector-curvature="0"
         d="m 37.0467,-53.7902 c 0,2.482 0,4.964 0,7.4459"
         id="path26-7" />
      <polygon
         style="fill:#000000;stroke:#000000"
         points="37.0467,-36.1406 33.5468,-46.1407 40.5468,-46.1406 40.5468,-46.1406 "
         id="polygon28-1" />
    </g>
    <!-- 2 -->
    <g
       id="node3-1"
       class="node">
      <title
         id="title31-5">2</title>
      <ellipse
         style="fill:#b3b3b3;stroke:#000000"
         sodipodi:ry="18"
         sodipodi:rx="36.2938"
         sodipodi:cy="-126"
         sodipodi:cx="37.0467"
         cx="37.0467"
         cy="-126"
         rx="36.2938"
         ry="18"
         id="ellipse33-2"
         d="m 73.3405,-126 c 0,9.94113 -16.249288,18 -36.2938,18 -20.044513,0 -36.29380083,-8.05887 -36.29380083,-18 0,-9.94113 16.24928783,-18 36.29380083,-18 20.044512,0 36.2938,8.05887 36.2938,18 z" />
      <text
         style="font-size:14px;text-anchor:middle;font-family:'Times New Roman,serif'"
         x="37.0467"
         y="-122.3"
         font-size="14.00"
         id="text35-7">RS1, 0</text>
      <path
         style="fill:#b3b3b3"
         d="m -3.7367539,-19.028389 c -16.8540111,-1.12945 -32.2553821,-7.978363 -36.0838791,-16.046321 -1.37098,-2.889125 -1.413726,-7.417645 -0.09411,-9.969508 2.323042,-4.492269 10.189956,-9.93488 18.299493,-12.660242 14.1828989,-4.766429 35.345274,-4.766429 49.528171,0 8.491031,2.85357 16.471158,8.535649 18.369853,13.079856 6.194872,14.826417 -18.923455,27.680077 -50.0195309,25.596215 z M 13.747841,-33.794652 c 0.837856,-2.18342 0.448734,-3.730761 -0.938204,-3.730761 -1.108104,0 -1.33958,0.440793 -1.265551,2.409957 0.09362,2.490384 1.444303,3.299904 2.203755,1.320804 z m -34.010019,-3.730761 c 0,-2.437582 0.18739,-2.754238 1.629899,-2.754238 1.13873,0 2.179156,0.829986 3.452566,2.754238 1.138962,1.721087 2.350821,2.754237 3.230653,2.754237 1.537263,0 1.426461,-0.378113 -1.122992,-3.832202 -1.517495,-2.055957 -1.523802,-2.132149 -0.242696,-2.932212 1.488012,-0.929279 1.779382,-4.201571 0.489011,-5.491942 -0.467783,-0.467783 -2.708333,-0.826271 -5.164195,-0.826271 l -4.337924,0 0,6.541313 c 0,5.355462 0.18724,6.541314 1.032839,6.541314 0.745939,0 1.032839,-0.765066 1.032839,-2.754237 l 0,0 z m 18.3158822,2.227274 c 3.1739045,-2.119272 2.08577149,-6.247394 -1.94484,-7.378269 -3.5345354,-0.99169 -4.5142541,-2.087162 -2.723659,-3.045459 1.6037862,-0.858321 3.2870424,-0.410823 3.8360308,1.019819 0.435228,1.134186 2.48480675,1.336911 2.48480675,0.245775 0,-3.213312 -4.85652325,-5.122809 -7.92147085,-3.114578 -1.9883039,1.302788 -2.2760719,3.90197 -0.5882665,5.313352 0.6215515,0.519755 2.2458085,1.264097 3.6094596,1.654093 3.1093487,0.889255 3.6894682,2.837197 1.0427798,3.501474 -1.4572684,0.365751 -2.1546048,0.137663 -3.082499,-1.008238 -1.3689097,-1.690532 -3.3883928,-1.973575 -3.3883928,-0.474905 0,1.813776 2.8754264,3.814495 5.4661701,3.803355 1.3487445,-0.0058 2.7931905,-0.238188 3.2098811,-0.516419 z m 11.9807288,-0.505876 c 0,-0.754251 -0.7805933,-1.032839 -2.8939794,-1.032839 l -2.8939791,0 2.4511831,-2.582097 c 3.1355394,-3.303005 3.6347874,-4.778953 2.3036833,-6.810475 -1.8197156,-2.777237 -7.9181795,-1.559684 -7.9181795,1.580858 0,1.363509 1.5880106,1.126553 2.9264907,-0.436679 1.3163843,-1.537424 3.2705432,-1.176207 3.2705432,0.604545 0,0.638048 -1.3943326,2.528521 -3.098517,4.201051 -1.7041843,1.672531 -3.0985169,3.596154 -3.0985169,4.27472 0,1.059428 0.632397,1.233755 4.4756356,1.233755 3.5193031,0 4.475636,-0.220692 4.475636,-1.032839 z m 19.279661,0 c 0,-0.751251 -0.774809,-1.032839 -2.841933,-1.032839 l -2.841932,0 2.841932,-3.083132 c 1.563064,-1.695723 2.841933,-3.687627 2.841933,-4.426453 0,-3.458542 -5.819031,-4.918609 -7.879389,-1.977037 -1.419306,2.026345 -1.351866,2.601029 0.305236,2.601029 0.757415,0 1.377119,-0.431627 1.377119,-0.959171 0,-1.088466 1.300313,-1.739089 2.582097,-1.291977 1.602546,0.559002 0.872364,2.440145 -2.237818,5.765179 -4.357921,4.65897 -4.160804,5.43724 1.377119,5.43724 3.519302,0 4.475636,-0.220692 4.475636,-1.032839 z"
         id="path3466"
         inkscape:connector-curvature="0"
         transform="matrix(0.80087802,0,0,0.80087802,200.01011,-254.9896)" />
      <path
         style="fill:#b3b3b3"
         d="m -3.7367539,-19.028389 c -16.8540111,-1.12945 -32.2553821,-7.978363 -36.0838791,-16.046321 -1.37098,-2.889125 -1.413726,-7.417645 -0.09411,-9.969508 2.323042,-4.492269 10.189956,-9.93488 18.299493,-12.660242 14.1828989,-4.766429 35.345274,-4.766429 49.528171,0 8.491031,2.85357 16.471158,8.535649 18.369853,13.079856 6.194872,14.826417 -18.923455,27.680077 -50.0195309,25.596215 z M 13.747841,-33.794652 c 0.837856,-2.18342 0.448734,-3.730761 -0.938204,-3.730761 -1.108104,0 -1.33958,0.440793 -1.265551,2.409957 0.09362,2.490384 1.444303,3.299904 2.203755,1.320804 z m -34.010019,-3.730761 c 0,-2.437582 0.18739,-2.754238 1.629899,-2.754238 1.13873,0 2.179156,0.829986 3.452566,2.754238 1.138962,1.721087 2.350821,2.754237 3.230653,2.754237 1.537263,0 1.426461,-0.378113 -1.122992,-3.832202 -1.517495,-2.055957 -1.523802,-2.132149 -0.242696,-2.932212 1.488012,-0.929279 1.779382,-4.201571 0.489011,-5.491942 -0.467783,-0.467783 -2.708333,-0.826271 -5.164195,-0.826271 l -4.337924,0 0,6.541313 c 0,5.355462 0.18724,6.541314 1.032839,6.541314 0.745939,0 1.032839,-0.765066 1.032839,-2.754237 l 0,0 z m 18.3158822,2.227274 c 3.1739045,-2.119272 2.08577149,-6.247394 -1.94484,-7.378269 -3.5345354,-0.99169 -4.5142541,-2.087162 -2.723659,-3.045459 1.6037862,-0.858321 3.2870424,-0.410823 3.8360308,1.019819 0.435228,1.134186 2.48480675,1.336911 2.48480675,0.245775 0,-3.213312 -4.85652325,-5.122809 -7.92147085,-3.114578 -1.9883039,1.302788 -2.2760719,3.90197 -0.5882665,5.313352 0.6215515,0.519755 2.2458085,1.264097 3.6094596,1.654093 3.1093487,0.889255 3.6894682,2.837197 1.0427798,3.501474 -1.4572684,0.365751 -2.1546048,0.137663 -3.082499,-1.008238 -1.3689097,-1.690532 -3.3883928,-1.973575 -3.3883928,-0.474905 0,1.813776 2.8754264,3.814495 5.4661701,3.803355 1.3487445,-0.0058 2.7931905,-0.238188 3.2098811,-0.516419 z m 11.9807288,-0.505876 c 0,-0.754251 -0.7805933,-1.032839 -2.8939794,-1.032839 l -2.8939791,0 2.4511831,-2.582097 c 3.1355394,-3.303005 3.6347874,-4.778953 2.3036833,-6.810475 -1.8197156,-2.777237 -7.9181795,-1.559684 -7.9181795,1.580858 0,1.363509 1.5880106,1.126553 2.9264907,-0.436679 1.3163843,-1.537424 3.2705432,-1.176207 3.2705432,0.604545 0,0.638048 -1.3943326,2.528521 -3.098517,4.201051 -1.7041843,1.672531 -3.0985169,3.596154 -3.0985169,4.27472 0,1.059428 0.632397,1.233755 4.4756356,1.233755 3.5193031,0 4.475636,-0.220692 4.475636,-1.032839 z m 19.279661,0 c 0,-0.751251 -0.774809,-1.032839 -2.841933,-1.032839 l -2.841932,0 2.841932,-3.083132 c 1.563064,-1.695723 2.841933,-3.687627 2.841933,-4.426453 0,-3.458542 -5.819031,-4.918609 -7.879389,-1.977037 -1.419306,2.026345 -1.351866,2.601029 0.305236,2.601029 0.757415,0 1.377119,-0.431627 1.377119,-0.959171 0,-1.088466 1.300313,-1.739089 2.582097,-1.291977 1.602546,0.559002 0.872364,2.440145 -2.237818,5.765179 -4.357921,4.65897 -4.160804,5.43724 1.377119,5.43724 3.519302,0 4.475636,-0.220692 4.475636,-1.032839 z"
         id="path3468"
         inkscape:connector-curvature="0"
         transform="matrix(0.80087802,0,0,0.80087802,200.01011,-254.9896)" />
    </g>
    <!-- 2&#45;&gt;1 -->
    <g
       id="edge2-6"
       class="edge">
      <title
         id="title38-1">2-&gt;1</title>
      <path
         style="fill:none;stroke:#000000"
         inkscape:connector-curvature="0"
         d="m 37.0467,-107.79 c 0,2.482 0,4.964 0,7.446"
         id="path40-4" />
      <polygon
         style="fill:#000000;stroke:#000000"
         points="37.0467,-90.1406 33.5468,-100.141 40.5468,-100.141 40.5468,-100.141 "
         id="polygon42-2" />
    </g>
  </g>
  <g
     id="graph0-3"
     class="graph"
     transform="matrix(0.99890368,0,0,0.99890368,-34.57634,255.64667)">
    <title
       id="title5-2">GSS</title>
    <polygon
       style="fill:#ffffff;stroke:none"
       points="78.0934,-310 78.0934,4 -4,4 -4,4 -4,-310 "
       id="polygon7-2" />
    <!-- 0 -->
    <g
       id="node1-1"
       class="node">
      <title
         id="title10-6">0</title>
      <ellipse
         style="fill:none;stroke:#000000"
         sodipodi:ry="18"
         sodipodi:rx="37.093498"
         sodipodi:cy="-18"
         sodipodi:cx="37.0467"
         cx="37.0467"
         cy="-18"
         rx="37.093498"
         ry="18"
         id="ellipse12-8"
         d="m 74.140198,-18 c 0,9.9411255 -16.607325,18 -37.093498,18 -20.486174,0 -37.09349871,-8.0588745 -37.09349871,-18 0,-9.941125 16.60732471,-18 37.09349871,-18 20.486173,0 37.093498,8.058875 37.093498,18 z" />
      <text
         style="font-size:14px;text-anchor:middle;font-family:'Times New Roman,serif'"
         x="37.0467"
         y="-14.3"
         font-size="14.00"
         id="text14-5">bottom</text>
    </g>
    <!-- 1 -->
    <g
       id="node2-7"
       class="node">
      <title
         id="title17-6">1</title>
      <ellipse
         style="fill:none;stroke:#000000"
         sodipodi:ry="18"
         sodipodi:rx="36.2938"
         sodipodi:cy="-72"
         sodipodi:cx="37.0467"
         cx="37.0467"
         cy="-72"
         rx="36.2938"
         ry="18"
         id="ellipse19-1"
         d="m 73.3405,-72 c 0,9.941125 -16.249288,18 -36.2938,18 -20.044513,0 -36.29380083,-8.058875 -36.29380083,-18 0,-9.941125 16.24928783,-18 36.29380083,-18 20.044512,0 36.2938,8.058875 36.2938,18 z" />
      <text
         style="font-size:14px;text-anchor:middle;font-family:'Times New Roman,serif'"
         x="37.0467"
         y="-68.300003"
         font-size="14.00"
         id="text21-8">RS0, 0</text>
    </g>
    <!-- 1&#45;&gt;0 -->
    <g
       id="edge1-9"
       class="edge">
      <title
         id="title24-2">1-&gt;0</title>
      <path
         style="fill:none;stroke:#000000"
         inkscape:connector-curvature="0"
         d="m 37.0467,-53.7902 c 0,2.482 0,4.964 0,7.4459"
         id="path26-79" />
      <polygon
         style="fill:#000000;stroke:#000000"
         points="40.5468,-46.1406 40.5468,-46.1406 37.0467,-36.1406 33.5468,-46.1407 "
         id="polygon28-5" />
    </g>
    <!-- 2 -->
    <g
       id="node3-4"
       class="node">
      <title
         id="title31-3">2</title>
      <ellipse
         style="fill:none;stroke:#000000"
         sodipodi:ry="18"
         sodipodi:rx="36.2938"
         sodipodi:cy="-126"
         sodipodi:cx="37.0467"
         cx="37.0467"
         cy="-126"
         rx="36.2938"
         ry="18"
         id="ellipse33-1"
         d="m 73.3405,-126 c 0,9.94113 -16.249288,18 -36.2938,18 -20.044513,0 -36.29380083,-8.05887 -36.29380083,-18 0,-9.94113 16.24928783,-18 36.29380083,-18 20.044512,0 36.2938,8.05887 36.2938,18 z" />
      <text
         style="font-size:14px;text-anchor:middle;font-family:'Times New Roman,serif'"
         x="37.0467"
         y="-122.3"
         font-size="14.00"
         id="text35-2">RS1, 0</text>
    </g>
    <!-- 2&#45;&gt;1 -->
    <g
       id="edge2-3"
       class="edge">
      <title
         id="title38-3">2-&gt;1</title>
      <path
         style="fill:none;stroke:#000000"
         inkscape:connector-curvature="0"
         d="m 37.0467,-107.79 c 0,2.482 0,4.964 0,7.446"
         id="path40-41" />
      <polygon
         style="fill:#000000;stroke:#000000"
         points="40.5468,-100.141 40.5468,-100.141 37.0467,-90.1406 33.5468,-100.141 "
         id="polygon42-1" />
    </g>
    <!-- 3 -->
    <g
       id="node4-3"
       class="node">
      <title
         id="title45-8">3</title>
      <ellipse
         style="fill:none;stroke:#000000"
         sodipodi:ry="18"
         sodipodi:rx="36.2938"
         sodipodi:cy="-180"
         sodipodi:cx="37.0467"
         cx="37.0467"
         cy="-180"
         rx="36.2938"
         ry="18"
         id="ellipse47-7"
         d="m 73.3405,-180 c 0,9.94113 -16.249288,18 -36.2938,18 -20.044513,0 -36.29380083,-8.05887 -36.29380083,-18 0,-9.94113 16.24928783,-18 36.29380083,-18 20.044512,0 36.2938,8.05887 36.2938,18 z" />
      <text
         style="font-size:14px;text-anchor:middle;font-family:'Times New Roman,serif'"
         x="37.0467"
         y="-176.3"
         font-size="14.00"
         id="text49-4">RS2, 1</text>
    </g>
    <!-- 3&#45;&gt;2 -->
    <g
       id="edge3-2"
       class="edge">
      <title
         id="title52-7">3-&gt;2</title>
      <path
         style="fill:none;stroke:#000000"
         inkscape:connector-curvature="0"
         d="m 37.0467,-161.79 c 0,2.482 0,4.964 0,7.446"
         id="path54-7" />
      <polygon
         style="fill:#000000;stroke:#000000"
         points="40.5468,-154.141 40.5468,-154.141 37.0467,-144.141 33.5468,-154.141 "
         id="polygon56-9" />
    </g>
    <!-- 4 -->
    <g
       id="node5-3"
       class="node">
      <title
         id="title59-1">4</title>
      <ellipse
         style="fill:none;stroke:#000000"
         sodipodi:ry="18"
         sodipodi:rx="36.2938"
         sodipodi:cy="-234"
         sodipodi:cx="37.0467"
         cx="37.0467"
         cy="-234"
         rx="36.2938"
         ry="18"
         id="ellipse61-9"
         d="m 73.3405,-234 c 0,9.94113 -16.249288,18 -36.2938,18 -20.044513,0 -36.29380083,-8.05887 -36.29380083,-18 0,-9.94113 16.24928783,-18 36.29380083,-18 20.044512,0 36.2938,8.05887 36.2938,18 z" />
      <text
         style="font-size:14px;text-anchor:middle;font-family:'Times New Roman,serif'"
         x="37.0467"
         y="-230.3"
         font-size="14.00"
         id="text63-8">RS3, 1</text>
    </g>
    <!-- 4&#45;&gt;3 -->
    <g
       id="edge4-6"
       class="edge">
      <title
         id="title66-5">4-&gt;3</title>
      <path
         style="fill:none;stroke:#000000"
         inkscape:connector-curvature="0"
         d="m 37.0467,-215.79 c 0,2.482 0,4.964 0,7.446"
         id="path68-0" />
      <polygon
         style="fill:#000000;stroke:#000000"
         points="40.5468,-208.141 40.5468,-208.141 37.0467,-198.141 33.5468,-208.141 "
         id="polygon70-2" />
    </g>
    <!-- 5 -->
    <g
       id="node6-8"
       class="node">
      <title
         id="title73-6">5</title>
      <ellipse
         style="fill:#b3b3b3;stroke:#000000"
         sodipodi:ry="18"
         sodipodi:rx="36.2938"
         sodipodi:cy="-288"
         sodipodi:cx="37.0467"
         cx="37.0467"
         cy="-288"
         rx="36.2938"
         ry="18"
         id="ellipse75-0"
         d="m 73.3405,-288 c 0,9.94113 -16.249288,18 -36.2938,18 -20.044513,0 -36.29380083,-8.05887 -36.29380083,-18 0,-9.94113 16.24928783,-18 36.29380083,-18 20.044512,0 36.2938,8.05887 36.2938,18 z" />
      <text
         style="font-size:14px;text-anchor:middle;font-family:'Times New Roman,serif'"
         x="37.0467"
         y="-284.29999"
         font-size="14.00"
         id="text77-2">RS2, 2</text>
    </g>
    <!-- 5&#45;&gt;4 -->
    <g
       id="edge5-4"
       class="edge">
      <title
         id="title80-8">5-&gt;4</title>
      <path
         style="fill:none;stroke:#000000"
         inkscape:connector-curvature="0"
         d="m 37.0467,-269.79 c 0,2.482 0,4.964 0,7.446"
         id="path82-6" />
      <polygon
         style="fill:#000000;stroke:#000000"
         points="40.5468,-262.141 40.5468,-262.141 37.0467,-252.141 33.5468,-262.141 "
         id="polygon84-5" />
    </g>
    <g
       id="edge4-6-9"
       class="edge"
       transform="matrix(0.0743491,-2.4909379,2.9529913,0.06271573,714.25542,-75.21024)">
      <title
         id="title66-5-0">4-&gt;3</title>
      <path
         style="fill:none;stroke:#000000"
         inkscape:connector-curvature="0"
         d="m 37.0467,-215.79 c 0,2.482 0,4.964 0,7.446"
         id="path68-0-0" />
      <polygon
         style="fill:#000000;stroke:#000000"
         points="33.5468,-208.141 40.5468,-208.141 40.5468,-208.141 37.0467,-198.141 "
         id="polygon70-2-6" />
    </g>
    <text
       xml:space="preserve"
       style="font-size:32.03512192px;font-style:normal;font-weight:normal;line-height:125%;letter-spacing:0px;word-spacing:0px;fill:#000000;fill-opacity:1;stroke:none;font-family:Sans"
       x="-149.75644"
       y="25.208088"
       id="text3413"
       sodipodi:linespacing="125%"><tspan
         sodipodi:role="line"
         x="-149.75644"
         y="25.208088"
         id="tspan3417">S1</tspan></text>
    <text
       xml:space="preserve"
       style="font-size:32.03512192px;font-style:normal;font-weight:normal;line-height:125%;letter-spacing:0px;word-spacing:0px;fill:#000000;fill-opacity:1;stroke:none;font-family:Sans"
       x="14.626124"
       y="26.301392"
       id="text3413-1"
       sodipodi:linespacing="125%"><tspan
         sodipodi:role="line"
         x="14.626124"
         y="26.301392"
         id="tspan3417-3">S3</tspan></text>
    <text
       xml:space="preserve"
       style="font-size:32.03512192px;font-style:normal;font-weight:normal;line-height:125%;letter-spacing:0px;word-spacing:0px;fill:#000000;fill-opacity:1;stroke:none;font-family:Sans"
       x="-65.702629"
       y="25.251089"
       id="text3413-8"
       sodipodi:linespacing="125%"><tspan
         sodipodi:role="line"
         x="-65.702629"
         y="25.251089"
         id="tspan3417-9">S2</tspan></text>
    <text
       xml:space="preserve"
       style="font-size:32.03512192px;font-style:normal;font-weight:normal;line-height:125%;letter-spacing:0px;word-spacing:0px;fill:#000000;fill-opacity:1;stroke:none;font-family:Sans"
       x="153.38162"
       y="26.301394"
       id="text3413-3"
       sodipodi:linespacing="125%"><tspan
         sodipodi:role="line"
         x="153.38162"
         y="26.301394"
         id="tspan3417-4">S4</tspan></text>
  </g>
</svg>
