<?xml version="1.0" encoding="UTF-8" standalone="no"?>
<!DOCTYPE svg PUBLIC "-//W3C//DTD SVG 1.1//EN"
 "http://www.w3.org/Graphics/SVG/1.1/DTD/svg11.dtd">
<!-- Generated by graphviz version 2.38.0 (20140413.2041)
 -->
<!-- Title: GSS Pages: 1 -->
<svg width="82pt" height="314pt"
 viewBox="0.00 0.00 82.09 314.00" xmlns="http://www.w3.org/2000/svg" xmlns:xlink="http://www.w3.org/1999/xlink">
<g id="graph0" class="graph" transform="scale(1 1) rotate(0) translate(4 310)">
<title>GSS</title>
<polygon fill="white" stroke="none" points="-4,4 -4,-310 78.0934,-310 78.0934,4 -4,4"/>
<!-- 0 -->
<g id="node1" class="node"><title>0</title>
<ellipse fill="none" stroke="black" cx="37.0467" cy="-18" rx="37.0935" ry="18"/>
<text text-anchor="middle" x="37.0467" y="-14.3" font-family="Times New Roman,serif" font-size="14.00">bottom</text>
</g>
<!-- 1 -->
<g id="node2" class="node"><title>1</title>
<ellipse fill="none" stroke="black" cx="37.0467" cy="-72" rx="36.2938" ry="18"/>
<text text-anchor="middle" x="37.0467" y="-68.3" font-family="Times New Roman,serif" font-size="14.00">RS0, 0</text>
</g>
<!-- 1&#45;&gt;0 -->
<g id="edge1" class="edge"><title>1&#45;&gt;0</title>
<path fill="none" stroke="black" d="M37.0467,-53.7902C37.0467,-51.3082 37.0467,-48.8262 37.0467,-46.3443"/>
<polygon fill="black" stroke="black" points="40.5468,-46.1406 37.0467,-36.1406 33.5468,-46.1407 40.5468,-46.1406"/>
</g>
<!-- 2 -->
<g id="node3" class="node"><title>2</title>
<ellipse fill="none" stroke="black" cx="37.0467" cy="-126" rx="36.2938" ry="18"/>
<text text-anchor="middle" x="37.0467" y="-122.3" font-family="Times New Roman,serif" font-size="14.00">RS1, 0</text>
</g>
<!-- 2&#45;&gt;1 -->
<g id="edge2" class="edge"><title>2&#45;&gt;1</title>
<path fill="none" stroke="black" d="M37.0467,-107.79C37.0467,-105.308 37.0467,-102.826 37.0467,-100.344"/>
<polygon fill="black" stroke="black" points="40.5468,-100.141 37.0467,-90.1406 33.5468,-100.141 40.5468,-100.141"/>
</g>
<!-- 3 -->
<g id="node4" class="node"><title>3</title>
<ellipse fill="none" stroke="black" cx="37.0467" cy="-180" rx="36.2938" ry="18"/>
<text text-anchor="middle" x="37.0467" y="-176.3" font-family="Times New Roman,serif" font-size="14.00">RS2, 1</text>
</g>
<!-- 3&#45;&gt;2 -->
<g id="edge3" class="edge"><title>3&#45;&gt;2</title>
<path fill="none" stroke="black" d="M37.0467,-161.79C37.0467,-159.308 37.0467,-156.826 37.0467,-154.344"/>
<polygon fill="black" stroke="black" points="40.5468,-154.141 37.0467,-144.141 33.5468,-154.141 40.5468,-154.141"/>
</g>
<!-- 4 -->
<g id="node5" class="node"><title>4</title>
<ellipse fill="none" stroke="black" cx="37.0467" cy="-234" rx="36.2938" ry="18"/>
<text text-anchor="middle" x="37.0467" y="-230.3" font-family="Times New Roman,serif" font-size="14.00">RS3, 1</text>
</g>
<!-- 4&#45;&gt;3 -->
<g id="edge4" class="edge"><title>4&#45;&gt;3</title>
<path fill="none" stroke="black" d="M37.0467,-215.79C37.0467,-213.308 37.0467,-210.826 37.0467,-208.344"/>
<polygon fill="black" stroke="black" points="40.5468,-208.141 37.0467,-198.141 33.5468,-208.141 40.5468,-208.141"/>
</g>
<!-- 5 -->
<g id="node6" class="node"><title>5</title>
<ellipse fill="none" stroke="black" cx="37.0467" cy="-288" rx="36.2938" ry="18"/>
<text text-anchor="middle" x="37.0467" y="-284.3" font-family="Times New Roman,serif" font-size="14.00">RS2, 2</text>
</g>
<!-- 5&#45;&gt;4 -->
<g id="edge5" class="edge"><title>5&#45;&gt;4</title>
<path fill="none" stroke="black" d="M37.0467,-269.79C37.0467,-267.308 37.0467,-264.826 37.0467,-262.344"/>
<polygon fill="black" stroke="black" points="40.5468,-262.141 37.0467,-252.141 33.5468,-262.141 40.5468,-262.141"/>
</g>
</g>
</svg>
