<?xml version="1.0" encoding="UTF-8" standalone="no"?>
<!DOCTYPE svg PUBLIC "-//W3C//DTD SVG 1.1//EN"
 "http://www.w3.org/Graphics/SVG/1.1/DTD/svg11.dtd">
<!-- Generated by graphviz version 2.36.0 (20140111.2315)
 -->
<!-- Title: AST Pages: 1 -->
<svg width="74pt" height="188pt"
 viewBox="0.00 0.00 74.00 188.00" xmlns="http://www.w3.org/2000/svg" xmlns:xlink="http://www.w3.org/1999/xlink">
<g id="graph0" class="graph" transform="scale(1 1) rotate(0) translate(4 184)">
<title>AST</title>
<polygon fill="white" stroke="none" points="-4,4 -4,-184 70,-184 70,4 -4,4"/>
<!-- 0 -->
<g id="node1" class="node"><title>0</title>
<polygon fill="none" stroke="black" points="60,-180 6,-180 6,-144 60,-144 60,-180"/>
<text text-anchor="middle" x="33" y="-158.3" font-family="Times,serif" font-size="14.00">n s</text>
</g>
<!-- 17 -->
<g id="node2" class="node"><title>17</title>
<ellipse fill="none" stroke="black" cx="33" cy="-90" rx="33.1991" ry="18"/>
<text text-anchor="middle" x="33" y="-86.3" font-family="Times,serif" font-size="14.00">prod 1</text>
</g>
<!-- 0&#45;&gt;17 -->
<g id="edge1" class="edge"><title>0&#45;&gt;17</title>
<path fill="none" stroke="black" stroke-width="2" d="M33,-143.697C33,-135.983 33,-126.712 33,-118.112"/>
<polygon fill="black" stroke="black" stroke-width="2" points="36.5001,-118.104 33,-108.104 29.5001,-118.104 36.5001,-118.104"/>
</g>
<!-- 18 -->
<g id="node3" class="node"><title>18</title>
<polygon fill="none" stroke="black" points="60,-36 6,-36 6,-0 60,-0 60,-36"/>
<text text-anchor="middle" x="33" y="-14.3" font-family="Times,serif" font-size="14.00">t B</text>
</g>
<!-- 17&#45;&gt;18 -->
<g id="edge2" class="edge"><title>17&#45;&gt;18</title>
<path fill="none" stroke="black" d="M33,-71.6966C33,-63.9827 33,-54.7125 33,-46.1124"/>
<polygon fill="black" stroke="black" points="36.5001,-46.1043 33,-36.1043 29.5001,-46.1044 36.5001,-46.1043"/>
</g>
</g>
</svg>
