<?xml version="1.0" encoding="UTF-8" standalone="no"?>
<!DOCTYPE svg PUBLIC "-//W3C//DTD SVG 1.1//EN"
 "http://www.w3.org/Graphics/SVG/1.1/DTD/svg11.dtd">
<!-- Generated by graphviz version 2.38.0 (20140413.2041)
 -->
<!-- Title: AST Pages: 1 -->
<svg width="78pt" height="188pt"
 viewBox="0.00 0.00 78.19 188.00" xmlns="http://www.w3.org/2000/svg" xmlns:xlink="http://www.w3.org/1999/xlink">
<g id="graph0" class="graph" transform="scale(1 1) rotate(0) translate(4 184)">
<title>AST</title>
<polygon fill="white" stroke="none" points="-4,4 -4,-184 74.1938,-184 74.1938,4 -4,4"/>
<!-- 0 -->
<g id="node1" class="node"><title>0</title>
<polygon fill="none" stroke="black" points="62.0969,-180 8.09689,-180 8.09689,-144 62.0969,-144 62.0969,-180"/>
<text text-anchor="middle" x="35.0969" y="-158.3" font-family="Times New Roman,serif" font-size="14.00">n s</text>
</g>
<!-- 17 -->
<g id="node2" class="node"><title>17</title>
<ellipse fill="none" stroke="black" cx="35.0969" cy="-90" rx="35.194" ry="18"/>
<text text-anchor="middle" x="35.0969" y="-86.3" font-family="Times New Roman,serif" font-size="14.00">prod 1</text>
</g>
<!-- 0&#45;&gt;17 -->
<g id="edge1" class="edge"><title>0&#45;&gt;17</title>
<path fill="none" stroke="black" stroke-width="2" d="M35.0969,-143.697C35.0969,-135.983 35.0969,-126.712 35.0969,-118.112"/>
<polygon fill="black" stroke="black" stroke-width="2" points="38.597,-118.104 35.0969,-108.104 31.597,-118.104 38.597,-118.104"/>
</g>
<!-- 18 -->
<g id="node3" class="node"><title>18</title>
<polygon fill="none" stroke="black" points="62.0969,-36 8.09689,-36 8.09689,-0 62.0969,-0 62.0969,-36"/>
<text text-anchor="middle" x="35.0969" y="-14.3" font-family="Times New Roman,serif" font-size="14.00">t B</text>
</g>
<!-- 17&#45;&gt;18 -->
<g id="edge2" class="edge"><title>17&#45;&gt;18</title>
<path fill="none" stroke="black" d="M35.0969,-71.6966C35.0969,-63.9827 35.0969,-54.7125 35.0969,-46.1124"/>
<polygon fill="black" stroke="black" points="38.597,-46.1043 35.0969,-36.1043 31.597,-46.1044 38.597,-46.1043"/>
</g>
</g>
</svg>
