<?xml version="1.0" encoding="UTF-8" standalone="no"?>
<!DOCTYPE svg PUBLIC "-//W3C//DTD SVG 1.1//EN"
 "http://www.w3.org/Graphics/SVG/1.1/DTD/svg11.dtd">
<!-- Generated by graphviz version 2.36.0 (20140111.2315)
 -->
<!-- Title: AST Pages: 1 -->
<svg width="160pt" height="332pt"
 viewBox="0.00 0.00 160.00 332.00" xmlns="http://www.w3.org/2000/svg" xmlns:xlink="http://www.w3.org/1999/xlink">
<g id="graph0" class="graph" transform="scale(1 1) rotate(0) translate(4 328)">
<title>AST</title>
<polygon fill="white" stroke="none" points="-4,4 -4,-328 156,-328 156,4 -4,4"/>
<!-- 4 -->
<g id="node1" class="node"><title>4</title>
<polygon fill="none" stroke="black" points="104,-324 50,-324 50,-288 104,-288 104,-324"/>
<text text-anchor="middle" x="77" y="-302.3" font-family="Times,serif" font-size="14.00">n s</text>
</g>
<!-- 11 -->
<g id="node2" class="node"><title>11</title>
<ellipse fill="none" stroke="black" cx="77" cy="-234" rx="33.1991" ry="18"/>
<text text-anchor="middle" x="77" y="-230.3" font-family="Times,serif" font-size="14.00">prod 0</text>
</g>
<!-- 4&#45;&gt;11 -->
<g id="edge1" class="edge"><title>4&#45;&gt;11</title>
<path fill="none" stroke="black" stroke-width="2" d="M77,-287.697C77,-279.983 77,-270.712 77,-262.112"/>
<polygon fill="black" stroke="black" stroke-width="2" points="80.5001,-262.104 77,-252.104 73.5001,-262.104 80.5001,-262.104"/>
</g>
<!-- 0 -->
<g id="node3" class="node"><title>0</title>
<polygon fill="none" stroke="black" points="67,-180 13,-180 13,-144 67,-144 67,-180"/>
<text text-anchor="middle" x="40" y="-158.3" font-family="Times,serif" font-size="14.00">n s</text>
</g>
<!-- 11&#45;&gt;0 -->
<g id="edge2" class="edge"><title>11&#45;&gt;0</title>
<path fill="none" stroke="black" d="M68.2315,-216.411C63.9809,-208.369 58.7721,-198.515 53.9912,-189.47"/>
<polygon fill="black" stroke="black" points="56.9893,-187.652 49.2219,-180.447 50.8007,-190.923 56.9893,-187.652"/>
</g>
<!-- 1 -->
<g id="node4" class="node"><title>1</title>
<polygon fill="none" stroke="black" points="142,-180 88,-180 88,-144 142,-144 142,-180"/>
<text text-anchor="middle" x="115" y="-158.3" font-family="Times,serif" font-size="14.00">n s</text>
</g>
<!-- 11&#45;&gt;1 -->
<g id="edge3" class="edge"><title>11&#45;&gt;1</title>
<path fill="none" stroke="black" d="M86.0055,-216.411C90.371,-208.369 95.7205,-198.515 100.631,-189.47"/>
<polygon fill="black" stroke="black" points="103.834,-190.905 105.529,-180.447 97.6819,-187.565 103.834,-190.905"/>
</g>
<!-- 17 -->
<g id="node7" class="node"><title>17</title>
<ellipse fill="none" stroke="black" cx="33" cy="-90" rx="33.1991" ry="18"/>
<text text-anchor="middle" x="33" y="-86.3" font-family="Times,serif" font-size="14.00">prod 1</text>
</g>
<!-- 0&#45;&gt;17 -->
<g id="edge6" class="edge"><title>0&#45;&gt;17</title>
<path fill="none" stroke="black" stroke-width="2" d="M38.2697,-143.697C37.4983,-135.983 36.5712,-126.712 35.7112,-118.112"/>
<polygon fill="black" stroke="black" stroke-width="2" points="39.1882,-117.706 34.7104,-108.104 32.2229,-118.403 39.1882,-117.706"/>
</g>
<!-- 15 -->
<g id="node5" class="node"><title>15</title>
<ellipse fill="none" stroke="black" cx="119" cy="-90" rx="33.1991" ry="18"/>
<text text-anchor="middle" x="119" y="-86.3" font-family="Times,serif" font-size="14.00">prod 1</text>
</g>
<!-- 1&#45;&gt;15 -->
<g id="edge4" class="edge"><title>1&#45;&gt;15</title>
<path fill="none" stroke="black" stroke-width="2" d="M115.989,-143.697C116.43,-135.983 116.959,-126.712 117.451,-118.112"/>
<polygon fill="black" stroke="black" stroke-width="2" points="120.946,-118.288 118.023,-108.104 113.958,-117.888 120.946,-118.288"/>
</g>
<!-- 16 -->
<g id="node6" class="node"><title>16</title>
<polygon fill="none" stroke="black" points="146,-36 92,-36 92,-0 146,-0 146,-36"/>
<text text-anchor="middle" x="119" y="-14.3" font-family="Times,serif" font-size="14.00">t B</text>
</g>
<!-- 15&#45;&gt;16 -->
<g id="edge5" class="edge"><title>15&#45;&gt;16</title>
<path fill="none" stroke="black" d="M119,-71.6966C119,-63.9827 119,-54.7125 119,-46.1124"/>
<polygon fill="black" stroke="black" points="122.5,-46.1043 119,-36.1043 115.5,-46.1044 122.5,-46.1043"/>
</g>
<!-- 18 -->
<g id="node8" class="node"><title>18</title>
<polygon fill="none" stroke="black" points="60,-36 6,-36 6,-0 60,-0 60,-36"/>
<text text-anchor="middle" x="33" y="-14.3" font-family="Times,serif" font-size="14.00">t B</text>
</g>
<!-- 17&#45;&gt;18 -->
<g id="edge7" class="edge"><title>17&#45;&gt;18</title>
<path fill="none" stroke="black" d="M33,-71.6966C33,-63.9827 33,-54.7125 33,-46.1124"/>
<polygon fill="black" stroke="black" points="36.5001,-46.1043 33,-36.1043 29.5001,-46.1044 36.5001,-46.1043"/>
</g>
</g>
</svg>
