<?xml version="1.0" encoding="UTF-8" standalone="no"?>
<!DOCTYPE svg PUBLIC "-//W3C//DTD SVG 1.1//EN"
 "http://www.w3.org/Graphics/SVG/1.1/DTD/svg11.dtd">
<!-- Generated by graphviz version 2.38.0 (20140413.2041)
 -->
<!-- Title: AST Pages: 1 -->
<svg width="166pt" height="332pt"
 viewBox="0.00 0.00 166.19 332.00" xmlns="http://www.w3.org/2000/svg" xmlns:xlink="http://www.w3.org/1999/xlink">
<g id="graph0" class="graph" transform="scale(1 1) rotate(0) translate(4 328)">
<title>AST</title>
<polygon fill="white" stroke="none" points="-4,4 -4,-328 162.194,-328 162.194,4 -4,4"/>
<!-- 4 -->
<g id="node1" class="node"><title>4</title>
<polygon fill="none" stroke="black" points="108.097,-324 54.0969,-324 54.0969,-288 108.097,-288 108.097,-324"/>
<text text-anchor="middle" x="81.0969" y="-302.3" font-family="Times New Roman,serif" font-size="14.00">n s</text>
</g>
<!-- 11 -->
<g id="node2" class="node"><title>11</title>
<ellipse fill="none" stroke="black" cx="81.0969" cy="-234" rx="35.194" ry="18"/>
<text text-anchor="middle" x="81.0969" y="-230.3" font-family="Times New Roman,serif" font-size="14.00">prod 0</text>
</g>
<!-- 4&#45;&gt;11 -->
<g id="edge1" class="edge"><title>4&#45;&gt;11</title>
<path fill="none" stroke="black" stroke-width="2" d="M81.0969,-287.697C81.0969,-279.983 81.0969,-270.712 81.0969,-262.112"/>
<polygon fill="black" stroke="black" stroke-width="2" points="84.597,-262.104 81.0969,-252.104 77.597,-262.104 84.597,-262.104"/>
</g>
<!-- 0 -->
<g id="node3" class="node"><title>0</title>
<polygon fill="none" stroke="black" points="70.0969,-180 16.0969,-180 16.0969,-144 70.0969,-144 70.0969,-180"/>
<text text-anchor="middle" x="43.0969" y="-158.3" font-family="Times New Roman,serif" font-size="14.00">n s</text>
</g>
<!-- 11&#45;&gt;0 -->
<g id="edge2" class="edge"><title>11&#45;&gt;0</title>
<path fill="none" stroke="black" d="M72.0914,-216.411C67.7259,-208.369 62.3764,-198.515 57.4662,-189.47"/>
<polygon fill="black" stroke="black" points="60.415,-187.565 52.568,-180.447 54.263,-190.905 60.415,-187.565"/>
</g>
<!-- 1 -->
<g id="node4" class="node"><title>1</title>
<polygon fill="none" stroke="black" points="146.097,-180 92.0969,-180 92.0969,-144 146.097,-144 146.097,-180"/>
<text text-anchor="middle" x="119.097" y="-158.3" font-family="Times New Roman,serif" font-size="14.00">n s</text>
</g>
<!-- 11&#45;&gt;1 -->
<g id="edge3" class="edge"><title>11&#45;&gt;1</title>
<path fill="none" stroke="black" d="M90.1024,-216.411C94.4678,-208.369 99.8174,-198.515 104.728,-189.47"/>
<polygon fill="black" stroke="black" points="107.931,-190.905 109.626,-180.447 101.779,-187.565 107.931,-190.905"/>
</g>
<!-- 17 -->
<g id="node7" class="node"><title>17</title>
<ellipse fill="none" stroke="black" cx="35.0969" cy="-90" rx="35.194" ry="18"/>
<text text-anchor="middle" x="35.0969" y="-86.3" font-family="Times New Roman,serif" font-size="14.00">prod 1</text>
</g>
<!-- 0&#45;&gt;17 -->
<g id="edge6" class="edge"><title>0&#45;&gt;17</title>
<path fill="none" stroke="black" stroke-width="2" d="M41.1194,-143.697C40.2378,-135.983 39.1783,-126.712 38.1954,-118.112"/>
<polygon fill="black" stroke="black" stroke-width="2" points="41.6646,-117.642 37.0517,-108.104 34.7099,-118.437 41.6646,-117.642"/>
</g>
<!-- 15 -->
<g id="node5" class="node"><title>15</title>
<ellipse fill="none" stroke="black" cx="123.097" cy="-90" rx="35.194" ry="18"/>
<text text-anchor="middle" x="123.097" y="-86.3" font-family="Times New Roman,serif" font-size="14.00">prod 1</text>
</g>
<!-- 1&#45;&gt;15 -->
<g id="edge4" class="edge"><title>1&#45;&gt;15</title>
<path fill="none" stroke="black" stroke-width="2" d="M120.086,-143.697C120.526,-135.983 121.056,-126.712 121.548,-118.112"/>
<polygon fill="black" stroke="black" stroke-width="2" points="125.043,-118.288 122.119,-108.104 118.055,-117.888 125.043,-118.288"/>
</g>
<!-- 16 -->
<g id="node6" class="node"><title>16</title>
<polygon fill="none" stroke="black" points="150.097,-36 96.0969,-36 96.0969,-0 150.097,-0 150.097,-36"/>
<text text-anchor="middle" x="123.097" y="-14.3" font-family="Times New Roman,serif" font-size="14.00">t B</text>
</g>
<!-- 15&#45;&gt;16 -->
<g id="edge5" class="edge"><title>15&#45;&gt;16</title>
<path fill="none" stroke="black" d="M123.097,-71.6966C123.097,-63.9827 123.097,-54.7125 123.097,-46.1124"/>
<polygon fill="black" stroke="black" points="126.597,-46.1043 123.097,-36.1043 119.597,-46.1044 126.597,-46.1043"/>
</g>
<!-- 18 -->
<g id="node8" class="node"><title>18</title>
<polygon fill="none" stroke="black" points="62.0969,-36 8.09689,-36 8.09689,-0 62.0969,-0 62.0969,-36"/>
<text text-anchor="middle" x="35.0969" y="-14.3" font-family="Times New Roman,serif" font-size="14.00">t B</text>
</g>
<!-- 17&#45;&gt;18 -->
<g id="edge7" class="edge"><title>17&#45;&gt;18</title>
<path fill="none" stroke="black" d="M35.0969,-71.6966C35.0969,-63.9827 35.0969,-54.7125 35.0969,-46.1124"/>
<polygon fill="black" stroke="black" points="38.597,-46.1043 35.0969,-36.1043 31.597,-46.1044 38.597,-46.1043"/>
</g>
</g>
</svg>
