<?xml version="1.0" encoding="UTF-8" standalone="no"?>
<!DOCTYPE svg PUBLIC "-//W3C//DTD SVG 1.1//EN"
 "http://www.w3.org/Graphics/SVG/1.1/DTD/svg11.dtd">
<!-- Generated by graphviz version 2.38.0 (20140413.2041)
 -->
<!-- Title: AST Pages: 1 -->
<svg width="522pt" height="673pt"
 viewBox="0.00 0.00 522.00 673.20" xmlns="http://www.w3.org/2000/svg" xmlns:xlink="http://www.w3.org/1999/xlink">
<g id="graph0" class="graph" transform="scale(1 1) rotate(0) translate(54 619.2)">
<title>AST</title>
<polygon fill="white" stroke="none" points="-54,54 -54,-619.2 468,-619.2 468,54 -54,54"/>
<!-- 6 -->
<g id="node1" class="node"><title>6</title>
<ellipse fill="red" stroke="black" cx="205" cy="-547.2" rx="29.4969" ry="18"/>
<text text-anchor="middle" x="205" y="-543.5" font-family="Times New Roman,serif" font-size="14.00">s &lt;|&gt;</text>
</g>
<!-- 7 -->
<g id="node2" class="node"><title>7</title>
<ellipse fill="black" stroke="black" cx="241" cy="-509.4" rx="1.8" ry="1.8"/>
</g>
<!-- 6&#45;&gt;7 -->
<g id="edge1" class="edge"><title>6&#45;&gt;7</title>
<path fill="none" stroke="black" d="M220.059,-531.225C224.481,-526.828 229.146,-522.188 232.948,-518.407"/>
<polygon fill="black" stroke="black" points="235.613,-520.693 240.236,-511.16 230.677,-515.73 235.613,-520.693"/>
</g>
<!-- 8 -->
<g id="node3" class="node"><title>8</title>
<ellipse fill="black" stroke="black" cx="169" cy="-509.4" rx="1.8" ry="1.8"/>
</g>
<!-- 6&#45;&gt;8 -->
<g id="edge2" class="edge"><title>6&#45;&gt;8</title>
<path fill="none" stroke="black" d="M189.941,-531.225C185.519,-526.828 180.854,-522.188 177.052,-518.407"/>
<polygon fill="black" stroke="black" points="179.323,-515.73 169.764,-511.16 174.387,-520.693 179.323,-515.73"/>
</g>
<!-- 9 -->
<g id="node4" class="node"><title>9</title>
<polygon fill="none" stroke="black" points="268,-489.6 214,-489.6 214,-453.6 268,-453.6 268,-489.6"/>
<text text-anchor="middle" x="241" y="-467.9" font-family="Times New Roman,serif" font-size="14.00">2 1</text>
</g>
<!-- 7&#45;&gt;9 -->
<g id="edge3" class="edge"><title>7&#45;&gt;9</title>
<path fill="none" stroke="black" d="M241,-507.515C241,-506.165 241,-503.383 241,-499.95"/>
<polygon fill="black" stroke="black" points="244.5,-499.884 241,-489.884 237.5,-499.884 244.5,-499.884"/>
</g>
<!-- 10 -->
<g id="node5" class="node"><title>10</title>
<ellipse fill="none" stroke="black" cx="305" cy="-396" rx="27" ry="18"/>
<text text-anchor="middle" x="305" y="-392.3" font-family="Times New Roman,serif" font-size="14.00">s</text>
</g>
<!-- 7&#45;&gt;10 -->
<g id="edge4" class="edge"><title>7&#45;&gt;10</title>
<path fill="none" stroke="black" d="M242.349,-508.098C247.631,-506.845 267.107,-501.548 277,-489.6 292.344,-471.068 299.284,-444.28 302.42,-424.279"/>
<polygon fill="black" stroke="black" points="305.905,-424.617 303.769,-414.24 298.968,-423.685 305.905,-424.617"/>
</g>
<!-- 11 -->
<g id="node6" class="node"><title>11</title>
<polygon fill="none" stroke="black" points="133,-338.4 79,-338.4 79,-302.4 133,-302.4 133,-338.4"/>
<text text-anchor="middle" x="106" y="-316.7" font-family="Times New Roman,serif" font-size="14.00">2 1</text>
</g>
<!-- 8&#45;&gt;11 -->
<g id="edge5" class="edge"><title>8&#45;&gt;11</title>
<path fill="none" stroke="black" d="M167.708,-508.048C162.635,-506.605 143.839,-500.697 133,-489.6 114.028,-470.177 106,-461.951 106,-434.8 106,-434.8 106,-434.8 106,-395 106,-379.775 106,-362.779 106,-348.959"/>
<polygon fill="black" stroke="black" points="109.5,-348.65 106,-338.65 102.5,-348.65 109.5,-348.65"/>
</g>
<!-- 12 -->
<g id="node7" class="node"><title>12</title>
<ellipse fill="none" stroke="black" cx="169" cy="-471.6" rx="27" ry="18"/>
<text text-anchor="middle" x="169" y="-467.9" font-family="Times New Roman,serif" font-size="14.00">s</text>
</g>
<!-- 8&#45;&gt;12 -->
<g id="edge6" class="edge"><title>8&#45;&gt;12</title>
<path fill="none" stroke="black" d="M169,-507.515C169,-506.165 169,-503.383 169,-499.95"/>
<polygon fill="black" stroke="black" points="172.5,-499.884 169,-489.884 165.5,-499.884 172.5,-499.884"/>
</g>
<!-- 13 -->
<g id="node8" class="node"><title>13</title>
<ellipse fill="black" stroke="black" cx="186" cy="-433.8" rx="1.8" ry="1.8"/>
</g>
<!-- 9&#45;&gt;13 -->
<g id="edge7" class="edge"><title>9&#45;&gt;13</title>
<path fill="none" stroke="black" d="M214.789,-453.539C207.879,-449.041 200.86,-444.472 195.483,-440.972"/>
<polygon fill="black" stroke="black" points="197.304,-437.982 187.013,-435.46 193.485,-443.848 197.304,-437.982"/>
</g>
<!-- 14 -->
<g id="node9" class="node"><title>14</title>
<ellipse fill="black" stroke="black" cx="307" cy="-358.2" rx="1.8" ry="1.8"/>
</g>
<!-- 10&#45;&gt;14 -->
<g id="edge8" class="edge"><title>10&#45;&gt;14</title>
<path fill="none" stroke="black" d="M305.953,-377.939C306.097,-375.363 306.242,-372.765 306.377,-370.357"/>
<polygon fill="black" stroke="black" points="309.884,-370.319 306.948,-360.139 302.895,-369.928 309.884,-370.319"/>
</g>
<!-- 15 -->
<g id="node10" class="node"><title>15</title>
<ellipse fill="black" stroke="black" cx="102" cy="-282.6" rx="1.8" ry="1.8"/>
</g>
<!-- 11&#45;&gt;15 -->
<g id="edge9" class="edge"><title>11&#45;&gt;15</title>
<path fill="none" stroke="black" d="M104.094,-302.339C103.806,-299.763 103.516,-297.165 103.247,-294.757"/>
<polygon fill="black" stroke="black" points="106.694,-294.089 102.105,-284.539 99.7371,-294.866 106.694,-294.089"/>
</g>
<!-- 16 -->
<g id="node11" class="node"><title>16</title>
<ellipse fill="black" stroke="black" cx="233" cy="-433.8" rx="1.8" ry="1.8"/>
</g>
<!-- 12&#45;&gt;16 -->
<g id="edge10" class="edge"><title>12&#45;&gt;16</title>
<path fill="none" stroke="black" d="M189.25,-459.273C200.529,-452.963 214.07,-445.389 223.07,-440.354"/>
<polygon fill="black" stroke="black" points="224.87,-443.358 231.889,-435.421 221.453,-437.249 224.87,-443.358"/>
</g>
<!-- 17 -->
<g id="node12" class="node"><title>17</title>
<ellipse fill="none" stroke="black" cx="161" cy="-396" rx="27" ry="18"/>
<text text-anchor="middle" x="161" y="-392.3" font-family="Times New Roman,serif" font-size="14.00">s</text>
</g>
<!-- 13&#45;&gt;17 -->
<g id="edge11" class="edge"><title>13&#45;&gt;17</title>
<path fill="none" stroke="black" d="M185.382,-431.915C184.168,-430.177 181.296,-426.063 177.931,-421.246"/>
<polygon fill="black" stroke="black" points="180.606,-418.962 172.011,-412.768 174.867,-422.97 180.606,-418.962"/>
</g>
<!-- 18 -->
<g id="node13" class="node"><title>18</title>
<polygon fill="none" stroke="black" points="334,-338.4 280,-338.4 280,-302.4 334,-302.4 334,-338.4"/>
<text text-anchor="middle" x="307" y="-316.7" font-family="Times New Roman,serif" font-size="14.00">1 2</text>
</g>
<!-- 14&#45;&gt;18 -->
<g id="edge12" class="edge"><title>14&#45;&gt;18</title>
<path fill="none" stroke="black" d="M307,-356.315C307,-354.965 307,-352.183 307,-348.75"/>
<polygon fill="black" stroke="black" points="310.5,-348.684 307,-338.684 303.5,-348.684 310.5,-348.684"/>
</g>
<!-- 19 -->
<g id="node14" class="node"><title>19</title>
<polygon fill="none" stroke="black" points="406,-338.4 352,-338.4 352,-302.4 406,-302.4 406,-338.4"/>
<text text-anchor="middle" x="379" y="-316.7" font-family="Times New Roman,serif" font-size="14.00">RBR</text>
</g>
<!-- 14&#45;&gt;19 -->
<g id="edge13" class="edge"><title>14&#45;&gt;19</title>
<path fill="none" stroke="black" d="M308.018,-356.694C312.047,-354.69 327.413,-347.05 342.823,-339.388"/>
<polygon fill="black" stroke="black" points="344.419,-342.503 351.815,-334.917 341.303,-336.235 344.419,-342.503"/>
</g>
<!-- 20 -->
<g id="node15" class="node"><title>20</title>
<ellipse fill="none" stroke="black" cx="99" cy="-244.8" rx="27" ry="18"/>
<text text-anchor="middle" x="99" y="-241.1" font-family="Times New Roman,serif" font-size="14.00">s</text>
</g>
<!-- 15&#45;&gt;20 -->
<g id="edge14" class="edge"><title>15&#45;&gt;20</title>
<path fill="none" stroke="black" d="M101.926,-280.715C101.813,-279.365 101.58,-276.583 101.292,-273.15"/>
<polygon fill="black" stroke="black" points="104.771,-272.757 100.448,-263.084 97.7958,-273.341 104.771,-272.757"/>
</g>
<!-- 16&#45;&gt;10 -->
<g id="edge16" class="edge"><title>16&#45;&gt;10</title>
<path fill="none" stroke="black" d="M234.018,-432.294C238.546,-430.042 257.394,-420.671 274.53,-412.15"/>
<polygon fill="black" stroke="black" points="276.376,-415.141 283.772,-407.555 273.259,-408.873 276.376,-415.141"/>
</g>
<!-- 21 -->
<g id="node16" class="node"><title>21</title>
<polygon fill="none" stroke="black" points="260,-414 206,-414 206,-378 260,-378 260,-414"/>
<text text-anchor="middle" x="233" y="-392.3" font-family="Times New Roman,serif" font-size="14.00">2 1</text>
</g>
<!-- 16&#45;&gt;21 -->
<g id="edge15" class="edge"><title>16&#45;&gt;21</title>
<path fill="none" stroke="black" d="M233,-431.915C233,-430.565 233,-427.783 233,-424.35"/>
<polygon fill="black" stroke="black" points="236.5,-424.284 233,-414.284 229.5,-424.284 236.5,-424.284"/>
</g>
<!-- 22 -->
<g id="node17" class="node"><title>22</title>
<ellipse fill="black" stroke="black" cx="161" cy="-358.2" rx="1.8" ry="1.8"/>
</g>
<!-- 17&#45;&gt;22 -->
<g id="edge17" class="edge"><title>17&#45;&gt;22</title>
<path fill="none" stroke="black" d="M161,-377.939C161,-375.363 161,-372.765 161,-370.357"/>
<polygon fill="black" stroke="black" points="164.5,-370.139 161,-360.139 157.5,-370.139 164.5,-370.139"/>
</g>
<!-- 23 -->
<g id="node18" class="node"><title>23</title>
<ellipse fill="black" stroke="black" cx="315" cy="-282.6" rx="1.8" ry="1.8"/>
</g>
<!-- 18&#45;&gt;23 -->
<g id="edge18" class="edge"><title>18&#45;&gt;23</title>
<path fill="none" stroke="black" d="M310.813,-302.339C311.414,-299.646 312.022,-296.929 312.58,-294.43"/>
<polygon fill="black" stroke="black" points="316.025,-295.062 314.79,-284.539 309.193,-293.535 316.025,-295.062"/>
</g>
<!-- 24 -->
<g id="node19" class="node"><title>24</title>
<ellipse fill="black" stroke="black" cx="99" cy="-207" rx="1.8" ry="1.8"/>
</g>
<!-- 20&#45;&gt;24 -->
<g id="edge19" class="edge"><title>20&#45;&gt;24</title>
<path fill="none" stroke="black" d="M99,-226.739C99,-224.163 99,-221.565 99,-219.157"/>
<polygon fill="black" stroke="black" points="102.5,-218.939 99,-208.939 95.5001,-218.939 102.5,-218.939"/>
</g>
<!-- 25 -->
<g id="node20" class="node"><title>25</title>
<ellipse fill="black" stroke="black" cx="221" cy="-358.2" rx="1.8" ry="1.8"/>
</g>
<!-- 21&#45;&gt;25 -->
<g id="edge20" class="edge"><title>21&#45;&gt;25</title>
<path fill="none" stroke="black" d="M227.281,-377.939C226.339,-375.129 225.388,-372.292 224.521,-369.705"/>
<polygon fill="black" stroke="black" points="227.812,-368.508 221.315,-360.139 221.174,-370.733 227.812,-368.508"/>
</g>
<!-- 22&#45;&gt;11 -->
<g id="edge21" class="edge"><title>22&#45;&gt;11</title>
<path fill="none" stroke="black" d="M160.045,-356.579C157.429,-354.876 149.754,-349.88 140.978,-344.168"/>
<polygon fill="black" stroke="black" points="142.648,-341.078 132.357,-338.556 138.829,-346.945 142.648,-341.078"/>
</g>
<!-- 26 -->
<g id="node21" class="node"><title>26</title>
<ellipse fill="none" stroke="black" cx="210" cy="-320.4" rx="27" ry="18"/>
<text text-anchor="middle" x="210" y="-316.7" font-family="Times New Roman,serif" font-size="14.00">s</text>
</g>
<!-- 22&#45;&gt;26 -->
<g id="edge22" class="edge"><title>22&#45;&gt;26</title>
<path fill="none" stroke="black" d="M161.85,-356.579C164.71,-354.49 174.355,-347.443 184.269,-340.199"/>
<polygon fill="black" stroke="black" points="186.508,-342.898 192.517,-334.173 182.378,-337.246 186.508,-342.898"/>
</g>
<!-- 27 -->
<g id="node22" class="node"><title>27</title>
<polygon fill="none" stroke="black" points="414,-262.8 360,-262.8 360,-226.8 414,-226.8 414,-262.8"/>
<text text-anchor="middle" x="387" y="-241.1" font-family="Times New Roman,serif" font-size="14.00">LBR</text>
</g>
<!-- 23&#45;&gt;27 -->
<g id="edge23" class="edge"><title>23&#45;&gt;27</title>
<path fill="none" stroke="black" d="M316.018,-281.094C320.047,-279.09 335.413,-271.45 350.823,-263.788"/>
<polygon fill="black" stroke="black" points="352.419,-266.903 359.815,-259.317 349.303,-260.635 352.419,-266.903"/>
</g>
<!-- 28 -->
<g id="node23" class="node"><title>28</title>
<ellipse fill="none" stroke="black" cx="315" cy="-244.8" rx="27" ry="18"/>
<text text-anchor="middle" x="315" y="-241.1" font-family="Times New Roman,serif" font-size="14.00">s</text>
</g>
<!-- 23&#45;&gt;28 -->
<g id="edge24" class="edge"><title>23&#45;&gt;28</title>
<path fill="none" stroke="black" d="M315,-280.715C315,-279.365 315,-276.583 315,-273.15"/>
<polygon fill="black" stroke="black" points="318.5,-273.084 315,-263.084 311.5,-273.084 318.5,-273.084"/>
</g>
<!-- 29 -->
<g id="node24" class="node"><title>29</title>
<polygon fill="none" stroke="black" points="126,-187.2 72,-187.2 72,-151.2 126,-151.2 126,-187.2"/>
<text text-anchor="middle" x="99" y="-165.5" font-family="Times New Roman,serif" font-size="14.00">1 2</text>
</g>
<!-- 24&#45;&gt;29 -->
<g id="edge25" class="edge"><title>24&#45;&gt;29</title>
<path fill="none" stroke="black" d="M99,-205.115C99,-203.765 99,-200.983 99,-197.55"/>
<polygon fill="black" stroke="black" points="102.5,-197.484 99,-187.484 95.5001,-197.484 102.5,-197.484"/>
</g>
<!-- 30 -->
<g id="node25" class="node"><title>30</title>
<polygon fill="none" stroke="black" points="54,-187.2 0,-187.2 0,-151.2 54,-151.2 54,-187.2"/>
<text text-anchor="middle" x="27" y="-165.5" font-family="Times New Roman,serif" font-size="14.00">RBR</text>
</g>
<!-- 24&#45;&gt;30 -->
<g id="edge26" class="edge"><title>24&#45;&gt;30</title>
<path fill="none" stroke="black" d="M97.9822,-205.494C93.953,-203.49 78.5868,-195.85 63.1773,-188.188"/>
<polygon fill="black" stroke="black" points="64.6973,-185.035 54.1848,-183.717 61.5807,-191.303 64.6973,-185.035"/>
</g>
<!-- 25&#45;&gt;26 -->
<g id="edge27" class="edge"><title>25&#45;&gt;26</title>
<path fill="none" stroke="black" d="M220.728,-356.315C220.281,-354.861 219.324,-351.747 218.157,-347.949"/>
<polygon fill="black" stroke="black" points="221.477,-346.835 215.194,-338.304 214.786,-348.891 221.477,-346.835"/>
</g>
<!-- 31 -->
<g id="node26" class="node"><title>31</title>
<ellipse fill="black" stroke="black" cx="210" cy="-282.6" rx="1.8" ry="1.8"/>
</g>
<!-- 26&#45;&gt;31 -->
<g id="edge28" class="edge"><title>26&#45;&gt;31</title>
<path fill="none" stroke="black" d="M210,-302.339C210,-299.763 210,-297.165 210,-294.757"/>
<polygon fill="black" stroke="black" points="213.5,-294.539 210,-284.539 206.5,-294.539 213.5,-294.539"/>
</g>
<!-- 32 -->
<g id="node27" class="node"><title>32</title>
<ellipse fill="black" stroke="black" cx="315" cy="-207" rx="1.8" ry="1.8"/>
</g>
<!-- 28&#45;&gt;32 -->
<g id="edge29" class="edge"><title>28&#45;&gt;32</title>
<path fill="none" stroke="black" d="M315,-226.739C315,-224.163 315,-221.565 315,-219.157"/>
<polygon fill="black" stroke="black" points="318.5,-218.939 315,-208.939 311.5,-218.939 318.5,-218.939"/>
</g>
<!-- 33 -->
<g id="node28" class="node"><title>33</title>
<ellipse fill="black" stroke="black" cx="99" cy="-131.4" rx="1.8" ry="1.8"/>
</g>
<!-- 29&#45;&gt;33 -->
<g id="edge30" class="edge"><title>29&#45;&gt;33</title>
<path fill="none" stroke="black" d="M99,-151.139C99,-148.563 99,-145.965 99,-143.557"/>
<polygon fill="black" stroke="black" points="102.5,-143.339 99,-133.339 95.5001,-143.339 102.5,-143.339"/>
</g>
<!-- 34 -->
<g id="node29" class="node"><title>34</title>
<polygon fill="none" stroke="black" points="270,-262.8 216,-262.8 216,-226.8 270,-226.8 270,-262.8"/>
<text text-anchor="middle" x="243" y="-241.1" font-family="Times New Roman,serif" font-size="14.00">1 2</text>
</g>
<!-- 31&#45;&gt;34 -->
<g id="edge31" class="edge"><title>31&#45;&gt;34</title>
<path fill="none" stroke="black" d="M210.816,-280.715C212.353,-279.047 215.905,-275.194 220.112,-270.63"/>
<polygon fill="black" stroke="black" points="222.864,-272.809 227.068,-263.084 217.717,-268.065 222.864,-272.809"/>
</g>
<!-- 35 -->
<g id="node30" class="node"><title>35</title>
<polygon fill="none" stroke="black" points="198,-262.8 144,-262.8 144,-226.8 198,-226.8 198,-262.8"/>
<text text-anchor="middle" x="171" y="-241.1" font-family="Times New Roman,serif" font-size="14.00">RBR</text>
</g>
<!-- 31&#45;&gt;35 -->
<g id="edge32" class="edge"><title>31&#45;&gt;35</title>
<path fill="none" stroke="black" d="M209.036,-280.715C207.133,-278.968 202.616,-274.822 197.334,-269.973"/>
<polygon fill="black" stroke="black" points="199.563,-267.268 189.829,-263.084 194.829,-272.425 199.563,-267.268"/>
</g>
<!-- 36 -->
<g id="node31" class="node"><title>36</title>
<polygon fill="none" stroke="black" points="342,-187.2 288,-187.2 288,-151.2 342,-151.2 342,-187.2"/>
<text text-anchor="middle" x="315" y="-165.5" font-family="Times New Roman,serif" font-size="14.00">NUM</text>
</g>
<!-- 32&#45;&gt;36 -->
<g id="edge33" class="edge"><title>32&#45;&gt;36</title>
<path fill="none" stroke="black" d="M315,-205.115C315,-203.765 315,-200.983 315,-197.55"/>
<polygon fill="black" stroke="black" points="318.5,-197.484 315,-187.484 311.5,-197.484 318.5,-197.484"/>
</g>
<!-- 37 -->
<g id="node32" class="node"><title>37</title>
<polygon fill="none" stroke="black" points="198,-111.6 144,-111.6 144,-75.6 198,-75.6 198,-111.6"/>
<text text-anchor="middle" x="171" y="-89.9" font-family="Times New Roman,serif" font-size="14.00">LBR</text>
</g>
<!-- 33&#45;&gt;37 -->
<g id="edge34" class="edge"><title>33&#45;&gt;37</title>
<path fill="none" stroke="black" d="M100.018,-129.894C104.047,-127.89 119.413,-120.25 134.823,-112.588"/>
<polygon fill="black" stroke="black" points="136.419,-115.703 143.815,-108.117 133.303,-109.435 136.419,-115.703"/>
</g>
<!-- 38 -->
<g id="node33" class="node"><title>38</title>
<ellipse fill="none" stroke="black" cx="99" cy="-93.6" rx="27" ry="18"/>
<text text-anchor="middle" x="99" y="-89.9" font-family="Times New Roman,serif" font-size="14.00">s</text>
</g>
<!-- 33&#45;&gt;38 -->
<g id="edge35" class="edge"><title>33&#45;&gt;38</title>
<path fill="none" stroke="black" d="M99,-129.515C99,-128.165 99,-125.383 99,-121.95"/>
<polygon fill="black" stroke="black" points="102.5,-121.884 99,-111.884 95.5001,-121.884 102.5,-121.884"/>
</g>
<!-- 39 -->
<g id="node34" class="node"><title>39</title>
<ellipse fill="black" stroke="black" cx="243" cy="-207" rx="1.8" ry="1.8"/>
</g>
<!-- 34&#45;&gt;39 -->
<g id="edge36" class="edge"><title>34&#45;&gt;39</title>
<path fill="none" stroke="black" d="M243,-226.739C243,-224.163 243,-221.565 243,-219.157"/>
<polygon fill="black" stroke="black" points="246.5,-218.939 243,-208.939 239.5,-218.939 246.5,-218.939"/>
</g>
<!-- 40 -->
<g id="node35" class="node"><title>40</title>
<ellipse fill="black" stroke="black" cx="99" cy="-55.8" rx="1.8" ry="1.8"/>
</g>
<!-- 38&#45;&gt;40 -->
<g id="edge37" class="edge"><title>38&#45;&gt;40</title>
<path fill="none" stroke="black" d="M99,-75.5388C99,-72.9635 99,-70.365 99,-67.9571"/>
<polygon fill="black" stroke="black" points="102.5,-67.7391 99,-57.7392 95.5001,-67.7392 102.5,-67.7391"/>
</g>
<!-- 41 -->
<g id="node36" class="node"><title>41</title>
<polygon fill="none" stroke="black" points="198,-187.2 144,-187.2 144,-151.2 198,-151.2 198,-187.2"/>
<text text-anchor="middle" x="171" y="-165.5" font-family="Times New Roman,serif" font-size="14.00">LBR</text>
</g>
<!-- 39&#45;&gt;41 -->
<g id="edge38" class="edge"><title>39&#45;&gt;41</title>
<path fill="none" stroke="black" d="M241.982,-205.494C237.953,-203.49 222.587,-195.85 207.177,-188.188"/>
<polygon fill="black" stroke="black" points="208.697,-185.035 198.185,-183.717 205.581,-191.303 208.697,-185.035"/>
</g>
<!-- 42 -->
<g id="node37" class="node"><title>42</title>
<ellipse fill="none" stroke="black" cx="243" cy="-169.2" rx="27" ry="18"/>
<text text-anchor="middle" x="243" y="-165.5" font-family="Times New Roman,serif" font-size="14.00">s</text>
</g>
<!-- 39&#45;&gt;42 -->
<g id="edge39" class="edge"><title>39&#45;&gt;42</title>
<path fill="none" stroke="black" d="M243,-205.115C243,-203.765 243,-200.983 243,-197.55"/>
<polygon fill="black" stroke="black" points="246.5,-197.484 243,-187.484 239.5,-197.484 246.5,-197.484"/>
</g>
<!-- 43 -->
<g id="node38" class="node"><title>43</title>
<polygon fill="none" stroke="black" points="126,-36 72,-36 72,-0 126,-0 126,-36"/>
<text text-anchor="middle" x="99" y="-14.3" font-family="Times New Roman,serif" font-size="14.00">NUM</text>
</g>
<!-- 40&#45;&gt;43 -->
<g id="edge40" class="edge"><title>40&#45;&gt;43</title>
<path fill="none" stroke="black" d="M99,-53.9151C99,-52.5651 99,-49.7827 99,-46.3503"/>
<polygon fill="black" stroke="black" points="102.5,-46.2839 99,-36.2839 95.5001,-46.284 102.5,-46.2839"/>
</g>
<!-- 44 -->
<g id="node39" class="node"><title>44</title>
<ellipse fill="black" stroke="black" cx="243" cy="-131.4" rx="1.8" ry="1.8"/>
</g>
<!-- 42&#45;&gt;44 -->
<g id="edge41" class="edge"><title>42&#45;&gt;44</title>
<path fill="none" stroke="black" d="M243,-151.139C243,-148.563 243,-145.965 243,-143.557"/>
<polygon fill="black" stroke="black" points="246.5,-143.339 243,-133.339 239.5,-143.339 246.5,-143.339"/>
</g>
<!-- 45 -->
<g id="node40" class="node"><title>45</title>
<polygon fill="none" stroke="black" points="270,-111.6 216,-111.6 216,-75.6 270,-75.6 270,-111.6"/>
<text text-anchor="middle" x="243" y="-89.9" font-family="Times New Roman,serif" font-size="14.00">NUM</text>
</g>
<!-- 44&#45;&gt;45 -->
<g id="edge42" class="edge"><title>44&#45;&gt;45</title>
<path fill="none" stroke="black" d="M243,-129.515C243,-128.165 243,-125.383 243,-121.95"/>
<polygon fill="black" stroke="black" points="246.5,-121.884 243,-111.884 239.5,-121.884 246.5,-121.884"/>
</g>
</g>
</svg>
