<?xml version="1.0" encoding="UTF-8" standalone="no"?>
<!-- Generated by graphviz version 2.38.0 (20140413.2041)
 -->

<!-- Title: AST Pages: 1 -->

<svg
   xmlns:dc="http://purl.org/dc/elements/1.1/"
   xmlns:cc="http://creativecommons.org/ns#"
   xmlns:rdf="http://www.w3.org/1999/02/22-rdf-syntax-ns#"
   xmlns:svg="http://www.w3.org/2000/svg"
   xmlns="http://www.w3.org/2000/svg"
   xmlns:sodipodi="http://sodipodi.sourceforge.net/DTD/sodipodi-0.dtd"
   xmlns:inkscape="http://www.inkscape.org/namespaces/inkscape"
   width="522pt"
   height="673pt"
   viewBox="0.00 0.00 522.00 673.20"
   id="svg2"
   version="1.1"
   inkscape:version="0.48.5 r10040"
   sodipodi:docname="Brackets2.svg">
  <metadata
     id="metadata555">
    <rdf:RDF>
      <cc:Work
         rdf:about="">
        <dc:format>image/svg+xml</dc:format>
        <dc:type
           rdf:resource="http://purl.org/dc/dcmitype/StillImage" />
      </cc:Work>
    </rdf:RDF>
  </metadata>
  <defs
     id="defs553" />
  <sodipodi:namedview
     pagecolor="#ffffff"
     bordercolor="#666666"
     borderopacity="1"
     objecttolerance="10"
     gridtolerance="10"
     guidetolerance="10"
     inkscape:pageopacity="0"
     inkscape:pageshadow="2"
     inkscape:window-width="1920"
     inkscape:window-height="1177"
     id="namedview551"
     showgrid="false"
     inkscape:zoom="2.2442793"
     inkscape:cx="203.88851"
     inkscape:cy="604.31267"
     inkscape:window-x="-8"
     inkscape:window-y="-8"
     inkscape:window-maximized="1"
     inkscape:current-layer="graph0" />
  <g
     id="graph0"
     class="graph"
     transform="scale(1 1) rotate(0) translate(54 619.2)">
    <title
       id="title5">AST</title>
    <polygon
       fill="white"
       stroke="none"
       points="-54,54 -54,-619.2 468,-619.2 468,54 -54,54"
       id="polygon7" />
    <!-- 6 -->
    <g
       id="node1"
       class="node">
      <title
         id="title10">6</title>
      <ellipse
         fill="red"
         stroke="black"
         cx="205"
         cy="-547.2"
         rx="29.4969"
         ry="18"
         id="ellipse12"
         d="m 234.4969,-547.20001 c 0,9.94112 -13.20621,18 -29.4969,18 -16.29069,0 -29.4969,-8.05888 -29.4969,-18 0,-9.94113 13.20621,-18 29.4969,-18 16.29069,0 29.4969,8.05887 29.4969,18 z" />
      <text
         text-anchor="middle"
         x="205"
         y="-543.5"
         font-family="Times New Roman,serif"
         font-size="14.00"
         id="text14">s &lt;|&gt;</text>
    </g>
    <!-- 7 -->
    <g
       id="node2"
       class="node">
      <title
         id="title17">7</title>
      <ellipse
         fill="black"
         stroke="black"
         cx="241"
         cy="-509.4"
         rx="1.8"
         ry="1.8"
         id="ellipse19"
         d="m 242.8,-509.39999 c 0,0.99411 -0.80589,1.8 -1.8,1.8 -0.99411,0 -1.8,-0.80589 -1.8,-1.8 0,-0.99412 0.80589,-1.8 1.8,-1.8 0.99411,0 1.8,0.80588 1.8,1.8 z" />
    </g>
    <!-- 6&#45;&gt;7 -->
    <g
       id="edge1"
       class="edge">
      <title
         id="title22">6-&gt;7</title>
      <path
         fill="none"
         stroke="black"
         d="M220.059,-531.225C224.481,-526.828 229.146,-522.188 232.948,-518.407"
         id="path24" />
      <polygon
         fill="black"
         stroke="black"
         points="235.613,-520.693 240.236,-511.16 230.677,-515.73 235.613,-520.693"
         id="polygon26" />
    </g>
    <!-- 8 -->
    <!-- 6&#45;&gt;8 -->
    <!-- 9 -->
    <g
       id="node4"
       class="node">
      <title
         id="title41">9</title>
      <polygon
         fill="none"
         stroke="black"
         points="268,-489.6 214,-489.6 214,-453.6 268,-453.6 268,-489.6"
         id="polygon43" />
      <text
         text-anchor="middle"
         x="241"
         y="-467.9"
         font-family="Times New Roman,serif"
         font-size="14.00"
         id="text45">2 1</text>
    </g>
    <!-- 7&#45;&gt;9 -->
    <g
       id="edge3"
       class="edge">
      <title
         id="title48">7-&gt;9</title>
      <path
         fill="none"
         stroke="black"
         d="M241,-507.515C241,-506.165 241,-503.383 241,-499.95"
         id="path50" />
      <polygon
         fill="black"
         stroke="black"
         points="244.5,-499.884 241,-489.884 237.5,-499.884 244.5,-499.884"
         id="polygon52" />
    </g>
    <!-- 10 -->
    <g
       id="node5"
       class="node">
      <title
         id="title55">10</title>
      <ellipse
         fill="none"
         stroke="black"
         cx="305"
         cy="-396"
         rx="27"
         ry="18"
         id="ellipse57"
         d="m 332,-396 c 0,9.94113 -12.08831,18 -27,18 -14.91169,0 -27,-8.05887 -27,-18 0,-9.94113 12.08831,-18 27,-18 14.91169,0 27,8.05887 27,18 z" />
      <text
         text-anchor="middle"
         x="305"
         y="-392.3"
         font-family="Times New Roman,serif"
         font-size="14.00"
         id="text59">s</text>
    </g>
    <!-- 7&#45;&gt;10 -->
    <g
       id="edge4"
       class="edge">
      <title
         id="title62">7-&gt;10</title>
      <path
         fill="none"
         stroke="black"
         d="M242.349,-508.098C247.631,-506.845 267.107,-501.548 277,-489.6 292.344,-471.068 299.284,-444.28 302.42,-424.279"
         id="path64" />
      <polygon
         fill="black"
         stroke="black"
         points="305.905,-424.617 303.769,-414.24 298.968,-423.685 305.905,-424.617"
         id="polygon66" />
    </g>
    <!-- 11 -->
    <g
       id="node6"
       class="node">
      <title
         id="title69">11</title>
      <polygon
         fill="none"
         stroke="black"
         points="133,-338.4 79,-338.4 79,-302.4 133,-302.4 133,-338.4"
         id="polygon71" />
      <text
         text-anchor="middle"
         x="106"
         y="-316.7"
         font-family="Times New Roman,serif"
         font-size="14.00"
         id="text73">2 1</text>
    </g>
    <!-- 8&#45;&gt;11 -->
    <!-- 12 -->
    <!-- 8&#45;&gt;12 -->
    <!-- 13 -->
    <g
       id="node8"
       class="node">
      <title
         id="title97">13</title>
      <ellipse
         fill="black"
         stroke="black"
         cx="186"
         cy="-433.8"
         rx="1.8"
         ry="1.8"
         id="ellipse99"
         d="m 187.8,-433.79999 c 0,0.99411 -0.80589,1.8 -1.8,1.8 -0.99411,0 -1.8,-0.80589 -1.8,-1.8 0,-0.99411 0.80589,-1.8 1.8,-1.8 0.99411,0 1.8,0.80589 1.8,1.8 z" />
    </g>
    <!-- 9&#45;&gt;13 -->
    <g
       id="edge7"
       class="edge">
      <title
         id="title102">9-&gt;13</title>
      <path
         fill="none"
         stroke="black"
         d="M214.789,-453.539C207.879,-449.041 200.86,-444.472 195.483,-440.972"
         id="path104" />
      <polygon
         fill="black"
         stroke="black"
         points="197.304,-437.982 187.013,-435.46 193.485,-443.848 197.304,-437.982"
         id="polygon106" />
    </g>
    <!-- 14 -->
    <g
       id="node9"
       class="node">
      <title
         id="title109">14</title>
      <ellipse
         fill="black"
         stroke="black"
         cx="307"
         cy="-358.2"
         rx="1.8"
         ry="1.8"
         id="ellipse111"
         d="m 308.8,-358.20001 c 0,0.99411 -0.80589,1.8 -1.8,1.8 -0.99411,0 -1.8,-0.80589 -1.8,-1.8 0,-0.99411 0.80589,-1.8 1.8,-1.8 0.99411,0 1.8,0.80589 1.8,1.8 z" />
    </g>
    <!-- 10&#45;&gt;14 -->
    <g
       id="edge8"
       class="edge">
      <title
         id="title114">10-&gt;14</title>
      <path
         fill="none"
         stroke="black"
         d="M305.953,-377.939C306.097,-375.363 306.242,-372.765 306.377,-370.357"
         id="path116" />
      <polygon
         fill="black"
         stroke="black"
         points="309.884,-370.319 306.948,-360.139 302.895,-369.928 309.884,-370.319"
         id="polygon118" />
    </g>
    <!-- 15 -->
    <g
       id="node10"
       class="node">
      <title
         id="title121">15</title>
      <ellipse
         fill="black"
         stroke="black"
         cx="102"
         cy="-282.6"
         rx="1.8"
         ry="1.8"
         id="ellipse123"
         d="m 103.8,-282.60001 c 0,0.99412 -0.80589,1.8 -1.8,1.8 -0.99411,0 -1.8,-0.80588 -1.8,-1.8 0,-0.99411 0.80589,-1.8 1.8,-1.8 0.99411,0 1.8,0.80589 1.8,1.8 z" />
    </g>
    <!-- 11&#45;&gt;15 -->
    <g
       id="edge9"
       class="edge">
      <title
         id="title126">11-&gt;15</title>
      <path
         fill="none"
         stroke="black"
         d="M104.094,-302.339C103.806,-299.763 103.516,-297.165 103.247,-294.757"
         id="path128" />
      <polygon
         fill="black"
         stroke="black"
         points="106.694,-294.089 102.105,-284.539 99.7371,-294.866 106.694,-294.089"
         id="polygon130" />
    </g>
    <!-- 16 -->
    <!-- 12&#45;&gt;16 -->
    <!-- 17 -->
    <g
       id="node12"
       class="node">
      <title
         id="title145">17</title>
      <ellipse
         fill="none"
         stroke="black"
         cx="161"
         cy="-396"
         rx="27"
         ry="18"
         id="ellipse147"
         d="m 188,-396 c 0,9.94113 -12.08831,18 -27,18 -14.91169,0 -27,-8.05887 -27,-18 0,-9.94113 12.08831,-18 27,-18 14.91169,0 27,8.05887 27,18 z" />
      <text
         text-anchor="middle"
         x="161"
         y="-392.3"
         font-family="Times New Roman,serif"
         font-size="14.00"
         id="text149">s</text>
    </g>
    <!-- 13&#45;&gt;17 -->
    <g
       id="edge11"
       class="edge">
      <title
         id="title152">13-&gt;17</title>
      <path
         fill="none"
         stroke="black"
         d="M185.382,-431.915C184.168,-430.177 181.296,-426.063 177.931,-421.246"
         id="path154" />
      <polygon
         fill="black"
         stroke="black"
         points="180.606,-418.962 172.011,-412.768 174.867,-422.97 180.606,-418.962"
         id="polygon156" />
    </g>
    <!-- 18 -->
    <g
       id="node13"
       class="node">
      <title
         id="title159">18</title>
      <polygon
         fill="none"
         stroke="black"
         points="334,-338.4 280,-338.4 280,-302.4 334,-302.4 334,-338.4"
         id="polygon161" />
      <text
         text-anchor="middle"
         x="307"
         y="-316.7"
         font-family="Times New Roman,serif"
         font-size="14.00"
         id="text163">1 2</text>
    </g>
    <!-- 14&#45;&gt;18 -->
    <g
       id="edge12"
       class="edge">
      <title
         id="title166">14-&gt;18</title>
      <path
         fill="none"
         stroke="black"
         d="M307,-356.315C307,-354.965 307,-352.183 307,-348.75"
         id="path168" />
      <polygon
         fill="black"
         stroke="black"
         points="310.5,-348.684 307,-338.684 303.5,-348.684 310.5,-348.684"
         id="polygon170" />
    </g>
    <!-- 19 -->
    <g
       id="node14"
       class="node">
      <title
         id="title173">19</title>
      <polygon
         fill="none"
         stroke="black"
         points="406,-338.4 352,-338.4 352,-302.4 406,-302.4 406,-338.4"
         id="polygon175" />
      <text
         text-anchor="middle"
         x="379"
         y="-316.7"
         font-family="Times New Roman,serif"
         font-size="14.00"
         id="text177">RBR</text>
    </g>
    <!-- 14&#45;&gt;19 -->
    <g
       id="edge13"
       class="edge">
      <title
         id="title180">14-&gt;19</title>
      <path
         fill="none"
         stroke="black"
         d="M308.018,-356.694C312.047,-354.69 327.413,-347.05 342.823,-339.388"
         id="path182" />
      <polygon
         fill="black"
         stroke="black"
         points="344.419,-342.503 351.815,-334.917 341.303,-336.235 344.419,-342.503"
         id="polygon184" />
    </g>
    <!-- 20 -->
    <g
       id="node15"
       class="node">
      <title
         id="title187">20</title>
      <ellipse
         fill="none"
         stroke="black"
         cx="99"
         cy="-244.8"
         rx="27"
         ry="18"
         id="ellipse189"
         d="m 126,-244.8 c 0,9.94112 -12.08831,18 -27,18 -14.911688,0 -27,-8.05888 -27,-18 0,-9.94113 12.088312,-18 27,-18 14.91169,0 27,8.05887 27,18 z" />
      <text
         text-anchor="middle"
         x="99"
         y="-241.1"
         font-family="Times New Roman,serif"
         font-size="14.00"
         id="text191">s</text>
    </g>
    <!-- 15&#45;&gt;20 -->
    <g
       id="edge14"
       class="edge">
      <title
         id="title194">15-&gt;20</title>
      <path
         fill="none"
         stroke="black"
         d="M101.926,-280.715C101.813,-279.365 101.58,-276.583 101.292,-273.15"
         id="path196" />
      <polygon
         fill="black"
         stroke="black"
         points="104.771,-272.757 100.448,-263.084 97.7958,-273.341 104.771,-272.757"
         id="polygon198" />
    </g>
    <!-- 16&#45;&gt;10 -->
    <!-- 21 -->
    <!-- 16&#45;&gt;21 -->
    <!-- 22 -->
    <g
       id="node17"
       class="node">
      <title
         id="title222">22</title>
      <ellipse
         fill="black"
         stroke="black"
         cx="161"
         cy="-358.2"
         rx="1.8"
         ry="1.8"
         id="ellipse224"
         d="m 162.8,-358.20001 c 0,0.99411 -0.80589,1.8 -1.8,1.8 -0.99411,0 -1.8,-0.80589 -1.8,-1.8 0,-0.99411 0.80589,-1.8 1.8,-1.8 0.99411,0 1.8,0.80589 1.8,1.8 z" />
    </g>
    <!-- 17&#45;&gt;22 -->
    <g
       id="edge17"
       class="edge">
      <title
         id="title227">17-&gt;22</title>
      <path
         fill="none"
         stroke="black"
         d="M161,-377.939C161,-375.363 161,-372.765 161,-370.357"
         id="path229" />
      <polygon
         fill="black"
         stroke="black"
         points="164.5,-370.139 161,-360.139 157.5,-370.139 164.5,-370.139"
         id="polygon231" />
    </g>
    <!-- 23 -->
    <g
       id="node18"
       class="node">
      <title
         id="title234">23</title>
      <ellipse
         fill="black"
         stroke="black"
         cx="315"
         cy="-282.6"
         rx="1.8"
         ry="1.8"
         id="ellipse236"
         d="m 316.8,-282.60001 c 0,0.99412 -0.80589,1.8 -1.8,1.8 -0.99411,0 -1.8,-0.80588 -1.8,-1.8 0,-0.99411 0.80589,-1.8 1.8,-1.8 0.99411,0 1.8,0.80589 1.8,1.8 z" />
    </g>
    <!-- 18&#45;&gt;23 -->
    <g
       id="edge18"
       class="edge">
      <title
         id="title239">18-&gt;23</title>
      <path
         fill="none"
         stroke="black"
         d="M310.813,-302.339C311.414,-299.646 312.022,-296.929 312.58,-294.43"
         id="path241" />
      <polygon
         fill="black"
         stroke="black"
         points="316.025,-295.062 314.79,-284.539 309.193,-293.535 316.025,-295.062"
         id="polygon243" />
    </g>
    <!-- 24 -->
    <g
       id="node19"
       class="node">
      <title
         id="title246">24</title>
      <ellipse
         fill="black"
         stroke="black"
         cx="99"
         cy="-207"
         rx="1.8"
         ry="1.8"
         id="ellipse248"
         d="m 100.8,-207 c 0,0.99411 -0.805887,1.8 -1.8,1.8 -0.994113,0 -1.8,-0.80589 -1.8,-1.8 0,-0.99411 0.805887,-1.8 1.8,-1.8 0.994113,0 1.8,0.80589 1.8,1.8 z" />
    </g>
    <!-- 20&#45;&gt;24 -->
    <g
       id="edge19"
       class="edge">
      <title
         id="title251">20-&gt;24</title>
      <path
         fill="none"
         stroke="black"
         d="M99,-226.739C99,-224.163 99,-221.565 99,-219.157"
         id="path253" />
      <polygon
         fill="black"
         stroke="black"
         points="102.5,-218.939 99,-208.939 95.5001,-218.939 102.5,-218.939"
         id="polygon255" />
    </g>
    <!-- 25 -->
    <!-- 21&#45;&gt;25 -->
    <!-- 22&#45;&gt;11 -->
    <g
       id="edge21"
       class="edge">
      <title
         id="title270">22-&gt;11</title>
      <path
         fill="none"
         stroke="black"
         d="M160.045,-356.579C157.429,-354.876 149.754,-349.88 140.978,-344.168"
         id="path272" />
      <polygon
         fill="black"
         stroke="black"
         points="142.648,-341.078 132.357,-338.556 138.829,-346.945 142.648,-341.078"
         id="polygon274" />
    </g>
    <!-- 26 -->
    <g
       id="node21"
       class="node">
      <title
         id="title277">26</title>
      <ellipse
         fill="none"
         stroke="black"
         cx="210"
         cy="-320.4"
         rx="27"
         ry="18"
         id="ellipse279"
         d="m 237,-320.39999 c 0,9.94112 -12.08831,18 -27,18 -14.91169,0 -27,-8.05888 -27,-18 0,-9.94113 12.08831,-18 27,-18 14.91169,0 27,8.05887 27,18 z" />
      <text
         text-anchor="middle"
         x="210"
         y="-316.7"
         font-family="Times New Roman,serif"
         font-size="14.00"
         id="text281">s</text>
    </g>
    <!-- 22&#45;&gt;26 -->
    <g
       id="edge22"
       class="edge">
      <title
         id="title284">22-&gt;26</title>
      <path
         fill="none"
         stroke="black"
         d="M161.85,-356.579C164.71,-354.49 174.355,-347.443 184.269,-340.199"
         id="path286" />
      <polygon
         fill="black"
         stroke="black"
         points="186.508,-342.898 192.517,-334.173 182.378,-337.246 186.508,-342.898"
         id="polygon288" />
    </g>
    <!-- 27 -->
    <g
       id="node22"
       class="node">
      <title
         id="title291">27</title>
      <polygon
         fill="none"
         stroke="black"
         points="414,-262.8 360,-262.8 360,-226.8 414,-226.8 414,-262.8"
         id="polygon293" />
      <text
         text-anchor="middle"
         x="387"
         y="-241.1"
         font-family="Times New Roman,serif"
         font-size="14.00"
         id="text295">LBR</text>
    </g>
    <!-- 23&#45;&gt;27 -->
    <g
       id="edge23"
       class="edge">
      <title
         id="title298">23-&gt;27</title>
      <path
         fill="none"
         stroke="black"
         d="M316.018,-281.094C320.047,-279.09 335.413,-271.45 350.823,-263.788"
         id="path300" />
      <polygon
         fill="black"
         stroke="black"
         points="352.419,-266.903 359.815,-259.317 349.303,-260.635 352.419,-266.903"
         id="polygon302" />
    </g>
    <!-- 28 -->
    <g
       id="node23"
       class="node">
      <title
         id="title305">28</title>
      <ellipse
         fill="none"
         stroke="black"
         cx="315"
         cy="-244.8"
         rx="27"
         ry="18"
         id="ellipse307"
         d="m 342,-244.8 c 0,9.94112 -12.08831,18 -27,18 -14.91169,0 -27,-8.05888 -27,-18 0,-9.94113 12.08831,-18 27,-18 14.91169,0 27,8.05887 27,18 z" />
      <text
         text-anchor="middle"
         x="315"
         y="-241.1"
         font-family="Times New Roman,serif"
         font-size="14.00"
         id="text309">s</text>
    </g>
    <!-- 23&#45;&gt;28 -->
    <g
       id="edge24"
       class="edge">
      <title
         id="title312">23-&gt;28</title>
      <path
         fill="none"
         stroke="black"
         d="M315,-280.715C315,-279.365 315,-276.583 315,-273.15"
         id="path314" />
      <polygon
         fill="black"
         stroke="black"
         points="318.5,-273.084 315,-263.084 311.5,-273.084 318.5,-273.084"
         id="polygon316" />
    </g>
    <!-- 29 -->
    <g
       id="node24"
       class="node">
      <title
         id="title319">29</title>
      <polygon
         fill="none"
         stroke="black"
         points="126,-187.2 72,-187.2 72,-151.2 126,-151.2 126,-187.2"
         id="polygon321" />
      <text
         text-anchor="middle"
         x="99"
         y="-165.5"
         font-family="Times New Roman,serif"
         font-size="14.00"
         id="text323">1 2</text>
    </g>
    <!-- 24&#45;&gt;29 -->
    <g
       id="edge25"
       class="edge">
      <title
         id="title326">24-&gt;29</title>
      <path
         fill="none"
         stroke="black"
         d="M99,-205.115C99,-203.765 99,-200.983 99,-197.55"
         id="path328" />
      <polygon
         fill="black"
         stroke="black"
         points="102.5,-197.484 99,-187.484 95.5001,-197.484 102.5,-197.484"
         id="polygon330" />
    </g>
    <!-- 30 -->
    <g
       id="node25"
       class="node">
      <title
         id="title333">30</title>
      <polygon
         fill="none"
         stroke="black"
         points="54,-187.2 0,-187.2 0,-151.2 54,-151.2 54,-187.2"
         id="polygon335" />
      <text
         text-anchor="middle"
         x="27"
         y="-165.5"
         font-family="Times New Roman,serif"
         font-size="14.00"
         id="text337">RBR</text>
    </g>
    <!-- 24&#45;&gt;30 -->
    <g
       id="edge26"
       class="edge">
      <title
         id="title340">24-&gt;30</title>
      <path
         fill="none"
         stroke="black"
         d="M97.9822,-205.494C93.953,-203.49 78.5868,-195.85 63.1773,-188.188"
         id="path342" />
      <polygon
         fill="black"
         stroke="black"
         points="64.6973,-185.035 54.1848,-183.717 61.5807,-191.303 64.6973,-185.035"
         id="polygon344" />
    </g>
    <!-- 25&#45;&gt;26 -->
    <!-- 31 -->
    <g
       id="node26"
       class="node">
      <title
         id="title354">31</title>
      <ellipse
         fill="black"
         stroke="black"
         cx="210"
         cy="-282.6"
         rx="1.8"
         ry="1.8"
         id="ellipse356"
         d="m 211.8,-282.60001 c 0,0.99412 -0.80589,1.8 -1.8,1.8 -0.99411,0 -1.8,-0.80588 -1.8,-1.8 0,-0.99411 0.80589,-1.8 1.8,-1.8 0.99411,0 1.8,0.80589 1.8,1.8 z" />
    </g>
    <!-- 26&#45;&gt;31 -->
    <g
       id="edge28"
       class="edge">
      <title
         id="title359">26-&gt;31</title>
      <path
         fill="none"
         stroke="black"
         d="M210,-302.339C210,-299.763 210,-297.165 210,-294.757"
         id="path361" />
      <polygon
         fill="black"
         stroke="black"
         points="213.5,-294.539 210,-284.539 206.5,-294.539 213.5,-294.539"
         id="polygon363" />
    </g>
    <!-- 32 -->
    <g
       id="node27"
       class="node">
      <title
         id="title366">32</title>
      <ellipse
         fill="black"
         stroke="black"
         cx="315"
         cy="-207"
         rx="1.8"
         ry="1.8"
         id="ellipse368"
         d="m 316.8,-207 c 0,0.99411 -0.80589,1.8 -1.8,1.8 -0.99411,0 -1.8,-0.80589 -1.8,-1.8 0,-0.99411 0.80589,-1.8 1.8,-1.8 0.99411,0 1.8,0.80589 1.8,1.8 z" />
    </g>
    <!-- 28&#45;&gt;32 -->
    <g
       id="edge29"
       class="edge">
      <title
         id="title371">28-&gt;32</title>
      <path
         fill="none"
         stroke="black"
         d="M315,-226.739C315,-224.163 315,-221.565 315,-219.157"
         id="path373" />
      <polygon
         fill="black"
         stroke="black"
         points="318.5,-218.939 315,-208.939 311.5,-218.939 318.5,-218.939"
         id="polygon375" />
    </g>
    <!-- 33 -->
    <g
       id="node28"
       class="node">
      <title
         id="title378">33</title>
      <ellipse
         fill="black"
         stroke="black"
         cx="99"
         cy="-131.4"
         rx="1.8"
         ry="1.8"
         id="ellipse380"
         d="m 100.8,-131.39999 c 0,0.99411 -0.805887,1.8 -1.8,1.8 -0.994113,0 -1.8,-0.80589 -1.8,-1.8 0,-0.99412 0.805887,-1.8 1.8,-1.8 0.994113,0 1.8,0.80588 1.8,1.8 z" />
    </g>
    <!-- 29&#45;&gt;33 -->
    <g
       id="edge30"
       class="edge">
      <title
         id="title383">29-&gt;33</title>
      <path
         fill="none"
         stroke="black"
         d="M99,-151.139C99,-148.563 99,-145.965 99,-143.557"
         id="path385" />
      <polygon
         fill="black"
         stroke="black"
         points="102.5,-143.339 99,-133.339 95.5001,-143.339 102.5,-143.339"
         id="polygon387" />
    </g>
    <!-- 34 -->
    <g
       id="node29"
       class="node">
      <title
         id="title390">34</title>
      <polygon
         fill="none"
         stroke="black"
         points="270,-262.8 216,-262.8 216,-226.8 270,-226.8 270,-262.8"
         id="polygon392" />
      <text
         text-anchor="middle"
         x="243"
         y="-241.1"
         font-family="Times New Roman,serif"
         font-size="14.00"
         id="text394">1 2</text>
    </g>
    <!-- 31&#45;&gt;34 -->
    <g
       id="edge31"
       class="edge">
      <title
         id="title397">31-&gt;34</title>
      <path
         fill="none"
         stroke="black"
         d="M210.816,-280.715C212.353,-279.047 215.905,-275.194 220.112,-270.63"
         id="path399" />
      <polygon
         fill="black"
         stroke="black"
         points="222.864,-272.809 227.068,-263.084 217.717,-268.065 222.864,-272.809"
         id="polygon401" />
    </g>
    <!-- 35 -->
    <g
       id="node30"
       class="node">
      <title
         id="title404">35</title>
      <polygon
         fill="none"
         stroke="black"
         points="198,-262.8 144,-262.8 144,-226.8 198,-226.8 198,-262.8"
         id="polygon406" />
      <text
         text-anchor="middle"
         x="171"
         y="-241.1"
         font-family="Times New Roman,serif"
         font-size="14.00"
         id="text408">RBR</text>
    </g>
    <!-- 31&#45;&gt;35 -->
    <g
       id="edge32"
       class="edge">
      <title
         id="title411">31-&gt;35</title>
      <path
         fill="none"
         stroke="black"
         d="M209.036,-280.715C207.133,-278.968 202.616,-274.822 197.334,-269.973"
         id="path413" />
      <polygon
         fill="black"
         stroke="black"
         points="199.563,-267.268 189.829,-263.084 194.829,-272.425 199.563,-267.268"
         id="polygon415" />
    </g>
    <!-- 36 -->
    <g
       id="node31"
       class="node">
      <title
         id="title418">36</title>
      <polygon
         fill="none"
         stroke="black"
         points="342,-187.2 288,-187.2 288,-151.2 342,-151.2 342,-187.2"
         id="polygon420" />
      <text
         text-anchor="middle"
         x="315"
         y="-165.5"
         font-family="Times New Roman,serif"
         font-size="14.00"
         id="text422">NUM</text>
    </g>
    <!-- 32&#45;&gt;36 -->
    <g
       id="edge33"
       class="edge">
      <title
         id="title425">32-&gt;36</title>
      <path
         fill="none"
         stroke="black"
         d="M315,-205.115C315,-203.765 315,-200.983 315,-197.55"
         id="path427" />
      <polygon
         fill="black"
         stroke="black"
         points="318.5,-197.484 315,-187.484 311.5,-197.484 318.5,-197.484"
         id="polygon429" />
    </g>
    <!-- 37 -->
    <g
       id="node32"
       class="node">
      <title
         id="title432">37</title>
      <polygon
         fill="none"
         stroke="black"
         points="198,-111.6 144,-111.6 144,-75.6 198,-75.6 198,-111.6"
         id="polygon434" />
      <text
         text-anchor="middle"
         x="171"
         y="-89.9"
         font-family="Times New Roman,serif"
         font-size="14.00"
         id="text436">LBR</text>
    </g>
    <!-- 33&#45;&gt;37 -->
    <g
       id="edge34"
       class="edge">
      <title
         id="title439">33-&gt;37</title>
      <path
         fill="none"
         stroke="black"
         d="M100.018,-129.894C104.047,-127.89 119.413,-120.25 134.823,-112.588"
         id="path441" />
      <polygon
         fill="black"
         stroke="black"
         points="136.419,-115.703 143.815,-108.117 133.303,-109.435 136.419,-115.703"
         id="polygon443" />
    </g>
    <!-- 38 -->
    <g
       id="node33"
       class="node">
      <title
         id="title446">38</title>
      <ellipse
         fill="none"
         stroke="black"
         cx="99"
         cy="-93.6"
         rx="27"
         ry="18"
         id="ellipse448"
         d="m 126,-93.599998 c 0,9.941125 -12.08831,18 -27,18 -14.911688,0 -27,-8.058875 -27,-18 C 72,-103.54112 84.088312,-111.6 99,-111.6 c 14.91169,0 27,8.05888 27,18.000002 z" />
      <text
         text-anchor="middle"
         x="99"
         y="-89.9"
         font-family="Times New Roman,serif"
         font-size="14.00"
         id="text450">s</text>
    </g>
    <!-- 33&#45;&gt;38 -->
    <g
       id="edge35"
       class="edge">
      <title
         id="title453">33-&gt;38</title>
      <path
         fill="none"
         stroke="black"
         d="M99,-129.515C99,-128.165 99,-125.383 99,-121.95"
         id="path455" />
      <polygon
         fill="black"
         stroke="black"
         points="102.5,-121.884 99,-111.884 95.5001,-121.884 102.5,-121.884"
         id="polygon457" />
    </g>
    <!-- 39 -->
    <g
       id="node34"
       class="node">
      <title
         id="title460">39</title>
      <ellipse
         fill="black"
         stroke="black"
         cx="243"
         cy="-207"
         rx="1.8"
         ry="1.8"
         id="ellipse462"
         d="m 244.8,-207 c 0,0.99411 -0.80589,1.8 -1.8,1.8 -0.99411,0 -1.8,-0.80589 -1.8,-1.8 0,-0.99411 0.80589,-1.8 1.8,-1.8 0.99411,0 1.8,0.80589 1.8,1.8 z" />
    </g>
    <!-- 34&#45;&gt;39 -->
    <g
       id="edge36"
       class="edge">
      <title
         id="title465">34-&gt;39</title>
      <path
         fill="none"
         stroke="black"
         d="M243,-226.739C243,-224.163 243,-221.565 243,-219.157"
         id="path467" />
      <polygon
         fill="black"
         stroke="black"
         points="246.5,-218.939 243,-208.939 239.5,-218.939 246.5,-218.939"
         id="polygon469" />
    </g>
    <!-- 40 -->
    <g
       id="node35"
       class="node">
      <title
         id="title472">40</title>
      <ellipse
         fill="black"
         stroke="black"
         cx="99"
         cy="-55.8"
         rx="1.8"
         ry="1.8"
         id="ellipse474"
         d="m 100.8,-55.799999 c 0,0.994112 -0.805887,1.8 -1.8,1.8 -0.994113,0 -1.8,-0.805888 -1.8,-1.8 0,-0.994113 0.805887,-1.8 1.8,-1.8 0.994113,0 1.8,0.805887 1.8,1.8 z" />
    </g>
    <!-- 38&#45;&gt;40 -->
    <g
       id="edge37"
       class="edge">
      <title
         id="title477">38-&gt;40</title>
      <path
         fill="none"
         stroke="black"
         d="M99,-75.5388C99,-72.9635 99,-70.365 99,-67.9571"
         id="path479" />
      <polygon
         fill="black"
         stroke="black"
         points="102.5,-67.7391 99,-57.7392 95.5001,-67.7392 102.5,-67.7391"
         id="polygon481" />
    </g>
    <!-- 41 -->
    <g
       id="node36"
       class="node">
      <title
         id="title484">41</title>
      <polygon
         fill="none"
         stroke="black"
         points="198,-187.2 144,-187.2 144,-151.2 198,-151.2 198,-187.2"
         id="polygon486" />
      <text
         text-anchor="middle"
         x="171"
         y="-165.5"
         font-family="Times New Roman,serif"
         font-size="14.00"
         id="text488">LBR</text>
    </g>
    <!-- 39&#45;&gt;41 -->
    <g
       id="edge38"
       class="edge">
      <title
         id="title491">39-&gt;41</title>
      <path
         fill="none"
         stroke="black"
         d="M241.982,-205.494C237.953,-203.49 222.587,-195.85 207.177,-188.188"
         id="path493" />
      <polygon
         fill="black"
         stroke="black"
         points="208.697,-185.035 198.185,-183.717 205.581,-191.303 208.697,-185.035"
         id="polygon495" />
    </g>
    <!-- 42 -->
    <g
       id="node37"
       class="node">
      <title
         id="title498">42</title>
      <ellipse
         fill="none"
         stroke="black"
         cx="243"
         cy="-169.2"
         rx="27"
         ry="18"
         id="ellipse500"
         d="m 270,-169.2 c 0,9.94113 -12.08831,18 -27,18 -14.91169,0 -27,-8.05887 -27,-18 0,-9.94112 12.08831,-18 27,-18 14.91169,0 27,8.05888 27,18 z" />
      <text
         text-anchor="middle"
         x="243"
         y="-165.5"
         font-family="Times New Roman,serif"
         font-size="14.00"
         id="text502">s</text>
    </g>
    <!-- 39&#45;&gt;42 -->
    <g
       id="edge39"
       class="edge">
      <title
         id="title505">39-&gt;42</title>
      <path
         fill="none"
         stroke="black"
         d="M243,-205.115C243,-203.765 243,-200.983 243,-197.55"
         id="path507" />
      <polygon
         fill="black"
         stroke="black"
         points="246.5,-197.484 243,-187.484 239.5,-197.484 246.5,-197.484"
         id="polygon509" />
    </g>
    <!-- 43 -->
    <g
       id="node38"
       class="node">
      <title
         id="title512">43</title>
      <polygon
         fill="none"
         stroke="black"
         points="126,-36 72,-36 72,-0 126,-0 126,-36"
         id="polygon514" />
      <text
         text-anchor="middle"
         x="99"
         y="-14.3"
         font-family="Times New Roman,serif"
         font-size="14.00"
         id="text516">NUM</text>
    </g>
    <!-- 40&#45;&gt;43 -->
    <g
       id="edge40"
       class="edge">
      <title
         id="title519">40-&gt;43</title>
      <path
         fill="none"
         stroke="black"
         d="M99,-53.9151C99,-52.5651 99,-49.7827 99,-46.3503"
         id="path521" />
      <polygon
         fill="black"
         stroke="black"
         points="102.5,-46.2839 99,-36.2839 95.5001,-46.284 102.5,-46.2839"
         id="polygon523" />
    </g>
    <!-- 44 -->
    <g
       id="node39"
       class="node">
      <title
         id="title526">44</title>
      <ellipse
         fill="black"
         stroke="black"
         cx="243"
         cy="-131.4"
         rx="1.8"
         ry="1.8"
         id="ellipse528"
         d="m 244.8,-131.39999 c 0,0.99411 -0.80589,1.8 -1.8,1.8 -0.99411,0 -1.8,-0.80589 -1.8,-1.8 0,-0.99412 0.80589,-1.8 1.8,-1.8 0.99411,0 1.8,0.80588 1.8,1.8 z" />
    </g>
    <!-- 42&#45;&gt;44 -->
    <g
       id="edge41"
       class="edge">
      <title
         id="title531">42-&gt;44</title>
      <path
         fill="none"
         stroke="black"
         d="M243,-151.139C243,-148.563 243,-145.965 243,-143.557"
         id="path533" />
      <polygon
         fill="black"
         stroke="black"
         points="246.5,-143.339 243,-133.339 239.5,-143.339 246.5,-143.339"
         id="polygon535" />
    </g>
    <!-- 45 -->
    <g
       id="node40"
       class="node">
      <title
         id="title538">45</title>
      <polygon
         fill="none"
         stroke="black"
         points="270,-111.6 216,-111.6 216,-75.6 270,-75.6 270,-111.6"
         id="polygon540" />
      <text
         text-anchor="middle"
         x="243"
         y="-89.9"
         font-family="Times New Roman,serif"
         font-size="14.00"
         id="text542">NUM</text>
    </g>
    <!-- 44&#45;&gt;45 -->
    <g
       id="edge42"
       class="edge">
      <title
         id="title545">44-&gt;45</title>
      <path
         fill="none"
         stroke="black"
         d="M243,-129.515C243,-128.165 243,-125.383 243,-121.95"
         id="path547" />
      <polygon
         fill="black"
         stroke="black"
         points="246.5,-121.884 243,-111.884 239.5,-121.884 246.5,-121.884"
         id="polygon549" />
    </g>
  </g>
</svg>
