<?xml version="1.0" encoding="UTF-8" standalone="no"?>
<!-- Generated by graphviz version 2.38.0 (20140413.2041)
 -->

<!-- Title: AST Pages: 1 -->

<svg
   xmlns:dc="http://purl.org/dc/elements/1.1/"
   xmlns:cc="http://creativecommons.org/ns#"
   xmlns:rdf="http://www.w3.org/1999/02/22-rdf-syntax-ns#"
   xmlns:svg="http://www.w3.org/2000/svg"
   xmlns="http://www.w3.org/2000/svg"
   xmlns:sodipodi="http://sodipodi.sourceforge.net/DTD/sodipodi-0.dtd"
   xmlns:inkscape="http://www.inkscape.org/namespaces/inkscape"
   width="522pt"
   height="673pt"
   viewBox="0.00 0.00 522.00 673.20"
   id="svg2"
   version="1.1"
   inkscape:version="0.91 r13725"
   sodipodi:docname="Brackets2.svg">
  <metadata
     id="metadata555">
    <rdf:RDF>
      <cc:Work
         rdf:about="">
        <dc:format>image/svg+xml</dc:format>
        <dc:type
           rdf:resource="http://purl.org/dc/dcmitype/StillImage" />
      </cc:Work>
    </rdf:RDF>
  </metadata>
  <defs
     id="defs553" />
  <sodipodi:namedview
     pagecolor="#ffffff"
     bordercolor="#666666"
     borderopacity="1"
     objecttolerance="10"
     gridtolerance="10"
     guidetolerance="10"
     inkscape:pageopacity="0"
     inkscape:pageshadow="2"
     inkscape:window-width="1600"
     inkscape:window-height="877"
     id="namedview551"
     showgrid="false"
     inkscape:zoom="1.1221397"
     inkscape:cx="439.1298"
     inkscape:cy="246.8329"
     inkscape:window-x="-8"
     inkscape:window-y="-8"
     inkscape:window-maximized="1"
     inkscape:current-layer="graph0" />
  <g
     id="graph0"
     class="graph"
     transform="scale(1 1) rotate(0) translate(54 619.2)">
    <title
       id="title5">AST</title>
    <polygon
       points="-54,54 -54,-619.2 468,-619.2 468,54 -54,54 "
       id="polygon7"
       transform="matrix(0.96857827,0,0,0.86334746,-33.801136,-36.825858)"
       style="fill:#ffffff;stroke:none" />
    <!-- 6 -->
    <g
       id="node1"
       class="node">
      <title
         id="title10">6</title>
      <ellipse
         cx="240.21054"
         cy="-547.20001"
         rx="29.496901"
         ry="18"
         id="ellipse12"
         style="fill:#ffffff;stroke:#000000" />
      <text
         x="240.21054"
         y="-543.5"
         font-size="14.00"
         id="text14"
         style="font-size:14px;font-family:'Times New Roman', serif;text-anchor:middle">(0,s,6)</text>
    </g>
    <!-- 7 -->
    <g
       id="node2"
       class="node">
      <title
         id="title17">7</title>
      <ellipse
         fill="black"
         stroke="black"
         cx="241"
         cy="-509.4"
         rx="1.8"
         ry="1.8"
         id="ellipse19" />
    </g>
    <!-- 6&#45;&gt;7 -->
    <!-- 8 -->
    <!-- 6&#45;&gt;8 -->
    <!-- 9 -->
    <g
       id="node4"
       class="node">
      <title
         id="title41">9</title>
      <polygon
         points="214,-489.6 214,-453.6 268,-453.6 268,-489.6 268,-489.6 "
         id="polygon43"
         transform="matrix(1.1309044,0,0,0.99826344,-35.113647,-0.81896148)"
         style="fill:none;stroke:#000000" />
      <text
         x="237.42406"
         y="-467.89999"
         font-size="14.00"
         id="text45"
         style="font-size:14px;font-family:'Times New Roman', serif;text-anchor:middle">(0,s=s.s,4)</text>
      <flowRoot
         xml:space="preserve"
         id="flowRoot3928"
         style="fill:black;stroke:none;stroke-opacity:1;stroke-width:1px;stroke-linejoin:miter;stroke-linecap:butt;fill-opacity:1;font-family:sans-serif;font-style:normal;font-weight:normal;font-size:40px;line-height:125%;letter-spacing:0px;word-spacing:0px"><flowRegion
           id="flowRegion3930"><rect
             id="rect3932"
             width="322.59799"
             height="118.52357"
             x="-460.72696"
             y="57.925053" /></flowRegion><flowPara
           id="flowPara3934" /></flowRoot>    </g>
    <!-- 7&#45;&gt;9 -->
    <g
       id="edge3"
       class="edge">
      <title
         id="title48">7-&gt;9</title>
      <path
         fill="none"
         stroke="black"
         d="M241,-507.515C241,-506.165 241,-503.383 241,-499.95"
         id="path50" />
      <polygon
         fill="black"
         stroke="black"
         points="244.5,-499.884 241,-489.884 237.5,-499.884 244.5,-499.884"
         id="polygon52" />
    </g>
    <!-- 10 -->
    <g
       id="node5"
       class="node">
      <title
         id="title55">10</title>
      <ellipse
         fill="none"
         stroke="black"
         cx="305"
         cy="-396"
         rx="27"
         ry="18"
         id="ellipse57" />
      <text
         x="305"
         y="-392.29999"
         font-size="14.00"
         id="text59"
         style="font-size:14px;font-family:'Times New Roman', serif;text-anchor:middle">(4, s, 6)</text>
    </g>
    <!-- 7&#45;&gt;10 -->
    <g
       id="edge4"
       class="edge">
      <title
         id="title62">7-&gt;10</title>
      <path
         fill="none"
         stroke="black"
         d="M242.349,-508.098C247.631,-506.845 267.107,-501.548 277,-489.6 292.344,-471.068 299.284,-444.28 302.42,-424.279"
         id="path64" />
      <polygon
         fill="black"
         stroke="black"
         points="305.905,-424.617 303.769,-414.24 298.968,-423.685 305.905,-424.617"
         id="polygon66" />
    </g>
    <!-- 11 -->
    <!-- 8&#45;&gt;11 -->
    <!-- 12 -->
    <!-- 8&#45;&gt;12 -->
    <!-- 13 -->
    <g
       id="node8"
       class="node">
      <title
         id="title97">13</title>
      <ellipse
         fill="black"
         stroke="black"
         cx="186"
         cy="-433.8"
         rx="1.8"
         ry="1.8"
         id="ellipse99" />
    </g>
    <!-- 9&#45;&gt;13 -->
    <g
       id="edge7"
       class="edge">
      <title
         id="title102">9-&gt;13</title>
      <path
         fill="none"
         stroke="black"
         d="M214.789,-453.539C207.879,-449.041 200.86,-444.472 195.483,-440.972"
         id="path104" />
      <polygon
         fill="black"
         stroke="black"
         points="197.304,-437.982 187.013,-435.46 193.485,-443.848 197.304,-437.982"
         id="polygon106" />
    </g>
    <!-- 14 -->
    <g
       id="node9"
       class="node">
      <title
         id="title109">14</title>
      <ellipse
         fill="black"
         stroke="black"
         cx="307"
         cy="-358.2"
         rx="1.8"
         ry="1.8"
         id="ellipse111" />
    </g>
    <!-- 10&#45;&gt;14 -->
    <g
       id="edge8"
       class="edge">
      <title
         id="title114">10-&gt;14</title>
      <path
         fill="none"
         stroke="black"
         d="M305.953,-377.939C306.097,-375.363 306.242,-372.765 306.377,-370.357"
         id="path116" />
      <polygon
         fill="black"
         stroke="black"
         points="309.884,-370.319 306.948,-360.139 302.895,-369.928 309.884,-370.319"
         id="polygon118" />
    </g>
    <!-- 15 -->
    <g
       id="node10"
       class="node">
      <title
         id="title121">15</title>
      <ellipse
         fill="black"
         stroke="black"
         cx="102"
         cy="-282.6"
         rx="1.8"
         ry="1.8"
         id="ellipse123" />
    </g>
    <!-- 11&#45;&gt;15 -->
    <g
       id="edge9"
       class="edge">
      <title
         id="title126">11-&gt;15</title>
      <path
         fill="none"
         stroke="black"
         d="M104.094,-302.339C103.806,-299.763 103.516,-297.165 103.247,-294.757"
         id="path128" />
      <polygon
         fill="black"
         stroke="black"
         points="106.694,-294.089 102.105,-284.539 99.7371,-294.866 106.694,-294.089"
         id="polygon130" />
    </g>
    <!-- 16 -->
    <!-- 12&#45;&gt;16 -->
    <!-- 17 -->
    <g
       id="node12"
       class="node">
      <title
         id="title145">17</title>
      <ellipse
         fill="none"
         stroke="black"
         cx="161"
         cy="-396"
         rx="27"
         ry="18"
         id="ellipse147" />
      <text
         x="161"
         y="-392.29999"
         font-size="14.00"
         id="text149"
         style="font-size:14px;font-family:'Times New Roman', serif;text-anchor:middle">(0, s, 4)</text>
    </g>
    <!-- 13&#45;&gt;17 -->
    <g
       id="edge11"
       class="edge">
      <title
         id="title152">13-&gt;17</title>
      <path
         fill="none"
         stroke="black"
         d="M185.382,-431.915C184.168,-430.177 181.296,-426.063 177.931,-421.246"
         id="path154" />
      <polygon
         fill="black"
         stroke="black"
         points="180.606,-418.962 172.011,-412.768 174.867,-422.97 180.606,-418.962"
         id="polygon156" />
    </g>
    <!-- 18 -->
    <!-- 14&#45;&gt;18 -->
    <g
       id="edge12"
       class="edge">
      <title
         id="title166">14-&gt;18</title>
      <path
         fill="none"
         stroke="black"
         d="M307,-356.315C307,-354.965 307,-352.183 307,-348.75"
         id="path168" />
      <polygon
         fill="black"
         stroke="black"
         points="310.5,-348.684 307,-338.684 303.5,-348.684 310.5,-348.684"
         id="polygon170" />
    </g>
    <!-- 19 -->
    <g
       id="node14"
       class="node">
      <title
         id="title173">19</title>
      <polygon
         points="406,-338.4 352,-338.4 352,-302.4 406,-302.4 406,-338.4"
         id="polygon175"
         stroke="black"
         fill="none" />
      <text
         x="379"
         y="-316.70001"
         font-size="14.00"
         id="text177"
         style="font-size:14px;font-family:'Times New Roman', serif;text-anchor:middle">(5, B, 6)</text>
    </g>
    <!-- 14&#45;&gt;19 -->
    <g
       id="edge13"
       class="edge">
      <title
         id="title180">14-&gt;19</title>
      <path
         fill="none"
         stroke="black"
         d="M308.018,-356.694C312.047,-354.69 327.413,-347.05 342.823,-339.388"
         id="path182" />
      <polygon
         fill="black"
         stroke="black"
         points="344.419,-342.503 351.815,-334.917 341.303,-336.235 344.419,-342.503"
         id="polygon184" />
    </g>
    <!-- 20 -->
    <g
       id="node15"
       class="node"
       transform="translate(-57.61712,0)">
      <title
         id="title187">20</title>
      <ellipse
         cx="99"
         cy="-244.8"
         rx="27"
         ry="18"
         id="ellipse189"
         style="fill:none;stroke:#000000" />
      <text
         x="99"
         y="-241.10001"
         font-size="14.00"
         id="text191"
         style="font-size:14px;font-family:'Times New Roman', serif;text-anchor:middle">(0, s, 2)</text>
    </g>
    <!-- 15&#45;&gt;20 -->
    <!-- 16&#45;&gt;10 -->
    <!-- 21 -->
    <!-- 16&#45;&gt;21 -->
    <!-- 22 -->
    <g
       id="node17"
       class="node">
      <title
         id="title222">22</title>
      <ellipse
         fill="black"
         stroke="black"
         cx="161"
         cy="-358.2"
         rx="1.8"
         ry="1.8"
         id="ellipse224" />
    </g>
    <!-- 17&#45;&gt;22 -->
    <g
       id="edge17"
       class="edge">
      <title
         id="title227">17-&gt;22</title>
      <path
         fill="none"
         stroke="black"
         d="M161,-377.939C161,-375.363 161,-372.765 161,-370.357"
         id="path229" />
      <polygon
         fill="black"
         stroke="black"
         points="164.5,-370.139 161,-360.139 157.5,-370.139 164.5,-370.139"
         id="polygon231" />
    </g>
    <!-- 23 -->
    <g
       id="node18"
       class="node">
      <title
         id="title234">23</title>
      <circle
         cx="315"
         cy="-282.6"
         id="ellipse236"
         stroke="black"
         fill="black"
         ry="1.8"
         rx="1.8" />
    </g>
    <!-- 18&#45;&gt;23 -->
    <g
       id="edge18"
       class="edge">
      <title
         id="title239">18-&gt;23</title>
      <path
         d="M310.813,-302.339C311.414,-299.646 312.022,-296.929 312.58,-294.43"
         id="path241"
         stroke="black"
         fill="none" />
      <polygon
         points="316.025,-295.062 314.79,-284.539 309.193,-293.535 316.025,-295.062"
         id="polygon243"
         stroke="black"
         fill="black" />
    </g>
    <!-- 24 -->
    <g
       id="node19"
       class="node"
       transform="translate(-57.61712,0)">
      <title
         id="title246">24</title>
      <circle
         cx="99"
         cy="-207"
         id="ellipse248"
         r="1.8"
         style="fill:#000000;stroke:#000000" />
    </g>
    <!-- 20&#45;&gt;24 -->
    <g
       id="edge19"
       class="edge"
       transform="translate(-57.61712,0)">
      <title
         id="title251">20-&gt;24</title>
      <path
         d="m 99,-226.739 c 0,2.576 0,5.174 0,7.582"
         id="path253"
         inkscape:connector-curvature="0"
         style="fill:none;stroke:#000000" />
      <polygon
         points="95.5001,-218.939 102.5,-218.939 102.5,-218.939 99,-208.939 "
         id="polygon255"
         style="fill:#000000;stroke:#000000" />
    </g>
    <!-- 25 -->
    <!-- 21&#45;&gt;25 -->
    <!-- 22&#45;&gt;11 -->
    <g
       id="edge21"
       class="edge">
      <title
         id="title270">22-&gt;11</title>
      <path
         fill="none"
         stroke="black"
         d="M160.045,-356.579C157.429,-354.876 149.754,-349.88 140.978,-344.168"
         id="path272" />
      <polygon
         fill="black"
         stroke="black"
         points="142.648,-341.078 132.357,-338.556 138.829,-346.945 142.648,-341.078"
         id="polygon274" />
    </g>
    <!-- 26 -->
    <g
       id="node21"
       class="node">
      <title
         id="title277">26</title>
      <ellipse
         fill="none"
         stroke="black"
         cx="210"
         cy="-320.4"
         rx="27"
         ry="18"
         id="ellipse279" />
      <text
         x="210"
         y="-316.70001"
         font-size="14.00"
         id="text281"
         style="font-size:14px;font-family:'Times New Roman', serif;text-anchor:middle">(2, s, 4)</text>
    </g>
    <!-- 22&#45;&gt;26 -->
    <g
       id="edge22"
       class="edge">
      <title
         id="title284">22-&gt;26</title>
      <path
         fill="none"
         stroke="black"
         d="M161.85,-356.579C164.71,-354.49 174.355,-347.443 184.269,-340.199"
         id="path286" />
      <polygon
         fill="black"
         stroke="black"
         points="186.508,-342.898 192.517,-334.173 182.378,-337.246 186.508,-342.898"
         id="polygon288" />
    </g>
    <!-- 27 -->
    <g
       id="node22"
       class="node"
       transform="translate(-72.021378,0)">
      <title
         id="title291">27</title>
      <polygon
         points="360,-262.8 360,-226.8 414,-226.8 414,-262.8 414,-262.8 "
         id="polygon293"
         style="fill:none;stroke:#000000" />
      <text
         x="387"
         y="-241.10001"
         font-size="14.00"
         id="text295"
         style="font-size:14px;font-family:'Times New Roman', serif;text-anchor:middle">(4, A, 5)</text>
    </g>
    <!-- 23&#45;&gt;27 -->
    <g
       id="edge23"
       class="edge">
      <title
         id="title298">23-&gt;27</title>
      <path
         d="M316.018,-281.094C320.047,-279.09 335.413,-271.45 350.823,-263.788"
         id="path300"
         stroke="black"
         fill="none" />
      <polygon
         points="352.419,-266.903 359.815,-259.317 349.303,-260.635 352.419,-266.903"
         id="polygon302"
         stroke="black"
         fill="black" />
    </g>
    <!-- 28 -->
    <g
       id="node23"
       class="node"
       transform="translate(60.818053,0)">
      <title
         id="title305">28</title>
      <ellipse
         cx="315"
         cy="-244.8"
         rx="27"
         ry="18"
         id="ellipse307"
         style="fill:none;stroke:#000000" />
      <text
         x="315"
         y="-241.10001"
         font-size="14.00"
         id="text309"
         style="font-size:14px;font-family:'Times New Roman', serif;text-anchor:middle">(5, s, 5)</text>
    </g>
    <!-- 23&#45;&gt;28 -->
    <g
       id="edge24"
       class="edge">
      <title
         id="title312">23-&gt;28</title>
      <path
         d="M315,-280.715C315,-279.365 315,-276.583 315,-273.15"
         id="path314"
         stroke="black"
         fill="none" />
      <polygon
         points="318.5,-273.084 315,-263.084 311.5,-273.084 318.5,-273.084"
         id="polygon316"
         stroke="black"
         fill="black" />
    </g>
    <!-- 29 -->
    <g
       id="node24"
       class="node"
       transform="translate(-131.23894,5.2521735e-8)">
      <title
         id="title319">29</title>
      <polygon
         points="126,-151.2 126,-187.2 126,-187.2 72,-187.2 72,-151.2 "
         id="polygon321"
         style="fill:none;stroke:#000000"
         transform="matrix(1.3535893,0,0,0.99553231,-43.596876,-0.75593264)" />
      <text
         x="91.010025"
         y="-165.5"
         font-size="14.00"
         id="text323"
         style="font-size:14px;font-family:'Times New Roman', serif;text-anchor:middle">(0,s=As.B,1)</text>
    </g>
    <!-- 24&#45;&gt;29 -->
    <g
       id="edge25"
       class="edge"
       transform="translate(-57.61712,0)">
      <title
         id="title326">24-&gt;29</title>
      <path
         d="m 99,-205.115 c 0,1.35 0,4.132 0,7.565"
         id="path328"
         inkscape:connector-curvature="0"
         style="fill:none;stroke:#000000" />
      <polygon
         points="95.5001,-197.484 102.5,-197.484 102.5,-197.484 99,-187.484 "
         id="polygon330"
         style="fill:#000000;stroke:#000000" />
    </g>
    <!-- 30 -->
    <g
       id="node25"
       class="node"
       transform="translate(11.203311,0)">
      <title
         id="title333">30</title>
      <polygon
         points="54,-187.2 0,-187.2 0,-151.2 54,-151.2 54,-187.2 "
         id="polygon335"
         style="fill:none;stroke:#000000" />
      <text
         x="27"
         y="-165.5"
         font-size="14.00"
         id="text337"
         style="font-size:14px;font-family:'Times New Roman', serif;text-anchor:middle">(1, B, 2)</text>
    </g>
    <!-- 24&#45;&gt;30 -->
    <g
       id="edge26"
       class="edge"
       transform="translate(-57.61712,0)">
      <title
         id="title340">24-&gt;30</title>
      <path
         d="m 97.9822,-205.494 c -4.0292,2.004 -19.3954,9.644 -34.8049,17.306"
         id="path342"
         inkscape:connector-curvature="0"
         style="fill:none;stroke:#000000" />
      <polygon
         points="61.5807,-191.303 64.6973,-185.035 64.6973,-185.035 54.1848,-183.717 "
         id="polygon344"
         style="fill:#000000;stroke:#000000" />
    </g>
    <!-- 25&#45;&gt;26 -->
    <!-- 31 -->
    <g
       id="node26"
       class="node">
      <title
         id="title354">31</title>
      <ellipse
         fill="black"
         stroke="black"
         cx="210"
         cy="-282.6"
         rx="1.8"
         ry="1.8"
         id="ellipse356" />
    </g>
    <!-- 26&#45;&gt;31 -->
    <g
       id="edge28"
       class="edge">
      <title
         id="title359">26-&gt;31</title>
      <path
         fill="none"
         stroke="black"
         d="M210,-302.339C210,-299.763 210,-297.165 210,-294.757"
         id="path361" />
      <polygon
         fill="black"
         stroke="black"
         points="213.5,-294.539 210,-284.539 206.5,-294.539 213.5,-294.539"
         id="polygon363" />
    </g>
    <!-- 32 -->
    <g
       id="node27"
       class="node"
       transform="translate(60.818053,0)">
      <title
         id="title366">32</title>
      <circle
         cx="315"
         cy="-207"
         id="ellipse368"
         r="1.8"
         style="fill:#000000;stroke:#000000" />
    </g>
    <!-- 28&#45;&gt;32 -->
    <g
       id="edge29"
       class="edge"
       transform="translate(60.818053,0)">
      <title
         id="title371">28-&gt;32</title>
      <path
         d="m 315,-226.739 c 0,2.576 0,5.174 0,7.582"
         id="path373"
         inkscape:connector-curvature="0"
         style="fill:none;stroke:#000000" />
      <polygon
         points="311.5,-218.939 318.5,-218.939 318.5,-218.939 315,-208.939 "
         id="polygon375"
         style="fill:#000000;stroke:#000000" />
    </g>
    <!-- 33 -->
    <g
       id="node28"
       class="node"
       transform="translate(-131.23894,5.2521735e-8)">
      <title
         id="title378">33</title>
      <circle
         cx="99"
         cy="-131.39999"
         id="ellipse380"
         r="1.8"
         style="fill:#000000;stroke:#000000" />
    </g>
    <!-- 29&#45;&gt;33 -->
    <g
       id="edge30"
       class="edge"
       transform="translate(-131.23894,5.2521735e-8)">
      <title
         id="title383">29-&gt;33</title>
      <path
         d="m 99,-151.139 c 0,2.576 0,5.174 0,7.582"
         id="path385"
         inkscape:connector-curvature="0"
         style="fill:none;stroke:#000000" />
      <polygon
         points="95.5001,-143.339 102.5,-143.339 102.5,-143.339 99,-133.339 "
         id="polygon387"
         style="fill:#000000;stroke:#000000" />
    </g>
    <!-- 34 -->
    <!-- 31&#45;&gt;34 -->
    <g
       id="edge31"
       class="edge">
      <title
         id="title397">31-&gt;34</title>
      <path
         d="M210.816,-280.715C212.353,-279.047 215.905,-275.194 220.112,-270.63"
         id="path399"
         stroke="black"
         fill="none" />
      <polygon
         points="222.864,-272.809 227.068,-263.084 217.717,-268.065 222.864,-272.809"
         id="polygon401"
         stroke="black"
         fill="black" />
    </g>
    <!-- 35 -->
    <g
       id="node30"
       class="node"
       transform="translate(78.423324,0)">
      <title
         id="title404">35</title>
      <polygon
         points="144,-226.8 198,-226.8 198,-262.8 198,-262.8 144,-262.8 "
         id="polygon406"
         style="fill:none;stroke:#000000" />
      <text
         x="171"
         y="-241.10001"
         font-size="14.00"
         id="text408"
         style="font-size:14px;font-family:'Times New Roman', serif;text-anchor:middle">(3, B, 4)</text>
    </g>
    <!-- 31&#45;&gt;35 -->
    <g
       id="edge32"
       class="edge">
      <title
         id="title411">31-&gt;35</title>
      <path
         fill="none"
         stroke="black"
         d="M209.036,-280.715C207.133,-278.968 202.616,-274.822 197.334,-269.973"
         id="path413" />
      <polygon
         fill="black"
         stroke="black"
         points="199.563,-267.268 189.829,-263.084 194.829,-272.425 199.563,-267.268"
         id="polygon415" />
    </g>
    <!-- 36 -->
    <!-- 32&#45;&gt;36 -->
    <g
       id="edge33"
       class="edge"
       transform="translate(60.818053,0)">
      <title
         id="title425">32-&gt;36</title>
      <path
         d="m 315,-205.115 c 0,1.35 0,4.132 0,7.565"
         id="path427"
         inkscape:connector-curvature="0"
         style="fill:none;stroke:#000000" />
      <polygon
         points="311.5,-197.484 318.5,-197.484 318.5,-197.484 315,-187.484 "
         id="polygon429"
         style="fill:#000000;stroke:#000000" />
    </g>
    <!-- 37 -->
    <g
       id="node32"
       class="node"
       transform="translate(-203.26045,0)">
      <title
         id="title432">37</title>
      <polygon
         points="198,-111.6 198,-111.6 144,-111.6 144,-75.6 198,-75.6 "
         id="polygon434"
         style="fill:none;stroke:#000000" />
      <text
         x="171"
         y="-89.900002"
         font-size="14.00"
         id="text436"
         style="font-size:14px;font-family:'Times New Roman', serif;text-anchor:middle">(0, A, 1)</text>
    </g>
    <!-- 33&#45;&gt;37 -->
    <g
       id="edge34"
       class="edge"
       transform="translate(-131.23894,0)">
      <title
         id="title439">33-&gt;37</title>
      <path
         d="m 100.018,-129.894 c 4.029,2.004 19.395,9.644 34.805,17.306"
         id="path441"
         inkscape:connector-curvature="0"
         style="fill:none;stroke:#000000" />
      <polygon
         points="136.419,-115.703 143.815,-108.117 133.303,-109.435 136.419,-115.703 "
         id="polygon443"
         style="fill:#000000;stroke:#000000" />
    </g>
    <!-- 38 -->
    <g
       id="node33"
       class="node"
       transform="translate(-68.82032,5.2521735e-8)">
      <title
         id="title446">38</title>
      <ellipse
         cx="99"
         cy="-93.599998"
         rx="27"
         ry="18"
         id="ellipse448"
         style="fill:none;stroke:#000000" />
      <text
         x="99"
         y="-89.900002"
         font-size="14.00"
         id="text450"
         style="font-size:14px;font-family:'Times New Roman', serif;text-anchor:middle">(1, s, 1)</text>
    </g>
    <!-- 33&#45;&gt;38 -->
    <g
       id="edge35"
       class="edge"
       transform="translate(-131.23894,5.2521735e-8)">
      <title
         id="title453">33-&gt;38</title>
      <path
         d="m 99,-129.515 c 0,1.35 0,4.132 0,7.565"
         id="path455"
         inkscape:connector-curvature="0"
         style="fill:none;stroke:#000000" />
      <polygon
         points="95.5001,-121.884 102.5,-121.884 102.5,-121.884 99,-111.884 "
         id="polygon457"
         style="fill:#000000;stroke:#000000" />
    </g>
    <!-- 39 -->
    <g
       id="node34"
       class="node"
       transform="translate(-70.42092,0)">
      <title
         id="title460">39</title>
      <circle
         cx="243"
         cy="-207"
         id="ellipse462"
         r="1.8"
         style="fill:#000000;stroke:#000000" />
    </g>
    <!-- 34&#45;&gt;39 -->
    <g
       id="edge36"
       class="edge"
       transform="translate(-70.42092,0)">
      <title
         id="title465">34-&gt;39</title>
      <path
         d="m 243,-226.739 c 0,2.576 0,5.174 0,7.582"
         id="path467"
         inkscape:connector-curvature="0"
         style="fill:none;stroke:#000000" />
      <polygon
         points="246.5,-218.939 243,-208.939 239.5,-218.939 246.5,-218.939 "
         id="polygon469"
         style="fill:#000000;stroke:#000000" />
    </g>
    <!-- 40 -->
    <g
       id="node35"
       class="node"
       transform="translate(-68.82032,5.2521735e-8)">
      <title
         id="title472">40</title>
      <circle
         cx="99"
         cy="-55.799999"
         id="ellipse474"
         r="1.8"
         style="fill:#000000;stroke:#000000" />
    </g>
    <!-- 38&#45;&gt;40 -->
    <g
       id="edge37"
       class="edge"
       transform="translate(-68.82032,5.2521735e-8)">
      <title
         id="title477">38-&gt;40</title>
      <path
         d="m 99,-75.5388 c 0,2.5753 0,5.1738 0,7.5817"
         id="path479"
         inkscape:connector-curvature="0"
         style="fill:none;stroke:#000000" />
      <polygon
         points="99,-57.7392 95.5001,-67.7392 102.5,-67.7391 102.5,-67.7391 "
         id="polygon481"
         style="fill:#000000;stroke:#000000" />
    </g>
    <!-- 41 -->
    <g
       id="node36"
       class="node"
       transform="translate(-70.42092,0)">
      <title
         id="title484">41</title>
      <polygon
         points="198,-187.2 198,-187.2 144,-187.2 144,-151.2 198,-151.2 "
         id="polygon486"
         style="fill:none;stroke:#000000" />
      <text
         x="171"
         y="-165.5"
         font-size="14.00"
         id="text488"
         style="font-size:14px;font-family:'Times New Roman', serif;text-anchor:middle">(2, A, 3)</text>
    </g>
    <!-- 39&#45;&gt;41 -->
    <g
       id="edge38"
       class="edge"
       transform="translate(-70.42092,0)">
      <title
         id="title491">39-&gt;41</title>
      <path
         d="m 241.982,-205.494 c -4.029,2.004 -19.395,9.644 -34.805,17.306"
         id="path493"
         inkscape:connector-curvature="0"
         style="fill:none;stroke:#000000" />
      <polygon
         points="208.697,-185.035 198.185,-183.717 205.581,-191.303 208.697,-185.035 "
         id="polygon495"
         style="fill:#000000;stroke:#000000" />
    </g>
    <!-- 42 -->
    <g
       id="node37"
       class="node"
       transform="translate(-70.42092,1.6004755)">
      <title
         id="title498">42</title>
      <ellipse
         cx="243"
         cy="-169.2"
         rx="27"
         ry="18"
         id="ellipse500"
         style="fill:none;stroke:#000000" />
      <text
         x="243"
         y="-165.5"
         font-size="14.00"
         id="text502"
         style="font-size:14px;font-family:'Times New Roman', serif;text-anchor:middle">(3, s, 3)</text>
    </g>
    <!-- 39&#45;&gt;42 -->
    <g
       id="edge39"
       class="edge"
       transform="translate(-70.42092,0)">
      <title
         id="title505">39-&gt;42</title>
      <path
         d="m 243,-205.115 c 0,1.35 0,4.132 0,7.565"
         id="path507"
         inkscape:connector-curvature="0"
         style="fill:none;stroke:#000000" />
      <polygon
         points="246.5,-197.484 243,-187.484 239.5,-197.484 246.5,-197.484 "
         id="polygon509"
         style="fill:#000000;stroke:#000000" />
    </g>
    <!-- 43 -->
    <g
       id="node38"
       class="node"
       transform="translate(-68.82032,5.2521735e-8)">
      <title
         id="title512">43</title>
      <polygon
         points="72,0 126,0 126,-36 126,-36 72,-36 "
         id="polygon514"
         style="fill:none;stroke:#000000"
         transform="matrix(1.1570415,0,0,0.99792827,-11.268292,-0.0372911)" />
      <text
         x="103.28565"
         y="-14.3"
         font-size="14.00"
         id="text516"
         style="font-size:14px;font-family:'Times New Roman', serif;text-anchor:middle">(1, eps, 1)</text>
    </g>
    <!-- 40&#45;&gt;43 -->
    <g
       id="edge40"
       class="edge"
       transform="translate(-68.82032,5.2521735e-8)">
      <title
         id="title519">40-&gt;43</title>
      <path
         d="m 99,-53.9151 c 0,1.35 0,4.1324 0,7.5648"
         id="path521"
         inkscape:connector-curvature="0"
         style="fill:none;stroke:#000000" />
      <polygon
         points="99,-36.2839 95.5001,-46.284 102.5,-46.2839 102.5,-46.2839 "
         id="polygon523"
         style="fill:#000000;stroke:#000000" />
    </g>
    <!-- 44 -->
    <!-- 42&#45;&gt;44 -->
    <!-- 45 -->
    <!-- 44&#45;&gt;45 -->
    <g
       id="node24-7"
       class="node"
       transform="translate(85.08373,-75.08121)">
      <title
         id="title319-4">29</title>
      <polygon
         points="126,-187.2 72,-187.2 72,-151.2 126,-151.2 126,-187.2 "
         id="polygon321-9"
         style="fill:none;stroke:#000000"
         transform="matrix(1.3535893,0,0,0.99553231,-43.596876,-0.75593264)" />
      <text
         x="91.010025"
         y="-165.5"
         font-size="14.00"
         id="text323-9"
         style="font-size:14px;font-family:'Times New Roman', serif;text-anchor:middle">(0,s=As.B,1)</text>
    </g>
    <g
       id="node24-1"
       class="node"
       transform="translate(204.39518,-150.11834)">
      <title
         id="title319-0">29</title>
      <polygon
         points="126,-187.2 126,-187.2 72,-187.2 72,-151.2 126,-151.2 "
         id="polygon321-6"
         style="fill:none;stroke:#000000"
         transform="matrix(1.3535893,0,0,0.99553231,-43.596876,-0.75593264)" />
      <text
         x="91.010025"
         y="-165.5"
         font-size="14.00"
         id="text323-2"
         style="font-size:14px;font-family:'Times New Roman', serif;text-anchor:middle">(0,s=As.B,1)</text>
    </g>
    <g
       transform="translate(-134.84516,151.51962)"
       id="node4-7"
       class="node">
      <title
         id="title41-5">9</title>
      <polygon
         points="268,-489.6 268,-489.6 214,-489.6 214,-453.6 268,-453.6 "
         id="polygon43-1"
         transform="matrix(1.1309044,0,0,0.99826344,-35.113647,-0.81896148)"
         style="fill:none;stroke:#000000" />
      <text
         x="237.42406"
         y="-467.89999"
         font-size="14.00"
         id="text45-9"
         style="font-size:14px;font-family:'Times New Roman', serif;text-anchor:middle">(0,s=s.s,2)</text>
      <flowRoot
         xml:space="preserve"
         id="flowRoot3928-9"
         style="font-style:normal;font-weight:normal;font-size:40px;line-height:125%;font-family:sans-serif;letter-spacing:0px;word-spacing:0px;fill:#000000;fill-opacity:1;stroke:none;stroke-width:1px;stroke-linecap:butt;stroke-linejoin:miter;stroke-opacity:1"><flowRegion
           id="flowRegion3930-5"><rect
             id="rect3932-9"
             width="322.59799"
             height="118.52357"
             x="-460.72696"
             y="57.925053" /></flowRegion><flowPara
           id="flowPara3934-0" /></flowRoot>    </g>
    <polygon
       points="126,-36 72,-36 72,0 126,0 126,-36 "
       id="polygon514-7"
       style="fill:none;stroke:#000000"
       transform="matrix(1.1570415,0,0,0.99792829,56.19254,-73.516962)" />
    <text
       x="170.74644"
       y="-87.779671"
       font-size="14.00"
       id="text516-8"
       style="font-size:14.00000095px;font-family:'Times New Roman', serif;text-anchor:middle">(3, eps, 3)</text>
    <polygon
       points="126,0 126,-36 126,-36 72,-36 72,0 "
       id="polygon514-9"
       style="fill:none;stroke:#000000"
       transform="matrix(1.1570415,0,0,0.99792829,260.94987,-149.33244)" />
    <text
       x="375.50345"
       y="-163.59517"
       font-size="14.00"
       id="text516-2"
       style="font-size:14.00000095px;font-family:'Times New Roman', serif;text-anchor:middle">(5, eps, 5)</text>
    <g
       id="edge26-1"
       class="edge"
       transform="translate(4.316832,-76.506885)">
      <title
         id="title340-4">24-&gt;30</title>
      <path
         d="m 97.9822,-205.494 c -4.0292,2.004 -19.3954,9.644 -34.8049,17.306"
         id="path342-2"
         inkscape:connector-curvature="0"
         style="fill:none;stroke:#000000" />
      <polygon
         points="61.5807,-191.303 64.6973,-185.035 64.6973,-185.035 54.1848,-183.717 "
         id="polygon344-5"
         style="fill:#000000;stroke:#000000" />
    </g>
    <g
       id="node28-9"
       class="node"
       transform="translate(74.123954,0.98389155)">
      <title
         id="title378-8">33</title>
      <circle
         cx="99"
         cy="-131.39999"
         id="ellipse380-3"
         r="1.8"
         style="fill:#000000;stroke:#000000" />
    </g>
    <g
       id="edge30-2"
       class="edge"
       transform="translate(74.123954,0.98389155)">
      <title
         id="title383-1">29-&gt;33</title>
      <path
         d="m 99,-151.139 c 0,2.576 0,5.174 0,7.582"
         id="path385-4"
         inkscape:connector-curvature="0"
         style="fill:none;stroke:#000000" />
      <polygon
         points="95.5001,-143.339 102.5,-143.339 102.5,-143.339 99,-133.339 "
         id="polygon387-5"
         style="fill:#000000;stroke:#000000" />
    </g>
    <g
       id="edge35-4"
       class="edge"
       transform="translate(74.123954,0.98389155)">
      <title
         id="title453-4">33-&gt;38</title>
      <path
         d="m 99,-129.515 c 0,1.35 0,4.132 0,7.565"
         id="path455-3"
         inkscape:connector-curvature="0"
         style="fill:none;stroke:#000000" />
      <polygon
         points="95.5001,-121.884 102.5,-121.884 102.5,-121.884 99,-111.884 "
         id="polygon457-4"
         style="fill:#000000;stroke:#000000" />
    </g>
    <g
       id="node39-3"
       class="node"
       transform="translate(72.108508,-150.26379)">
      <title
         id="title526-8">44</title>
      <circle
         cx="243"
         cy="-131.39999"
         id="ellipse528-01"
         r="1.8"
         style="fill:#000000;stroke:#000000" />
    </g>
    <g
       transform="translate(0.6831738,-22.496141)"
       id="edge3-7"
       class="edge">
      <title
         id="title48-2">7-&gt;9</title>
      <path
         style="fill:none;stroke:#000000"
         inkscape:connector-curvature="0"
         d="m 241,-507.515 c 0,1.35 0,4.132 0,7.565"
         id="path50-0" />
      <polygon
         style="fill:#000000;stroke:#000000"
         points="237.5,-499.884 244.5,-499.884 244.5,-499.884 241,-489.884 "
         id="polygon52-9" />
    </g>
  </g>
</svg>
