<?xml version="1.0" encoding="UTF-8" standalone="no"?>
<!-- Created with Inkscape (http://www.inkscape.org/) -->

<svg
   xmlns:dc="http://purl.org/dc/elements/1.1/"
   xmlns:cc="http://creativecommons.org/ns#"
   xmlns:rdf="http://www.w3.org/1999/02/22-rdf-syntax-ns#"
   xmlns:svg="http://www.w3.org/2000/svg"
   xmlns="http://www.w3.org/2000/svg"
   xmlns:sodipodi="http://sodipodi.sourceforge.net/DTD/sodipodi-0.dtd"
   xmlns:inkscape="http://www.inkscape.org/namespaces/inkscape"
   width="744.09448819"
   height="1052.3622047"
   id="svg2"
   version="1.1"
   inkscape:version="0.48.5 r10040"
   sodipodi:docname="16sgrammar.svg">
  <defs
     id="defs4" />
  <sodipodi:namedview
     id="base"
     pagecolor="#ffffff"
     bordercolor="#666666"
     borderopacity="1.0"
     inkscape:pageopacity="0.0"
     inkscape:pageshadow="2"
     inkscape:zoom="0.98994949"
     inkscape:cx="347.05353"
     inkscape:cy="645.91185"
     inkscape:document-units="px"
     inkscape:current-layer="g4132"
     showgrid="false"
     inkscape:window-width="1920"
     inkscape:window-height="1177"
     inkscape:window-x="-8"
     inkscape:window-y="-8"
     inkscape:window-maximized="1" />
  <metadata
     id="metadata7">
    <rdf:RDF>
      <cc:Work
         rdf:about="">
        <dc:format>image/svg+xml</dc:format>
        <dc:type
           rdf:resource="http://purl.org/dc/dcmitype/StillImage" />
        <dc:title></dc:title>
      </cc:Work>
    </rdf:RDF>
  </metadata>
  <g
     inkscape:label="Layer 1"
     inkscape:groupmode="layer"
     id="layer1">
    <path
       sodipodi:type="arc"
       style="opacity:0.5;fill:#000000;fill-opacity:1;fill-rule:evenodd;stroke:#000000;stroke-width:6;stroke-miterlimit:10;stroke-opacity:1;stroke-dasharray:none;stroke-dashoffset:0"
       id="path2985"
       sodipodi:cx="220.71428"
       sodipodi:cy="439.50504"
       sodipodi:rx="16.428572"
       sodipodi:ry="17.142857"
       d="m 237.14285,439.50504 a 16.428572,17.142857 0 1 1 -32.85714,0 16.428572,17.142857 0 1 1 32.85714,0 z"
       transform="translate(-0.035715,0.9642874)" />
    <path
       transform="translate(97.107155,0.9642874)"
       sodipodi:type="arc"
       style="opacity:0.5;fill:#000000;fill-opacity:1;fill-rule:evenodd;stroke:#000000;stroke-width:6;stroke-miterlimit:10;stroke-opacity:1;stroke-dasharray:none;stroke-dashoffset:0"
       id="path2985-1"
       sodipodi:cx="220.71428"
       sodipodi:cy="439.50504"
       sodipodi:rx="16.428572"
       sodipodi:ry="17.142857"
       d="m 237.14285,439.50504 a 16.428572,17.142857 0 1 1 -32.85714,0 16.428572,17.142857 0 1 1 32.85714,0 z" />
    <rect
       style="opacity:0.5;fill:#000000;fill-opacity:1;fill-rule:evenodd;stroke:#000000;stroke-width:5.76100779;stroke-miterlimit:10;stroke-opacity:1;stroke-dasharray:none;stroke-dashoffset:0"
       id="rect3773"
       width="49.717964"
       height="10.714286"
       x="244.39102"
       y="435.11218"
       rx="3.68769"
       ry="4" />
    <path
       sodipodi:type="arc"
       style="opacity:0.5;fill:#000000;fill-opacity:1;fill-rule:evenodd;stroke:#000000;stroke-width:6;stroke-miterlimit:10;stroke-opacity:1;stroke-dasharray:none;stroke-dashoffset:0"
       id="path2985-7"
       sodipodi:cx="220.71428"
       sodipodi:cy="439.50504"
       sodipodi:rx="16.428572"
       sodipodi:ry="17.142857"
       d="m 237.14285,439.50504 a 16.428572,17.142857 0 1 1 -32.85714,0 16.428572,17.142857 0 1 1 32.85714,0 z"
       transform="translate(-0.035715,42.500003)" />
    <path
       transform="translate(97.107155,42.500003)"
       sodipodi:type="arc"
       style="opacity:0.5;fill:#000000;fill-opacity:1;fill-rule:evenodd;stroke:#000000;stroke-width:6;stroke-miterlimit:10;stroke-opacity:1;stroke-dasharray:none;stroke-dashoffset:0"
       id="path2985-1-4"
       sodipodi:cx="220.71428"
       sodipodi:cy="439.50504"
       sodipodi:rx="16.428572"
       sodipodi:ry="17.142857"
       d="m 237.14285,439.50504 a 16.428572,17.142857 0 1 1 -32.85714,0 16.428572,17.142857 0 1 1 32.85714,0 z" />
    <rect
       style="opacity:0.5;fill:#000000;fill-opacity:1;fill-rule:evenodd;stroke:#000000;stroke-width:5.76100779;stroke-miterlimit:10;stroke-opacity:1;stroke-dasharray:none;stroke-dashoffset:0"
       id="rect3773-0"
       width="49.717964"
       height="10.714286"
       x="244.39102"
       y="476.64789"
       rx="3.68769"
       ry="4" />
    <path
       sodipodi:type="arc"
       style="opacity:0.5;fill:#000000;fill-opacity:1;fill-rule:evenodd;stroke:#000000;stroke-width:6;stroke-miterlimit:10;stroke-opacity:1;stroke-dasharray:none;stroke-dashoffset:0"
       id="path2985-17"
       sodipodi:cx="220.71428"
       sodipodi:cy="439.50504"
       sodipodi:rx="16.428572"
       sodipodi:ry="17.142857"
       d="m 237.14285,439.50504 a 16.428572,17.142857 0 1 1 -32.85714,0 16.428572,17.142857 0 1 1 32.85714,0 z"
       transform="translate(-0.035715,103.5)" />
    <path
       transform="translate(97.107155,103.5)"
       sodipodi:type="arc"
       style="opacity:0.5;fill:#000000;fill-opacity:1;fill-rule:evenodd;stroke:#000000;stroke-width:6;stroke-miterlimit:10;stroke-opacity:1;stroke-dasharray:none;stroke-dashoffset:0"
       id="path2985-1-1"
       sodipodi:cx="220.71428"
       sodipodi:cy="439.50504"
       sodipodi:rx="16.428572"
       sodipodi:ry="17.142857"
       d="m 237.14285,439.50504 a 16.428572,17.142857 0 1 1 -32.85714,0 16.428572,17.142857 0 1 1 32.85714,0 z" />
    <rect
       style="opacity:0.5;fill:#000000;fill-opacity:1;fill-rule:evenodd;stroke:#000000;stroke-width:5.76100779;stroke-miterlimit:10;stroke-opacity:1;stroke-dasharray:none;stroke-dashoffset:0"
       id="rect3773-1"
       width="49.717964"
       height="10.714286"
       x="244.39102"
       y="537.64789"
       rx="3.68769"
       ry="4" />
    <path
       sodipodi:type="arc"
       style="opacity:0.5;fill:#000000;fill-opacity:1;fill-rule:evenodd;stroke:#000000;stroke-width:6;stroke-miterlimit:10;stroke-opacity:1;stroke-dasharray:none;stroke-dashoffset:0"
       id="path2985-17-5"
       sodipodi:cx="220.71428"
       sodipodi:cy="439.50504"
       sodipodi:rx="16.428572"
       sodipodi:ry="17.142857"
       d="m 237.14285,439.50504 a 16.428572,17.142857 0 1 1 -32.85714,0 16.428572,17.142857 0 1 1 32.85714,0 z"
       transform="translate(-40.016253,117.23519)" />
    <path
       sodipodi:type="arc"
       style="opacity:0.5;fill:#000000;fill-opacity:1;fill-rule:evenodd;stroke:#000000;stroke-width:6;stroke-miterlimit:10;stroke-opacity:1;stroke-dasharray:none;stroke-dashoffset:0"
       id="path2985-17-2"
       sodipodi:cx="220.71428"
       sodipodi:cy="439.50504"
       sodipodi:rx="16.428572"
       sodipodi:ry="17.142857"
       d="m 237.14285,439.50504 a 16.428572,17.142857 0 1 1 -32.85714,0 16.428572,17.142857 0 1 1 32.85714,0 z"
       transform="translate(136.33404,117.23519)" />
    <path
       sodipodi:type="arc"
       style="opacity:0.5;fill:#000000;fill-opacity:1;fill-rule:evenodd;stroke:#000000;stroke-width:6;stroke-miterlimit:10;stroke-opacity:1;stroke-dasharray:none;stroke-dashoffset:0"
       id="path2985-17-6"
       sodipodi:cx="220.71428"
       sodipodi:cy="439.50504"
       sodipodi:rx="16.428572"
       sodipodi:ry="17.142857"
       d="m 237.14285,439.50504 a 16.428572,17.142857 0 1 1 -32.85714,0 16.428572,17.142857 0 1 1 32.85714,0 z"
       transform="translate(-31.896973,-29.599872)" />
    <path
       sodipodi:type="arc"
       style="opacity:0.5;fill:#000000;fill-opacity:1;fill-rule:evenodd;stroke:#000000;stroke-width:6;stroke-miterlimit:10;stroke-opacity:1;stroke-dasharray:none;stroke-dashoffset:0"
       id="path2985-17-7-6"
       sodipodi:cx="220.71428"
       sodipodi:cy="439.50504"
       sodipodi:rx="16.428572"
       sodipodi:ry="17.142857"
       d="m 237.14285,439.50504 a 16.428572,17.142857 0 1 1 -32.85714,0 16.428572,17.142857 0 1 1 32.85714,0 z"
       transform="translate(-127.14285,118)" />
    <path
       sodipodi:type="arc"
       style="opacity:0.5;fill:#000000;fill-opacity:1;fill-rule:evenodd;stroke:#000000;stroke-width:6;stroke-miterlimit:10;stroke-opacity:1;stroke-dasharray:none;stroke-dashoffset:0"
       id="path2985-17-6-2"
       sodipodi:cx="220.71428"
       sodipodi:cy="439.50504"
       sodipodi:rx="16.428572"
       sodipodi:ry="17.142857"
       d="m 237.14285,439.50504 a 16.428572,17.142857 0 1 1 -32.85714,0 16.428572,17.142857 0 1 1 32.85714,0 z"
       transform="translate(127.28572,-28.428568)" />
    <text
       xml:space="preserve"
       style="font-size:40px;font-style:normal;font-weight:normal;line-height:125%;letter-spacing:0px;word-spacing:0px;fill:#000000;fill-opacity:1;stroke:none;font-family:Sans"
       x="166.42857"
       y="670.21936"
       id="text4064"
       sodipodi:linespacing="125%"><tspan
         sodipodi:role="line"
         id="tspan4066"
         x="166.42857"
         y="670.21936">s0: a_0_7 | a_0_7 stem&lt;s0&gt; s0</tspan></text>
    <text
       xml:space="preserve"
       style="font-size:40px;font-style:normal;font-weight:normal;line-height:125%;letter-spacing:0px;word-spacing:0px;fill:#000000;fill-opacity:1;stroke:none;font-family:Sans"
       x="245.83008"
       y="515.30774"
       id="text4068"
       sodipodi:linespacing="125%"><tspan
         sodipodi:role="line"
         id="tspan4070"
         x="245.83008"
         y="515.30774"
         style="font-size:56px">...</tspan></text>
    <g
       id="g4132"
       transform="matrix(0.50349378,-0.86399885,0.86399885,0.50349378,-211.86717,286.81147)">
      <path
         transform="translate(-56.76603,-210.29616)"
         d="m 237.14285,439.50504 c 0,9.46773 -7.35532,17.14285 -16.42857,17.14285 -9.07325,0 -16.42857,-7.67512 -16.42857,-17.14285 0,-9.46774 7.35532,-17.14286 16.42857,-17.14286 9.07325,0 16.42857,7.67512 16.42857,17.14286 z"
         sodipodi:ry="17.142857"
         sodipodi:rx="16.428572"
         sodipodi:cy="439.50504"
         sodipodi:cx="220.71428"
         id="path2985-3"
         style="opacity:0.5;fill:#000000;fill-opacity:1;fill-rule:evenodd;stroke:#000000;stroke-width:6;stroke-miterlimit:10;stroke-opacity:1;stroke-dasharray:none;stroke-dashoffset:0"
         sodipodi:type="arc" />
      <path
         d="m 237.14285,439.50504 c 0,9.46773 -7.35532,17.14285 -16.42857,17.14285 -9.07325,0 -16.42857,-7.67512 -16.42857,-17.14285 0,-9.46774 7.35532,-17.14286 16.42857,-17.14286 9.07325,0 16.42857,7.67512 16.42857,17.14286 z"
         sodipodi:ry="17.142857"
         sodipodi:rx="16.428572"
         sodipodi:cy="439.50504"
         sodipodi:cx="220.71428"
         id="path2985-1-19"
         style="opacity:0.5;fill:#000000;fill-opacity:1;fill-rule:evenodd;stroke:#000000;stroke-width:6;stroke-miterlimit:10;stroke-opacity:1;stroke-dasharray:none;stroke-dashoffset:0"
         sodipodi:type="arc"
         transform="translate(40.376841,-210.29616)" />
      <rect
         ry="4"
         rx="3.68769"
         y="223.85173"
         x="187.66071"
         height="10.714286"
         width="49.717964"
         id="rect3773-8"
         style="opacity:0.5;fill:#000000;fill-opacity:1;fill-rule:evenodd;stroke:#000000;stroke-width:5.76100779;stroke-miterlimit:10;stroke-opacity:1;stroke-dasharray:none;stroke-dashoffset:0" />
      <path
         transform="translate(-56.76603,-168.76045)"
         d="m 237.14285,439.50504 c 0,9.46773 -7.35532,17.14285 -16.42857,17.14285 -9.07325,0 -16.42857,-7.67512 -16.42857,-17.14285 0,-9.46774 7.35532,-17.14286 16.42857,-17.14286 9.07325,0 16.42857,7.67512 16.42857,17.14286 z"
         sodipodi:ry="17.142857"
         sodipodi:rx="16.428572"
         sodipodi:cy="439.50504"
         sodipodi:cx="220.71428"
         id="path2985-7-6"
         style="opacity:0.5;fill:#000000;fill-opacity:1;fill-rule:evenodd;stroke:#000000;stroke-width:6;stroke-miterlimit:10;stroke-opacity:1;stroke-dasharray:none;stroke-dashoffset:0"
         sodipodi:type="arc" />
      <path
         d="m 237.14285,439.50504 c 0,9.46773 -7.35532,17.14285 -16.42857,17.14285 -9.07325,0 -16.42857,-7.67512 -16.42857,-17.14285 0,-9.46774 7.35532,-17.14286 16.42857,-17.14286 9.07325,0 16.42857,7.67512 16.42857,17.14286 z"
         sodipodi:ry="17.142857"
         sodipodi:rx="16.428572"
         sodipodi:cy="439.50504"
         sodipodi:cx="220.71428"
         id="path2985-1-4-5"
         style="opacity:0.5;fill:#000000;fill-opacity:1;fill-rule:evenodd;stroke:#000000;stroke-width:6;stroke-miterlimit:10;stroke-opacity:1;stroke-dasharray:none;stroke-dashoffset:0"
         sodipodi:type="arc"
         transform="translate(40.376841,-168.76045)" />
      <rect
         ry="4"
         rx="3.68769"
         y="265.38745"
         x="187.66071"
         height="10.714286"
         width="49.717964"
         id="rect3773-0-0"
         style="opacity:0.5;fill:#000000;fill-opacity:1;fill-rule:evenodd;stroke:#000000;stroke-width:5.76100779;stroke-miterlimit:10;stroke-opacity:1;stroke-dasharray:none;stroke-dashoffset:0" />
      <path
         transform="translate(-56.76603,-107.76045)"
         d="m 237.14285,439.50504 c 0,9.46773 -7.35532,17.14285 -16.42857,17.14285 -9.07325,0 -16.42857,-7.67512 -16.42857,-17.14285 0,-9.46774 7.35532,-17.14286 16.42857,-17.14286 9.07325,0 16.42857,7.67512 16.42857,17.14286 z"
         sodipodi:ry="17.142857"
         sodipodi:rx="16.428572"
         sodipodi:cy="439.50504"
         sodipodi:cx="220.71428"
         id="path2985-17-28"
         style="opacity:0.5;fill:#000000;fill-opacity:1;fill-rule:evenodd;stroke:#000000;stroke-width:6;stroke-miterlimit:10;stroke-opacity:1;stroke-dasharray:none;stroke-dashoffset:0"
         sodipodi:type="arc" />
      <path
         d="m 237.14285,439.50504 c 0,9.46773 -7.35532,17.14285 -16.42857,17.14285 -9.07325,0 -16.42857,-7.67512 -16.42857,-17.14285 0,-9.46774 7.35532,-17.14286 16.42857,-17.14286 9.07325,0 16.42857,7.67512 16.42857,17.14286 z"
         sodipodi:ry="17.142857"
         sodipodi:rx="16.428572"
         sodipodi:cy="439.50504"
         sodipodi:cx="220.71428"
         id="path2985-1-1-6"
         style="opacity:0.5;fill:#000000;fill-opacity:1;fill-rule:evenodd;stroke:#000000;stroke-width:6;stroke-miterlimit:10;stroke-opacity:1;stroke-dasharray:none;stroke-dashoffset:0"
         sodipodi:type="arc"
         transform="translate(40.376841,-107.76045)" />
      <rect
         ry="4"
         rx="3.68769"
         y="326.38745"
         x="187.66071"
         height="10.714286"
         width="49.717964"
         id="rect3773-1-0"
         style="opacity:0.5;fill:#000000;fill-opacity:1;fill-rule:evenodd;stroke:#000000;stroke-width:5.76100779;stroke-miterlimit:10;stroke-opacity:1;stroke-dasharray:none;stroke-dashoffset:0" />
      <path
         transform="translate(-90.704642,-83.657271)"
         d="m 237.14285,439.50504 a 16.428572,17.142857 0 1 1 -32.85714,0 16.428572,17.142857 0 1 1 32.85714,0 z"
         sodipodi:ry="17.142857"
         sodipodi:rx="16.428572"
         sodipodi:cy="439.50504"
         sodipodi:cx="220.71428"
         id="path2985-17-5-2"
         style="opacity:0.5;fill:#000000;fill-opacity:1;fill-rule:evenodd;stroke:#000000;stroke-width:6;stroke-miterlimit:10;stroke-opacity:1;stroke-dasharray:none;stroke-dashoffset:0"
         sodipodi:type="arc" />
      <path
         transform="translate(76.433708,-87.548299)"
         d="m 237.14285,439.50504 a 16.428572,17.142857 0 1 1 -32.85714,0 16.428572,17.142857 0 1 1 32.85714,0 z"
         sodipodi:ry="17.142857"
         sodipodi:rx="16.428572"
         sodipodi:cy="439.50504"
         sodipodi:cx="220.71428"
         id="path2985-17-2-4"
         style="opacity:0.5;fill:#000000;fill-opacity:1;fill-rule:evenodd;stroke:#000000;stroke-width:6;stroke-miterlimit:10;stroke-opacity:1;stroke-dasharray:none;stroke-dashoffset:0"
         sodipodi:type="arc" />
      <path
         transform="translate(-79.451909,-246.79767)"
         d="m 237.14285,439.50504 a 16.428572,17.142857 0 1 1 -32.85714,0 16.428572,17.142857 0 1 1 32.85714,0 z"
         sodipodi:ry="17.142857"
         sodipodi:rx="16.428572"
         sodipodi:cy="439.50504"
         sodipodi:cx="220.71428"
         id="path2985-17-6-8"
         style="opacity:0.5;fill:#000000;fill-opacity:1;fill-rule:evenodd;stroke:#000000;stroke-width:6;stroke-miterlimit:10;stroke-opacity:1;stroke-dasharray:none;stroke-dashoffset:0"
         sodipodi:type="arc" />
      <path
         transform="translate(56.671287,-251.02903)"
         d="m 237.14285,439.50504 a 16.428572,17.142857 0 1 1 -32.85714,0 16.428572,17.142857 0 1 1 32.85714,0 z"
         sodipodi:ry="17.142857"
         sodipodi:rx="16.428572"
         sodipodi:cy="439.50504"
         sodipodi:cx="220.71428"
         id="path2985-17-6-2-6"
         style="opacity:0.5;fill:#000000;fill-opacity:1;fill-rule:evenodd;stroke:#000000;stroke-width:6;stroke-miterlimit:10;stroke-opacity:1;stroke-dasharray:none;stroke-dashoffset:0"
         sodipodi:type="arc" />
      <text
         sodipodi:linespacing="125%"
         id="text4068-5"
         y="304.0473"
         x="189.09976"
         style="font-size:40px;font-style:normal;font-weight:normal;line-height:125%;letter-spacing:0px;word-spacing:0px;fill:#000000;fill-opacity:1;stroke:none;font-family:Sans"
         xml:space="preserve"><tspan
           style="font-size:56px"
           y="304.0473"
           x="189.09976"
           id="tspan4070-0"
           sodipodi:role="line">...</tspan></text>
      <text
         xml:space="preserve"
         style="font-size:91.42133331px;font-style:normal;font-weight:normal;line-height:125%;letter-spacing:0px;word-spacing:0px;fill:#000000;fill-opacity:1;stroke:none;font-family:Sans"
         x="767.10382"
         y="167.13464"
         id="text4149"
         sodipodi:linespacing="125%"
         transform="matrix(0.3617137,0.62070324,-1.2026585,0.70084705,0,0)"><tspan
           sodipodi:role="line"
           id="tspan4151"
           x="767.10382"
           y="167.13464">}</tspan></text>
      <path
         style="fill:none;stroke:#000000;stroke-width:1px;stroke-linecap:butt;stroke-linejoin:miter;stroke-opacity:1"
         d="m 358.57143,485.93361 c 103.57143,6.42857 180.71428,156.42857 180.71428,156.42857"
         id="path4153"
         inkscape:connector-curvature="0"
         transform="matrix(0.50349378,0.86399885,-0.86399885,0.50349378,354.47858,38.6452)" />
      <path
         sodipodi:type="arc"
         style="opacity:0.5;fill:#000000;fill-opacity:1;fill-rule:evenodd;stroke:#000000;stroke-width:6;stroke-miterlimit:10;stroke-opacity:1;stroke-dasharray:none;stroke-dashoffset:0"
         id="path2985-9"
         sodipodi:cx="220.71428"
         sodipodi:cy="439.50504"
         sodipodi:rx="16.428572"
         sodipodi:ry="17.142857"
         d="m 237.14285,439.50504 a 16.428572,17.142857 0 1 1 -32.85714,0 16.428572,17.142857 0 1 1 32.85714,0 z"
         transform="matrix(0.50349378,0.86399885,-0.86399885,0.50349378,487.30875,269.71094)" />
      <path
         transform="matrix(0.50349378,0.86399885,-0.86399885,0.50349378,536.21958,353.64227)"
         sodipodi:type="arc"
         style="opacity:0.5;fill:#000000;fill-opacity:1;fill-rule:evenodd;stroke:#000000;stroke-width:6;stroke-miterlimit:10;stroke-opacity:1;stroke-dasharray:none;stroke-dashoffset:0"
         id="path2985-1-0"
         sodipodi:cx="220.71428"
         sodipodi:cy="439.50504"
         sodipodi:rx="16.428572"
         sodipodi:ry="17.142857"
         d="m 237.14285,439.50504 a 16.428572,17.142857 0 1 1 -32.85714,0 16.428572,17.142857 0 1 1 32.85714,0 z" />
      <rect
         style="opacity:0.5;fill:#000000;fill-opacity:1;fill-rule:evenodd;stroke:#000000;stroke-width:5.76100779;stroke-miterlimit:10;stroke-opacity:1;stroke-dasharray:none;stroke-dashoffset:0"
         id="rect3773-06"
         width="49.717964"
         height="10.714286"
         x="722.8136"
         y="148.91164"
         rx="3.68769"
         ry="4"
         transform="matrix(0.50349378,0.86399885,-0.86399885,0.50349378,0,0)" />
      <path
         sodipodi:type="arc"
         style="opacity:0.5;fill:#000000;fill-opacity:1;fill-rule:evenodd;stroke:#000000;stroke-width:6;stroke-miterlimit:10;stroke-opacity:1;stroke-dasharray:none;stroke-dashoffset:0"
         id="path2985-7-1"
         sodipodi:cx="220.71428"
         sodipodi:cy="439.50504"
         sodipodi:rx="16.428572"
         sodipodi:ry="17.142857"
         d="m 237.14285,439.50504 a 16.428572,17.142857 0 1 1 -32.85714,0 16.428572,17.142857 0 1 1 32.85714,0 z"
         transform="matrix(0.50349378,0.86399885,-0.86399885,0.50349378,451.42193,290.62392)" />
      <path
         transform="matrix(0.50349378,0.86399885,-0.86399885,0.50349378,500.33276,374.55525)"
         sodipodi:type="arc"
         style="opacity:0.5;fill:#000000;fill-opacity:1;fill-rule:evenodd;stroke:#000000;stroke-width:6;stroke-miterlimit:10;stroke-opacity:1;stroke-dasharray:none;stroke-dashoffset:0"
         id="path2985-1-4-3"
         sodipodi:cx="220.71428"
         sodipodi:cy="439.50504"
         sodipodi:rx="16.428572"
         sodipodi:ry="17.142857"
         d="m 237.14285,439.50504 a 16.428572,17.142857 0 1 1 -32.85714,0 16.428572,17.142857 0 1 1 32.85714,0 z" />
      <rect
         style="opacity:0.5;fill:#000000;fill-opacity:1;fill-rule:evenodd;stroke:#000000;stroke-width:5.76100779;stroke-miterlimit:10;stroke-opacity:1;stroke-dasharray:none;stroke-dashoffset:0"
         id="rect3773-0-8"
         width="49.717964"
         height="10.714286"
         x="722.8136"
         y="190.44733"
         rx="3.68769"
         ry="4"
         transform="matrix(0.50349378,0.86399885,-0.86399885,0.50349378,0,0)" />
      <path
         sodipodi:type="arc"
         style="opacity:0.5;fill:#000000;fill-opacity:1;fill-rule:evenodd;stroke:#000000;stroke-width:6;stroke-miterlimit:10;stroke-opacity:1;stroke-dasharray:none;stroke-dashoffset:0"
         id="path2985-17-9"
         sodipodi:cx="220.71428"
         sodipodi:cy="439.50504"
         sodipodi:rx="16.428572"
         sodipodi:ry="17.142857"
         d="m 237.14285,439.50504 a 16.428572,17.142857 0 1 1 -32.85714,0 16.428572,17.142857 0 1 1 32.85714,0 z"
         transform="matrix(0.50349378,0.86399885,-0.86399885,0.50349378,398.71801,321.33704)" />
      <path
         transform="matrix(0.50349378,0.86399885,-0.86399885,0.50349378,447.62884,405.26836)"
         sodipodi:type="arc"
         style="opacity:0.5;fill:#000000;fill-opacity:1;fill-rule:evenodd;stroke:#000000;stroke-width:6;stroke-miterlimit:10;stroke-opacity:1;stroke-dasharray:none;stroke-dashoffset:0"
         id="path2985-1-1-3"
         sodipodi:cx="220.71428"
         sodipodi:cy="439.50504"
         sodipodi:rx="16.428572"
         sodipodi:ry="17.142857"
         d="m 237.14285,439.50504 a 16.428572,17.142857 0 1 1 -32.85714,0 16.428572,17.142857 0 1 1 32.85714,0 z" />
      <rect
         style="opacity:0.5;fill:#000000;fill-opacity:1;fill-rule:evenodd;stroke:#000000;stroke-width:5.76100779;stroke-miterlimit:10;stroke-opacity:1;stroke-dasharray:none;stroke-dashoffset:0"
         id="rect3773-1-4"
         width="49.717964"
         height="10.714286"
         x="722.8136"
         y="251.44733"
         rx="3.68769"
         ry="4"
         transform="matrix(0.50349378,0.86399885,-0.86399885,0.50349378,0,0)" />
      <path
         sodipodi:type="arc"
         style="opacity:0.5;fill:#000000;fill-opacity:1;fill-rule:evenodd;stroke:#000000;stroke-width:6;stroke-miterlimit:10;stroke-opacity:1;stroke-dasharray:none;stroke-dashoffset:0"
         id="path2985-17-5-4"
         sodipodi:cx="220.71428"
         sodipodi:cy="439.50504"
         sodipodi:rx="16.428572"
         sodipodi:ry="17.142857"
         d="m 237.14285,439.50504 a 16.428572,17.142857 0 1 1 -32.85714,0 16.428572,17.142857 0 1 1 32.85714,0 z"
         transform="matrix(0.50349378,0.86399885,-0.86399885,0.50349378,366.72087,293.70948)" />
      <path
         sodipodi:type="arc"
         style="opacity:0.5;fill:#000000;fill-opacity:1;fill-rule:evenodd;stroke:#000000;stroke-width:6;stroke-miterlimit:10;stroke-opacity:1;stroke-dasharray:none;stroke-dashoffset:0"
         id="path2985-17-2-6"
         sodipodi:cx="220.71428"
         sodipodi:cy="439.50504"
         sodipodi:rx="16.428572"
         sodipodi:ry="17.142857"
         d="m 237.14285,439.50504 a 16.428572,17.142857 0 1 1 -32.85714,0 16.428572,17.142857 0 1 1 32.85714,0 z"
         transform="matrix(0.50349378,0.86399885,-0.86399885,0.50349378,455.51215,446.07593)" />
      <path
         sodipodi:type="arc"
         style="opacity:0.5;fill:#000000;fill-opacity:1;fill-rule:evenodd;stroke:#000000;stroke-width:6;stroke-miterlimit:10;stroke-opacity:1;stroke-dasharray:none;stroke-dashoffset:0"
         id="path2985-17-6-0"
         sodipodi:cx="220.71428"
         sodipodi:cy="439.50504"
         sodipodi:rx="16.428572"
         sodipodi:ry="17.142857"
         d="m 237.14285,439.50504 a 16.428572,17.142857 0 1 1 -32.85714,0 16.428572,17.142857 0 1 1 32.85714,0 z"
         transform="matrix(0.50349378,0.86399885,-0.86399885,0.50349378,497.6742,226.79399)" />
      <path
         sodipodi:type="arc"
         style="opacity:0.5;fill:#000000;fill-opacity:1;fill-rule:evenodd;stroke:#000000;stroke-width:6;stroke-miterlimit:10;stroke-opacity:1;stroke-dasharray:none;stroke-dashoffset:0"
         id="path2985-17-6-2-66"
         sodipodi:cx="220.71428"
         sodipodi:cy="439.50504"
         sodipodi:rx="16.428572"
         sodipodi:ry="17.142857"
         d="m 237.14285,439.50504 a 16.428572,17.142857 0 1 1 -32.85714,0 16.428572,17.142857 0 1 1 32.85714,0 z"
         transform="matrix(0.50349378,0.86399885,-0.86399885,0.50349378,576.80969,364.9174)" />
      <text
         xml:space="preserve"
         style="font-size:40px;font-style:normal;font-weight:normal;line-height:125%;letter-spacing:0px;word-spacing:0px;fill:#000000;fill-opacity:1;stroke:none;font-family:Sans"
         x="724.25262"
         y="229.10718"
         id="text4068-1"
         sodipodi:linespacing="125%"
         transform="matrix(0.50349378,0.86399885,-0.86399885,0.50349378,0,0)"><tspan
           sodipodi:role="line"
           id="tspan4070-8"
           x="724.25262"
           y="229.10718"
           style="font-size:56px">...</tspan></text>
      <text
         xml:space="preserve"
         style="font-size:40px;font-style:normal;font-weight:normal;line-height:125%;letter-spacing:0px;word-spacing:0px;fill:#000000;fill-opacity:1;stroke:none;font-family:Sans"
         x="592.01868"
         y="277.63916"
         id="text4068-1-6"
         sodipodi:linespacing="125%"
         transform="matrix(0.50349378,0.86399885,-0.86399885,0.50349378,0,0)"><tspan
           sodipodi:role="line"
           id="tspan4070-8-3"
           x="592.01868"
           y="277.63916"
           style="font-size:56px">...</tspan></text>
      <text
         xml:space="preserve"
         style="font-size:40px;font-style:normal;font-weight:normal;line-height:125%;letter-spacing:0px;word-spacing:0px;fill:#000000;fill-opacity:1;stroke:none;font-family:Sans"
         x="860.01868"
         y="274.35345"
         id="text4068-1-7"
         sodipodi:linespacing="125%"
         transform="matrix(0.50349378,0.86399885,-0.86399885,0.50349378,0,0)"><tspan
           sodipodi:role="line"
           id="tspan4070-8-8"
           x="860.01868"
           y="274.35345"
           style="font-size:56px">...</tspan></text>
      <text
         xml:space="preserve"
         style="font-size:40px;font-style:normal;font-weight:normal;line-height:125%;letter-spacing:0px;word-spacing:0px;fill:#000000;fill-opacity:1;stroke:none;font-family:Sans"
         x="325.73297"
         y="273.35345"
         id="text4068-1-8"
         sodipodi:linespacing="125%"
         transform="matrix(0.50349378,0.86399885,-0.86399885,0.50349378,0,0)"><tspan
           sodipodi:role="line"
           id="tspan4070-8-2"
           x="325.73297"
           y="273.35345"
           style="font-size:56px">...</tspan></text>
      <g
         id="g4282"
         transform="matrix(0.48146629,-0.8764646,0.8764646,0.48146629,-446.9277,246.12748)">
        <rect
           ry="2.2597497"
           rx="3.68769"
           transform="matrix(0.50349378,0.86399885,-0.86399885,0.50349378,0,0)"
           y="-127.66698"
           x="567.58148"
           height="63.353699"
           width="174.28572"
           id="rect4272"
           style="opacity:0.5;fill:none;stroke:#000000;stroke-width:4.50973892;stroke-miterlimit:10;stroke-opacity:1;stroke-dasharray:none;stroke-dashoffset:0" />
        <flowRoot
           transform="matrix(0.50349378,0.86399885,-0.86399885,0.50349378,343.78384,65.473257)"
           style="font-size:40px;font-style:normal;font-weight:normal;line-height:125%;letter-spacing:0px;word-spacing:0px;fill:#000000;fill-opacity:1;stroke:none;font-family:Sans"
           id="flowRoot4274"
           xml:space="preserve"><flowRegion
             id="flowRegion4276"><rect
               y="148.79076"
               x="404.28571"
               height="48.57143"
               width="87.85714"
               id="rect4278" /></flowRegion><flowPara
             id="flowPara4280">s0</flowPara></flowRoot>      </g>
      <rect
         style="opacity:0.5;fill:none;stroke:#000000;stroke-width:7.01537466;stroke-miterlimit:10;stroke-opacity:1;stroke-dasharray:none;stroke-dashoffset:0"
         id="rect4289"
         width="489.72516"
         height="354.33429"
         x="143.13161"
         y="-217.70293"
         transform="matrix(0.50349378,0.86399885,-0.86399885,0.50349378,0,0)"
         rx="4.0817442"
         ry="2.7910538" />
      <text
         xml:space="preserve"
         style="font-size:40px;font-style:normal;font-weight:normal;line-height:125%;letter-spacing:0px;word-spacing:0px;fill:#000000;fill-opacity:1;stroke:none;font-family:Sans"
         x="569.46118"
         y="-168.84041"
         id="text4291"
         sodipodi:linespacing="125%"
         transform="matrix(0.50349378,0.86399885,-0.86399885,0.50349378,0,0)"><tspan
           sodipodi:role="line"
           id="tspan4293"
           x="569.46118"
           y="-168.84041">s0</tspan></text>
      <text
         xml:space="preserve"
         style="font-size:40px;font-style:normal;font-weight:normal;line-height:125%;letter-spacing:0px;word-spacing:0px;fill:#000000;fill-opacity:1;stroke:none;font-family:Sans"
         x="571.60333"
         y="190.57086"
         id="text4295"
         sodipodi:linespacing="125%"
         transform="matrix(0.50349378,0.86399885,-0.86399885,0.50349378,0,0)"><tspan
           sodipodi:role="line"
           id="tspan4297"
           x="571.60333"
           y="190.57086">h &gt;2</tspan></text>
      <text
         xml:space="preserve"
         style="font-size:66.6056366px;font-style:normal;font-weight:normal;line-height:125%;letter-spacing:0px;word-spacing:0px;fill:#000000;fill-opacity:1;stroke:none;font-family:Sans"
         x="496.00574"
         y="-189.62636"
         id="text4299"
         sodipodi:linespacing="125%"
         transform="matrix(-0.51359048,0.31141653,-0.84163531,-1.4367495,0,0)"><tspan
           sodipodi:role="line"
           id="tspan4301"
           x="496.00574"
           y="-189.62636">}</tspan></text>
      <text
         xml:space="preserve"
         style="font-size:209.56459045000000000px;font-style:normal;font-weight:normal;line-height:125%;letter-spacing:0px;word-spacing:0px;fill:#000000;fill-opacity:1;stroke:none;font-family:Arial;-inkscape-font-specification:Arial;font-stretch:normal;font-variant:normal"
         x="510.16837"
         y="-364.11377"
         id="text4299-9"
         sodipodi:linespacing="125%"
         transform="matrix(-0.49128625,0.29895732,-0.87874093,-1.5007421,0,0)"><tspan
           sodipodi:role="line"
           id="tspan4301-1"
           x="510.16837"
           y="-364.11377"
           style="-inkscape-font-specification:Calibri;font-family:Calibri;font-weight:normal;font-style:normal;font-stretch:normal;font-variant:normal">}</tspan></text>
    </g>
  </g>
</svg>
